  0
SECTION
  2
HEADER
  9
$ACADVER
  1
AC1009
  9
$EXTMIN
 10
0.0
 20
0.0
 30
0.0
  9
$EXTMAX
 10
1000.0
 20
1000.0
 30
0.0
  9
$FILLMODE
 70
 0
  9
$SPLFRAME
 70
 1
  0
ENDSEC
  0
SECTION
  2
TABLES
  0
TABLE
  2
LAYER
 70
1
  0
LAYER
  2
0
 70
     0
 62
     7
  6
CONTINUOUS
  0
ENDTAB
  0
ENDSEC
  0
SECTION
  2
ENTITIES
  0
POLYLINE
  8
0
 62
     0
 66
     1
 10
0
 20
0
 30
0.0
 70
     1
 40
0
 41
0
  0
VERTEX
  8
0
 10
10.3308
 20
-48.0289
 30
0.0
 40
0
 41
0
  0
VERTEX
  8
0
 10
10.1938
 20
-47.9967
 30
0.0
 40
0
 41
0
  0
VERTEX
  8
0
 10
9.509
 20
-47.8539
 30
0.0
 40
0
 41
0
  0
VERTEX
  8
0
 10
8.82417
 20
-47.7111
 30
0.0
 40
0
 41
0
  0
VERTEX
  8
0
 10
8.68722
 20
-47.6789
 30
0.0
 40
0
 41
0
  0
VERTEX
  8
0
 10
8.58561
 20
-47.655
 30
0.0
 40
0
 41
0
  0
VERTEX
  8
0
 10
8.28212
 20
-47.5782
 30
0.0
 40
0
 41
0
  0
VERTEX
  8
0
 10
7.88531
 20
-47.4671
 30
0.0
 40
0
 41
0
  0
VERTEX
  8
0
 10
7.49181
 20
-47.3421
 30
0.0
 40
0
 41
0
  0
VERTEX
  8
0
 10
7.19472
 20
-47.2374
 30
0.0
 40
0
 41
0
  0
VERTEX
  8
0
 10
7.09668
 20
-47.2
 30
0.0
 40
0
 41
0
  0
VERTEX
  8
0
 10
6.96853
 20
-47.1539
 30
0.0
 40
0
 41
0
  0
VERTEX
  8
0
 10
6.31907
 20
-46.9283
 30
0.0
 40
0
 41
0
  0
VERTEX
  8
0
 10
5.6696
 20
-46.6843
 30
0.0
 40
0
 41
0
  0
VERTEX
  8
0
 10
5.5415
 20
-46.629
 30
0.0
 40
0
 41
0
  0
VERTEX
  8
0
 10
5.4089
 20
-46.5692
 30
0.0
 40
0
 41
0
  0
VERTEX
  8
0
 10
4.75722
 20
-46.2468
 30
0.0
 40
0
 41
0
  0
VERTEX
  8
0
 10
4.11436
 20
-45.906
 30
0.0
 40
0
 41
0
  0
VERTEX
  8
0
 10
3.98628
 20
-45.8369
 30
0.0
 40
0
 41
0
  0
VERTEX
  8
0
 10
3.89296
 20
-45.7865
 30
0.0
 40
0
 41
0
  0
VERTEX
  8
0
 10
3.6155
 20
-45.6312
 30
0.0
 40
0
 41
0
  0
VERTEX
  8
0
 10
3.24729
 20
-45.4142
 30
0.0
 40
0
 41
0
  0
VERTEX
  8
0
 10
2.88406
 20
-45.1844
 30
0.0
 40
0
 41
0
  0
VERTEX
  8
0
 10
2.52826
 20
-44.9413
 30
0.0
 40
0
 41
0
  0
VERTEX
  8
0
 10
2.1824
 20
-44.6833
 30
0.0
 40
0
 41
0
  0
VERTEX
  8
0
 10
1.84896
 20
-44.4097
 30
0.0
 40
0
 41
0
  0
VERTEX
  8
0
 10
1.53043
 20
-44.1192
 30
0.0
 40
0
 41
0
  0
VERTEX
  8
0
 10
1.30214
 20
-43.8901
 30
0.0
 40
0
 41
0
  0
VERTEX
  8
0
 10
1.22933
 20
-43.8108
 30
0.0
 40
0
 41
0
  0
VERTEX
  8
0
 10
1.16021
 20
-43.7354
 30
0.0
 40
0
 41
0
  0
VERTEX
  8
0
 10
0.966146
 20
-43.4971
 30
0.0
 40
0
 41
0
  0
VERTEX
  8
0
 10
0.72781
 20
-43.1661
 30
0.0
 40
0
 41
0
  0
VERTEX
  8
0
 10
0.506076
 20
-42.8212
 30
0.0
 40
0
 41
0
  0
VERTEX
  8
0
 10
0.345269
 20
-42.5553
 30
0.0
 40
0
 41
0
  0
VERTEX
  8
0
 10
0.292643
 20
-42.4661
 30
0.0
 40
0
 41
0
  0
VERTEX
  8
0
 10
0.241211
 20
-42.379
 30
0.0
 40
0
 41
0
  0
VERTEX
  8
0
 10
0.121962
 20
-42.0971
 30
0.0
 40
0
 41
0
  0
VERTEX
  8
0
 10
0.0275065
 20
-41.7108
 30
0.0
 40
0
 41
0
  0
VERTEX
  8
0
 10
-0.000651042
 20
-41.3108
 30
0.0
 40
0
 41
0
  0
VERTEX
  8
0
 10
0.01454
 20
-41.0022
 30
0.0
 40
0
 41
0
  0
VERTEX
  8
0
 10
0.0275608
 20
-40.9006
 30
0.0
 40
0
 41
0
  0
VERTEX
  8
0
 10
0.0341254
 20
-40.8522
 30
0.0
 40
0
 41
0
  0
VERTEX
  8
0
 10
0.0681424
 20
-40.7096
 30
0.0
 40
0
 41
0
  0
VERTEX
  8
0
 10
0.133572
 20
-40.524
 30
0.0
 40
0
 41
0
  0
VERTEX
  8
0
 10
0.218912
 20
-40.3435
 30
0.0
 40
0
 41
0
  0
VERTEX
  8
0
 10
0.319174
 20
-40.1682
 30
0.0
 40
0
 41
0
  0
VERTEX
  8
0
 10
0.429308
 20
-39.9982
 30
0.0
 40
0
 41
0
  0
VERTEX
  8
0
 10
0.544487
 20
-39.8332
 30
0.0
 40
0
 41
0
  0
VERTEX
  8
0
 10
0.659614
 20
-39.6735
 30
0.0
 40
0
 41
0
  0
VERTEX
  8
0
 10
0.742622
 20
-39.5578
 30
0.0
 40
0
 41
0
  0
VERTEX
  8
0
 10
0.769803
 20
-39.5189
 30
0.0
 40
0
 41
0
  0
VERTEX
  8
0
 10
0.829861
 20
-39.4354
 30
0.0
 40
0
 41
0
  0
VERTEX
  8
0
 10
1.02414
 20
-39.1949
 30
0.0
 40
0
 41
0
  0
VERTEX
  8
0
 10
1.30664
 20
-38.8881
 30
0.0
 40
0
 41
0
  0
VERTEX
  8
0
 10
1.61231
 20
-38.6019
 30
0.0
 40
0
 41
0
  0
VERTEX
  8
0
 10
1.85297
 20
-38.4025
 30
0.0
 40
0
 41
0
  0
VERTEX
  8
0
 10
1.93625
 20
-38.3401
 30
0.0
 40
0
 41
0
  0
VERTEX
  8
0
 10
2.01887
 20
-38.2764
 30
0.0
 40
0
 41
0
  0
VERTEX
  8
0
 10
2.27382
 20
-38.0943
 30
0.0
 40
0
 41
0
  0
VERTEX
  8
0
 10
2.62213
 20
-37.8656
 30
0.0
 40
0
 41
0
  0
VERTEX
  8
0
 10
2.97879
 20
-37.6501
 30
0.0
 40
0
 41
0
  0
VERTEX
  8
0
 10
3.34119
 20
-37.4444
 30
0.0
 40
0
 41
0
  0
VERTEX
  8
0
 10
3.70692
 20
-37.2449
 30
0.0
 40
0
 41
0
  0
VERTEX
  8
0
 10
4.07351
 20
-37.0475
 30
0.0
 40
0
 41
0
  0
VERTEX
  8
0
 10
4.43842
 20
-36.849
 30
0.0
 40
0
 41
0
  0
VERTEX
  8
0
 10
4.70958
 20
-36.6974
 30
0.0
 40
0
 41
0
  0
VERTEX
  8
0
 10
4.79921
 20
-36.6454
 30
0.0
 40
0
 41
0
  0
VERTEX
  8
0
 10
4.98486
 20
-36.5349
 30
0.0
 40
0
 41
0
  0
VERTEX
  8
0
 10
5.55225
 20
-36.2204
 30
0.0
 40
0
 41
0
  0
VERTEX
  8
0
 10
6.31685
 20
-35.8143
 30
0.0
 40
0
 41
0
  0
VERTEX
  8
0
 10
7.07818
 20
-35.4047
 30
0.0
 40
0
 41
0
  0
VERTEX
  8
0
 10
7.63878
 20
-35.0835
 30
0.0
 40
0
 41
0
  0
VERTEX
  8
0
 10
7.82129
 20
-34.9693
 30
0.0
 40
0
 41
0
  0
VERTEX
  8
0
 10
7.91151
 20
-34.9136
 30
0.0
 40
0
 41
0
  0
VERTEX
  8
0
 10
8.17583
 20
-34.7358
 30
0.0
 40
0
 41
0
  0
VERTEX
  8
0
 10
8.52376
 20
-34.4835
 30
0.0
 40
0
 41
0
  0
VERTEX
  8
0
 10
8.86507
 20
-34.2207
 30
0.0
 40
0
 41
0
  0
VERTEX
  8
0
 10
9.11615
 20
-34.0224
 30
0.0
 40
0
 41
0
  0
VERTEX
  8
0
 10
9.19976
 20
-33.9563
 30
0.0
 40
0
 41
0
  0
VERTEX
  8
0
 10
9.27821
 20
-33.8914
 30
0.0
 40
0
 41
0
  0
VERTEX
  8
0
 10
9.50265
 20
-33.6836
 30
0.0
 40
0
 41
0
  0
VERTEX
  8
0
 10
9.78071
 20
-33.3921
 30
0.0
 40
0
 41
0
  0
VERTEX
  8
0
 10
10.0422
 20
-33.0832
 30
0.0
 40
0
 41
0
  0
VERTEX
  8
0
 10
10.2332
 20
-32.8408
 30
0.0
 40
0
 41
0
  0
VERTEX
  8
0
 10
10.2955
 20
-32.7589
 30
0.0
 40
0
 41
0
  0
VERTEX
  8
0
 10
10.3271
 20
-32.7189
 30
0.0
 40
0
 41
0
  0
VERTEX
  8
0
 10
10.4239
 20
-32.6006
 30
0.0
 40
0
 41
0
  0
VERTEX
  8
0
 10
10.5547
 20
-32.4417
 30
0.0
 40
0
 41
0
  0
VERTEX
  8
0
 10
10.6834
 20
-32.2803
 30
0.0
 40
0
 41
0
  0
VERTEX
  8
0
 10
10.8057
 20
-32.1142
 30
0.0
 40
0
 41
0
  0
VERTEX
  8
0
 10
10.9173
 20
-31.9413
 30
0.0
 40
0
 41
0
  0
VERTEX
  8
0
 10
11.0137
 20
-31.759
 30
0.0
 40
0
 41
0
  0
VERTEX
  8
0
 10
11.0906
 20
-31.5657
 30
0.0
 40
0
 41
0
  0
VERTEX
  8
0
 10
11.1341
 20
-31.4114
 30
0.0
 40
0
 41
0
  0
VERTEX
  8
0
 10
11.1438
 20
-31.359
 30
0.0
 40
0
 41
0
  0
VERTEX
  8
0
 10
11.1673
 20
-31.2501
 30
0.0
 40
0
 41
0
  0
VERTEX
  8
0
 10
11.2313
 20
-30.9218
 30
0.0
 40
0
 41
0
  0
VERTEX
  8
0
 10
11.3006
 20
-30.4725
 30
0.0
 40
0
 41
0
  0
VERTEX
  8
0
 10
11.3401
 20
-30.0199
 30
0.0
 40
0
 41
0
  0
VERTEX
  8
0
 10
11.3448
 20
-29.6839
 30
0.0
 40
0
 41
0
  0
VERTEX
  8
0
 10
11.3382
 20
-29.5724
 30
0.0
 40
0
 41
0
  0
VERTEX
  8
0
 10
11.3348
 20
-29.5204
 30
0.0
 40
0
 41
0
  0
VERTEX
  8
0
 10
11.3208
 20
-29.3651
 30
0.0
 40
0
 41
0
  0
VERTEX
  8
0
 10
11.305
 20
-29.1579
 30
0.0
 40
0
 41
0
  0
VERTEX
  8
0
 10
11.3058
 20
-28.9507
 30
0.0
 40
0
 41
0
  0
VERTEX
  8
0
 10
11.3252
 20
-28.7939
 30
0.0
 40
0
 41
0
  0
VERTEX
  8
0
 10
11.3382
 20
-28.7435
 30
0.0
 40
0
 41
0
  0
VERTEX
  8
0
 10
11.3481
 20
-28.6882
 30
0.0
 40
0
 41
0
  0
VERTEX
  8
0
 10
11.3953
 20
-28.5256
 30
0.0
 40
0
 41
0
  0
VERTEX
  8
0
 10
11.4773
 20
-28.3129
 30
0.0
 40
0
 41
0
  0
VERTEX
  8
0
 10
11.5692
 20
-28.1036
 30
0.0
 40
0
 41
0
  0
VERTEX
  8
0
 10
11.6361
 20
-27.9486
 30
0.0
 40
0
 41
0
  0
VERTEX
  8
0
 10
11.6563
 20
-27.8961
 30
0.0
 40
0
 41
0
  0
VERTEX
  8
0
 10
11.6725
 20
-27.8547
 30
0.0
 40
0
 41
0
  0
VERTEX
  8
0
 10
11.7163
 20
-27.7286
 30
0.0
 40
0
 41
0
  0
VERTEX
  8
0
 10
11.7791
 20
-27.5369
 30
0.0
 40
0
 41
0
  0
VERTEX
  8
0
 10
11.8473
 20
-27.3314
 30
0.0
 40
0
 41
0
  0
VERTEX
  8
0
 10
11.9236
 20
-27.1225
 30
0.0
 40
0
 41
0
  0
VERTEX
  8
0
 10
12.0106
 20
-26.9204
 30
0.0
 40
0
 41
0
  0
VERTEX
  8
0
 10
12.1111
 20
-26.7357
 30
0.0
 40
0
 41
0
  0
VERTEX
  8
0
 10
12.2277
 20
-26.5786
 30
0.0
 40
0
 41
0
  0
VERTEX
  8
0
 10
12.3259
 20
-26.4842
 30
0.0
 40
0
 41
0
  0
VERTEX
  8
0
 10
12.3632
 20
-26.4594
 30
0.0
 40
0
 41
0
  0
VERTEX
  8
0
 10
12.3953
 20
-26.4393
 30
0.0
 40
0
 41
0
  0
VERTEX
  8
0
 10
12.4954
 20
-26.3849
 30
0.0
 40
0
 41
0
  0
VERTEX
  8
0
 10
12.626
 20
-26.3189
 30
0.0
 40
0
 41
0
  0
VERTEX
  8
0
 10
12.7534
 20
-26.2496
 30
0.0
 40
0
 41
0
  0
VERTEX
  8
0
 10
12.8468
 20
-26.1881
 30
0.0
 40
0
 41
0
  0
VERTEX
  8
0
 10
12.8757
 20
-26.1647
 30
0.0
 40
0
 41
0
  0
VERTEX
  8
0
 10
12.9124
 20
-26.1333
 30
0.0
 40
0
 41
0
  0
VERTEX
  8
0
 10
13.0154
 20
-26.0308
 30
0.0
 40
0
 41
0
  0
VERTEX
  8
0
 10
13.1452
 20
-25.8814
 30
0.0
 40
0
 41
0
  0
VERTEX
  8
0
 10
13.2683
 20
-25.7217
 30
0.0
 40
0
 41
0
  0
VERTEX
  8
0
 10
13.3584
 20
-25.5982
 30
0.0
 40
0
 41
0
  0
VERTEX
  8
0
 10
13.3882
 20
-25.5568
 30
0.0
 40
0
 41
0
  0
VERTEX
  8
0
 10
13.4721
 20
-25.4508
 30
0.0
 40
0
 41
0
  0
VERTEX
  8
0
 10
13.9161
 20
-24.9351
 30
0.0
 40
0
 41
0
  0
VERTEX
  8
0
 10
14.3867
 20
-24.4378
 30
0.0
 40
0
 41
0
  0
VERTEX
  8
0
 10
14.4839
 20
-24.3411
 30
0.0
 40
0
 41
0
  0
VERTEX
  8
0
 10
14.6456
 20
-24.1864
 30
0.0
 40
0
 41
0
  0
VERTEX
  8
0
 10
15.149
 20
-23.7421
 30
0.0
 40
0
 41
0
  0
VERTEX
  8
0
 10
15.8425
 20
-23.1829
 30
0.0
 40
0
 41
0
  0
VERTEX
  8
0
 10
16.559
 20
-22.6549
 30
0.0
 40
0
 41
0
  0
VERTEX
  8
0
 10
17.1086
 20
-22.2733
 30
0.0
 40
0
 41
0
  0
VERTEX
  8
0
 10
17.2939
 20
-22.1492
 30
0.0
 40
0
 41
0
  0
VERTEX
  8
0
 10
17.481
 20
-22.0267
 30
0.0
 40
0
 41
0
  0
VERTEX
  8
0
 10
18.0472
 20
-21.6674
 30
0.0
 40
0
 41
0
  0
VERTEX
  8
0
 10
18.8074
 20
-21.1988
 30
0.0
 40
0
 41
0
  0
VERTEX
  8
0
 10
19.5713
 20
-20.7381
 30
0.0
 40
0
 41
0
  0
VERTEX
  8
0
 10
20.3358
 20
-20.2796
 30
0.0
 40
0
 41
0
  0
VERTEX
  8
0
 10
21.0978
 20
-19.8175
 30
0.0
 40
0
 41
0
  0
VERTEX
  8
0
 10
21.8543
 20
-19.3465
 30
0.0
 40
0
 41
0
  0
VERTEX
  8
0
 10
22.6021
 20
-18.8607
 30
0.0
 40
0
 41
0
  0
VERTEX
  8
0
 10
23.156
 20
-18.484
 30
0.0
 40
0
 41
0
  0
VERTEX
  8
0
 10
23.3381
 20
-18.3547
 30
0.0
 40
0
 41
0
  0
VERTEX
  8
0
 10
23.5156
 20
-18.2285
 30
0.0
 40
0
 41
0
  0
VERTEX
  8
0
 10
24.0488
 20
-17.8506
 30
0.0
 40
0
 41
0
  0
VERTEX
  8
0
 10
24.7599
 20
-17.3431
 30
0.0
 40
0
 41
0
  0
VERTEX
  8
0
 10
25.4662
 20
-16.8274
 30
0.0
 40
0
 41
0
  0
VERTEX
  8
0
 10
26.1635
 20
-16.2986
 30
0.0
 40
0
 41
0
  0
VERTEX
  8
0
 10
26.8465
 20
-15.7517
 30
0.0
 40
0
 41
0
  0
VERTEX
  8
0
 10
27.5107
 20
-15.1817
 30
0.0
 40
0
 41
0
  0
VERTEX
  8
0
 10
28.1513
 20
-14.5835
 30
0.0
 40
0
 41
0
  0
VERTEX
  8
0
 10
28.6149
 20
-14.1142
 30
0.0
 40
0
 41
0
  0
VERTEX
  8
0
 10
28.7636
 20
-13.9524
 30
0.0
 40
0
 41
0
  0
VERTEX
  8
0
 10
28.8346
 20
-13.8749
 30
0.0
 40
0
 41
0
  0
VERTEX
  8
0
 10
29.0497
 20
-13.6444
 30
0.0
 40
0
 41
0
  0
VERTEX
  8
0
 10
29.3362
 20
-13.34
 30
0.0
 40
0
 41
0
  0
VERTEX
  8
0
 10
29.6203
 20
-13.0354
 30
0.0
 40
0
 41
0
  0
VERTEX
  8
0
 10
29.899
 20
-12.7275
 30
0.0
 40
0
 41
0
  0
VERTEX
  8
0
 10
30.1694
 20
-12.4126
 30
0.0
 40
0
 41
0
  0
VERTEX
  8
0
 10
30.4286
 20
-12.0874
 30
0.0
 40
0
 41
0
  0
VERTEX
  8
0
 10
30.6738
 20
-11.7484
 30
0.0
 40
0
 41
0
  0
VERTEX
  8
0
 10
30.8478
 20
-11.4828
 30
0.0
 40
0
 41
0
  0
VERTEX
  8
0
 10
30.9019
 20
-11.3921
 30
0.0
 40
0
 41
0
  0
VERTEX
  8
0
 10
30.9554
 20
-11.3015
 30
0.0
 40
0
 41
0
  0
VERTEX
  8
0
 10
31.1157
 20
-11.0297
 30
0.0
 40
0
 41
0
  0
VERTEX
  8
0
 10
31.3261
 20
-10.6622
 30
0.0
 40
0
 41
0
  0
VERTEX
  8
0
 10
31.5232
 20
-10.2912
 30
0.0
 40
0
 41
0
  0
VERTEX
  8
0
 10
31.6569
 20
-10.013
 30
0.0
 40
0
 41
0
  0
VERTEX
  8
0
 10
31.6972
 20
-9.91851
 30
0.0
 40
0
 41
0
  0
VERTEX
  8
0
 10
31.7374
 20
-9.82411
 30
0.0
 40
0
 41
0
  0
VERTEX
  8
0
 10
31.8468
 20
-9.53624
 30
0.0
 40
0
 41
0
  0
VERTEX
  8
0
 10
31.98
 20
-9.14025
 30
0.0
 40
0
 41
0
  0
VERTEX
  8
0
 10
32.0999
 20
-8.73731
 30
0.0
 40
0
 41
0
  0
VERTEX
  8
0
 10
32.1831
 20
-8.43533
 30
0.0
 40
0
 41
0
  0
VERTEX
  8
0
 10
32.2097
 20
-8.33442
 30
0.0
 40
0
 41
0
  0
VERTEX
  8
0
 10
32.239
 20
-8.22889
 30
0.0
 40
0
 41
0
  0
VERTEX
  8
0
 10
32.2936
 20
-7.90294
 30
0.0
 40
0
 41
0
  0
VERTEX
  8
0
 10
32.3246
 20
-7.46636
 30
0.0
 40
0
 41
0
  0
VERTEX
  8
0
 10
32.329
 20
-7.02632
 30
0.0
 40
0
 41
0
  0
VERTEX
  8
0
 10
32.3301
 20
-6.69493
 30
0.0
 40
0
 41
0
  0
VERTEX
  8
0
 10
32.3335
 20
-6.58458
 30
0.0
 40
0
 41
0
  0
VERTEX
  8
0
 10
32.3335
 20
-6.46962
 30
0.0
 40
0
 41
0
  0
VERTEX
  8
0
 10
32.311
 20
-6.12489
 30
0.0
 40
0
 41
0
  0
VERTEX
  8
0
 10
32.2472
 20
-5.69808
 30
0.0
 40
0
 41
0
  0
VERTEX
  8
0
 10
32.1471
 20
-5.28157
 30
0.0
 40
0
 41
0
  0
VERTEX
  8
0
 10
32.0504
 20
-4.95947
 30
0.0
 40
0
 41
0
  0
VERTEX
  8
0
 10
32.0154
 20
-4.85308
 30
0.0
 40
0
 41
0
  0
VERTEX
  8
0
 10
31.9824
 20
-4.75185
 30
0.0
 40
0
 41
0
  0
VERTEX
  8
0
 10
31.8782
 20
-4.44993
 30
0.0
 40
0
 41
0
  0
VERTEX
  8
0
 10
31.7304
 20
-4.05583
 30
0.0
 40
0
 41
0
  0
VERTEX
  8
0
 10
31.5692
 20
-3.67122
 30
0.0
 40
0
 41
0
  0
VERTEX
  8
0
 10
31.3924
 20
-3.2966
 30
0.0
 40
0
 41
0
  0
VERTEX
  8
0
 10
31.1972
 20
-2.93229
 30
0.0
 40
0
 41
0
  0
VERTEX
  8
0
 10
30.9814
 20
-2.57878
 30
0.0
 40
0
 41
0
  0
VERTEX
  8
0
 10
30.7425
 20
-2.23649
 30
0.0
 40
0
 41
0
  0
VERTEX
  8
0
 10
30.5467
 20
-1.98622
 30
0.0
 40
0
 41
0
  0
VERTEX
  8
0
 10
30.4778
 20
-1.90593
 30
0.0
 40
0
 41
0
  0
VERTEX
  8
0
 10
30.3456
 20
-1.75082
 30
0.0
 40
0
 41
0
  0
VERTEX
  8
0
 10
29.9256
 20
-1.30523
 30
0.0
 40
0
 41
0
  0
VERTEX
  8
0
 10
29.3335
 20
-0.747775
 30
0.0
 40
0
 41
0
  0
VERTEX
  8
0
 10
28.7083
 20
-0.235189
 30
0.0
 40
0
 41
0
  0
VERTEX
  8
0
 10
28.2232
 20
0.119683
 30
0.0
 40
0
 41
0
  0
VERTEX
  8
0
 10
28.0567
 20
0.23074
 30
0.0
 40
0
 41
0
  0
VERTEX
  8
0
 10
27.9731
 20
0.286458
 30
0.0
 40
0
 41
0
  0
VERTEX
  8
0
 10
27.7106
 20
0.43571
 30
0.0
 40
0
 41
0
  0
VERTEX
  8
0
 10
27.3431
 20
0.61301
 30
0.0
 40
0
 41
0
  0
VERTEX
  8
0
 10
26.9656
 20
0.769532
 30
0.0
 40
0
 41
0
  0
VERTEX
  8
0
 10
26.684
 20
0.877225
 30
0.0
 40
0
 41
0
  0
VERTEX
  8
0
 10
26.5897
 20
0.912272
 30
0.0
 40
0
 41
0
  0
VERTEX
  8
0
 10
26.5235
 20
0.935331
 30
0.0
 40
0
 41
0
  0
VERTEX
  8
0
 10
26.201
 20
1.04123
 30
0.0
 40
0
 41
0
  0
VERTEX
  8
0
 10
25.8785
 20
1.14719
 30
0.0
 40
0
 41
0
  0
VERTEX
  8
0
 10
25.8122
 20
1.17019
 30
0.0
 40
0
 41
0
  0
VERTEX
  8
0
 10
25.7565
 20
1.18728
 30
0.0
 40
0
 41
0
  0
VERTEX
  8
0
 10
25.5924
 20
1.24761
 30
0.0
 40
0
 41
0
  0
VERTEX
  8
0
 10
25.3792
 20
1.33366
 30
0.0
 40
0
 41
0
  0
VERTEX
  8
0
 10
25.166
 20
1.41629
 30
0.0
 40
0
 41
0
  0
VERTEX
  8
0
 10
25.0019
 20
1.46967
 30
0.0
 40
0
 41
0
  0
VERTEX
  8
0
 10
24.9463
 20
1.48329
 30
0.0
 40
0
 41
0
  0
VERTEX
  8
0
 10
24.8426
 20
1.51465
 30
0.0
 40
0
 41
0
  0
VERTEX
  8
0
 10
24.524
 20
1.58317
 30
0.0
 40
0
 41
0
  0
VERTEX
  8
0
 10
24.0868
 20
1.64681
 30
0.0
 40
0
 41
0
  0
VERTEX
  8
0
 10
23.6464
 20
1.69314
 30
0.0
 40
0
 41
0
  0
VERTEX
  8
0
 10
23.3221
 20
1.72715
 30
0.0
 40
0
 41
0
  0
VERTEX
  8
0
 10
23.2143
 20
1.74115
 30
0.0
 40
0
 41
0
  0
VERTEX
  8
0
 10
23.0685
 20
1.75499
 30
0.0
 40
0
 41
0
  0
VERTEX
  8
0
 10
22.3283
 20
1.80567
 30
0.0
 40
0
 41
0
  0
VERTEX
  8
0
 10
21.5796
 20
1.81944
 30
0.0
 40
0
 41
0
  0
VERTEX
  8
0
 10
21.4293
 20
1.81478
 30
0.0
 40
0
 41
0
  0
VERTEX
  8
0
 10
21.3204
 20
1.80794
 30
0.0
 40
0
 41
0
  0
VERTEX
  8
0
 10
20.9947
 20
1.77251
 30
0.0
 40
0
 41
0
  0
VERTEX
  8
0
 10
20.5633
 20
1.71126
 30
0.0
 40
0
 41
0
  0
VERTEX
  8
0
 10
20.1319
 20
1.64649
 30
0.0
 40
0
 41
0
  0
VERTEX
  8
0
 10
19.8063
 20
1.60417
 30
0.0
 40
0
 41
0
  0
VERTEX
  8
0
 10
19.6974
 20
1.59381
 30
0.0
 40
0
 41
0
  0
VERTEX
  8
0
 10
19.5897
 20
1.58365
 30
0.0
 40
0
 41
0
  0
VERTEX
  8
0
 10
19.2689
 20
1.53082
 30
0.0
 40
0
 41
0
  0
VERTEX
  8
0
 10
18.8535
 20
1.435
 30
0.0
 40
0
 41
0
  0
VERTEX
  8
0
 10
18.4449
 20
1.32189
 30
0.0
 40
0
 41
0
  0
VERTEX
  8
0
 10
18.1386
 20
1.23459
 30
0.0
 40
0
 41
0
  0
VERTEX
  8
0
 10
18.0361
 20
1.20703
 30
0.0
 40
0
 41
0
  0
VERTEX
  8
0
 10
17.8328
 20
1.14893
 30
0.0
 40
0
 41
0
  0
VERTEX
  8
0
 10
17.2325
 20
0.939671
 30
0.0
 40
0
 41
0
  0
VERTEX
  8
0
 10
16.4589
 20
0.615289
 30
0.0
 40
0
 41
0
  0
VERTEX
  8
0
 10
15.705
 20
0.246039
 30
0.0
 40
0
 41
0
  0
VERTEX
  8
0
 10
15.1456
 20
-0.0529514
 30
0.0
 40
0
 41
0
  0
VERTEX
  8
0
 10
14.9611
 20
-0.156033
 30
0.0
 40
0
 41
0
  0
VERTEX
  8
0
 10
14.871
 20
-0.206435
 30
0.0
 40
0
 41
0
  0
VERTEX
  8
0
 10
14.6043
 20
-0.363932
 30
0.0
 40
0
 41
0
  0
VERTEX
  8
0
 10
14.2508
 20
-0.586589
 30
0.0
 40
0
 41
0
  0
VERTEX
  8
0
 10
13.9024
 20
-0.823025
 30
0.0
 40
0
 41
0
  0
VERTEX
  8
0
 10
13.5605
 20
-1.07243
 30
0.0
 40
0
 41
0
  0
VERTEX
  8
0
 10
13.2269
 20
-1.33388
 30
0.0
 40
0
 41
0
  0
VERTEX
  8
0
 10
12.9033
 20
-1.60661
 30
0.0
 40
0
 41
0
  0
VERTEX
  8
0
 10
12.5913
 20
-1.88965
 30
0.0
 40
0
 41
0
  0
VERTEX
  8
0
 10
12.3657
 20
-2.10764
 30
0.0
 40
0
 41
0
  0
VERTEX
  8
0
 10
12.2925
 20
-2.18224
 30
0.0
 40
0
 41
0
  0
VERTEX
  8
0
 10
12.144
 20
-2.3335
 30
0.0
 40
0
 41
0
  0
VERTEX
  8
0
 10
11.7162
 20
-2.80442
 30
0.0
 40
0
 41
0
  0
VERTEX
  8
0
 10
11.1813
 20
-3.45774
 30
0.0
 40
0
 41
0
  0
VERTEX
  8
0
 10
10.6895
 20
-4.14561
 30
0.0
 40
0
 41
0
  0
VERTEX
  8
0
 10
10.3477
 20
-4.68631
 30
0.0
 40
0
 41
0
  0
VERTEX
  8
0
 10
10.2425
 20
-4.87147
 30
0.0
 40
0
 41
0
  0
VERTEX
  8
0
 10
10.1718
 20
-5.00038
 30
0.0
 40
0
 41
0
  0
VERTEX
  8
0
 10
9.84256
 20
-5.65663
 30
0.0
 40
0
 41
0
  0
VERTEX
  8
0
 10
9.53993
 20
-6.322
 30
0.0
 40
0
 41
0
  0
VERTEX
  8
0
 10
9.48253
 20
-6.45557
 30
0.0
 40
0
 41
0
  0
VERTEX
  8
0
 10
9.47825
 20
-6.46446
 30
0.0
 40
0
 41
0
  0
VERTEX
  8
0
 10
9.46485
 20
-6.4911
 30
0.0
 40
0
 41
0
  0
VERTEX
  8
0
 10
9.44054
 20
-6.53961
 30
0.0
 40
0
 41
0
  0
VERTEX
  8
0
 10
9.41292
 20
-6.59674
 30
0.0
 40
0
 41
0
  0
VERTEX
  8
0
 10
9.38531
 20
-6.65821
 30
0.0
 40
0
 41
0
  0
VERTEX
  8
0
 10
9.361
 20
-6.71962
 30
0.0
 40
0
 41
0
  0
VERTEX
  8
0
 10
9.34332
 20
-6.77675
 30
0.0
 40
0
 41
0
  0
VERTEX
  8
0
 10
9.33561
 20
-6.82525
 30
0.0
 40
0
 41
0
  0
VERTEX
  8
0
 10
9.3374
 20
-6.85308
 30
0.0
 40
0
 41
0
  0
VERTEX
  8
0
 10
9.34115
 20
-6.86083
 30
0.0
 40
0
 41
0
  0
VERTEX
  8
0
 10
9.34733
 20
-6.87375
 30
0.0
 40
0
 41
0
  0
VERTEX
  8
0
 10
9.38471
 20
-6.90369
 30
0.0
 40
0
 41
0
  0
VERTEX
  8
0
 10
9.45156
 20
-6.92757
 30
0.0
 40
0
 41
0
  0
VERTEX
  8
0
 10
9.52501
 20
-6.94108
 30
0.0
 40
0
 41
0
  0
VERTEX
  8
0
 10
9.57292
 20
-6.94883
 30
0.0
 40
0
 41
0
  0
VERTEX
  8
0
 10
9.58854
 20
-6.9529
 30
0.0
 40
0
 41
0
  0
VERTEX
  8
0
 10
9.63129
 20
-6.97347
 30
0.0
 40
0
 41
0
  0
VERTEX
  8
0
 10
9.74897
 20
-7.05735
 30
0.0
 40
0
 41
0
  0
VERTEX
  8
0
 10
9.89117
 20
-7.19467
 30
0.0
 40
0
 41
0
  0
VERTEX
  8
0
 10
10.0234
 20
-7.34924
 30
0.0
 40
0
 41
0
  0
VERTEX
  8
0
 10
10.1206
 20
-7.46712
 30
0.0
 40
0
 41
0
  0
VERTEX
  8
0
 10
10.1541
 20
-7.50553
 30
0.0
 40
0
 41
0
  0
VERTEX
  8
0
 10
10.2242
 20
-7.58556
 30
0.0
 40
0
 41
0
  0
VERTEX
  8
0
 10
10.4388
 20
-7.82206
 30
0.0
 40
0
 41
0
  0
VERTEX
  8
0
 10
10.7351
 20
-8.13172
 30
0.0
 40
0
 41
0
  0
VERTEX
  8
0
 10
11.0413
 20
-8.42763
 30
0.0
 40
0
 41
0
  0
VERTEX
  8
0
 10
11.2753
 20
-8.63633
 30
0.0
 40
0
 41
0
  0
VERTEX
  8
0
 10
11.3558
 20
-8.70281
 30
0.0
 40
0
 41
0
  0
VERTEX
  8
0
 10
11.383
 20
-8.72706
 30
0.0
 40
0
 41
0
  0
VERTEX
  8
0
 10
11.4632
 20
-8.80149
 30
0.0
 40
0
 41
0
  0
VERTEX
  8
0
 10
11.5922
 20
-8.91228
 30
0.0
 40
0
 41
0
  0
VERTEX
  8
0
 10
11.7311
 20
-9.00586
 30
0.0
 40
0
 41
0
  0
VERTEX
  8
0
 10
11.8332
 20
-9.0491
 30
0.0
 40
0
 41
0
  0
VERTEX
  8
0
 10
11.8683
 20
-9.05279
 30
0.0
 40
0
 41
0
  0
VERTEX
  8
0
 10
11.8852
 20
-9.05436
 30
0.0
 40
0
 41
0
  0
VERTEX
  8
0
 10
11.9372
 20
-9.04671
 30
0.0
 40
0
 41
0
  0
VERTEX
  8
0
 10
11.9989
 20
-9.01824
 30
0.0
 40
0
 41
0
  0
VERTEX
  8
0
 10
12.0544
 20
-8.97244
 30
0.0
 40
0
 41
0
  0
VERTEX
  8
0
 10
12.1047
 20
-8.91461
 30
0.0
 40
0
 41
0
  0
VERTEX
  8
0
 10
12.1509
 20
-8.84983
 30
0.0
 40
0
 41
0
  0
VERTEX
  8
0
 10
12.1939
 20
-8.78336
 30
0.0
 40
0
 41
0
  0
VERTEX
  8
0
 10
12.2349
 20
-8.72032
 30
0.0
 40
0
 41
0
  0
VERTEX
  8
0
 10
12.2641
 20
-8.67893
 30
0.0
 40
0
 41
0
  0
VERTEX
  8
0
 10
12.2748
 20
-8.66596
 30
0.0
 40
0
 41
0
  0
VERTEX
  8
0
 10
12.3543
 20
-8.54622
 30
0.0
 40
0
 41
0
  0
VERTEX
  8
0
 10
12.7564
 20
-7.94065
 30
0.0
 40
0
 41
0
  0
VERTEX
  8
0
 10
13.1761
 20
-7.34435
 30
0.0
 40
0
 41
0
  0
VERTEX
  8
0
 10
13.2645
 20
-7.22922
 30
0.0
 40
0
 41
0
  0
VERTEX
  8
0
 10
13.313
 20
-7.16932
 30
0.0
 40
0
 41
0
  0
VERTEX
  8
0
 10
13.5472
 20
-6.86079
 30
0.0
 40
0
 41
0
  0
VERTEX
  8
0
 10
13.7814
 20
-6.55225
 30
0.0
 40
0
 41
0
  0
VERTEX
  8
0
 10
13.83
 20
-6.4924
 30
0.0
 40
0
 41
0
  0
VERTEX
  8
0
 10
13.8426
 20
-6.47743
 30
0.0
 40
0
 41
0
  0
VERTEX
  8
0
 10
13.8819
 20
-6.43386
 30
0.0
 40
0
 41
0
  0
VERTEX
  8
0
 10
13.9404
 20
-6.36979
 30
0.0
 40
0
 41
0
  0
VERTEX
  8
0
 10
13.999
 20
-6.30138
 30
0.0
 40
0
 41
0
  0
VERTEX
  8
0
 10
14.0508
 20
-6.22993
 30
0.0
 40
0
 41
0
  0
VERTEX
  8
0
 10
14.0896
 20
-6.15674
 30
0.0
 40
0
 41
0
  0
VERTEX
  8
0
 10
14.1083
 20
-6.08317
 30
0.0
 40
0
 41
0
  0
VERTEX
  8
0
 10
14.1007
 20
-6.01042
 30
0.0
 40
0
 41
0
  0
VERTEX
  8
0
 10
14.0729
 20
-5.95503
 30
0.0
 40
0
 41
0
  0
VERTEX
  8
0
 10
14.0597
 20
-5.93989
 30
0.0
 40
0
 41
0
  0
VERTEX
  8
0
 10
14.0318
 20
-5.90712
 30
0.0
 40
0
 41
0
  0
VERTEX
  8
0
 10
13.9253
 20
-5.82844
 30
0.0
 40
0
 41
0
  0
VERTEX
  8
0
 10
13.7527
 20
-5.73947
 30
0.0
 40
0
 41
0
  0
VERTEX
  8
0
 10
13.5702
 20
-5.66786
 30
0.0
 40
0
 41
0
  0
VERTEX
  8
0
 10
13.4467
 20
-5.62375
 30
0.0
 40
0
 41
0
  0
VERTEX
  8
0
 10
13.4059
 20
-5.60829
 30
0.0
 40
0
 41
0
  0
VERTEX
  8
0
 10
13.3803
 20
-5.59663
 30
0.0
 40
0
 41
0
  0
VERTEX
  8
0
 10
13.3037
 20
-5.56136
 30
0.0
 40
0
 41
0
  0
VERTEX
  8
0
 10
13.2078
 20
-5.51958
 30
0.0
 40
0
 41
0
  0
VERTEX
  8
0
 10
13.1166
 20
-5.48649
 30
0.0
 40
0
 41
0
  0
VERTEX
  8
0
 10
13.0281
 20
-5.4655
 30
0.0
 40
0
 41
0
  0
VERTEX
  8
0
 10
12.9404
 20
-5.46001
 30
0.0
 40
0
 41
0
  0
VERTEX
  8
0
 10
12.8517
 20
-5.47358
 30
0.0
 40
0
 41
0
  0
VERTEX
  8
0
 10
12.76
 20
-5.50956
 30
0.0
 40
0
 41
0
  0
VERTEX
  8
0
 10
12.6862
 20
-5.5541
 30
0.0
 40
0
 41
0
  0
VERTEX
  8
0
 10
12.6636
 20
-5.57146
 30
0.0
 40
0
 41
0
  0
VERTEX
  8
0
 10
12.6512
 20
-5.58068
 30
0.0
 40
0
 41
0
  0
VERTEX
  8
0
 10
12.6142
 20
-5.60861
 30
0.0
 40
0
 41
0
  0
VERTEX
  8
0
 10
12.5598
 20
-5.64794
 30
0.0
 40
0
 41
0
  0
VERTEX
  8
0
 10
12.5021
 20
-5.68474
 30
0.0
 40
0
 41
0
  0
VERTEX
  8
0
 10
12.4427
 20
-5.71419
 30
0.0
 40
0
 41
0
  0
VERTEX
  8
0
 10
12.3833
 20
-5.7315
 30
0.0
 40
0
 41
0
  0
VERTEX
  8
0
 10
12.3256
 20
-5.73204
 30
0.0
 40
0
 41
0
  0
VERTEX
  8
0
 10
12.2712
 20
-5.71094
 30
0.0
 40
0
 41
0
  0
VERTEX
  8
0
 10
12.2319
 20
-5.67703
 30
0.0
 40
0
 41
0
  0
VERTEX
  8
0
 10
12.2218
 20
-5.66351
 30
0.0
 40
0
 41
0
  0
VERTEX
  8
0
 10
12.2092
 20
-5.65039
 30
0.0
 40
0
 41
0
  0
VERTEX
  8
0
 10
12.1835
 20
-5.59956
 30
0.0
 40
0
 41
0
  0
VERTEX
  8
0
 10
12.1712
 20
-5.52132
 30
0.0
 40
0
 41
0
  0
VERTEX
  8
0
 10
12.1792
 20
-5.43365
 30
0.0
 40
0
 41
0
  0
VERTEX
  8
0
 10
12.2019
 20
-5.34119
 30
0.0
 40
0
 41
0
  0
VERTEX
  8
0
 10
12.2337
 20
-5.24869
 30
0.0
 40
0
 41
0
  0
VERTEX
  8
0
 10
12.269
 20
-5.16103
 30
0.0
 40
0
 41
0
  0
VERTEX
  8
0
 10
12.3023
 20
-5.08279
 30
0.0
 40
0
 41
0
  0
VERTEX
  8
0
 10
12.322
 20
-5.035
 30
0.0
 40
0
 41
0
  0
VERTEX
  8
0
 10
12.3278
 20
-5.01882
 30
0.0
 40
0
 41
0
  0
VERTEX
  8
0
 10
12.3451
 20
-4.97917
 30
0.0
 40
0
 41
0
  0
VERTEX
  8
0
 10
12.3991
 20
-4.86111
 30
0.0
 40
0
 41
0
  0
VERTEX
  8
0
 10
12.4811
 20
-4.69678
 30
0.0
 40
0
 41
0
  0
VERTEX
  8
0
 10
12.5742
 20
-4.53282
 30
0.0
 40
0
 41
0
  0
VERTEX
  8
0
 10
12.679
 20
-4.37642
 30
0.0
 40
0
 41
0
  0
VERTEX
  8
0
 10
12.7964
 20
-4.23469
 30
0.0
 40
0
 41
0
  0
VERTEX
  8
0
 10
12.9268
 20
-4.11481
 30
0.0
 40
0
 41
0
  0
VERTEX
  8
0
 10
13.0708
 20
-4.02382
 30
0.0
 40
0
 41
0
  0
VERTEX
  8
0
 10
13.1885
 20
-3.97738
 30
0.0
 40
0
 41
0
  0
VERTEX
  8
0
 10
13.2292
 20
-3.96892
 30
0.0
 40
0
 41
0
  0
VERTEX
  8
0
 10
13.2798
 20
-3.95736
 30
0.0
 40
0
 41
0
  0
VERTEX
  8
0
 10
13.4365
 20
-3.94276
 30
0.0
 40
0
 41
0
  0
VERTEX
  8
0
 10
13.635
 20
-3.95654
 30
0.0
 40
0
 41
0
  0
VERTEX
  8
0
 10
13.8262
 20
-4.00353
 30
0.0
 40
0
 41
0
  0
VERTEX
  8
0
 10
14.0111
 20
-4.07715
 30
0.0
 40
0
 41
0
  0
VERTEX
  8
0
 10
14.1911
 20
-4.17057
 30
0.0
 40
0
 41
0
  0
VERTEX
  8
0
 10
14.3674
 20
-4.27713
 30
0.0
 40
0
 41
0
  0
VERTEX
  8
0
 10
14.5411
 20
-4.39019
 30
0.0
 40
0
 41
0
  0
VERTEX
  8
0
 10
14.6703
 20
-4.47526
 30
0.0
 40
0
 41
0
  0
VERTEX
  8
0
 10
14.7136
 20
-4.5031
 30
0.0
 40
0
 41
0
  0
VERTEX
  8
0
 10
14.7315
 20
-4.51421
 30
0.0
 40
0
 41
0
  0
VERTEX
  8
0
 10
14.7838
 20
-4.54975
 30
0.0
 40
0
 41
0
  0
VERTEX
  8
0
 10
14.8608
 20
-4.60351
 30
0.0
 40
0
 41
0
  0
VERTEX
  8
0
 10
14.9432
 20
-4.65944
 30
0.0
 40
0
 41
0
  0
VERTEX
  8
0
 10
15.0296
 20
-4.71262
 30
0.0
 40
0
 41
0
  0
VERTEX
  8
0
 10
15.1183
 20
-4.75797
 30
0.0
 40
0
 41
0
  0
VERTEX
  8
0
 10
15.2082
 20
-4.79058
 30
0.0
 40
0
 41
0
  0
VERTEX
  8
0
 10
15.2976
 20
-4.8055
 30
0.0
 40
0
 41
0
  0
VERTEX
  8
0
 10
15.364
 20
-4.80285
 30
0.0
 40
0
 41
0
  0
VERTEX
  8
0
 10
15.3853
 20
-4.79779
 30
0.0
 40
0
 41
0
  0
VERTEX
  8
0
 10
15.4061
 20
-4.79232
 30
0.0
 40
0
 41
0
  0
VERTEX
  8
0
 10
15.4662
 20
-4.76579
 30
0.0
 40
0
 41
0
  0
VERTEX
  8
0
 10
15.5493
 20
-4.71463
 30
0.0
 40
0
 41
0
  0
VERTEX
  8
0
 10
15.6332
 20
-4.64919
 30
0.0
 40
0
 41
0
  0
VERTEX
  8
0
 10
15.7165
 20
-4.57449
 30
0.0
 40
0
 41
0
  0
VERTEX
  8
0
 10
15.7983
 20
-4.49544
 30
0.0
 40
0
 41
0
  0
VERTEX
  8
0
 10
15.8772
 20
-4.41704
 30
0.0
 40
0
 41
0
  0
VERTEX
  8
0
 10
15.9521
 20
-4.34424
 30
0.0
 40
0
 41
0
  0
VERTEX
  8
0
 10
16.0035
 20
-4.29693
 30
0.0
 40
0
 41
0
  0
VERTEX
  8
0
 10
16.0214
 20
-4.28207
 30
0.0
 40
0
 41
0
  0
VERTEX
  8
0
 10
16.1231
 20
-4.18994
 30
0.0
 40
0
 41
0
  0
VERTEX
  8
0
 10
16.6554
 20
-3.74561
 30
0.0
 40
0
 41
0
  0
VERTEX
  8
0
 10
17.2143
 20
-3.32889
 30
0.0
 40
0
 41
0
  0
VERTEX
  8
0
 10
17.3293
 20
-3.2506
 30
0.0
 40
0
 41
0
  0
VERTEX
  8
0
 10
17.4176
 20
-3.18918
 30
0.0
 40
0
 41
0
  0
VERTEX
  8
0
 10
17.6879
 20
-3.01226
 30
0.0
 40
0
 41
0
  0
VERTEX
  8
0
 10
18.0515
 20
-2.79465
 30
0.0
 40
0
 41
0
  0
VERTEX
  8
0
 10
18.4251
 20
-2.59776
 30
0.0
 40
0
 41
0
  0
VERTEX
  8
0
 10
18.7153
 20
-2.46268
 30
0.0
 40
0
 41
0
  0
VERTEX
  8
0
 10
18.8137
 20
-2.42165
 30
0.0
 40
0
 41
0
  0
VERTEX
  8
0
 10
18.8238
 20
-2.41699
 30
0.0
 40
0
 41
0
  0
VERTEX
  8
0
 10
18.854
 20
-2.40354
 30
0.0
 40
0
 41
0
  0
VERTEX
  8
0
 10
18.9135
 20
-2.3781
 30
0.0
 40
0
 41
0
  0
VERTEX
  8
0
 10
18.989
 20
-2.3469
 30
0.0
 40
0
 41
0
  0
VERTEX
  8
0
 10
19.0781
 20
-2.31168
 30
0.0
 40
0
 41
0
  0
VERTEX
  8
0
 10
19.1774
 20
-2.27408
 30
0.0
 40
0
 41
0
  0
VERTEX
  8
0
 10
19.2844
 20
-2.23579
 30
0.0
 40
0
 41
0
  0
VERTEX
  8
0
 10
19.3961
 20
-2.19846
 30
0.0
 40
0
 41
0
  0
VERTEX
  8
0
 10
19.5096
 20
-2.16374
 30
0.0
 40
0
 41
0
  0
VERTEX
  8
0
 10
19.6221
 20
-2.1334
 30
0.0
 40
0
 41
0
  0
VERTEX
  8
0
 10
19.7307
 20
-2.109
 30
0.0
 40
0
 41
0
  0
VERTEX
  8
0
 10
19.8325
 20
-2.09229
 30
0.0
 40
0
 41
0
  0
VERTEX
  8
0
 10
19.9246
 20
-2.0849
 30
0.0
 40
0
 41
0
  0
VERTEX
  8
0
 10
20.0042
 20
-2.08854
 30
0.0
 40
0
 41
0
  0
VERTEX
  8
0
 10
20.0685
 20
-2.10487
 30
0.0
 40
0
 41
0
  0
VERTEX
  8
0
 10
20.1144
 20
-2.13553
 30
0.0
 40
0
 41
0
  0
VERTEX
  8
0
 10
20.1363
 20
-2.16976
 30
0.0
 40
0
 41
0
  0
VERTEX
  8
0
 10
20.1392
 20
-2.18224
 30
0.0
 40
0
 41
0
  0
VERTEX
  8
0
 10
20.1437
 20
-2.19971
 30
0.0
 40
0
 41
0
  0
VERTEX
  8
0
 10
20.1329
 20
-2.25868
 30
0.0
 40
0
 41
0
  0
VERTEX
  8
0
 10
20.0824
 20
-2.33475
 30
0.0
 40
0
 41
0
  0
VERTEX
  8
0
 10
19.9994
 20
-2.40821
 30
0.0
 40
0
 41
0
  0
VERTEX
  8
0
 10
19.8961
 20
-2.47694
 30
0.0
 40
0
 41
0
  0
VERTEX
  8
0
 10
19.7847
 20
-2.53874
 30
0.0
 40
0
 41
0
  0
VERTEX
  8
0
 10
19.6769
 20
-2.59147
 30
0.0
 40
0
 41
0
  0
VERTEX
  8
0
 10
19.5849
 20
-2.63297
 30
0.0
 40
0
 41
0
  0
VERTEX
  8
0
 10
19.5367
 20
-2.65397
 30
0.0
 40
0
 41
0
  0
VERTEX
  8
0
 10
19.5207
 20
-2.66114
 30
0.0
 40
0
 41
0
  0
VERTEX
  8
0
 10
19.4589
 20
-2.69797
 30
0.0
 40
0
 41
0
  0
VERTEX
  8
0
 10
18.8403
 20
-3.06635
 30
0.0
 40
0
 41
0
  0
VERTEX
  8
0
 10
18.7785
 20
-3.10319
 30
0.0
 40
0
 41
0
  0
VERTEX
  8
0
 10
18.6882
 20
-3.16233
 30
0.0
 40
0
 41
0
  0
VERTEX
  8
0
 10
18.4214
 20
-3.34521
 30
0.0
 40
0
 41
0
  0
VERTEX
  8
0
 10
18.0693
 20
-3.60281
 30
0.0
 40
0
 41
0
  0
VERTEX
  8
0
 10
17.7272
 20
-3.87765
 30
0.0
 40
0
 41
0
  0
VERTEX
  8
0
 10
17.4794
 20
-4.0956
 30
0.0
 40
0
 41
0
  0
VERTEX
  8
0
 10
17.4
 20
-4.17156
 30
0.0
 40
0
 41
0
  0
VERTEX
  8
0
 10
17.3514
 20
-4.21294
 30
0.0
 40
0
 41
0
  0
VERTEX
  8
0
 10
17.1171
 20
-4.42942
 30
0.0
 40
0
 41
0
  0
VERTEX
  8
0
 10
16.8829
 20
-4.64583
 30
0.0
 40
0
 41
0
  0
VERTEX
  8
0
 10
16.8344
 20
-4.68728
 30
0.0
 40
0
 41
0
  0
VERTEX
  8
0
 10
16.7988
 20
-4.72071
 30
0.0
 40
0
 41
0
  0
VERTEX
  8
0
 10
16.6864
 20
-4.81532
 30
0.0
 40
0
 41
0
  0
VERTEX
  8
0
 10
16.5251
 20
-4.95204
 30
0.0
 40
0
 41
0
  0
VERTEX
  8
0
 10
16.3771
 20
-5.09912
 30
0.0
 40
0
 41
0
  0
VERTEX
  8
0
 10
16.2894
 20
-5.21539
 30
0.0
 40
0
 41
0
  0
VERTEX
  8
0
 10
16.2689
 20
-5.25831
 30
0.0
 40
0
 41
0
  0
VERTEX
  8
0
 10
16.2601
 20
-5.27783
 30
0.0
 40
0
 41
0
  0
VERTEX
  8
0
 10
16.2456
 20
-5.34147
 30
0.0
 40
0
 41
0
  0
VERTEX
  8
0
 10
16.2515
 20
-5.41282
 30
0.0
 40
0
 41
0
  0
VERTEX
  8
0
 10
16.281
 20
-5.47424
 30
0.0
 40
0
 41
0
  0
VERTEX
  8
0
 10
16.3285
 20
-5.52767
 30
0.0
 40
0
 41
0
  0
VERTEX
  8
0
 10
16.3885
 20
-5.57503
 30
0.0
 40
0
 41
0
  0
VERTEX
  8
0
 10
16.4553
 20
-5.61833
 30
0.0
 40
0
 41
0
  0
VERTEX
  8
0
 10
16.5233
 20
-5.65944
 30
0.0
 40
0
 41
0
  0
VERTEX
  8
0
 10
16.5714
 20
-5.68956
 30
0.0
 40
0
 41
0
  0
VERTEX
  8
0
 10
16.5869
 20
-5.70036
 30
0.0
 40
0
 41
0
  0
VERTEX
  8
0
 10
16.6324
 20
-5.72944
 30
0.0
 40
0
 41
0
  0
VERTEX
  8
0
 10
16.7654
 20
-5.8215
 30
0.0
 40
0
 41
0
  0
VERTEX
  8
0
 10
16.9536
 20
-5.95133
 30
0.0
 40
0
 41
0
  0
VERTEX
  8
0
 10
17.1486
 20
-6.07081
 30
0.0
 40
0
 41
0
  0
VERTEX
  8
0
 10
17.2957
 20
-6.14312
 30
0.0
 40
0
 41
0
  0
VERTEX
  8
0
 10
17.3469
 20
-6.16092
 30
0.0
 40
0
 41
0
  0
VERTEX
  8
0
 10
17.3663
 20
-6.16868
 30
0.0
 40
0
 41
0
  0
VERTEX
  8
0
 10
17.4283
 20
-6.18224
 30
0.0
 40
0
 41
0
  0
VERTEX
  8
0
 10
17.5012
 20
-6.17958
 30
0.0
 40
0
 41
0
  0
VERTEX
  8
0
 10
17.5671
 20
-6.15668
 30
0.0
 40
0
 41
0
  0
VERTEX
  8
0
 10
17.6275
 20
-6.11714
 30
0.0
 40
0
 41
0
  0
VERTEX
  8
0
 10
17.6836
 20
-6.06461
 30
0.0
 40
0
 41
0
  0
VERTEX
  8
0
 10
17.7371
 20
-6.00288
 30
0.0
 40
0
 41
0
  0
VERTEX
  8
0
 10
17.7893
 20
-5.93549
 30
0.0
 40
0
 41
0
  0
VERTEX
  8
0
 10
17.8285
 20
-5.88336
 30
0.0
 40
0
 41
0
  0
VERTEX
  8
0
 10
17.8418
 20
-5.86615
 30
0.0
 40
0
 41
0
  0
VERTEX
  8
0
 10
17.8903
 20
-5.81087
 30
0.0
 40
0
 41
0
  0
VERTEX
  8
0
 10
18.1222
 20
-5.52539
 30
0.0
 40
0
 41
0
  0
VERTEX
  8
0
 10
18.3454
 20
-5.2399
 30
0.0
 40
0
 41
0
  0
VERTEX
  8
0
 10
18.3896
 20
-5.18468
 30
0.0
 40
0
 41
0
  0
VERTEX
  8
0
 10
18.4626
 20
-5.09814
 30
0.0
 40
0
 41
0
  0
VERTEX
  8
0
 10
18.69
 20
-4.8456
 30
0.0
 40
0
 41
0
  0
VERTEX
  8
0
 10
19.0038
 20
-4.51687
 30
0.0
 40
0
 41
0
  0
VERTEX
  8
0
 10
19.324
 20
-4.1951
 30
0.0
 40
0
 41
0
  0
VERTEX
  8
0
 10
19.5644
 20
-3.9566
 30
0.0
 40
0
 41
0
  0
VERTEX
  8
0
 10
19.6443
 20
-3.87685
 30
0.0
 40
0
 41
0
  0
VERTEX
  8
0
 10
19.6524
 20
-3.86843
 30
0.0
 40
0
 41
0
  0
VERTEX
  8
0
 10
19.6771
 20
-3.84364
 30
0.0
 40
0
 41
0
  0
VERTEX
  8
0
 10
19.7271
 20
-3.79449
 30
0.0
 40
0
 41
0
  0
VERTEX
  8
0
 10
19.7919
 20
-3.73242
 30
0.0
 40
0
 41
0
  0
VERTEX
  8
0
 10
19.8688
 20
-3.66037
 30
0.0
 40
0
 41
0
  0
VERTEX
  8
0
 10
19.9554
 20
-3.58143
 30
0.0
 40
0
 41
0
  0
VERTEX
  8
0
 10
20.0492
 20
-3.49864
 30
0.0
 40
0
 41
0
  0
VERTEX
  8
0
 10
20.1474
 20
-3.41499
 30
0.0
 40
0
 41
0
  0
VERTEX
  8
0
 10
20.2474
 20
-3.33344
 30
0.0
 40
0
 41
0
  0
VERTEX
  8
0
 10
20.3469
 20
-3.25711
 30
0.0
 40
0
 41
0
  0
VERTEX
  8
0
 10
20.4432
 20
-3.18896
 30
0.0
 40
0
 41
0
  0
VERTEX
  8
0
 10
20.5338
 20
-3.13206
 30
0.0
 40
0
 41
0
  0
VERTEX
  8
0
 10
20.6161
 20
-3.08942
 30
0.0
 40
0
 41
0
  0
VERTEX
  8
0
 10
20.6875
 20
-3.06396
 30
0.0
 40
0
 41
0
  0
VERTEX
  8
0
 10
20.7454
 20
-3.05886
 30
0.0
 40
0
 41
0
  0
VERTEX
  8
0
 10
20.7874
 20
-3.0771
 30
0.0
 40
0
 41
0
  0
VERTEX
  8
0
 10
20.8081
 20
-3.10975
 30
0.0
 40
0
 41
0
  0
VERTEX
  8
0
 10
20.8108
 20
-3.12164
 30
0.0
 40
0
 41
0
  0
VERTEX
  8
0
 10
20.8142
 20
-3.13921
 30
0.0
 40
0
 41
0
  0
VERTEX
  8
0
 10
20.8071
 20
-3.19532
 30
0.0
 40
0
 41
0
  0
VERTEX
  8
0
 10
20.7743
 20
-3.27588
 30
0.0
 40
0
 41
0
  0
VERTEX
  8
0
 10
20.72
 20
-3.35992
 30
0.0
 40
0
 41
0
  0
VERTEX
  8
0
 10
20.6517
 20
-3.44396
 30
0.0
 40
0
 41
0
  0
VERTEX
  8
0
 10
20.5767
 20
-3.52453
 30
0.0
 40
0
 41
0
  0
VERTEX
  8
0
 10
20.5026
 20
-3.59819
 30
0.0
 40
0
 41
0
  0
VERTEX
  8
0
 10
20.4367
 20
-3.66151
 30
0.0
 40
0
 41
0
  0
VERTEX
  8
0
 10
20.3987
 20
-3.69835
 30
0.0
 40
0
 41
0
  0
VERTEX
  8
0
 10
20.3867
 20
-3.71104
 30
0.0
 40
0
 41
0
  0
VERTEX
  8
0
 10
20.3336
 20
-3.77089
 30
0.0
 40
0
 41
0
  0
VERTEX
  8
0
 10
19.8343
 20
-4.36957
 30
0.0
 40
0
 41
0
  0
VERTEX
  8
0
 10
19.7857
 20
-4.42947
 30
0.0
 40
0
 41
0
  0
VERTEX
  8
0
 10
19.6929
 20
-4.53993
 30
0.0
 40
0
 41
0
  0
VERTEX
  8
0
 10
19.2401
 20
-5.104
 30
0.0
 40
0
 41
0
  0
VERTEX
  8
0
 10
18.7961
 20
-5.67736
 30
0.0
 40
0
 41
0
  0
VERTEX
  8
0
 10
18.7078
 20
-5.79249
 30
0.0
 40
0
 41
0
  0
VERTEX
  8
0
 10
18.675
 20
-5.8341
 30
0.0
 40
0
 41
0
  0
VERTEX
  8
0
 10
18.5704
 20
-5.95394
 30
0.0
 40
0
 41
0
  0
VERTEX
  8
0
 10
18.4183
 20
-6.13092
 30
0.0
 40
0
 41
0
  0
VERTEX
  8
0
 10
18.2828
 20
-6.31831
 30
0.0
 40
0
 41
0
  0
VERTEX
  8
0
 10
18.209
 20
-6.4605
 30
0.0
 40
0
 41
0
  0
VERTEX
  8
0
 10
18.1951
 20
-6.51085
 30
0.0
 40
0
 41
0
  0
VERTEX
  8
0
 10
18.1893
 20
-6.53087
 30
0.0
 40
0
 41
0
  0
VERTEX
  8
0
 10
18.1813
 20
-6.59403
 30
0.0
 40
0
 41
0
  0
VERTEX
  8
0
 10
18.19
 20
-6.66536
 30
0.0
 40
0
 41
0
  0
VERTEX
  8
0
 10
18.2172
 20
-6.72678
 30
0.0
 40
0
 41
0
  0
VERTEX
  8
0
 10
18.2592
 20
-6.78022
 30
0.0
 40
0
 41
0
  0
VERTEX
  8
0
 10
18.3119
 20
-6.82758
 30
0.0
 40
0
 41
0
  0
VERTEX
  8
0
 10
18.3717
 20
-6.87088
 30
0.0
 40
0
 41
0
  0
VERTEX
  8
0
 10
18.4342
 20
-6.912
 30
0.0
 40
0
 41
0
  0
VERTEX
  8
0
 10
18.4804
 20
-6.94239
 30
0.0
 40
0
 41
0
  0
VERTEX
  8
0
 10
18.4957
 20
-6.9529
 30
0.0
 40
0
 41
0
  0
VERTEX
  8
0
 10
18.5372
 20
-6.98182
 30
0.0
 40
0
 41
0
  0
VERTEX
  8
0
 10
18.6604
 20
-7.07118
 30
0.0
 40
0
 41
0
  0
VERTEX
  8
0
 10
18.8336
 20
-7.19467
 30
0.0
 40
0
 41
0
  0
VERTEX
  8
0
 10
19.0101
 20
-7.30772
 30
0.0
 40
0
 41
0
  0
VERTEX
  8
0
 10
19.1397
 20
-7.37685
 30
0.0
 40
0
 41
0
  0
VERTEX
  8
0
 10
19.1849
 20
-7.39497
 30
0.0
 40
0
 41
0
  0
VERTEX
  8
0
 10
19.2053
 20
-7.40104
 30
0.0
 40
0
 41
0
  0
VERTEX
  8
0
 10
19.2697
 20
-7.40864
 30
0.0
 40
0
 41
0
  0
VERTEX
  8
0
 10
19.3406
 20
-7.39725
 30
0.0
 40
0
 41
0
  0
VERTEX
  8
0
 10
19.3999
 20
-7.36518
 30
0.0
 40
0
 41
0
  0
VERTEX
  8
0
 10
19.4499
 20
-7.31668
 30
0.0
 40
0
 41
0
  0
VERTEX
  8
0
 10
19.4935
 20
-7.25612
 30
0.0
 40
0
 41
0
  0
VERTEX
  8
0
 10
19.5328
 20
-7.18778
 30
0.0
 40
0
 41
0
  0
VERTEX
  8
0
 10
19.5704
 20
-7.11594
 30
0.0
 40
0
 41
0
  0
VERTEX
  8
0
 10
19.599
 20
-7.0625
 30
0.0
 40
0
 41
0
  0
VERTEX
  8
0
 10
19.609
 20
-7.04503
 30
0.0
 40
0
 41
0
  0
VERTEX
  8
0
 10
19.661
 20
-6.96029
 30
0.0
 40
0
 41
0
  0
VERTEX
  8
0
 10
19.8286
 20
-6.71317
 30
0.0
 40
0
 41
0
  0
VERTEX
  8
0
 10
20.0663
 20
-6.40722
 30
0.0
 40
0
 41
0
  0
VERTEX
  8
0
 10
20.3272
 20
-6.12543
 30
0.0
 40
0
 41
0
  0
VERTEX
  8
0
 10
20.5412
 20
-5.9274
 30
0.0
 40
0
 41
0
  0
VERTEX
  8
0
 10
20.6164
 20
-5.86615
 30
0.0
 40
0
 41
0
  0
VERTEX
  8
0
 10
20.6504
 20
-5.83708
 30
0.0
 40
0
 41
0
  0
VERTEX
  8
0
 10
20.7525
 20
-5.74957
 30
0.0
 40
0
 41
0
  0
VERTEX
  8
0
 10
20.8704
 20
-5.63818
 30
0.0
 40
0
 41
0
  0
VERTEX
  8
0
 10
20.9717
 20
-5.51644
 30
0.0
 40
0
 41
0
  0
VERTEX
  8
0
 10
21.0397
 20
-5.40722
 30
0.0
 40
0
 41
0
  0
VERTEX
  8
0
 10
21.0582
 20
-5.36882
 30
0.0
 40
0
 41
0
  0
VERTEX
  8
0
 10
21.0892
 20
-5.30431
 30
0.0
 40
0
 41
0
  0
VERTEX
  8
0
 10
21.4117
 20
-4.65967
 30
0.0
 40
0
 41
0
  0
VERTEX
  8
0
 10
21.4469
 20
-4.59521
 30
0.0
 40
0
 41
0
  0
VERTEX
  8
0
 10
21.4928
 20
-4.51318
 30
0.0
 40
0
 41
0
  0
VERTEX
  8
0
 10
21.6487
 20
-4.27746
 30
0.0
 40
0
 41
0
  0
VERTEX
  8
0
 10
21.8822
 20
-3.98736
 30
0.0
 40
0
 41
0
  0
VERTEX
  8
0
 10
22.1453
 20
-3.72488
 30
0.0
 40
0
 41
0
  0
VERTEX
  8
0
 10
22.3611
 20
-3.54486
 30
0.0
 40
0
 41
0
  0
VERTEX
  8
0
 10
22.4367
 20
-3.49001
 30
0.0
 40
0
 41
0
  0
VERTEX
  8
0
 10
22.5183
 20
-3.42974
 30
0.0
 40
0
 41
0
  0
VERTEX
  8
0
 10
22.7704
 20
-3.25879
 30
0.0
 40
0
 41
0
  0
VERTEX
  8
0
 10
23.1314
 20
-3.03928
 30
0.0
 40
0
 41
0
  0
VERTEX
  8
0
 10
23.514
 20
-2.83789
 30
0.0
 40
0
 41
0
  0
VERTEX
  8
0
 10
23.9124
 20
-2.66114
 30
0.0
 40
0
 41
0
  0
VERTEX
  8
0
 10
24.3206
 20
-2.5154
 30
0.0
 40
0
 41
0
  0
VERTEX
  8
0
 10
24.7331
 20
-2.40728
 30
0.0
 40
0
 41
0
  0
VERTEX
  8
0
 10
25.1437
 20
-2.34315
 30
0.0
 40
0
 41
0
  0
VERTEX
  8
0
 10
25.4465
 20
-2.32607
 30
0.0
 40
0
 41
0
  0
VERTEX
  8
0
 10
25.5471
 20
-2.32958
 30
0.0
 40
0
 41
0
  0
VERTEX
  8
0
 10
25.6511
 20
-2.33296
 30
0.0
 40
0
 41
0
  0
VERTEX
  8
0
 10
25.9624
 20
-2.37532
 30
0.0
 40
0
 41
0
  0
VERTEX
  8
0
 10
26.3644
 20
-2.47461
 30
0.0
 40
0
 41
0
  0
VERTEX
  8
0
 10
26.7599
 20
-2.61187
 30
0.0
 40
0
 41
0
  0
VERTEX
  8
0
 10
27.0569
 20
-2.73062
 30
0.0
 40
0
 41
0
  0
VERTEX
  8
0
 10
27.1553
 20
-2.77165
 30
0.0
 40
0
 41
0
  0
VERTEX
  8
0
 10
27.2392
 20
-2.80524
 30
0.0
 40
0
 41
0
  0
VERTEX
  8
0
 10
27.4847
 20
-2.92101
 30
0.0
 40
0
 41
0
  0
VERTEX
  8
0
 10
27.7893
 20
-3.09625
 30
0.0
 40
0
 41
0
  0
VERTEX
  8
0
 10
28.0774
 20
-3.30263
 30
0.0
 40
0
 41
0
  0
VERTEX
  8
0
 10
28.2897
 20
-3.48178
 30
0.0
 40
0
 41
0
  0
VERTEX
  8
0
 10
28.3571
 20
-3.54525
 30
0.0
 40
0
 41
0
  0
VERTEX
  8
0
 10
28.4303
 20
-3.61486
 30
0.0
 40
0
 41
0
  0
VERTEX
  8
0
 10
28.6368
 20
-3.83768
 30
0.0
 40
0
 41
0
  0
VERTEX
  8
0
 10
28.8718
 20
-4.14388
 30
0.0
 40
0
 41
0
  0
VERTEX
  8
0
 10
29.0703
 20
-4.47775
 30
0.0
 40
0
 41
0
  0
VERTEX
  8
0
 10
29.2028
 20
-4.75738
 30
0.0
 40
0
 41
0
  0
VERTEX
  8
0
 10
29.2407
 20
-4.85308
 30
0.0
 40
0
 41
0
  0
VERTEX
  8
0
 10
29.2462
 20
-4.86649
 30
0.0
 40
0
 41
0
  0
VERTEX
  8
0
 10
29.2624
 20
-4.90685
 30
0.0
 40
0
 41
0
  0
VERTEX
  8
0
 10
29.2854
 20
-4.96929
 30
0.0
 40
0
 41
0
  0
VERTEX
  8
0
 10
29.306
 20
-5.03694
 30
0.0
 40
0
 41
0
  0
VERTEX
  8
0
 10
29.3201
 20
-5.10633
 30
0.0
 40
0
 41
0
  0
VERTEX
  8
0
 10
29.3246
 20
-5.17393
 30
0.0
 40
0
 41
0
  0
VERTEX
  8
0
 10
29.3153
 20
-5.23639
 30
0.0
 40
0
 41
0
  0
VERTEX
  8
0
 10
29.2885
 20
-5.29021
 30
0.0
 40
0
 41
0
  0
VERTEX
  8
0
 10
29.2542
 20
-5.32417
 30
0.0
 40
0
 41
0
  0
VERTEX
  8
0
 10
29.2407
 20
-5.33197
 30
0.0
 40
0
 41
0
  0
VERTEX
  8
0
 10
29.2246
 20
-5.34207
 30
0.0
 40
0
 41
0
  0
VERTEX
  8
0
 10
29.1661
 20
-5.35639
 30
0.0
 40
0
 41
0
  0
VERTEX
  8
0
 10
29.0783
 20
-5.35124
 30
0.0
 40
0
 41
0
  0
VERTEX
  8
0
 10
28.9822
 20
-5.32324
 30
0.0
 40
0
 41
0
  0
VERTEX
  8
0
 10
28.8828
 20
-5.27903
 30
0.0
 40
0
 41
0
  0
VERTEX
  8
0
 10
28.785
 20
-5.22532
 30
0.0
 40
0
 41
0
  0
VERTEX
  8
0
 10
28.6939
 20
-5.16878
 30
0.0
 40
0
 41
0
  0
VERTEX
  8
0
 10
28.6144
 20
-5.11615
 30
0.0
 40
0
 41
0
  0
VERTEX
  8
0
 10
28.5674
 20
-5.08447
 30
0.0
 40
0
 41
0
  0
VERTEX
  8
0
 10
28.5515
 20
-5.07417
 30
0.0
 40
0
 41
0
  0
VERTEX
  8
0
 10
28.4643
 20
-5.02365
 30
0.0
 40
0
 41
0
  0
VERTEX
  8
0
 10
28.2008
 20
-4.87522
 30
0.0
 40
0
 41
0
  0
VERTEX
  8
0
 10
27.8535
 20
-4.69879
 30
0.0
 40
0
 41
0
  0
VERTEX
  8
0
 10
27.4928
 20
-4.55344
 30
0.0
 40
0
 41
0
  0
VERTEX
  8
0
 10
27.2011
 20
-4.46778
 30
0.0
 40
0
 41
0
  0
VERTEX
  8
0
 10
27.1024
 20
-4.44786
 30
0.0
 40
0
 41
0
  0
VERTEX
  8
0
 10
26.9999
 20
-4.42714
 30
0.0
 40
0
 41
0
  0
VERTEX
  8
0
 10
26.6886
 20
-4.38363
 30
0.0
 40
0
 41
0
  0
VERTEX
  8
0
 10
26.2717
 20
-4.36263
 30
0.0
 40
0
 41
0
  0
VERTEX
  8
0
 10
25.8547
 20
-4.39344
 30
0.0
 40
0
 41
0
  0
VERTEX
  8
0
 10
25.5421
 20
-4.4541
 30
0.0
 40
0
 41
0
  0
VERTEX
  8
0
 10
25.4411
 20
-4.48469
 30
0.0
 40
0
 41
0
  0
VERTEX
  8
0
 10
25.3457
 20
-4.51383
 30
0.0
 40
0
 41
0
  0
VERTEX
  8
0
 10
25.0675
 20
-4.62776
 30
0.0
 40
0
 41
0
  0
VERTEX
  8
0
 10
24.7156
 20
-4.81793
 30
0.0
 40
0
 41
0
  0
VERTEX
  8
0
 10
24.3857
 20
-5.04867
 30
0.0
 40
0
 41
0
  0
VERTEX
  8
0
 10
24.0781
 20
-5.31353
 30
0.0
 40
0
 41
0
  0
VERTEX
  8
0
 10
23.7926
 20
-5.60601
 30
0.0
 40
0
 41
0
  0
VERTEX
  8
0
 10
23.5299
 20
-5.91971
 30
0.0
 40
0
 41
0
  0
VERTEX
  8
0
 10
23.2899
 20
-6.24799
 30
0.0
 40
0
 41
0
  0
VERTEX
  8
0
 10
23.1249
 20
-6.49903
 30
0.0
 40
0
 41
0
  0
VERTEX
  8
0
 10
23.0729
 20
-6.58458
 30
0.0
 40
0
 41
0
  0
VERTEX
  8
0
 10
23.0149
 20
-6.68088
 30
0.0
 40
0
 41
0
  0
VERTEX
  8
0
 10
22.8575
 20
-6.98004
 30
0.0
 40
0
 41
0
  0
VERTEX
  8
0
 10
22.6793
 20
-7.38531
 30
0.0
 40
0
 41
0
  0
VERTEX
  8
0
 10
22.5343
 20
-7.79926
 30
0.0
 40
0
 41
0
  0
VERTEX
  8
0
 10
22.419
 20
-8.22097
 30
0.0
 40
0
 41
0
  0
VERTEX
  8
0
 10
22.3293
 20
-8.64942
 30
0.0
 40
0
 41
0
  0
VERTEX
  8
0
 10
22.2614
 20
-9.0835
 30
0.0
 40
0
 41
0
  0
VERTEX
  8
0
 10
22.2117
 20
-9.52219
 30
0.0
 40
0
 41
0
  0
VERTEX
  8
0
 10
22.176
 20
-9.96451
 30
0.0
 40
0
 41
0
  0
VERTEX
  8
0
 10
22.1507
 20
-10.4094
 30
0.0
 40
0
 41
0
  0
VERTEX
  8
0
 10
22.1319
 20
-10.8559
 30
0.0
 40
0
 41
0
  0
VERTEX
  8
0
 10
22.1158
 20
-11.303
 30
0.0
 40
0
 41
0
  0
VERTEX
  8
0
 10
22.0987
 20
-11.7495
 30
0.0
 40
0
 41
0
  0
VERTEX
  8
0
 10
22.0765
 20
-12.1945
 30
0.0
 40
0
 41
0
  0
VERTEX
  8
0
 10
22.0456
 20
-12.637
 30
0.0
 40
0
 41
0
  0
VERTEX
  8
0
 10
22.0019
 20
-13.076
 30
0.0
 40
0
 41
0
  0
VERTEX
  8
0
 10
21.9593
 20
-13.4021
 30
0.0
 40
0
 41
0
  0
VERTEX
  8
0
 10
21.9418
 20
-13.5103
 30
0.0
 40
0
 41
0
  0
VERTEX
  8
0
 10
21.9249
 20
-13.6197
 30
0.0
 40
0
 41
0
  0
VERTEX
  8
0
 10
21.8656
 20
-13.9469
 30
0.0
 40
0
 41
0
  0
VERTEX
  8
0
 10
21.7694
 20
-14.3921
 30
0.0
 40
0
 41
0
  0
VERTEX
  8
0
 10
21.6535
 20
-14.8339
 30
0.0
 40
0
 41
0
  0
VERTEX
  8
0
 10
21.5547
 20
-15.1547
 30
0.0
 40
0
 41
0
  0
VERTEX
  8
0
 10
21.5176
 20
-15.2601
 30
0.0
 40
0
 41
0
  0
VERTEX
  8
0
 10
21.4849
 20
-15.356
 30
0.0
 40
0
 41
0
  0
VERTEX
  8
0
 10
21.3611
 20
-15.6343
 30
0.0
 40
0
 41
0
  0
VERTEX
  8
0
 10
21.1664
 20
-15.9878
 30
0.0
 40
0
 41
0
  0
VERTEX
  8
0
 10
20.9486
 20
-16.3274
 30
0.0
 40
0
 41
0
  0
VERTEX
  8
0
 10
20.7789
 20
-16.5769
 30
0.0
 40
0
 41
0
  0
VERTEX
  8
0
 10
20.7225
 20
-16.6601
 30
0.0
 40
0
 41
0
  0
VERTEX
  8
0
 10
20.6607
 20
-16.7482
 30
0.0
 40
0
 41
0
  0
VERTEX
  8
0
 10
20.4615
 20
-17.0026
 30
0.0
 40
0
 41
0
  0
VERTEX
  8
0
 10
20.1831
 20
-17.3143
 30
0.0
 40
0
 41
0
  0
VERTEX
  8
0
 10
19.8876
 20
-17.5987
 30
0.0
 40
0
 41
0
  0
VERTEX
  8
0
 10
19.5758
 20
-17.8596
 30
0.0
 40
0
 41
0
  0
VERTEX
  8
0
 10
19.2483
 20
-18.1007
 30
0.0
 40
0
 41
0
  0
VERTEX
  8
0
 10
18.9057
 20
-18.3257
 30
0.0
 40
0
 41
0
  0
VERTEX
  8
0
 10
18.5485
 20
-18.5379
 30
0.0
 40
0
 41
0
  0
VERTEX
  8
0
 10
18.271
 20
-18.6919
 30
0.0
 40
0
 41
0
  0
VERTEX
  8
0
 10
18.1775
 20
-18.7415
 30
0.0
 40
0
 41
0
  0
VERTEX
  8
0
 10
18.0818
 20
-18.7931
 30
0.0
 40
0
 41
0
  0
VERTEX
  8
0
 10
17.7899
 20
-18.9381
 30
0.0
 40
0
 41
0
  0
VERTEX
  8
0
 10
17.3958
 20
-19.1125
 30
0.0
 40
0
 41
0
  0
VERTEX
  8
0
 10
16.9954
 20
-19.2632
 30
0.0
 40
0
 41
0
  0
VERTEX
  8
0
 10
16.5892
 20
-19.3885
 30
0.0
 40
0
 41
0
  0
VERTEX
  8
0
 10
16.1771
 20
-19.4871
 30
0.0
 40
0
 41
0
  0
VERTEX
  8
0
 10
15.7594
 20
-19.5575
 30
0.0
 40
0
 41
0
  0
VERTEX
  8
0
 10
15.3362
 20
-19.5979
 30
0.0
 40
0
 41
0
  0
VERTEX
  8
0
 10
15.0151
 20
-19.6089
 30
0.0
 40
0
 41
0
  0
VERTEX
  8
0
 10
14.9081
 20
-19.6072
 30
0.0
 40
0
 41
0
  0
VERTEX
  8
0
 10
14.7988
 20
-19.6072
 30
0.0
 40
0
 41
0
  0
VERTEX
  8
0
 10
14.471
 20
-19.6144
 30
0.0
 40
0
 41
0
  0
VERTEX
  8
0
 10
14.0354
 20
-19.6233
 30
0.0
 40
0
 41
0
  0
VERTEX
  8
0
 10
13.6033
 20
-19.615
 30
0.0
 40
0
 41
0
  0
VERTEX
  8
0
 10
13.282
 20
-19.5876
 30
0.0
 40
0
 41
0
  0
VERTEX
  8
0
 10
13.1762
 20
-19.5704
 30
0.0
 40
0
 41
0
  0
VERTEX
  8
0
 10
13.0805
 20
-19.5567
 30
0.0
 40
0
 41
0
  0
VERTEX
  8
0
 10
12.7975
 20
-19.4875
 30
0.0
 40
0
 41
0
  0
VERTEX
  8
0
 10
12.4273
 20
-19.3632
 30
0.0
 40
0
 41
0
  0
VERTEX
  8
0
 10
12.0602
 20
-19.2181
 30
0.0
 40
0
 41
0
  0
VERTEX
  8
0
 10
11.7844
 20
-19.1076
 30
0.0
 40
0
 41
0
  0
VERTEX
  8
0
 10
11.6916
 20
-19.0731
 30
0.0
 40
0
 41
0
  0
VERTEX
  8
0
 10
11.5949
 20
-19.0343
 30
0.0
 40
0
 41
0
  0
VERTEX
  8
0
 10
11.3106
 20
-18.9033
 30
0.0
 40
0
 41
0
  0
VERTEX
  8
0
 10
10.9434
 20
-18.7058
 30
0.0
 40
0
 41
0
  0
VERTEX
  8
0
 10
10.5905
 20
-18.4824
 30
0.0
 40
0
 41
0
  0
VERTEX
  8
0
 10
10.2524
 20
-18.2347
 30
0.0
 40
0
 41
0
  0
VERTEX
  8
0
 10
9.92958
 20
-17.9644
 30
0.0
 40
0
 41
0
  0
VERTEX
  8
0
 10
9.62261
 20
-17.6733
 30
0.0
 40
0
 41
0
  0
VERTEX
  8
0
 10
9.33203
 20
-17.3631
 30
0.0
 40
0
 41
0
  0
VERTEX
  8
0
 10
9.05832
 20
-17.0354
 30
0.0
 40
0
 41
0
  0
VERTEX
  8
0
 10
8.80203
 20
-16.6919
 30
0.0
 40
0
 41
0
  0
VERTEX
  8
0
 10
8.56364
 20
-16.3344
 30
0.0
 40
0
 41
0
  0
VERTEX
  8
0
 10
8.34369
 20
-15.9646
 30
0.0
 40
0
 41
0
  0
VERTEX
  8
0
 10
8.14268
 20
-15.584
 30
0.0
 40
0
 41
0
  0
VERTEX
  8
0
 10
7.9611
 20
-15.1944
 30
0.0
 40
0
 41
0
  0
VERTEX
  8
0
 10
7.79958
 20
-14.7976
 30
0.0
 40
0
 41
0
  0
VERTEX
  8
0
 10
7.65853
 20
-14.3954
 30
0.0
 40
0
 41
0
  0
VERTEX
  8
0
 10
7.56592
 20
-14.0915
 30
0.0
 40
0
 41
0
  0
VERTEX
  8
0
 10
7.53851
 20
-13.9893
 30
0.0
 40
0
 41
0
  0
VERTEX
  8
0
 10
7.52083
 20
-13.9247
 30
0.0
 40
0
 41
0
  0
VERTEX
  8
0
 10
7.45231
 20
-13.5932
 30
0.0
 40
0
 41
0
  0
VERTEX
  8
0
 10
7.39268
 20
-13.2617
 30
0.0
 40
0
 41
0
  0
VERTEX
  8
0
 10
7.37944
 20
-13.1972
 30
0.0
 40
0
 41
0
  0
VERTEX
  8
0
 10
7.36176
 20
-13.1281
 30
0.0
 40
0
 41
0
  0
VERTEX
  8
0
 10
7.26676
 20
-12.7827
 30
0.0
 40
0
 41
0
  0
VERTEX
  8
0
 10
7.18061
 20
-12.4374
 30
0.0
 40
0
 41
0
  0
VERTEX
  8
0
 10
7.16738
 20
-12.3683
 30
0.0
 40
0
 41
0
  0
VERTEX
  8
0
 10
7.15076
 20
-12.2544
 30
0.0
 40
0
 41
0
  0
VERTEX
  8
0
 10
7.12207
 20
-11.9095
 30
0.0
 40
0
 41
0
  0
VERTEX
  8
0
 10
7.10992
 20
-11.4473
 30
0.0
 40
0
 41
0
  0
VERTEX
  8
0
 10
7.11768
 20
-10.9851
 30
0.0
 40
0
 41
0
  0
VERTEX
  8
0
 10
7.12869
 20
-10.641
 30
0.0
 40
0
 41
0
  0
VERTEX
  8
0
 10
7.13206
 20
-10.5264
 30
0.0
 40
0
 41
0
  0
VERTEX
  8
0
 10
7.13206
 20
-10.4118
 30
0.0
 40
0
 41
0
  0
VERTEX
  8
0
 10
7.15354
 20
-10.0684
 30
0.0
 40
0
 41
0
  0
VERTEX
  8
0
 10
7.21153
 20
-9.62608
 30
0.0
 40
0
 41
0
  0
VERTEX
  8
0
 10
7.29606
 20
-9.18718
 30
0.0
 40
0
 41
0
  0
VERTEX
  8
0
 10
7.37115
 20
-8.85135
 30
0.0
 40
0
 41
0
  0
VERTEX
  8
0
 10
7.39714
 20
-8.73964
 30
0.0
 40
0
 41
0
  0
VERTEX
  8
0
 10
7.42025
 20
-8.6396
 30
0.0
 40
0
 41
0
  0
VERTEX
  8
0
 10
7.47472
 20
-8.3361
 30
0.0
 40
0
 41
0
  0
VERTEX
  8
0
 10
7.54069
 20
-7.92914
 30
0.0
 40
0
 41
0
  0
VERTEX
  8
0
 10
7.62326
 20
-7.52219
 30
0.0
 40
0
 41
0
  0
VERTEX
  8
0
 10
7.71164
 20
-7.21674
 30
0.0
 40
0
 41
0
  0
VERTEX
  8
0
 10
7.7506
 20
-7.11871
 30
0.0
 40
0
 41
0
  0
VERTEX
  8
0
 10
7.79025
 20
-7.01699
 30
0.0
 40
0
 41
0
  0
VERTEX
  8
0
 10
7.91004
 20
-6.71213
 30
0.0
 40
0
 41
0
  0
VERTEX
  8
0
 10
8.072
 20
-6.30821
 30
0.0
 40
0
 41
0
  0
VERTEX
  8
0
 10
8.23893
 20
-5.90771
 30
0.0
 40
0
 41
0
  0
VERTEX
  8
0
 10
8.41331
 20
-5.51156
 30
0.0
 40
0
 41
0
  0
VERTEX
  8
0
 10
8.5976
 20
-5.12056
 30
0.0
 40
0
 41
0
  0
VERTEX
  8
0
 10
8.79438
 20
-4.73562
 30
0.0
 40
0
 41
0
  0
VERTEX
  8
0
 10
9.00603
 20
-4.35758
 30
0.0
 40
0
 41
0
  0
VERTEX
  8
0
 10
9.17567
 20
-4.0785
 30
0.0
 40
0
 41
0
  0
VERTEX
  8
0
 10
9.23508
 20
-3.98736
 30
0.0
 40
0
 41
0
  0
VERTEX
  8
0
 10
9.34999
 20
-3.81278
 30
0.0
 40
0
 41
0
  0
VERTEX
  8
0
 10
9.71582
 20
-3.30296
 30
0.0
 40
0
 41
0
  0
VERTEX
  8
0
 10
10.2314
 20
-2.65653
 30
0.0
 40
0
 41
0
  0
VERTEX
  8
0
 10
10.7834
 20
-2.04465
 30
0.0
 40
0
 41
0
  0
VERTEX
  8
0
 10
11.2219
 20
-1.60465
 30
0.0
 40
0
 41
0
  0
VERTEX
  8
0
 10
11.3735
 20
-1.46386
 30
0.0
 40
0
 41
0
  0
VERTEX
  8
0
 10
11.5289
 20
-1.31912
 30
0.0
 40
0
 41
0
  0
VERTEX
  8
0
 10
12.0125
 20
-0.903429
 30
0.0
 40
0
 41
0
  0
VERTEX
  8
0
 10
12.6816
 20
-0.382269
 30
0.0
 40
0
 41
0
  0
VERTEX
  8
0
 10
13.3776
 20
0.100043
 30
0.0
 40
0
 41
0
  0
VERTEX
  8
0
 10
14.0974
 20
0.543946
 30
0.0
 40
0
 41
0
  0
VERTEX
  8
0
 10
14.8378
 20
0.949815
 30
0.0
 40
0
 41
0
  0
VERTEX
  8
0
 10
15.5958
 20
1.31814
 30
0.0
 40
0
 41
0
  0
VERTEX
  8
0
 10
16.3685
 20
1.64931
 30
0.0
 40
0
 41
0
  0
VERTEX
  8
0
 10
16.9549
 20
1.87463
 30
0.0
 40
0
 41
0
  0
VERTEX
  8
0
 10
17.1525
 20
1.94379
 30
0.0
 40
0
 41
0
  0
VERTEX
  8
0
 10
17.2508
 20
1.97797
 30
0.0
 40
0
 41
0
  0
VERTEX
  8
0
 10
17.5479
 20
2.07476
 30
0.0
 40
0
 41
0
  0
VERTEX
  8
0
 10
17.9433
 20
2.19015
 30
0.0
 40
0
 41
0
  0
VERTEX
  8
0
 10
18.3454
 20
2.28831
 30
0.0
 40
0
 41
0
  0
VERTEX
  8
0
 10
18.6564
 20
2.35047
 30
0.0
 40
0
 41
0
  0
VERTEX
  8
0
 10
18.7607
 20
2.3674
 30
0.0
 40
0
 41
0
  0
VERTEX
  8
0
 10
18.864
 20
2.38482
 30
0.0
 40
0
 41
0
  0
VERTEX
  8
0
 10
19.1719
 20
2.4509
 30
0.0
 40
0
 41
0
  0
VERTEX
  8
0
 10
19.5847
 20
2.55165
 30
0.0
 40
0
 41
0
  0
VERTEX
  8
0
 10
20.0008
 20
2.6524
 30
0.0
 40
0
 41
0
  0
VERTEX
  8
0
 10
20.3161
 20
2.71864
 30
0.0
 40
0
 41
0
  0
VERTEX
  8
0
 10
20.4219
 20
2.73583
 30
0.0
 40
0
 41
0
  0
VERTEX
  8
0
 10
20.4882
 20
2.74507
 30
0.0
 40
0
 41
0
  0
VERTEX
  8
0
 10
20.8306
 20
2.80035
 30
0.0
 40
0
 41
0
  0
VERTEX
  8
0
 10
21.1819
 20
2.85562
 30
0.0
 40
0
 41
0
  0
VERTEX
  8
0
 10
21.2526
 20
2.86481
 30
0.0
 40
0
 41
0
  0
VERTEX
  8
0
 10
21.3058
 20
2.87175
 30
0.0
 40
0
 41
0
  0
VERTEX
  8
0
 10
21.4674
 20
2.88037
 30
0.0
 40
0
 41
0
  0
VERTEX
  8
0
 10
21.6856
 20
2.87864
 30
0.0
 40
0
 41
0
  0
VERTEX
  8
0
 10
21.9037
 20
2.87001
 30
0.0
 40
0
 41
0
  0
VERTEX
  8
0
 10
22.0649
 20
2.86481
 30
0.0
 40
0
 41
0
  0
VERTEX
  8
0
 10
22.1186
 20
2.86481
 30
0.0
 40
0
 41
0
  0
VERTEX
  8
0
 10
22.2239
 20
2.86481
 30
0.0
 40
0
 41
0
  0
VERTEX
  8
0
 10
22.5397
 20
2.84581
 30
0.0
 40
0
 41
0
  0
VERTEX
  8
0
 10
22.9558
 20
2.79574
 30
0.0
 40
0
 41
0
  0
VERTEX
  8
0
 10
23.3686
 20
2.72493
 30
0.0
 40
0
 41
0
  0
VERTEX
  8
0
 10
23.6771
 20
2.6645
 30
0.0
 40
0
 41
0
  0
VERTEX
  8
0
 10
23.7799
 20
2.64378
 30
0.0
 40
0
 41
0
  0
VERTEX
  8
0
 10
23.8461
 20
2.62999
 30
0.0
 40
0
 41
0
  0
VERTEX
  8
0
 10
24.1686
 20
2.54015
 30
0.0
 40
0
 41
0
  0
VERTEX
  8
0
 10
24.4911
 20
2.44114
 30
0.0
 40
0
 41
0
  0
VERTEX
  8
0
 10
24.5574
 20
2.42269
 30
0.0
 40
0
 41
0
  0
VERTEX
  8
0
 10
24.6193
 20
2.40429
 30
0.0
 40
0
 41
0
  0
VERTEX
  8
0
 10
24.9396
 20
2.34446
 30
0.0
 40
0
 41
0
  0
VERTEX
  8
0
 10
25.2687
 20
2.303
 30
0.0
 40
0
 41
0
  0
VERTEX
  8
0
 10
25.335
 20
2.29378
 30
0.0
 40
0
 41
0
  0
VERTEX
  8
0
 10
25.4339
 20
2.28006
 30
0.0
 40
0
 41
0
  0
VERTEX
  8
0
 10
25.7268
 20
2.21094
 30
0.0
 40
0
 41
0
  0
VERTEX
  8
0
 10
26.1104
 20
2.08658
 30
0.0
 40
0
 41
0
  0
VERTEX
  8
0
 10
26.4906
 20
1.94151
 30
0.0
 40
0
 41
0
  0
VERTEX
  8
0
 10
26.7764
 20
1.831
 30
0.0
 40
0
 41
0
  0
VERTEX
  8
0
 10
26.8725
 20
1.79644
 30
0.0
 40
0
 41
0
  0
VERTEX
  8
0
 10
26.9722
 20
1.76525
 30
0.0
 40
0
 41
0
  0
VERTEX
  8
0
 10
27.2642
 20
1.64768
 30
0.0
 40
0
 41
0
  0
VERTEX
  8
0
 10
27.6457
 20
1.46262
 30
0.0
 40
0
 41
0
  0
VERTEX
  8
0
 10
28.0207
 20
1.26031
 30
0.0
 40
0
 41
0
  0
VERTEX
  8
0
 10
28.2988
 20
1.10851
 30
0.0
 40
0
 41
0
  0
VERTEX
  8
0
 10
28.3924
 20
1.05968
 30
0.0
 40
0
 41
0
  0
VERTEX
  8
0
 10
28.4918
 20
1.01134
 30
0.0
 40
0
 41
0
  0
VERTEX
  8
0
 10
28.7892
 20
0.864854
 30
0.0
 40
0
 41
0
  0
VERTEX
  8
0
 10
29.1811
 20
0.66135
 30
0.0
 40
0
 41
0
  0
VERTEX
  8
0
 10
29.5629
 20
0.440593
 30
0.0
 40
0
 41
0
  0
VERTEX
  8
0
 10
29.8408
 20
0.259224
 30
0.0
 40
0
 41
0
  0
VERTEX
  8
0
 10
29.93
 20
0.193901
 30
0.0
 40
0
 41
0
  0
VERTEX
  8
0
 10
30.0949
 20
0.07704
 30
0.0
 40
0
 41
0
  0
VERTEX
  8
0
 10
30.5753
 20
-0.293892
 30
0.0
 40
0
 41
0
  0
VERTEX
  8
0
 10
31.1825
 20
-0.821451
 30
0.0
 40
0
 41
0
  0
VERTEX
  8
0
 10
31.7467
 20
-1.39388
 30
0.0
 40
0
 41
0
  0
VERTEX
  8
0
 10
32.141
 20
-1.85525
 30
0.0
 40
0
 41
0
  0
VERTEX
  8
0
 10
32.2628
 20
-2.01644
 30
0.0
 40
0
 41
0
  0
VERTEX
  8
0
 10
32.3225
 20
-2.09597
 30
0.0
 40
0
 41
0
  0
VERTEX
  8
0
 10
32.4975
 20
-2.33789
 30
0.0
 40
0
 41
0
  0
VERTEX
  8
0
 10
32.7222
 20
-2.66803
 30
0.0
 40
0
 41
0
  0
VERTEX
  8
0
 10
32.9337
 20
-3.00846
 30
0.0
 40
0
 41
0
  0
VERTEX
  8
0
 10
33.0825
 20
-3.2716
 30
0.0
 40
0
 41
0
  0
VERTEX
  8
0
 10
33.1288
 20
-3.36106
 30
0.0
 40
0
 41
0
  0
VERTEX
  8
0
 10
33.1774
 20
-3.45568
 30
0.0
 40
0
 41
0
  0
VERTEX
  8
0
 10
33.306
 20
-3.74843
 30
0.0
 40
0
 41
0
  0
VERTEX
  8
0
 10
33.4468
 20
-4.13926
 30
0.0
 40
0
 41
0
  0
VERTEX
  8
0
 10
33.5611
 20
-4.537
 30
0.0
 40
0
 41
0
  0
VERTEX
  8
0
 10
33.636
 20
-4.84278
 30
0.0
 40
0
 41
0
  0
VERTEX
  8
0
 10
33.6589
 20
-4.94515
 30
0.0
 40
0
 41
0
  0
VERTEX
  8
0
 10
33.685
 20
-5.05419
 30
0.0
 40
0
 41
0
  0
VERTEX
  8
0
 10
33.7626
 20
-5.38172
 30
0.0
 40
0
 41
0
  0
VERTEX
  8
0
 10
33.8533
 20
-5.81321
 30
0.0
 40
0
 41
0
  0
VERTEX
  8
0
 10
33.9174
 20
-6.24804
 30
0.0
 40
0
 41
0
  0
VERTEX
  8
0
 10
33.9417
 20
-6.58333
 30
0.0
 40
0
 41
0
  0
VERTEX
  8
0
 10
33.9417
 20
-6.6951
 30
0.0
 40
0
 41
0
  0
VERTEX
  8
0
 10
33.9417
 20
-6.80197
 30
0.0
 40
0
 41
0
  0
VERTEX
  8
0
 10
33.9281
 20
-7.12272
 30
0.0
 40
0
 41
0
  0
VERTEX
  8
0
 10
33.8864
 20
-7.54693
 30
0.0
 40
0
 41
0
  0
VERTEX
  8
0
 10
33.8149
 20
-7.96425
 30
0.0
 40
0
 41
0
  0
VERTEX
  8
0
 10
33.7418
 20
-8.27072
 30
0.0
 40
0
 41
0
  0
VERTEX
  8
0
 10
33.7119
 20
-8.37125
 30
0.0
 40
0
 41
0
  0
VERTEX
  8
0
 10
33.6826
 20
-8.47988
 30
0.0
 40
0
 41
0
  0
VERTEX
  8
0
 10
33.5882
 20
-8.8041
 30
0.0
 40
0
 41
0
  0
VERTEX
  8
0
 10
33.4513
 20
-9.22314
 30
0.0
 40
0
 41
0
  0
VERTEX
  8
0
 10
33.2944
 20
-9.63531
 30
0.0
 40
0
 41
0
  0
VERTEX
  8
0
 10
33.1597
 20
-9.94581
 30
0.0
 40
0
 41
0
  0
VERTEX
  8
0
 10
33.1111
 20
-10.0475
 30
0.0
 40
0
 41
0
  0
VERTEX
  8
0
 10
33.0612
 20
-10.1479
 30
0.0
 40
0
 41
0
  0
VERTEX
  8
0
 10
32.9139
 20
-10.4504
 30
0.0
 40
0
 41
0
  0
VERTEX
  8
0
 10
32.7133
 20
-10.8533
 30
0.0
 40
0
 41
0
  0
VERTEX
  8
0
 10
32.4997
 20
-11.2493
 30
0.0
 40
0
 41
0
  0
VERTEX
  8
0
 10
32.3256
 20
-11.5384
 30
0.0
 40
0
 41
0
  0
VERTEX
  8
0
 10
32.2628
 20
-11.6315
 30
0.0
 40
0
 41
0
  0
VERTEX
  8
0
 10
32.1404
 20
-11.8158
 30
0.0
 40
0
 41
0
  0
VERTEX
  8
0
 10
31.7524
 20
-12.3546
 30
0.0
 40
0
 41
0
  0
VERTEX
  8
0
 10
31.2054
 20
-13.0475
 30
0.0
 40
0
 41
0
  0
VERTEX
  8
0
 10
30.6265
 20
-13.7128
 30
0.0
 40
0
 41
0
  0
VERTEX
  8
0
 10
30.0206
 20
-14.3531
 30
0.0
 40
0
 41
0
  0
VERTEX
  8
0
 10
29.3921
 20
-14.9708
 30
0.0
 40
0
 41
0
  0
VERTEX
  8
0
 10
28.7461
 20
-15.5687
 30
0.0
 40
0
 41
0
  0
VERTEX
  8
0
 10
28.0874
 20
-16.1494
 30
0.0
 40
0
 41
0
  0
VERTEX
  8
0
 10
27.5882
 20
-16.5751
 30
0.0
 40
0
 41
0
  0
VERTEX
  8
0
 10
27.4204
 20
-16.7154
 30
0.0
 40
0
 41
0
  0
VERTEX
  8
0
 10
27.2499
 20
-16.8586
 30
0.0
 40
0
 41
0
  0
VERTEX
  8
0
 10
26.7275
 20
-17.2756
 30
0.0
 40
0
 41
0
  0
VERTEX
  8
0
 10
26.0165
 20
-17.8117
 30
0.0
 40
0
 41
0
  0
VERTEX
  8
0
 10
25.2906
 20
-18.3275
 30
0.0
 40
0
 41
0
  0
VERTEX
  8
0
 10
24.5529
 20
-18.8267
 30
0.0
 40
0
 41
0
  0
VERTEX
  8
0
 10
23.8071
 20
-19.3131
 30
0.0
 40
0
 41
0
  0
VERTEX
  8
0
 10
23.0563
 20
-19.79
 30
0.0
 40
0
 41
0
  0
VERTEX
  8
0
 10
22.3039
 20
-20.2614
 30
0.0
 40
0
 41
0
  0
VERTEX
  8
0
 10
21.7406
 20
-20.6133
 30
0.0
 40
0
 41
0
  0
VERTEX
  8
0
 10
21.5531
 20
-20.731
 30
0.0
 40
0
 41
0
  0
VERTEX
  8
0
 10
21.31
 20
-20.8828
 30
0.0
 40
0
 41
0
  0
VERTEX
  8
0
 10
20.095
 20
-21.661
 30
0.0
 40
0
 41
0
  0
VERTEX
  8
0
 10
18.88
 20
-22.4393
 30
0.0
 40
0
 41
0
  0
VERTEX
  8
0
 10
18.6371
 20
-22.5912
 30
0.0
 40
0
 41
0
  0
VERTEX
  8
0
 10
18.4633
 20
-22.6992
 30
0.0
 40
0
 41
0
  0
VERTEX
  8
0
 10
17.9531
 20
-23.0401
 30
0.0
 40
0
 41
0
  0
VERTEX
  8
0
 10
17.2872
 20
-23.5307
 30
0.0
 40
0
 41
0
  0
VERTEX
  8
0
 10
16.6513
 20
-24.0625
 30
0.0
 40
0
 41
0
  0
VERTEX
  8
0
 10
16.1996
 20
-24.4869
 30
0.0
 40
0
 41
0
  0
VERTEX
  8
0
 10
16.0568
 20
-24.6358
 30
0.0
 40
0
 41
0
  0
VERTEX
  8
0
 10
15.9829
 20
-24.7128
 30
0.0
 40
0
 41
0
  0
VERTEX
  8
0
 10
15.755
 20
-24.9381
 30
0.0
 40
0
 41
0
  0
VERTEX
  8
0
 10
15.4449
 20
-25.2438
 30
0.0
 40
0
 41
0
  0
VERTEX
  8
0
 10
15.1447
 20
-25.5632
 30
0.0
 40
0
 41
0
  0
VERTEX
  8
0
 10
14.9356
 20
-25.8172
 30
0.0
 40
0
 41
0
  0
VERTEX
  8
0
 10
14.8728
 20
-25.9068
 30
0.0
 40
0
 41
0
  0
VERTEX
  8
0
 10
14.8601
 20
-25.9243
 30
0.0
 40
0
 41
0
  0
VERTEX
  8
0
 10
14.825
 20
-25.9785
 30
0.0
 40
0
 41
0
  0
VERTEX
  8
0
 10
14.7818
 20
-26.0543
 30
0.0
 40
0
 41
0
  0
VERTEX
  8
0
 10
14.744
 20
-26.1331
 30
0.0
 40
0
 41
0
  0
VERTEX
  8
0
 10
14.7125
 20
-26.2133
 30
0.0
 40
0
 41
0
  0
VERTEX
  8
0
 10
14.6881
 20
-26.2936
 30
0.0
 40
0
 41
0
  0
VERTEX
  8
0
 10
14.6714
 20
-26.3728
 30
0.0
 40
0
 41
0
  0
VERTEX
  8
0
 10
14.6635
 20
-26.4492
 30
0.0
 40
0
 41
0
  0
VERTEX
  8
0
 10
14.665
 20
-26.5215
 30
0.0
 40
0
 41
0
  0
VERTEX
  8
0
 10
14.6769
 20
-26.5886
 30
0.0
 40
0
 41
0
  0
VERTEX
  8
0
 10
14.7001
 20
-26.6487
 30
0.0
 40
0
 41
0
  0
VERTEX
  8
0
 10
14.7353
 20
-26.7008
 30
0.0
 40
0
 41
0
  0
VERTEX
  8
0
 10
14.7832
 20
-26.7435
 30
0.0
 40
0
 41
0
  0
VERTEX
  8
0
 10
14.8449
 20
-26.7751
 30
0.0
 40
0
 41
0
  0
VERTEX
  8
0
 10
14.921
 20
-26.7946
 30
0.0
 40
0
 41
0
  0
VERTEX
  8
0
 10
15.0125
 20
-26.8003
 30
0.0
 40
0
 41
0
  0
VERTEX
  8
0
 10
15.0935
 20
-26.795
 30
0.0
 40
0
 41
0
  0
VERTEX
  8
0
 10
15.1201
 20
-26.791
 30
0.0
 40
0
 41
0
  0
VERTEX
  8
0
 10
15.1714
 20
-26.7824
 30
0.0
 40
0
 41
0
  0
VERTEX
  8
0
 10
15.3233
 20
-26.7457
 30
0.0
 40
0
 41
0
  0
VERTEX
  8
0
 10
15.5233
 20
-26.6844
 30
0.0
 40
0
 41
0
  0
VERTEX
  8
0
 10
15.7215
 20
-26.6154
 30
0.0
 40
0
 41
0
  0
VERTEX
  8
0
 10
15.9199
 20
-26.5469
 30
0.0
 40
0
 41
0
  0
VERTEX
  8
0
 10
16.1197
 20
-26.4869
 30
0.0
 40
0
 41
0
  0
VERTEX
  8
0
 10
16.3229
 20
-26.4439
 30
0.0
 40
0
 41
0
  0
VERTEX
  8
0
 10
16.5313
 20
-26.4258
 30
0.0
 40
0
 41
0
  0
VERTEX
  8
0
 10
16.6931
 20
-26.4326
 30
0.0
 40
0
 41
0
  0
VERTEX
  8
0
 10
16.746
 20
-26.441
 30
0.0
 40
0
 41
0
  0
VERTEX
  8
0
 10
16.7911
 20
-26.4494
 30
0.0
 40
0
 41
0
  0
VERTEX
  8
0
 10
16.9242
 20
-26.4857
 30
0.0
 40
0
 41
0
  0
VERTEX
  8
0
 10
17.0882
 20
-26.55
 30
0.0
 40
0
 41
0
  0
VERTEX
  8
0
 10
17.2383
 20
-26.6329
 30
0.0
 40
0
 41
0
  0
VERTEX
  8
0
 10
17.3756
 20
-26.7333
 30
0.0
 40
0
 41
0
  0
VERTEX
  8
0
 10
17.5004
 20
-26.8501
 30
0.0
 40
0
 41
0
  0
VERTEX
  8
0
 10
17.6133
 20
-26.9824
 30
0.0
 40
0
 41
0
  0
VERTEX
  8
0
 10
17.7151
 20
-27.1288
 30
0.0
 40
0
 41
0
  0
VERTEX
  8
0
 10
17.7853
 20
-27.2475
 30
0.0
 40
0
 41
0
  0
VERTEX
  8
0
 10
17.8064
 20
-27.2882
 30
0.0
 40
0
 41
0
  0
VERTEX
  8
0
 10
17.8571
 20
-27.3788
 30
0.0
 40
0
 41
0
  0
VERTEX
  8
0
 10
17.9847
 20
-27.664
 30
0.0
 40
0
 41
0
  0
VERTEX
  8
0
 10
18.1135
 20
-28.0567
 30
0.0
 40
0
 41
0
  0
VERTEX
  8
0
 10
18.199
 20
-28.4624
 30
0.0
 40
0
 41
0
  0
VERTEX
  8
0
 10
18.2482
 20
-28.8769
 30
0.0
 40
0
 41
0
  0
VERTEX
  8
0
 10
18.2675
 20
-29.2968
 30
0.0
 40
0
 41
0
  0
VERTEX
  8
0
 10
18.2636
 20
-29.7181
 30
0.0
 40
0
 41
0
  0
VERTEX
  8
0
 10
18.2432
 20
-30.1365
 30
0.0
 40
0
 41
0
  0
VERTEX
  8
0
 10
18.2213
 20
-30.4457
 30
0.0
 40
0
 41
0
  0
VERTEX
  8
0
 10
18.2129
 20
-30.5486
 30
0.0
 40
0
 41
0
  0
VERTEX
  8
0
 10
18.2079
 20
-30.5988
 30
0.0
 40
0
 41
0
  0
VERTEX
  8
0
 10
18.1953
 20
-30.7494
 30
0.0
 40
0
 41
0
  0
VERTEX
  8
0
 10
18.1847
 20
-30.9507
 30
0.0
 40
0
 41
0
  0
VERTEX
  8
0
 10
18.1849
 20
-31.1506
 30
0.0
 40
0
 41
0
  0
VERTEX
  8
0
 10
18.1996
 20
-31.3475
 30
0.0
 40
0
 41
0
  0
VERTEX
  8
0
 10
18.2325
 20
-31.5401
 30
0.0
 40
0
 41
0
  0
VERTEX
  8
0
 10
18.2875
 20
-31.7271
 30
0.0
 40
0
 41
0
  0
VERTEX
  8
0
 10
18.3681
 20
-31.9067
 30
0.0
 40
0
 41
0
  0
VERTEX
  8
0
 10
18.4474
 20
-32.0371
 30
0.0
 40
0
 41
0
  0
VERTEX
  8
0
 10
18.4779
 20
-32.0774
 30
0.0
 40
0
 41
0
  0
VERTEX
  8
0
 10
18.5092
 20
-32.1183
 30
0.0
 40
0
 41
0
  0
VERTEX
  8
0
 10
18.6101
 20
-32.2356
 30
0.0
 40
0
 41
0
  0
VERTEX
  8
0
 10
18.754
 20
-32.3801
 30
0.0
 40
0
 41
0
  0
VERTEX
  8
0
 10
18.9079
 20
-32.5125
 30
0.0
 40
0
 41
0
  0
VERTEX
  8
0
 10
19.07
 20
-32.6346
 30
0.0
 40
0
 41
0
  0
VERTEX
  8
0
 10
19.2387
 20
-32.7481
 30
0.0
 40
0
 41
0
  0
VERTEX
  8
0
 10
19.4124
 20
-32.8544
 30
0.0
 40
0
 41
0
  0
VERTEX
  8
0
 10
19.5893
 20
-32.9558
 30
0.0
 40
0
 41
0
  0
VERTEX
  8
0
 10
19.7232
 20
-33.0294
 30
0.0
 40
0
 41
0
  0
VERTEX
  8
0
 10
19.7681
 20
-33.0536
 30
0.0
 40
0
 41
0
  0
VERTEX
  8
0
 10
19.8576
 20
-33.1021
 30
0.0
 40
0
 41
0
  0
VERTEX
  8
0
 10
20.1282
 20
-33.2447
 30
0.0
 40
0
 41
0
  0
VERTEX
  8
0
 10
20.4882
 20
-33.4358
 30
0.0
 40
0
 41
0
  0
VERTEX
  8
0
 10
20.8417
 20
-33.6339
 30
0.0
 40
0
 41
0
  0
VERTEX
  8
0
 10
21.0986
 20
-33.7901
 30
0.0
 40
0
 41
0
  0
VERTEX
  8
0
 10
21.1819
 20
-33.8457
 30
0.0
 40
0
 41
0
  0
VERTEX
  8
0
 10
21.2226
 20
-33.8728
 30
0.0
 40
0
 41
0
  0
VERTEX
  8
0
 10
21.3403
 20
-33.961
 30
0.0
 40
0
 41
0
  0
VERTEX
  8
0
 10
21.4876
 20
-34.0811
 30
0.0
 40
0
 41
0
  0
VERTEX
  8
0
 10
21.6296
 20
-34.1986
 30
0.0
 40
0
 41
0
  0
VERTEX
  8
0
 10
21.7718
 20
-34.3061
 30
0.0
 40
0
 41
0
  0
VERTEX
  8
0
 10
21.9197
 20
-34.3965
 30
0.0
 40
0
 41
0
  0
VERTEX
  8
0
 10
22.079
 20
-34.4622
 30
0.0
 40
0
 41
0
  0
VERTEX
  8
0
 10
22.2554
 20
-34.496
 30
0.0
 40
0
 41
0
  0
VERTEX
  8
0
 10
22.4053
 20
-34.4968
 30
0.0
 40
0
 41
0
  0
VERTEX
  8
0
 10
22.4543
 20
-34.4904
 30
0.0
 40
0
 41
0
  0
VERTEX
  8
0
 10
22.5582
 20
-34.4768
 30
0.0
 40
0
 41
0
  0
VERTEX
  8
0
 10
22.8672
 20
-34.4158
 30
0.0
 40
0
 41
0
  0
VERTEX
  8
0
 10
23.2651
 20
-34.3085
 30
0.0
 40
0
 41
0
  0
VERTEX
  8
0
 10
23.6597
 20
-34.1769
 30
0.0
 40
0
 41
0
  0
VERTEX
  8
0
 10
23.9619
 20
-34.0671
 30
0.0
 40
0
 41
0
  0
VERTEX
  8
0
 10
24.0625
 20
-34.0299
 30
0.0
 40
0
 41
0
  0
VERTEX
  8
0
 10
24.1606
 20
-33.9958
 30
0.0
 40
0
 41
0
  0
VERTEX
  8
0
 10
24.4596
 20
-33.9072
 30
0.0
 40
0
 41
0
  0
VERTEX
  8
0
 10
24.8535
 20
-33.795
 30
0.0
 40
0
 41
0
  0
VERTEX
  8
0
 10
25.2406
 20
-33.6621
 30
0.0
 40
0
 41
0
  0
VERTEX
  8
0
 10
25.5278
 20
-33.5308
 30
0.0
 40
0
 41
0
  0
VERTEX
  8
0
 10
25.6178
 20
-33.4772
 30
0.0
 40
0
 41
0
  0
VERTEX
  8
0
 10
25.6506
 20
-33.4585
 30
0.0
 40
0
 41
0
  0
VERTEX
  8
0
 10
25.7435
 20
-33.3921
 30
0.0
 40
0
 41
0
  0
VERTEX
  8
0
 10
25.8544
 20
-33.2901
 30
0.0
 40
0
 41
0
  0
VERTEX
  8
0
 10
25.9492
 20
-33.1736
 30
0.0
 40
0
 41
0
  0
VERTEX
  8
0
 10
26.0265
 20
-33.0444
 30
0.0
 40
0
 41
0
  0
VERTEX
  8
0
 10
26.0846
 20
-32.9049
 30
0.0
 40
0
 41
0
  0
VERTEX
  8
0
 10
26.1222
 20
-32.7572
 30
0.0
 40
0
 41
0
  0
VERTEX
  8
0
 10
26.1379
 20
-32.6035
 30
0.0
 40
0
 41
0
  0
VERTEX
  8
0
 10
26.1351
 20
-32.4849
 30
0.0
 40
0
 41
0
  0
VERTEX
  8
0
 10
26.1303
 20
-32.4458
 30
0.0
 40
0
 41
0
  0
VERTEX
  8
0
 10
26.1275
 20
-32.4282
 30
0.0
 40
0
 41
0
  0
VERTEX
  8
0
 10
26.1114
 20
-32.3768
 30
0.0
 40
0
 41
0
  0
VERTEX
  8
0
 10
26.0822
 20
-32.3329
 30
0.0
 40
0
 41
0
  0
VERTEX
  8
0
 10
26.0439
 20
-32.3097
 30
0.0
 40
0
 41
0
  0
VERTEX
  8
0
 10
25.9978
 20
-32.3031
 30
0.0
 40
0
 41
0
  0
VERTEX
  8
0
 10
25.9449
 20
-32.3083
 30
0.0
 40
0
 41
0
  0
VERTEX
  8
0
 10
25.8867
 20
-32.3214
 30
0.0
 40
0
 41
0
  0
VERTEX
  8
0
 10
25.8244
 20
-32.3379
 30
0.0
 40
0
 41
0
  0
VERTEX
  8
0
 10
25.7756
 20
-32.3503
 30
0.0
 40
0
 41
0
  0
VERTEX
  8
0
 10
25.7592
 20
-32.3536
 30
0.0
 40
0
 41
0
  0
VERTEX
  8
0
 10
25.6974
 20
-32.3629
 30
0.0
 40
0
 41
0
  0
VERTEX
  8
0
 10
25.0654
 20
-32.455
 30
0.0
 40
0
 41
0
  0
VERTEX
  8
0
 10
24.9993
 20
-32.4642
 30
0.0
 40
0
 41
0
  0
VERTEX
  8
0
 10
24.8965
 20
-32.4779
 30
0.0
 40
0
 41
0
  0
VERTEX
  8
0
 10
24.5881
 20
-32.5183
 30
0.0
 40
0
 41
0
  0
VERTEX
  8
0
 10
24.1753
 20
-32.5654
 30
0.0
 40
0
 41
0
  0
VERTEX
  8
0
 10
23.759
 20
-32.5989
 30
0.0
 40
0
 41
0
  0
VERTEX
  8
0
 10
23.4432
 20
-32.6115
 30
0.0
 40
0
 41
0
  0
VERTEX
  8
0
 10
23.3381
 20
-32.6115
 30
0.0
 40
0
 41
0
  0
VERTEX
  8
0
 10
23.1325
 20
-32.6115
 30
0.0
 40
0
 41
0
  0
VERTEX
  8
0
 10
22.5163
 20
-32.5839
 30
0.0
 40
0
 41
0
  0
VERTEX
  8
0
 10
21.8999
 20
-32.5563
 30
0.0
 40
0
 41
0
  0
VERTEX
  8
0
 10
21.6944
 20
-32.5563
 30
0.0
 40
0
 41
0
  0
VERTEX
  8
0
 10
21.7026
 20
-32.5886
 30
0.0
 40
0
 41
0
  0
VERTEX
  8
0
 10
21.7431
 20
-32.6817
 30
0.0
 40
0
 41
0
  0
VERTEX
  8
0
 10
21.8187
 20
-32.7961
 30
0.0
 40
0
 41
0
  0
VERTEX
  8
0
 10
21.915
 20
-32.9006
 30
0.0
 40
0
 41
0
  0
VERTEX
  8
0
 10
22.0258
 20
-32.9961
 30
0.0
 40
0
 41
0
  0
VERTEX
  8
0
 10
22.1449
 20
-33.0839
 30
0.0
 40
0
 41
0
  0
VERTEX
  8
0
 10
22.266
 20
-33.165
 30
0.0
 40
0
 41
0
  0
VERTEX
  8
0
 10
22.3831
 20
-33.2406
 30
0.0
 40
0
 41
0
  0
VERTEX
  8
0
 10
22.4633
 20
-33.2932
 30
0.0
 40
0
 41
0
  0
VERTEX
  8
0
 10
22.4897
 20
-33.3115
 30
0.0
 40
0
 41
0
  0
VERTEX
  8
0
 10
22.5294
 20
-33.3392
 30
0.0
 40
0
 41
0
  0
VERTEX
  8
0
 10
22.7393
 20
-33.4726
 30
0.0
 40
0
 41
0
  0
VERTEX
  8
0
 10
22.9581
 20
-33.5878
 30
0.0
 40
0
 41
0
  0
VERTEX
  8
0
 10
23.0022
 20
-33.6062
 30
0.0
 40
0
 41
0
  0
VERTEX
  8
0
 10
23.0321
 20
-33.62
 30
0.0
 40
0
 41
0
  0
VERTEX
  8
0
 10
23.1269
 20
-33.65
 30
0.0
 40
0
 41
0
  0
VERTEX
  8
0
 10
23.2585
 20
-33.6799
 30
0.0
 40
0
 41
0
  0
VERTEX
  8
0
 10
23.3899
 20
-33.7099
 30
0.0
 40
0
 41
0
  0
VERTEX
  8
0
 10
23.4849
 20
-33.7397
 30
0.0
 40
0
 41
0
  0
VERTEX
  8
0
 10
23.5147
 20
-33.7536
 30
0.0
 40
0
 41
0
  0
VERTEX
  8
0
 10
23.5343
 20
-33.7625
 30
0.0
 40
0
 41
0
  0
VERTEX
  8
0
 10
23.5903
 20
-33.7961
 30
0.0
 40
0
 41
0
  0
VERTEX
  8
0
 10
23.6131
 20
-33.8282
 30
0.0
 40
0
 41
0
  0
VERTEX
  8
0
 10
23.5942
 20
-33.8511
 30
0.0
 40
0
 41
0
  0
VERTEX
  8
0
 10
23.5457
 20
-33.8664
 30
0.0
 40
0
 41
0
  0
VERTEX
  8
0
 10
23.4787
 20
-33.8757
 30
0.0
 40
0
 41
0
  0
VERTEX
  8
0
 10
23.4053
 20
-33.8806
 30
0.0
 40
0
 41
0
  0
VERTEX
  8
0
 10
23.3368
 20
-33.8824
 30
0.0
 40
0
 41
0
  0
VERTEX
  8
0
 10
23.2979
 20
-33.8826
 30
0.0
 40
0
 41
0
  0
VERTEX
  8
0
 10
23.285
 20
-33.8826
 30
0.0
 40
0
 41
0
  0
VERTEX
  8
0
 10
23.2099
 20
-33.8826
 30
0.0
 40
0
 41
0
  0
VERTEX
  8
0
 10
22.9846
 20
-33.864
 30
0.0
 40
0
 41
0
  0
VERTEX
  8
0
 10
22.7326
 20
-33.8089
 30
0.0
 40
0
 41
0
  0
VERTEX
  8
0
 10
22.684
 20
-33.7904
 30
0.0
 40
0
 41
0
  0
VERTEX
  8
0
 10
22.616
 20
-33.7692
 30
0.0
 40
0
 41
0
  0
VERTEX
  8
0
 10
22.414
 20
-33.6975
 30
0.0
 40
0
 41
0
  0
VERTEX
  8
0
 10
22.1407
 20
-33.5856
 30
0.0
 40
0
 41
0
  0
VERTEX
  8
0
 10
21.8739
 20
-33.4563
 30
0.0
 40
0
 41
0
  0
VERTEX
  8
0
 10
21.6846
 20
-33.3503
 30
0.0
 40
0
 41
0
  0
VERTEX
  8
0
 10
21.6238
 20
-33.3115
 30
0.0
 40
0
 41
0
  0
VERTEX
  8
0
 10
21.5644
 20
-33.2703
 30
0.0
 40
0
 41
0
  0
VERTEX
  8
0
 10
21.3896
 20
-33.1419
 30
0.0
 40
0
 41
0
  0
VERTEX
  8
0
 10
21.1656
 20
-32.9636
 30
0.0
 40
0
 41
0
  0
VERTEX
  8
0
 10
20.9536
 20
-32.7743
 30
0.0
 40
0
 41
0
  0
VERTEX
  8
0
 10
20.7556
 20
-32.5724
 30
0.0
 40
0
 41
0
  0
VERTEX
  8
0
 10
20.5732
 20
-32.3558
 30
0.0
 40
0
 41
0
  0
VERTEX
  8
0
 10
20.4085
 20
-32.1225
 30
0.0
 40
0
 41
0
  0
VERTEX
  8
0
 10
20.2632
 20
-31.8708
 30
0.0
 40
0
 41
0
  0
VERTEX
  8
0
 10
20.1668
 20
-31.6679
 30
0.0
 40
0
 41
0
  0
VERTEX
  8
0
 10
20.1392
 20
-31.5985
 30
0.0
 40
0
 41
0
  0
VERTEX
  8
0
 10
20.1117
 20
-31.5307
 30
0.0
 40
0
 41
0
  0
VERTEX
  8
0
 10
20.0518
 20
-31.3182
 30
0.0
 40
0
 41
0
  0
VERTEX
  8
0
 10
20.0099
 20
-31.0315
 30
0.0
 40
0
 41
0
  0
VERTEX
  8
0
 10
20.0062
 20
-30.7404
 30
0.0
 40
0
 41
0
  0
VERTEX
  8
0
 10
20.0332
 20
-30.4472
 30
0.0
 40
0
 41
0
  0
VERTEX
  8
0
 10
20.0833
 20
-30.154
 30
0.0
 40
0
 41
0
  0
VERTEX
  8
0
 10
20.1492
 20
-29.8631
 30
0.0
 40
0
 41
0
  0
VERTEX
  8
0
 10
20.2233
 20
-29.5763
 30
0.0
 40
0
 41
0
  0
VERTEX
  8
0
 10
20.2797
 20
-29.3661
 30
0.0
 40
0
 41
0
  0
VERTEX
  8
0
 10
20.2983
 20
-29.296
 30
0.0
 40
0
 41
0
  0
VERTEX
  8
0
 10
20.3118
 20
-29.2975
 30
0.0
 40
0
 41
0
  0
VERTEX
  8
0
 10
20.35
 20
-29.3212
 30
0.0
 40
0
 41
0
  0
VERTEX
  8
0
 10
20.3876
 20
-29.3778
 30
0.0
 40
0
 41
0
  0
VERTEX
  8
0
 10
20.4138
 20
-29.4567
 30
0.0
 40
0
 41
0
  0
VERTEX
  8
0
 10
20.4308
 20
-29.5493
 30
0.0
 40
0
 41
0
  0
VERTEX
  8
0
 10
20.4411
 20
-29.6471
 30
0.0
 40
0
 41
0
  0
VERTEX
  8
0
 10
20.4474
 20
-29.7415
 30
0.0
 40
0
 41
0
  0
VERTEX
  8
0
 10
20.4519
 20
-29.8239
 30
0.0
 40
0
 41
0
  0
VERTEX
  8
0
 10
20.4551
 20
-29.8701
 30
0.0
 40
0
 41
0
  0
VERTEX
  8
0
 10
20.4574
 20
-29.8854
 30
0.0
 40
0
 41
0
  0
VERTEX
  8
0
 10
20.4706
 20
-29.9499
 30
0.0
 40
0
 41
0
  0
VERTEX
  8
0
 10
20.539
 20
-30.2815
 30
0.0
 40
0
 41
0
  0
VERTEX
  8
0
 10
20.6164
 20
-30.6131
 30
0.0
 40
0
 41
0
  0
VERTEX
  8
0
 10
20.634
 20
-30.6775
 30
0.0
 40
0
 41
0
  0
VERTEX
  8
0
 10
20.6424
 20
-30.709
 30
0.0
 40
0
 41
0
  0
VERTEX
  8
0
 10
20.6715
 20
-30.8024
 30
0.0
 40
0
 41
0
  0
VERTEX
  8
0
 10
20.7188
 20
-30.9239
 30
0.0
 40
0
 41
0
  0
VERTEX
  8
0
 10
20.7772
 20
-31.035
 30
0.0
 40
0
 41
0
  0
VERTEX
  8
0
 10
20.8483
 20
-31.1288
 30
0.0
 40
0
 41
0
  0
VERTEX
  8
0
 10
20.9335
 20
-31.1985
 30
0.0
 40
0
 41
0
  0
VERTEX
  8
0
 10
21.0342
 20
-31.2369
 30
0.0
 40
0
 41
0
  0
VERTEX
  8
0
 10
21.1518
 20
-31.2376
 30
0.0
 40
0
 41
0
  0
VERTEX
  8
0
 10
21.2558
 20
-31.2085
 30
0.0
 40
0
 41
0
  0
VERTEX
  8
0
 10
21.2879
 20
-31.1933
 30
0.0
 40
0
 41
0
  0
VERTEX
  8
0
 10
21.3249
 20
-31.1757
 30
0.0
 40
0
 41
0
  0
VERTEX
  8
0
 10
21.4297
 20
-31.1097
 30
0.0
 40
0
 41
0
  0
VERTEX
  8
0
 10
21.564
 20
-31.0013
 30
0.0
 40
0
 41
0
  0
VERTEX
  8
0
 10
21.6918
 20
-30.8743
 30
0.0
 40
0
 41
0
  0
VERTEX
  8
0
 10
21.8137
 20
-30.735
 30
0.0
 40
0
 41
0
  0
VERTEX
  8
0
 10
21.9307
 20
-30.5897
 30
0.0
 40
0
 41
0
  0
VERTEX
  8
0
 10
22.0435
 20
-30.4446
 30
0.0
 40
0
 41
0
  0
VERTEX
  8
0
 10
22.1529
 20
-30.3061
 30
0.0
 40
0
 41
0
  0
VERTEX
  8
0
 10
22.2322
 20
-30.2108
 30
0.0
 40
0
 41
0
  0
VERTEX
  8
0
 10
22.2599
 20
-30.1801
 30
0.0
 40
0
 41
0
  0
VERTEX
  8
0
 10
22.3439
 20
-30.0789
 30
0.0
 40
0
 41
0
  0
VERTEX
  8
0
 10
22.7747
 20
-29.5815
 30
0.0
 40
0
 41
0
  0
VERTEX
  8
0
 10
23.2143
 20
-29.0842
 30
0.0
 40
0
 41
0
  0
VERTEX
  8
0
 10
23.3026
 20
-28.9829
 30
0.0
 40
0
 41
0
  0
VERTEX
  8
0
 10
23.3424
 20
-28.9368
 30
0.0
 40
0
 41
0
  0
VERTEX
  8
0
 10
23.539
 20
-28.7158
 30
0.0
 40
0
 41
0
  0
VERTEX
  8
0
 10
23.7268
 20
-28.4947
 30
0.0
 40
0
 41
0
  0
VERTEX
  8
0
 10
23.7622
 20
-28.4488
 30
0.0
 40
0
 41
0
  0
VERTEX
  8
0
 10
23.7772
 20
-28.4314
 30
0.0
 40
0
 41
0
  0
VERTEX
  8
0
 10
23.8232
 20
-28.3797
 30
0.0
 40
0
 41
0
  0
VERTEX
  8
0
 10
23.8725
 20
-28.3221
 30
0.0
 40
0
 41
0
  0
VERTEX
  8
0
 10
23.9088
 20
-28.2713
 30
0.0
 40
0
 41
0
  0
VERTEX
  8
0
 10
23.93
 20
-28.2231
 30
0.0
 40
0
 41
0
  0
VERTEX
  8
0
 10
23.9347
 20
-28.1731
 30
0.0
 40
0
 41
0
  0
VERTEX
  8
0
 10
23.9211
 20
-28.1171
 30
0.0
 40
0
 41
0
  0
VERTEX
  8
0
 10
23.8878
 20
-28.0508
 30
0.0
 40
0
 41
0
  0
VERTEX
  8
0
 10
23.8474
 20
-27.9894
 30
0.0
 40
0
 41
0
  0
VERTEX
  8
0
 10
23.8328
 20
-27.9699
 30
0.0
 40
0
 41
0
  0
VERTEX
  8
0
 10
23.7576
 20
-27.8731
 30
0.0
 40
0
 41
0
  0
VERTEX
  8
0
 10
23.0067
 20
-26.906
 30
0.0
 40
0
 41
0
  0
VERTEX
  8
0
 10
22.9315
 20
-26.8093
 30
0.0
 40
0
 41
0
  0
VERTEX
  8
0
 10
22.8564
 20
-26.7126
 30
0.0
 40
0
 41
0
  0
VERTEX
  8
0
 10
22.1053
 20
-25.7594
 30
0.0
 40
0
 41
0
  0
VERTEX
  8
0
 10
22.0303
 20
-25.6674
 30
0.0
 40
0
 41
0
  0
VERTEX
  8
0
 10
21.9904
 20
-25.6167
 30
0.0
 40
0
 41
0
  0
VERTEX
  8
0
 10
21.7828
 20
-25.3519
 30
0.0
 40
0
 41
0
  0
VERTEX
  8
0
 10
21.5751
 20
-25.0779
 30
0.0
 40
0
 41
0
  0
VERTEX
  8
0
 10
21.5354
 20
-25.0226
 30
0.0
 40
0
 41
0
  0
VERTEX
  8
0
 10
21.5256
 20
-25.0103
 30
0.0
 40
0
 41
0
  0
VERTEX
  8
0
 10
21.4942
 20
-24.9747
 30
0.0
 40
0
 41
0
  0
VERTEX
  8
0
 10
21.441
 20
-24.9164
 30
0.0
 40
0
 41
0
  0
VERTEX
  8
0
 10
21.3819
 20
-24.8507
 30
0.0
 40
0
 41
0
  0
VERTEX
  8
0
 10
21.3232
 20
-24.7808
 30
0.0
 40
0
 41
0
  0
VERTEX
  8
0
 10
21.2713
 20
-24.7101
 30
0.0
 40
0
 41
0
  0
VERTEX
  8
0
 10
21.2321
 20
-24.6418
 30
0.0
 40
0
 41
0
  0
VERTEX
  8
0
 10
21.2121
 20
-24.5792
 30
0.0
 40
0
 41
0
  0
VERTEX
  8
0
 10
21.2124
 20
-24.5372
 30
0.0
 40
0
 41
0
  0
VERTEX
  8
0
 10
21.2172
 20
-24.5253
 30
0.0
 40
0
 41
0
  0
VERTEX
  8
0
 10
21.2478
 20
-24.5332
 30
0.0
 40
0
 41
0
  0
VERTEX
  8
0
 10
21.334
 20
-24.5765
 30
0.0
 40
0
 41
0
  0
VERTEX
  8
0
 10
21.4625
 20
-24.6589
 30
0.0
 40
0
 41
0
  0
VERTEX
  8
0
 10
21.5875
 20
-24.7481
 30
0.0
 40
0
 41
0
  0
VERTEX
  8
0
 10
21.6668
 20
-24.8036
 30
0.0
 40
0
 41
0
  0
VERTEX
  8
0
 10
21.6944
 20
-24.8201
 30
0.0
 40
0
 41
0
  0
VERTEX
  8
0
 10
21.7518
 20
-24.8569
 30
0.0
 40
0
 41
0
  0
VERTEX
  8
0
 10
22.3129
 20
-25.2253
 30
0.0
 40
0
 41
0
  0
VERTEX
  8
0
 10
22.366
 20
-25.2622
 30
0.0
 40
0
 41
0
  0
VERTEX
  8
0
 10
22.4897
 20
-25.345
 30
0.0
 40
0
 41
0
  0
VERTEX
  8
0
 10
23.7268
 20
-26.2061
 30
0.0
 40
0
 41
0
  0
VERTEX
  8
0
 10
23.8506
 20
-26.2936
 30
0.0
 40
0
 41
0
  0
VERTEX
  8
0
 10
23.9124
 20
-26.3351
 30
0.0
 40
0
 41
0
  0
VERTEX
  8
0
 10
24.5
 20
-26.7494
 30
0.0
 40
0
 41
0
  0
VERTEX
  8
0
 10
24.5574
 20
-26.791
 30
0.0
 40
0
 41
0
  0
VERTEX
  8
0
 10
24.574
 20
-26.8031
 30
0.0
 40
0
 41
0
  0
VERTEX
  8
0
 10
24.6221
 20
-26.8419
 30
0.0
 40
0
 41
0
  0
VERTEX
  8
0
 10
24.6844
 20
-26.8946
 30
0.0
 40
0
 41
0
  0
VERTEX
  8
0
 10
24.745
 20
-26.9437
 30
0.0
 40
0
 41
0
  0
VERTEX
  8
0
 10
24.8049
 20
-26.9843
 30
0.0
 40
0
 41
0
  0
VERTEX
  8
0
 10
24.8646
 20
-27.0111
 30
0.0
 40
0
 41
0
  0
VERTEX
  8
0
 10
24.9251
 20
-27.0189
 30
0.0
 40
0
 41
0
  0
VERTEX
  8
0
 10
24.9875
 20
-27.0025
 30
0.0
 40
0
 41
0
  0
VERTEX
  8
0
 10
25.0379
 20
-26.9701
 30
0.0
 40
0
 41
0
  0
VERTEX
  8
0
 10
25.0522
 20
-26.9567
 30
0.0
 40
0
 41
0
  0
VERTEX
  8
0
 10
25.136
 20
-26.8799
 30
0.0
 40
0
 41
0
  0
VERTEX
  8
0
 10
25.3717
 20
-26.6321
 30
0.0
 40
0
 41
0
  0
VERTEX
  8
0
 10
25.6729
 20
-26.2799
 30
0.0
 40
0
 41
0
  0
VERTEX
  8
0
 10
25.9643
 20
-25.9207
 30
0.0
 40
0
 41
0
  0
VERTEX
  8
0
 10
26.1796
 20
-25.6599
 30
0.0
 40
0
 41
0
  0
VERTEX
  8
0
 10
26.254
 20
-25.5753
 30
0.0
 40
0
 41
0
  0
VERTEX
  8
0
 10
26.3557
 20
-25.4601
 30
0.0
 40
0
 41
0
  0
VERTEX
  8
0
 10
27.3542
 20
-24.3089
 30
0.0
 40
0
 41
0
  0
VERTEX
  8
0
 10
27.4558
 20
-24.1937
 30
0.0
 40
0
 41
0
  0
VERTEX
  8
0
 10
27.5239
 20
-24.1156
 30
0.0
 40
0
 41
0
  0
VERTEX
  8
0
 10
27.7194
 20
-23.8738
 30
0.0
 40
0
 41
0
  0
VERTEX
  8
0
 10
27.9881
 20
-23.5399
 30
0.0
 40
0
 41
0
  0
VERTEX
  8
0
 10
28.2733
 20
-23.2197
 30
0.0
 40
0
 41
0
  0
VERTEX
  8
0
 10
28.5032
 20
-23.0039
 30
0.0
 40
0
 41
0
  0
VERTEX
  8
0
 10
28.5868
 20
-22.9413
 30
0.0
 40
0
 41
0
  0
VERTEX
  8
0
 10
28.6244
 20
-22.9139
 30
0.0
 40
0
 41
0
  0
VERTEX
  8
0
 10
28.7415
 20
-22.8381
 30
0.0
 40
0
 41
0
  0
VERTEX
  8
0
 10
28.9004
 20
-22.7512
 30
0.0
 40
0
 41
0
  0
VERTEX
  8
0
 10
29.0628
 20
-22.6835
 30
0.0
 40
0
 41
0
  0
VERTEX
  8
0
 10
29.2275
 20
-22.6372
 30
0.0
 40
0
 41
0
  0
VERTEX
  8
0
 10
29.3938
 20
-22.6153
 30
0.0
 40
0
 41
0
  0
VERTEX
  8
0
 10
29.561
 20
-22.62
 30
0.0
 40
0
 41
0
  0
VERTEX
  8
0
 10
29.7282
 20
-22.654
 30
0.0
 40
0
 41
0
  0
VERTEX
  8
0
 10
29.8547
 20
-22.7001
 30
0.0
 40
0
 41
0
  0
VERTEX
  8
0
 10
29.8946
 20
-22.7201
 30
0.0
 40
0
 41
0
  0
VERTEX
  8
0
 10
29.939
 20
-22.7425
 30
0.0
 40
0
 41
0
  0
VERTEX
  8
0
 10
30.0678
 20
-22.819
 30
0.0
 40
0
 41
0
  0
VERTEX
  8
0
 10
30.2301
 20
-22.9346
 30
0.0
 40
0
 41
0
  0
VERTEX
  8
0
 10
30.3819
 20
-23.0643
 30
0.0
 40
0
 41
0
  0
VERTEX
  8
0
 10
30.5242
 20
-23.206
 30
0.0
 40
0
 41
0
  0
VERTEX
  8
0
 10
30.6572
 20
-23.3571
 30
0.0
 40
0
 41
0
  0
VERTEX
  8
0
 10
30.7818
 20
-23.5154
 30
0.0
 40
0
 41
0
  0
VERTEX
  8
0
 10
30.8985
 20
-23.6783
 30
0.0
 40
0
 41
0
  0
VERTEX
  8
0
 10
30.9812
 20
-23.8021
 30
0.0
 40
0
 41
0
  0
VERTEX
  8
0
 10
31.0079
 20
-23.8438
 30
0.0
 40
0
 41
0
  0
VERTEX
  8
0
 10
31.0674
 20
-23.9401
 30
0.0
 40
0
 41
0
  0
VERTEX
  8
0
 10
31.2283
 20
-24.2401
 30
0.0
 40
0
 41
0
  0
VERTEX
  8
0
 10
31.4189
 20
-24.6519
 30
0.0
 40
0
 41
0
  0
VERTEX
  8
0
 10
31.5896
 20
-25.0742
 30
0.0
 40
0
 41
0
  0
VERTEX
  8
0
 10
31.7106
 20
-25.3946
 30
0.0
 40
0
 41
0
  0
VERTEX
  8
0
 10
31.7503
 20
-25.5015
 30
0.0
 40
0
 41
0
  0
VERTEX
  8
0
 10
31.7876
 20
-25.6114
 30
0.0
 40
0
 41
0
  0
VERTEX
  8
0
 10
31.8971
 20
-25.9417
 30
0.0
 40
0
 41
0
  0
VERTEX
  8
0
 10
32.0375
 20
-26.3972
 30
0.0
 40
0
 41
0
  0
VERTEX
  8
0
 10
32.1578
 20
-26.8563
 30
0.0
 40
0
 41
0
  0
VERTEX
  8
0
 10
32.2281
 20
-27.1935
 30
0.0
 40
0
 41
0
  0
VERTEX
  8
0
 10
32.245
 20
-27.3068
 30
0.0
 40
0
 41
0
  0
VERTEX
  8
0
 10
32.2322
 20
-27.3083
 30
0.0
 40
0
 41
0
  0
VERTEX
  8
0
 10
32.1914
 20
-27.2944
 30
0.0
 40
0
 41
0
  0
VERTEX
  8
0
 10
32.1376
 20
-27.2497
 30
0.0
 40
0
 41
0
  0
VERTEX
  8
0
 10
32.0851
 20
-27.1817
 30
0.0
 40
0
 41
0
  0
VERTEX
  8
0
 10
32.0353
 20
-27.0994
 30
0.0
 40
0
 41
0
  0
VERTEX
  8
0
 10
31.9894
 20
-27.0121
 30
0.0
 40
0
 41
0
  0
VERTEX
  8
0
 10
31.9493
 20
-26.9285
 30
0.0
 40
0
 41
0
  0
VERTEX
  8
0
 10
31.9162
 20
-26.8579
 30
0.0
 40
0
 41
0
  0
VERTEX
  8
0
 10
31.8983
 20
-26.8211
 30
0.0
 40
0
 41
0
  0
VERTEX
  8
0
 10
31.8917
 20
-26.8093
 30
0.0
 40
0
 41
0
  0
VERTEX
  8
0
 10
31.8562
 20
-26.7494
 30
0.0
 40
0
 41
0
  0
VERTEX
  8
0
 10
31.5161
 20
-26.1508
 30
0.0
 40
0
 41
0
  0
VERTEX
  8
0
 10
31.4851
 20
-26.091
 30
0.0
 40
0
 41
0
  0
VERTEX
  8
0
 10
31.4394
 20
-26.0093
 30
0.0
 40
0
 41
0
  0
VERTEX
  8
0
 10
31.2857
 20
-25.7735
 30
0.0
 40
0
 41
0
  0
VERTEX
  8
0
 10
31.0565
 20
-25.4854
 30
0.0
 40
0
 41
0
  0
VERTEX
  8
0
 10
30.7943
 20
-25.2285
 30
0.0
 40
0
 41
0
  0
VERTEX
  8
0
 10
30.5736
 20
-25.055
 30
0.0
 40
0
 41
0
  0
VERTEX
  8
0
 10
30.4956
 20
-25.0042
 30
0.0
 40
0
 41
0
  0
VERTEX
  8
0
 10
30.4863
 20
-24.9989
 30
0.0
 40
0
 41
0
  0
VERTEX
  8
0
 10
30.4581
 20
-24.9835
 30
0.0
 40
0
 41
0
  0
VERTEX
  8
0
 10
30.4072
 20
-24.9569
 30
0.0
 40
0
 41
0
  0
VERTEX
  8
0
 10
30.3447
 20
-24.9261
 30
0.0
 40
0
 41
0
  0
VERTEX
  8
0
 10
30.2729
 20
-24.8925
 30
0.0
 40
0
 41
0
  0
VERTEX
  8
0
 10
30.1939
 20
-24.8576
 30
0.0
 40
0
 41
0
  0
VERTEX
  8
0
 10
30.1096
 20
-24.8229
 30
0.0
 40
0
 41
0
  0
VERTEX
  8
0
 10
30.0224
 20
-24.79
 30
0.0
 40
0
 41
0
  0
VERTEX
  8
0
 10
29.9343
 20
-24.7601
 30
0.0
 40
0
 41
0
  0
VERTEX
  8
0
 10
29.8475
 20
-24.7351
 30
0.0
 40
0
 41
0
  0
VERTEX
  8
0
 10
29.764
 20
-24.7164
 30
0.0
 40
0
 41
0
  0
VERTEX
  8
0
 10
29.686
 20
-24.7054
 30
0.0
 40
0
 41
0
  0
VERTEX
  8
0
 10
29.6157
 20
-24.7038
 30
0.0
 40
0
 41
0
  0
VERTEX
  8
0
 10
29.555
 20
-24.7129
 30
0.0
 40
0
 41
0
  0
VERTEX
  8
0
 10
29.5062
 20
-24.7343
 30
0.0
 40
0
 41
0
  0
VERTEX
  8
0
 10
29.4715
 20
-24.7696
 30
0.0
 40
0
 41
0
  0
VERTEX
  8
0
 10
29.455
 20
-24.8071
 30
0.0
 40
0
 41
0
  0
VERTEX
  8
0
 10
29.4528
 20
-24.8201
 30
0.0
 40
0
 41
0
  0
VERTEX
  8
0
 10
29.451
 20
-24.8375
 30
0.0
 40
0
 41
0
  0
VERTEX
  8
0
 10
29.4569
 20
-24.8908
 30
0.0
 40
0
 41
0
  0
VERTEX
  8
0
 10
29.4793
 20
-24.9757
 30
0.0
 40
0
 41
0
  0
VERTEX
  8
0
 10
29.5149
 20
-25.0697
 30
0.0
 40
0
 41
0
  0
VERTEX
  8
0
 10
29.5587
 20
-25.1676
 30
0.0
 40
0
 41
0
  0
VERTEX
  8
0
 10
29.606
 20
-25.2649
 30
0.0
 40
0
 41
0
  0
VERTEX
  8
0
 10
29.6515
 20
-25.3563
 30
0.0
 40
0
 41
0
  0
VERTEX
  8
0
 10
29.6906
 20
-25.4368
 30
0.0
 40
0
 41
0
  0
VERTEX
  8
0
 10
29.7119
 20
-25.485
 30
0.0
 40
0
 41
0
  0
VERTEX
  8
0
 10
29.7179
 20
-25.5015
 30
0.0
 40
0
 41
0
  0
VERTEX
  8
0
 10
29.7443
 20
-25.5707
 30
0.0
 40
0
 41
0
  0
VERTEX
  8
0
 10
29.8747
 20
-25.9068
 30
0.0
 40
0
 41
0
  0
VERTEX
  8
0
 10
29.9962
 20
-26.2429
 30
0.0
 40
0
 41
0
  0
VERTEX
  8
0
 10
30.0183
 20
-26.3119
 30
0.0
 40
0
 41
0
  0
VERTEX
  8
0
 10
30.0481
 20
-26.4047
 30
0.0
 40
0
 41
0
  0
VERTEX
  8
0
 10
30.1226
 20
-26.6879
 30
0.0
 40
0
 41
0
  0
VERTEX
  8
0
 10
30.2039
 20
-27.0672
 30
0.0
 40
0
 41
0
  0
VERTEX
  8
0
 10
30.2718
 20
-27.4465
 30
0.0
 40
0
 41
0
  0
VERTEX
  8
0
 10
30.3197
 20
-27.7285
 30
0.0
 40
0
 41
0
  0
VERTEX
  8
0
 10
30.3364
 20
-27.8224
 30
0.0
 40
0
 41
0
  0
VERTEX
  8
0
 10
30.3532
 20
-27.9096
 30
0.0
 40
0
 41
0
  0
VERTEX
  8
0
 10
30.3892
 20
-28.1739
 30
0.0
 40
0
 41
0
  0
VERTEX
  8
0
 10
30.4138
 20
-28.5339
 30
0.0
 40
0
 41
0
  0
VERTEX
  8
0
 10
30.4085
 20
-28.8974
 30
0.0
 40
0
 41
0
  0
VERTEX
  8
0
 10
30.385
 20
-29.1694
 30
0.0
 40
0
 41
0
  0
VERTEX
  8
0
 10
30.3718
 20
-29.2592
 30
0.0
 40
0
 41
0
  0
VERTEX
  8
0
 10
30.3582
 20
-29.3475
 30
0.0
 40
0
 41
0
  0
VERTEX
  8
0
 10
30.2931
 20
-29.6086
 30
0.0
 40
0
 41
0
  0
VERTEX
  8
0
 10
30.1662
 20
-29.9546
 30
0.0
 40
0
 41
0
  0
VERTEX
  8
0
 10
29.9965
 20
-30.2797
 30
0.0
 40
0
 41
0
  0
VERTEX
  8
0
 10
29.8461
 20
-30.5
 30
0.0
 40
0
 41
0
  0
VERTEX
  8
0
 10
29.7886
 20
-30.5669
 30
0.0
 40
0
 41
0
  0
VERTEX
  8
0
 10
29.7804
 20
-30.5776
 30
0.0
 40
0
 41
0
  0
VERTEX
  8
0
 10
29.7515
 20
-30.6062
 30
0.0
 40
0
 41
0
  0
VERTEX
  8
0
 10
29.6976
 20
-30.6536
 30
0.0
 40
0
 41
0
  0
VERTEX
  8
0
 10
29.6335
 20
-30.7065
 30
0.0
 40
0
 41
0
  0
VERTEX
  8
0
 10
29.5654
 20
-30.7626
 30
0.0
 40
0
 41
0
  0
VERTEX
  8
0
 10
29.4997
 20
-30.8197
 30
0.0
 40
0
 41
0
  0
VERTEX
  8
0
 10
29.4431
 20
-30.8753
 30
0.0
 40
0
 41
0
  0
VERTEX
  8
0
 10
29.4017
 20
-30.9268
 30
0.0
 40
0
 41
0
  0
VERTEX
  8
0
 10
29.3839
 20
-30.9604
 30
0.0
 40
0
 41
0
  0
VERTEX
  8
0
 10
29.3821
 20
-30.9722
 30
0.0
 40
0
 41
0
  0
VERTEX
  8
0
 10
29.3803
 20
-30.9871
 30
0.0
 40
0
 41
0
  0
VERTEX
  8
0
 10
29.3878
 20
-31.0331
 30
0.0
 40
0
 41
0
  0
VERTEX
  8
0
 10
29.4147
 20
-31.1026
 30
0.0
 40
0
 41
0
  0
VERTEX
  8
0
 10
29.4572
 20
-31.1778
 30
0.0
 40
0
 41
0
  0
VERTEX
  8
0
 10
29.5101
 20
-31.2554
 30
0.0
 40
0
 41
0
  0
VERTEX
  8
0
 10
29.5681
 20
-31.3321
 30
0.0
 40
0
 41
0
  0
VERTEX
  8
0
 10
29.6256
 20
-31.4047
 30
0.0
 40
0
 41
0
  0
VERTEX
  8
0
 10
29.6774
 20
-31.4701
 30
0.0
 40
0
 41
0
  0
VERTEX
  8
0
 10
29.7082
 20
-31.5108
 30
0.0
 40
0
 41
0
  0
VERTEX
  8
0
 10
29.7179
 20
-31.5249
 30
0.0
 40
0
 41
0
  0
VERTEX
  8
0
 10
29.7974
 20
-31.6538
 30
0.0
 40
0
 41
0
  0
VERTEX
  8
0
 10
30.2083
 20
-32.3053
 30
0.0
 40
0
 41
0
  0
VERTEX
  8
0
 10
30.6368
 20
-32.9476
 30
0.0
 40
0
 41
0
  0
VERTEX
  8
0
 10
30.7251
 20
-33.0721
 30
0.0
 40
0
 41
0
  0
VERTEX
  8
0
 10
30.7693
 20
-33.1365
 30
0.0
 40
0
 41
0
  0
VERTEX
  8
0
 10
31.2112
 20
-33.749
 30
0.0
 40
0
 41
0
  0
VERTEX
  8
0
 10
31.2554
 20
-33.8089
 30
0.0
 40
0
 41
0
  0
VERTEX
  8
0
 10
31.2682
 20
-33.826
 30
0.0
 40
0
 41
0
  0
VERTEX
  8
0
 10
31.3092
 20
-33.8758
 30
0.0
 40
0
 41
0
  0
VERTEX
  8
0
 10
31.3744
 20
-33.951
 30
0.0
 40
0
 41
0
  0
VERTEX
  8
0
 10
31.4458
 20
-34.0322
 30
0.0
 40
0
 41
0
  0
VERTEX
  8
0
 10
31.5183
 20
-34.1174
 30
0.0
 40
0
 41
0
  0
VERTEX
  8
0
 10
31.5865
 20
-34.2042
 30
0.0
 40
0
 41
0
  0
VERTEX
  8
0
 10
31.6456
 20
-34.2907
 30
0.0
 40
0
 41
0
  0
VERTEX
  8
0
 10
31.69
 20
-34.3744
 30
0.0
 40
0
 41
0
  0
VERTEX
  8
0
 10
31.7114
 20
-34.4333
 30
0.0
 40
0
 41
0
  0
VERTEX
  8
0
 10
31.7149
 20
-34.4536
 30
0.0
 40
0
 41
0
  0
VERTEX
  8
0
 10
31.545
 20
-34.3494
 30
0.0
 40
0
 41
0
  0
VERTEX
  8
0
 10
31.0511
 20
-34.0114
 30
0.0
 40
0
 41
0
  0
VERTEX
  8
0
 10
30.4071
 20
-33.5279
 30
0.0
 40
0
 41
0
  0
VERTEX
  8
0
 10
29.7764
 20
-33.0236
 30
0.0
 40
0
 41
0
  0
VERTEX
  8
0
 10
29.309
 20
-32.6446
 30
0.0
 40
0
 41
0
  0
VERTEX
  8
0
 10
29.1524
 20
-32.5194
 30
0.0
 40
0
 41
0
  0
VERTEX
  8
0
 10
29.0993
 20
-32.4781
 30
0.0
 40
0
 41
0
  0
VERTEX
  8
0
 10
28.8254
 20
-32.2615
 30
0.0
 40
0
 41
0
  0
VERTEX
  8
0
 10
28.5514
 20
-32.0451
 30
0.0
 40
0
 41
0
  0
VERTEX
  8
0
 10
28.4985
 20
-32.0038
 30
0.0
 40
0
 41
0
  0
VERTEX
  8
0
 10
28.4644
 20
-31.9789
 30
0.0
 40
0
 41
0
  0
VERTEX
  8
0
 10
28.3678
 20
-31.8978
 30
0.0
 40
0
 41
0
  0
VERTEX
  8
0
 10
28.2356
 20
-31.7919
 30
0.0
 40
0
 41
0
  0
VERTEX
  8
0
 10
28.0933
 20
-31.7136
 30
0.0
 40
0
 41
0
  0
VERTEX
  8
0
 10
27.9722
 20
-31.6874
 30
0.0
 40
0
 41
0
  0
VERTEX
  8
0
 10
27.9329
 20
-31.6906
 30
0.0
 40
0
 41
0
  0
VERTEX
  8
0
 10
27.8847
 20
-31.6978
 30
0.0
 40
0
 41
0
  0
VERTEX
  8
0
 10
27.7418
 20
-31.7332
 30
0.0
 40
0
 41
0
  0
VERTEX
  8
0
 10
27.5442
 20
-31.7965
 30
0.0
 40
0
 41
0
  0
VERTEX
  8
0
 10
27.3464
 20
-31.8667
 30
0.0
 40
0
 41
0
  0
VERTEX
  8
0
 10
27.2035
 20
-31.9157
 30
0.0
 40
0
 41
0
  0
VERTEX
  8
0
 10
27.1553
 20
-31.93
 30
0.0
 40
0
 41
0
  0
VERTEX
  8
0
 10
27.0935
 20
-31.9485
 30
0.0
 40
0
 41
0
  0
VERTEX
  8
0
 10
26.7753
 20
-32.0428
 30
0.0
 40
0
 41
0
  0
VERTEX
  8
0
 10
26.4572
 20
-32.1465
 30
0.0
 40
0
 41
0
  0
VERTEX
  8
0
 10
26.3954
 20
-32.1696
 30
0.0
 40
0
 41
0
  0
VERTEX
  8
0
 10
26.4485
 20
-32.2294
 30
0.0
 40
0
 41
0
  0
VERTEX
  8
0
 10
26.7311
 20
-32.5103
 30
0.0
 40
0
 41
0
  0
VERTEX
  8
0
 10
27.0139
 20
-32.7911
 30
0.0
 40
0
 41
0
  0
VERTEX
  8
0
 10
27.0669
 20
-32.851
 30
0.0
 40
0
 41
0
  0
VERTEX
  8
0
 10
27.1071
 20
-32.8999
 30
0.0
 40
0
 41
0
  0
VERTEX
  8
0
 10
27.2237
 20
-33.0496
 30
0.0
 40
0
 41
0
  0
VERTEX
  8
0
 10
27.3807
 20
-33.2517
 30
0.0
 40
0
 41
0
  0
VERTEX
  8
0
 10
27.5442
 20
-33.4467
 30
0.0
 40
0
 41
0
  0
VERTEX
  8
0
 10
27.6742
 20
-33.5829
 30
0.0
 40
0
 41
0
  0
VERTEX
  8
0
 10
27.7208
 20
-33.6246
 30
0.0
 40
0
 41
0
  0
VERTEX
  8
0
 10
27.7647
 20
-33.6669
 30
0.0
 40
0
 41
0
  0
VERTEX
  8
0
 10
27.8979
 20
-33.7924
 30
0.0
 40
0
 41
0
  0
VERTEX
  8
0
 10
28.0842
 20
-33.9614
 30
0.0
 40
0
 41
0
  0
VERTEX
  8
0
 10
28.2787
 20
-34.1278
 30
0.0
 40
0
 41
0
  0
VERTEX
  8
0
 10
28.4807
 20
-34.2878
 30
0.0
 40
0
 41
0
  0
VERTEX
  8
0
 10
28.6894
 20
-34.4374
 30
0.0
 40
0
 41
0
  0
VERTEX
  8
0
 10
28.9038
 20
-34.5726
 30
0.0
 40
0
 41
0
  0
VERTEX
  8
0
 10
29.1232
 20
-34.6899
 30
0.0
 40
0
 41
0
  0
VERTEX
  8
0
 10
29.2897
 20
-34.7642
 30
0.0
 40
0
 41
0
  0
VERTEX
  8
0
 10
29.3467
 20
-34.7851
 30
0.0
 40
0
 41
0
  0
VERTEX
  8
0
 10
29.4692
 20
-34.8299
 30
0.0
 40
0
 41
0
  0
VERTEX
  8
0
 10
29.8457
 20
-34.939
 30
0.0
 40
0
 41
0
  0
VERTEX
  8
0
 10
30.3562
 20
-35.036
 30
0.0
 40
0
 41
0
  0
VERTEX
  8
0
 10
30.8701
 20
-35.0674
 30
0.0
 40
0
 41
0
  0
VERTEX
  8
0
 10
31.2535
 20
-35.0451
 30
0.0
 40
0
 41
0
  0
VERTEX
  8
0
 10
31.3792
 20
-35.0246
 30
0.0
 40
0
 41
0
  0
VERTEX
  8
0
 10
31.4281
 20
-35.0172
 30
0.0
 40
0
 41
0
  0
VERTEX
  8
0
 10
31.5749
 20
-34.9961
 30
0.0
 40
0
 41
0
  0
VERTEX
  8
0
 10
31.7858
 20
-34.9629
 30
0.0
 40
0
 41
0
  0
VERTEX
  8
0
 10
32.0038
 20
-34.9203
 30
0.0
 40
0
 41
0
  0
VERTEX
  8
0
 10
32.2207
 20
-34.8633
 30
0.0
 40
0
 41
0
  0
VERTEX
  8
0
 10
32.4286
 20
-34.7875
 30
0.0
 40
0
 41
0
  0
VERTEX
  8
0
 10
32.6193
 20
-34.6878
 30
0.0
 40
0
 41
0
  0
VERTEX
  8
0
 10
32.7846
 20
-34.5596
 30
0.0
 40
0
 41
0
  0
VERTEX
  8
0
 10
32.8892
 20
-34.4421
 30
0.0
 40
0
 41
0
  0
VERTEX
  8
0
 10
32.9167
 20
-34.3983
 30
0.0
 40
0
 41
0
  0
VERTEX
  8
0
 10
32.9347
 20
-34.3674
 30
0.0
 40
0
 41
0
  0
VERTEX
  8
0
 10
32.9789
 20
-34.2683
 30
0.0
 40
0
 41
0
  0
VERTEX
  8
0
 10
33.0207
 20
-34.1292
 30
0.0
 40
0
 41
0
  0
VERTEX
  8
0
 10
33.0431
 20
-33.9835
 30
0.0
 40
0
 41
0
  0
VERTEX
  8
0
 10
33.0469
 20
-33.8342
 30
0.0
 40
0
 41
0
  0
VERTEX
  8
0
 10
33.0335
 20
-33.6839
 30
0.0
 40
0
 41
0
  0
VERTEX
  8
0
 10
33.0036
 20
-33.5357
 30
0.0
 40
0
 41
0
  0
VERTEX
  8
0
 10
32.9585
 20
-33.3921
 30
0.0
 40
0
 41
0
  0
VERTEX
  8
0
 10
32.9157
 20
-33.2893
 30
0.0
 40
0
 41
0
  0
VERTEX
  8
0
 10
32.899
 20
-33.2562
 30
0.0
 40
0
 41
0
  0
VERTEX
  8
0
 10
32.8715
 20
-33.2057
 30
0.0
 40
0
 41
0
  0
VERTEX
  8
0
 10
32.7729
 20
-33.0631
 30
0.0
 40
0
 41
0
  0
VERTEX
  8
0
 10
32.6231
 20
-32.8956
 30
0.0
 40
0
 41
0
  0
VERTEX
  8
0
 10
32.4537
 20
-32.7501
 30
0.0
 40
0
 41
0
  0
VERTEX
  8
0
 10
32.2693
 20
-32.6231
 30
0.0
 40
0
 41
0
  0
VERTEX
  8
0
 10
32.0742
 20
-32.5107
 30
0.0
 40
0
 41
0
  0
VERTEX
  8
0
 10
31.8725
 20
-32.4092
 30
0.0
 40
0
 41
0
  0
VERTEX
  8
0
 10
31.6689
 20
-32.3151
 30
0.0
 40
0
 41
0
  0
VERTEX
  8
0
 10
31.5178
 20
-32.2475
 30
0.0
 40
0
 41
0
  0
VERTEX
  8
0
 10
31.4675
 20
-32.2247
 30
0.0
 40
0
 41
0
  0
VERTEX
  8
0
 10
31.3924
 20
-32.1925
 30
0.0
 40
0
 41
0
  0
VERTEX
  8
0
 10
31.0057
 20
-32.0612
 30
0.0
 40
0
 41
0
  0
VERTEX
  8
0
 10
30.6104
 20
-31.9393
 30
0.0
 40
0
 41
0
  0
VERTEX
  8
0
 10
30.5308
 20
-31.9117
 30
0.0
 40
0
 41
0
  0
VERTEX
  8
0
 10
30.5022
 20
-31.9033
 30
0.0
 40
0
 41
0
  0
VERTEX
  8
0
 10
30.4187
 20
-31.8719
 30
0.0
 40
0
 41
0
  0
VERTEX
  8
0
 10
30.3235
 20
-31.8221
 30
0.0
 40
0
 41
0
  0
VERTEX
  8
0
 10
30.2485
 20
-31.7624
 30
0.0
 40
0
 41
0
  0
VERTEX
  8
0
 10
30.1972
 20
-31.6929
 30
0.0
 40
0
 41
0
  0
VERTEX
  8
0
 10
30.1733
 20
-31.6139
 30
0.0
 40
0
 41
0
  0
VERTEX
  8
0
 10
30.1803
 20
-31.5257
 30
0.0
 40
0
 41
0
  0
VERTEX
  8
0
 10
30.2217
 20
-31.4283
 30
0.0
 40
0
 41
0
  0
VERTEX
  8
0
 10
30.279
 20
-31.3467
 30
0.0
 40
0
 41
0
  0
VERTEX
  8
0
 10
30.3011
 20
-31.3222
 30
0.0
 40
0
 41
0
  0
VERTEX
  8
0
 10
30.3442
 20
-31.2737
 30
0.0
 40
0
 41
0
  0
VERTEX
  8
0
 10
30.4833
 20
-31.1376
 30
0.0
 40
0
 41
0
  0
VERTEX
  8
0
 10
30.6826
 20
-30.9688
 30
0.0
 40
0
 41
0
  0
VERTEX
  8
0
 10
30.8944
 20
-30.8118
 30
0.0
 40
0
 41
0
  0
VERTEX
  8
0
 10
31.114
 20
-30.6636
 30
0.0
 40
0
 41
0
  0
VERTEX
  8
0
 10
31.3369
 20
-30.5206
 30
0.0
 40
0
 41
0
  0
VERTEX
  8
0
 10
31.5586
 20
-30.3793
 30
0.0
 40
0
 41
0
  0
VERTEX
  8
0
 10
31.7744
 20
-30.2363
 30
0.0
 40
0
 41
0
  0
VERTEX
  8
0
 10
31.9297
 20
-30.1265
 30
0.0
 40
0
 41
0
  0
VERTEX
  8
0
 10
31.98
 20
-30.0881
 30
0.0
 40
0
 41
0
  0
VERTEX
  8
0
 10
32.0876
 20
-30.0051
 30
0.0
 40
0
 41
0
  0
VERTEX
  8
0
 10
32.4085
 20
-29.7533
 30
0.0
 40
0
 41
0
  0
VERTEX
  8
0
 10
32.8319
 20
-29.4121
 30
0.0
 40
0
 41
0
  0
VERTEX
  8
0
 10
33.2493
 20
-29.0635
 30
0.0
 40
0
 41
0
  0
VERTEX
  8
0
 10
33.6597
 20
-28.7071
 30
0.0
 40
0
 41
0
  0
VERTEX
  8
0
 10
34.0621
 20
-28.3424
 30
0.0
 40
0
 41
0
  0
VERTEX
  8
0
 10
34.4556
 20
-27.9685
 30
0.0
 40
0
 41
0
  0
VERTEX
  8
0
 10
34.8392
 20
-27.5851
 30
0.0
 40
0
 41
0
  0
VERTEX
  8
0
 10
35.2119
 20
-27.1915
 30
0.0
 40
0
 41
0
  0
VERTEX
  8
0
 10
35.5728
 20
-26.7872
 30
0.0
 40
0
 41
0
  0
VERTEX
  8
0
 10
35.921
 20
-26.3714
 30
0.0
 40
0
 41
0
  0
VERTEX
  8
0
 10
36.2554
 20
-25.9436
 30
0.0
 40
0
 41
0
  0
VERTEX
  8
0
 10
36.5751
 20
-25.5032
 30
0.0
 40
0
 41
0
  0
VERTEX
  8
0
 10
36.8793
 20
-25.0497
 30
0.0
 40
0
 41
0
  0
VERTEX
  8
0
 10
37.1668
 20
-24.5825
 30
0.0
 40
0
 41
0
  0
VERTEX
  8
0
 10
37.4368
 20
-24.1008
 30
0.0
 40
0
 41
0
  0
VERTEX
  8
0
 10
37.6282
 20
-23.7297
 30
0.0
 40
0
 41
0
  0
VERTEX
  8
0
 10
37.6883
 20
-23.6043
 30
0.0
 40
0
 41
0
  0
VERTEX
  8
0
 10
37.7474
 20
-23.4776
 30
0.0
 40
0
 41
0
  0
VERTEX
  8
0
 10
37.92
 20
-23.0956
 30
0.0
 40
0
 41
0
  0
VERTEX
  8
0
 10
38.1367
 20
-22.5867
 30
0.0
 40
0
 41
0
  0
VERTEX
  8
0
 10
38.3369
 20
-22.0708
 30
0.0
 40
0
 41
0
  0
VERTEX
  8
0
 10
38.4763
 20
-21.6746
 30
0.0
 40
0
 41
0
  0
VERTEX
  8
0
 10
38.5189
 20
-21.5414
 30
0.0
 40
0
 41
0
  0
VERTEX
  8
0
 10
38.5612
 20
-21.4092
 30
0.0
 40
0
 41
0
  0
VERTEX
  8
0
 10
38.6642
 20
-21.0051
 30
0.0
 40
0
 41
0
  0
VERTEX
  8
0
 10
38.7664
 20
-20.4707
 30
0.0
 40
0
 41
0
  0
VERTEX
  8
0
 10
38.8421
 20
-19.9328
 30
0.0
 40
0
 41
0
  0
VERTEX
  8
0
 10
38.8914
 20
-19.5228
 30
0.0
 40
0
 41
0
  0
VERTEX
  8
0
 10
38.9078
 20
-19.3863
 30
0.0
 40
0
 41
0
  0
VERTEX
  8
0
 10
38.921
 20
-19.255
 30
0.0
 40
0
 41
0
  0
VERTEX
  8
0
 10
38.9596
 20
-18.861
 30
0.0
 40
0
 41
0
  0
VERTEX
  8
0
 10
39.0049
 20
-18.334
 30
0.0
 40
0
 41
0
  0
VERTEX
  8
0
 10
39.0369
 20
-17.8036
 30
0.0
 40
0
 41
0
  0
VERTEX
  8
0
 10
39.0492
 20
-17.4018
 30
0.0
 40
0
 41
0
  0
VERTEX
  8
0
 10
39.0492
 20
-17.2681
 30
0.0
 40
0
 41
0
  0
VERTEX
  8
0
 10
39.0492
 20
-17.1194
 30
0.0
 40
0
 41
0
  0
VERTEX
  8
0
 10
39.0314
 20
-16.6739
 30
0.0
 40
0
 41
0
  0
VERTEX
  8
0
 10
38.9872
 20
-16.0799
 30
0.0
 40
0
 41
0
  0
VERTEX
  8
0
 10
38.9299
 20
-15.4858
 30
0.0
 40
0
 41
0
  0
VERTEX
  8
0
 10
38.8857
 20
-15.0404
 30
0.0
 40
0
 41
0
  0
VERTEX
  8
0
 10
38.8724
 20
-14.8918
 30
0.0
 40
0
 41
0
  0
VERTEX
  8
0
 10
38.8636
 20
-14.7906
 30
0.0
 40
0
 41
0
  0
VERTEX
  8
0
 10
38.8238
 20
-14.2747
 30
0.0
 40
0
 41
0
  0
VERTEX
  8
0
 10
38.7664
 20
-13.759
 30
0.0
 40
0
 41
0
  0
VERTEX
  8
0
 10
38.7487
 20
-13.6577
 30
0.0
 40
0
 41
0
  0
VERTEX
  8
0
 10
38.7265
 20
-13.5518
 30
0.0
 40
0
 41
0
  0
VERTEX
  8
0
 10
38.6072
 20
-13.0199
 30
0.0
 40
0
 41
0
  0
VERTEX
  8
0
 10
38.4881
 20
-12.4788
 30
0.0
 40
0
 41
0
  0
VERTEX
  8
0
 10
38.466
 20
-12.3683
 30
0.0
 40
0
 41
0
  0
VERTEX
  8
0
 10
38.4494
 20
-12.2927
 30
0.0
 40
0
 41
0
  0
VERTEX
  8
0
 10
38.4074
 20
-12.0643
 30
0.0
 40
0
 41
0
  0
VERTEX
  8
0
 10
38.3554
 20
-11.7605
 30
0.0
 40
0
 41
0
  0
VERTEX
  8
0
 10
38.2969
 20
-11.4565
 30
0.0
 40
0
 41
0
  0
VERTEX
  8
0
 10
38.2414
 20
-11.2276
 30
0.0
 40
0
 41
0
  0
VERTEX
  8
0
 10
38.2185
 20
-11.1526
 30
0.0
 40
0
 41
0
  0
VERTEX
  8
0
 10
38.1954
 20
-11.0803
 30
0.0
 40
0
 41
0
  0
VERTEX
  8
0
 10
38.1207
 20
-10.8653
 30
0.0
 40
0
 41
0
  0
VERTEX
  8
0
 10
38.0196
 20
-10.5816
 30
0.0
 40
0
 41
0
  0
VERTEX
  8
0
 10
37.9251
 20
-10.2978
 30
0.0
 40
0
 41
0
  0
VERTEX
  8
0
 10
37.8639
 20
-10.083
 30
0.0
 40
0
 41
0
  0
VERTEX
  8
0
 10
37.8474
 20
-10.0106
 30
0.0
 40
0
 41
0
  0
VERTEX
  8
0
 10
37.8146
 20
-9.8635
 30
0.0
 40
0
 41
0
  0
VERTEX
  8
0
 10
37.6881
 20
-9.4286
 30
0.0
 40
0
 41
0
  0
VERTEX
  8
0
 10
37.4872
 20
-8.86393
 30
0.0
 40
0
 41
0
  0
VERTEX
  8
0
 10
37.2633
 20
-8.30615
 30
0.0
 40
0
 41
0
  0
VERTEX
  8
0
 10
37.0904
 20
-7.88569
 30
0.0
 40
0
 41
0
  0
VERTEX
  8
0
 10
37.0344
 20
-7.74496
 30
0.0
 40
0
 41
0
  0
VERTEX
  8
0
 10
36.999
 20
-7.65283
 30
0.0
 40
0
 41
0
  0
VERTEX
  8
0
 10
36.8046
 20
-7.20156
 30
0.0
 40
0
 41
0
  0
VERTEX
  8
0
 10
36.6103
 20
-6.75028
 30
0.0
 40
0
 41
0
  0
VERTEX
  8
0
 10
36.5749
 20
-6.65821
 30
0.0
 40
0
 41
0
  0
VERTEX
  8
0
 10
36.5611
 20
-6.62213
 30
0.0
 40
0
 41
0
  0
VERTEX
  8
0
 10
36.5161
 20
-6.51525
 30
0.0
 40
0
 41
0
  0
VERTEX
  8
0
 10
36.449
 20
-6.36431
 30
0.0
 40
0
 41
0
  0
VERTEX
  8
0
 10
36.3786
 20
-6.20779
 30
0.0
 40
0
 41
0
  0
VERTEX
  8
0
 10
36.3097
 20
-6.04801
 30
0.0
 40
0
 41
0
  0
VERTEX
  8
0
 10
36.2476
 20
-5.88737
 30
0.0
 40
0
 41
0
  0
VERTEX
  8
0
 10
36.1972
 20
-5.72825
 30
0.0
 40
0
 41
0
  0
VERTEX
  8
0
 10
36.1632
 20
-5.57303
 30
0.0
 40
0
 41
0
  0
VERTEX
  8
0
 10
36.1508
 20
-5.46132
 30
0.0
 40
0
 41
0
  0
VERTEX
  8
0
 10
36.1508
 20
-5.4241
 30
0.0
 40
0
 41
0
  0
VERTEX
  8
0
 10
36.2215
 20
-5.48406
 30
0.0
 40
0
 41
0
  0
VERTEX
  8
0
 10
36.4176
 20
-5.68294
 30
0.0
 40
0
 41
0
  0
VERTEX
  8
0
 10
36.6528
 20
-5.97179
 30
0.0
 40
0
 41
0
  0
VERTEX
  8
0
 10
36.8621
 20
-6.28435
 30
0.0
 40
0
 41
0
  0
VERTEX
  8
0
 10
37.0521
 20
-6.61442
 30
0.0
 40
0
 41
0
  0
VERTEX
  8
0
 10
37.2287
 20
-6.95574
 30
0.0
 40
0
 41
0
  0
VERTEX
  8
0
 10
37.3983
 20
-7.30203
 30
0.0
 40
0
 41
0
  0
VERTEX
  8
0
 10
37.5671
 20
-7.64697
 30
0.0
 40
0
 41
0
  0
VERTEX
  8
0
 10
37.6962
 20
-7.90087
 30
0.0
 40
0
 41
0
  0
VERTEX
  8
0
 10
37.7414
 20
-7.98443
 30
0.0
 40
0
 41
0
  0
VERTEX
  8
0
 10
37.8032
 20
-8.10411
 30
0.0
 40
0
 41
0
  0
VERTEX
  8
0
 10
38.0815
 20
-8.71431
 30
0.0
 40
0
 41
0
  0
VERTEX
  8
0
 10
38.3422
 20
-9.33365
 30
0.0
 40
0
 41
0
  0
VERTEX
  8
0
 10
38.3953
 20
-9.45801
 30
0.0
 40
0
 41
0
  0
VERTEX
  8
0
 10
38.4482
 20
-9.57775
 30
0.0
 40
0
 41
0
  0
VERTEX
  8
0
 10
38.6979
 20
-10.1971
 30
0.0
 40
0
 41
0
  0
VERTEX
  8
0
 10
38.921
 20
-10.8256
 30
0.0
 40
0
 41
0
  0
VERTEX
  8
0
 10
38.9608
 20
-10.95
 30
0.0
 40
0
 41
0
  0
VERTEX
  8
0
 10
38.9906
 20
-11.0534
 30
0.0
 40
0
 41
0
  0
VERTEX
  8
0
 10
39.0881
 20
-11.3615
 30
0.0
 40
0
 41
0
  0
VERTEX
  8
0
 10
39.2236
 20
-11.7696
 30
0.0
 40
0
 41
0
  0
VERTEX
  8
0
 10
39.3558
 20
-12.1777
 30
0.0
 40
0
 41
0
  0
VERTEX
  8
0
 10
39.4467
 20
-12.4857
 30
0.0
 40
0
 41
0
  0
VERTEX
  8
0
 10
39.4732
 20
-12.5894
 30
0.0
 40
0
 41
0
  0
VERTEX
  8
0
 10
39.4908
 20
-12.6538
 30
0.0
 40
0
 41
0
  0
VERTEX
  8
0
 10
39.5483
 20
-12.9761
 30
0.0
 40
0
 41
0
  0
VERTEX
  8
0
 10
39.5881
 20
-13.2984
 30
0.0
 40
0
 41
0
  0
VERTEX
  8
0
 10
39.5969
 20
-13.363
 30
0.0
 40
0
 41
0
  0
VERTEX
  8
0
 10
39.6035
 20
-13.4178
 30
0.0
 40
0
 41
0
  0
VERTEX
  8
0
 10
39.635
 20
-13.5811
 30
0.0
 40
0
 41
0
  0
VERTEX
  8
0
 10
39.6897
 20
-13.7958
 30
0.0
 40
0
 41
0
  0
VERTEX
  8
0
 10
39.751
 20
-14.0106
 30
0.0
 40
0
 41
0
  0
VERTEX
  8
0
 10
39.7958
 20
-14.1739
 30
0.0
 40
0
 41
0
  0
VERTEX
  8
0
 10
39.809
 20
-14.2286
 30
0.0
 40
0
 41
0
  0
VERTEX
  8
0
 10
39.8369
 20
-14.3332
 30
0.0
 40
0
 41
0
  0
VERTEX
  8
0
 10
39.9089
 20
-14.65
 30
0.0
 40
0
 41
0
  0
VERTEX
  8
0
 10
39.9854
 20
-15.0719
 30
0.0
 40
0
 41
0
  0
VERTEX
  8
0
 10
40.0417
 20
-15.4947
 30
0.0
 40
0
 41
0
  0
VERTEX
  8
0
 10
40.0807
 20
-15.9186
 30
0.0
 40
0
 41
0
  0
VERTEX
  8
0
 10
40.1057
 20
-16.3444
 30
0.0
 40
0
 41
0
  0
VERTEX
  8
0
 10
40.1197
 20
-16.7724
 30
0.0
 40
0
 41
0
  0
VERTEX
  8
0
 10
40.1258
 20
-17.2028
 30
0.0
 40
0
 41
0
  0
VERTEX
  8
0
 10
40.1272
 20
-17.5279
 30
0.0
 40
0
 41
0
  0
VERTEX
  8
0
 10
40.1272
 20
-17.6364
 30
0.0
 40
0
 41
0
  0
VERTEX
  8
0
 10
40.1272
 20
-17.8531
 30
0.0
 40
0
 41
0
  0
VERTEX
  8
0
 10
40.1233
 20
-18.5032
 30
0.0
 40
0
 41
0
  0
VERTEX
  8
0
 10
40.0962
 20
-19.3632
 30
0.0
 40
0
 41
0
  0
VERTEX
  8
0
 10
40.0228
 20
-20.2162
 30
0.0
 40
0
 41
0
  0
VERTEX
  8
0
 10
39.9258
 20
-20.8531
 30
0.0
 40
0
 41
0
  0
VERTEX
  8
0
 10
39.8797
 20
-21.0624
 30
0.0
 40
0
 41
0
  0
VERTEX
  8
0
 10
39.8365
 20
-21.2562
 30
0.0
 40
0
 41
0
  0
VERTEX
  8
0
 10
39.6972
 20
-21.8354
 30
0.0
 40
0
 41
0
  0
VERTEX
  8
0
 10
39.4931
 20
-22.605
 30
0.0
 40
0
 41
0
  0
VERTEX
  8
0
 10
39.2658
 20
-23.3678
 30
0.0
 40
0
 41
0
  0
VERTEX
  8
0
 10
39.0801
 20
-23.9332
 30
0.0
 40
0
 41
0
  0
VERTEX
  8
0
 10
39.0138
 20
-24.12
 30
0.0
 40
0
 41
0
  0
VERTEX
  8
0
 10
38.9492
 20
-24.3085
 30
0.0
 40
0
 41
0
  0
VERTEX
  8
0
 10
38.7342
 20
-24.8665
 30
0.0
 40
0
 41
0
  0
VERTEX
  8
0
 10
38.4139
 20
-25.5987
 30
0.0
 40
0
 41
0
  0
VERTEX
  8
0
 10
38.0557
 20
-26.3147
 30
0.0
 40
0
 41
0
  0
VERTEX
  8
0
 10
37.6618
 20
-27.0119
 30
0.0
 40
0
 41
0
  0
VERTEX
  8
0
 10
37.2347
 20
-27.6885
 30
0.0
 40
0
 41
0
  0
VERTEX
  8
0
 10
36.7771
 20
-28.3422
 30
0.0
 40
0
 41
0
  0
VERTEX
  8
0
 10
36.2911
 20
-28.9708
 30
0.0
 40
0
 41
0
  0
VERTEX
  8
0
 10
35.911
 20
-29.4251
 30
0.0
 40
0
 41
0
  0
VERTEX
  8
0
 10
35.7796
 20
-29.5724
 30
0.0
 40
0
 41
0
  0
VERTEX
  8
0
 10
35.6913
 20
-29.6736
 30
0.0
 40
0
 41
0
  0
VERTEX
  8
0
 10
35.234
 20
-30.1547
 30
0.0
 40
0
 41
0
  0
VERTEX
  8
0
 10
34.7503
 20
-30.6083
 30
0.0
 40
0
 41
0
  0
VERTEX
  8
0
 10
34.6486
 20
-30.696
 30
0.0
 40
0
 41
0
  0
VERTEX
  8
0
 10
34.6164
 20
-30.7242
 30
0.0
 40
0
 41
0
  0
VERTEX
  8
0
 10
34.516
 20
-30.805
 30
0.0
 40
0
 41
0
  0
VERTEX
  8
0
 10
34.3733
 20
-30.9126
 30
0.0
 40
0
 41
0
  0
VERTEX
  8
0
 10
34.2251
 20
-31.0206
 30
0.0
 40
0
 41
0
  0
VERTEX
  8
0
 10
34.0764
 20
-31.131
 30
0.0
 40
0
 41
0
  0
VERTEX
  8
0
 10
33.9318
 20
-31.2458
 30
0.0
 40
0
 41
0
  0
VERTEX
  8
0
 10
33.7961
 20
-31.3668
 30
0.0
 40
0
 41
0
  0
VERTEX
  8
0
 10
33.6742
 20
-31.496
 30
0.0
 40
0
 41
0
  0
VERTEX
  8
0
 10
33.5939
 20
-31.5988
 30
0.0
 40
0
 41
0
  0
VERTEX
  8
0
 10
33.5706
 20
-31.6353
 30
0.0
 40
0
 41
0
  0
VERTEX
  8
0
 10
33.5461
 20
-31.6736
 30
0.0
 40
0
 41
0
  0
VERTEX
  8
0
 10
33.4899
 20
-31.7993
 30
0.0
 40
0
 41
0
  0
VERTEX
  8
0
 10
33.4556
 20
-31.9596
 30
0.0
 40
0
 41
0
  0
VERTEX
  8
0
 10
33.4611
 20
-32.1161
 30
0.0
 40
0
 41
0
  0
VERTEX
  8
0
 10
33.4999
 20
-32.2685
 30
0.0
 40
0
 41
0
  0
VERTEX
  8
0
 10
33.565
 20
-32.4165
 30
0.0
 40
0
 41
0
  0
VERTEX
  8
0
 10
33.65
 20
-32.56
 30
0.0
 40
0
 41
0
  0
VERTEX
  8
0
 10
33.7483
 20
-32.6988
 30
0.0
 40
0
 41
0
  0
VERTEX
  8
0
 10
33.8265
 20
-32.7994
 30
0.0
 40
0
 41
0
  0
VERTEX
  8
0
 10
33.8533
 20
-32.8326
 30
0.0
 40
0
 41
0
  0
VERTEX
  8
0
 10
33.9021
 20
-32.8903
 30
0.0
 40
0
 41
0
  0
VERTEX
  8
0
 10
34.0286
 20
-33.0807
 30
0.0
 40
0
 41
0
  0
VERTEX
  8
0
 10
34.156
 20
-33.3529
 30
0.0
 40
0
 41
0
  0
VERTEX
  8
0
 10
34.2335
 20
-33.646
 30
0.0
 40
0
 41
0
  0
VERTEX
  8
0
 10
34.2597
 20
-33.8786
 30
0.0
 40
0
 41
0
  0
VERTEX
  8
0
 10
34.2597
 20
-33.9563
 30
0.0
 40
0
 41
0
  0
VERTEX
  8
0
 10
34.2589
 20
-34.001
 30
0.0
 40
0
 41
0
  0
VERTEX
  8
0
 10
34.2468
 20
-34.1349
 30
0.0
 40
0
 41
0
  0
VERTEX
  8
0
 10
34.2153
 20
-34.3053
 30
0.0
 40
0
 41
0
  0
VERTEX
  8
0
 10
34.1667
 20
-34.4675
 30
0.0
 40
0
 41
0
  0
VERTEX
  8
0
 10
34.1024
 20
-34.6215
 30
0.0
 40
0
 41
0
  0
VERTEX
  8
0
 10
34.0237
 20
-34.7681
 30
0.0
 40
0
 41
0
  0
VERTEX
  8
0
 10
33.9324
 20
-34.9068
 30
0.0
 40
0
 41
0
  0
VERTEX
  8
0
 10
33.8293
 20
-35.0383
 30
0.0
 40
0
 41
0
  0
VERTEX
  8
0
 10
33.7163
 20
-35.1626
 30
0.0
 40
0
 41
0
  0
VERTEX
  8
0
 10
33.5946
 20
-35.2801
 30
0.0
 40
0
 41
0
  0
VERTEX
  8
0
 10
33.4656
 20
-35.3908
 30
0.0
 40
0
 41
0
  0
VERTEX
  8
0
 10
33.3306
 20
-35.4953
 30
0.0
 40
0
 41
0
  0
VERTEX
  8
0
 10
33.1911
 20
-35.5932
 30
0.0
 40
0
 41
0
  0
VERTEX
  8
0
 10
33.0486
 20
-35.6853
 30
0.0
 40
0
 41
0
  0
VERTEX
  8
0
 10
32.9043
 20
-35.7714
 30
0.0
 40
0
 41
0
  0
VERTEX
  8
0
 10
32.7597
 20
-35.8519
 30
0.0
 40
0
 41
0
  0
VERTEX
  8
0
 10
32.6522
 20
-35.9087
 30
0.0
 40
0
 41
0
  0
VERTEX
  8
0
 10
32.6163
 20
-35.9271
 30
0.0
 40
0
 41
0
  0
VERTEX
  8
0
 10
32.5712
 20
-35.9497
 30
0.0
 40
0
 41
0
  0
VERTEX
  8
0
 10
32.4318
 20
-36.0078
 30
0.0
 40
0
 41
0
  0
VERTEX
  8
0
 10
32.2385
 20
-36.0718
 30
0.0
 40
0
 41
0
  0
VERTEX
  8
0
 10
32.0383
 20
-36.1217
 30
0.0
 40
0
 41
0
  0
VERTEX
  8
0
 10
31.8342
 20
-36.1596
 30
0.0
 40
0
 41
0
  0
VERTEX
  8
0
 10
31.6283
 20
-36.1881
 30
0.0
 40
0
 41
0
  0
VERTEX
  8
0
 10
31.4233
 20
-36.2094
 30
0.0
 40
0
 41
0
  0
VERTEX
  8
0
 10
31.2215
 20
-36.226
 30
0.0
 40
0
 41
0
  0
VERTEX
  8
0
 10
31.0746
 20
-36.2367
 30
0.0
 40
0
 41
0
  0
VERTEX
  8
0
 10
31.0257
 20
-36.2403
 30
0.0
 40
0
 41
0
  0
VERTEX
  8
0
 10
30.9253
 20
-36.2472
 30
0.0
 40
0
 41
0
  0
VERTEX
  8
0
 10
30.6228
 20
-36.2476
 30
0.0
 40
0
 41
0
  0
VERTEX
  8
0
 10
30.2149
 20
-36.2172
 30
0.0
 40
0
 41
0
  0
VERTEX
  8
0
 10
29.8103
 20
-36.1522
 30
0.0
 40
0
 41
0
  0
VERTEX
  8
0
 10
29.5144
 20
-36.084
 30
0.0
 40
0
 41
0
  0
VERTEX
  8
0
 10
29.4174
 20
-36.0561
 30
0.0
 40
0
 41
0
  0
VERTEX
  8
0
 10
29.3696
 20
-36.0424
 30
0.0
 40
0
 41
0
  0
VERTEX
  8
0
 10
29.2292
 20
-35.9911
 30
0.0
 40
0
 41
0
  0
VERTEX
  8
0
 10
29.0479
 20
-35.909
 30
0.0
 40
0
 41
0
  0
VERTEX
  8
0
 10
28.8725
 20
-35.8135
 30
0.0
 40
0
 41
0
  0
VERTEX
  8
0
 10
28.7017
 20
-35.7083
 30
0.0
 40
0
 41
0
  0
VERTEX
  8
0
 10
28.5342
 20
-35.5972
 30
0.0
 40
0
 41
0
  0
VERTEX
  8
0
 10
28.3686
 20
-35.4836
 30
0.0
 40
0
 41
0
  0
VERTEX
  8
0
 10
28.204
 20
-35.3712
 30
0.0
 40
0
 41
0
  0
VERTEX
  8
0
 10
28.0806
 20
-35.29
 30
0.0
 40
0
 41
0
  0
VERTEX
  8
0
 10
28.0389
 20
-35.264
 30
0.0
 40
0
 41
0
  0
VERTEX
  8
0
 10
27.9988
 20
-35.2389
 30
0.0
 40
0
 41
0
  0
VERTEX
  8
0
 10
27.8717
 20
-35.1746
 30
0.0
 40
0
 41
0
  0
VERTEX
  8
0
 10
27.7015
 20
-35.1124
 30
0.0
 40
0
 41
0
  0
VERTEX
  8
0
 10
27.5287
 20
-35.0746
 30
0.0
 40
0
 41
0
  0
VERTEX
  8
0
 10
27.3542
 20
-35.059
 30
0.0
 40
0
 41
0
  0
VERTEX
  8
0
 10
27.1778
 20
-35.0635
 30
0.0
 40
0
 41
0
  0
VERTEX
  8
0
 10
27.0001
 20
-35.0853
 30
0.0
 40
0
 41
0
  0
VERTEX
  8
0
 10
26.8217
 20
-35.1222
 30
0.0
 40
0
 41
0
  0
VERTEX
  8
0
 10
26.6871
 20
-35.1582
 30
0.0
 40
0
 41
0
  0
VERTEX
  8
0
 10
26.6428
 20
-35.1719
 30
0.0
 40
0
 41
0
  0
VERTEX
  8
0
 10
26.4513
 20
-35.2304
 30
0.0
 40
0
 41
0
  0
VERTEX
  8
0
 10
25.8765
 20
-35.4053
 30
0.0
 40
0
 41
0
  0
VERTEX
  8
0
 10
25.1118
 20
-35.63
 30
0.0
 40
0
 41
0
  0
VERTEX
  8
0
 10
24.344
 20
-35.8375
 30
0.0
 40
0
 41
0
  0
VERTEX
  8
0
 10
23.7626
 20
-35.9779
 30
0.0
 40
0
 41
0
  0
VERTEX
  8
0
 10
23.5678
 20
-36.0192
 30
0.0
 40
0
 41
0
  0
VERTEX
  8
0
 10
23.4782
 20
-36.0383
 30
0.0
 40
0
 41
0
  0
VERTEX
  8
0
 10
23.21
 20
-36.099
 30
0.0
 40
0
 41
0
  0
VERTEX
  8
0
 10
22.8469
 20
-36.1869
 30
0.0
 40
0
 41
0
  0
VERTEX
  8
0
 10
22.4804
 20
-36.2839
 30
0.0
 40
0
 41
0
  0
VERTEX
  8
0
 10
22.1122
 20
-36.3907
 30
0.0
 40
0
 41
0
  0
VERTEX
  8
0
 10
21.744
 20
-36.5082
 30
0.0
 40
0
 41
0
  0
VERTEX
  8
0
 10
21.3779
 20
-36.6372
 30
0.0
 40
0
 41
0
  0
VERTEX
  8
0
 10
21.0154
 20
-36.7786
 30
0.0
 40
0
 41
0
  0
VERTEX
  8
0
 10
20.6583
 20
-36.9333
 30
0.0
 40
0
 41
0
  0
VERTEX
  8
0
 10
20.3085
 20
-37.1019
 30
0.0
 40
0
 41
0
  0
VERTEX
  8
0
 10
19.9678
 20
-37.2854
 30
0.0
 40
0
 41
0
  0
VERTEX
  8
0
 10
19.6378
 20
-37.4846
 30
0.0
 40
0
 41
0
  0
VERTEX
  8
0
 10
19.3204
 20
-37.7003
 30
0.0
 40
0
 41
0
  0
VERTEX
  8
0
 10
19.0175
 20
-37.9333
 30
0.0
 40
0
 41
0
  0
VERTEX
  8
0
 10
18.7307
 20
-38.1847
 30
0.0
 40
0
 41
0
  0
VERTEX
  8
0
 10
18.4619
 20
-38.4551
 30
0.0
 40
0
 41
0
  0
VERTEX
  8
0
 10
18.2724
 20
-38.6706
 30
0.0
 40
0
 41
0
  0
VERTEX
  8
0
 10
18.2129
 20
-38.7454
 30
0.0
 40
0
 41
0
  0
VERTEX
  8
0
 10
18.1508
 20
-38.8236
 30
0.0
 40
0
 41
0
  0
VERTEX
  8
0
 10
17.9733
 20
-39.0651
 30
0.0
 40
0
 41
0
  0
VERTEX
  8
0
 10
17.7578
 20
-39.39
 30
0.0
 40
0
 41
0
  0
VERTEX
  8
0
 10
17.5654
 20
-39.7219
 30
0.0
 40
0
 41
0
  0
VERTEX
  8
0
 10
17.3956
 20
-40.0624
 30
0.0
 40
0
 41
0
  0
VERTEX
  8
0
 10
17.2471
 20
-40.4132
 30
0.0
 40
0
 41
0
  0
VERTEX
  8
0
 10
17.1193
 20
-40.7761
 30
0.0
 40
0
 41
0
  0
VERTEX
  8
0
 10
17.0115
 20
-41.1529
 30
0.0
 40
0
 41
0
  0
VERTEX
  8
0
 10
16.9422
 20
-41.4465
 30
0.0
 40
0
 41
0
  0
VERTEX
  8
0
 10
16.9228
 20
-41.5451
 30
0.0
 40
0
 41
0
  0
VERTEX
  8
0
 10
16.8963
 20
-41.6833
 30
0.0
 40
0
 41
0
  0
VERTEX
  8
0
 10
16.7814
 20
-42.374
 30
0.0
 40
0
 41
0
  0
VERTEX
  8
0
 10
16.6665
 20
-43.0647
 30
0.0
 40
0
 41
0
  0
VERTEX
  8
0
 10
16.64
 20
-43.2029
 30
0.0
 40
0
 41
0
  0
VERTEX
  8
0
 10
16.6203
 20
-43.3021
 30
0.0
 40
0
 41
0
  0
VERTEX
  8
0
 10
16.5515
 20
-43.5975
 30
0.0
 40
0
 41
0
  0
VERTEX
  8
0
 10
16.45
 20
-43.9835
 30
0.0
 40
0
 41
0
  0
VERTEX
  8
0
 10
16.3418
 20
-44.366
 30
0.0
 40
0
 41
0
  0
VERTEX
  8
0
 10
16.2599
 20
-44.6539
 30
0.0
 40
0
 41
0
  0
VERTEX
  8
0
 10
16.2335
 20
-44.7501
 30
0.0
 40
0
 41
0
  0
VERTEX
  8
0
 10
16.2121
 20
-44.8308
 30
0.0
 40
0
 41
0
  0
VERTEX
  8
0
 10
16.1349
 20
-45.0692
 30
0.0
 40
0
 41
0
  0
VERTEX
  8
0
 10
16.0118
 20
-45.3758
 30
0.0
 40
0
 41
0
  0
VERTEX
  8
0
 10
15.8642
 20
-45.6678
 30
0.0
 40
0
 41
0
  0
VERTEX
  8
0
 10
15.6922
 20
-45.9428
 30
0.0
 40
0
 41
0
  0
VERTEX
  8
0
 10
15.4964
 20
-46.1989
 30
0.0
 40
0
 41
0
  0
VERTEX
  8
0
 10
15.2767
 20
-46.4338
 30
0.0
 40
0
 41
0
  0
VERTEX
  8
0
 10
15.0333
 20
-46.6454
 30
0.0
 40
0
 41
0
  0
VERTEX
  8
0
 10
14.8357
 20
-46.7889
 30
0.0
 40
0
 41
0
  0
VERTEX
  8
0
 10
14.7667
 20
-46.8317
 30
0.0
 40
0
 41
0
  0
VERTEX
  8
0
 10
14.6057
 20
-46.931
 30
0.0
 40
0
 41
0
  0
VERTEX
  8
0
 10
14.1014
 20
-47.1951
 30
0.0
 40
0
 41
0
  0
VERTEX
  8
0
 10
13.4081
 20
-47.4878
 30
0.0
 40
0
 41
0
  0
VERTEX
  8
0
 10
12.6915
 20
-47.7149
 30
0.0
 40
0
 41
0
  0
VERTEX
  8
0
 10
12.1417
 20
-47.8471
 30
0.0
 40
0
 41
0
  0
VERTEX
  8
0
 10
11.9567
 20
-47.8815
 30
0.0
 40
0
 41
0
  0
VERTEX
  8
0
 10
11.9063
 20
-47.9018
 30
0.0
 40
0
 41
0
  0
VERTEX
  8
0
 10
11.7505
 20
-47.9513
 30
0.0
 40
0
 41
0
  0
VERTEX
  8
0
 10
11.5436
 20
-47.9978
 30
0.0
 40
0
 41
0
  0
VERTEX
  8
0
 10
11.3366
 20
-48.0253
 30
0.0
 40
0
 41
0
  0
VERTEX
  8
0
 10
11.1305
 20
-48.0381
 30
0.0
 40
0
 41
0
  0
VERTEX
  8
0
 10
10.926
 20
-48.0406
 30
0.0
 40
0
 41
0
  0
VERTEX
  8
0
 10
10.724
 20
-48.0369
 30
0.0
 40
0
 41
0
  0
VERTEX
  8
0
 10
10.5253
 20
-48.0317
 30
0.0
 40
0
 41
0
  0
VERTEX
  8
0
 10
10.3794
 20
-48.0289
 30
0.0
 40
0
 41
0
  0
VERTEX
  8
0
 10
10.3308
 20
-48.0289
 30
0.0
 40
0
 41
0
  0
VERTEX
  8
0
 10
10.33
 20
-48.0289
 30
0.0
 40
0
 41
0
  0
VERTEX
  8
0
 10
10.3275
 20
-48.0289
 30
0.0
 40
0
 41
0
  0
VERTEX
  8
0
 10
10.3359
 20
-48.0289
 30
0.0
 40
0
 41
0
  0
VERTEX
  8
0
 10
10.3535
 20
-48.0289
 30
0.0
 40
0
 41
0
  0
VERTEX
  8
0
 10
10.378
 20
-48.0289
 30
0.0
 40
0
 41
0
  0
VERTEX
  8
0
 10
10.407
 20
-48.0289
 30
0.0
 40
0
 41
0
  0
VERTEX
  8
0
 10
10.4379
 20
-48.0289
 30
0.0
 40
0
 41
0
  0
VERTEX
  8
0
 10
10.4686
 20
-48.0289
 30
0.0
 40
0
 41
0
  0
VERTEX
  8
0
 10
10.4965
 20
-48.0289
 30
0.0
 40
0
 41
0
  0
VERTEX
  8
0
 10
10.5192
 20
-48.0289
 30
0.0
 40
0
 41
0
  0
VERTEX
  8
0
 10
10.5342
 20
-48.0289
 30
0.0
 40
0
 41
0
  0
VERTEX
  8
0
 10
10.5394
 20
-48.0289
 30
0.0
 40
0
 41
0
  0
VERTEX
  8
0
 10
10.5321
 20
-48.0289
 30
0.0
 40
0
 41
0
  0
VERTEX
  8
0
 10
10.51
 20
-48.0289
 30
0.0
 40
0
 41
0
  0
VERTEX
  8
0
 10
10.4707
 20
-48.0289
 30
0.0
 40
0
 41
0
  0
VERTEX
  8
0
 10
10.4118
 20
-48.0289
 30
0.0
 40
0
 41
0
  0
VERTEX
  8
0
 10
10.3511
 20
-48.0289
 30
0.0
 40
0
 41
0
  0
VERTEX
  8
0
 10
10.3308
 20
-48.0289
 30
0.0
 40
0
 41
0
  0
SEQEND
 8
0
  0
POLYLINE
  8
0
 62
     0
 66
     1
 10
0
 20
0
 30
0.0
 70
     1
 40
0
 41
0
  0
VERTEX
  8
0
 10
16.8167
 20
-30.6592
 30
0.0
 40
0
 41
0
  0
VERTEX
  8
0
 10
16.8167
 20
-30.6258
 30
0.0
 40
0
 41
0
  0
VERTEX
  8
0
 10
16.8157
 20
-30.5258
 30
0.0
 40
0
 41
0
  0
VERTEX
  8
0
 10
16.8122
 20
-30.3896
 30
0.0
 40
0
 41
0
  0
VERTEX
  8
0
 10
16.8053
 20
-30.2511
 30
0.0
 40
0
 41
0
  0
VERTEX
  8
0
 10
16.794
 20
-30.1119
 30
0.0
 40
0
 41
0
  0
VERTEX
  8
0
 10
16.7776
 20
-29.9731
 30
0.0
 40
0
 41
0
  0
VERTEX
  8
0
 10
16.7553
 20
-29.8357
 30
0.0
 40
0
 41
0
  0
VERTEX
  8
0
 10
16.7258
 20
-29.701
 30
0.0
 40
0
 41
0
  0
VERTEX
  8
0
 10
16.6886
 20
-29.57
 30
0.0
 40
0
 41
0
  0
VERTEX
  8
0
 10
16.6426
 20
-29.444
 30
0.0
 40
0
 41
0
  0
VERTEX
  8
0
 10
16.5872
 20
-29.3242
 30
0.0
 40
0
 41
0
  0
VERTEX
  8
0
 10
16.5213
 20
-29.2115
 30
0.0
 40
0
 41
0
  0
VERTEX
  8
0
 10
16.4439
 20
-29.1075
 30
0.0
 40
0
 41
0
  0
VERTEX
  8
0
 10
16.3544
 20
-29.0129
 30
0.0
 40
0
 41
0
  0
VERTEX
  8
0
 10
16.2518
 20
-28.9292
 30
0.0
 40
0
 41
0
  0
VERTEX
  8
0
 10
16.1351
 20
-28.8574
 30
0.0
 40
0
 41
0
  0
VERTEX
  8
0
 10
16.0375
 20
-28.8111
 30
0.0
 40
0
 41
0
  0
VERTEX
  8
0
 10
16.0038
 20
-28.7986
 30
0.0
 40
0
 41
0
  0
VERTEX
  8
0
 10
15.9675
 20
-28.7853
 30
0.0
 40
0
 41
0
  0
VERTEX
  8
0
 10
15.8549
 20
-28.7546
 30
0.0
 40
0
 41
0
  0
VERTEX
  8
0
 10
15.7068
 20
-28.7317
 30
0.0
 40
0
 41
0
  0
VERTEX
  8
0
 10
15.5597
 20
-28.7282
 30
0.0
 40
0
 41
0
  0
VERTEX
  8
0
 10
15.4139
 20
-28.7425
 30
0.0
 40
0
 41
0
  0
VERTEX
  8
0
 10
15.2699
 20
-28.7729
 30
0.0
 40
0
 41
0
  0
VERTEX
  8
0
 10
15.1278
 20
-28.8178
 30
0.0
 40
0
 41
0
  0
VERTEX
  8
0
 10
14.9879
 20
-28.8753
 30
0.0
 40
0
 41
0
  0
VERTEX
  8
0
 10
14.8506
 20
-28.9437
 30
0.0
 40
0
 41
0
  0
VERTEX
  8
0
 10
14.7162
 20
-29.0215
 30
0.0
 40
0
 41
0
  0
VERTEX
  8
0
 10
14.5851
 20
-29.1068
 30
0.0
 40
0
 41
0
  0
VERTEX
  8
0
 10
14.4575
 20
-29.1981
 30
0.0
 40
0
 41
0
  0
VERTEX
  8
0
 10
14.3336
 20
-29.2935
 30
0.0
 40
0
 41
0
  0
VERTEX
  8
0
 10
14.214
 20
-29.3914
 30
0.0
 40
0
 41
0
  0
VERTEX
  8
0
 10
14.0987
 20
-29.49
 30
0.0
 40
0
 41
0
  0
VERTEX
  8
0
 10
13.9883
 20
-29.5878
 30
0.0
 40
0
 41
0
  0
VERTEX
  8
0
 10
13.9093
 20
-29.659
 30
0.0
 40
0
 41
0
  0
VERTEX
  8
0
 10
13.883
 20
-29.6829
 30
0.0
 40
0
 41
0
  0
VERTEX
  8
0
 10
13.754
 20
-29.7967
 30
0.0
 40
0
 41
0
  0
VERTEX
  8
0
 10
13.3879
 20
-30.1615
 30
0.0
 40
0
 41
0
  0
VERTEX
  8
0
 10
12.9309
 20
-30.6799
 30
0.0
 40
0
 41
0
  0
VERTEX
  8
0
 10
12.5037
 20
-31.2292
 30
0.0
 40
0
 41
0
  0
VERTEX
  8
0
 10
12.1972
 20
-31.6565
 30
0.0
 40
0
 41
0
  0
VERTEX
  8
0
 10
12.0981
 20
-31.8011
 30
0.0
 40
0
 41
0
  0
VERTEX
  8
0
 10
12.0318
 20
-31.8978
 30
0.0
 40
0
 41
0
  0
VERTEX
  8
0
 10
11.7181
 20
-32.3906
 30
0.0
 40
0
 41
0
  0
VERTEX
  8
0
 10
11.4044
 20
-32.8832
 30
0.0
 40
0
 41
0
  0
VERTEX
  8
0
 10
11.3382
 20
-32.98
 30
0.0
 40
0
 41
0
  0
VERTEX
  8
0
 10
11.289
 20
-33.0482
 30
0.0
 40
0
 41
0
  0
VERTEX
  8
0
 10
11.133
 20
-33.2468
 30
0.0
 40
0
 41
0
  0
VERTEX
  8
0
 10
10.9162
 20
-33.4981
 30
0.0
 40
0
 41
0
  0
VERTEX
  8
0
 10
10.6895
 20
-33.7389
 30
0.0
 40
0
 41
0
  0
VERTEX
  8
0
 10
10.5138
 20
-33.9162
 30
0.0
 40
0
 41
0
  0
VERTEX
  8
0
 10
10.4545
 20
-33.9746
 30
0.0
 40
0
 41
0
  0
VERTEX
  8
0
 10
10.3919
 20
-34.0382
 30
0.0
 40
0
 41
0
  0
VERTEX
  8
0
 10
10.2024
 20
-34.2274
 30
0.0
 40
0
 41
0
  0
VERTEX
  8
0
 10
9.94835
 20
-34.474
 30
0.0
 40
0
 41
0
  0
VERTEX
  8
0
 10
9.6906
 20
-34.7132
 30
0.0
 40
0
 41
0
  0
VERTEX
  8
0
 10
9.42725
 20
-34.9439
 30
0.0
 40
0
 41
0
  0
VERTEX
  8
0
 10
9.15647
 20
-35.1653
 30
0.0
 40
0
 41
0
  0
VERTEX
  8
0
 10
8.87636
 20
-35.376
 30
0.0
 40
0
 41
0
  0
VERTEX
  8
0
 10
8.58507
 20
-35.575
 30
0.0
 40
0
 41
0
  0
VERTEX
  8
0
 10
8.35796
 20
-35.7168
 30
0.0
 40
0
 41
0
  0
VERTEX
  8
0
 10
8.28076
 20
-35.7614
 30
0.0
 40
0
 41
0
  0
VERTEX
  8
0
 10
8.12819
 20
-35.8478
 30
0.0
 40
0
 41
0
  0
VERTEX
  8
0
 10
7.66465
 20
-36.0967
 30
0.0
 40
0
 41
0
  0
VERTEX
  8
0
 10
7.037
 20
-36.4129
 30
0.0
 40
0
 41
0
  0
VERTEX
  8
0
 10
6.39942
 20
-36.7119
 30
0.0
 40
0
 41
0
  0
VERTEX
  8
0
 10
5.91581
 20
-36.9264
 30
0.0
 40
0
 41
0
  0
VERTEX
  8
0
 10
5.75358
 20
-36.9954
 30
0.0
 40
0
 41
0
  0
VERTEX
  8
0
 10
5.60281
 20
-37.0569
 30
0.0
 40
0
 41
0
  0
VERTEX
  8
0
 10
5.15044
 20
-37.241
 30
0.0
 40
0
 41
0
  0
VERTEX
  8
0
 10
4.5606
 20
-37.495
 30
0.0
 40
0
 41
0
  0
VERTEX
  8
0
 10
3.98406
 20
-37.7803
 30
0.0
 40
0
 41
0
  0
VERTEX
  8
0
 10
3.55707
 20
-38.0276
 30
0.0
 40
0
 41
0
  0
VERTEX
  8
0
 10
3.42074
 20
-38.119
 30
0.0
 40
0
 41
0
  0
VERTEX
  8
0
 10
3.35969
 20
-38.1614
 30
0.0
 40
0
 41
0
  0
VERTEX
  8
0
 10
3.18197
 20
-38.2964
 30
0.0
 40
0
 41
0
  0
VERTEX
  8
0
 10
2.94575
 20
-38.4956
 30
0.0
 40
0
 41
0
  0
VERTEX
  8
0
 10
2.71615
 20
-38.7135
 30
0.0
 40
0
 41
0
  0
VERTEX
  8
0
 10
2.49729
 20
-38.9479
 30
0.0
 40
0
 41
0
  0
VERTEX
  8
0
 10
2.2934
 20
-39.1961
 30
0.0
 40
0
 41
0
  0
VERTEX
  8
0
 10
2.10851
 20
-39.4556
 30
0.0
 40
0
 41
0
  0
VERTEX
  8
0
 10
1.94683
 20
-39.7238
 30
0.0
 40
0
 41
0
  0
VERTEX
  8
0
 10
1.84272
 20
-39.9279
 30
0.0
 40
0
 41
0
  0
VERTEX
  8
0
 10
1.8125
 20
-39.9979
 30
0.0
 40
0
 41
0
  0
VERTEX
  8
0
 10
1.78174
 20
-40.0738
 30
0.0
 40
0
 41
0
  0
VERTEX
  8
0
 10
1.70654
 20
-40.3085
 30
0.0
 40
0
 41
0
  0
VERTEX
  8
0
 10
1.641
 20
-40.6175
 30
0.0
 40
0
 41
0
  0
VERTEX
  8
0
 10
1.61649
 20
-40.9236
 30
0.0
 40
0
 41
0
  0
VERTEX
  8
0
 10
1.63357
 20
-41.2251
 30
0.0
 40
0
 41
0
  0
VERTEX
  8
0
 10
1.69288
 20
-41.5206
 30
0.0
 40
0
 41
0
  0
VERTEX
  8
0
 10
1.79508
 20
-41.8085
 30
0.0
 40
0
 41
0
  0
VERTEX
  8
0
 10
1.94081
 20
-42.0874
 30
0.0
 40
0
 41
0
  0
VERTEX
  8
0
 10
2.0791
 20
-42.2918
 30
0.0
 40
0
 41
0
  0
VERTEX
  8
0
 10
2.13064
 20
-42.3556
 30
0.0
 40
0
 41
0
  0
VERTEX
  8
0
 10
2.18446
 20
-42.4219
 30
0.0
 40
0
 41
0
  0
VERTEX
  8
0
 10
2.35726
 20
-42.6117
 30
0.0
 40
0
 41
0
  0
VERTEX
  8
0
 10
2.59864
 20
-42.8438
 30
0.0
 40
0
 41
0
  0
VERTEX
  8
0
 10
2.85286
 20
-43.055
 30
0.0
 40
0
 41
0
  0
VERTEX
  8
0
 10
3.11806
 20
-43.249
 30
0.0
 40
0
 41
0
  0
VERTEX
  8
0
 10
3.39236
 20
-43.4292
 30
0.0
 40
0
 41
0
  0
VERTEX
  8
0
 10
3.67393
 20
-43.599
 30
0.0
 40
0
 41
0
  0
VERTEX
  8
0
 10
3.96089
 20
-43.7618
 30
0.0
 40
0
 41
0
  0
VERTEX
  8
0
 10
4.1786
 20
-43.8817
 30
0.0
 40
0
 41
0
  0
VERTEX
  8
0
 10
4.25136
 20
-43.9214
 30
0.0
 40
0
 41
0
  0
VERTEX
  8
0
 10
4.40289
 20
-44.0071
 30
0.0
 40
0
 41
0
  0
VERTEX
  8
0
 10
4.87571
 20
-44.2326
 30
0.0
 40
0
 41
0
  0
VERTEX
  8
0
 10
5.5216
 20
-44.4922
 30
0.0
 40
0
 41
0
  0
VERTEX
  8
0
 10
6.1774
 20
-44.7242
 30
0.0
 40
0
 41
0
  0
VERTEX
  8
0
 10
6.66868
 20
-44.8939
 30
0.0
 40
0
 41
0
  0
VERTEX
  8
0
 10
6.8316
 20
-44.9528
 30
0.0
 40
0
 41
0
  0
VERTEX
  8
0
 10
6.99354
 20
-45.0079
 30
0.0
 40
0
 41
0
  0
VERTEX
  8
0
 10
7.47885
 20
-45.1749
 30
0.0
 40
0
 41
0
  0
VERTEX
  8
0
 10
8.12608
 20
-45.3901
 30
0.0
 40
0
 41
0
  0
VERTEX
  8
0
 10
8.78
 20
-45.5849
 30
0.0
 40
0
 41
0
  0
VERTEX
  8
0
 10
9.27919
 20
-45.7106
 30
0.0
 40
0
 41
0
  0
VERTEX
  8
0
 10
9.44715
 20
-45.7449
 30
0.0
 40
0
 41
0
  0
VERTEX
  8
0
 10
9.52285
 20
-45.7606
 30
0.0
 40
0
 41
0
  0
VERTEX
  8
0
 10
9.75097
 20
-45.8028
 30
0.0
 40
0
 41
0
  0
VERTEX
  8
0
 10
10.0645
 20
-45.8513
 30
0.0
 40
0
 41
0
  0
VERTEX
  8
0
 10
10.3854
 20
-45.8885
 30
0.0
 40
0
 41
0
  0
VERTEX
  8
0
 10
10.7113
 20
-45.9126
 30
0.0
 40
0
 41
0
  0
VERTEX
  8
0
 10
11.0399
 20
-45.9219
 30
0.0
 40
0
 41
0
  0
VERTEX
  8
0
 10
11.3689
 20
-45.9149
 30
0.0
 40
0
 41
0
  0
VERTEX
  8
0
 10
11.6959
 20
-45.8894
 30
0.0
 40
0
 41
0
  0
VERTEX
  8
0
 10
12.0186
 20
-45.8439
 30
0.0
 40
0
 41
0
  0
VERTEX
  8
0
 10
12.3346
 20
-45.7765
 30
0.0
 40
0
 41
0
  0
VERTEX
  8
0
 10
12.6417
 20
-45.6857
 30
0.0
 40
0
 41
0
  0
VERTEX
  8
0
 10
12.9375
 20
-45.5694
 30
0.0
 40
0
 41
0
  0
VERTEX
  8
0
 10
13.2197
 20
-45.4262
 30
0.0
 40
0
 41
0
  0
VERTEX
  8
0
 10
13.486
 20
-45.2542
 30
0.0
 40
0
 41
0
  0
VERTEX
  8
0
 10
13.7339
 20
-45.0515
 30
0.0
 40
0
 41
0
  0
VERTEX
  8
0
 10
13.9613
 20
-44.8165
 30
0.0
 40
0
 41
0
  0
VERTEX
  8
0
 10
14.1187
 20
-44.6175
 30
0.0
 40
0
 41
0
  0
VERTEX
  8
0
 10
14.1658
 20
-44.5475
 30
0.0
 40
0
 41
0
  0
VERTEX
  8
0
 10
14.2153
 20
-44.4753
 30
0.0
 40
0
 41
0
  0
VERTEX
  8
0
 10
14.3551
 20
-44.2526
 30
0.0
 40
0
 41
0
  0
VERTEX
  8
0
 10
14.5272
 20
-43.9489
 30
0.0
 40
0
 41
0
  0
VERTEX
  8
0
 10
14.684
 20
-43.6374
 30
0.0
 40
0
 41
0
  0
VERTEX
  8
0
 10
14.8276
 20
-43.3192
 30
0.0
 40
0
 41
0
  0
VERTEX
  8
0
 10
14.9603
 20
-42.9953
 30
0.0
 40
0
 41
0
  0
VERTEX
  8
0
 10
15.0838
 20
-42.6669
 30
0.0
 40
0
 41
0
  0
VERTEX
  8
0
 10
15.2004
 20
-42.3351
 30
0.0
 40
0
 41
0
  0
VERTEX
  8
0
 10
15.3124
 20
-42.001
 30
0.0
 40
0
 41
0
  0
VERTEX
  8
0
 10
15.4215
 20
-41.6654
 30
0.0
 40
0
 41
0
  0
VERTEX
  8
0
 10
15.5301
 20
-41.3299
 30
0.0
 40
0
 41
0
  0
VERTEX
  8
0
 10
15.6401
 20
-40.995
 30
0.0
 40
0
 41
0
  0
VERTEX
  8
0
 10
15.7539
 20
-40.6621
 30
0.0
 40
0
 41
0
  0
VERTEX
  8
0
 10
15.8733
 20
-40.3322
 30
0.0
 40
0
 41
0
  0
VERTEX
  8
0
 10
16.0004
 20
-40.0064
 30
0.0
 40
0
 41
0
  0
VERTEX
  8
0
 10
16.1375
 20
-39.6858
 30
0.0
 40
0
 41
0
  0
VERTEX
  8
0
 10
16.2476
 20
-39.4493
 30
0.0
 40
0
 41
0
  0
VERTEX
  8
0
 10
16.2865
 20
-39.3715
 30
0.0
 40
0
 41
0
  0
VERTEX
  8
0
 10
16.3626
 20
-39.2199
 30
0.0
 40
0
 41
0
  0
VERTEX
  8
0
 10
16.6115
 20
-38.7753
 30
0.0
 40
0
 41
0
  0
VERTEX
  8
0
 10
16.9779
 20
-38.2065
 30
0.0
 40
0
 41
0
  0
VERTEX
  8
0
 10
17.3875
 20
-37.6724
 30
0.0
 40
0
 41
0
  0
VERTEX
  8
0
 10
17.7225
 20
-37.2969
 30
0.0
 40
0
 41
0
  0
VERTEX
  8
0
 10
17.8418
 20
-37.1796
 30
0.0
 40
0
 41
0
  0
VERTEX
  8
0
 10
17.8987
 20
-37.1237
 30
0.0
 40
0
 41
0
  0
VERTEX
  8
0
 10
18.0811
 20
-36.9678
 30
0.0
 40
0
 41
0
  0
VERTEX
  8
0
 10
18.3418
 20
-36.7692
 30
0.0
 40
0
 41
0
  0
VERTEX
  8
0
 10
18.6137
 20
-36.5768
 30
0.0
 40
0
 41
0
  0
VERTEX
  8
0
 10
18.8867
 20
-36.3829
 30
0.0
 40
0
 41
0
  0
VERTEX
  8
0
 10
19.1504
 20
-36.1806
 30
0.0
 40
0
 41
0
  0
VERTEX
  8
0
 10
19.395
 20
-35.9622
 30
0.0
 40
0
 41
0
  0
VERTEX
  8
0
 10
19.6101
 20
-35.7206
 30
0.0
 40
0
 41
0
  0
VERTEX
  8
0
 10
19.7482
 20
-35.5196
 30
0.0
 40
0
 41
0
  0
VERTEX
  8
0
 10
19.7857
 20
-35.4482
 30
0.0
 40
0
 41
0
  0
VERTEX
  8
0
 10
19.8054
 20
-35.4119
 30
0.0
 40
0
 41
0
  0
VERTEX
  8
0
 10
19.8478
 20
-35.294
 30
0.0
 40
0
 41
0
  0
VERTEX
  8
0
 10
19.8651
 20
-35.149
 30
0.0
 40
0
 41
0
  0
VERTEX
  8
0
 10
19.8422
 20
-35.0128
 30
0.0
 40
0
 41
0
  0
VERTEX
  8
0
 10
19.784
 20
-34.8849
 30
0.0
 40
0
 41
0
  0
VERTEX
  8
0
 10
19.6956
 20
-34.7653
 30
0.0
 40
0
 41
0
  0
VERTEX
  8
0
 10
19.5814
 20
-34.6533
 30
0.0
 40
0
 41
0
  0
VERTEX
  8
0
 10
19.4464
 20
-34.5488
 30
0.0
 40
0
 41
0
  0
VERTEX
  8
0
 10
19.2954
 20
-34.4513
 30
0.0
 40
0
 41
0
  0
VERTEX
  8
0
 10
19.1332
 20
-34.3604
 30
0.0
 40
0
 41
0
  0
VERTEX
  8
0
 10
18.9646
 20
-34.276
 30
0.0
 40
0
 41
0
  0
VERTEX
  8
0
 10
18.7944
 20
-34.1974
 30
0.0
 40
0
 41
0
  0
VERTEX
  8
0
 10
18.6276
 20
-34.1246
 30
0.0
 40
0
 41
0
  0
VERTEX
  8
0
 10
18.4689
 20
-34.0571
 30
0.0
 40
0
 41
0
  0
VERTEX
  8
0
 10
18.3229
 20
-33.9944
 30
0.0
 40
0
 41
0
  0
VERTEX
  8
0
 10
18.1949
 20
-33.9364
 30
0.0
 40
0
 41
0
  0
VERTEX
  8
0
 10
18.115
 20
-33.8969
 30
0.0
 40
0
 41
0
  0
VERTEX
  8
0
 10
18.0892
 20
-33.8826
 30
0.0
 40
0
 41
0
  0
VERTEX
  8
0
 10
18.0225
 20
-33.8443
 30
0.0
 40
0
 41
0
  0
VERTEX
  8
0
 10
17.8232
 20
-33.7283
 30
0.0
 40
0
 41
0
  0
VERTEX
  8
0
 10
17.5656
 20
-33.5601
 30
0.0
 40
0
 41
0
  0
VERTEX
  8
0
 10
17.3311
 20
-33.3644
 30
0.0
 40
0
 41
0
  0
VERTEX
  8
0
 10
17.1768
 20
-33.1913
 30
0.0
 40
0
 41
0
  0
VERTEX
  8
0
 10
17.1349
 20
-33.1274
 30
0.0
 40
0
 41
0
  0
VERTEX
  8
0
 10
17.0915
 20
-33.065
 30
0.0
 40
0
 41
0
  0
VERTEX
  8
0
 10
16.979
 20
-32.866
 30
0.0
 40
0
 41
0
  0
VERTEX
  8
0
 10
16.8565
 20
-32.5839
 30
0.0
 40
0
 41
0
  0
VERTEX
  8
0
 10
16.7671
 20
-32.2881
 30
0.0
 40
0
 41
0
  0
VERTEX
  8
0
 10
16.7207
 20
-32.0615
 30
0.0
 40
0
 41
0
  0
VERTEX
  8
0
 10
16.7107
 20
-31.9853
 30
0.0
 40
0
 41
0
  0
VERTEX
  8
0
 10
16.7074
 20
-31.9025
 30
0.0
 40
0
 41
0
  0
VERTEX
  8
0
 10
16.7149
 20
-31.6538
 30
0.0
 40
0
 41
0
  0
VERTEX
  8
0
 10
16.7438
 20
-31.3222
 30
0.0
 40
0
 41
0
  0
VERTEX
  8
0
 10
16.7828
 20
-30.9906
 30
0.0
 40
0
 41
0
  0
VERTEX
  8
0
 10
16.81
 20
-30.7421
 30
0.0
 40
0
 41
0
  0
VERTEX
  8
0
 10
16.8167
 20
-30.6592
 30
0.0
 40
0
 41
0
  0
VERTEX
  8
0
 10
16.8167
 20
-30.6399
 30
0.0
 40
0
 41
0
  0
VERTEX
  8
0
 10
16.8165
 20
-30.5822
 30
0.0
 40
0
 41
0
  0
VERTEX
  8
0
 10
16.816
 20
-30.5292
 30
0.0
 40
0
 41
0
  0
VERTEX
  8
0
 10
16.8153
 20
-30.4971
 30
0.0
 40
0
 41
0
  0
VERTEX
  8
0
 10
16.8143
 20
-30.4829
 30
0.0
 40
0
 41
0
  0
VERTEX
  8
0
 10
16.8132
 20
-30.4839
 30
0.0
 40
0
 41
0
  0
VERTEX
  8
0
 10
16.8121
 20
-30.4972
 30
0.0
 40
0
 41
0
  0
VERTEX
  8
0
 10
16.811
 20
-30.5197
 30
0.0
 40
0
 41
0
  0
VERTEX
  8
0
 10
16.81
 20
-30.5486
 30
0.0
 40
0
 41
0
  0
VERTEX
  8
0
 10
16.8093
 20
-30.5808
 30
0.0
 40
0
 41
0
  0
VERTEX
  8
0
 10
16.8089
 20
-30.6137
 30
0.0
 40
0
 41
0
  0
VERTEX
  8
0
 10
16.8089
 20
-30.6442
 30
0.0
 40
0
 41
0
  0
VERTEX
  8
0
 10
16.8093
 20
-30.6694
 30
0.0
 40
0
 41
0
  0
VERTEX
  8
0
 10
16.8101
 20
-30.6864
 30
0.0
 40
0
 41
0
  0
VERTEX
  8
0
 10
16.8117
 20
-30.6924
 30
0.0
 40
0
 41
0
  0
VERTEX
  8
0
 10
16.8137
 20
-30.6842
 30
0.0
 40
0
 41
0
  0
VERTEX
  8
0
 10
16.8161
 20
-30.6654
 30
0.0
 40
0
 41
0
  0
VERTEX
  8
0
 10
16.8167
 20
-30.6592
 30
0.0
 40
0
 41
0
  0
SEQEND
 8
0
  0
POLYLINE
  8
0
 62
     0
 66
     1
 10
0
 20
0
 30
0.0
 70
     1
 40
0
 41
0
  0
VERTEX
  8
0
 10
9.00538
 20
-8.55544
 30
0.0
 40
0
 41
0
  0
VERTEX
  8
0
 10
8.98801
 20
-8.55707
 30
0.0
 40
0
 41
0
  0
VERTEX
  8
0
 10
8.93961
 20
-8.6014
 30
0.0
 40
0
 41
0
  0
VERTEX
  8
0
 10
8.88715
 20
-8.71283
 30
0.0
 40
0
 41
0
  0
VERTEX
  8
0
 10
8.84625
 20
-8.87044
 30
0.0
 40
0
 41
0
  0
VERTEX
  8
0
 10
8.81532
 20
-9.05507
 30
0.0
 40
0
 41
0
  0
VERTEX
  8
0
 10
8.79269
 20
-9.2474
 30
0.0
 40
0
 41
0
  0
VERTEX
  8
0
 10
8.77669
 20
-9.42833
 30
0.0
 40
0
 41
0
  0
VERTEX
  8
0
 10
8.76563
 20
-9.57861
 30
0.0
 40
0
 41
0
  0
VERTEX
  8
0
 10
8.76031
 20
-9.65397
 30
0.0
 40
0
 41
0
  0
VERTEX
  8
0
 10
8.75792
 20
-9.67904
 30
0.0
 40
0
 41
0
  0
VERTEX
  8
0
 10
8.75347
 20
-9.79872
 30
0.0
 40
0
 41
0
  0
VERTEX
  8
0
 10
8.75125
 20
-10.3974
 30
0.0
 40
0
 41
0
  0
VERTEX
  8
0
 10
8.75792
 20
-10.9362
 30
0.0
 40
0
 41
0
  0
VERTEX
  8
0
 10
8.75792
 20
-11.1158
 30
0.0
 40
0
 41
0
  0
VERTEX
  8
0
 10
8.75792
 20
-11.2816
 30
0.0
 40
0
 41
0
  0
VERTEX
  8
0
 10
8.75347
 20
-11.7789
 30
0.0
 40
0
 41
0
  0
VERTEX
  8
0
 10
8.76676
 20
-12.3314
 30
0.0
 40
0
 41
0
  0
VERTEX
  8
0
 10
8.77561
 20
-12.442
 30
0.0
 40
0
 41
0
  0
VERTEX
  8
0
 10
8.78222
 20
-12.5321
 30
0.0
 40
0
 41
0
  0
VERTEX
  8
0
 10
8.82557
 20
-12.8008
 30
0.0
 40
0
 41
0
  0
VERTEX
  8
0
 10
8.91032
 20
-13.158
 30
0.0
 40
0
 41
0
  0
VERTEX
  8
0
 10
9.01167
 20
-13.5117
 30
0.0
 40
0
 41
0
  0
VERTEX
  8
0
 10
9.08783
 20
-13.7727
 30
0.0
 40
0
 41
0
  0
VERTEX
  8
0
 10
9.11139
 20
-13.8603
 30
0.0
 40
0
 41
0
  0
VERTEX
  8
0
 10
9.15381
 20
-14.0133
 30
0.0
 40
0
 41
0
  0
VERTEX
  8
0
 10
9.29525
 20
-14.4688
 30
0.0
 40
0
 41
0
  0
VERTEX
  8
0
 10
9.509
 20
-15.0531
 30
0.0
 40
0
 41
0
  0
VERTEX
  8
0
 10
9.76247
 20
-15.6165
 30
0.0
 40
0
 41
0
  0
VERTEX
  8
0
 10
9.98394
 20
-16.0299
 30
0.0
 40
0
 41
0
  0
VERTEX
  8
0
 10
10.0657
 20
-16.1628
 30
0.0
 40
0
 41
0
  0
VERTEX
  8
0
 10
10.1469
 20
-16.2914
 30
0.0
 40
0
 41
0
  0
VERTEX
  8
0
 10
10.4111
 20
-16.6642
 30
0.0
 40
0
 41
0
  0
VERTEX
  8
0
 10
10.7881
 20
-17.1206
 30
0.0
 40
0
 41
0
  0
VERTEX
  8
0
 10
11.2014
 20
-17.5356
 30
0.0
 40
0
 41
0
  0
VERTEX
  8
0
 10
11.5384
 20
-17.8239
 30
0.0
 40
0
 41
0
  0
VERTEX
  8
0
 10
11.6563
 20
-17.9126
 30
0.0
 40
0
 41
0
  0
VERTEX
  8
0
 10
11.719
 20
-17.9608
 30
0.0
 40
0
 41
0
  0
VERTEX
  8
0
 10
11.9167
 20
-18.0936
 30
0.0
 40
0
 41
0
  0
VERTEX
  8
0
 10
12.1925
 20
-18.2514
 30
0.0
 40
0
 41
0
  0
VERTEX
  8
0
 10
12.4807
 20
-18.3889
 30
0.0
 40
0
 41
0
  0
VERTEX
  8
0
 10
12.7785
 20
-18.509
 30
0.0
 40
0
 41
0
  0
VERTEX
  8
0
 10
13.0828
 20
-18.6143
 30
0.0
 40
0
 41
0
  0
VERTEX
  8
0
 10
13.3909
 20
-18.7078
 30
0.0
 40
0
 41
0
  0
VERTEX
  8
0
 10
13.6999
 20
-18.7922
 30
0.0
 40
0
 41
0
  0
VERTEX
  8
0
 10
13.93
 20
-18.8513
 30
0.0
 40
0
 41
0
  0
VERTEX
  8
0
 10
14.0068
 20
-18.8704
 30
0.0
 40
0
 41
0
  0
VERTEX
  8
0
 10
14.0864
 20
-18.889
 30
0.0
 40
0
 41
0
  0
VERTEX
  8
0
 10
14.3306
 20
-18.9233
 30
0.0
 40
0
 41
0
  0
VERTEX
  8
0
 10
14.6526
 20
-18.9346
 30
0.0
 40
0
 41
0
  0
VERTEX
  8
0
 10
14.9725
 20
-18.911
 30
0.0
 40
0
 41
0
  0
VERTEX
  8
0
 10
15.2901
 20
-18.8589
 30
0.0
 40
0
 41
0
  0
VERTEX
  8
0
 10
15.6054
 20
-18.7853
 30
0.0
 40
0
 41
0
  0
VERTEX
  8
0
 10
15.9179
 20
-18.6969
 30
0.0
 40
0
 41
0
  0
VERTEX
  8
0
 10
16.2275
 20
-18.6001
 30
0.0
 40
0
 41
0
  0
VERTEX
  8
0
 10
16.4572
 20
-18.5264
 30
0.0
 40
0
 41
0
  0
VERTEX
  8
0
 10
16.534
 20
-18.5021
 30
0.0
 40
0
 41
0
  0
VERTEX
  8
0
 10
16.609
 20
-18.4789
 30
0.0
 40
0
 41
0
  0
VERTEX
  8
0
 10
16.8308
 20
-18.3987
 30
0.0
 40
0
 41
0
  0
VERTEX
  8
0
 10
17.1186
 20
-18.2763
 30
0.0
 40
0
 41
0
  0
VERTEX
  8
0
 10
17.3967
 20
-18.1354
 30
0.0
 40
0
 41
0
  0
VERTEX
  8
0
 10
17.665
 20
-17.9771
 30
0.0
 40
0
 41
0
  0
VERTEX
  8
0
 10
17.9235
 20
-17.8024
 30
0.0
 40
0
 41
0
  0
VERTEX
  8
0
 10
18.1717
 20
-17.6122
 30
0.0
 40
0
 41
0
  0
VERTEX
  8
0
 10
18.4096
 20
-17.4078
 30
0.0
 40
0
 41
0
  0
VERTEX
  8
0
 10
18.6369
 20
-17.1896
 30
0.0
 40
0
 41
0
  0
VERTEX
  8
0
 10
18.8536
 20
-16.959
 30
0.0
 40
0
 41
0
  0
VERTEX
  8
0
 10
19.0592
 20
-16.7169
 30
0.0
 40
0
 41
0
  0
VERTEX
  8
0
 10
19.2536
 20
-16.4642
 30
0.0
 40
0
 41
0
  0
VERTEX
  8
0
 10
19.4367
 20
-16.2019
 30
0.0
 40
0
 41
0
  0
VERTEX
  8
0
 10
19.6082
 20
-15.931
 30
0.0
 40
0
 41
0
  0
VERTEX
  8
0
 10
19.7678
 20
-15.6522
 30
0.0
 40
0
 41
0
  0
VERTEX
  8
0
 10
19.9154
 20
-15.3671
 30
0.0
 40
0
 41
0
  0
VERTEX
  8
0
 10
20.0185
 20
-15.1494
 30
0.0
 40
0
 41
0
  0
VERTEX
  8
0
 10
20.0508
 20
-15.076
 30
0.0
 40
0
 41
0
  0
VERTEX
  8
0
 10
20.0869
 20
-14.9921
 30
0.0
 40
0
 41
0
  0
VERTEX
  8
0
 10
20.1831
 20
-14.735
 30
0.0
 40
0
 41
0
  0
VERTEX
  8
0
 10
20.29
 20
-14.3893
 30
0.0
 40
0
 41
0
  0
VERTEX
  8
0
 10
20.3744
 20
-14.0392
 30
0.0
 40
0
 41
0
  0
VERTEX
  8
0
 10
20.4396
 20
-13.6853
 30
0.0
 40
0
 41
0
  0
VERTEX
  8
0
 10
20.4882
 20
-13.3279
 30
0.0
 40
0
 41
0
  0
VERTEX
  8
0
 10
20.5231
 20
-12.9675
 30
0.0
 40
0
 41
0
  0
VERTEX
  8
0
 10
20.5471
 20
-12.6045
 30
0.0
 40
0
 41
0
  0
VERTEX
  8
0
 10
20.56
 20
-12.3307
 30
0.0
 40
0
 41
0
  0
VERTEX
  8
0
 10
20.5633
 20
-12.2394
 30
0.0
 40
0
 41
0
  0
VERTEX
  8
0
 10
20.5678
 20
-12.1058
 30
0.0
 40
0
 41
0
  0
VERTEX
  8
0
 10
20.57
 20
-11.4404
 30
0.0
 40
0
 41
0
  0
VERTEX
  8
0
 10
20.5633
 20
-10.8515
 30
0.0
 40
0
 41
0
  0
VERTEX
  8
0
 10
20.5633
 20
-10.6553
 30
0.0
 40
0
 41
0
  0
VERTEX
  8
0
 10
20.5633
 20
-10.5537
 30
0.0
 40
0
 41
0
  0
VERTEX
  8
0
 10
20.5731
 20
-10.2491
 30
0.0
 40
0
 41
0
  0
VERTEX
  8
0
 10
20.5876
 20
-9.83789
 30
0.0
 40
0
 41
0
  0
VERTEX
  8
0
 10
20.5857
 20
-9.43007
 30
0.0
 40
0
 41
0
  0
VERTEX
  8
0
 10
20.5624
 20
-9.13211
 30
0.0
 40
0
 41
0
  0
VERTEX
  8
0
 10
20.5457
 20
-9.03435
 30
0.0
 40
0
 41
0
  0
VERTEX
  8
0
 10
20.506
 20
-9.04357
 30
0.0
 40
0
 41
0
  0
VERTEX
  8
0
 10
20.316
 20
-9.09651
 30
0.0
 40
0
 41
0
  0
VERTEX
  8
0
 10
20.126
 20
-9.14025
 30
0.0
 40
0
 41
0
  0
VERTEX
  8
0
 10
20.0862
 20
-9.14486
 30
0.0
 40
0
 41
0
  0
VERTEX
  8
0
 10
20.0608
 20
-9.14817
 30
0.0
 40
0
 41
0
  0
VERTEX
  8
0
 10
19.9829
 20
-9.14686
 30
0.0
 40
0
 41
0
  0
VERTEX
  8
0
 10
19.8829
 20
-9.13336
 30
0.0
 40
0
 41
0
  0
VERTEX
  8
0
 10
19.7831
 20
-9.11632
 30
0.0
 40
0
 41
0
  0
VERTEX
  8
0
 10
19.7056
 20
-9.10801
 30
0.0
 40
0
 41
0
  0
VERTEX
  8
0
 10
19.6797
 20
-9.10801
 30
0.0
 40
0
 41
0
  0
VERTEX
  8
0
 10
19.654
 20
-9.10801
 30
0.0
 40
0
 41
0
  0
VERTEX
  8
0
 10
19.5772
 20
-9.12349
 30
0.0
 40
0
 41
0
  0
VERTEX
  8
0
 10
19.4931
 20
-9.16639
 30
0.0
 40
0
 41
0
  0
VERTEX
  8
0
 10
19.4238
 20
-9.23133
 30
0.0
 40
0
 41
0
  0
VERTEX
  8
0
 10
19.366
 20
-9.31293
 30
0.0
 40
0
 41
0
  0
VERTEX
  8
0
 10
19.3165
 20
-9.40571
 30
0.0
 40
0
 41
0
  0
VERTEX
  8
0
 10
19.2721
 20
-9.50429
 30
0.0
 40
0
 41
0
  0
VERTEX
  8
0
 10
19.2293
 20
-9.60335
 30
0.0
 40
0
 41
0
  0
VERTEX
  8
0
 10
19.1968
 20
-9.67432
 30
0.0
 40
0
 41
0
  0
VERTEX
  8
0
 10
19.1849
 20
-9.69743
 30
0.0
 40
0
 41
0
  0
VERTEX
  8
0
 10
19.1451
 20
-9.78033
 30
0.0
 40
0
 41
0
  0
VERTEX
  8
0
 10
18.7475
 20
-10.623
 30
0.0
 40
0
 41
0
  0
VERTEX
  8
0
 10
18.7078
 20
-10.7106
 30
0.0
 40
0
 41
0
  0
VERTEX
  8
0
 10
18.6758
 20
-10.7732
 30
0.0
 40
0
 41
0
  0
VERTEX
  8
0
 10
18.5732
 20
-10.9575
 30
0.0
 40
0
 41
0
  0
VERTEX
  8
0
 10
18.4271
 20
-11.2217
 30
0.0
 40
0
 41
0
  0
VERTEX
  8
0
 10
18.2976
 20
-11.4928
 30
0.0
 40
0
 41
0
  0
VERTEX
  8
0
 10
18.2267
 20
-11.6921
 30
0.0
 40
0
 41
0
  0
VERTEX
  8
0
 10
18.2129
 20
-11.7605
 30
0.0
 40
0
 41
0
  0
VERTEX
  8
0
 10
18.2081
 20
-11.7842
 30
0.0
 40
0
 41
0
  0
VERTEX
  8
0
 10
18.2057
 20
-11.8579
 30
0.0
 40
0
 41
0
  0
VERTEX
  8
0
 10
18.2181
 20
-11.9564
 30
0.0
 40
0
 41
0
  0
VERTEX
  8
0
 10
18.2418
 20
-12.0554
 30
0.0
 40
0
 41
0
  0
VERTEX
  8
0
 10
18.2681
 20
-12.1542
 30
0.0
 40
0
 41
0
  0
VERTEX
  8
0
 10
18.2886
 20
-12.2521
 30
0.0
 40
0
 41
0
  0
VERTEX
  8
0
 10
18.2949
 20
-12.3485
 30
0.0
 40
0
 41
0
  0
VERTEX
  8
0
 10
18.2783
 20
-12.4427
 30
0.0
 40
0
 41
0
  0
VERTEX
  8
0
 10
18.2457
 20
-12.5136
 30
0.0
 40
0
 41
0
  0
VERTEX
  8
0
 10
18.2306
 20
-12.5341
 30
0.0
 40
0
 41
0
  0
VERTEX
  8
0
 10
18.2162
 20
-12.552
 30
0.0
 40
0
 41
0
  0
VERTEX
  8
0
 10
18.161
 20
-12.596
 30
0.0
 40
0
 41
0
  0
VERTEX
  8
0
 10
18.0847
 20
-12.6285
 30
0.0
 40
0
 41
0
  0
VERTEX
  8
0
 10
18.0019
 20
-12.6507
 30
0.0
 40
0
 41
0
  0
VERTEX
  8
0
 10
17.9339
 20
-12.6718
 30
0.0
 40
0
 41
0
  0
VERTEX
  8
0
 10
17.9125
 20
-12.6814
 30
0.0
 40
0
 41
0
  0
VERTEX
  8
0
 10
17.8839
 20
-12.6933
 30
0.0
 40
0
 41
0
  0
VERTEX
  8
0
 10
17.8036
 20
-12.741
 30
0.0
 40
0
 41
0
  0
VERTEX
  8
0
 10
17.7313
 20
-12.8127
 30
0.0
 40
0
 41
0
  0
VERTEX
  8
0
 10
17.6789
 20
-12.9016
 30
0.0
 40
0
 41
0
  0
VERTEX
  8
0
 10
17.6417
 20
-12.985
 30
0.0
 40
0
 41
0
  0
VERTEX
  8
0
 10
17.6297
 20
-13.013
 30
0.0
 40
0
 41
0
  0
VERTEX
  8
0
 10
17.5987
 20
-13.0913
 30
0.0
 40
0
 41
0
  0
VERTEX
  8
0
 10
17.4419
 20
-13.4942
 30
0.0
 40
0
 41
0
  0
VERTEX
  8
0
 10
17.2763
 20
-13.9064
 30
0.0
 40
0
 41
0
  0
VERTEX
  8
0
 10
17.2408
 20
-13.9893
 30
0.0
 40
0
 41
0
  0
VERTEX
  8
0
 10
17.2171
 20
-14.0496
 30
0.0
 40
0
 41
0
  0
VERTEX
  8
0
 10
17.15
 20
-14.2324
 30
0.0
 40
0
 41
0
  0
VERTEX
  8
0
 10
17.0575
 20
-14.4843
 30
0.0
 40
0
 41
0
  0
VERTEX
  8
0
 10
16.9551
 20
-14.7326
 30
0.0
 40
0
 41
0
  0
VERTEX
  8
0
 10
16.8681
 20
-14.9093
 30
0.0
 40
0
 41
0
  0
VERTEX
  8
0
 10
16.8344
 20
-14.9656
 30
0.0
 40
0
 41
0
  0
VERTEX
  8
0
 10
16.8203
 20
-14.9889
 30
0.0
 40
0
 41
0
  0
VERTEX
  8
0
 10
16.7683
 20
-15.0536
 30
0.0
 40
0
 41
0
  0
VERTEX
  8
0
 10
16.7038
 20
-15.1001
 30
0.0
 40
0
 41
0
  0
VERTEX
  8
0
 10
16.6421
 20
-15.1106
 30
0.0
 40
0
 41
0
  0
VERTEX
  8
0
 10
16.5847
 20
-15.0897
 30
0.0
 40
0
 41
0
  0
VERTEX
  8
0
 10
16.5332
 20
-15.0432
 30
0.0
 40
0
 41
0
  0
VERTEX
  8
0
 10
16.4889
 20
-14.9758
 30
0.0
 40
0
 41
0
  0
VERTEX
  8
0
 10
16.4533
 20
-14.8929
 30
0.0
 40
0
 41
0
  0
VERTEX
  8
0
 10
16.4328
 20
-14.8233
 30
0.0
 40
0
 41
0
  0
VERTEX
  8
0
 10
16.4279
 20
-14.7997
 30
0.0
 40
0
 41
0
  0
VERTEX
  8
0
 10
16.4143
 20
-14.7358
 30
0.0
 40
0
 41
0
  0
VERTEX
  8
0
 10
16.3812
 20
-14.5424
 30
0.0
 40
0
 41
0
  0
VERTEX
  8
0
 10
16.3463
 20
-14.2747
 30
0.0
 40
0
 41
0
  0
VERTEX
  8
0
 10
16.321
 20
-14.0071
 30
0.0
 40
0
 41
0
  0
VERTEX
  8
0
 10
16.3076
 20
-13.8141
 30
0.0
 40
0
 41
0
  0
VERTEX
  8
0
 10
16.3042
 20
-13.7498
 30
0.0
 40
0
 41
0
  0
VERTEX
  8
0
 10
16.3011
 20
-13.6874
 30
0.0
 40
0
 41
0
  0
VERTEX
  8
0
 10
16.3192
 20
-13.4991
 30
0.0
 40
0
 41
0
  0
VERTEX
  8
0
 10
16.3704
 20
-13.2639
 30
0.0
 40
0
 41
0
  0
VERTEX
  8
0
 10
16.4285
 20
-13.0322
 30
0.0
 40
0
 41
0
  0
VERTEX
  8
0
 10
16.46
 20
-12.8523
 30
0.0
 40
0
 41
0
  0
VERTEX
  8
0
 10
16.4633
 20
-12.7919
 30
0.0
 40
0
 41
0
  0
VERTEX
  8
0
 10
16.4647
 20
-12.7665
 30
0.0
 40
0
 41
0
  0
VERTEX
  8
0
 10
16.4519
 20
-12.6892
 30
0.0
 40
0
 41
0
  0
VERTEX
  8
0
 10
16.4092
 20
-12.6129
 30
0.0
 40
0
 41
0
  0
VERTEX
  8
0
 10
16.3415
 20
-12.5582
 30
0.0
 40
0
 41
0
  0
VERTEX
  8
0
 10
16.2556
 20
-12.5202
 30
0.0
 40
0
 41
0
  0
VERTEX
  8
0
 10
16.1581
 20
-12.4944
 30
0.0
 40
0
 41
0
  0
VERTEX
  8
0
 10
16.0557
 20
-12.4759
 30
0.0
 40
0
 41
0
  0
VERTEX
  8
0
 10
15.9549
 20
-12.46
 30
0.0
 40
0
 41
0
  0
VERTEX
  8
0
 10
15.8853
 20
-12.4475
 30
0.0
 40
0
 41
0
  0
VERTEX
  8
0
 10
15.8624
 20
-12.442
 30
0.0
 40
0
 41
0
  0
VERTEX
  8
0
 10
15.8018
 20
-12.428
 30
0.0
 40
0
 41
0
  0
VERTEX
  8
0
 10
15.621
 20
-12.3816
 30
0.0
 40
0
 41
0
  0
VERTEX
  8
0
 10
15.3764
 20
-12.3177
 30
0.0
 40
0
 41
0
  0
VERTEX
  8
0
 10
15.1317
 20
-12.2607
 30
0.0
 40
0
 41
0
  0
VERTEX
  8
0
 10
14.9511
 20
-12.228
 30
0.0
 40
0
 41
0
  0
VERTEX
  8
0
 10
14.8904
 20
-12.221
 30
0.0
 40
0
 41
0
  0
VERTEX
  8
0
 10
14.8633
 20
-12.2178
 30
0.0
 40
0
 41
0
  0
VERTEX
  8
0
 10
14.7799
 20
-12.2267
 30
0.0
 40
0
 41
0
  0
VERTEX
  8
0
 10
14.6853
 20
-12.2667
 30
0.0
 40
0
 41
0
  0
VERTEX
  8
0
 10
14.6043
 20
-12.3339
 30
0.0
 40
0
 41
0
  0
VERTEX
  8
0
 10
14.5347
 20
-12.4213
 30
0.0
 40
0
 41
0
  0
VERTEX
  8
0
 10
14.4743
 20
-12.5215
 30
0.0
 40
0
 41
0
  0
VERTEX
  8
0
 10
14.4207
 20
-12.6276
 30
0.0
 40
0
 41
0
  0
VERTEX
  8
0
 10
14.3717
 20
-12.7324
 30
0.0
 40
0
 41
0
  0
VERTEX
  8
0
 10
14.3371
 20
-12.805
 30
0.0
 40
0
 41
0
  0
VERTEX
  8
0
 10
14.3249
 20
-12.8288
 30
0.0
 40
0
 41
0
  0
VERTEX
  8
0
 10
14.2614
 20
-12.9506
 30
0.0
 40
0
 41
0
  0
VERTEX
  8
0
 10
14.0818
 20
-13.3215
 30
0.0
 40
0
 41
0
  0
VERTEX
  8
0
 10
13.8521
 20
-13.8281
 30
0.0
 40
0
 41
0
  0
VERTEX
  8
0
 10
13.629
 20
-14.3415
 30
0.0
 40
0
 41
0
  0
VERTEX
  8
0
 10
13.4623
 20
-14.7269
 30
0.0
 40
0
 41
0
  0
VERTEX
  8
0
 10
13.4059
 20
-14.855
 30
0.0
 40
0
 41
0
  0
VERTEX
  8
0
 10
13.3705
 20
-14.9378
 30
0.0
 40
0
 41
0
  0
VERTEX
  8
0
 10
13.017
 20
-15.7483
 30
0.0
 40
0
 41
0
  0
VERTEX
  8
0
 10
12.9817
 20
-15.8312
 30
0.0
 40
0
 41
0
  0
VERTEX
  8
0
 10
12.9693
 20
-15.8571
 30
0.0
 40
0
 41
0
  0
VERTEX
  8
0
 10
12.9358
 20
-15.9364
 30
0.0
 40
0
 41
0
  0
VERTEX
  8
0
 10
12.8895
 20
-16.0546
 30
0.0
 40
0
 41
0
  0
VERTEX
  8
0
 10
12.8407
 20
-16.1796
 30
0.0
 40
0
 41
0
  0
VERTEX
  8
0
 10
12.7873
 20
-16.3056
 30
0.0
 40
0
 41
0
  0
VERTEX
  8
0
 10
12.7273
 20
-16.4262
 30
0.0
 40
0
 41
0
  0
VERTEX
  8
0
 10
12.6586
 20
-16.5357
 30
0.0
 40
0
 41
0
  0
VERTEX
  8
0
 10
12.5792
 20
-16.6279
 30
0.0
 40
0
 41
0
  0
VERTEX
  8
0
 10
12.5118
 20
-16.6831
 30
0.0
 40
0
 41
0
  0
VERTEX
  8
0
 10
12.4869
 20
-16.6969
 30
0.0
 40
0
 41
0
  0
VERTEX
  8
0
 10
12.4678
 20
-16.7068
 30
0.0
 40
0
 41
0
  0
VERTEX
  8
0
 10
12.4052
 20
-16.7267
 30
0.0
 40
0
 41
0
  0
VERTEX
  8
0
 10
12.3209
 20
-16.7349
 30
0.0
 40
0
 41
0
  0
VERTEX
  8
0
 10
12.2362
 20
-16.7242
 30
0.0
 40
0
 41
0
  0
VERTEX
  8
0
 10
12.1533
 20
-16.6969
 30
0.0
 40
0
 41
0
  0
VERTEX
  8
0
 10
12.0745
 20
-16.656
 30
0.0
 40
0
 41
0
  0
VERTEX
  8
0
 10
12.0022
 20
-16.6036
 30
0.0
 40
0
 41
0
  0
VERTEX
  8
0
 10
11.9386
 20
-16.5428
 30
0.0
 40
0
 41
0
  0
VERTEX
  8
0
 10
11.8978
 20
-16.4935
 30
0.0
 40
0
 41
0
  0
VERTEX
  8
0
 10
11.886
 20
-16.476
 30
0.0
 40
0
 41
0
  0
VERTEX
  8
0
 10
11.8698
 20
-16.4483
 30
0.0
 40
0
 41
0
  0
VERTEX
  8
0
 10
11.8373
 20
-16.3564
 30
0.0
 40
0
 41
0
  0
VERTEX
  8
0
 10
11.8311
 20
-16.2457
 30
0.0
 40
0
 41
0
  0
VERTEX
  8
0
 10
11.8583
 20
-16.1418
 30
0.0
 40
0
 41
0
  0
VERTEX
  8
0
 10
11.9103
 20
-16.0431
 30
0.0
 40
0
 41
0
  0
VERTEX
  8
0
 10
11.978
 20
-15.9478
 30
0.0
 40
0
 41
0
  0
VERTEX
  8
0
 10
12.0525
 20
-15.8542
 30
0.0
 40
0
 41
0
  0
VERTEX
  8
0
 10
12.1249
 20
-15.7607
 30
0.0
 40
0
 41
0
  0
VERTEX
  8
0
 10
12.1728
 20
-15.6903
 30
0.0
 40
0
 41
0
  0
VERTEX
  8
0
 10
12.1865
 20
-15.6654
 30
0.0
 40
0
 41
0
  0
VERTEX
  8
0
 10
12.2196
 20
-15.6101
 30
0.0
 40
0
 41
0
  0
VERTEX
  8
0
 10
12.3044
 20
-15.4354
 30
0.0
 40
0
 41
0
  0
VERTEX
  8
0
 10
12.4007
 20
-15.1935
 30
0.0
 40
0
 41
0
  0
VERTEX
  8
0
 10
12.4871
 20
-14.9479
 30
0.0
 40
0
 41
0
  0
VERTEX
  8
0
 10
12.5518
 20
-14.7671
 30
0.0
 40
0
 41
0
  0
VERTEX
  8
0
 10
12.5753
 20
-14.7076
 30
0.0
 40
0
 41
0
  0
VERTEX
  8
0
 10
12.6062
 20
-14.6201
 30
0.0
 40
0
 41
0
  0
VERTEX
  8
0
 10
12.7917
 20
-14.1826
 30
0.0
 40
0
 41
0
  0
VERTEX
  8
0
 10
12.995
 20
-13.7452
 30
0.0
 40
0
 41
0
  0
VERTEX
  8
0
 10
13.0348
 20
-13.6577
 30
0.0
 40
0
 41
0
  0
VERTEX
  8
0
 10
13.0745
 20
-13.5748
 30
0.0
 40
0
 41
0
  0
VERTEX
  8
0
 10
13.2755
 20
-13.1512
 30
0.0
 40
0
 41
0
  0
VERTEX
  8
0
 10
13.4853
 20
-12.7275
 30
0.0
 40
0
 41
0
  0
VERTEX
  8
0
 10
13.5296
 20
-12.6446
 30
0.0
 40
0
 41
0
  0
VERTEX
  8
0
 10
13.5406
 20
-12.6235
 30
0.0
 40
0
 41
0
  0
VERTEX
  8
0
 10
13.5762
 20
-12.5615
 30
0.0
 40
0
 41
0
  0
VERTEX
  8
0
 10
13.6306
 20
-12.4673
 30
0.0
 40
0
 41
0
  0
VERTEX
  8
0
 10
13.6842
 20
-12.3662
 30
0.0
 40
0
 41
0
  0
VERTEX
  8
0
 10
13.7284
 20
-12.2624
 30
0.0
 40
0
 41
0
  0
VERTEX
  8
0
 10
13.7543
 20
-12.1604
 30
0.0
 40
0
 41
0
  0
VERTEX
  8
0
 10
13.7533
 20
-12.0644
 30
0.0
 40
0
 41
0
  0
VERTEX
  8
0
 10
13.7166
 20
-11.9787
 30
0.0
 40
0
 41
0
  0
VERTEX
  8
0
 10
13.6584
 20
-11.9212
 30
0.0
 40
0
 41
0
  0
VERTEX
  8
0
 10
13.6356
 20
-11.9078
 30
0.0
 40
0
 41
0
  0
VERTEX
  8
0
 10
13.5909
 20
-11.8828
 30
0.0
 40
0
 41
0
  0
VERTEX
  8
0
 10
13.4465
 20
-11.8261
 30
0.0
 40
0
 41
0
  0
VERTEX
  8
0
 10
13.2357
 20
-11.765
 30
0.0
 40
0
 41
0
  0
VERTEX
  8
0
 10
13.0217
 20
-11.7109
 30
0.0
 40
0
 41
0
  0
VERTEX
  8
0
 10
12.8714
 20
-11.6681
 30
0.0
 40
0
 41
0
  0
VERTEX
  8
0
 10
12.8227
 20
-11.65
 30
0.0
 40
0
 41
0
  0
VERTEX
  8
0
 10
12.8019
 20
-11.6427
 30
0.0
 40
0
 41
0
  0
VERTEX
  8
0
 10
12.7409
 20
-11.6173
 30
0.0
 40
0
 41
0
  0
VERTEX
  8
0
 10
12.6559
 20
-11.5791
 30
0.0
 40
0
 41
0
  0
VERTEX
  8
0
 10
12.5692
 20
-11.5418
 30
0.0
 40
0
 41
0
  0
VERTEX
  8
0
 10
12.4825
 20
-11.5118
 30
0.0
 40
0
 41
0
  0
VERTEX
  8
0
 10
12.3974
 20
-11.4956
 30
0.0
 40
0
 41
0
  0
VERTEX
  8
0
 10
12.3157
 20
-11.4997
 30
0.0
 40
0
 41
0
  0
VERTEX
  8
0
 10
12.2389
 20
-11.5305
 30
0.0
 40
0
 41
0
  0
VERTEX
  8
0
 10
12.1834
 20
-11.5763
 30
0.0
 40
0
 41
0
  0
VERTEX
  8
0
 10
12.1688
 20
-11.5947
 30
0.0
 40
0
 41
0
  0
VERTEX
  8
0
 10
12.1336
 20
-11.635
 30
0.0
 40
0
 41
0
  0
VERTEX
  8
0
 10
12.0514
 20
-11.7763
 30
0.0
 40
0
 41
0
  0
VERTEX
  8
0
 10
11.9589
 20
-11.9976
 30
0.0
 40
0
 41
0
  0
VERTEX
  8
0
 10
11.883
 20
-12.2293
 30
0.0
 40
0
 41
0
  0
VERTEX
  8
0
 10
11.8334
 20
-12.3892
 30
0.0
 40
0
 41
0
  0
VERTEX
  8
0
 10
11.8153
 20
-12.442
 30
0.0
 40
0
 41
0
  0
VERTEX
  8
0
 10
11.7799
 20
-12.5295
 30
0.0
 40
0
 41
0
  0
VERTEX
  8
0
 10
11.6253
 20
-12.9785
 30
0.0
 40
0
 41
0
  0
VERTEX
  8
0
 10
11.4883
 20
-13.4366
 30
0.0
 40
0
 41
0
  0
VERTEX
  8
0
 10
11.4619
 20
-13.5288
 30
0.0
 40
0
 41
0
  0
VERTEX
  8
0
 10
11.4255
 20
-13.6564
 30
0.0
 40
0
 41
0
  0
VERTEX
  8
0
 10
11.3304
 20
-14.0433
 30
0.0
 40
0
 41
0
  0
VERTEX
  8
0
 10
11.2321
 20
-14.5649
 30
0.0
 40
0
 41
0
  0
VERTEX
  8
0
 10
11.1736
 20
-15.0932
 30
0.0
 40
0
 41
0
  0
VERTEX
  8
0
 10
11.1582
 20
-15.4949
 30
0.0
 40
0
 41
0
  0
VERTEX
  8
0
 10
11.1615
 20
-15.6286
 30
0.0
 40
0
 41
0
  0
VERTEX
  8
0
 10
11.1615
 20
-15.6999
 30
0.0
 40
0
 41
0
  0
VERTEX
  8
0
 10
11.1725
 20
-15.914
 30
0.0
 40
0
 41
0
  0
VERTEX
  8
0
 10
11.1923
 20
-16.1536
 30
0.0
 40
0
 41
0
  0
VERTEX
  8
0
 10
11.1968
 20
-16.1997
 30
0.0
 40
0
 41
0
  0
VERTEX
  8
0
 10
11.201
 20
-16.2214
 30
0.0
 40
0
 41
0
  0
VERTEX
  8
0
 10
11.2174
 20
-16.286
 30
0.0
 40
0
 41
0
  0
VERTEX
  8
0
 10
11.2432
 20
-16.3931
 30
0.0
 40
0
 41
0
  0
VERTEX
  8
0
 10
11.2589
 20
-16.5
 30
0.0
 40
0
 41
0
  0
VERTEX
  8
0
 10
11.2573
 20
-16.5668
 30
0.0
 40
0
 41
0
  0
VERTEX
  8
0
 10
11.2498
 20
-16.5864
 30
0.0
 40
0
 41
0
  0
VERTEX
  8
0
 10
11.241
 20
-16.6074
 30
0.0
 40
0
 41
0
  0
VERTEX
  8
0
 10
11.1936
 20
-16.6612
 30
0.0
 40
0
 41
0
  0
VERTEX
  8
0
 10
11.1219
 20
-16.6744
 30
0.0
 40
0
 41
0
  0
VERTEX
  8
0
 10
11.0407
 20
-16.6401
 30
0.0
 40
0
 41
0
  0
VERTEX
  8
0
 10
10.9559
 20
-16.5726
 30
0.0
 40
0
 41
0
  0
VERTEX
  8
0
 10
10.8737
 20
-16.486
 30
0.0
 40
0
 41
0
  0
VERTEX
  8
0
 10
10.7999
 20
-16.3947
 30
0.0
 40
0
 41
0
  0
VERTEX
  8
0
 10
10.7407
 20
-16.3129
 30
0.0
 40
0
 41
0
  0
VERTEX
  8
0
 10
10.7113
 20
-16.2696
 30
0.0
 40
0
 41
0
  0
VERTEX
  8
0
 10
10.7019
 20
-16.2549
 30
0.0
 40
0
 41
0
  0
VERTEX
  8
0
 10
10.6619
 20
-16.1911
 30
0.0
 40
0
 41
0
  0
VERTEX
  8
0
 10
10.5547
 20
-15.9918
 30
0.0
 40
0
 41
0
  0
VERTEX
  8
0
 10
10.4368
 20
-15.7217
 30
0.0
 40
0
 41
0
  0
VERTEX
  8
0
 10
10.3464
 20
-15.4451
 30
0.0
 40
0
 41
0
  0
VERTEX
  8
0
 10
10.2814
 20
-15.1635
 30
0.0
 40
0
 41
0
  0
VERTEX
  8
0
 10
10.2401
 20
-14.8774
 30
0.0
 40
0
 41
0
  0
VERTEX
  8
0
 10
10.2207
 20
-14.5881
 30
0.0
 40
0
 41
0
  0
VERTEX
  8
0
 10
10.2214
 20
-14.2962
 30
0.0
 40
0
 41
0
  0
VERTEX
  8
0
 10
10.2402
 20
-14.0031
 30
0.0
 40
0
 41
0
  0
VERTEX
  8
0
 10
10.2754
 20
-13.7094
 30
0.0
 40
0
 41
0
  0
VERTEX
  8
0
 10
10.3251
 20
-13.4163
 30
0.0
 40
0
 41
0
  0
VERTEX
  8
0
 10
10.3876
 20
-13.1248
 30
0.0
 40
0
 41
0
  0
VERTEX
  8
0
 10
10.4608
 20
-12.8357
 30
0.0
 40
0
 41
0
  0
VERTEX
  8
0
 10
10.5431
 20
-12.5501
 30
0.0
 40
0
 41
0
  0
VERTEX
  8
0
 10
10.6325
 20
-12.2688
 30
0.0
 40
0
 41
0
  0
VERTEX
  8
0
 10
10.7273
 20
-11.9931
 30
0.0
 40
0
 41
0
  0
VERTEX
  8
0
 10
10.8005
 20
-11.7908
 30
0.0
 40
0
 41
0
  0
VERTEX
  8
0
 10
10.8256
 20
-11.7236
 30
0.0
 40
0
 41
0
  0
VERTEX
  8
0
 10
10.8331
 20
-11.7023
 30
0.0
 40
0
 41
0
  0
VERTEX
  8
0
 10
10.8595
 20
-11.6397
 30
0.0
 40
0
 41
0
  0
VERTEX
  8
0
 10
10.9043
 20
-11.5425
 30
0.0
 40
0
 41
0
  0
VERTEX
  8
0
 10
10.9545
 20
-11.4364
 30
0.0
 40
0
 41
0
  0
VERTEX
  8
0
 10
11.0046
 20
-11.3253
 30
0.0
 40
0
 41
0
  0
VERTEX
  8
0
 10
11.0488
 20
-11.2133
 30
0.0
 40
0
 41
0
  0
VERTEX
  8
0
 10
11.0816
 20
-11.1045
 30
0.0
 40
0
 41
0
  0
VERTEX
  8
0
 10
11.0974
 20
-11.0031
 30
0.0
 40
0
 41
0
  0
VERTEX
  8
0
 10
11.0959
 20
-10.9347
 30
0.0
 40
0
 41
0
  0
VERTEX
  8
0
 10
11.0908
 20
-10.9131
 30
0.0
 40
0
 41
0
  0
VERTEX
  8
0
 10
11.0857
 20
-10.8904
 30
0.0
 40
0
 41
0
  0
VERTEX
  8
0
 10
11.0539
 20
-10.8259
 30
0.0
 40
0
 41
0
  0
VERTEX
  8
0
 10
10.9883
 20
-10.7436
 30
0.0
 40
0
 41
0
  0
VERTEX
  8
0
 10
10.9015
 20
-10.6661
 30
0.0
 40
0
 41
0
  0
VERTEX
  8
0
 10
10.8013
 20
-10.5931
 30
0.0
 40
0
 41
0
  0
VERTEX
  8
0
 10
10.6953
 20
-10.5244
 30
0.0
 40
0
 41
0
  0
VERTEX
  8
0
 10
10.5912
 20
-10.4598
 30
0.0
 40
0
 41
0
  0
VERTEX
  8
0
 10
10.4966
 20
-10.3991
 30
0.0
 40
0
 41
0
  0
VERTEX
  8
0
 10
10.4376
 20
-10.3575
 30
0.0
 40
0
 41
0
  0
VERTEX
  8
0
 10
10.4192
 20
-10.3421
 30
0.0
 40
0
 41
0
  0
VERTEX
  8
0
 10
10.3626
 20
-10.297
 30
0.0
 40
0
 41
0
  0
VERTEX
  8
0
 10
10.1977
 20
-10.1559
 30
0.0
 40
0
 41
0
  0
VERTEX
  8
0
 10
9.98617
 20
-9.95762
 30
0.0
 40
0
 41
0
  0
VERTEX
  8
0
 10
9.78792
 20
-9.74897
 30
0.0
 40
0
 41
0
  0
VERTEX
  8
0
 10
9.64968
 20
-9.58746
 30
0.0
 40
0
 41
0
  0
VERTEX
  8
0
 10
9.60622
 20
-9.53168
 30
0.0
 40
0
 41
0
  0
VERTEX
  8
0
 10
9.55892
 20
-9.46918
 30
0.0
 40
0
 41
0
  0
VERTEX
  8
0
 10
9.42535
 20
-9.2755
 30
0.0
 40
0
 41
0
  0
VERTEX
  8
0
 10
9.27263
 20
-9.02974
 30
0.0
 40
0
 41
0
  0
VERTEX
  8
0
 10
9.1365
 20
-8.79085
 30
0.0
 40
0
 41
0
  0
VERTEX
  8
0
 10
9.03847
 20
-8.6141
 30
0.0
 40
0
 41
0
  0
VERTEX
  8
0
 10
9.00538
 20
-8.55544
 30
0.0
 40
0
 41
0
  0
VERTEX
  8
0
 10
9.00444
 20
-8.55544
 30
0.0
 40
0
 41
0
  0
VERTEX
  8
0
 10
9.00174
 20
-8.55692
 30
0.0
 40
0
 41
0
  0
VERTEX
  8
0
 10
9.00287
 20
-8.5606
 30
0.0
 40
0
 41
0
  0
VERTEX
  8
0
 10
9.00689
 20
-8.56515
 30
0.0
 40
0
 41
0
  0
VERTEX
  8
0
 10
9.01193
 20
-8.56922
 30
0.0
 40
0
 41
0
  0
VERTEX
  8
0
 10
9.01622
 20
-8.57161
 30
0.0
 40
0
 41
0
  0
VERTEX
  8
0
 10
9.01774
 20
-8.57096
 30
0.0
 40
0
 41
0
  0
VERTEX
  8
0
 10
9.01476
 20
-8.56597
 30
0.0
 40
0
 41
0
  0
VERTEX
  8
0
 10
9.00776
 20
-8.55794
 30
0.0
 40
0
 41
0
  0
VERTEX
  8
0
 10
9.00538
 20
-8.55544
 30
0.0
 40
0
 41
0
  0
SEQEND
 8
0
  0
POLYLINE
  8
0
 62
     0
 66
     1
 10
0
 20
0
 30
0.0
 70
     1
 40
0
 41
0
  0
VERTEX
  8
0
 10
21.9949
 20
-32.0406
 30
0.0
 40
0
 41
0
  0
VERTEX
  8
0
 10
21.999
 20
-32.0483
 30
0.0
 40
0
 41
0
  0
VERTEX
  8
0
 10
22.0203
 20
-32.0671
 30
0.0
 40
0
 41
0
  0
VERTEX
  8
0
 10
22.0624
 20
-32.085
 30
0.0
 40
0
 41
0
  0
VERTEX
  8
0
 10
22.1188
 20
-32.0951
 30
0.0
 40
0
 41
0
  0
VERTEX
  8
0
 10
22.1872
 20
-32.0988
 30
0.0
 40
0
 41
0
  0
VERTEX
  8
0
 10
22.2658
 20
-32.0964
 30
0.0
 40
0
 41
0
  0
VERTEX
  8
0
 10
22.3524
 20
-32.089
 30
0.0
 40
0
 41
0
  0
VERTEX
  8
0
 10
22.4446
 20
-32.0779
 30
0.0
 40
0
 41
0
  0
VERTEX
  8
0
 10
22.5404
 20
-32.0635
 30
0.0
 40
0
 41
0
  0
VERTEX
  8
0
 10
22.6378
 20
-32.0471
 30
0.0
 40
0
 41
0
  0
VERTEX
  8
0
 10
22.7344
 20
-32.0293
 30
0.0
 40
0
 41
0
  0
VERTEX
  8
0
 10
22.8282
 20
-32.0114
 30
0.0
 40
0
 41
0
  0
VERTEX
  8
0
 10
22.9168
 20
-31.9939
 30
0.0
 40
0
 41
0
  0
VERTEX
  8
0
 10
22.9985
 20
-31.9779
 30
0.0
 40
0
 41
0
  0
VERTEX
  8
0
 10
23.0707
 20
-31.9646
 30
0.0
 40
0
 41
0
  0
VERTEX
  8
0
 10
23.1317
 20
-31.9543
 30
0.0
 40
0
 41
0
  0
VERTEX
  8
0
 10
23.1671
 20
-31.9494
 30
0.0
 40
0
 41
0
  0
VERTEX
  8
0
 10
23.1789
 20
-31.9485
 30
0.0
 40
0
 41
0
  0
VERTEX
  8
0
 10
23.285
 20
-31.9347
 30
0.0
 40
0
 41
0
  0
VERTEX
  8
0
 10
23.824
 20
-31.8425
 30
0.0
 40
0
 41
0
  0
VERTEX
  8
0
 10
24.3631
 20
-31.7319
 30
0.0
 40
0
 41
0
  0
VERTEX
  8
0
 10
24.469
 20
-31.709
 30
0.0
 40
0
 41
0
  0
VERTEX
  8
0
 10
24.6168
 20
-31.674
 30
0.0
 40
0
 41
0
  0
VERTEX
  8
0
 10
25.06
 20
-31.5694
 30
0.0
 40
0
 41
0
  0
VERTEX
  8
0
 10
25.6575
 20
-31.4211
 30
0.0
 40
0
 41
0
  0
VERTEX
  8
0
 10
26.2485
 20
-31.2557
 30
0.0
 40
0
 41
0
  0
VERTEX
  8
0
 10
26.6785
 20
-31.1168
 30
0.0
 40
0
 41
0
  0
VERTEX
  8
0
 10
26.8196
 20
-31.0643
 30
0.0
 40
0
 41
0
  0
VERTEX
  8
0
 10
26.8811
 20
-31.0411
 30
0.0
 40
0
 41
0
  0
VERTEX
  8
0
 10
27.066
 20
-30.9714
 30
0.0
 40
0
 41
0
  0
VERTEX
  8
0
 10
27.3235
 20
-30.8703
 30
0.0
 40
0
 41
0
  0
VERTEX
  8
0
 10
27.5847
 20
-30.7579
 30
0.0
 40
0
 41
0
  0
VERTEX
  8
0
 10
27.8424
 20
-30.6314
 30
0.0
 40
0
 41
0
  0
VERTEX
  8
0
 10
28.0893
 20
-30.4876
 30
0.0
 40
0
 41
0
  0
VERTEX
  8
0
 10
28.3182
 20
-30.3235
 30
0.0
 40
0
 41
0
  0
VERTEX
  8
0
 10
28.5218
 20
-30.1361
 30
0.0
 40
0
 41
0
  0
VERTEX
  8
0
 10
28.655
 20
-29.9789
 30
0.0
 40
0
 41
0
  0
VERTEX
  8
0
 10
28.6929
 20
-29.9224
 30
0.0
 40
0
 41
0
  0
VERTEX
  8
0
 10
28.7317
 20
-29.8661
 30
0.0
 40
0
 41
0
  0
VERTEX
  8
0
 10
28.8306
 20
-29.6851
 30
0.0
 40
0
 41
0
  0
VERTEX
  8
0
 10
28.9392
 20
-29.4208
 30
0.0
 40
0
 41
0
  0
VERTEX
  8
0
 10
29.0196
 20
-29.1368
 30
0.0
 40
0
 41
0
  0
VERTEX
  8
0
 10
29.0728
 20
-28.8401
 30
0.0
 40
0
 41
0
  0
VERTEX
  8
0
 10
29.0994
 20
-28.5382
 30
0.0
 40
0
 41
0
  0
VERTEX
  8
0
 10
29.1004
 20
-28.2386
 30
0.0
 40
0
 41
0
  0
VERTEX
  8
0
 10
29.0765
 20
-27.9485
 30
0.0
 40
0
 41
0
  0
VERTEX
  8
0
 10
29.044
 20
-27.7426
 30
0.0
 40
0
 41
0
  0
VERTEX
  8
0
 10
29.0286
 20
-27.6751
 30
0.0
 40
0
 41
0
  0
VERTEX
  8
0
 10
29.0121
 20
-27.6026
 30
0.0
 40
0
 41
0
  0
VERTEX
  8
0
 10
28.9499
 20
-27.3883
 30
0.0
 40
0
 41
0
  0
VERTEX
  8
0
 10
28.8497
 20
-27.1086
 30
0.0
 40
0
 41
0
  0
VERTEX
  8
0
 10
28.7329
 20
-26.8358
 30
0.0
 40
0
 41
0
  0
VERTEX
  8
0
 10
28.6378
 20
-26.6357
 30
0.0
 40
0
 41
0
  0
VERTEX
  8
0
 10
28.6044
 20
-26.5699
 30
0.0
 40
0
 41
0
  0
VERTEX
  8
0
 10
28.5824
 20
-26.5237
 30
0.0
 40
0
 41
0
  0
VERTEX
  8
0
 10
28.3306
 20
-26.0633
 30
0.0
 40
0
 41
0
  0
VERTEX
  8
0
 10
28.304
 20
-26.0174
 30
0.0
 40
0
 41
0
  0
VERTEX
  8
0
 10
28.2968
 20
-26.0042
 30
0.0
 40
0
 41
0
  0
VERTEX
  8
0
 10
28.2774
 20
-25.9638
 30
0.0
 40
0
 41
0
  0
VERTEX
  8
0
 10
28.2496
 20
-25.9025
 30
0.0
 40
0
 41
0
  0
VERTEX
  8
0
 10
28.2199
 20
-25.8383
 30
0.0
 40
0
 41
0
  0
VERTEX
  8
0
 10
28.1869
 20
-25.7756
 30
0.0
 40
0
 41
0
  0
VERTEX
  8
0
 10
28.1499
 20
-25.7189
 30
0.0
 40
0
 41
0
  0
VERTEX
  8
0
 10
28.1076
 20
-25.6728
 30
0.0
 40
0
 41
0
  0
VERTEX
  8
0
 10
28.0593
 20
-25.6418
 30
0.0
 40
0
 41
0
  0
VERTEX
  8
0
 10
28.0175
 20
-25.6304
 30
0.0
 40
0
 41
0
  0
VERTEX
  8
0
 10
28.0036
 20
-25.6304
 30
0.0
 40
0
 41
0
  0
VERTEX
  8
0
 10
27.9907
 20
-25.6304
 30
0.0
 40
0
 41
0
  0
VERTEX
  8
0
 10
27.9519
 20
-25.644
 30
0.0
 40
0
 41
0
  0
VERTEX
  8
0
 10
27.8921
 20
-25.6806
 30
0.0
 40
0
 41
0
  0
VERTEX
  8
0
 10
27.8271
 20
-25.7333
 30
0.0
 40
0
 41
0
  0
VERTEX
  8
0
 10
27.7606
 20
-25.7962
 30
0.0
 40
0
 41
0
  0
VERTEX
  8
0
 10
27.6957
 20
-25.8625
 30
0.0
 40
0
 41
0
  0
VERTEX
  8
0
 10
27.6357
 20
-25.9258
 30
0.0
 40
0
 41
0
  0
VERTEX
  8
0
 10
27.5842
 20
-25.9796
 30
0.0
 40
0
 41
0
  0
VERTEX
  8
0
 10
27.5546
 20
-26.0085
 30
0.0
 40
0
 41
0
  0
VERTEX
  8
0
 10
27.5442
 20
-26.0174
 30
0.0
 40
0
 41
0
  0
VERTEX
  8
0
 10
27.5088
 20
-26.0496
 30
0.0
 40
0
 41
0
  0
VERTEX
  8
0
 10
27.1553
 20
-26.3718
 30
0.0
 40
0
 41
0
  0
VERTEX
  8
0
 10
27.12
 20
-26.4042
 30
0.0
 40
0
 41
0
  0
VERTEX
  8
0
 10
27.0801
 20
-26.441
 30
0.0
 40
0
 41
0
  0
VERTEX
  8
0
 10
26.8814
 20
-26.616
 30
0.0
 40
0
 41
0
  0
VERTEX
  8
0
 10
26.6825
 20
-26.791
 30
0.0
 40
0
 41
0
  0
VERTEX
  8
0
 10
26.6428
 20
-26.8278
 30
0.0
 40
0
 41
0
  0
VERTEX
  8
0
 10
26.6297
 20
-26.8414
 30
0.0
 40
0
 41
0
  0
VERTEX
  8
0
 10
26.5943
 20
-26.8861
 30
0.0
 40
0
 41
0
  0
VERTEX
  8
0
 10
26.5663
 20
-26.9383
 30
0.0
 40
0
 41
0
  0
VERTEX
  8
0
 10
26.5561
 20
-26.9871
 30
0.0
 40
0
 41
0
  0
VERTEX
  8
0
 10
26.561
 20
-27.035
 30
0.0
 40
0
 41
0
  0
VERTEX
  8
0
 10
26.5783
 20
-27.0846
 30
0.0
 40
0
 41
0
  0
VERTEX
  8
0
 10
26.6056
 20
-27.1386
 30
0.0
 40
0
 41
0
  0
VERTEX
  8
0
 10
26.6396
 20
-27.1994
 30
0.0
 40
0
 41
0
  0
VERTEX
  8
0
 10
26.6689
 20
-27.2521
 30
0.0
 40
0
 41
0
  0
VERTEX
  8
0
 10
26.6782
 20
-27.2699
 30
0.0
 40
0
 41
0
  0
VERTEX
  8
0
 10
26.7081
 20
-27.3356
 30
0.0
 40
0
 41
0
  0
VERTEX
  8
0
 10
26.8038
 20
-27.5303
 30
0.0
 40
0
 41
0
  0
VERTEX
  8
0
 10
26.9278
 20
-27.7925
 30
0.0
 40
0
 41
0
  0
VERTEX
  8
0
 10
27.0285
 20
-28.065
 30
0.0
 40
0
 41
0
  0
VERTEX
  8
0
 10
27.0782
 20
-28.2831
 30
0.0
 40
0
 41
0
  0
VERTEX
  8
0
 10
27.0846
 20
-28.3567
 30
0.0
 40
0
 41
0
  0
VERTEX
  8
0
 10
27.0912
 20
-28.4321
 30
0.0
 40
0
 41
0
  0
VERTEX
  8
0
 10
27.0949
 20
-28.6603
 30
0.0
 40
0
 41
0
  0
VERTEX
  8
0
 10
27.0736
 20
-28.9621
 30
0.0
 40
0
 41
0
  0
VERTEX
  8
0
 10
27.0225
 20
-29.2606
 30
0.0
 40
0
 41
0
  0
VERTEX
  8
0
 10
26.9662
 20
-29.4817
 30
0.0
 40
0
 41
0
  0
VERTEX
  8
0
 10
26.9432
 20
-29.5539
 30
0.0
 40
0
 41
0
  0
VERTEX
  8
0
 10
26.9247
 20
-29.6118
 30
0.0
 40
0
 41
0
  0
VERTEX
  8
0
 10
26.8535
 20
-29.7806
 30
0.0
 40
0
 41
0
  0
VERTEX
  8
0
 10
26.7319
 20
-29.999
 30
0.0
 40
0
 41
0
  0
VERTEX
  8
0
 10
26.5819
 20
-30.2018
 30
0.0
 40
0
 41
0
  0
VERTEX
  8
0
 10
26.4064
 20
-30.3804
 30
0.0
 40
0
 41
0
  0
VERTEX
  8
0
 10
26.2086
 20
-30.5272
 30
0.0
 40
0
 41
0
  0
VERTEX
  8
0
 10
25.9914
 20
-30.634
 30
0.0
 40
0
 41
0
  0
VERTEX
  8
0
 10
25.7581
 20
-30.6929
 30
0.0
 40
0
 41
0
  0
VERTEX
  8
0
 10
25.5725
 20
-30.7025
 30
0.0
 40
0
 41
0
  0
VERTEX
  8
0
 10
25.5118
 20
-30.696
 30
0.0
 40
0
 41
0
  0
VERTEX
  8
0
 10
25.4492
 20
-30.689
 30
0.0
 40
0
 41
0
  0
VERTEX
  8
0
 10
25.264
 20
-30.6447
 30
0.0
 40
0
 41
0
  0
VERTEX
  8
0
 10
25.0279
 20
-30.5486
 30
0.0
 40
0
 41
0
  0
VERTEX
  8
0
 10
24.8085
 20
-30.411
 30
0.0
 40
0
 41
0
  0
VERTEX
  8
0
 10
24.6561
 20
-30.2829
 30
0.0
 40
0
 41
0
  0
VERTEX
  8
0
 10
24.6104
 20
-30.2354
 30
0.0
 40
0
 41
0
  0
VERTEX
  8
0
 10
24.5794
 20
-30.2032
 30
0.0
 40
0
 41
0
  0
VERTEX
  8
0
 10
24.4558
 20
-30.0397
 30
0.0
 40
0
 41
0
  0
VERTEX
  8
0
 10
24.3497
 20
-29.8671
 30
0.0
 40
0
 41
0
  0
VERTEX
  8
0
 10
24.3276
 20
-29.8301
 30
0.0
 40
0
 41
0
  0
VERTEX
  8
0
 10
24.3206
 20
-29.8192
 30
0.0
 40
0
 41
0
  0
VERTEX
  8
0
 10
24.3036
 20
-29.7832
 30
0.0
 40
0
 41
0
  0
VERTEX
  8
0
 10
24.2813
 20
-29.7311
 30
0.0
 40
0
 41
0
  0
VERTEX
  8
0
 10
24.2556
 20
-29.6825
 30
0.0
 40
0
 41
0
  0
VERTEX
  8
0
 10
24.2317
 20
-29.6529
 30
0.0
 40
0
 41
0
  0
VERTEX
  8
0
 10
24.2217
 20
-29.646
 30
0.0
 40
0
 41
0
  0
VERTEX
  8
0
 10
24.2117
 20
-29.6415
 30
0.0
 40
0
 41
0
  0
VERTEX
  8
0
 10
24.1806
 20
-29.6311
 30
0.0
 40
0
 41
0
  0
VERTEX
  8
0
 10
24.1487
 20
-29.6272
 30
0.0
 40
0
 41
0
  0
VERTEX
  8
0
 10
24.1235
 20
-29.6333
 30
0.0
 40
0
 41
0
  0
VERTEX
  8
0
 10
24.1024
 20
-29.6483
 30
0.0
 40
0
 41
0
  0
VERTEX
  8
0
 10
24.0828
 20
-29.671
 30
0.0
 40
0
 41
0
  0
VERTEX
  8
0
 10
24.0625
 20
-29.7004
 30
0.0
 40
0
 41
0
  0
VERTEX
  8
0
 10
24.0389
 20
-29.7354
 30
0.0
 40
0
 41
0
  0
VERTEX
  8
0
 10
24.0172
 20
-29.7653
 30
0.0
 40
0
 41
0
  0
VERTEX
  8
0
 10
24.0096
 20
-29.775
 30
0.0
 40
0
 41
0
  0
VERTEX
  8
0
 10
23.8372
 20
-29.9592
 30
0.0
 40
0
 41
0
  0
VERTEX
  8
0
 10
22.9889
 20
-30.8939
 30
0.0
 40
0
 41
0
  0
VERTEX
  8
0
 10
22.1583
 20
-31.8472
 30
0.0
 40
0
 41
0
  0
VERTEX
  8
0
 10
21.9949
 20
-32.0406
 30
0.0
 40
0
 41
0
  0
VERTEX
  8
0
 10
21.9957
 20
-32.0406
 30
0.0
 40
0
 41
0
  0
VERTEX
  8
0
 10
21.9983
 20
-32.0382
 30
0.0
 40
0
 41
0
  0
VERTEX
  8
0
 10
22.0054
 20
-32.0315
 30
0.0
 40
0
 41
0
  0
VERTEX
  8
0
 10
22.0158
 20
-32.0207
 30
0.0
 40
0
 41
0
  0
VERTEX
  8
0
 10
22.0289
 20
-32.0065
 30
0.0
 40
0
 41
0
  0
VERTEX
  8
0
 10
22.0444
 20
-31.9893
 30
0.0
 40
0
 41
0
  0
VERTEX
  8
0
 10
22.0619
 20
-31.9694
 30
0.0
 40
0
 41
0
  0
VERTEX
  8
0
 10
22.0811
 20
-31.9476
 30
0.0
 40
0
 41
0
  0
VERTEX
  8
0
 10
22.1017
 20
-31.924
 30
0.0
 40
0
 41
0
  0
VERTEX
  8
0
 10
22.1231
 20
-31.8992
 30
0.0
 40
0
 41
0
  0
VERTEX
  8
0
 10
22.145
 20
-31.8736
 30
0.0
 40
0
 41
0
  0
VERTEX
  8
0
 10
22.1672
 20
-31.8478
 30
0.0
 40
0
 41
0
  0
VERTEX
  8
0
 10
22.189
 20
-31.8219
 30
0.0
 40
0
 41
0
  0
VERTEX
  8
0
 10
22.2103
 20
-31.7969
 30
0.0
 40
0
 41
0
  0
VERTEX
  8
0
 10
22.2306
 20
-31.7728
 30
0.0
 40
0
 41
0
  0
VERTEX
  8
0
 10
22.2494
 20
-31.7503
 30
0.0
 40
0
 41
0
  0
VERTEX
  8
0
 10
22.2665
 20
-31.7297
 30
0.0
 40
0
 41
0
  0
VERTEX
  8
0
 10
22.2815
 20
-31.7115
 30
0.0
 40
0
 41
0
  0
VERTEX
  8
0
 10
22.2942
 20
-31.6962
 30
0.0
 40
0
 41
0
  0
VERTEX
  8
0
 10
22.3038
 20
-31.6844
 30
0.0
 40
0
 41
0
  0
VERTEX
  8
0
 10
22.3101
 20
-31.6762
 30
0.0
 40
0
 41
0
  0
VERTEX
  8
0
 10
22.3129
 20
-31.6724
 30
0.0
 40
0
 41
0
  0
VERTEX
  8
0
 10
22.3117
 20
-31.6732
 30
0.0
 40
0
 41
0
  0
VERTEX
  8
0
 10
22.306
 20
-31.6793
 30
0.0
 40
0
 41
0
  0
VERTEX
  8
0
 10
22.2956
 20
-31.6908
 30
0.0
 40
0
 41
0
  0
VERTEX
  8
0
 10
22.28
 20
-31.7086
 30
0.0
 40
0
 41
0
  0
VERTEX
  8
0
 10
22.2589
 20
-31.7328
 30
0.0
 40
0
 41
0
  0
VERTEX
  8
0
 10
22.2318
 20
-31.7639
 30
0.0
 40
0
 41
0
  0
VERTEX
  8
0
 10
22.1985
 20
-31.8026
 30
0.0
 40
0
 41
0
  0
VERTEX
  8
0
 10
22.1585
 20
-31.849
 30
0.0
 40
0
 41
0
  0
VERTEX
  8
0
 10
22.1115
 20
-31.904
 30
0.0
 40
0
 41
0
  0
VERTEX
  8
0
 10
22.0571
 20
-31.9676
 30
0.0
 40
0
 41
0
  0
VERTEX
  8
0
 10
22.0104
 20
-32.0224
 30
0.0
 40
0
 41
0
  0
VERTEX
  8
0
 10
21.9949
 20
-32.0406
 30
0.0
 40
0
 41
0
  0
SEQEND
 8
0
  0
POLYLINE
  8
0
 62
     0
 66
     1
 10
0
 20
0
 30
0.0
 70
     1
 40
0
 41
0
  0
VERTEX
  8
0
 10
15.1378
 20
-6.6951
 30
0.0
 40
0
 41
0
  0
VERTEX
  8
0
 10
15.1029
 20
-6.71924
 30
0.0
 40
0
 41
0
  0
VERTEX
  8
0
 10
15.0042
 20
-6.79992
 30
0.0
 40
0
 41
0
  0
VERTEX
  8
0
 10
14.8807
 20
-6.91922
 30
0.0
 40
0
 41
0
  0
VERTEX
  8
0
 10
14.766
 20
-7.05018
 30
0.0
 40
0
 41
0
  0
VERTEX
  8
0
 10
14.6585
 20
-7.19006
 30
0.0
 40
0
 41
0
  0
VERTEX
  8
0
 10
14.5567
 20
-7.33594
 30
0.0
 40
0
 41
0
  0
VERTEX
  8
0
 10
14.4593
 20
-7.48508
 30
0.0
 40
0
 41
0
  0
VERTEX
  8
0
 10
14.3649
 20
-7.6346
 30
0.0
 40
0
 41
0
  0
VERTEX
  8
0
 10
14.2953
 20
-7.74517
 30
0.0
 40
0
 41
0
  0
VERTEX
  8
0
 10
14.2718
 20
-7.78185
 30
0.0
 40
0
 41
0
  0
VERTEX
  8
0
 10
14.1967
 20
-7.89236
 30
0.0
 40
0
 41
0
  0
VERTEX
  8
0
 10
13.8256
 20
-8.43799
 30
0.0
 40
0
 41
0
  0
VERTEX
  8
0
 10
13.4721
 20
-8.99289
 30
0.0
 40
0
 41
0
  0
VERTEX
  8
0
 10
13.4059
 20
-9.10801
 30
0.0
 40
0
 41
0
  0
VERTEX
  8
0
 10
13.3853
 20
-9.14014
 30
0.0
 40
0
 41
0
  0
VERTEX
  8
0
 10
13.3219
 20
-9.23551
 30
0.0
 40
0
 41
0
  0
VERTEX
  8
0
 10
13.238
 20
-9.36817
 30
0.0
 40
0
 41
0
  0
VERTEX
  8
0
 10
13.1673
 20
-9.50435
 30
0.0
 40
0
 41
0
  0
VERTEX
  8
0
 10
13.1298
 20
-9.60688
 30
0.0
 40
0
 41
0
  0
VERTEX
  8
0
 10
13.1231
 20
-9.64219
 30
0.0
 40
0
 41
0
  0
VERTEX
  8
0
 10
13.1187
 20
-9.66064
 30
0.0
 40
0
 41
0
  0
VERTEX
  8
0
 10
13.112
 20
-9.71767
 30
0.0
 40
0
 41
0
  0
VERTEX
  8
0
 10
13.1173
 20
-9.77974
 30
0.0
 40
0
 41
0
  0
VERTEX
  8
0
 10
13.137
 20
-9.83062
 30
0.0
 40
0
 41
0
  0
VERTEX
  8
0
 10
13.1695
 20
-9.87244
 30
0.0
 40
0
 41
0
  0
VERTEX
  8
0
 10
13.2127
 20
-9.90733
 30
0.0
 40
0
 41
0
  0
VERTEX
  8
0
 10
13.2648
 20
-9.9375
 30
0.0
 40
0
 41
0
  0
VERTEX
  8
0
 10
13.3238
 20
-9.96506
 30
0.0
 40
0
 41
0
  0
VERTEX
  8
0
 10
13.3721
 20
-9.98546
 30
0.0
 40
0
 41
0
  0
VERTEX
  8
0
 10
13.3882
 20
-9.99219
 30
0.0
 40
0
 41
0
  0
VERTEX
  8
0
 10
13.4368
 20
-10.0152
 30
0.0
 40
0
 41
0
  0
VERTEX
  8
0
 10
13.6886
 20
-10.128
 30
0.0
 40
0
 41
0
  0
VERTEX
  8
0
 10
13.9404
 20
-10.2316
 30
0.0
 40
0
 41
0
  0
VERTEX
  8
0
 10
13.989
 20
-10.2501
 30
0.0
 40
0
 41
0
  0
VERTEX
  8
0
 10
14.0214
 20
-10.265
 30
0.0
 40
0
 41
0
  0
VERTEX
  8
0
 10
14.1172
 20
-10.3128
 30
0.0
 40
0
 41
0
  0
VERTEX
  8
0
 10
14.2586
 20
-10.379
 30
0.0
 40
0
 41
0
  0
VERTEX
  8
0
 10
14.4065
 20
-10.4313
 30
0.0
 40
0
 41
0
  0
VERTEX
  8
0
 10
14.5176
 20
-10.4526
 30
0.0
 40
0
 41
0
  0
VERTEX
  8
0
 10
14.5546
 20
-10.4526
 30
0.0
 40
0
 41
0
  0
VERTEX
  8
0
 10
14.5814
 20
-10.4526
 30
0.0
 40
0
 41
0
  0
VERTEX
  8
0
 10
14.6617
 20
-10.4316
 30
0.0
 40
0
 41
0
  0
VERTEX
  8
0
 10
14.7581
 20
-10.3743
 30
0.0
 40
0
 41
0
  0
VERTEX
  8
0
 10
14.845
 20
-10.2894
 30
0.0
 40
0
 41
0
  0
VERTEX
  8
0
 10
14.9235
 20
-10.1855
 30
0.0
 40
0
 41
0
  0
VERTEX
  8
0
 10
14.9946
 20
-10.0713
 30
0.0
 40
0
 41
0
  0
VERTEX
  8
0
 10
15.059
 20
-9.95529
 30
0.0
 40
0
 41
0
  0
VERTEX
  8
0
 10
15.1183
 20
-9.84625
 30
0.0
 40
0
 41
0
  0
VERTEX
  8
0
 10
15.1586
 20
-9.7755
 30
0.0
 40
0
 41
0
  0
VERTEX
  8
0
 10
15.1732
 20
-9.75271
 30
0.0
 40
0
 41
0
  0
VERTEX
  8
0
 10
15.2439
 20
-9.64219
 30
0.0
 40
0
 41
0
  0
VERTEX
  8
0
 10
15.5885
 20
-9.09879
 30
0.0
 40
0
 41
0
  0
VERTEX
  8
0
 10
15.9331
 20
-8.55544
 30
0.0
 40
0
 41
0
  0
VERTEX
  8
0
 10
16.0038
 20
-8.44493
 30
0.0
 40
0
 41
0
  0
VERTEX
  8
0
 10
16.0214
 20
-8.41829
 30
0.0
 40
0
 41
0
  0
VERTEX
  8
0
 10
16.0793
 20
-8.34164
 30
0.0
 40
0
 41
0
  0
VERTEX
  8
0
 10
16.1769
 20
-8.2161
 30
0.0
 40
0
 41
0
  0
VERTEX
  8
0
 10
16.2824
 20
-8.07547
 30
0.0
 40
0
 41
0
  0
VERTEX
  8
0
 10
16.3815
 20
-7.92686
 30
0.0
 40
0
 41
0
  0
VERTEX
  8
0
 10
16.4599
 20
-7.77735
 30
0.0
 40
0
 41
0
  0
VERTEX
  8
0
 10
16.5033
 20
-7.63411
 30
0.0
 40
0
 41
0
  0
VERTEX
  8
0
 10
16.4974
 20
-7.50429
 30
0.0
 40
0
 41
0
  0
VERTEX
  8
0
 10
16.451
 20
-7.41601
 30
0.0
 40
0
 41
0
  0
VERTEX
  8
0
 10
16.4279
 20
-7.39497
 30
0.0
 40
0
 41
0
  0
VERTEX
  8
0
 10
16.3901
 20
-7.36279
 30
0.0
 40
0
 41
0
  0
VERTEX
  8
0
 10
16.2681
 20
-7.27696
 30
0.0
 40
0
 41
0
  0
VERTEX
  8
0
 10
16.0899
 20
-7.16932
 30
0.0
 40
0
 41
0
  0
VERTEX
  8
0
 10
15.9085
 20
-7.06858
 30
0.0
 40
0
 41
0
  0
VERTEX
  8
0
 10
15.7806
 20
-6.99675
 30
0.0
 40
0
 41
0
  0
VERTEX
  8
0
 10
15.7387
 20
-6.97136
 30
0.0
 40
0
 41
0
  0
VERTEX
  8
0
 10
15.6857
 20
-6.94829
 30
0.0
 40
0
 41
0
  0
VERTEX
  8
0
 10
15.4382
 20
-6.82628
 30
0.0
 40
0
 41
0
  0
VERTEX
  8
0
 10
15.1908
 20
-6.71349
 30
0.0
 40
0
 41
0
  0
VERTEX
  8
0
 10
15.1378
 20
-6.6951
 30
0.0
 40
0
 41
0
  0
VERTEX
  8
0
 10
15.1344
 20
-6.69743
 30
0.0
 40
0
 41
0
  0
VERTEX
  8
0
 10
15.1254
 20
-6.70638
 30
0.0
 40
0
 41
0
  0
VERTEX
  8
0
 10
15.1254
 20
-6.71317
 30
0.0
 40
0
 41
0
  0
VERTEX
  8
0
 10
15.1332
 20
-6.7161
 30
0.0
 40
0
 41
0
  0
VERTEX
  8
0
 10
15.1444
 20
-6.71576
 30
0.0
 40
0
 41
0
  0
VERTEX
  8
0
 10
15.1549
 20
-6.71283
 30
0.0
 40
0
 41
0
  0
VERTEX
  8
0
 10
15.1601
 20
-6.70801
 30
0.0
 40
0
 41
0
  0
VERTEX
  8
0
 10
15.156
 20
-6.70188
 30
0.0
 40
0
 41
0
  0
VERTEX
  8
0
 10
15.1424
 20
-6.69629
 30
0.0
 40
0
 41
0
  0
VERTEX
  8
0
 10
15.1378
 20
-6.6951
 30
0.0
 40
0
 41
0
  0
SEQEND
 8
0
  0
POLYLINE
  8
0
 62
     0
 66
     1
 10
0
 20
0
 30
0.0
 70
     1
 40
0
 41
0
  0
VERTEX
  8
0
 10
17.0465
 20
-11.2631
 30
0.0
 40
0
 41
0
  0
VERTEX
  8
0
 10
17.0757
 20
-11.2663
 30
0.0
 40
0
 41
0
  0
VERTEX
  8
0
 10
17.1667
 20
-11.2478
 30
0.0
 40
0
 41
0
  0
VERTEX
  8
0
 10
17.276
 20
-11.1825
 30
0.0
 40
0
 41
0
  0
VERTEX
  8
0
 10
17.3749
 20
-11.0792
 30
0.0
 40
0
 41
0
  0
VERTEX
  8
0
 10
17.464
 20
-10.95
 30
0.0
 40
0
 41
0
  0
VERTEX
  8
0
 10
17.544
 20
-10.8069
 30
0.0
 40
0
 41
0
  0
VERTEX
  8
0
 10
17.6156
 20
-10.6622
 30
0.0
 40
0
 41
0
  0
VERTEX
  8
0
 10
17.6793
 20
-10.5277
 30
0.0
 40
0
 41
0
  0
VERTEX
  8
0
 10
17.7207
 20
-10.4433
 30
0.0
 40
0
 41
0
  0
VERTEX
  8
0
 10
17.7357
 20
-10.4158
 30
0.0
 40
0
 41
0
  0
VERTEX
  8
0
 10
17.7888
 20
-10.3191
 30
0.0
 40
0
 41
0
  0
VERTEX
  8
0
 10
18.3365
 20
-9.35206
 30
0.0
 40
0
 41
0
  0
VERTEX
  8
0
 10
18.3896
 20
-9.25538
 30
0.0
 40
0
 41
0
  0
VERTEX
  8
0
 10
18.3971
 20
-9.24365
 30
0.0
 40
0
 41
0
  0
VERTEX
  8
0
 10
18.4204
 20
-9.2091
 30
0.0
 40
0
 41
0
  0
VERTEX
  8
0
 10
18.4572
 20
-9.15463
 30
0.0
 40
0
 41
0
  0
VERTEX
  8
0
 10
18.4961
 20
-9.09412
 30
0.0
 40
0
 41
0
  0
VERTEX
  8
0
 10
18.5332
 20
-9.02974
 30
0.0
 40
0
 41
0
  0
VERTEX
  8
0
 10
18.5644
 20
-8.9636
 30
0.0
 40
0
 41
0
  0
VERTEX
  8
0
 10
18.586
 20
-8.89789
 30
0.0
 40
0
 41
0
  0
VERTEX
  8
0
 10
18.5938
 20
-8.83479
 30
0.0
 40
0
 41
0
  0
VERTEX
  8
0
 10
18.5889
 20
-8.79015
 30
0.0
 40
0
 41
0
  0
VERTEX
  8
0
 10
18.584
 20
-8.77647
 30
0.0
 40
0
 41
0
  0
VERTEX
  8
0
 10
18.5778
 20
-8.75022
 30
0.0
 40
0
 41
0
  0
VERTEX
  8
0
 10
18.5287
 20
-8.6786
 30
0.0
 40
0
 41
0
  0
VERTEX
  8
0
 10
18.4337
 20
-8.60146
 30
0.0
 40
0
 41
0
  0
VERTEX
  8
0
 10
18.3256
 20
-8.53814
 30
0.0
 40
0
 41
0
  0
VERTEX
  8
0
 10
18.2532
 20
-8.49744
 30
0.0
 40
0
 41
0
  0
VERTEX
  8
0
 10
18.2306
 20
-8.48178
 30
0.0
 40
0
 41
0
  0
VERTEX
  8
0
 10
18.2054
 20
-8.46565
 30
0.0
 40
0
 41
0
  0
VERTEX
  8
0
 10
18.1322
 20
-8.41433
 30
0.0
 40
0
 41
0
  0
VERTEX
  8
0
 10
18.0132
 20
-8.32949
 30
0.0
 40
0
 41
0
  0
VERTEX
  8
0
 10
17.8797
 20
-8.23731
 30
0.0
 40
0
 41
0
  0
VERTEX
  8
0
 10
17.7379
 20
-8.14789
 30
0.0
 40
0
 41
0
  0
VERTEX
  8
0
 10
17.5935
 20
-8.0714
 30
0.0
 40
0
 41
0
  0
VERTEX
  8
0
 10
17.4526
 20
-8.01807
 30
0.0
 40
0
 41
0
  0
VERTEX
  8
0
 10
17.3213
 20
-7.99794
 30
0.0
 40
0
 41
0
  0
VERTEX
  8
0
 10
17.2317
 20
-8.00933
 30
0.0
 40
0
 41
0
  0
VERTEX
  8
0
 10
17.2056
 20
-8.02126
 30
0.0
 40
0
 41
0
  0
VERTEX
  8
0
 10
17.1775
 20
-8.03586
 30
0.0
 40
0
 41
0
  0
VERTEX
  8
0
 10
17.1058
 20
-8.10331
 30
0.0
 40
0
 41
0
  0
VERTEX
  8
0
 10
17.0178
 20
-8.22157
 30
0.0
 40
0
 41
0
  0
VERTEX
  8
0
 10
16.9396
 20
-8.35021
 30
0.0
 40
0
 41
0
  0
VERTEX
  8
0
 10
16.8885
 20
-8.43593
 30
0.0
 40
0
 41
0
  0
VERTEX
  8
0
 10
16.8697
 20
-8.46332
 30
0.0
 40
0
 41
0
  0
VERTEX
  8
0
 10
16.8432
 20
-8.50478
 30
0.0
 40
0
 41
0
  0
VERTEX
  8
0
 10
16.7018
 20
-8.72347
 30
0.0
 40
0
 41
0
  0
VERTEX
  8
0
 10
16.5604
 20
-8.95144
 30
0.0
 40
0
 41
0
  0
VERTEX
  8
0
 10
16.534
 20
-8.9975
 30
0.0
 40
0
 41
0
  0
VERTEX
  8
0
 10
16.4721
 20
-9.09418
 30
0.0
 40
0
 41
0
  0
VERTEX
  8
0
 10
16.1717
 20
-9.56853
 30
0.0
 40
0
 41
0
  0
VERTEX
  8
0
 10
15.8712
 20
-10.0428
 30
0.0
 40
0
 41
0
  0
VERTEX
  8
0
 10
15.8094
 20
-10.1395
 30
0.0
 40
0
 41
0
  0
VERTEX
  8
0
 10
15.7924
 20
-10.1662
 30
0.0
 40
0
 41
0
  0
VERTEX
  8
0
 10
15.7396
 20
-10.2453
 30
0.0
 40
0
 41
0
  0
VERTEX
  8
0
 10
15.6692
 20
-10.3539
 30
0.0
 40
0
 41
0
  0
VERTEX
  8
0
 10
15.6068
 20
-10.4629
 30
0.0
 40
0
 41
0
  0
VERTEX
  8
0
 10
15.5619
 20
-10.57
 30
0.0
 40
0
 41
0
  0
VERTEX
  8
0
 10
15.5436
 20
-10.6728
 30
0.0
 40
0
 41
0
  0
VERTEX
  8
0
 10
15.5608
 20
-10.7689
 30
0.0
 40
0
 41
0
  0
VERTEX
  8
0
 10
15.6228
 20
-10.856
 30
0.0
 40
0
 41
0
  0
VERTEX
  8
0
 10
15.7078
 20
-10.9169
 30
0.0
 40
0
 41
0
  0
VERTEX
  8
0
 10
15.7387
 20
-10.9316
 30
0.0
 40
0
 41
0
  0
VERTEX
  8
0
 10
15.8194
 20
-10.9561
 30
0.0
 40
0
 41
0
  0
VERTEX
  8
0
 10
16.0622
 20
-11.0274
 30
0.0
 40
0
 41
0
  0
VERTEX
  8
0
 10
16.3926
 20
-11.1181
 30
0.0
 40
0
 41
0
  0
VERTEX
  8
0
 10
16.7228
 20
-11.1983
 30
0.0
 40
0
 41
0
  0
VERTEX
  8
0
 10
16.9653
 20
-11.249
 30
0.0
 40
0
 41
0
  0
VERTEX
  8
0
 10
17.0465
 20
-11.2631
 30
0.0
 40
0
 41
0
  0
VERTEX
  8
0
 10
17.0572
 20
-11.2631
 30
0.0
 40
0
 41
0
  0
VERTEX
  8
0
 10
17.0893
 20
-11.2624
 30
0.0
 40
0
 41
0
  0
VERTEX
  8
0
 10
17.1036
 20
-11.2605
 30
0.0
 40
0
 41
0
  0
VERTEX
  8
0
 10
17.0978
 20
-11.2583
 30
0.0
 40
0
 41
0
  0
VERTEX
  8
0
 10
17.0796
 20
-11.2562
 30
0.0
 40
0
 41
0
  0
VERTEX
  8
0
 10
17.0574
 20
-11.255
 30
0.0
 40
0
 41
0
  0
VERTEX
  8
0
 10
17.039
 20
-11.2553
 30
0.0
 40
0
 41
0
  0
VERTEX
  8
0
 10
17.0328
 20
-11.2578
 30
0.0
 40
0
 41
0
  0
VERTEX
  8
0
 10
17.0429
 20
-11.2622
 30
0.0
 40
0
 41
0
  0
VERTEX
  8
0
 10
17.0465
 20
-11.2631
 30
0.0
 40
0
 41
0
  0
SEQEND
 8
0
  0
POLYLINE
  8
0
 62
     0
 66
     1
 10
0
 20
0
 30
0.0
 70
     1
 40
0
 41
0
  0
VERTEX
  8
0
 10
20.7401
 20
-6.58458
 30
0.0
 40
0
 41
0
  0
VERTEX
  8
0
 10
20.735
 20
-6.5835
 30
0.0
 40
0
 41
0
  0
VERTEX
  8
0
 10
20.7165
 20
-6.59603
 30
0.0
 40
0
 41
0
  0
VERTEX
  8
0
 10
20.6808
 20
-6.63493
 30
0.0
 40
0
 41
0
  0
VERTEX
  8
0
 10
20.635
 20
-6.69764
 30
0.0
 40
0
 41
0
  0
VERTEX
  8
0
 10
20.5812
 20
-6.78049
 30
0.0
 40
0
 41
0
  0
VERTEX
  8
0
 10
20.5218
 20
-6.87989
 30
0.0
 40
0
 41
0
  0
VERTEX
  8
0
 10
20.4589
 20
-6.99214
 30
0.0
 40
0
 41
0
  0
VERTEX
  8
0
 10
20.3947
 20
-7.11361
 30
0.0
 40
0
 41
0
  0
VERTEX
  8
0
 10
20.3314
 20
-7.24072
 30
0.0
 40
0
 41
0
  0
VERTEX
  8
0
 10
20.2711
 20
-7.36974
 30
0.0
 40
0
 41
0
  0
VERTEX
  8
0
 10
20.2162
 20
-7.49701
 30
0.0
 40
0
 41
0
  0
VERTEX
  8
0
 10
20.1689
 20
-7.61897
 30
0.0
 40
0
 41
0
  0
VERTEX
  8
0
 10
20.1312
 20
-7.73199
 30
0.0
 40
0
 41
0
  0
VERTEX
  8
0
 10
20.1054
 20
-7.83236
 30
0.0
 40
0
 41
0
  0
VERTEX
  8
0
 10
20.0938
 20
-7.91644
 30
0.0
 40
0
 41
0
  0
VERTEX
  8
0
 10
20.0983
 20
-7.98062
 30
0.0
 40
0
 41
0
  0
VERTEX
  8
0
 10
20.1131
 20
-8.01421
 30
0.0
 40
0
 41
0
  0
VERTEX
  8
0
 10
20.1215
 20
-8.02126
 30
0.0
 40
0
 41
0
  0
VERTEX
  8
0
 10
20.1368
 20
-8.03429
 30
0.0
 40
0
 41
0
  0
VERTEX
  8
0
 10
20.1957
 20
-8.05826
 30
0.0
 40
0
 41
0
  0
VERTEX
  8
0
 10
20.2703
 20
-8.05143
 30
0.0
 40
0
 41
0
  0
VERTEX
  8
0
 10
20.3431
 20
-8.01053
 30
0.0
 40
0
 41
0
  0
VERTEX
  8
0
 10
20.411
 20
-7.94526
 30
0.0
 40
0
 41
0
  0
VERTEX
  8
0
 10
20.4714
 20
-7.86529
 30
0.0
 40
0
 41
0
  0
VERTEX
  8
0
 10
20.5217
 20
-7.78033
 30
0.0
 40
0
 41
0
  0
VERTEX
  8
0
 10
20.559
 20
-7.70014
 30
0.0
 40
0
 41
0
  0
VERTEX
  8
0
 10
20.5771
 20
-7.65121
 30
0.0
 40
0
 41
0
  0
VERTEX
  8
0
 10
20.5811
 20
-7.63444
 30
0.0
 40
0
 41
0
  0
VERTEX
  8
0
 10
20.5987
 20
-7.55154
 30
0.0
 40
0
 41
0
  0
VERTEX
  8
0
 10
20.6672
 20
-7.11638
 30
0.0
 40
0
 41
0
  0
VERTEX
  8
0
 10
20.7268
 20
-6.67204
 30
0.0
 40
0
 41
0
  0
VERTEX
  8
0
 10
20.7401
 20
-6.58458
 30
0.0
 40
0
 41
0
  0
VERTEX
  8
0
 10
20.7387
 20
-6.58458
 30
0.0
 40
0
 41
0
  0
VERTEX
  8
0
 10
20.735
 20
-6.58757
 30
0.0
 40
0
 41
0
  0
VERTEX
  8
0
 10
20.7326
 20
-6.59489
 30
0.0
 40
0
 41
0
  0
VERTEX
  8
0
 10
20.7324
 20
-6.60394
 30
0.0
 40
0
 41
0
  0
VERTEX
  8
0
 10
20.7335
 20
-6.61214
 30
0.0
 40
0
 41
0
  0
VERTEX
  8
0
 10
20.7354
 20
-6.61692
 30
0.0
 40
0
 41
0
  0
VERTEX
  8
0
 10
20.7376
 20
-6.61561
 30
0.0
 40
0
 41
0
  0
VERTEX
  8
0
 10
20.7393
 20
-6.60568
 30
0.0
 40
0
 41
0
  0
VERTEX
  8
0
 10
20.7401
 20
-6.58985
 30
0.0
 40
0
 41
0
  0
VERTEX
  8
0
 10
20.7401
 20
-6.58458
 30
0.0
 40
0
 41
0
  0
SEQEND
 8
0
  0
POLYLINE
  8
0
 62
     0
 66
     1
 10
0
 20
0
 30
0.0
 70
     1
 40
0
 41
0
  0
VERTEX
  8
0
 10
26.4485
 20
-27.7119
 30
0.0
 40
0
 41
0
  0
VERTEX
  8
0
 10
26.4425
 20
-27.6808
 30
0.0
 40
0
 41
0
  0
VERTEX
  8
0
 10
26.4068
 20
-27.5911
 30
0.0
 40
0
 41
0
  0
VERTEX
  8
0
 10
26.3415
 20
-27.5053
 30
0.0
 40
0
 41
0
  0
VERTEX
  8
0
 10
26.2617
 20
-27.4549
 30
0.0
 40
0
 41
0
  0
VERTEX
  8
0
 10
26.1767
 20
-27.4403
 30
0.0
 40
0
 41
0
  0
VERTEX
  8
0
 10
26.0957
 20
-27.4618
 30
0.0
 40
0
 41
0
  0
VERTEX
  8
0
 10
26.0283
 20
-27.5203
 30
0.0
 40
0
 41
0
  0
VERTEX
  8
0
 10
25.9837
 20
-27.6157
 30
0.0
 40
0
 41
0
  0
VERTEX
  8
0
 10
25.9697
 20
-27.7157
 30
0.0
 40
0
 41
0
  0
VERTEX
  8
0
 10
25.9713
 20
-27.7488
 30
0.0
 40
0
 41
0
  0
VERTEX
  8
0
 10
25.9713
 20
-27.7728
 30
0.0
 40
0
 41
0
  0
VERTEX
  8
0
 10
25.9869
 20
-27.8446
 30
0.0
 40
0
 41
0
  0
VERTEX
  8
0
 10
26.0308
 20
-27.9492
 30
0.0
 40
0
 41
0
  0
VERTEX
  8
0
 10
26.0979
 20
-28.0363
 30
0.0
 40
0
 41
0
  0
VERTEX
  8
0
 10
26.1608
 20
-28.0769
 30
0.0
 40
0
 41
0
  0
VERTEX
  8
0
 10
26.1833
 20
-28.0803
 30
0.0
 40
0
 41
0
  0
VERTEX
  8
0
 10
26.1994
 20
-28.0833
 30
0.0
 40
0
 41
0
  0
VERTEX
  8
0
 10
26.2497
 20
-28.0811
 30
0.0
 40
0
 41
0
  0
VERTEX
  8
0
 10
26.3043
 20
-28.059
 30
0.0
 40
0
 41
0
  0
VERTEX
  8
0
 10
26.3479
 20
-28.0187
 30
0.0
 40
0
 41
0
  0
VERTEX
  8
0
 10
26.3821
 20
-27.9651
 30
0.0
 40
0
 41
0
  0
VERTEX
  8
0
 10
26.4081
 20
-27.9029
 30
0.0
 40
0
 41
0
  0
VERTEX
  8
0
 10
26.4268
 20
-27.8368
 30
0.0
 40
0
 41
0
  0
VERTEX
  8
0
 10
26.4399
 20
-27.7715
 30
0.0
 40
0
 41
0
  0
VERTEX
  8
0
 10
26.4467
 20
-27.7268
 30
0.0
 40
0
 41
0
  0
VERTEX
  8
0
 10
26.4485
 20
-27.7119
 30
0.0
 40
0
 41
0
  0
VERTEX
  8
0
 10
26.4485
 20
-27.7106
 30
0.0
 40
0
 41
0
  0
VERTEX
  8
0
 10
26.4476
 20
-27.7067
 30
0.0
 40
0
 41
0
  0
VERTEX
  8
0
 10
26.446
 20
-27.7144
 30
0.0
 40
0
 41
0
  0
VERTEX
  8
0
 10
26.4437
 20
-27.7297
 30
0.0
 40
0
 41
0
  0
VERTEX
  8
0
 10
26.4417
 20
-27.7465
 30
0.0
 40
0
 41
0
  0
VERTEX
  8
0
 10
26.4406
 20
-27.7589
 30
0.0
 40
0
 41
0
  0
VERTEX
  8
0
 10
26.441
 20
-27.7611
 30
0.0
 40
0
 41
0
  0
VERTEX
  8
0
 10
26.4433
 20
-27.7474
 30
0.0
 40
0
 41
0
  0
VERTEX
  8
0
 10
26.4472
 20
-27.7207
 30
0.0
 40
0
 41
0
  0
VERTEX
  8
0
 10
26.4485
 20
-27.7119
 30
0.0
 40
0
 41
0
  0
SEQEND
 8
0
  0
POLYLINE
  8
0
 62
     0
 66
     1
 10
0
 20
0
 30
0.0
 70
     1
 40
0
 41
0
  0
VERTEX
  8
0
 10
25.5118
 20
-30.0697
 30
0.0
 40
0
 41
0
  0
VERTEX
  8
0
 10
25.5135
 20
-30.0643
 30
0.0
 40
0
 41
0
  0
VERTEX
  8
0
 10
25.4985
 20
-30.0418
 30
0.0
 40
0
 41
0
  0
VERTEX
  8
0
 10
25.4518
 20
-30.0019
 30
0.0
 40
0
 41
0
  0
VERTEX
  8
0
 10
25.3815
 20
-29.954
 30
0.0
 40
0
 41
0
  0
VERTEX
  8
0
 10
25.2975
 20
-29.9015
 30
0.0
 40
0
 41
0
  0
VERTEX
  8
0
 10
25.2092
 20
-29.8482
 30
0.0
 40
0
 41
0
  0
VERTEX
  8
0
 10
25.1265
 20
-29.7976
 30
0.0
 40
0
 41
0
  0
VERTEX
  8
0
 10
25.0592
 20
-29.7536
 30
0.0
 40
0
 41
0
  0
VERTEX
  8
0
 10
25.0263
 20
-29.7293
 30
0.0
 40
0
 41
0
  0
VERTEX
  8
0
 10
25.0169
 20
-29.7197
 30
0.0
 40
0
 41
0
  0
VERTEX
  8
0
 10
25.0085
 20
-29.7108
 30
0.0
 40
0
 41
0
  0
VERTEX
  8
0
 10
24.985
 20
-29.6828
 30
0.0
 40
0
 41
0
  0
VERTEX
  8
0
 10
24.944
 20
-29.6325
 30
0.0
 40
0
 41
0
  0
VERTEX
  8
0
 10
24.8964
 20
-29.5756
 30
0.0
 40
0
 41
0
  0
VERTEX
  8
0
 10
24.8446
 20
-29.5193
 30
0.0
 40
0
 41
0
  0
VERTEX
  8
0
 10
24.7911
 20
-29.471
 30
0.0
 40
0
 41
0
  0
VERTEX
  8
0
 10
24.7386
 20
-29.4374
 30
0.0
 40
0
 41
0
  0
VERTEX
  8
0
 10
24.6893
 20
-29.4258
 30
0.0
 40
0
 41
0
  0
VERTEX
  8
0
 10
24.6542
 20
-29.4361
 30
0.0
 40
0
 41
0
  0
VERTEX
  8
0
 10
24.6458
 20
-29.4433
 30
0.0
 40
0
 41
0
  0
VERTEX
  8
0
 10
24.6361
 20
-29.4519
 30
0.0
 40
0
 41
0
  0
VERTEX
  8
0
 10
24.6179
 20
-29.4901
 30
0.0
 40
0
 41
0
  0
VERTEX
  8
0
 10
24.6222
 20
-29.5453
 30
0.0
 40
0
 41
0
  0
VERTEX
  8
0
 10
24.6511
 20
-29.6046
 30
0.0
 40
0
 41
0
  0
VERTEX
  8
0
 10
24.6965
 20
-29.6644
 30
0.0
 40
0
 41
0
  0
VERTEX
  8
0
 10
24.7512
 20
-29.7207
 30
0.0
 40
0
 41
0
  0
VERTEX
  8
0
 10
24.8074
 20
-29.7697
 30
0.0
 40
0
 41
0
  0
VERTEX
  8
0
 10
24.8571
 20
-29.8075
 30
0.0
 40
0
 41
0
  0
VERTEX
  8
0
 10
24.8838
 20
-29.8253
 30
0.0
 40
0
 41
0
  0
VERTEX
  8
0
 10
24.8932
 20
-29.8301
 30
0.0
 40
0
 41
0
  0
VERTEX
  8
0
 10
24.9281
 20
-29.8567
 30
0.0
 40
0
 41
0
  0
VERTEX
  8
0
 10
25.0396
 20
-29.9271
 30
0.0
 40
0
 41
0
  0
VERTEX
  8
0
 10
25.1892
 20
-29.9983
 30
0.0
 40
0
 41
0
  0
VERTEX
  8
0
 10
25.3456
 20
-30.0451
 30
0.0
 40
0
 41
0
  0
VERTEX
  8
0
 10
25.47
 20
-30.0663
 30
0.0
 40
0
 41
0
  0
VERTEX
  8
0
 10
25.5118
 20
-30.0697
 30
0.0
 40
0
 41
0
  0
VERTEX
  8
0
 10
25.5118
 20
-30.0697
 30
0.0
 40
0
 41
0
  0
VERTEX
  8
0
 10
25.5043
 20
-30.0697
 30
0.0
 40
0
 41
0
  0
VERTEX
  8
0
 10
25.4918
 20
-30.0697
 30
0.0
 40
0
 41
0
  0
VERTEX
  8
0
 10
25.4893
 20
-30.0697
 30
0.0
 40
0
 41
0
  0
VERTEX
  8
0
 10
25.5061
 20
-30.0697
 30
0.0
 40
0
 41
0
  0
VERTEX
  8
0
 10
25.5118
 20
-30.0697
 30
0.0
 40
0
 41
0
  0
SEQEND
 8
0
  0
ENDSEC
  0
EOF
