  0
SECTION
  2
HEADER
  9
$ACADVER
  1
AC1009
  9
$EXTMIN
 10
0.0
 20
0.0
 30
0.0
  9
$EXTMAX
 10
1000.0
 20
1000.0
 30
0.0
  9
$FILLMODE
 70
 0
  9
$SPLFRAME
 70
 1
  0
ENDSEC
  0
SECTION
  2
TABLES
  0
TABLE
  2
LAYER
 70
1
  0
LAYER
  2
0
 70
     0
 62
     7
  6
CONTINUOUS
  0
ENDTAB
  0
ENDSEC
  0
SECTION
  2
ENTITIES
  0
POLYLINE
  8
0
 62
     0
 66
     1
 10
0
 20
0
 30
0.0
 70
     1
 40
0
 41
0
  0
VERTEX
  8
0
 10
0.608344
 20
0.00211589
 30
0.0
 40
0
 41
0
  0
VERTEX
  8
0
 10
0.600261
 20
0.0039605
 30
0.0
 40
0
 41
0
  0
VERTEX
  8
0
 10
0.519476
 20
0.0201281
 30
0.0
 40
0
 41
0
  0
VERTEX
  8
0
 10
0.511447
 20
0.0219185
 30
0.0
 40
0
 41
0
  0
VERTEX
  8
0
 10
0.503364
 20
0.0237631
 30
0.0
 40
0
 41
0
  0
VERTEX
  8
0
 10
0.42551
 20
0.0461697
 30
0.0
 40
0
 41
0
  0
VERTEX
  8
0
 10
0.417697
 20
0.0489908
 30
0.0
 40
0
 41
0
  0
VERTEX
  8
0
 10
0.410101
 20
0.051595
 30
0.0
 40
0
 41
0
  0
VERTEX
  8
0
 10
0.333604
 20
0.0781793
 30
0.0
 40
0
 41
0
  0
VERTEX
  8
0
 10
0.326064
 20
0.0812717
 30
0.0
 40
0
 41
0
  0
VERTEX
  8
0
 10
0.318251
 20
0.0846897
 30
0.0
 40
0
 41
0
  0
VERTEX
  8
0
 10
0.241917
 20
0.122179
 30
0.0
 40
0
 41
0
  0
VERTEX
  8
0
 10
0.234375
 20
0.126085
 30
0.0
 40
0
 41
0
  0
VERTEX
  8
0
 10
0.219781
 20
0.133626
 30
0.0
 40
0
 41
0
  0
VERTEX
  8
0
 10
0.148438
 20
0.176704
 30
0.0
 40
0
 41
0
  0
VERTEX
  8
0
 10
0.0833333
 20
0.228678
 30
0.0
 40
0
 41
0
  0
VERTEX
  8
0
 10
0.0718858
 20
0.240668
 30
0.0
 40
0
 41
0
  0
VERTEX
  8
0
 10
0.0664063
 20
0.246419
 30
0.0
 40
0
 41
0
  0
VERTEX
  8
0
 10
0.020779
 20
0.30995
 30
0.0
 40
0
 41
0
  0
VERTEX
  8
0
 10
0.0166558
 20
0.316678
 30
0.0
 40
0
 41
0
  0
VERTEX
  8
0
 10
0.0124783
 20
0.32346
 30
0.0
 40
0
 41
0
  0
VERTEX
  8
0
 10
0.00103082
 20
0.359375
 30
0.0
 40
0
 41
0
  0
VERTEX
  8
0
 10
-5.42535e-05
 20
0.397407
 30
0.0
 40
0
 41
0
  0
VERTEX
  8
0
 10
0.00103082
 20
0.405219
 30
0.0
 40
0
 41
0
  0
VERTEX
  8
0
 10
0.00206164
 20
0.412543
 30
0.0
 40
0
 41
0
  0
VERTEX
  8
0
 10
0.0181749
 20
0.446669
 30
0.0
 40
0
 41
0
  0
VERTEX
  8
0
 10
0.0406358
 20
0.477647
 30
0.0
 40
0
 41
0
  0
VERTEX
  8
0
 10
0.0448133
 20
0.483344
 30
0.0
 40
0
 41
0
  0
VERTEX
  8
0
 10
0.0494792
 20
0.489637
 30
0.0
 40
0
 41
0
  0
VERTEX
  8
0
 10
0.0763889
 20
0.519043
 30
0.0
 40
0
 41
0
  0
VERTEX
  8
0
 10
0.107042
 20
0.545356
 30
0.0
 40
0
 41
0
  0
VERTEX
  8
0
 10
0.113553
 20
0.550022
 30
0.0
 40
0
 41
0
  0
VERTEX
  8
0
 10
0.126573
 20
0.559679
 30
0.0
 40
0
 41
0
  0
VERTEX
  8
0
 10
0.196343
 20
0.60064
 30
0.0
 40
0
 41
0
  0
VERTEX
  8
0
 10
0.268175
 20
0.637967
 30
0.0
 40
0
 41
0
  0
VERTEX
  8
0
 10
0.282281
 20
0.645779
 30
0.0
 40
0
 41
0
  0
VERTEX
  8
0
 10
0.296821
 20
0.654135
 30
0.0
 40
0
 41
0
  0
VERTEX
  8
0
 10
0.37169
 20
0.692871
 30
0.0
 40
0
 41
0
  0
VERTEX
  8
0
 10
0.446072
 20
0.732096
 30
0.0
 40
0
 41
0
  0
VERTEX
  8
0
 10
0.460394
 20
0.740668
 30
0.0
 40
0
 41
0
  0
VERTEX
  8
0
 10
0.467393
 20
0.744846
 30
0.0
 40
0
 41
0
  0
VERTEX
  8
0
 10
0.535157
 20
0.793024
 30
0.0
 40
0
 41
0
  0
VERTEX
  8
0
 10
0.541667
 20
0.79796
 30
0.0
 40
0
 41
0
  0
VERTEX
  8
0
 10
0.547906
 20
0.802897
 30
0.0
 40
0
 41
0
  0
VERTEX
  8
0
 10
0.601292
 20
0.859429
 30
0.0
 40
0
 41
0
  0
VERTEX
  8
0
 10
0.606228
 20
0.865668
 30
0.0
 40
0
 41
0
  0
VERTEX
  8
0
 10
0.611165
 20
0.87169
 30
0.0
 40
0
 41
0
  0
VERTEX
  8
0
 10
0.636285
 20
0.902126
 30
0.0
 40
0
 41
0
  0
VERTEX
  8
0
 10
0.654676
 20
0.936794
 30
0.0
 40
0
 41
0
  0
VERTEX
  8
0
 10
0.65625
 20
0.944824
 30
0.0
 40
0
 41
0
  0
VERTEX
  8
0
 10
0.65804
 20
0.952908
 30
0.0
 40
0
 41
0
  0
VERTEX
  8
0
 10
0.665474
 20
0.994954
 30
0.0
 40
0
 41
0
  0
VERTEX
  8
0
 10
0.668186
 20
1.03754
 30
0.0
 40
0
 41
0
  0
VERTEX
  8
0
 10
0.667697
 20
1.04584
 30
0.0
 40
0
 41
0
  0
VERTEX
  8
0
 10
0.667426
 20
1.04975
 30
0.0
 40
0
 41
0
  0
VERTEX
  8
0
 10
0.666613
 20
1.08881
 30
0.0
 40
0
 41
0
  0
VERTEX
  8
0
 10
0.667697
 20
1.09272
 30
0.0
 40
0
 41
0
  0
VERTEX
  8
0
 10
0.668457
 20
1.0969
 30
0.0
 40
0
 41
0
  0
VERTEX
  8
0
 10
0.684896
 20
1.13666
 30
0.0
 40
0
 41
0
  0
VERTEX
  8
0
 10
0.686469
 20
1.14057
 30
0.0
 40
0
 41
0
  0
VERTEX
  8
0
 10
0.688476
 20
1.14556
 30
0.0
 40
0
 41
0
  0
VERTEX
  8
0
 10
0.693685
 20
1.16097
 30
0.0
 40
0
 41
0
  0
VERTEX
  8
0
 10
0.702203
 20
1.18441
 30
0.0
 40
0
 41
0
  0
VERTEX
  8
0
 10
0.713217
 20
1.20627
 30
0.0
 40
0
 41
0
  0
VERTEX
  8
0
 10
0.723687
 20
1.21913
 30
0.0
 40
0
 41
0
  0
VERTEX
  8
0
 10
0.728136
 20
1.2219
 30
0.0
 40
0
 41
0
  0
VERTEX
  8
0
 10
0.73074
 20
1.22347
 30
0.0
 40
0
 41
0
  0
VERTEX
  8
0
 10
0.755968
 20
1.23676
 30
0.0
 40
0
 41
0
  0
VERTEX
  8
0
 10
0.758356
 20
1.23855
 30
0.0
 40
0
 41
0
  0
VERTEX
  8
0
 10
0.761176
 20
1.24094
 30
0.0
 40
0
 41
0
  0
VERTEX
  8
0
 10
0.786187
 20
1.2698
 30
0.0
 40
0
 41
0
  0
VERTEX
  8
0
 10
0.788519
 20
1.27295
 30
0.0
 40
0
 41
0
  0
VERTEX
  8
0
 10
0.793457
 20
1.27892
 30
0.0
 40
0
 41
0
  0
VERTEX
  8
0
 10
0.847385
 20
1.33626
 30
0.0
 40
0
 41
0
  0
VERTEX
  8
0
 10
0.853136
 20
1.34169
 30
0.0
 40
0
 41
0
  0
VERTEX
  8
0
 10
0.865886
 20
1.35341
 30
0.0
 40
0
 41
0
  0
VERTEX
  8
0
 10
0.93316
 20
1.40722
 30
0.0
 40
0
 41
0
  0
VERTEX
  8
0
 10
1.00418
 20
1.45632
 30
0.0
 40
0
 41
0
  0
VERTEX
  8
0
 10
1.01877
 20
1.46565
 30
0.0
 40
0
 41
0
  0
VERTEX
  8
0
 10
1.04818
 20
1.48415
 30
0.0
 40
0
 41
0
  0
VERTEX
  8
0
 10
1.19802
 20
1.5714
 30
0.0
 40
0
 41
0
  0
VERTEX
  8
0
 10
1.34635
 20
1.66069
 30
0.0
 40
0
 41
0
  0
VERTEX
  8
0
 10
1.375
 20
1.68024
 30
0.0
 40
0
 41
0
  0
VERTEX
  8
0
 10
1.40283
 20
1.69928
 30
0.0
 40
0
 41
0
  0
VERTEX
  8
0
 10
1.5415
 20
1.79656
 30
0.0
 40
0
 41
0
  0
VERTEX
  8
0
 10
1.67133
 20
1.90474
 30
0.0
 40
0
 41
0
  0
VERTEX
  8
0
 10
1.69476
 20
1.92919
 30
0.0
 40
0
 41
0
  0
VERTEX
  8
0
 10
1.70594
 20
1.94092
 30
0.0
 40
0
 41
0
  0
VERTEX
  8
0
 10
1.76172
 20
1.99849
 30
0.0
 40
0
 41
0
  0
VERTEX
  8
0
 10
1.81222
 20
2.06022
 30
0.0
 40
0
 41
0
  0
VERTEX
  8
0
 10
1.82086
 20
2.074
 30
0.0
 40
0
 41
0
  0
VERTEX
  8
0
 10
1.82497
 20
2.08078
 30
0.0
 40
0
 41
0
  0
VERTEX
  8
0
 10
1.86458
 20
2.15033
 30
0.0
 40
0
 41
0
  0
VERTEX
  8
0
 10
1.86774
 20
2.15733
 30
0.0
 40
0
 41
0
  0
VERTEX
  8
0
 10
1.87082
 20
2.16439
 30
0.0
 40
0
 41
0
  0
VERTEX
  8
0
 10
1.89578
 20
2.23936
 30
0.0
 40
0
 41
0
  0
VERTEX
  8
0
 10
1.89789
 20
2.2469
 30
0.0
 40
0
 41
0
  0
VERTEX
  8
0
 10
1.90022
 20
2.25499
 30
0.0
 40
0
 41
0
  0
VERTEX
  8
0
 10
1.90468
 20
2.29601
 30
0.0
 40
0
 41
0
  0
VERTEX
  8
0
 10
1.90494
 20
2.33751
 30
0.0
 40
0
 41
0
  0
VERTEX
  8
0
 10
1.90522
 20
2.34586
 30
0.0
 40
0
 41
0
  0
VERTEX
  8
0
 10
1.90522
 20
2.3584
 30
0.0
 40
0
 41
0
  0
VERTEX
  8
0
 10
1.90013
 20
2.396
 30
0.0
 40
0
 41
0
  0
VERTEX
  8
0
 10
1.88926
 20
2.43549
 30
0.0
 40
0
 41
0
  0
VERTEX
  8
0
 10
1.88644
 20
2.44379
 30
0.0
 40
0
 41
0
  0
VERTEX
  8
0
 10
1.88124
 20
2.45915
 30
0.0
 40
0
 41
0
  0
VERTEX
  8
0
 10
1.84972
 20
2.53179
 30
0.0
 40
0
 41
0
  0
VERTEX
  8
0
 10
1.80675
 20
2.59825
 30
0.0
 40
0
 41
0
  0
VERTEX
  8
0
 10
1.79585
 20
2.61046
 30
0.0
 40
0
 41
0
  0
VERTEX
  8
0
 10
1.78543
 20
2.62218
 30
0.0
 40
0
 41
0
  0
VERTEX
  8
0
 10
1.72835
 20
2.67594
 30
0.0
 40
0
 41
0
  0
VERTEX
  8
0
 10
1.66612
 20
2.72293
 30
0.0
 40
0
 41
0
  0
VERTEX
  8
0
 10
1.6531
 20
2.73128
 30
0.0
 40
0
 41
0
  0
VERTEX
  8
0
 10
1.6466
 20
2.73546
 30
0.0
 40
0
 41
0
  0
VERTEX
  8
0
 10
1.611
 20
2.75293
 30
0.0
 40
0
 41
0
  0
VERTEX
  8
0
 10
1.57394
 20
2.76719
 30
0.0
 40
0
 41
0
  0
VERTEX
  8
0
 10
1.56668
 20
2.76981
 30
0.0
 40
0
 41
0
  0
VERTEX
  8
0
 10
1.56278
 20
2.77111
 30
0.0
 40
0
 41
0
  0
VERTEX
  8
0
 10
1.52474
 20
2.7831
 30
0.0
 40
0
 41
0
  0
VERTEX
  8
0
 10
1.52083
 20
2.7844
 30
0.0
 40
0
 41
0
  0
VERTEX
  8
0
 10
1.51639
 20
2.78569
 30
0.0
 40
0
 41
0
  0
VERTEX
  8
0
 10
1.47418
 20
2.80106
 30
0.0
 40
0
 41
0
  0
VERTEX
  8
0
 10
1.46978
 20
2.80203
 30
0.0
 40
0
 41
0
  0
VERTEX
  8
0
 10
1.46169
 20
2.80442
 30
0.0
 40
0
 41
0
  0
VERTEX
  8
0
 10
1.41911
 20
2.81131
 30
0.0
 40
0
 41
0
  0
VERTEX
  8
0
 10
1.37603
 20
2.81565
 30
0.0
 40
0
 41
0
  0
VERTEX
  8
0
 10
1.36773
 20
2.81668
 30
0.0
 40
0
 41
0
  0
VERTEX
  8
0
 10
1.3591
 20
2.81749
 30
0.0
 40
0
 41
0
  0
VERTEX
  8
0
 10
1.27132
 20
2.82113
 30
0.0
 40
0
 41
0
  0
VERTEX
  8
0
 10
1.26248
 20
2.82086
 30
0.0
 40
0
 41
0
  0
VERTEX
  8
0
 10
1.25385
 20
2.82036
 30
0.0
 40
0
 41
0
  0
VERTEX
  8
0
 10
1.169
 20
2.80919
 30
0.0
 40
0
 41
0
  0
VERTEX
  8
0
 10
1.16043
 20
2.80838
 30
0.0
 40
0
 41
0
  0
VERTEX
  8
0
 10
1.1518
 20
2.80761
 30
0.0
 40
0
 41
0
  0
VERTEX
  8
0
 10
1.11062
 20
2.79937
 30
0.0
 40
0
 41
0
  0
VERTEX
  8
0
 10
1.07053
 20
2.78851
 30
0.0
 40
0
 41
0
  0
VERTEX
  8
0
 10
1.0625
 20
2.7864
 30
0.0
 40
0
 41
0
  0
VERTEX
  8
0
 10
1.04633
 20
2.78201
 30
0.0
 40
0
 41
0
  0
VERTEX
  8
0
 10
0.96951
 20
2.75304
 30
0.0
 40
0
 41
0
  0
VERTEX
  8
0
 10
0.895779
 20
2.71724
 30
0.0
 40
0
 41
0
  0
VERTEX
  8
0
 10
0.881239
 20
2.70942
 30
0.0
 40
0
 41
0
  0
VERTEX
  8
0
 10
0.867133
 20
2.70188
 30
0.0
 40
0
 41
0
  0
VERTEX
  8
0
 10
0.798665
 20
2.65761
 30
0.0
 40
0
 41
0
  0
VERTEX
  8
0
 10
0.735406
 20
2.60607
 30
0.0
 40
0
 41
0
  0
VERTEX
  8
0
 10
0.723958
 20
2.59483
 30
0.0
 40
0
 41
0
  0
VERTEX
  8
0
 10
0.71224
 20
2.58339
 30
0.0
 40
0
 41
0
  0
VERTEX
  8
0
 10
0.658421
 20
2.52268
 30
0.0
 40
0
 41
0
  0
VERTEX
  8
0
 10
0.611436
 20
2.45676
 30
0.0
 40
0
 41
0
  0
VERTEX
  8
0
 10
0.603136
 20
2.44265
 30
0.0
 40
0
 41
0
  0
VERTEX
  8
0
 10
0.598958
 20
2.43539
 30
0.0
 40
0
 41
0
  0
VERTEX
  8
0
 10
0.561686
 20
2.36074
 30
0.0
 40
0
 41
0
  0
VERTEX
  8
0
 10
0.558322
 20
2.35314
 30
0.0
 40
0
 41
0
  0
VERTEX
  8
0
 10
0.557781
 20
2.35211
 30
0.0
 40
0
 41
0
  0
VERTEX
  8
0
 10
0.552572
 20
2.34169
 30
0.0
 40
0
 41
0
  0
VERTEX
  8
0
 10
0.549479
 20
2.33132
 30
0.0
 40
0
 41
0
  0
VERTEX
  8
0
 10
0.550022
 20
2.33024
 30
0.0
 40
0
 41
0
  0
VERTEX
  8
0
 10
0.55051
 20
2.32921
 30
0.0
 40
0
 41
0
  0
VERTEX
  8
0
 10
0.556478
 20
2.3265
 30
0.0
 40
0
 41
0
  0
VERTEX
  8
0
 10
0.563531
 20
2.32531
 30
0.0
 40
0
 41
0
  0
VERTEX
  8
0
 10
0.564561
 20
2.32503
 30
0.0
 40
0
 41
0
  0
VERTEX
  8
0
 10
0.567925
 20
2.32351
 30
0.0
 40
0
 41
0
  0
VERTEX
  8
0
 10
0.582411
 20
2.31136
 30
0.0
 40
0
 41
0
  0
VERTEX
  8
0
 10
0.595324
 20
2.29665
 30
0.0
 40
0
 41
0
  0
VERTEX
  8
0
 10
0.597928
 20
2.29378
 30
0.0
 40
0
 41
0
  0
VERTEX
  8
0
 10
0.603353
 20
2.28782
 30
0.0
 40
0
 41
0
  0
VERTEX
  8
0
 10
0.662489
 20
2.23107
 30
0.0
 40
0
 41
0
  0
VERTEX
  8
0
 10
0.668728
 20
2.22607
 30
0.0
 40
0
 41
0
  0
VERTEX
  8
0
 10
0.670518
 20
2.22456
 30
0.0
 40
0
 41
0
  0
VERTEX
  8
0
 10
0.682671
 20
2.21425
 30
0.0
 40
0
 41
0
  0
VERTEX
  8
0
 10
0.696343
 20
2.20654
 30
0.0
 40
0
 41
0
  0
VERTEX
  8
0
 10
0.698947
 20
2.20628
 30
0.0
 40
0
 41
0
  0
VERTEX
  8
0
 10
0.701768
 20
2.20606
 30
0.0
 40
0
 41
0
  0
VERTEX
  8
0
 10
0.71289
 20
2.21414
 30
0.0
 40
0
 41
0
  0
VERTEX
  8
0
 10
0.721354
 20
2.22635
 30
0.0
 40
0
 41
0
  0
VERTEX
  8
0
 10
0.722928
 20
2.22814
 30
0.0
 40
0
 41
0
  0
VERTEX
  8
0
 10
0.727593
 20
2.23492
 30
0.0
 40
0
 41
0
  0
VERTEX
  8
0
 10
0.776042
 20
2.3029
 30
0.0
 40
0
 41
0
  0
VERTEX
  8
0
 10
0.78125
 20
2.3094
 30
0.0
 40
0
 41
0
  0
VERTEX
  8
0
 10
0.784071
 20
2.31278
 30
0.0
 40
0
 41
0
  0
VERTEX
  8
0
 10
0.811686
 20
2.34771
 30
0.0
 40
0
 41
0
  0
VERTEX
  8
0
 10
0.814561
 20
2.35107
 30
0.0
 40
0
 41
0
  0
VERTEX
  8
0
 10
0.816351
 20
2.35314
 30
0.0
 40
0
 41
0
  0
VERTEX
  8
0
 10
0.827582
 20
2.36589
 30
0.0
 40
0
 41
0
  0
VERTEX
  8
0
 10
0.830078
 20
2.38015
 30
0.0
 40
0
 41
0
  0
VERTEX
  8
0
 10
0.828125
 20
2.38232
 30
0.0
 40
0
 41
0
  0
VERTEX
  8
0
 10
0.82601
 20
2.38471
 30
0.0
 40
0
 41
0
  0
VERTEX
  8
0
 10
0.810004
 20
2.39367
 30
0.0
 40
0
 41
0
  0
VERTEX
  8
0
 10
0.792426
 20
2.40001
 30
0.0
 40
0
 41
0
  0
VERTEX
  8
0
 10
0.789606
 20
2.40099
 30
0.0
 40
0
 41
0
  0
VERTEX
  8
0
 10
0.785428
 20
2.40283
 30
0.0
 40
0
 41
0
  0
VERTEX
  8
0
 10
0.767307
 20
2.40918
 30
0.0
 40
0
 41
0
  0
VERTEX
  8
0
 10
0.749729
 20
2.40603
 30
0.0
 40
0
 41
0
  0
VERTEX
  8
0
 10
0.745822
 20
2.40315
 30
0.0
 40
0
 41
0
  0
VERTEX
  8
0
 10
0.743978
 20
2.40186
 30
0.0
 40
0
 41
0
  0
VERTEX
  8
0
 10
0.732801
 20
2.39513
 30
0.0
 40
0
 41
0
  0
VERTEX
  8
0
 10
0.721354
 20
2.39594
 30
0.0
 40
0
 41
0
  0
VERTEX
  8
0
 10
0.719781
 20
2.39794
 30
0.0
 40
0
 41
0
  0
VERTEX
  8
0
 10
0.717665
 20
2.40001
 30
0.0
 40
0
 41
0
  0
VERTEX
  8
0
 10
0.718588
 20
2.41618
 30
0.0
 40
0
 41
0
  0
VERTEX
  8
0
 10
0.725206
 20
2.43235
 30
0.0
 40
0
 41
0
  0
VERTEX
  8
0
 10
0.726019
 20
2.4344
 30
0.0
 40
0
 41
0
  0
VERTEX
  8
0
 10
0.728624
 20
2.44015
 30
0.0
 40
0
 41
0
  0
VERTEX
  8
0
 10
0.746744
 20
2.47076
 30
0.0
 40
0
 41
0
  0
VERTEX
  8
0
 10
0.772678
 20
2.49246
 30
0.0
 40
0
 41
0
  0
VERTEX
  8
0
 10
0.779189
 20
2.49376
 30
0.0
 40
0
 41
0
  0
VERTEX
  8
0
 10
0.787489
 20
2.49561
 30
0.0
 40
0
 41
0
  0
VERTEX
  8
0
 10
0.82525
 20
2.48768
 30
0.0
 40
0
 41
0
  0
VERTEX
  8
0
 10
0.859864
 20
2.46772
 30
0.0
 40
0
 41
0
  0
VERTEX
  8
0
 10
0.866644
 20
2.46349
 30
0.0
 40
0
 41
0
  0
VERTEX
  8
0
 10
0.869249
 20
2.46197
 30
0.0
 40
0
 41
0
  0
VERTEX
  8
0
 10
0.885254
 20
2.45171
 30
0.0
 40
0
 41
0
  0
VERTEX
  8
0
 10
0.902832
 20
2.44613
 30
0.0
 40
0
 41
0
  0
VERTEX
  8
0
 10
0.90625
 20
2.44689
 30
0.0
 40
0
 41
0
  0
VERTEX
  8
0
 10
0.909343
 20
2.44769
 30
0.0
 40
0
 41
0
  0
VERTEX
  8
0
 10
0.925726
 20
2.45953
 30
0.0
 40
0
 41
0
  0
VERTEX
  8
0
 10
0.941135
 20
2.47401
 30
0.0
 40
0
 41
0
  0
VERTEX
  8
0
 10
0.943739
 20
2.47607
 30
0.0
 40
0
 41
0
  0
VERTEX
  8
0
 10
0.949707
 20
2.48128
 30
0.0
 40
0
 41
0
  0
VERTEX
  8
0
 10
1.01405
 20
2.53
 30
0.0
 40
0
 41
0
  0
VERTEX
  8
0
 10
1.02083
 20
2.5344
 30
0.0
 40
0
 41
0
  0
VERTEX
  8
0
 10
1.02783
 20
2.53911
 30
0.0
 40
0
 41
0
  0
VERTEX
  8
0
 10
1.10053
 20
2.57818
 30
0.0
 40
0
 41
0
  0
VERTEX
  8
0
 10
1.10834
 20
2.58128
 30
0.0
 40
0
 41
0
  0
VERTEX
  8
0
 10
1.11068
 20
2.58236
 30
0.0
 40
0
 41
0
  0
VERTEX
  8
0
 10
1.12392
 20
2.58751
 30
0.0
 40
0
 41
0
  0
VERTEX
  8
0
 10
1.14936
 20
2.59586
 30
0.0
 40
0
 41
0
  0
VERTEX
  8
0
 10
1.17377
 20
2.60038
 30
0.0
 40
0
 41
0
  0
VERTEX
  8
0
 10
1.18593
 20
2.5969
 30
0.0
 40
0
 41
0
  0
VERTEX
  8
0
 10
1.18647
 20
2.59483
 30
0.0
 40
0
 41
0
  0
VERTEX
  8
0
 10
1.1869
 20
2.59304
 30
0.0
 40
0
 41
0
  0
VERTEX
  8
0
 10
1.18305
 20
2.58621
 30
0.0
 40
0
 41
0
  0
VERTEX
  8
0
 10
1.17209
 20
2.57813
 30
0.0
 40
0
 41
0
  0
VERTEX
  8
0
 10
1.15918
 20
2.57167
 30
0.0
 40
0
 41
0
  0
VERTEX
  8
0
 10
1.1518
 20
2.56847
 30
0.0
 40
0
 41
0
  0
VERTEX
  8
0
 10
1.15001
 20
2.56765
 30
0.0
 40
0
 41
0
  0
VERTEX
  8
0
 10
1.14632
 20
2.5656
 30
0.0
 40
0
 41
0
  0
VERTEX
  8
0
 10
1.10986
 20
2.54486
 30
0.0
 40
0
 41
0
  0
VERTEX
  8
0
 10
1.10623
 20
2.54275
 30
0.0
 40
0
 41
0
  0
VERTEX
  8
0
 10
1.09918
 20
2.53836
 30
0.0
 40
0
 41
0
  0
VERTEX
  8
0
 10
1.03125
 20
2.48807
 30
0.0
 40
0
 41
0
  0
VERTEX
  8
0
 10
1.02501
 20
2.48232
 30
0.0
 40
0
 41
0
  0
VERTEX
  8
0
 10
1.02214
 20
2.47999
 30
0.0
 40
0
 41
0
  0
VERTEX
  8
0
 10
0.994521
 20
2.45546
 30
0.0
 40
0
 41
0
  0
VERTEX
  8
0
 10
0.991644
 20
2.45307
 30
0.0
 40
0
 41
0
  0
VERTEX
  8
0
 10
0.98904
 20
2.45079
 30
0.0
 40
0
 41
0
  0
VERTEX
  8
0
 10
0.973415
 20
2.43821
 30
0.0
 40
0
 41
0
  0
VERTEX
  8
0
 10
0.959853
 20
2.42399
 30
0.0
 40
0
 41
0
  0
VERTEX
  8
0
 10
0.958333
 20
2.42085
 30
0.0
 40
0
 41
0
  0
VERTEX
  8
0
 10
0.957032
 20
2.41808
 30
0.0
 40
0
 41
0
  0
VERTEX
  8
0
 10
0.96186
 20
2.40565
 30
0.0
 40
0
 41
0
  0
VERTEX
  8
0
 10
0.974718
 20
2.3974
 30
0.0
 40
0
 41
0
  0
VERTEX
  8
0
 10
0.977106
 20
2.39578
 30
0.0
 40
0
 41
0
  0
VERTEX
  8
0
 10
0.980469
 20
2.39372
 30
0.0
 40
0
 41
0
  0
VERTEX
  8
0
 10
0.998643
 20
2.38163
 30
0.0
 40
0
 41
0
  0
VERTEX
  8
0
 10
1.01796
 20
2.37104
 30
0.0
 40
0
 41
0
  0
VERTEX
  8
0
 10
1.02186
 20
2.36974
 30
0.0
 40
0
 41
0
  0
VERTEX
  8
0
 10
1.02523
 20
2.36843
 30
0.0
 40
0
 41
0
  0
VERTEX
  8
0
 10
1.03841
 20
2.37229
 30
0.0
 40
0
 41
0
  0
VERTEX
  8
0
 10
1.04894
 20
2.3839
 30
0.0
 40
0
 41
0
  0
VERTEX
  8
0
 10
1.05105
 20
2.3865
 30
0.0
 40
0
 41
0
  0
VERTEX
  8
0
 10
1.05387
 20
2.38965
 30
0.0
 40
0
 41
0
  0
VERTEX
  8
0
 10
1.08073
 20
2.42193
 30
0.0
 40
0
 41
0
  0
VERTEX
  8
0
 10
1.08333
 20
2.42503
 30
0.0
 40
0
 41
0
  0
VERTEX
  8
0
 10
1.08903
 20
2.43153
 30
0.0
 40
0
 41
0
  0
VERTEX
  8
0
 10
1.15099
 20
2.493
 30
0.0
 40
0
 41
0
  0
VERTEX
  8
0
 10
1.15728
 20
2.49897
 30
0.0
 40
0
 41
0
  0
VERTEX
  8
0
 10
1.15907
 20
2.50082
 30
0.0
 40
0
 41
0
  0
VERTEX
  8
0
 10
1.17052
 20
2.51124
 30
0.0
 40
0
 41
0
  0
VERTEX
  8
0
 10
1.19282
 20
2.52974
 30
0.0
 40
0
 41
0
  0
VERTEX
  8
0
 10
1.21452
 20
2.54351
 30
0.0
 40
0
 41
0
  0
VERTEX
  8
0
 10
1.22575
 20
2.54269
 30
0.0
 40
0
 41
0
  0
VERTEX
  8
0
 10
1.22602
 20
2.54161
 30
0.0
 40
0
 41
0
  0
VERTEX
  8
0
 10
1.22651
 20
2.53901
 30
0.0
 40
0
 41
0
  0
VERTEX
  8
0
 10
1.21663
 20
2.52344
 30
0.0
 40
0
 41
0
  0
VERTEX
  8
0
 10
1.20258
 20
2.50993
 30
0.0
 40
0
 41
0
  0
VERTEX
  8
0
 10
1.20106
 20
2.50836
 30
0.0
 40
0
 41
0
  0
VERTEX
  8
0
 10
1.19792
 20
2.50499
 30
0.0
 40
0
 41
0
  0
VERTEX
  8
0
 10
1.16846
 20
2.47114
 30
0.0
 40
0
 41
0
  0
VERTEX
  8
0
 10
1.16564
 20
2.46772
 30
0.0
 40
0
 41
0
  0
VERTEX
  8
0
 10
1.16016
 20
2.46149
 30
0.0
 40
0
 41
0
  0
VERTEX
  8
0
 10
1.10731
 20
2.39708
 30
0.0
 40
0
 41
0
  0
VERTEX
  8
0
 10
1.10211
 20
2.39057
 30
0.0
 40
0
 41
0
  0
VERTEX
  8
0
 10
1.09972
 20
2.38775
 30
0.0
 40
0
 41
0
  0
VERTEX
  8
0
 10
1.08502
 20
2.37147
 30
0.0
 40
0
 41
0
  0
VERTEX
  8
0
 10
1.07292
 20
2.35368
 30
0.0
 40
0
 41
0
  0
VERTEX
  8
0
 10
1.07189
 20
2.35004
 30
0.0
 40
0
 41
0
  0
VERTEX
  8
0
 10
1.07086
 20
2.34685
 30
0.0
 40
0
 41
0
  0
VERTEX
  8
0
 10
1.07563
 20
2.33479
 30
0.0
 40
0
 41
0
  0
VERTEX
  8
0
 10
1.08718
 20
2.32661
 30
0.0
 40
0
 41
0
  0
VERTEX
  8
0
 10
1.08957
 20
2.32503
 30
0.0
 40
0
 41
0
  0
VERTEX
  8
0
 10
1.09267
 20
2.32297
 30
0.0
 40
0
 41
0
  0
VERTEX
  8
0
 10
1.12679
 20
2.30132
 30
0.0
 40
0
 41
0
  0
VERTEX
  8
0
 10
1.13021
 20
2.30003
 30
0.0
 40
0
 41
0
  0
VERTEX
  8
0
 10
1.13352
 20
2.2991
 30
0.0
 40
0
 41
0
  0
VERTEX
  8
0
 10
1.14583
 20
2.30447
 30
0.0
 40
0
 41
0
  0
VERTEX
  8
0
 10
1.15365
 20
2.31722
 30
0.0
 40
0
 41
0
  0
VERTEX
  8
0
 10
1.15522
 20
2.31982
 30
0.0
 40
0
 41
0
  0
VERTEX
  8
0
 10
1.15934
 20
2.32633
 30
0.0
 40
0
 41
0
  0
VERTEX
  8
0
 10
1.18213
 20
2.3559
 30
0.0
 40
0
 41
0
  0
VERTEX
  8
0
 10
1.20855
 20
2.38183
 30
0.0
 40
0
 41
0
  0
VERTEX
  8
0
 10
1.21457
 20
2.3865
 30
0.0
 40
0
 41
0
  0
VERTEX
  8
0
 10
1.21739
 20
2.38883
 30
0.0
 40
0
 41
0
  0
VERTEX
  8
0
 10
1.23904
 20
2.41151
 30
0.0
 40
0
 41
0
  0
VERTEX
  8
0
 10
1.24061
 20
2.41461
 30
0.0
 40
0
 41
0
  0
VERTEX
  8
0
 10
1.2424
 20
2.41829
 30
0.0
 40
0
 41
0
  0
VERTEX
  8
0
 10
1.26145
 20
2.45469
 30
0.0
 40
0
 41
0
  0
VERTEX
  8
0
 10
1.26356
 20
2.45828
 30
0.0
 40
0
 41
0
  0
VERTEX
  8
0
 10
1.2672
 20
2.46457
 30
0.0
 40
0
 41
0
  0
VERTEX
  8
0
 10
1.28917
 20
2.49274
 30
0.0
 40
0
 41
0
  0
VERTEX
  8
0
 10
1.31586
 20
2.51665
 30
0.0
 40
0
 41
0
  0
VERTEX
  8
0
 10
1.32189
 20
2.52078
 30
0.0
 40
0
 41
0
  0
VERTEX
  8
0
 10
1.33165
 20
2.52778
 30
0.0
 40
0
 41
0
  0
VERTEX
  8
0
 10
1.36279
 20
2.54633
 30
0.0
 40
0
 41
0
  0
VERTEX
  8
0
 10
1.40881
 20
2.56771
 30
0.0
 40
0
 41
0
  0
VERTEX
  8
0
 10
1.45719
 20
2.58208
 30
0.0
 40
0
 41
0
  0
VERTEX
  8
0
 10
1.49322
 20
2.58686
 30
0.0
 40
0
 41
0
  0
VERTEX
  8
0
 10
1.50521
 20
2.58649
 30
0.0
 40
0
 41
0
  0
VERTEX
  8
0
 10
1.51351
 20
2.58626
 30
0.0
 40
0
 41
0
  0
VERTEX
  8
0
 10
1.55333
 20
2.57829
 30
0.0
 40
0
 41
0
  0
VERTEX
  8
0
 10
1.59218
 20
2.56461
 30
0.0
 40
0
 41
0
  0
VERTEX
  8
0
 10
1.59999
 20
2.56147
 30
0.0
 40
0
 41
0
  0
VERTEX
  8
0
 10
1.60672
 20
2.55886
 30
0.0
 40
0
 41
0
  0
VERTEX
  8
0
 10
1.63737
 20
2.54312
 30
0.0
 40
0
 41
0
  0
VERTEX
  8
0
 10
1.66536
 20
2.52274
 30
0.0
 40
0
 41
0
  0
VERTEX
  8
0
 10
1.67085
 20
2.51774
 30
0.0
 40
0
 41
0
  0
VERTEX
  8
0
 10
1.67681
 20
2.51232
 30
0.0
 40
0
 41
0
  0
VERTEX
  8
0
 10
1.70111
 20
2.48389
 30
0.0
 40
0
 41
0
  0
VERTEX
  8
0
 10
1.71978
 20
2.45133
 30
0.0
 40
0
 41
0
  0
VERTEX
  8
0
 10
1.72293
 20
2.44379
 30
0.0
 40
0
 41
0
  0
VERTEX
  8
0
 10
1.72368
 20
2.442
 30
0.0
 40
0
 41
0
  0
VERTEX
  8
0
 10
1.7276
 20
2.42942
 30
0.0
 40
0
 41
0
  0
VERTEX
  8
0
 10
1.72515
 20
2.41786
 30
0.0
 40
0
 41
0
  0
VERTEX
  8
0
 10
1.72293
 20
2.41661
 30
0.0
 40
0
 41
0
  0
VERTEX
  8
0
 10
1.72032
 20
2.4151
 30
0.0
 40
0
 41
0
  0
VERTEX
  8
0
 10
1.70182
 20
2.41971
 30
0.0
 40
0
 41
0
  0
VERTEX
  8
0
 10
1.68435
 20
2.42996
 30
0.0
 40
0
 41
0
  0
VERTEX
  8
0
 10
1.68229
 20
2.43126
 30
0.0
 40
0
 41
0
  0
VERTEX
  8
0
 10
1.67524
 20
2.43517
 30
0.0
 40
0
 41
0
  0
VERTEX
  8
0
 10
1.64111
 20
2.45253
 30
0.0
 40
0
 41
0
  0
VERTEX
  8
0
 10
1.60493
 20
2.46517
 30
0.0
 40
0
 41
0
  0
VERTEX
  8
0
 10
1.5969
 20
2.46669
 30
0.0
 40
0
 41
0
  0
VERTEX
  8
0
 10
1.58882
 20
2.46826
 30
0.0
 40
0
 41
0
  0
VERTEX
  8
0
 10
1.5479
 20
2.47151
 30
0.0
 40
0
 41
0
  0
VERTEX
  8
0
 10
1.507
 20
2.46696
 30
0.0
 40
0
 41
0
  0
VERTEX
  8
0
 10
1.49897
 20
2.46463
 30
0.0
 40
0
 41
0
  0
VERTEX
  8
0
 10
1.48785
 20
2.46137
 30
0.0
 40
0
 41
0
  0
VERTEX
  8
0
 10
1.45617
 20
2.44581
 30
0.0
 40
0
 41
0
  0
VERTEX
  8
0
 10
1.41857
 20
2.41775
 30
0.0
 40
0
 41
0
  0
VERTEX
  8
0
 10
1.38628
 20
2.38351
 30
0.0
 40
0
 41
0
  0
VERTEX
  8
0
 10
1.36551
 20
2.35562
 30
0.0
 40
0
 41
0
  0
VERTEX
  8
0
 10
1.35938
 20
2.34586
 30
0.0
 40
0
 41
0
  0
VERTEX
  8
0
 10
1.34619
 20
2.32497
 30
0.0
 40
0
 41
0
  0
VERTEX
  8
0
 10
1.3208
 20
2.25336
 30
0.0
 40
0
 41
0
  0
VERTEX
  8
0
 10
1.30648
 20
2.15474
 30
0.0
 40
0
 41
0
  0
VERTEX
  8
0
 10
1.30192
 20
2.05382
 30
0.0
 40
0
 41
0
  0
VERTEX
  8
0
 10
1.29682
 20
1.97885
 30
0.0
 40
0
 41
0
  0
VERTEX
  8
0
 10
1.2927
 20
1.95421
 30
0.0
 40
0
 41
0
  0
VERTEX
  8
0
 10
1.2914
 20
1.94613
 30
0.0
 40
0
 41
0
  0
VERTEX
  8
0
 10
1.27056
 20
1.86307
 30
0.0
 40
0
 41
0
  0
VERTEX
  8
0
 10
1.26769
 20
1.85525
 30
0.0
 40
0
 41
0
  0
VERTEX
  8
0
 10
1.26508
 20
1.84799
 30
0.0
 40
0
 41
0
  0
VERTEX
  8
0
 10
1.24696
 20
1.81407
 30
0.0
 40
0
 41
0
  0
VERTEX
  8
0
 10
1.22521
 20
1.78228
 30
0.0
 40
0
 41
0
  0
VERTEX
  8
0
 10
1.22081
 20
1.77599
 30
0.0
 40
0
 41
0
  0
VERTEX
  8
0
 10
1.21088
 20
1.76247
 30
0.0
 40
0
 41
0
  0
VERTEX
  8
0
 10
1.15321
 20
1.70822
 30
0.0
 40
0
 41
0
  0
VERTEX
  8
0
 10
1.08567
 20
1.66596
 30
0.0
 40
0
 41
0
  0
VERTEX
  8
0
 10
1.07086
 20
1.65836
 30
0.0
 40
0
 41
0
  0
VERTEX
  8
0
 10
1.05572
 20
1.65056
 30
0.0
 40
0
 41
0
  0
VERTEX
  8
0
 10
0.977214
 20
1.62181
 30
0.0
 40
0
 41
0
  0
VERTEX
  8
0
 10
0.895074
 20
1.6091
 30
0.0
 40
0
 41
0
  0
VERTEX
  8
0
 10
0.878147
 20
1.60932
 30
0.0
 40
0
 41
0
  0
VERTEX
  8
0
 10
0.865235
 20
1.60932
 30
0.0
 40
0
 41
0
  0
VERTEX
  8
0
 10
0.82666
 20
1.60846
 30
0.0
 40
0
 41
0
  0
VERTEX
  8
0
 10
0.784343
 20
1.61019
 30
0.0
 40
0
 41
0
  0
VERTEX
  8
0
 10
0.776042
 20
1.61149
 30
0.0
 40
0
 41
0
  0
VERTEX
  8
0
 10
0.768446
 20
1.61257
 30
0.0
 40
0
 41
0
  0
VERTEX
  8
0
 10
0.731879
 20
1.62321
 30
0.0
 40
0
 41
0
  0
VERTEX
  8
0
 10
0.695801
 20
1.63699
 30
0.0
 40
0
 41
0
  0
VERTEX
  8
0
 10
0.688531
 20
1.6396
 30
0.0
 40
0
 41
0
  0
VERTEX
  8
0
 10
0.666069
 20
1.64822
 30
0.0
 40
0
 41
0
  0
VERTEX
  8
0
 10
0.603678
 20
1.68701
 30
0.0
 40
0
 41
0
  0
VERTEX
  8
0
 10
0.533311
 20
1.75483
 30
0.0
 40
0
 41
0
  0
VERTEX
  8
0
 10
0.479329
 20
1.83692
 30
0.0
 40
0
 41
0
  0
VERTEX
  8
0
 10
0.450196
 20
1.90386
 30
0.0
 40
0
 41
0
  0
VERTEX
  8
0
 10
0.443739
 20
1.92703
 30
0.0
 40
0
 41
0
  0
VERTEX
  8
0
 10
0.442654
 20
1.93072
 30
0.0
 40
0
 41
0
  0
VERTEX
  8
0
 10
0.435113
 20
1.96826
 30
0.0
 40
0
 41
0
  0
VERTEX
  8
0
 10
0.434353
 20
1.9719
 30
0.0
 40
0
 41
0
  0
VERTEX
  8
0
 10
0.433322
 20
1.97581
 30
0.0
 40
0
 41
0
  0
VERTEX
  8
0
 10
0.422635
 20
2.01486
 30
0.0
 40
0
 41
0
  0
VERTEX
  8
0
 10
0.421875
 20
2.01878
 30
0.0
 40
0
 41
0
  0
VERTEX
  8
0
 10
0.420574
 20
2.0274
 30
0.0
 40
0
 41
0
  0
VERTEX
  8
0
 10
0.419542
 20
2.11436
 30
0.0
 40
0
 41
0
  0
VERTEX
  8
0
 10
0.419814
 20
2.12294
 30
0.0
 40
0
 41
0
  0
VERTEX
  8
0
 10
0.419814
 20
2.13569
 30
0.0
 40
0
 41
0
  0
VERTEX
  8
0
 10
0.424479
 20
2.17389
 30
0.0
 40
0
 41
0
  0
VERTEX
  8
0
 10
0.433322
 20
2.21533
 30
0.0
 40
0
 41
0
  0
VERTEX
  8
0
 10
0.435439
 20
2.2239
 30
0.0
 40
0
 41
0
  0
VERTEX
  8
0
 10
0.437229
 20
2.2315
 30
0.0
 40
0
 41
0
  0
VERTEX
  8
0
 10
0.443847
 20
2.26981
 30
0.0
 40
0
 41
0
  0
VERTEX
  8
0
 10
0.453125
 20
2.30811
 30
0.0
 40
0
 41
0
  0
VERTEX
  8
0
 10
0.456272
 20
2.31565
 30
0.0
 40
0
 41
0
  0
VERTEX
  8
0
 10
0.462511
 20
2.33106
 30
0.0
 40
0
 41
0
  0
VERTEX
  8
0
 10
0.495281
 20
2.40653
 30
0.0
 40
0
 41
0
  0
VERTEX
  8
0
 10
0.534343
 20
2.47894
 30
0.0
 40
0
 41
0
  0
VERTEX
  8
0
 10
0.543728
 20
2.49274
 30
0.0
 40
0
 41
0
  0
VERTEX
  8
0
 10
0.552843
 20
2.50603
 30
0.0
 40
0
 41
0
  0
VERTEX
  8
0
 10
0.602431
 20
2.56799
 30
0.0
 40
0
 41
0
  0
VERTEX
  8
0
 10
0.657824
 20
2.62472
 30
0.0
 40
0
 41
0
  0
VERTEX
  8
0
 10
0.669814
 20
2.63536
 30
0.0
 40
0
 41
0
  0
VERTEX
  8
0
 10
0.694282
 20
2.65728
 30
0.0
 40
0
 41
0
  0
VERTEX
  8
0
 10
0.830296
 20
2.74897
 30
0.0
 40
0
 41
0
  0
VERTEX
  8
0
 10
0.979383
 20
2.81765
 30
0.0
 40
0
 41
0
  0
VERTEX
  8
0
 10
1.01042
 20
2.82807
 30
0.0
 40
0
 41
0
  0
VERTEX
  8
0
 10
1.01823
 20
2.83068
 30
0.0
 40
0
 41
0
  0
VERTEX
  8
0
 10
1.09684
 20
2.85081
 30
0.0
 40
0
 41
0
  0
VERTEX
  8
0
 10
1.1052
 20
2.85211
 30
0.0
 40
0
 41
0
  0
VERTEX
  8
0
 10
1.11323
 20
2.8534
 30
0.0
 40
0
 41
0
  0
VERTEX
  8
0
 10
1.19477
 20
2.87164
 30
0.0
 40
0
 41
0
  0
VERTEX
  8
0
 10
1.20313
 20
2.87294
 30
0.0
 40
0
 41
0
  0
VERTEX
  8
0
 10
1.20703
 20
2.87349
 30
0.0
 40
0
 41
0
  0
VERTEX
  8
0
 10
1.24788
 20
2.87967
 30
0.0
 40
0
 41
0
  0
VERTEX
  8
0
 10
1.25206
 20
2.88015
 30
0.0
 40
0
 41
0
  0
VERTEX
  8
0
 10
1.25624
 20
2.88069
 30
0.0
 40
0
 41
0
  0
VERTEX
  8
0
 10
1.2914
 20
2.88015
 30
0.0
 40
0
 41
0
  0
VERTEX
  8
0
 10
1.30311
 20
2.88015
 30
0.0
 40
0
 41
0
  0
VERTEX
  8
0
 10
1.32758
 20
2.88015
 30
0.0
 40
0
 41
0
  0
VERTEX
  8
0
 10
1.39296
 20
2.86931
 30
0.0
 40
0
 41
0
  0
VERTEX
  8
0
 10
1.40104
 20
2.86774
 30
0.0
 40
0
 41
0
  0
VERTEX
  8
0
 10
1.40494
 20
2.86697
 30
0.0
 40
0
 41
0
  0
VERTEX
  8
0
 10
1.44299
 20
2.85628
 30
0.0
 40
0
 41
0
  0
VERTEX
  8
0
 10
1.44689
 20
2.85525
 30
0.0
 40
0
 41
0
  0
VERTEX
  8
0
 10
1.45053
 20
2.85422
 30
0.0
 40
0
 41
0
  0
VERTEX
  8
0
 10
1.48882
 20
2.84847
 30
0.0
 40
0
 41
0
  0
VERTEX
  8
0
 10
1.49274
 20
2.84793
 30
0.0
 40
0
 41
0
  0
VERTEX
  8
0
 10
1.50054
 20
2.8469
 30
0.0
 40
0
 41
0
  0
VERTEX
  8
0
 10
1.53842
 20
2.83621
 30
0.0
 40
0
 41
0
  0
VERTEX
  8
0
 10
1.57574
 20
2.82243
 30
0.0
 40
0
 41
0
  0
VERTEX
  8
0
 10
1.58333
 20
2.81982
 30
0.0
 40
0
 41
0
  0
VERTEX
  8
0
 10
1.59115
 20
2.81749
 30
0.0
 40
0
 41
0
  0
VERTEX
  8
0
 10
1.6289
 20
2.80094
 30
0.0
 40
0
 41
0
  0
VERTEX
  8
0
 10
1.66558
 20
2.78185
 30
0.0
 40
0
 41
0
  0
VERTEX
  8
0
 10
1.6729
 20
2.77815
 30
0.0
 40
0
 41
0
  0
VERTEX
  8
0
 10
1.68072
 20
2.77453
 30
0.0
 40
0
 41
0
  0
VERTEX
  8
0
 10
1.75651
 20
2.7341
 30
0.0
 40
0
 41
0
  0
VERTEX
  8
0
 10
1.76357
 20
2.72911
 30
0.0
 40
0
 41
0
  0
VERTEX
  8
0
 10
1.77658
 20
2.72032
 30
0.0
 40
0
 41
0
  0
VERTEX
  8
0
 10
1.83735
 20
2.67176
 30
0.0
 40
0
 41
0
  0
VERTEX
  8
0
 10
1.89139
 20
2.61637
 30
0.0
 40
0
 41
0
  0
VERTEX
  8
0
 10
1.90104
 20
2.60411
 30
0.0
 40
0
 41
0
  0
VERTEX
  8
0
 10
1.90571
 20
2.59814
 30
0.0
 40
0
 41
0
  0
VERTEX
  8
0
 10
1.9484
 20
2.53494
 30
0.0
 40
0
 41
0
  0
VERTEX
  8
0
 10
1.9521
 20
2.52815
 30
0.0
 40
0
 41
0
  0
VERTEX
  8
0
 10
1.956
 20
2.52089
 30
0.0
 40
0
 41
0
  0
VERTEX
  8
0
 10
1.97081
 20
2.48415
 30
0.0
 40
0
 41
0
  0
VERTEX
  8
0
 10
1.9815
 20
2.4464
 30
0.0
 40
0
 41
0
  0
VERTEX
  8
0
 10
1.98335
 20
2.43858
 30
0.0
 40
0
 41
0
  0
VERTEX
  8
0
 10
1.9854
 20
2.43028
 30
0.0
 40
0
 41
0
  0
VERTEX
  8
0
 10
1.99474
 20
2.38949
 30
0.0
 40
0
 41
0
  0
VERTEX
  8
0
 10
2
 20
2.35211
 30
0.0
 40
0
 41
0
  0
VERTEX
  8
0
 10
2
 20
2.33963
 30
0.0
 40
0
 41
0
  0
VERTEX
  8
0
 10
2
 20
2.31592
 30
0.0
 40
0
 41
0
  0
VERTEX
  8
0
 10
1.98876
 20
2.25233
 30
0.0
 40
0
 41
0
  0
VERTEX
  8
0
 10
1.98643
 20
2.24474
 30
0.0
 40
0
 41
0
  0
VERTEX
  8
0
 10
1.9841
 20
2.23643
 30
0.0
 40
0
 41
0
  0
VERTEX
  8
0
 10
1.95497
 20
2.15782
 30
0.0
 40
0
 41
0
  0
VERTEX
  8
0
 10
1.95107
 20
2.15001
 30
0.0
 40
0
 41
0
  0
VERTEX
  8
0
 10
1.94715
 20
2.14247
 30
0.0
 40
0
 41
0
  0
VERTEX
  8
0
 10
1.90597
 20
2.06749
 30
0.0
 40
0
 41
0
  0
VERTEX
  8
0
 10
1.90104
 20
2.06044
 30
0.0
 40
0
 41
0
  0
VERTEX
  8
0
 10
1.88172
 20
2.03261
 30
0.0
 40
0
 41
0
  0
VERTEX
  8
0
 10
1.76882
 20
1.90657
 30
0.0
 40
0
 41
0
  0
VERTEX
  8
0
 10
1.64187
 20
1.79406
 30
0.0
 40
0
 41
0
  0
VERTEX
  8
0
 10
1.61561
 20
1.77294
 30
0.0
 40
0
 41
0
  0
VERTEX
  8
0
 10
1.58876
 20
1.75136
 30
0.0
 40
0
 41
0
  0
VERTEX
  8
0
 10
1.44661
 20
1.65354
 30
0.0
 40
0
 41
0
  0
VERTEX
  8
0
 10
1.29921
 20
1.56358
 30
0.0
 40
0
 41
0
  0
VERTEX
  8
0
 10
1.2698
 20
1.54585
 30
0.0
 40
0
 41
0
  0
VERTEX
  8
0
 10
1.25548
 20
1.53728
 30
0.0
 40
0
 41
0
  0
VERTEX
  8
0
 10
1.11225
 20
1.44928
 30
0.0
 40
0
 41
0
  0
VERTEX
  8
0
 10
1.09793
 20
1.44065
 30
0.0
 40
0
 41
0
  0
VERTEX
  8
0
 10
1.08436
 20
1.43261
 30
0.0
 40
0
 41
0
  0
VERTEX
  8
0
 10
1.01834
 20
1.38753
 30
0.0
 40
0
 41
0
  0
VERTEX
  8
0
 10
0.957032
 20
1.33621
 30
0.0
 40
0
 41
0
  0
VERTEX
  8
0
 10
0.945856
 20
1.32503
 30
0.0
 40
0
 41
0
  0
VERTEX
  8
0
 10
0.940104
 20
1.31928
 30
0.0
 40
0
 41
0
  0
VERTEX
  8
0
 10
0.909722
 20
1.29064
 30
0.0
 40
0
 41
0
  0
VERTEX
  8
0
 10
0.880968
 20
1.25993
 30
0.0
 40
0
 41
0
  0
VERTEX
  8
0
 10
0.876031
 20
1.25315
 30
0.0
 40
0
 41
0
  0
VERTEX
  8
0
 10
0.873101
 20
1.24929
 30
0.0
 40
0
 41
0
  0
VERTEX
  8
0
 10
0.86659
 20
1.23584
 30
0.0
 40
0
 41
0
  0
VERTEX
  8
0
 10
0.863769
 20
1.21837
 30
0.0
 40
0
 41
0
  0
VERTEX
  8
0
 10
0.870714
 20
1.20578
 30
0.0
 40
0
 41
0
  0
VERTEX
  8
0
 10
0.885851
 20
1.20242
 30
0.0
 40
0
 41
0
  0
VERTEX
  8
0
 10
0.890625
 20
1.20307
 30
0.0
 40
0
 41
0
  0
VERTEX
  8
0
 10
0.898654
 20
1.20437
 30
0.0
 40
0
 41
0
  0
VERTEX
  8
0
 10
0.937717
 20
1.21691
 30
0.0
 40
0
 41
0
  0
VERTEX
  8
0
 10
0.97781
 20
1.22423
 30
0.0
 40
0
 41
0
  0
VERTEX
  8
0
 10
0.986436
 20
1.22293
 30
0.0
 40
0
 41
0
  0
VERTEX
  8
0
 10
0.993707
 20
1.22163
 30
0.0
 40
0
 41
0
  0
VERTEX
  8
0
 10
1.02355
 20
1.20643
 30
0.0
 40
0
 41
0
  0
VERTEX
  8
0
 10
1.04552
 20
1.18132
 30
0.0
 40
0
 41
0
  0
VERTEX
  8
0
 10
1.04894
 20
1.17502
 30
0.0
 40
0
 41
0
  0
VERTEX
  8
0
 10
1.0548
 20
1.16498
 30
0.0
 40
0
 41
0
  0
VERTEX
  8
0
 10
1.06706
 20
1.13157
 30
0.0
 40
0
 41
0
  0
VERTEX
  8
0
 10
1.07498
 20
1.08512
 30
0.0
 40
0
 41
0
  0
VERTEX
  8
0
 10
1.0759
 20
1.0376
 30
0.0
 40
0
 41
0
  0
VERTEX
  8
0
 10
1.07389
 20
1.00239
 30
0.0
 40
0
 41
0
  0
VERTEX
  8
0
 10
1.07292
 20
0.990668
 30
0.0
 40
0
 41
0
  0
VERTEX
  8
0
 10
1.0721
 20
0.983128
 30
0.0
 40
0
 41
0
  0
VERTEX
  8
0
 10
1.0721
 20
0.945475
 30
0.0
 40
0
 41
0
  0
VERTEX
  8
0
 10
1.08355
 20
0.910482
 30
0.0
 40
0
 41
0
  0
VERTEX
  8
0
 10
1.08854
 20
0.904189
 30
0.0
 40
0
 41
0
  0
VERTEX
  8
0
 10
1.09348
 20
0.897949
 30
0.0
 40
0
 41
0
  0
VERTEX
  8
0
 10
1.12343
 20
0.872667
 30
0.0
 40
0
 41
0
  0
VERTEX
  8
0
 10
1.15755
 20
0.852593
 30
0.0
 40
0
 41
0
  0
VERTEX
  8
0
 10
1.16461
 20
0.848904
 30
0.0
 40
0
 41
0
  0
VERTEX
  8
0
 10
1.1716
 20
0.845324
 30
0.0
 40
0
 41
0
  0
VERTEX
  8
0
 10
1.24143
 20
0.808376
 30
0.0
 40
0
 41
0
  0
VERTEX
  8
0
 10
1.24794
 20
0.804199
 30
0.0
 40
0
 41
0
  0
VERTEX
  8
0
 10
1.2526
 20
0.801215
 30
0.0
 40
0
 41
0
  0
VERTEX
  8
0
 10
1.26595
 20
0.790907
 30
0.0
 40
0
 41
0
  0
VERTEX
  8
0
 10
1.28266
 20
0.778157
 30
0.0
 40
0
 41
0
  0
VERTEX
  8
0
 10
1.30078
 20
0.769368
 30
0.0
 40
0
 41
0
  0
VERTEX
  8
0
 10
1.31749
 20
0.76709
 30
0.0
 40
0
 41
0
  0
VERTEX
  8
0
 10
1.32292
 20
0.76774
 30
0.0
 40
0
 41
0
  0
VERTEX
  8
0
 10
1.33122
 20
0.768826
 30
0.0
 40
0
 41
0
  0
VERTEX
  8
0
 10
1.37066
 20
0.778049
 30
0.0
 40
0
 41
0
  0
VERTEX
  8
0
 10
1.40961
 20
0.790961
 30
0.0
 40
0
 41
0
  0
VERTEX
  8
0
 10
1.41769
 20
0.793782
 30
0.0
 40
0
 41
0
  0
VERTEX
  8
0
 10
1.42551
 20
0.796386
 30
0.0
 40
0
 41
0
  0
VERTEX
  8
0
 10
1.46431
 20
0.807075
 30
0.0
 40
0
 41
0
  0
VERTEX
  8
0
 10
1.50206
 20
0.82091
 30
0.0
 40
0
 41
0
  0
VERTEX
  8
0
 10
1.50939
 20
0.825032
 30
0.0
 40
0
 41
0
  0
VERTEX
  8
0
 10
1.5146
 20
0.827908
 30
0.0
 40
0
 41
0
  0
VERTEX
  8
0
 10
1.53342
 20
0.849501
 30
0.0
 40
0
 41
0
  0
VERTEX
  8
0
 10
1.54036
 20
0.877388
 30
0.0
 40
0
 41
0
  0
VERTEX
  8
0
 10
1.53961
 20
0.883356
 30
0.0
 40
0
 41
0
  0
VERTEX
  8
0
 10
1.53922
 20
0.885633
 30
0.0
 40
0
 41
0
  0
VERTEX
  8
0
 10
1.53174
 20
0.891385
 30
0.0
 40
0
 41
0
  0
VERTEX
  8
0
 10
1.52029
 20
0.889106
 30
0.0
 40
0
 41
0
  0
VERTEX
  8
0
 10
1.51768
 20
0.888564
 30
0.0
 40
0
 41
0
  0
VERTEX
  8
0
 10
1.51406
 20
0.888075
 30
0.0
 40
0
 41
0
  0
VERTEX
  8
0
 10
1.47683
 20
0.882867
 30
0.0
 40
0
 41
0
  0
VERTEX
  8
0
 10
1.47293
 20
0.882324
 30
0.0
 40
0
 41
0
  0
VERTEX
  8
0
 10
1.46485
 20
0.881293
 30
0.0
 40
0
 41
0
  0
VERTEX
  8
0
 10
1.39746
 20
0.873969
 30
0.0
 40
0
 41
0
  0
VERTEX
  8
0
 10
1.375
 20
0.873969
 30
0.0
 40
0
 41
0
  0
VERTEX
  8
0
 10
1.35075
 20
0.873969
 30
0.0
 40
0
 41
0
  0
VERTEX
  8
0
 10
1.29622
 20
0.877115
 30
0.0
 40
0
 41
0
  0
VERTEX
  8
0
 10
1.2781
 20
0.877115
 30
0.0
 40
0
 41
0
  0
VERTEX
  8
0
 10
1.27941
 20
0.872179
 30
0.0
 40
0
 41
0
  0
VERTEX
  8
0
 10
1.29763
 20
0.852268
 30
0.0
 40
0
 41
0
  0
VERTEX
  8
0
 10
1.32107
 20
0.837022
 30
0.0
 40
0
 41
0
  0
VERTEX
  8
0
 10
1.32498
 20
0.834418
 30
0.0
 40
0
 41
0
  0
VERTEX
  8
0
 10
1.32731
 20
0.832844
 30
0.0
 40
0
 41
0
  0
VERTEX
  8
0
 10
1.35259
 20
0.818739
 30
0.0
 40
0
 41
0
  0
VERTEX
  8
0
 10
1.3552
 20
0.817654
 30
0.0
 40
0
 41
0
  0
VERTEX
  8
0
 10
1.35753
 20
0.816678
 30
0.0
 40
0
 41
0
  0
VERTEX
  8
0
 10
1.38303
 20
0.810493
 30
0.0
 40
0
 41
0
  0
VERTEX
  8
0
 10
1.38542
 20
0.809407
 30
0.0
 40
0
 41
0
  0
VERTEX
  8
0
 10
1.38699
 20
0.808703
 30
0.0
 40
0
 41
0
  0
VERTEX
  8
0
 10
1.39117
 20
0.805176
 30
0.0
 40
0
 41
0
  0
VERTEX
  8
0
 10
1.38721
 20
0.802951
 30
0.0
 40
0
 41
0
  0
VERTEX
  8
0
 10
1.37896
 20
0.802192
 30
0.0
 40
0
 41
0
  0
VERTEX
  8
0
 10
1.37359
 20
0.802029
 30
0.0
 40
0
 41
0
  0
VERTEX
  8
0
 10
1.37185
 20
0.802029
 30
0.0
 40
0
 41
0
  0
VERTEX
  8
0
 10
1.36301
 20
0.802029
 30
0.0
 40
0
 41
0
  0
VERTEX
  8
0
 10
1.3393
 20
0.806261
 30
0.0
 40
0
 41
0
  0
VERTEX
  8
0
 10
1.33648
 20
0.807238
 30
0.0
 40
0
 41
0
  0
VERTEX
  8
0
 10
1.33127
 20
0.808865
 30
0.0
 40
0
 41
0
  0
VERTEX
  8
0
 10
1.27865
 20
0.831543
 30
0.0
 40
0
 41
0
  0
VERTEX
  8
0
 10
1.27398
 20
0.834418
 30
0.0
 40
0
 41
0
  0
VERTEX
  8
0
 10
1.26459
 20
0.840657
 30
0.0
 40
0
 41
0
  0
VERTEX
  8
0
 10
1.22277
 20
0.876193
 30
0.0
 40
0
 41
0
  0
VERTEX
  8
0
 10
1.19086
 20
0.920628
 30
0.0
 40
0
 41
0
  0
VERTEX
  8
0
 10
1.18647
 20
0.931261
 30
0.0
 40
0
 41
0
  0
VERTEX
  8
0
 10
1.18327
 20
0.938747
 30
0.0
 40
0
 41
0
  0
VERTEX
  8
0
 10
1.17882
 20
0.963325
 30
0.0
 40
0
 41
0
  0
VERTEX
  8
0
 10
1.18018
 20
0.996365
 30
0.0
 40
0
 41
0
  0
VERTEX
  8
0
 10
1.18701
 20
1.02941
 30
0.0
 40
0
 41
0
  0
VERTEX
  8
0
 10
1.19363
 20
1.05349
 30
0.0
 40
0
 41
0
  0
VERTEX
  8
0
 10
1.19586
 20
1.06147
 30
0.0
 40
0
 41
0
  0
VERTEX
  8
0
 10
1.19813
 20
1.06125
 30
0.0
 40
0
 41
0
  0
VERTEX
  8
0
 10
1.20361
 20
1.0472
 30
0.0
 40
0
 41
0
  0
VERTEX
  8
0
 10
1.20492
 20
1.03
 30
0.0
 40
0
 41
0
  0
VERTEX
  8
0
 10
1.20519
 20
1.02816
 30
0.0
 40
0
 41
0
  0
VERTEX
  8
0
 10
1.20595
 20
1.02452
 30
0.0
 40
0
 41
0
  0
VERTEX
  8
0
 10
1.21457
 20
0.987033
 30
0.0
 40
0
 41
0
  0
VERTEX
  8
0
 10
1.2156
 20
0.983344
 30
0.0
 40
0
 41
0
  0
VERTEX
  8
0
 10
1.21658
 20
0.979818
 30
0.0
 40
0
 41
0
  0
VERTEX
  8
0
 10
1.22059
 20
0.969456
 30
0.0
 40
0
 41
0
  0
VERTEX
  8
0
 10
1.22819
 20
0.9579
 30
0.0
 40
0
 41
0
  0
VERTEX
  8
0
 10
1.23915
 20
0.951768
 30
0.0
 40
0
 41
0
  0
VERTEX
  8
0
 10
1.25081
 20
0.952746
 30
0.0
 40
0
 41
0
  0
VERTEX
  8
0
 10
1.25418
 20
0.95421
 30
0.0
 40
0
 41
0
  0
VERTEX
  8
0
 10
1.25987
 20
0.956814
 30
0.0
 40
0
 41
0
  0
VERTEX
  8
0
 10
1.28516
 20
0.980143
 30
0.0
 40
0
 41
0
  0
VERTEX
  8
0
 10
1.30729
 20
1.00711
 30
0.0
 40
0
 41
0
  0
VERTEX
  8
0
 10
1.31147
 20
1.0115
 30
0.0
 40
0
 41
0
  0
VERTEX
  8
0
 10
1.31641
 20
1.01725
 30
0.0
 40
0
 41
0
  0
VERTEX
  8
0
 10
1.36773
 20
1.07351
 30
0.0
 40
0
 41
0
  0
VERTEX
  8
0
 10
1.37294
 20
1.07921
 30
0.0
 40
0
 41
0
  0
VERTEX
  8
0
 10
1.37527
 20
1.08181
 30
0.0
 40
0
 41
0
  0
VERTEX
  8
0
 10
1.39789
 20
1.10672
 30
0.0
 40
0
 41
0
  0
VERTEX
  8
0
 10
1.40001
 20
1.10932
 30
0.0
 40
0
 41
0
  0
VERTEX
  8
0
 10
1.40261
 20
1.11225
 30
0.0
 40
0
 41
0
  0
VERTEX
  8
0
 10
1.40989
 20
1.12218
 30
0.0
 40
0
 41
0
  0
VERTEX
  8
0
 10
1.40642
 20
1.13357
 30
0.0
 40
0
 41
0
  0
VERTEX
  8
0
 10
1.40419
 20
1.1365
 30
0.0
 40
0
 41
0
  0
VERTEX
  8
0
 10
1.39974
 20
1.14198
 30
0.0
 40
0
 41
0
  0
VERTEX
  8
0
 10
1.35541
 20
1.19667
 30
0.0
 40
0
 41
0
  0
VERTEX
  8
0
 10
1.35102
 20
1.20209
 30
0.0
 40
0
 41
0
  0
VERTEX
  8
0
 10
1.34657
 20
1.20757
 30
0.0
 40
0
 41
0
  0
VERTEX
  8
0
 10
1.3023
 20
1.2615
 30
0.0
 40
0
 41
0
  0
VERTEX
  8
0
 10
1.29791
 20
1.26671
 30
0.0
 40
0
 41
0
  0
VERTEX
  8
0
 10
1.29552
 20
1.26959
 30
0.0
 40
0
 41
0
  0
VERTEX
  8
0
 10
1.2711
 20
1.30008
 30
0.0
 40
0
 41
0
  0
VERTEX
  8
0
 10
1.26877
 20
1.30317
 30
0.0
 40
0
 41
0
  0
VERTEX
  8
0
 10
1.26747
 20
1.30474
 30
0.0
 40
0
 41
0
  0
VERTEX
  8
0
 10
1.25624
 20
1.31684
 30
0.0
 40
0
 41
0
  0
VERTEX
  8
0
 10
1.24919
 20
1.32948
 30
0.0
 40
0
 41
0
  0
VERTEX
  8
0
 10
1.25
 20
1.33127
 30
0.0
 40
0
 41
0
  0
VERTEX
  8
0
 10
1.25206
 20
1.33078
 30
0.0
 40
0
 41
0
  0
VERTEX
  8
0
 10
1.26443
 20
1.32378
 30
0.0
 40
0
 41
0
  0
VERTEX
  8
0
 10
1.27626
 20
1.3157
 30
0.0
 40
0
 41
0
  0
VERTEX
  8
0
 10
1.2781
 20
1.31462
 30
0.0
 40
0
 41
0
  0
VERTEX
  8
0
 10
1.28147
 20
1.31255
 30
0.0
 40
0
 41
0
  0
VERTEX
  8
0
 10
1.31456
 20
1.29172
 30
0.0
 40
0
 41
0
  0
VERTEX
  8
0
 10
1.31771
 20
1.28961
 30
0.0
 40
0
 41
0
  0
VERTEX
  8
0
 10
1.32498
 20
1.28494
 30
0.0
 40
0
 41
0
  0
VERTEX
  8
0
 10
1.39789
 20
1.23627
 30
0.0
 40
0
 41
0
  0
VERTEX
  8
0
 10
1.40522
 20
1.23128
 30
0.0
 40
0
 41
0
  0
VERTEX
  8
0
 10
1.40886
 20
1.22895
 30
0.0
 40
0
 41
0
  0
VERTEX
  8
0
 10
1.44347
 20
1.20546
 30
0.0
 40
0
 41
0
  0
VERTEX
  8
0
 10
1.44689
 20
1.20307
 30
0.0
 40
0
 41
0
  0
VERTEX
  8
0
 10
1.44949
 20
1.20128
 30
0.0
 40
0
 41
0
  0
VERTEX
  8
0
 10
1.46143
 20
1.19222
 30
0.0
 40
0
 41
0
  0
VERTEX
  8
0
 10
1.47379
 20
1.19184
 30
0.0
 40
0
 41
0
  0
VERTEX
  8
0
 10
1.47601
 20
1.19379
 30
0.0
 40
0
 41
0
  0
VERTEX
  8
0
 10
1.48253
 20
1.19954
 30
0.0
 40
0
 41
0
  0
VERTEX
  8
0
 10
1.51258
 20
1.2321
 30
0.0
 40
0
 41
0
  0
VERTEX
  8
0
 10
1.54112
 20
1.26568
 30
0.0
 40
0
 41
0
  0
VERTEX
  8
0
 10
1.54688
 20
1.27192
 30
0.0
 40
0
 41
0
  0
VERTEX
  8
0
 10
1.55285
 20
1.27843
 30
0.0
 40
0
 41
0
  0
VERTEX
  8
0
 10
1.61171
 20
1.34353
 30
0.0
 40
0
 41
0
  0
VERTEX
  8
0
 10
1.61774
 20
1.35004
 30
0.0
 40
0
 41
0
  0
VERTEX
  8
0
 10
1.62294
 20
1.35579
 30
0.0
 40
0
 41
0
  0
VERTEX
  8
0
 10
1.64908
 20
1.38704
 30
0.0
 40
0
 41
0
  0
VERTEX
  8
0
 10
1.67785
 20
1.41618
 30
0.0
 40
0
 41
0
  0
VERTEX
  8
0
 10
1.68435
 20
1.42085
 30
0.0
 40
0
 41
0
  0
VERTEX
  8
0
 10
1.69032
 20
1.42503
 30
0.0
 40
0
 41
0
  0
VERTEX
  8
0
 10
1.72211
 20
1.43804
 30
0.0
 40
0
 41
0
  0
VERTEX
  8
0
 10
1.75493
 20
1.43653
 30
0.0
 40
0
 41
0
  0
VERTEX
  8
0
 10
1.76144
 20
1.43338
 30
0.0
 40
0
 41
0
  0
VERTEX
  8
0
 10
1.76844
 20
1.43001
 30
0.0
 40
0
 41
0
  0
VERTEX
  8
0
 10
1.79856
 20
1.40588
 30
0.0
 40
0
 41
0
  0
VERTEX
  8
0
 10
1.82292
 20
1.37603
 30
0.0
 40
0
 41
0
  0
VERTEX
  8
0
 10
1.8271
 20
1.36974
 30
0.0
 40
0
 41
0
  0
VERTEX
  8
0
 10
1.83176
 20
1.36247
 30
0.0
 40
0
 41
0
  0
VERTEX
  8
0
 10
1.85129
 20
1.32411
 30
0.0
 40
0
 41
0
  0
VERTEX
  8
0
 10
1.86768
 20
1.28413
 30
0.0
 40
0
 41
0
  0
VERTEX
  8
0
 10
1.87082
 20
1.27599
 30
0.0
 40
0
 41
0
  0
VERTEX
  8
0
 10
1.87364
 20
1.26796
 30
0.0
 40
0
 41
0
  0
VERTEX
  8
0
 10
1.88775
 20
1.22542
 30
0.0
 40
0
 41
0
  0
VERTEX
  8
0
 10
1.89871
 20
1.18235
 30
0.0
 40
0
 41
0
  0
VERTEX
  8
0
 10
1.90001
 20
1.17399
 30
0.0
 40
0
 41
0
  0
VERTEX
  8
0
 10
1.89789
 20
1.17377
 30
0.0
 40
0
 41
0
  0
VERTEX
  8
0
 10
1.88758
 20
1.18571
 30
0.0
 40
0
 41
0
  0
VERTEX
  8
0
 10
1.87993
 20
1.20079
 30
0.0
 40
0
 41
0
  0
VERTEX
  8
0
 10
1.87918
 20
1.20209
 30
0.0
 40
0
 41
0
  0
VERTEX
  8
0
 10
1.87706
 20
1.20551
 30
0.0
 40
0
 41
0
  0
VERTEX
  8
0
 10
1.85699
 20
1.23937
 30
0.0
 40
0
 41
0
  0
VERTEX
  8
0
 10
1.85519
 20
1.24273
 30
0.0
 40
0
 41
0
  0
VERTEX
  8
0
 10
1.85151
 20
1.24902
 30
0.0
 40
0
 41
0
  0
VERTEX
  8
0
 10
1.82992
 20
1.27702
 30
0.0
 40
0
 41
0
  0
VERTEX
  8
0
 10
1.80311
 20
1.30029
 30
0.0
 40
0
 41
0
  0
VERTEX
  8
0
 10
1.79688
 20
1.3042
 30
0.0
 40
0
 41
0
  0
VERTEX
  8
0
 10
1.79449
 20
1.3055
 30
0.0
 40
0
 41
0
  0
VERTEX
  8
0
 10
1.78375
 20
1.31055
 30
0.0
 40
0
 41
0
  0
VERTEX
  8
0
 10
1.76378
 20
1.31803
 30
0.0
 40
0
 41
0
  0
VERTEX
  8
0
 10
1.74501
 20
1.32123
 30
0.0
 40
0
 41
0
  0
VERTEX
  8
0
 10
1.73574
 20
1.31662
 30
0.0
 40
0
 41
0
  0
VERTEX
  8
0
 10
1.7354
 20
1.31462
 30
0.0
 40
0
 41
0
  0
VERTEX
  8
0
 10
1.73514
 20
1.31228
 30
0.0
 40
0
 41
0
  0
VERTEX
  8
0
 10
1.74164
 20
1.29498
 30
0.0
 40
0
 41
0
  0
VERTEX
  8
0
 10
1.75022
 20
1.2781
 30
0.0
 40
0
 41
0
  0
VERTEX
  8
0
 10
1.75103
 20
1.27599
 30
0.0
 40
0
 41
0
  0
VERTEX
  8
0
 10
1.75256
 20
1.27208
 30
0.0
 40
0
 41
0
  0
VERTEX
  8
0
 10
1.76747
 20
1.23416
 30
0.0
 40
0
 41
0
  0
VERTEX
  8
0
 10
1.76878
 20
1.23025
 30
0.0
 40
0
 41
0
  0
VERTEX
  8
0
 10
1.77111
 20
1.22325
 30
0.0
 40
0
 41
0
  0
VERTEX
  8
0
 10
1.78618
 20
1.15186
 30
0.0
 40
0
 41
0
  0
VERTEX
  8
0
 10
1.78749
 20
1.1448
 30
0.0
 40
0
 41
0
  0
VERTEX
  8
0
 10
1.78879
 20
1.13829
 30
0.0
 40
0
 41
0
  0
VERTEX
  8
0
 10
1.79064
 20
1.07037
 30
0.0
 40
0
 41
0
  0
VERTEX
  8
0
 10
1.78961
 20
1.06358
 30
0.0
 40
0
 41
0
  0
VERTEX
  8
0
 10
1.78851
 20
1.05707
 30
0.0
 40
0
 41
0
  0
VERTEX
  8
0
 10
1.77746
 20
1.02425
 30
0.0
 40
0
 41
0
  0
VERTEX
  8
0
 10
1.7596
 20
0.994521
 30
0.0
 40
0
 41
0
  0
VERTEX
  8
0
 10
1.75521
 20
0.989529
 30
0.0
 40
0
 41
0
  0
VERTEX
  8
0
 10
1.75412
 20
0.988226
 30
0.0
 40
0
 41
0
  0
VERTEX
  8
0
 10
1.74203
 20
0.978515
 30
0.0
 40
0
 41
0
  0
VERTEX
  8
0
 10
1.7315
 20
0.968261
 30
0.0
 40
0
 41
0
  0
VERTEX
  8
0
 10
1.73122
 20
0.966689
 30
0.0
 40
0
 41
0
  0
VERTEX
  8
0
 10
1.73096
 20
0.964626
 30
0.0
 40
0
 41
0
  0
VERTEX
  8
0
 10
1.73876
 20
0.950629
 30
0.0
 40
0
 41
0
  0
VERTEX
  8
0
 10
1.74972
 20
0.937283
 30
0.0
 40
0
 41
0
  0
VERTEX
  8
0
 10
1.75103
 20
0.935439
 30
0.0
 40
0
 41
0
  0
VERTEX
  8
0
 10
1.75569
 20
0.928168
 30
0.0
 40
0
 41
0
  0
VERTEX
  8
0
 10
1.80524
 20
0.854981
 30
0.0
 40
0
 41
0
  0
VERTEX
  8
0
 10
1.81044
 20
0.847928
 30
0.0
 40
0
 41
0
  0
VERTEX
  8
0
 10
1.81304
 20
0.844293
 30
0.0
 40
0
 41
0
  0
VERTEX
  8
0
 10
1.83908
 20
0.809679
 30
0.0
 40
0
 41
0
  0
VERTEX
  8
0
 10
1.84169
 20
0.806261
 30
0.0
 40
0
 41
0
  0
VERTEX
  8
0
 10
1.84347
 20
0.803928
 30
0.0
 40
0
 41
0
  0
VERTEX
  8
0
 10
1.85715
 20
0.788792
 30
0.0
 40
0
 41
0
  0
VERTEX
  8
0
 10
1.86822
 20
0.772678
 30
0.0
 40
0
 41
0
  0
VERTEX
  8
0
 10
1.86876
 20
0.769803
 30
0.0
 40
0
 41
0
  0
VERTEX
  8
0
 10
1.85547
 20
0.777615
 30
0.0
 40
0
 41
0
  0
VERTEX
  8
0
 10
1.79167
 20
0.822157
 30
0.0
 40
0
 41
0
  0
VERTEX
  8
0
 10
1.72993
 20
0.869846
 30
0.0
 40
0
 41
0
  0
VERTEX
  8
0
 10
1.71772
 20
0.879178
 30
0.0
 40
0
 41
0
  0
VERTEX
  8
0
 10
1.71457
 20
0.881565
 30
0.0
 40
0
 41
0
  0
VERTEX
  8
0
 10
1.68224
 20
0.906033
 30
0.0
 40
0
 41
0
  0
VERTEX
  8
0
 10
1.67914
 20
0.908365
 30
0.0
 40
0
 41
0
  0
VERTEX
  8
0
 10
1.67654
 20
0.910211
 30
0.0
 40
0
 41
0
  0
VERTEX
  8
0
 10
1.66362
 20
0.920301
 30
0.0
 40
0
 41
0
  0
VERTEX
  8
0
 10
1.64919
 20
0.926324
 30
0.0
 40
0
 41
0
  0
VERTEX
  8
0
 10
1.64583
 20
0.926053
 30
0.0
 40
0
 41
0
  0
VERTEX
  8
0
 10
1.64214
 20
0.925564
 30
0.0
 40
0
 41
0
  0
VERTEX
  8
0
 10
1.60362
 20
0.913574
 30
0.0
 40
0
 41
0
  0
VERTEX
  8
0
 10
1.59999
 20
0.912543
 30
0.0
 40
0
 41
0
  0
VERTEX
  8
0
 10
1.59631
 20
0.911512
 30
0.0
 40
0
 41
0
  0
VERTEX
  8
0
 10
1.55886
 20
0.900282
 30
0.0
 40
0
 41
0
  0
VERTEX
  8
0
 10
1.55524
 20
0.898981
 30
0.0
 40
0
 41
0
  0
VERTEX
  8
0
 10
1.55832
 20
0.895617
 30
0.0
 40
0
 41
0
  0
VERTEX
  8
0
 10
1.59164
 20
0.863878
 30
0.0
 40
0
 41
0
  0
VERTEX
  8
0
 10
1.59478
 20
0.86046
 30
0.0
 40
0
 41
0
  0
VERTEX
  8
0
 10
1.59787
 20
0.856825
 30
0.0
 40
0
 41
0
  0
VERTEX
  8
0
 10
1.62967
 20
0.819824
 30
0.0
 40
0
 41
0
  0
VERTEX
  8
0
 10
1.63336
 20
0.816678
 30
0.0
 40
0
 41
0
  0
VERTEX
  8
0
 10
1.64008
 20
0.810439
 30
0.0
 40
0
 41
0
  0
VERTEX
  8
0
 10
1.67811
 20
0.779189
 30
0.0
 40
0
 41
0
  0
VERTEX
  8
0
 10
1.72026
 20
0.754232
 30
0.0
 40
0
 41
0
  0
VERTEX
  8
0
 10
1.72917
 20
0.751085
 30
0.0
 40
0
 41
0
  0
VERTEX
  8
0
 10
1.73876
 20
0.747721
 30
0.0
 40
0
 41
0
  0
VERTEX
  8
0
 10
1.78863
 20
0.736925
 30
0.0
 40
0
 41
0
  0
VERTEX
  8
0
 10
1.83903
 20
0.736003
 30
0.0
 40
0
 41
0
  0
VERTEX
  8
0
 10
1.84896
 20
0.737522
 30
0.0
 40
0
 41
0
  0
VERTEX
  8
0
 10
1.85493
 20
0.73839
 30
0.0
 40
0
 41
0
  0
VERTEX
  8
0
 10
1.87294
 20
0.741049
 30
0.0
 40
0
 41
0
  0
VERTEX
  8
0
 10
1.89854
 20
0.74669
 30
0.0
 40
0
 41
0
  0
VERTEX
  8
0
 10
1.92204
 20
0.756619
 30
0.0
 40
0
 41
0
  0
VERTEX
  8
0
 10
1.93636
 20
0.768121
 30
0.0
 40
0
 41
0
  0
VERTEX
  8
0
 10
1.93956
 20
0.772949
 30
0.0
 40
0
 41
0
  0
VERTEX
  8
0
 10
1.94243
 20
0.777615
 30
0.0
 40
0
 41
0
  0
VERTEX
  8
0
 10
1.94726
 20
0.804796
 30
0.0
 40
0
 41
0
  0
VERTEX
  8
0
 10
1.94114
 20
0.832574
 30
0.0
 40
0
 41
0
  0
VERTEX
  8
0
 10
1.93853
 20
0.837511
 30
0.0
 40
0
 41
0
  0
VERTEX
  8
0
 10
1.93408
 20
0.845324
 30
0.0
 40
0
 41
0
  0
VERTEX
  8
0
 10
1.90142
 20
0.873318
 30
0.0
 40
0
 41
0
  0
VERTEX
  8
0
 10
1.86199
 20
0.892415
 30
0.0
 40
0
 41
0
  0
VERTEX
  8
0
 10
1.85417
 20
0.895779
 30
0.0
 40
0
 41
0
  0
VERTEX
  8
0
 10
1.84972
 20
0.897624
 30
0.0
 40
0
 41
0
  0
VERTEX
  8
0
 10
1.8036
 20
0.912056
 30
0.0
 40
0
 41
0
  0
VERTEX
  8
0
 10
1.79893
 20
0.913574
 30
0.0
 40
0
 41
0
  0
VERTEX
  8
0
 10
1.79422
 20
0.914876
 30
0.0
 40
0
 41
0
  0
VERTEX
  8
0
 10
1.77929
 20
0.925944
 30
0.0
 40
0
 41
0
  0
VERTEX
  8
0
 10
1.78207
 20
0.94336
 30
0.0
 40
0
 41
0
  0
VERTEX
  8
0
 10
1.78543
 20
0.946886
 30
0.0
 40
0
 41
0
  0
VERTEX
  8
0
 10
1.79215
 20
0.95421
 30
0.0
 40
0
 41
0
  0
VERTEX
  8
0
 10
1.83333
 20
0.984158
 30
0.0
 40
0
 41
0
  0
VERTEX
  8
0
 10
1.87657
 20
1.01101
 30
0.0
 40
0
 41
0
  0
VERTEX
  8
0
 10
1.88439
 20
1.01671
 30
0.0
 40
0
 41
0
  0
VERTEX
  8
0
 10
1.90972
 20
1.03543
 30
0.0
 40
0
 41
0
  0
VERTEX
  8
0
 10
1.98335
 20
1.09483
 30
0.0
 40
0
 41
0
  0
VERTEX
  8
0
 10
2.07488
 20
1.1805
 30
0.0
 40
0
 41
0
  0
VERTEX
  8
0
 10
2.15522
 20
1.27599
 30
0.0
 40
0
 41
0
  0
VERTEX
  8
0
 10
2.20676
 20
1.35536
 30
0.0
 40
0
 41
0
  0
VERTEX
  8
0
 10
2.22081
 20
1.38336
 30
0.0
 40
0
 41
0
  0
VERTEX
  8
0
 10
2.22547
 20
1.39301
 30
0.0
 40
0
 41
0
  0
VERTEX
  8
0
 10
2.26639
 20
1.48986
 30
0.0
 40
0
 41
0
  0
VERTEX
  8
0
 10
2.26981
 20
1.49994
 30
0.0
 40
0
 41
0
  0
VERTEX
  8
0
 10
2.27317
 20
1.51014
 30
0.0
 40
0
 41
0
  0
VERTEX
  8
0
 10
2.28435
 20
1.5606
 30
0.0
 40
0
 41
0
  0
VERTEX
  8
0
 10
2.29139
 20
1.61149
 30
0.0
 40
0
 41
0
  0
VERTEX
  8
0
 10
2.29269
 20
1.6219
 30
0.0
 40
0
 41
0
  0
VERTEX
  8
0
 10
2.29372
 20
1.63178
 30
0.0
 40
0
 41
0
  0
VERTEX
  8
0
 10
2.30106
 20
1.71425
 30
0.0
 40
0
 41
0
  0
VERTEX
  8
0
 10
2.30106
 20
1.74169
 30
0.0
 40
0
 41
0
  0
VERTEX
  8
0
 10
2.30106
 20
1.77533
 30
0.0
 40
0
 41
0
  0
VERTEX
  8
0
 10
2.29167
 20
1.8649
 30
0.0
 40
0
 41
0
  0
VERTEX
  8
0
 10
2.29064
 20
1.87608
 30
0.0
 40
0
 41
0
  0
VERTEX
  8
0
 10
2.2901
 20
1.88183
 30
0.0
 40
0
 41
0
  0
VERTEX
  8
0
 10
2.28435
 20
1.94015
 30
0.0
 40
0
 41
0
  0
VERTEX
  8
0
 10
2.28331
 20
1.94586
 30
0.0
 40
0
 41
0
  0
VERTEX
  8
0
 10
2.28201
 20
1.95188
 30
0.0
 40
0
 41
0
  0
VERTEX
  8
0
 10
2.26796
 20
2.01253
 30
0.0
 40
0
 41
0
  0
VERTEX
  8
0
 10
2.26665
 20
2.01878
 30
0.0
 40
0
 41
0
  0
VERTEX
  8
0
 10
2.26535
 20
2.02453
 30
0.0
 40
0
 41
0
  0
VERTEX
  8
0
 10
2.25385
 20
2.08182
 30
0.0
 40
0
 41
0
  0
VERTEX
  8
0
 10
2.25206
 20
2.08751
 30
0.0
 40
0
 41
0
  0
VERTEX
  8
0
 10
2.25022
 20
2.09299
 30
0.0
 40
0
 41
0
  0
VERTEX
  8
0
 10
2.2315
 20
2.14665
 30
0.0
 40
0
 41
0
  0
VERTEX
  8
0
 10
2.23019
 20
2.15213
 30
0.0
 40
0
 41
0
  0
VERTEX
  8
0
 10
2.2276
 20
2.16336
 30
0.0
 40
0
 41
0
  0
VERTEX
  8
0
 10
2.20893
 20
2.21696
 30
0.0
 40
0
 41
0
  0
VERTEX
  8
0
 10
2.18668
 20
2.26958
 30
0.0
 40
0
 41
0
  0
VERTEX
  8
0
 10
2.18229
 20
2.28022
 30
0.0
 40
0
 41
0
  0
VERTEX
  8
0
 10
2.18018
 20
2.28543
 30
0.0
 40
0
 41
0
  0
VERTEX
  8
0
 10
2.15728
 20
2.33649
 30
0.0
 40
0
 41
0
  0
VERTEX
  8
0
 10
2.15522
 20
2.34169
 30
0.0
 40
0
 41
0
  0
VERTEX
  8
0
 10
2.1531
 20
2.3469
 30
0.0
 40
0
 41
0
  0
VERTEX
  8
0
 10
2.13954
 20
2.37619
 30
0.0
 40
0
 41
0
  0
VERTEX
  8
0
 10
2.13021
 20
2.40261
 30
0.0
 40
0
 41
0
  0
VERTEX
  8
0
 10
2.13021
 20
2.4114
 30
0.0
 40
0
 41
0
  0
VERTEX
  8
0
 10
2.1384
 20
2.40474
 30
0.0
 40
0
 41
0
  0
VERTEX
  8
0
 10
2.15978
 20
2.38049
 30
0.0
 40
0
 41
0
  0
VERTEX
  8
0
 10
2.18332
 20
2.34412
 30
0.0
 40
0
 41
0
  0
VERTEX
  8
0
 10
2.20372
 20
2.30528
 30
0.0
 40
0
 41
0
  0
VERTEX
  8
0
 10
2.21858
 20
2.27621
 30
0.0
 40
0
 41
0
  0
VERTEX
  8
0
 10
2.22396
 20
2.26671
 30
0.0
 40
0
 41
0
  0
VERTEX
  8
0
 10
2.2276
 20
2.25993
 30
0.0
 40
0
 41
0
  0
VERTEX
  8
0
 10
2.25933
 20
2.19043
 30
0.0
 40
0
 41
0
  0
VERTEX
  8
0
 10
2.26247
 20
2.18338
 30
0.0
 40
0
 41
0
  0
VERTEX
  8
0
 10
2.26557
 20
2.1766
 30
0.0
 40
0
 41
0
  0
VERTEX
  8
0
 10
2.29346
 20
2.10596
 30
0.0
 40
0
 41
0
  0
VERTEX
  8
0
 10
2.29585
 20
2.0989
 30
0.0
 40
0
 41
0
  0
VERTEX
  8
0
 10
2.29818
 20
2.0911
 30
0.0
 40
0
 41
0
  0
VERTEX
  8
0
 10
2.32394
 20
2.01411
 30
0.0
 40
0
 41
0
  0
VERTEX
  8
0
 10
2.32607
 20
2.00629
 30
0.0
 40
0
 41
0
  0
VERTEX
  8
0
 10
2.3271
 20
2.00265
 30
0.0
 40
0
 41
0
  0
VERTEX
  8
0
 10
2.33279
 20
1.96619
 30
0.0
 40
0
 41
0
  0
VERTEX
  8
0
 10
2.33333
 20
1.96251
 30
0.0
 40
0
 41
0
  0
VERTEX
  8
0
 10
2.33382
 20
1.95839
 30
0.0
 40
0
 41
0
  0
VERTEX
  8
0
 10
2.34478
 20
1.91775
 30
0.0
 40
0
 41
0
  0
VERTEX
  8
0
 10
2.34581
 20
1.91357
 30
0.0
 40
0
 41
0
  0
VERTEX
  8
0
 10
2.35021
 20
1.89774
 30
0.0
 40
0
 41
0
  0
VERTEX
  8
0
 10
2.36182
 20
1.81799
 30
0.0
 40
0
 41
0
  0
VERTEX
  8
0
 10
2.36458
 20
1.74517
 30
0.0
 40
0
 41
0
  0
VERTEX
  8
0
 10
2.36458
 20
1.72086
 30
0.0
 40
0
 41
0
  0
VERTEX
  8
0
 10
2.36458
 20
1.69646
 30
0.0
 40
0
 41
0
  0
VERTEX
  8
0
 10
2.36274
 20
1.62321
 30
0.0
 40
0
 41
0
  0
VERTEX
  8
0
 10
2.35362
 20
1.54303
 30
0.0
 40
0
 41
0
  0
VERTEX
  8
0
 10
2.34999
 20
1.52713
 30
0.0
 40
0
 41
0
  0
VERTEX
  8
0
 10
2.34657
 20
1.51253
 30
0.0
 40
0
 41
0
  0
VERTEX
  8
0
 10
2.30414
 20
1.36822
 30
0.0
 40
0
 41
0
  0
VERTEX
  8
0
 10
2.29893
 20
1.35411
 30
0.0
 40
0
 41
0
  0
VERTEX
  8
0
 10
2.28879
 20
1.32579
 30
0.0
 40
0
 41
0
  0
VERTEX
  8
0
 10
2.21924
 20
1.19065
 30
0.0
 40
0
 41
0
  0
VERTEX
  8
0
 10
2.1289
 20
1.06798
 30
0.0
 40
0
 41
0
  0
VERTEX
  8
0
 10
2.10835
 20
1.04584
 30
0.0
 40
0
 41
0
  0
VERTEX
  8
0
 10
2.10314
 20
1.04015
 30
0.0
 40
0
 41
0
  0
VERTEX
  8
0
 10
2.04764
 20
0.987304
 30
0.0
 40
0
 41
0
  0
VERTEX
  8
0
 10
2.04167
 20
0.982314
 30
0.0
 40
0
 41
0
  0
VERTEX
  8
0
 10
2.03668
 20
0.97819
 30
0.0
 40
0
 41
0
  0
VERTEX
  8
0
 10
2.00792
 20
0.957736
 30
0.0
 40
0
 41
0
  0
VERTEX
  8
0
 10
1.98178
 20
0.934679
 30
0.0
 40
0
 41
0
  0
VERTEX
  8
0
 10
1.97814
 20
0.929199
 30
0.0
 40
0
 41
0
  0
VERTEX
  8
0
 10
1.97396
 20
0.92296
 30
0.0
 40
0
 41
0
  0
VERTEX
  8
0
 10
1.97396
 20
0.893392
 30
0.0
 40
0
 41
0
  0
VERTEX
  8
0
 10
1.99061
 20
0.866482
 30
0.0
 40
0
 41
0
  0
VERTEX
  8
0
 10
1.99479
 20
0.86149
 30
0.0
 40
0
 41
0
  0
VERTEX
  8
0
 10
1.99869
 20
0.857042
 30
0.0
 40
0
 41
0
  0
VERTEX
  8
0
 10
2.01264
 20
0.832032
 30
0.0
 40
0
 41
0
  0
VERTEX
  8
0
 10
2.01878
 20
0.806478
 30
0.0
 40
0
 41
0
  0
VERTEX
  8
0
 10
2.01878
 20
0.79796
 30
0.0
 40
0
 41
0
  0
VERTEX
  8
0
 10
2.01856
 20
0.788519
 30
0.0
 40
0
 41
0
  0
VERTEX
  8
0
 10
2.00944
 20
0.760308
 30
0.0
 40
0
 41
0
  0
VERTEX
  8
0
 10
1.98671
 20
0.72971
 30
0.0
 40
0
 41
0
  0
VERTEX
  8
0
 10
1.95574
 20
0.70535
 30
0.0
 40
0
 41
0
  0
VERTEX
  8
0
 10
1.93056
 20
0.690701
 30
0.0
 40
0
 41
0
  0
VERTEX
  8
0
 10
1.92188
 20
0.686469
 30
0.0
 40
0
 41
0
  0
VERTEX
  8
0
 10
1.91482
 20
0.683106
 30
0.0
 40
0
 41
0
  0
VERTEX
  8
0
 10
1.87576
 20
0.67334
 30
0.0
 40
0
 41
0
  0
VERTEX
  8
0
 10
1.83567
 20
0.669325
 30
0.0
 40
0
 41
0
  0
VERTEX
  8
0
 10
1.82813
 20
0.668782
 30
0.0
 40
0
 41
0
  0
VERTEX
  8
0
 10
1.82032
 20
0.66824
 30
0.0
 40
0
 41
0
  0
VERTEX
  8
0
 10
1.78033
 20
0.670085
 30
0.0
 40
0
 41
0
  0
VERTEX
  8
0
 10
1.74089
 20
0.677137
 30
0.0
 40
0
 41
0
  0
VERTEX
  8
0
 10
1.73335
 20
0.679199
 30
0.0
 40
0
 41
0
  0
VERTEX
  8
0
 10
1.72575
 20
0.681261
 30
0.0
 40
0
 41
0
  0
VERTEX
  8
0
 10
1.69114
 20
0.698785
 30
0.0
 40
0
 41
0
  0
VERTEX
  8
0
 10
1.65858
 20
0.719997
 30
0.0
 40
0
 41
0
  0
VERTEX
  8
0
 10
1.65207
 20
0.723904
 30
0.0
 40
0
 41
0
  0
VERTEX
  8
0
 10
1.64556
 20
0.72781
 30
0.0
 40
0
 41
0
  0
VERTEX
  8
0
 10
1.61171
 20
0.735568
 30
0.0
 40
0
 41
0
  0
VERTEX
  8
0
 10
1.57676
 20
0.731228
 30
0.0
 40
0
 41
0
  0
VERTEX
  8
0
 10
1.56976
 20
0.729113
 30
0.0
 40
0
 41
0
  0
VERTEX
  8
0
 10
1.55464
 20
0.724718
 30
0.0
 40
0
 41
0
  0
VERTEX
  8
0
 10
1.40392
 20
0.684407
 30
0.0
 40
0
 41
0
  0
VERTEX
  8
0
 10
1.38856
 20
0.681261
 30
0.0
 40
0
 41
0
  0
VERTEX
  8
0
 10
1.36692
 20
0.676867
 30
0.0
 40
0
 41
0
  0
VERTEX
  8
0
 10
1.30273
 20
0.660265
 30
0.0
 40
0
 41
0
  0
VERTEX
  8
0
 10
1.21701
 20
0.629611
 30
0.0
 40
0
 41
0
  0
VERTEX
  8
0
 10
1.13818
 20
0.586262
 30
0.0
 40
0
 41
0
  0
VERTEX
  8
0
 10
1.08681
 20
0.543946
 30
0.0
 40
0
 41
0
  0
VERTEX
  8
0
 10
1.07292
 20
0.527126
 30
0.0
 40
0
 41
0
  0
VERTEX
  8
0
 10
1.06299
 20
0.515136
 30
0.0
 40
0
 41
0
  0
VERTEX
  8
0
 10
1.02468
 20
0.452636
 30
0.0
 40
0
 41
0
  0
VERTEX
  8
0
 10
0.999946
 20
0.383897
 30
0.0
 40
0
 41
0
  0
VERTEX
  8
0
 10
0.996853
 20
0.368761
 30
0.0
 40
0
 41
0
  0
VERTEX
  8
0
 10
0.995281
 20
0.360949
 30
0.0
 40
0
 41
0
  0
VERTEX
  8
0
 10
0.981717
 20
0.282824
 30
0.0
 40
0
 41
0
  0
VERTEX
  8
0
 10
0.980197
 20
0.275011
 30
0.0
 40
0
 41
0
  0
VERTEX
  8
0
 10
0.978624
 20
0.267469
 30
0.0
 40
0
 41
0
  0
VERTEX
  8
0
 10
0.958333
 20
0.194769
 30
0.0
 40
0
 41
0
  0
VERTEX
  8
0
 10
0.956272
 20
0.187446
 30
0.0
 40
0
 41
0
  0
VERTEX
  8
0
 10
0.952854
 20
0.175239
 30
0.0
 40
0
 41
0
  0
VERTEX
  8
0
 10
0.924317
 20
0.120117
 30
0.0
 40
0
 41
0
  0
VERTEX
  8
0
 10
0.880697
 20
0.0763346
 30
0.0
 40
0
 41
0
  0
VERTEX
  8
0
 10
0.869792
 20
0.0698242
 30
0.0
 40
0
 41
0
  0
VERTEX
  8
0
 10
0.856987
 20
0.0622831
 30
0.0
 40
0
 41
0
  0
VERTEX
  8
0
 10
0.78966
 20
0.0327149
 30
0.0
 40
0
 41
0
  0
VERTEX
  8
0
 10
0.718696
 20
0.0129666
 30
0.0
 40
0
 41
0
  0
VERTEX
  8
0
 10
0.704156
 20
0.0103624
 30
0.0
 40
0
 41
0
  0
VERTEX
  8
0
 10
0.696072
 20
0.00726997
 30
0.0
 40
0
 41
0
  0
VERTEX
  8
0
 10
0.655436
 20
0.00162761
 30
0.0
 40
0
 41
0
  0
VERTEX
  8
0
 10
0.620117
 20
0.00211589
 30
0.0
 40
0
 41
0
  0
VERTEX
  8
0
 10
0.608344
 20
0.00211589
 30
0.0
 40
0
 41
0
  0
VERTEX
  8
0
 10
0.608344
 20
0.00211589
 30
0.0
 40
0
 41
0
  0
VERTEX
  8
0
 10
0.611111
 20
0.00211589
 30
0.0
 40
0
 41
0
  0
VERTEX
  8
0
 10
0.618056
 20
0.00211589
 30
0.0
 40
0
 41
0
  0
VERTEX
  8
0
 10
0.620171
 20
0.00211589
 30
0.0
 40
0
 41
0
  0
VERTEX
  8
0
 10
0.611274
 20
0.00211589
 30
0.0
 40
0
 41
0
  0
VERTEX
  8
0
 10
0.608344
 20
0.00211589
 30
0.0
 40
0
 41
0
  0
SEQEND
 8
0
  0
POLYLINE
  8
0
 62
     0
 66
     1
 10
0
 20
0
 30
0.0
 70
     1
 40
0
 41
0
  0
VERTEX
  8
0
 10
0.990614
 20
0.984321
 30
0.0
 40
0
 41
0
  0
VERTEX
  8
0
 10
0.990614
 20
0.992079
 30
0.0
 40
0
 41
0
  0
VERTEX
  8
0
 10
0.989258
 20
1.01535
 30
0.0
 40
0
 41
0
  0
VERTEX
  8
0
 10
0.983018
 20
1.04601
 30
0.0
 40
0
 41
0
  0
VERTEX
  8
0
 10
0.968642
 20
1.07221
 30
0.0
 40
0
 41
0
  0
VERTEX
  8
0
 10
0.949815
 20
1.08713
 30
0.0
 40
0
 41
0
  0
VERTEX
  8
0
 10
0.942708
 20
1.08963
 30
0.0
 40
0
 41
0
  0
VERTEX
  8
0
 10
0.934733
 20
1.09245
 30
0.0
 40
0
 41
0
  0
VERTEX
  8
0
 10
0.907932
 20
1.09283
 30
0.0
 40
0
 41
0
  0
VERTEX
  8
0
 10
0.874729
 20
1.08138
 30
0.0
 40
0
 41
0
  0
VERTEX
  8
0
 10
0.844239
 20
1.06163
 30
0.0
 40
0
 41
0
  0
VERTEX
  8
0
 10
0.824164
 20
1.04525
 30
0.0
 40
0
 41
0
  0
VERTEX
  8
0
 10
0.817708
 20
1.03961
 30
0.0
 40
0
 41
0
  0
VERTEX
  8
0
 10
0.807508
 20
1.03103
 30
0.0
 40
0
 41
0
  0
VERTEX
  8
0
 10
0.761556
 20
0.983182
 30
0.0
 40
0
 41
0
  0
VERTEX
  8
0
 10
0.720324
 20
0.930772
 30
0.0
 40
0
 41
0
  0
VERTEX
  8
0
 10
0.712511
 20
0.919814
 30
0.0
 40
0
 41
0
  0
VERTEX
  8
0
 10
0.708604
 20
0.914387
 30
0.0
 40
0
 41
0
  0
VERTEX
  8
0
 10
0.671604
 20
0.858615
 30
0.0
 40
0
 41
0
  0
VERTEX
  8
0
 10
0.667697
 20
0.853136
 30
0.0
 40
0
 41
0
  0
VERTEX
  8
0
 10
0.663792
 20
0.847928
 30
0.0
 40
0
 41
0
  0
VERTEX
  8
0
 10
0.620281
 20
0.801269
 30
0.0
 40
0
 41
0
  0
VERTEX
  8
0
 10
0.615614
 20
0.796821
 30
0.0
 40
0
 41
0
  0
VERTEX
  8
0
 10
0.605686
 20
0.787218
 30
0.0
 40
0
 41
0
  0
VERTEX
  8
0
 10
0.555067
 20
0.742079
 30
0.0
 40
0
 41
0
  0
VERTEX
  8
0
 10
0.499729
 20
0.702636
 30
0.0
 40
0
 41
0
  0
VERTEX
  8
0
 10
0.487522
 20
0.695856
 30
0.0
 40
0
 41
0
  0
VERTEX
  8
0
 10
0.475532
 20
0.689344
 30
0.0
 40
0
 41
0
  0
VERTEX
  8
0
 10
0.351292
 20
0.631293
 30
0.0
 40
0
 41
0
  0
VERTEX
  8
0
 10
0.338542
 20
0.626085
 30
0.0
 40
0
 41
0
  0
VERTEX
  8
0
 10
0.326551
 20
0.621419
 30
0.0
 40
0
 41
0
  0
VERTEX
  8
0
 10
0.268229
 20
0.597819
 30
0.0
 40
0
 41
0
  0
VERTEX
  8
0
 10
0.211968
 20
0.569499
 30
0.0
 40
0
 41
0
  0
VERTEX
  8
0
 10
0.201064
 20
0.562446
 30
0.0
 40
0
 41
0
  0
VERTEX
  8
0
 10
0.191678
 20
0.556261
 30
0.0
 40
0
 41
0
  0
VERTEX
  8
0
 10
0.146593
 20
0.515679
 30
0.0
 40
0
 41
0
  0
VERTEX
  8
0
 10
0.110894
 20
0.466689
 30
0.0
 40
0
 41
0
  0
VERTEX
  8
0
 10
0.106228
 20
0.456272
 30
0.0
 40
0
 41
0
  0
VERTEX
  8
0
 10
0.101291
 20
0.444553
 30
0.0
 40
0
 41
0
  0
VERTEX
  8
0
 10
0.0957032
 20
0.386882
 30
0.0
 40
0
 41
0
  0
VERTEX
  8
0
 10
0.116645
 20
0.33279
 30
0.0
 40
0
 41
0
  0
VERTEX
  8
0
 10
0.125
 20
0.322862
 30
0.0
 40
0
 41
0
  0
VERTEX
  8
0
 10
0.133572
 20
0.312771
 30
0.0
 40
0
 41
0
  0
VERTEX
  8
0
 10
0.18316
 20
0.272407
 30
0.0
 40
0
 41
0
  0
VERTEX
  8
0
 10
0.238499
 20
0.240343
 30
0.0
 40
0
 41
0
  0
VERTEX
  8
0
 10
0.25
 20
0.234321
 30
0.0
 40
0
 41
0
  0
VERTEX
  8
0
 10
0.261936
 20
0.22781
 30
0.0
 40
0
 41
0
  0
VERTEX
  8
0
 10
0.324815
 20
0.202094
 30
0.0
 40
0
 41
0
  0
VERTEX
  8
0
 10
0.389268
 20
0.180501
 30
0.0
 40
0
 41
0
  0
VERTEX
  8
0
 10
0.402072
 20
0.176053
 30
0.0
 40
0
 41
0
  0
VERTEX
  8
0
 10
0.414822
 20
0.171929
 30
0.0
 40
0
 41
0
  0
VERTEX
  8
0
 10
0.478353
 20
0.151367
 30
0.0
 40
0
 41
0
  0
VERTEX
  8
0
 10
0.542969
 20
0.133898
 30
0.0
 40
0
 41
0
  0
VERTEX
  8
0
 10
0.556261
 20
0.131293
 30
0.0
 40
0
 41
0
  0
VERTEX
  8
0
 10
0.574599
 20
0.127658
 30
0.0
 40
0
 41
0
  0
VERTEX
  8
0
 10
0.630751
 20
0.121799
 30
0.0
 40
0
 41
0
  0
VERTEX
  8
0
 10
0.70779
 20
0.125705
 30
0.0
 40
0
 41
0
  0
VERTEX
  8
0
 10
0.778592
 20
0.149306
 30
0.0
 40
0
 41
0
  0
VERTEX
  8
0
 10
0.823947
 20
0.184136
 30
0.0
 40
0
 41
0
  0
VERTEX
  8
0
 10
0.834364
 20
0.199001
 30
0.0
 40
0
 41
0
  0
VERTEX
  8
0
 10
0.849989
 20
0.220865
 30
0.0
 40
0
 41
0
  0
VERTEX
  8
0
 10
0.90191
 20
0.34299
 30
0.0
 40
0
 41
0
  0
VERTEX
  8
0
 10
0.947103
 20
0.468261
 30
0.0
 40
0
 41
0
  0
VERTEX
  8
0
 10
0.959364
 20
0.491699
 30
0.0
 40
0
 41
0
  0
VERTEX
  8
0
 10
0.965332
 20
0.503201
 30
0.0
 40
0
 41
0
  0
VERTEX
  8
0
 10
1.00011
 20
0.557617
 30
0.0
 40
0
 41
0
  0
VERTEX
  8
0
 10
1.04167
 20
0.606825
 30
0.0
 40
0
 41
0
  0
VERTEX
  8
0
 10
1.05105
 20
0.615668
 30
0.0
 40
0
 41
0
  0
VERTEX
  8
0
 10
1.05783
 20
0.622071
 30
0.0
 40
0
 41
0
  0
VERTEX
  8
0
 10
1.08051
 20
0.638889
 30
0.0
 40
0
 41
0
  0
VERTEX
  8
0
 10
1.11263
 20
0.660699
 30
0.0
 40
0
 41
0
  0
VERTEX
  8
0
 10
1.14258
 20
0.684517
 30
0.0
 40
0
 41
0
  0
VERTEX
  8
0
 10
1.16124
 20
0.705513
 30
0.0
 40
0
 41
0
  0
VERTEX
  8
0
 10
1.16564
 20
0.713488
 30
0.0
 40
0
 41
0
  0
VERTEX
  8
0
 10
1.169
 20
0.719564
 30
0.0
 40
0
 41
0
  0
VERTEX
  8
0
 10
1.16553
 20
0.745389
 30
0.0
 40
0
 41
0
  0
VERTEX
  8
0
 10
1.13672
 20
0.769911
 30
0.0
 40
0
 41
0
  0
VERTEX
  8
0
 10
1.09733
 20
0.788357
 30
0.0
 40
0
 41
0
  0
VERTEX
  8
0
 10
1.07292
 20
0.798122
 30
0.0
 40
0
 41
0
  0
VERTEX
  8
0
 10
1.06565
 20
0.802029
 30
0.0
 40
0
 41
0
  0
VERTEX
  8
0
 10
1.06044
 20
0.804958
 30
0.0
 40
0
 41
0
  0
VERTEX
  8
0
 10
1.03472
 20
0.820367
 30
0.0
 40
0
 41
0
  0
VERTEX
  8
0
 10
1.01275
 20
0.839899
 30
0.0
 40
0
 41
0
  0
VERTEX
  8
0
 10
1.00939
 20
0.844835
 30
0.0
 40
0
 41
0
  0
VERTEX
  8
0
 10
1.00597
 20
0.849556
 30
0.0
 40
0
 41
0
  0
VERTEX
  8
0
 10
0.992947
 20
0.875597
 30
0.0
 40
0
 41
0
  0
VERTEX
  8
0
 10
0.985135
 20
0.9037
 30
0.0
 40
0
 41
0
  0
VERTEX
  8
0
 10
0.984375
 20
0.909397
 30
0.0
 40
0
 41
0
  0
VERTEX
  8
0
 10
0.984104
 20
0.91569
 30
0.0
 40
0
 41
0
  0
VERTEX
  8
0
 10
0.990072
 20
0.978136
 30
0.0
 40
0
 41
0
  0
VERTEX
  8
0
 10
0.990614
 20
0.984321
 30
0.0
 40
0
 41
0
  0
VERTEX
  8
0
 10
0.990614
 20
0.986871
 30
0.0
 40
0
 41
0
  0
VERTEX
  8
0
 10
0.990451
 20
0.994358
 30
0.0
 40
0
 41
0
  0
VERTEX
  8
0
 10
0.990181
 20
0.990614
 30
0.0
 40
0
 41
0
  0
VERTEX
  8
0
 10
0.990126
 20
0.983778
 30
0.0
 40
0
 41
0
  0
VERTEX
  8
0
 10
0.99056
 20
0.984212
 30
0.0
 40
0
 41
0
  0
VERTEX
  8
0
 10
0.990614
 20
0.984321
 30
0.0
 40
0
 41
0
  0
SEQEND
 8
0
  0
POLYLINE
  8
0
 62
     0
 66
     1
 10
0
 20
0
 30
0.0
 70
     1
 40
0
 41
0
  0
VERTEX
  8
0
 10
0.530219
 20
2.23432
 30
0.0
 40
0
 41
0
  0
VERTEX
  8
0
 10
0.528267
 20
2.23415
 30
0.0
 40
0
 41
0
  0
VERTEX
  8
0
 10
0.523221
 20
2.22547
 30
0.0
 40
0
 41
0
  0
VERTEX
  8
0
 10
0.518989
 20
2.20617
 30
0.0
 40
0
 41
0
  0
VERTEX
  8
0
 10
0.51671
 20
2.18506
 30
0.0
 40
0
 41
0
  0
VERTEX
  8
0
 10
0.515842
 20
2.17344
 30
0.0
 40
0
 41
0
  0
VERTEX
  8
0
 10
0.515625
 20
2.17085
 30
0.0
 40
0
 41
0
  0
VERTEX
  8
0
 10
0.515354
 20
2.16411
 30
0.0
 40
0
 41
0
  0
VERTEX
  8
0
 10
0.515625
 20
2.10829
 30
0.0
 40
0
 41
0
  0
VERTEX
  8
0
 10
0.515625
 20
2.08963
 30
0.0
 40
0
 41
0
  0
VERTEX
  8
0
 10
0.515625
 20
2.0709
 30
0.0
 40
0
 41
0
  0
VERTEX
  8
0
 10
0.516114
 20
2.02089
 30
0.0
 40
0
 41
0
  0
VERTEX
  8
0
 10
0.516656
 20
2.0146
 30
0.0
 40
0
 41
0
  0
VERTEX
  8
0
 10
0.517144
 20
2.00786
 30
0.0
 40
0
 41
0
  0
VERTEX
  8
0
 10
0.524576
 20
1.97412
 30
0.0
 40
0
 41
0
  0
VERTEX
  8
0
 10
0.534614
 20
1.94092
 30
0.0
 40
0
 41
0
  0
VERTEX
  8
0
 10
0.536458
 20
1.9344
 30
0.0
 40
0
 41
0
  0
VERTEX
  8
0
 10
0.539822
 20
1.92269
 30
0.0
 40
0
 41
0
  0
VERTEX
  8
0
 10
0.559896
 20
1.86697
 30
0.0
 40
0
 41
0
  0
VERTEX
  8
0
 10
0.586208
 20
1.8144
 30
0.0
 40
0
 41
0
  0
VERTEX
  8
0
 10
0.592719
 20
1.80419
 30
0.0
 40
0
 41
0
  0
VERTEX
  8
0
 10
0.599229
 20
1.79432
 30
0.0
 40
0
 41
0
  0
VERTEX
  8
0
 10
0.635254
 20
1.75006
 30
0.0
 40
0
 41
0
  0
VERTEX
  8
0
 10
0.677083
 20
1.71203
 30
0.0
 40
0
 41
0
  0
VERTEX
  8
0
 10
0.686469
 20
1.70524
 30
0.0
 40
0
 41
0
  0
VERTEX
  8
0
 10
0.696343
 20
1.69797
 30
0.0
 40
0
 41
0
  0
VERTEX
  8
0
 10
0.75255
 20
1.67156
 30
0.0
 40
0
 41
0
  0
VERTEX
  8
0
 10
0.812989
 20
1.65392
 30
0.0
 40
0
 41
0
  0
VERTEX
  8
0
 10
0.824978
 20
1.65099
 30
0.0
 40
0
 41
0
  0
VERTEX
  8
0
 10
0.837728
 20
1.64817
 30
0.0
 40
0
 41
0
  0
VERTEX
  8
0
 10
0.900608
 20
1.65175
 30
0.0
 40
0
 41
0
  0
VERTEX
  8
0
 10
0.961968
 20
1.66824
 30
0.0
 40
0
 41
0
  0
VERTEX
  8
0
 10
0.973958
 20
1.67182
 30
0.0
 40
0
 41
0
  0
VERTEX
  8
0
 10
0.991265
 20
1.67697
 30
0.0
 40
0
 41
0
  0
VERTEX
  8
0
 10
1.04058
 20
1.70161
 30
0.0
 40
0
 41
0
  0
VERTEX
  8
0
 10
1.09787
 20
1.74615
 30
0.0
 40
0
 41
0
  0
VERTEX
  8
0
 10
1.14502
 20
1.80203
 30
0.0
 40
0
 41
0
  0
VERTEX
  8
0
 10
1.17367
 20
1.84912
 30
0.0
 40
0
 41
0
  0
VERTEX
  8
0
 10
1.18126
 20
1.86567
 30
0.0
 40
0
 41
0
  0
VERTEX
  8
0
 10
1.18696
 20
1.87842
 30
0.0
 40
0
 41
0
  0
VERTEX
  8
0
 10
1.20416
 20
1.94428
 30
0.0
 40
0
 41
0
  0
VERTEX
  8
0
 10
1.21094
 20
2.01221
 30
0.0
 40
0
 41
0
  0
VERTEX
  8
0
 10
1.21148
 20
2.02599
 30
0.0
 40
0
 41
0
  0
VERTEX
  8
0
 10
1.2117
 20
2.03358
 30
0.0
 40
0
 41
0
  0
VERTEX
  8
0
 10
1.21148
 20
2.09517
 30
0.0
 40
0
 41
0
  0
VERTEX
  8
0
 10
1.21148
 20
2.11567
 30
0.0
 40
0
 41
0
  0
VERTEX
  8
0
 10
1.21148
 20
2.12722
 30
0.0
 40
0
 41
0
  0
VERTEX
  8
0
 10
1.21289
 20
2.16189
 30
0.0
 40
0
 41
0
  0
VERTEX
  8
0
 10
1.2117
 20
2.20003
 30
0.0
 40
0
 41
0
  0
VERTEX
  8
0
 10
1.21039
 20
2.20731
 30
0.0
 40
0
 41
0
  0
VERTEX
  8
0
 10
1.20806
 20
2.20682
 30
0.0
 40
0
 41
0
  0
VERTEX
  8
0
 10
1.18566
 20
2.20133
 30
0.0
 40
0
 41
0
  0
VERTEX
  8
0
 10
1.18332
 20
2.20107
 30
0.0
 40
0
 41
0
  0
VERTEX
  8
0
 10
1.18121
 20
2.20085
 30
0.0
 40
0
 41
0
  0
VERTEX
  8
0
 10
1.16482
 20
2.20307
 30
0.0
 40
0
 41
0
  0
VERTEX
  8
0
 10
1.1594
 20
2.20307
 30
0.0
 40
0
 41
0
  0
VERTEX
  8
0
 10
1.15473
 20
2.20307
 30
0.0
 40
0
 41
0
  0
VERTEX
  8
0
 10
1.14084
 20
2.19157
 30
0.0
 40
0
 41
0
  0
VERTEX
  8
0
 10
1.132
 20
2.17324
 30
0.0
 40
0
 41
0
  0
VERTEX
  8
0
 10
1.13021
 20
2.16982
 30
0.0
 40
0
 41
0
  0
VERTEX
  8
0
 10
1.12782
 20
2.16515
 30
0.0
 40
0
 41
0
  0
VERTEX
  8
0
 10
1.10444
 20
2.11751
 30
0.0
 40
0
 41
0
  0
VERTEX
  8
0
 10
1.10211
 20
2.11253
 30
0.0
 40
0
 41
0
  0
VERTEX
  8
0
 10
1.09972
 20
2.10813
 30
0.0
 40
0
 41
0
  0
VERTEX
  8
0
 10
1.08556
 20
2.08361
 30
0.0
 40
0
 41
0
  0
VERTEX
  8
0
 10
1.07395
 20
2.05811
 30
0.0
 40
0
 41
0
  0
VERTEX
  8
0
 10
1.07292
 20
2.05317
 30
0.0
 40
0
 41
0
  0
VERTEX
  8
0
 10
1.0721
 20
2.04953
 30
0.0
 40
0
 41
0
  0
VERTEX
  8
0
 10
1.07612
 20
2.03093
 30
0.0
 40
0
 41
0
  0
VERTEX
  8
0
 10
1.07655
 20
2.01281
 30
0.0
 40
0
 41
0
  0
VERTEX
  8
0
 10
1.07395
 20
2.00939
 30
0.0
 40
0
 41
0
  0
VERTEX
  8
0
 10
1.07265
 20
2.00786
 30
0.0
 40
0
 41
0
  0
VERTEX
  8
0
 10
1.05702
 20
2.0019
 30
0.0
 40
0
 41
0
  0
VERTEX
  8
0
 10
1.05523
 20
2.00108
 30
0.0
 40
0
 41
0
  0
VERTEX
  8
0
 10
1.05263
 20
2.00006
 30
0.0
 40
0
 41
0
  0
VERTEX
  8
0
 10
1.04449
 20
1.99365
 30
0.0
 40
0
 41
0
  0
VERTEX
  8
0
 10
1.03955
 20
1.98469
 30
0.0
 40
0
 41
0
  0
VERTEX
  8
0
 10
1.03852
 20
1.98232
 30
0.0
 40
0
 41
0
  0
VERTEX
  8
0
 10
1.03668
 20
1.97792
 30
0.0
 40
0
 41
0
  0
VERTEX
  8
0
 10
1.01769
 20
1.93175
 30
0.0
 40
0
 41
0
  0
VERTEX
  8
0
 10
1.01563
 20
1.92703
 30
0.0
 40
0
 41
0
  0
VERTEX
  8
0
 10
1.01378
 20
1.92264
 30
0.0
 40
0
 41
0
  0
VERTEX
  8
0
 10
0.994249
 20
1.87608
 30
0.0
 40
0
 41
0
  0
VERTEX
  8
0
 10
0.991644
 20
1.8719
 30
0.0
 40
0
 41
0
  0
VERTEX
  8
0
 10
0.9898
 20
1.86903
 30
0.0
 40
0
 41
0
  0
VERTEX
  8
0
 10
0.976887
 20
1.8649
 30
0.0
 40
0
 41
0
  0
VERTEX
  8
0
 10
0.968479
 20
1.87765
 30
0.0
 40
0
 41
0
  0
VERTEX
  8
0
 10
0.967719
 20
1.88129
 30
0.0
 40
0
 41
0
  0
VERTEX
  8
0
 10
0.966635
 20
1.88601
 30
0.0
 40
0
 41
0
  0
VERTEX
  8
0
 10
0.960667
 20
1.93599
 30
0.0
 40
0
 41
0
  0
VERTEX
  8
0
 10
0.960394
 20
1.94065
 30
0.0
 40
0
 41
0
  0
VERTEX
  8
0
 10
0.960124
 20
1.94564
 30
0.0
 40
0
 41
0
  0
VERTEX
  8
0
 10
0.964301
 20
1.96815
 30
0.0
 40
0
 41
0
  0
VERTEX
  8
0
 10
0.96951
 20
1.99007
 30
0.0
 40
0
 41
0
  0
VERTEX
  8
0
 10
0.969781
 20
1.99474
 30
0.0
 40
0
 41
0
  0
VERTEX
  8
0
 10
0.969889
 20
1.99724
 30
0.0
 40
0
 41
0
  0
VERTEX
  8
0
 10
0.966581
 20
2.00493
 30
0.0
 40
0
 41
0
  0
VERTEX
  8
0
 10
0.957519
 20
2.01019
 30
0.0
 40
0
 41
0
  0
VERTEX
  8
0
 10
0.945747
 20
2.01269
 30
0.0
 40
0
 41
0
  0
VERTEX
  8
0
 10
0.937121
 20
2.014
 30
0.0
 40
0
 41
0
  0
VERTEX
  8
0
 10
0.934353
 20
2.0146
 30
0.0
 40
0
 41
0
  0
VERTEX
  8
0
 10
0.929633
 20
2.01568
 30
0.0
 40
0
 41
0
  0
VERTEX
  8
0
 10
0.881728
 20
2.02664
 30
0.0
 40
0
 41
0
  0
VERTEX
  8
0
 10
0.877061
 20
2.02713
 30
0.0
 40
0
 41
0
  0
VERTEX
  8
0
 10
0.872342
 20
2.02767
 30
0.0
 40
0
 41
0
  0
VERTEX
  8
0
 10
0.856065
 20
2.01579
 30
0.0
 40
0
 41
0
  0
VERTEX
  8
0
 10
0.84554
 20
1.99615
 30
0.0
 40
0
 41
0
  0
VERTEX
  8
0
 10
0.84375
 20
1.99274
 30
0.0
 40
0
 41
0
  0
VERTEX
  8
0
 10
0.838758
 20
1.98361
 30
0.0
 40
0
 41
0
  0
VERTEX
  8
0
 10
0.794
 20
1.88781
 30
0.0
 40
0
 41
0
  0
VERTEX
  8
0
 10
0.789606
 20
1.87815
 30
0.0
 40
0
 41
0
  0
VERTEX
  8
0
 10
0.787489
 20
1.87349
 30
0.0
 40
0
 41
0
  0
VERTEX
  8
0
 10
0.766656
 20
1.82758
 30
0.0
 40
0
 41
0
  0
VERTEX
  8
0
 10
0.764594
 20
1.82286
 30
0.0
 40
0
 41
0
  0
VERTEX
  8
0
 10
0.76275
 20
1.81928
 30
0.0
 40
0
 41
0
  0
VERTEX
  8
0
 10
0.753093
 20
1.79617
 30
0.0
 40
0
 41
0
  0
VERTEX
  8
0
 10
0.739312
 20
1.7761
 30
0.0
 40
0
 41
0
  0
VERTEX
  8
0
 10
0.735406
 20
1.77399
 30
0.0
 40
0
 41
0
  0
VERTEX
  8
0
 10
0.73226
 20
1.77246
 30
0.0
 40
0
 41
0
  0
VERTEX
  8
0
 10
0.715712
 20
1.77399
 30
0.0
 40
0
 41
0
  0
VERTEX
  8
0
 10
0.701768
 20
1.78381
 30
0.0
 40
0
 41
0
  0
VERTEX
  8
0
 10
0.699978
 20
1.7864
 30
0.0
 40
0
 41
0
  0
VERTEX
  8
0
 10
0.698296
 20
1.78917
 30
0.0
 40
0
 41
0
  0
VERTEX
  8
0
 10
0.696724
 20
1.79949
 30
0.0
 40
0
 41
0
  0
VERTEX
  8
0
 10
0.701389
 20
1.81093
 30
0.0
 40
0
 41
0
  0
VERTEX
  8
0
 10
0.709799
 20
1.82161
 30
0.0
 40
0
 41
0
  0
VERTEX
  8
0
 10
0.716092
 20
1.82949
 30
0.0
 40
0
 41
0
  0
VERTEX
  8
0
 10
0.717719
 20
1.83231
 30
0.0
 40
0
 41
0
  0
VERTEX
  8
0
 10
0.720324
 20
1.83649
 30
0.0
 40
0
 41
0
  0
VERTEX
  8
0
 10
0.738769
 20
1.88211
 30
0.0
 40
0
 41
0
  0
VERTEX
  8
0
 10
0.740614
 20
1.8865
 30
0.0
 40
0
 41
0
  0
VERTEX
  8
0
 10
0.742404
 20
1.89144
 30
0.0
 40
0
 41
0
  0
VERTEX
  8
0
 10
0.765354
 20
1.94092
 30
0.0
 40
0
 41
0
  0
VERTEX
  8
0
 10
0.767686
 20
1.94586
 30
0.0
 40
0
 41
0
  0
VERTEX
  8
0
 10
0.770019
 20
1.95057
 30
0.0
 40
0
 41
0
  0
VERTEX
  8
0
 10
0.794271
 20
1.99849
 30
0.0
 40
0
 41
0
  0
VERTEX
  8
0
 10
0.796875
 20
2.00315
 30
0.0
 40
0
 41
0
  0
VERTEX
  8
0
 10
0.798232
 20
2.00569
 30
0.0
 40
0
 41
0
  0
VERTEX
  8
0
 10
0.802789
 20
2.01318
 30
0.0
 40
0
 41
0
  0
VERTEX
  8
0
 10
0.808539
 20
2.02479
 30
0.0
 40
0
 41
0
  0
VERTEX
  8
0
 10
0.810004
 20
2.03597
 30
0.0
 40
0
 41
0
  0
VERTEX
  8
0
 10
0.805339
 20
2.04357
 30
0.0
 40
0
 41
0
  0
VERTEX
  8
0
 10
0.803114
 20
2.04482
 30
0.0
 40
0
 41
0
  0
VERTEX
  8
0
 10
0.799696
 20
2.04665
 30
0.0
 40
0
 41
0
  0
VERTEX
  8
0
 10
0.779568
 20
2.0529
 30
0.0
 40
0
 41
0
  0
VERTEX
  8
0
 10
0.758843
 20
2.05811
 30
0.0
 40
0
 41
0
  0
VERTEX
  8
0
 10
0.755208
 20
2.0594
 30
0.0
 40
0
 41
0
  0
VERTEX
  8
0
 10
0.752061
 20
2.06049
 30
0.0
 40
0
 41
0
  0
VERTEX
  8
0
 10
0.735135
 20
2.06722
 30
0.0
 40
0
 41
0
  0
VERTEX
  8
0
 10
0.719129
 20
2.06543
 30
0.0
 40
0
 41
0
  0
VERTEX
  8
0
 10
0.716689
 20
2.06244
 30
0.0
 40
0
 41
0
  0
VERTEX
  8
0
 10
0.714085
 20
2.05963
 30
0.0
 40
0
 41
0
  0
VERTEX
  8
0
 10
0.704318
 20
2.03976
 30
0.0
 40
0
 41
0
  0
VERTEX
  8
0
 10
0.697157
 20
2.01828
 30
0.0
 40
0
 41
0
  0
VERTEX
  8
0
 10
0.695856
 20
2.0146
 30
0.0
 40
0
 41
0
  0
VERTEX
  8
0
 10
0.693739
 20
2.00965
 30
0.0
 40
0
 41
0
  0
VERTEX
  8
0
 10
0.67654
 20
1.95828
 30
0.0
 40
0
 41
0
  0
VERTEX
  8
0
 10
0.675022
 20
1.95307
 30
0.0
 40
0
 41
0
  0
VERTEX
  8
0
 10
0.672146
 20
1.94347
 30
0.0
 40
0
 41
0
  0
VERTEX
  8
0
 10
0.661404
 20
1.89453
 30
0.0
 40
0
 41
0
  0
VERTEX
  8
0
 10
0.65701
 20
1.84457
 30
0.0
 40
0
 41
0
  0
VERTEX
  8
0
 10
0.657281
 20
1.83442
 30
0.0
 40
0
 41
0
  0
VERTEX
  8
0
 10
0.657281
 20
1.82633
 30
0.0
 40
0
 41
0
  0
VERTEX
  8
0
 10
0.659125
 20
1.80464
 30
0.0
 40
0
 41
0
  0
VERTEX
  8
0
 10
0.659397
 20
1.80203
 30
0.0
 40
0
 41
0
  0
VERTEX
  8
0
 10
0.659614
 20
1.80072
 30
0.0
 40
0
 41
0
  0
VERTEX
  8
0
 10
0.66211
 20
1.79112
 30
0.0
 40
0
 41
0
  0
VERTEX
  8
0
 10
0.662978
 20
1.78153
 30
0.0
 40
0
 41
0
  0
VERTEX
  8
0
 10
0.662489
 20
1.78022
 30
0.0
 40
0
 41
0
  0
VERTEX
  8
0
 10
0.661729
 20
1.77854
 30
0.0
 40
0
 41
0
  0
VERTEX
  8
0
 10
0.654949
 20
1.77528
 30
0.0
 40
0
 41
0
  0
VERTEX
  8
0
 10
0.645182
 20
1.78103
 30
0.0
 40
0
 41
0
  0
VERTEX
  8
0
 10
0.63596
 20
1.79112
 30
0.0
 40
0
 41
0
  0
VERTEX
  8
0
 10
0.631239
 20
1.79747
 30
0.0
 40
0
 41
0
  0
VERTEX
  8
0
 10
0.630208
 20
1.79899
 30
0.0
 40
0
 41
0
  0
VERTEX
  8
0
 10
0.621257
 20
1.81267
 30
0.0
 40
0
 41
0
  0
VERTEX
  8
0
 10
0.60536
 20
1.86074
 30
0.0
 40
0
 41
0
  0
VERTEX
  8
0
 10
0.602974
 20
1.92638
 30
0.0
 40
0
 41
0
  0
VERTEX
  8
0
 10
0.61594
 20
1.99235
 30
0.0
 40
0
 41
0
  0
VERTEX
  8
0
 10
0.631456
 20
2.03976
 30
0.0
 40
0
 41
0
  0
VERTEX
  8
0
 10
0.637478
 20
2.05524
 30
0.0
 40
0
 41
0
  0
VERTEX
  8
0
 10
0.63851
 20
2.05811
 30
0.0
 40
0
 41
0
  0
VERTEX
  8
0
 10
0.648004
 20
2.07775
 30
0.0
 40
0
 41
0
  0
VERTEX
  8
0
 10
0.653862
 20
2.09793
 30
0.0
 40
0
 41
0
  0
VERTEX
  8
0
 10
0.653103
 20
2.10107
 30
0.0
 40
0
 41
0
  0
VERTEX
  8
0
 10
0.652289
 20
2.10444
 30
0.0
 40
0
 41
0
  0
VERTEX
  8
0
 10
0.636068
 20
2.11914
 30
0.0
 40
0
 41
0
  0
VERTEX
  8
0
 10
0.616157
 20
2.13129
 30
0.0
 40
0
 41
0
  0
VERTEX
  8
0
 10
0.613553
 20
2.13336
 30
0.0
 40
0
 41
0
  0
VERTEX
  8
0
 10
0.609104
 20
2.13678
 30
0.0
 40
0
 41
0
  0
VERTEX
  8
0
 10
0.569011
 20
2.17507
 30
0.0
 40
0
 41
0
  0
VERTEX
  8
0
 10
0.565647
 20
2.17919
 30
0.0
 40
0
 41
0
  0
VERTEX
  8
0
 10
0.56174
 20
2.18419
 30
0.0
 40
0
 41
0
  0
VERTEX
  8
0
 10
0.532824
 20
2.22993
 30
0.0
 40
0
 41
0
  0
VERTEX
  8
0
 10
0.530219
 20
2.23432
 30
0.0
 40
0
 41
0
  0
VERTEX
  8
0
 10
0.530219
 20
2.23432
 30
0.0
 40
0
 41
0
  0
VERTEX
  8
0
 10
0.530219
 20
2.23432
 30
0.0
 40
0
 41
0
  0
VERTEX
  8
0
 10
0.530219
 20
2.23432
 30
0.0
 40
0
 41
0
  0
SEQEND
 8
0
  0
POLYLINE
  8
0
 62
     0
 66
     1
 10
0
 20
0
 30
0.0
 70
     1
 40
0
 41
0
  0
VERTEX
  8
0
 10
1.29584
 20
0.906196
 30
0.0
 40
0
 41
0
  0
VERTEX
  8
0
 10
1.29682
 20
0.904406
 30
0.0
 40
0
 41
0
  0
VERTEX
  8
0
 10
1.30718
 20
0.902994
 30
0.0
 40
0
 41
0
  0
VERTEX
  8
0
 10
1.32796
 20
0.905003
 30
0.0
 40
0
 41
0
  0
VERTEX
  8
0
 10
1.35015
 20
0.908908
 30
0.0
 40
0
 41
0
  0
VERTEX
  8
0
 10
1.36247
 20
0.911187
 30
0.0
 40
0
 41
0
  0
VERTEX
  8
0
 10
1.36561
 20
0.911404
 30
0.0
 40
0
 41
0
  0
VERTEX
  8
0
 10
1.37185
 20
0.912218
 30
0.0
 40
0
 41
0
  0
VERTEX
  8
0
 10
1.43539
 20
0.923719
 30
0.0
 40
0
 41
0
  0
VERTEX
  8
0
 10
1.44168
 20
0.925022
 30
0.0
 40
0
 41
0
  0
VERTEX
  8
0
 10
1.45313
 20
0.927626
 30
0.0
 40
0
 41
0
  0
VERTEX
  8
0
 10
1.51172
 20
0.941297
 30
0.0
 40
0
 41
0
  0
VERTEX
  8
0
 10
1.56922
 20
0.957574
 30
0.0
 40
0
 41
0
  0
VERTEX
  8
0
 10
1.58018
 20
0.961481
 30
0.0
 40
0
 41
0
  0
VERTEX
  8
0
 10
1.58762
 20
0.964193
 30
0.0
 40
0
 41
0
  0
VERTEX
  8
0
 10
1.60986
 20
0.972493
 30
0.0
 40
0
 41
0
  0
VERTEX
  8
0
 10
1.64046
 20
0.986003
 30
0.0
 40
0
 41
0
  0
VERTEX
  8
0
 10
1.66851
 20
1.00336
 30
0.0
 40
0
 41
0
  0
VERTEX
  8
0
 10
1.68614
 20
1.01964
 30
0.0
 40
0
 41
0
  0
VERTEX
  8
0
 10
1.69065
 20
1.02599
 30
0.0
 40
0
 41
0
  0
VERTEX
  8
0
 10
1.69521
 20
1.03239
 30
0.0
 40
0
 41
0
  0
VERTEX
  8
0
 10
1.70514
 20
1.05442
 30
0.0
 40
0
 41
0
  0
VERTEX
  8
0
 10
1.713
 20
1.08729
 30
0.0
 40
0
 41
0
  0
VERTEX
  8
0
 10
1.71463
 20
1.12131
 30
0.0
 40
0
 41
0
  0
VERTEX
  8
0
 10
1.71218
 20
1.1454
 30
0.0
 40
0
 41
0
  0
VERTEX
  8
0
 10
1.71039
 20
1.15316
 30
0.0
 40
0
 41
0
  0
VERTEX
  8
0
 10
1.7091
 20
1.15864
 30
0.0
 40
0
 41
0
  0
VERTEX
  8
0
 10
1.68804
 20
1.21072
 30
0.0
 40
0
 41
0
  0
VERTEX
  8
0
 10
1.68544
 20
1.21566
 30
0.0
 40
0
 41
0
  0
VERTEX
  8
0
 10
1.68414
 20
1.21826
 30
0.0
 40
0
 41
0
  0
VERTEX
  8
0
 10
1.66922
 20
1.2443
 30
0.0
 40
0
 41
0
  0
VERTEX
  8
0
 10
1.66769
 20
1.24691
 30
0.0
 40
0
 41
0
  0
VERTEX
  8
0
 10
1.66661
 20
1.24875
 30
0.0
 40
0
 41
0
  0
VERTEX
  8
0
 10
1.66081
 20
1.26058
 30
0.0
 40
0
 41
0
  0
VERTEX
  8
0
 10
1.65267
 20
1.26877
 30
0.0
 40
0
 41
0
  0
VERTEX
  8
0
 10
1.65001
 20
1.26877
 30
0.0
 40
0
 41
0
  0
VERTEX
  8
0
 10
1.64638
 20
1.26877
 30
0.0
 40
0
 41
0
  0
VERTEX
  8
0
 10
1.63564
 20
1.25944
 30
0.0
 40
0
 41
0
  0
VERTEX
  8
0
 10
1.62424
 20
1.24799
 30
0.0
 40
0
 41
0
  0
VERTEX
  8
0
 10
1.62294
 20
1.24691
 30
0.0
 40
0
 41
0
  0
VERTEX
  8
0
 10
1.62082
 20
1.24506
 30
0.0
 40
0
 41
0
  0
VERTEX
  8
0
 10
1.59999
 20
1.22689
 30
0.0
 40
0
 41
0
  0
VERTEX
  8
0
 10
1.59793
 20
1.22504
 30
0.0
 40
0
 41
0
  0
VERTEX
  8
0
 10
1.59554
 20
1.22298
 30
0.0
 40
0
 41
0
  0
VERTEX
  8
0
 10
1.5721
 20
1.20318
 30
0.0
 40
0
 41
0
  0
VERTEX
  8
0
 10
1.56976
 20
1.20106
 30
0.0
 40
0
 41
0
  0
VERTEX
  8
0
 10
1.56771
 20
1.199
 30
0.0
 40
0
 41
0
  0
VERTEX
  8
0
 10
1.56494
 20
1.18934
 30
0.0
 40
0
 41
0
  0
VERTEX
  8
0
 10
1.57032
 20
1.17893
 30
0.0
 40
0
 41
0
  0
VERTEX
  8
0
 10
1.57189
 20
1.17605
 30
0.0
 40
0
 41
0
  0
VERTEX
  8
0
 10
1.57422
 20
1.17112
 30
0.0
 40
0
 41
0
  0
VERTEX
  8
0
 10
1.58658
 20
1.14648
 30
0.0
 40
0
 41
0
  0
VERTEX
  8
0
 10
1.59526
 20
1.12028
 30
0.0
 40
0
 41
0
  0
VERTEX
  8
0
 10
1.59581
 20
1.11453
 30
0.0
 40
0
 41
0
  0
VERTEX
  8
0
 10
1.59631
 20
1.10883
 30
0.0
 40
0
 41
0
  0
VERTEX
  8
0
 10
1.58931
 20
1.05235
 30
0.0
 40
0
 41
0
  0
VERTEX
  8
0
 10
1.58751
 20
1.04682
 30
0.0
 40
0
 41
0
  0
VERTEX
  8
0
 10
1.58529
 20
1.04026
 30
0.0
 40
0
 41
0
  0
VERTEX
  8
0
 10
1.57503
 20
1.0217
 30
0.0
 40
0
 41
0
  0
VERTEX
  8
0
 10
1.55583
 20
1.00016
 30
0.0
 40
0
 41
0
  0
VERTEX
  8
0
 10
1.53136
 20
0.98584
 30
0.0
 40
0
 41
0
  0
VERTEX
  8
0
 10
1.50999
 20
0.981608
 30
0.0
 40
0
 41
0
  0
VERTEX
  8
0
 10
1.50315
 20
0.982314
 30
0.0
 40
0
 41
0
  0
VERTEX
  8
0
 10
1.49815
 20
0.982856
 30
0.0
 40
0
 41
0
  0
VERTEX
  8
0
 10
1.47461
 20
0.990614
 30
0.0
 40
0
 41
0
  0
VERTEX
  8
0
 10
1.45361
 20
1.00472
 30
0.0
 40
0
 41
0
  0
VERTEX
  8
0
 10
1.44997
 20
1.00836
 30
0.0
 40
0
 41
0
  0
VERTEX
  8
0
 10
1.44814
 20
1.0102
 30
0.0
 40
0
 41
0
  0
VERTEX
  8
0
 10
1.43463
 20
1.02913
 30
0.0
 40
0
 41
0
  0
VERTEX
  8
0
 10
1.43332
 20
1.0312
 30
0.0
 40
0
 41
0
  0
VERTEX
  8
0
 10
1.43278
 20
1.03201
 30
0.0
 40
0
 41
0
  0
VERTEX
  8
0
 10
1.42785
 20
1.04112
 30
0.0
 40
0
 41
0
  0
VERTEX
  8
0
 10
1.42708
 20
1.04161
 30
0.0
 40
0
 41
0
  0
VERTEX
  8
0
 10
1.42562
 20
1.04226
 30
0.0
 40
0
 41
0
  0
VERTEX
  8
0
 10
1.42003
 20
1.04156
 30
0.0
 40
0
 41
0
  0
VERTEX
  8
0
 10
1.4159
 20
1.03597
 30
0.0
 40
0
 41
0
  0
VERTEX
  8
0
 10
1.41461
 20
1.0344
 30
0.0
 40
0
 41
0
  0
VERTEX
  8
0
 10
1.4044
 20
1.02398
 30
0.0
 40
0
 41
0
  0
VERTEX
  8
0
 10
1.30545
 20
0.917156
 30
0.0
 40
0
 41
0
  0
VERTEX
  8
0
 10
1.29584
 20
0.906196
 30
0.0
 40
0
 41
0
  0
VERTEX
  8
0
 10
1.29633
 20
0.906196
 30
0.0
 40
0
 41
0
  0
VERTEX
  8
0
 10
1.2978
 20
0.908149
 30
0.0
 40
0
 41
0
  0
VERTEX
  8
0
 10
1.30214
 20
0.912815
 30
0.0
 40
0
 41
0
  0
VERTEX
  8
0
 10
1.30724
 20
0.918565
 30
0.0
 40
0
 41
0
  0
VERTEX
  8
0
 10
1.31185
 20
0.923774
 30
0.0
 40
0
 41
0
  0
VERTEX
  8
0
 10
1.3144
 20
0.926812
 30
0.0
 40
0
 41
0
  0
VERTEX
  8
0
 10
1.31353
 20
0.925999
 30
0.0
 40
0
 41
0
  0
VERTEX
  8
0
 10
1.30783
 20
0.919706
 30
0.0
 40
0
 41
0
  0
VERTEX
  8
0
 10
1.29883
 20
0.90956
 30
0.0
 40
0
 41
0
  0
VERTEX
  8
0
 10
1.29584
 20
0.906196
 30
0.0
 40
0
 41
0
  0
SEQEND
 8
0
  0
POLYLINE
  8
0
 62
     0
 66
     1
 10
0
 20
0
 30
0.0
 70
     1
 40
0
 41
0
  0
VERTEX
  8
0
 10
0.891656
 20
2.33963
 30
0.0
 40
0
 41
0
  0
VERTEX
  8
0
 10
0.886176
 20
2.33599
 30
0.0
 40
0
 41
0
  0
VERTEX
  8
0
 10
0.86339
 20
2.31164
 30
0.0
 40
0
 41
0
  0
VERTEX
  8
0
 10
0.844239
 20
2.28364
 30
0.0
 40
0
 41
0
  0
VERTEX
  8
0
 10
0.840603
 20
2.27815
 30
0.0
 40
0
 41
0
  0
VERTEX
  8
0
 10
0.836154
 20
2.27192
 30
0.0
 40
0
 41
0
  0
VERTEX
  8
0
 10
0.793511
 20
2.20958
 30
0.0
 40
0
 41
0
  0
VERTEX
  8
0
 10
0.789606
 20
2.20307
 30
0.0
 40
0
 41
0
  0
VERTEX
  8
0
 10
0.788032
 20
2.20079
 30
0.0
 40
0
 41
0
  0
VERTEX
  8
0
 10
0.773383
 20
2.17557
 30
0.0
 40
0
 41
0
  0
VERTEX
  8
0
 10
0.772894
 20
2.17296
 30
0.0
 40
0
 41
0
  0
VERTEX
  8
0
 10
0.77219
 20
2.17008
 30
0.0
 40
0
 41
0
  0
VERTEX
  8
0
 10
0.775608
 20
2.15994
 30
0.0
 40
0
 41
0
  0
VERTEX
  8
0
 10
0.785915
 20
2.15424
 30
0.0
 40
0
 41
0
  0
VERTEX
  8
0
 10
0.788519
 20
2.15315
 30
0.0
 40
0
 41
0
  0
VERTEX
  8
0
 10
0.791396
 20
2.15186
 30
0.0
 40
0
 41
0
  0
VERTEX
  8
0
 10
0.821072
 20
2.13965
 30
0.0
 40
0
 41
0
  0
VERTEX
  8
0
 10
0.823947
 20
2.13857
 30
0.0
 40
0
 41
0
  0
VERTEX
  8
0
 10
0.826281
 20
2.13753
 30
0.0
 40
0
 41
0
  0
VERTEX
  8
0
 10
0.839789
 20
2.13129
 30
0.0
 40
0
 41
0
  0
VERTEX
  8
0
 10
0.852919
 20
2.12711
 30
0.0
 40
0
 41
0
  0
VERTEX
  8
0
 10
0.857314
 20
2.12711
 30
0.0
 40
0
 41
0
  0
VERTEX
  8
0
 10
0.862739
 20
2.12711
 30
0.0
 40
0
 41
0
  0
VERTEX
  8
0
 10
0.879015
 20
2.14225
 30
0.0
 40
0
 41
0
  0
VERTEX
  8
0
 10
0.891656
 20
2.16351
 30
0.0
 40
0
 41
0
  0
VERTEX
  8
0
 10
0.893772
 20
2.16661
 30
0.0
 40
0
 41
0
  0
VERTEX
  8
0
 10
0.897894
 20
2.1729
 30
0.0
 40
0
 41
0
  0
VERTEX
  8
0
 10
0.938531
 20
2.23443
 30
0.0
 40
0
 41
0
  0
VERTEX
  8
0
 10
0.942708
 20
2.24067
 30
0.0
 40
0
 41
0
  0
VERTEX
  8
0
 10
0.945042
 20
2.24408
 30
0.0
 40
0
 41
0
  0
VERTEX
  8
0
 10
0.952908
 20
2.25364
 30
0.0
 40
0
 41
0
  0
VERTEX
  8
0
 10
0.964953
 20
2.26997
 30
0.0
 40
0
 41
0
  0
VERTEX
  8
0
 10
0.972114
 20
2.28651
 30
0.0
 40
0
 41
0
  0
VERTEX
  8
0
 10
0.969997
 20
2.29801
 30
0.0
 40
0
 41
0
  0
VERTEX
  8
0
 10
0.967719
 20
2.30003
 30
0.0
 40
0
 41
0
  0
VERTEX
  8
0
 10
0.964844
 20
2.3024
 30
0.0
 40
0
 41
0
  0
VERTEX
  8
0
 10
0.930176
 20
2.32221
 30
0.0
 40
0
 41
0
  0
VERTEX
  8
0
 10
0.927083
 20
2.324
 30
0.0
 40
0
 41
0
  0
VERTEX
  8
0
 10
0.923936
 20
2.32531
 30
0.0
 40
0
 41
0
  0
VERTEX
  8
0
 10
0.894749
 20
2.3386
 30
0.0
 40
0
 41
0
  0
VERTEX
  8
0
 10
0.891656
 20
2.33963
 30
0.0
 40
0
 41
0
  0
VERTEX
  8
0
 10
0.891547
 20
2.33963
 30
0.0
 40
0
 41
0
  0
VERTEX
  8
0
 10
0.892036
 20
2.33843
 30
0.0
 40
0
 41
0
  0
VERTEX
  8
0
 10
0.891818
 20
2.33963
 30
0.0
 40
0
 41
0
  0
VERTEX
  8
0
 10
0.891656
 20
2.33963
 30
0.0
 40
0
 41
0
  0
SEQEND
 8
0
  0
POLYLINE
  8
0
 62
     0
 66
     1
 10
0
 20
0
 30
0.0
 70
     1
 40
0
 41
0
  0
VERTEX
  8
0
 10
1.00418
 20
2.08128
 30
0.0
 40
0
 41
0
  0
VERTEX
  8
0
 10
1.00738
 20
2.08094
 30
0.0
 40
0
 41
0
  0
VERTEX
  8
0
 10
1.01769
 20
2.08583
 30
0.0
 40
0
 41
0
  0
VERTEX
  8
0
 10
1.02875
 20
2.09896
 30
0.0
 40
0
 41
0
  0
VERTEX
  8
0
 10
1.03771
 20
2.11524
 30
0.0
 40
0
 41
0
  0
VERTEX
  8
0
 10
1.04286
 20
2.12582
 30
0.0
 40
0
 41
0
  0
VERTEX
  8
0
 10
1.04481
 20
2.12918
 30
0.0
 40
0
 41
0
  0
VERTEX
  8
0
 10
1.04791
 20
2.13465
 30
0.0
 40
0
 41
0
  0
VERTEX
  8
0
 10
1.08019
 20
2.1894
 30
0.0
 40
0
 41
0
  0
VERTEX
  8
0
 10
1.08333
 20
2.19482
 30
0.0
 40
0
 41
0
  0
VERTEX
  8
0
 10
1.08436
 20
2.1964
 30
0.0
 40
0
 41
0
  0
VERTEX
  8
0
 10
1.0918
 20
2.20757
 30
0.0
 40
0
 41
0
  0
VERTEX
  8
0
 10
1.09554
 20
2.21983
 30
0.0
 40
0
 41
0
  0
VERTEX
  8
0
 10
1.09478
 20
2.2219
 30
0.0
 40
0
 41
0
  0
VERTEX
  8
0
 10
1.09424
 20
2.22401
 30
0.0
 40
0
 41
0
  0
VERTEX
  8
0
 10
1.08588
 20
2.23178
 30
0.0
 40
0
 41
0
  0
VERTEX
  8
0
 10
1.07547
 20
2.23753
 30
0.0
 40
0
 41
0
  0
VERTEX
  8
0
 10
1.07395
 20
2.23856
 30
0.0
 40
0
 41
0
  0
VERTEX
  8
0
 10
1.07064
 20
2.24061
 30
0.0
 40
0
 41
0
  0
VERTEX
  8
0
 10
1.06114
 20
2.24718
 30
0.0
 40
0
 41
0
  0
VERTEX
  8
0
 10
1.04492
 20
2.25749
 30
0.0
 40
0
 41
0
  0
VERTEX
  8
0
 10
1.0281
 20
2.26481
 30
0.0
 40
0
 41
0
  0
VERTEX
  8
0
 10
1.0166
 20
2.26594
 30
0.0
 40
0
 41
0
  0
VERTEX
  8
0
 10
1.01356
 20
2.2646
 30
0.0
 40
0
 41
0
  0
VERTEX
  8
0
 10
1.01145
 20
2.26357
 30
0.0
 40
0
 41
0
  0
VERTEX
  8
0
 10
1.00244
 20
2.25325
 30
0.0
 40
0
 41
0
  0
VERTEX
  8
0
 10
0.995063
 20
2.24137
 30
0.0
 40
0
 41
0
  0
VERTEX
  8
0
 10
0.993761
 20
2.23953
 30
0.0
 40
0
 41
0
  0
VERTEX
  8
0
 10
0.992188
 20
2.23725
 30
0.0
 40
0
 41
0
  0
VERTEX
  8
0
 10
0.975478
 20
2.21203
 30
0.0
 40
0
 41
0
  0
VERTEX
  8
0
 10
0.973958
 20
2.20942
 30
0.0
 40
0
 41
0
  0
VERTEX
  8
0
 10
0.970269
 20
2.20394
 30
0.0
 40
0
 41
0
  0
VERTEX
  8
0
 10
0.934896
 20
2.15028
 30
0.0
 40
0
 41
0
  0
VERTEX
  8
0
 10
0.931261
 20
2.14481
 30
0.0
 40
0
 41
0
  0
VERTEX
  8
0
 10
0.929199
 20
2.14176
 30
0.0
 40
0
 41
0
  0
VERTEX
  8
0
 10
0.92296
 20
2.13271
 30
0.0
 40
0
 41
0
  0
VERTEX
  8
0
 10
0.916667
 20
2.1205
 30
0.0
 40
0
 41
0
  0
VERTEX
  8
0
 10
0.916613
 20
2.10926
 30
0.0
 40
0
 41
0
  0
VERTEX
  8
0
 10
0.924046
 20
2.10146
 30
0.0
 40
0
 41
0
  0
VERTEX
  8
0
 10
0.927083
 20
2.10004
 30
0.0
 40
0
 41
0
  0
VERTEX
  8
0
 10
0.933322
 20
2.09825
 30
0.0
 40
0
 41
0
  0
VERTEX
  8
0
 10
0.997885
 20
2.08236
 30
0.0
 40
0
 41
0
  0
VERTEX
  8
0
 10
1.00418
 20
2.08128
 30
0.0
 40
0
 41
0
  0
VERTEX
  8
0
 10
1.00467
 20
2.08128
 30
0.0
 40
0
 41
0
  0
VERTEX
  8
0
 10
1.00613
 20
2.08171
 30
0.0
 40
0
 41
0
  0
VERTEX
  8
0
 10
1.00418
 20
2.08128
 30
0.0
 40
0
 41
0
  0
VERTEX
  8
0
 10
1.00418
 20
2.08128
 30
0.0
 40
0
 41
0
  0
SEQEND
 8
0
  0
POLYLINE
  8
0
 62
     0
 66
     1
 10
0
 20
0
 30
0.0
 70
     1
 40
0
 41
0
  0
VERTEX
  8
0
 10
1.2219
 20
2.34586
 30
0.0
 40
0
 41
0
  0
VERTEX
  8
0
 10
1.22059
 20
2.34614
 30
0.0
 40
0
 41
0
  0
VERTEX
  8
0
 10
1.21251
 20
2.33479
 30
0.0
 40
0
 41
0
  0
VERTEX
  8
0
 10
1.19781
 20
2.30875
 30
0.0
 40
0
 41
0
  0
VERTEX
  8
0
 10
1.18598
 20
2.28097
 30
0.0
 40
0
 41
0
  0
VERTEX
  8
0
 10
1.18348
 20
2.26617
 30
0.0
 40
0
 41
0
  0
VERTEX
  8
0
 10
1.18544
 20
2.2646
 30
0.0
 40
0
 41
0
  0
VERTEX
  8
0
 10
1.1869
 20
2.2634
 30
0.0
 40
0
 41
0
  0
VERTEX
  8
0
 10
1.19417
 20
2.26292
 30
0.0
 40
0
 41
0
  0
VERTEX
  8
0
 10
1.20247
 20
2.26887
 30
0.0
 40
0
 41
0
  0
VERTEX
  8
0
 10
1.20898
 20
2.27821
 30
0.0
 40
0
 41
0
  0
VERTEX
  8
0
 10
1.21197
 20
2.28435
 30
0.0
 40
0
 41
0
  0
VERTEX
  8
0
 10
1.21251
 20
2.2864
 30
0.0
 40
0
 41
0
  0
VERTEX
  8
0
 10
1.21354
 20
2.29112
 30
0.0
 40
0
 41
0
  0
VERTEX
  8
0
 10
1.22108
 20
2.34093
 30
0.0
 40
0
 41
0
  0
VERTEX
  8
0
 10
1.2219
 20
2.34586
 30
0.0
 40
0
 41
0
  0
VERTEX
  8
0
 10
1.22179
 20
2.34586
 30
0.0
 40
0
 41
0
  0
VERTEX
  8
0
 10
1.22146
 20
2.34435
 30
0.0
 40
0
 41
0
  0
VERTEX
  8
0
 10
1.2219
 20
2.34549
 30
0.0
 40
0
 41
0
  0
VERTEX
  8
0
 10
1.2219
 20
2.34586
 30
0.0
 40
0
 41
0
  0
SEQEND
 8
0
  0
POLYLINE
  8
0
 62
     0
 66
     1
 10
0
 20
0
 30
0.0
 70
     1
 40
0
 41
0
  0
VERTEX
  8
0
 10
1.55832
 20
1.15099
 30
0.0
 40
0
 41
0
  0
VERTEX
  8
0
 10
1.55767
 20
1.15413
 30
0.0
 40
0
 41
0
  0
VERTEX
  8
0
 10
1.55197
 20
1.16271
 30
0.0
 40
0
 41
0
  0
VERTEX
  8
0
 10
1.54232
 20
1.1664
 30
0.0
 40
0
 41
0
  0
VERTEX
  8
0
 10
1.53358
 20
1.16189
 30
0.0
 40
0
 41
0
  0
VERTEX
  8
0
 10
1.53006
 20
1.15218
 30
0.0
 40
0
 41
0
  0
VERTEX
  8
0
 10
1.53022
 20
1.14898
 30
0.0
 40
0
 41
0
  0
VERTEX
  8
0
 10
1.53022
 20
1.14616
 30
0.0
 40
0
 41
0
  0
VERTEX
  8
0
 10
1.53369
 20
1.1377
 30
0.0
 40
0
 41
0
  0
VERTEX
  8
0
 10
1.54085
 20
1.13048
 30
0.0
 40
0
 41
0
  0
VERTEX
  8
0
 10
1.54269
 20
1.13015
 30
0.0
 40
0
 41
0
  0
VERTEX
  8
0
 10
1.54525
 20
1.12972
 30
0.0
 40
0
 41
0
  0
VERTEX
  8
0
 10
1.55442
 20
1.13677
 30
0.0
 40
0
 41
0
  0
VERTEX
  8
0
 10
1.55806
 20
1.14893
 30
0.0
 40
0
 41
0
  0
VERTEX
  8
0
 10
1.55832
 20
1.15099
 30
0.0
 40
0
 41
0
  0
VERTEX
  8
0
 10
1.55832
 20
1.15099
 30
0.0
 40
0
 41
0
  0
VERTEX
  8
0
 10
1.55789
 20
1.14914
 30
0.0
 40
0
 41
0
  0
VERTEX
  8
0
 10
1.55826
 20
1.15055
 30
0.0
 40
0
 41
0
  0
VERTEX
  8
0
 10
1.55832
 20
1.15099
 30
0.0
 40
0
 41
0
  0
SEQEND
 8
0
  0
POLYLINE
  8
0
 62
     0
 66
     1
 10
0
 20
0
 30
0.0
 70
     1
 40
0
 41
0
  0
VERTEX
  8
0
 10
1.50315
 20
1.01774
 30
0.0
 40
0
 41
0
  0
VERTEX
  8
0
 10
1.50336
 20
1.0185
 30
0.0
 40
0
 41
0
  0
VERTEX
  8
0
 10
1.4905
 20
1.02723
 30
0.0
 40
0
 41
0
  0
VERTEX
  8
0
 10
1.47499
 20
1.03651
 30
0.0
 40
0
 41
0
  0
VERTEX
  8
0
 10
1.47396
 20
1.03754
 30
0.0
 40
0
 41
0
  0
VERTEX
  8
0
 10
1.47287
 20
1.03857
 30
0.0
 40
0
 41
0
  0
VERTEX
  8
0
 10
1.46376
 20
1.04888
 30
0.0
 40
0
 41
0
  0
VERTEX
  8
0
 10
1.45324
 20
1.0542
 30
0.0
 40
0
 41
0
  0
VERTEX
  8
0
 10
1.4521
 20
1.05317
 30
0.0
 40
0
 41
0
  0
VERTEX
  8
0
 10
1.45096
 20
1.05225
 30
0.0
 40
0
 41
0
  0
VERTEX
  8
0
 10
1.45508
 20
1.04064
 30
0.0
 40
0
 41
0
  0
VERTEX
  8
0
 10
1.4656
 20
1.03174
 30
0.0
 40
0
 41
0
  0
VERTEX
  8
0
 10
1.46669
 20
1.0312
 30
0.0
 40
0
 41
0
  0
VERTEX
  8
0
 10
1.46951
 20
1.02913
 30
0.0
 40
0
 41
0
  0
VERTEX
  8
0
 10
1.49972
 20
1.01801
 30
0.0
 40
0
 41
0
  0
VERTEX
  8
0
 10
1.50315
 20
1.01774
 30
0.0
 40
0
 41
0
  0
VERTEX
  8
0
 10
1.50315
 20
1.01774
 30
0.0
 40
0
 41
0
  0
VERTEX
  8
0
 10
1.50315
 20
1.01774
 30
0.0
 40
0
 41
0
  0
VERTEX
  8
0
 10
1.50315
 20
1.01774
 30
0.0
 40
0
 41
0
  0
SEQEND
 8
0
  0
POLYLINE
  8
0
 62
     0
 66
     1
 10
0
 20
0
 30
0.0
 70
     1
 40
0
 41
0
  0
VERTEX
  8
0
 10
0.619792
 20
1.19265
 30
0.0
 40
0
 41
0
  0
VERTEX
  8
0
 10
0.612522
 20
1.19336
 30
0.0
 40
0
 41
0
  0
VERTEX
  8
0
 10
0.590929
 20
1.19651
 30
0.0
 40
0
 41
0
  0
VERTEX
  8
0
 10
0.558811
 20
1.2002
 30
0.0
 40
0
 41
0
  0
VERTEX
  8
0
 10
0.527453
 20
1.19938
 30
0.0
 40
0
 41
0
  0
VERTEX
  8
0
 10
0.506619
 20
1.19352
 30
0.0
 40
0
 41
0
  0
VERTEX
  8
0
 10
0.501031
 20
1.18962
 30
0.0
 40
0
 41
0
  0
VERTEX
  8
0
 10
0.496528
 20
1.18652
 30
0.0
 40
0
 41
0
  0
VERTEX
  8
0
 10
0.487847
 20
1.17041
 30
0.0
 40
0
 41
0
  0
VERTEX
  8
0
 10
0.494249
 20
1.15082
 30
0.0
 40
0
 41
0
  0
VERTEX
  8
0
 10
0.511556
 20
1.13395
 30
0.0
 40
0
 41
0
  0
VERTEX
  8
0
 10
0.526042
 20
1.125
 30
0.0
 40
0
 41
0
  0
VERTEX
  8
0
 10
0.53125
 20
1.12294
 30
0.0
 40
0
 41
0
  0
VERTEX
  8
0
 10
0.535915
 20
1.12115
 30
0.0
 40
0
 41
0
  0
VERTEX
  8
0
 10
0.585394
 20
1.11491
 30
0.0
 40
0
 41
0
  0
VERTEX
  8
0
 10
0.590603
 20
1.11567
 30
0.0
 40
0
 41
0
  0
VERTEX
  8
0
 10
0.59451
 20
1.11621
 30
0.0
 40
0
 41
0
  0
VERTEX
  8
0
 10
0.613769
 20
1.11713
 30
0.0
 40
0
 41
0
  0
VERTEX
  8
0
 10
0.629937
 20
1.10916
 30
0.0
 40
0
 41
0
  0
VERTEX
  8
0
 10
0.632269
 20
1.10525
 30
0.0
 40
0
 41
0
  0
VERTEX
  8
0
 10
0.634332
 20
1.10189
 30
0.0
 40
0
 41
0
  0
VERTEX
  8
0
 10
0.634494
 20
1.08518
 30
0.0
 40
0
 41
0
  0
VERTEX
  8
0
 10
0.62679
 20
1.06955
 30
0.0
 40
0
 41
0
  0
VERTEX
  8
0
 10
0.625
 20
1.06668
 30
0.0
 40
0
 41
0
  0
VERTEX
  8
0
 10
0.622396
 20
1.06304
 30
0.0
 40
0
 41
0
  0
VERTEX
  8
0
 10
0.60829
 20
1.0427
 30
0.0
 40
0
 41
0
  0
VERTEX
  8
0
 10
0.590061
 20
1.02658
 30
0.0
 40
0
 41
0
  0
VERTEX
  8
0
 10
0.585394
 20
1.02501
 30
0.0
 40
0
 41
0
  0
VERTEX
  8
0
 10
0.581489
 20
1.02349
 30
0.0
 40
0
 41
0
  0
VERTEX
  8
0
 10
0.558703
 20
1.02241
 30
0.0
 40
0
 41
0
  0
VERTEX
  8
0
 10
0.535374
 20
1.0255
 30
0.0
 40
0
 41
0
  0
VERTEX
  8
0
 10
0.53125
 20
1.02599
 30
0.0
 40
0
 41
0
  0
VERTEX
  8
0
 10
0.526042
 20
1.02653
 30
0.0
 40
0
 41
0
  0
VERTEX
  8
0
 10
0.475749
 20
1.03624
 30
0.0
 40
0
 41
0
  0
VERTEX
  8
0
 10
0.470811
 20
1.03754
 30
0.0
 40
0
 41
0
  0
VERTEX
  8
0
 10
0.464356
 20
1.0395
 30
0.0
 40
0
 41
0
  0
VERTEX
  8
0
 10
0.445367
 20
1.04677
 30
0.0
 40
0
 41
0
  0
VERTEX
  8
0
 10
0.421983
 20
1.05957
 30
0.0
 40
0
 41
0
  0
VERTEX
  8
0
 10
0.402669
 20
1.07726
 30
0.0
 40
0
 41
0
  0
VERTEX
  8
0
 10
0.39171
 20
1.09478
 30
0.0
 40
0
 41
0
  0
VERTEX
  8
0
 10
0.389594
 20
1.10107
 30
0.0
 40
0
 41
0
  0
VERTEX
  8
0
 10
0.387587
 20
1.10721
 30
0.0
 40
0
 41
0
  0
VERTEX
  8
0
 10
0.385525
 20
1.12674
 30
0.0
 40
0
 41
0
  0
VERTEX
  8
0
 10
0.389594
 20
1.15104
 30
0.0
 40
0
 41
0
  0
VERTEX
  8
0
 10
0.400444
 20
1.17345
 30
0.0
 40
0
 41
0
  0
VERTEX
  8
0
 10
0.416667
 20
1.19352
 30
0.0
 40
0
 41
0
  0
VERTEX
  8
0
 10
0.43674
 20
1.21077
 30
0.0
 40
0
 41
0
  0
VERTEX
  8
0
 10
0.45931
 20
1.22472
 30
0.0
 40
0
 41
0
  0
VERTEX
  8
0
 10
0.48291
 20
1.23486
 30
0.0
 40
0
 41
0
  0
VERTEX
  8
0
 10
0.500325
 20
1.2398
 30
0.0
 40
0
 41
0
  0
VERTEX
  8
0
 10
0.506239
 20
1.24067
 30
0.0
 40
0
 41
0
  0
VERTEX
  8
0
 10
0.517958
 20
1.24251
 30
0.0
 40
0
 41
0
  0
VERTEX
  8
0
 10
0.577582
 20
1.24132
 30
0.0
 40
0
 41
0
  0
VERTEX
  8
0
 10
0.637261
 20
1.23443
 30
0.0
 40
0
 41
0
  0
VERTEX
  8
0
 10
0.648981
 20
1.23334
 30
0.0
 40
0
 41
0
  0
VERTEX
  8
0
 10
0.652453
 20
1.23313
 30
0.0
 40
0
 41
0
  0
VERTEX
  8
0
 10
0.662869
 20
1.2321
 30
0.0
 40
0
 41
0
  0
VERTEX
  8
0
 10
0.677572
 20
1.22868
 30
0.0
 40
0
 41
0
  0
VERTEX
  8
0
 10
0.685275
 20
1.22135
 30
0.0
 40
0
 41
0
  0
VERTEX
  8
0
 10
0.680664
 20
1.21077
 30
0.0
 40
0
 41
0
  0
VERTEX
  8
0
 10
0.678114
 20
1.20828
 30
0.0
 40
0
 41
0
  0
VERTEX
  8
0
 10
0.674425
 20
1.2047
 30
0.0
 40
0
 41
0
  0
VERTEX
  8
0
 10
0.650879
 20
1.19586
 30
0.0
 40
0
 41
0
  0
VERTEX
  8
0
 10
0.624729
 20
1.1932
 30
0.0
 40
0
 41
0
  0
VERTEX
  8
0
 10
0.619792
 20
1.19265
 30
0.0
 40
0
 41
0
  0
VERTEX
  8
0
 10
0.617622
 20
1.19287
 30
0.0
 40
0
 41
0
  0
VERTEX
  8
0
 10
0.611274
 20
1.19374
 30
0.0
 40
0
 41
0
  0
VERTEX
  8
0
 10
0.614312
 20
1.1939
 30
0.0
 40
0
 41
0
  0
VERTEX
  8
0
 10
0.620063
 20
1.19347
 30
0.0
 40
0
 41
0
  0
VERTEX
  8
0
 10
0.619846
 20
1.19265
 30
0.0
 40
0
 41
0
  0
VERTEX
  8
0
 10
0.619792
 20
1.19265
 30
0.0
 40
0
 41
0
  0
SEQEND
 8
0
  0
POLYLINE
  8
0
 62
     0
 66
     1
 10
0
 20
0
 30
0.0
 70
     1
 40
0
 41
0
  0
VERTEX
  8
0
 10
0.919814
 20
0.794814
 30
0.0
 40
0
 41
0
  0
VERTEX
  8
0
 10
0.924317
 20
0.794706
 30
0.0
 40
0
 41
0
  0
VERTEX
  8
0
 10
0.937717
 20
0.7889
 30
0.0
 40
0
 41
0
  0
VERTEX
  8
0
 10
0.944499
 20
0.775444
 30
0.0
 40
0
 41
0
  0
VERTEX
  8
0
 10
0.942329
 20
0.758681
 30
0.0
 40
0
 41
0
  0
VERTEX
  8
0
 10
0.936199
 20
0.746203
 30
0.0
 40
0
 41
0
  0
VERTEX
  8
0
 10
0.933322
 20
0.742731
 30
0.0
 40
0
 41
0
  0
VERTEX
  8
0
 10
0.928603
 20
0.737033
 30
0.0
 40
0
 41
0
  0
VERTEX
  8
0
 10
0.899468
 20
0.720486
 30
0.0
 40
0
 41
0
  0
VERTEX
  8
0
 10
0.866103
 20
0.712782
 30
0.0
 40
0
 41
0
  0
VERTEX
  8
0
 10
0.859375
 20
0.711481
 30
0.0
 40
0
 41
0
  0
VERTEX
  8
0
 10
0.857422
 20
0.711046
 30
0.0
 40
0
 41
0
  0
VERTEX
  8
0
 10
0.851725
 20
0.709201
 30
0.0
 40
0
 41
0
  0
VERTEX
  8
0
 10
0.843044
 20
0.707086
 30
0.0
 40
0
 41
0
  0
VERTEX
  8
0
 10
0.835775
 20
0.707682
 30
0.0
 40
0
 41
0
  0
VERTEX
  8
0
 10
0.832411
 20
0.712022
 30
0.0
 40
0
 41
0
  0
VERTEX
  8
0
 10
0.832303
 20
0.713488
 30
0.0
 40
0
 41
0
  0
VERTEX
  8
0
 10
0.83176
 20
0.716092
 30
0.0
 40
0
 41
0
  0
VERTEX
  8
0
 10
0.837836
 20
0.732964
 30
0.0
 40
0
 41
0
  0
VERTEX
  8
0
 10
0.847657
 20
0.748156
 30
0.0
 40
0
 41
0
  0
VERTEX
  8
0
 10
0.848958
 20
0.749946
 30
0.0
 40
0
 41
0
  0
VERTEX
  8
0
 10
0.853082
 20
0.755697
 30
0.0
 40
0
 41
0
  0
VERTEX
  8
0
 10
0.880425
 20
0.777886
 30
0.0
 40
0
 41
0
  0
VERTEX
  8
0
 10
0.913032
 20
0.792751
 30
0.0
 40
0
 41
0
  0
VERTEX
  8
0
 10
0.919814
 20
0.794814
 30
0.0
 40
0
 41
0
  0
VERTEX
  8
0
 10
0.921767
 20
0.79476
 30
0.0
 40
0
 41
0
  0
VERTEX
  8
0
 10
0.927681
 20
0.794108
 30
0.0
 40
0
 41
0
  0
VERTEX
  8
0
 10
0.925239
 20
0.793674
 30
0.0
 40
0
 41
0
  0
VERTEX
  8
0
 10
0.920085
 20
0.793838
 30
0.0
 40
0
 41
0
  0
VERTEX
  8
0
 10
0.919814
 20
0.794814
 30
0.0
 40
0
 41
0
  0
VERTEX
  8
0
 10
0.919814
 20
0.794814
 30
0.0
 40
0
 41
0
  0
SEQEND
 8
0
  0
POLYLINE
  8
0
 62
     0
 66
     1
 10
0
 20
0
 30
0.0
 70
     1
 40
0
 41
0
  0
VERTEX
  8
0
 10
0.796875
 20
0.802029
 30
0.0
 40
0
 41
0
  0
VERTEX
  8
0
 10
0.797092
 20
0.807021
 30
0.0
 40
0
 41
0
  0
VERTEX
  8
0
 10
0.804633
 20
0.827094
 30
0.0
 40
0
 41
0
  0
VERTEX
  8
0
 10
0.820529
 20
0.840929
 30
0.0
 40
0
 41
0
  0
VERTEX
  8
0
 10
0.824978
 20
0.842719
 30
0.0
 40
0
 41
0
  0
VERTEX
  8
0
 10
0.827692
 20
0.843913
 30
0.0
 40
0
 41
0
  0
VERTEX
  8
0
 10
0.836317
 20
0.846463
 30
0.0
 40
0
 41
0
  0
VERTEX
  8
0
 10
0.847006
 20
0.846897
 30
0.0
 40
0
 41
0
  0
VERTEX
  8
0
 10
0.85471
 20
0.841851
 30
0.0
 40
0
 41
0
  0
VERTEX
  8
0
 10
0.857422
 20
0.832357
 30
0.0
 40
0
 41
0
  0
VERTEX
  8
0
 10
0.857314
 20
0.82921
 30
0.0
 40
0
 41
0
  0
VERTEX
  8
0
 10
0.857042
 20
0.824164
 30
0.0
 40
0
 41
0
  0
VERTEX
  8
0
 10
0.847547
 20
0.809299
 30
0.0
 40
0
 41
0
  0
VERTEX
  8
0
 10
0.82704
 20
0.791069
 30
0.0
 40
0
 41
0
  0
VERTEX
  8
0
 10
0.806586
 20
0.785101
 30
0.0
 40
0
 41
0
  0
VERTEX
  8
0
 10
0.796929
 20
0.797743
 30
0.0
 40
0
 41
0
  0
VERTEX
  8
0
 10
0.796875
 20
0.802029
 30
0.0
 40
0
 41
0
  0
VERTEX
  8
0
 10
0.796875
 20
0.802246
 30
0.0
 40
0
 41
0
  0
VERTEX
  8
0
 10
0.797254
 20
0.802897
 30
0.0
 40
0
 41
0
  0
VERTEX
  8
0
 10
0.796875
 20
0.802029
 30
0.0
 40
0
 41
0
  0
VERTEX
  8
0
 10
0.796875
 20
0.802029
 30
0.0
 40
0
 41
0
  0
SEQEND
 8
0
  0
ENDSEC
  0
EOF
