  0
SECTION
  2
HEADER
  9
$ACADVER
  1
AC1009
  9
$EXTMIN
 10
0.0
 20
0.0
 30
0.0
  9
$EXTMAX
 10
1000.0
 20
1000.0
 30
0.0
  9
$FILLMODE
 70
 0
  9
$SPLFRAME
 70
 1
  0
ENDSEC
  0
SECTION
  2
TABLES
  0
TABLE
  2
LAYER
 70
1
  0
LAYER
  2
0
 70
     0
 62
     7
  6
CONTINUOUS
  0
ENDTAB
  0
ENDSEC
  0
SECTION
  2
ENTITIES
  0
POLYLINE
  8
0
 62
     0
 66
     1
 10
0
 20
0
 30
0.0
 70
     1
 40
0
 41
0
  0
VERTEX
  8
0
 10
2.16922
 20
-6.86729
 30
0.0
 40
0
 41
0
  0
VERTEX
  8
0
 10
2.14046
 20
-6.86111
 30
0.0
 40
0
 41
0
  0
VERTEX
  8
0
 10
1.85281
 20
-6.80643
 30
0.0
 40
0
 41
0
  0
VERTEX
  8
0
 10
1.82406
 20
-6.80029
 30
0.0
 40
0
 41
0
  0
VERTEX
  8
0
 10
1.79525
 20
-6.79411
 30
0.0
 40
0
 41
0
  0
VERTEX
  8
0
 10
1.51785
 20
-6.71826
 30
0.0
 40
0
 41
0
  0
VERTEX
  8
0
 10
1.49001
 20
-6.70861
 30
0.0
 40
0
 41
0
  0
VERTEX
  8
0
 10
1.46311
 20
-6.69976
 30
0.0
 40
0
 41
0
  0
VERTEX
  8
0
 10
1.19027
 20
-6.60981
 30
0.0
 40
0
 41
0
  0
VERTEX
  8
0
 10
1.16336
 20
-6.59924
 30
0.0
 40
0
 41
0
  0
VERTEX
  8
0
 10
1.13552
 20
-6.58772
 30
0.0
 40
0
 41
0
  0
VERTEX
  8
0
 10
0.863661
 20
-6.46078
 30
0.0
 40
0
 41
0
  0
VERTEX
  8
0
 10
0.836751
 20
-6.4476
 30
0.0
 40
0
 41
0
  0
VERTEX
  8
0
 10
0.797472
 20
-6.42828
 30
0.0
 40
0
 41
0
  0
VERTEX
  8
0
 10
0.681532
 20
-6.3666
 30
0.0
 40
0
 41
0
  0
VERTEX
  8
0
 10
0.53049
 20
-6.27604
 30
0.0
 40
0
 41
0
  0
VERTEX
  8
0
 10
0.387804
 20
-6.17426
 30
0.0
 40
0
 41
0
  0
VERTEX
  8
0
 10
0.288357
 20
-6.09011
 30
0.0
 40
0
 41
0
  0
VERTEX
  8
0
 10
0.257704
 20
-6.05963
 30
0.0
 40
0
 41
0
  0
VERTEX
  8
0
 10
0.238172
 20
-6.04021
 30
0.0
 40
0
 41
0
  0
VERTEX
  8
0
 10
0.152344
 20
-5.93614
 30
0.0
 40
0
 41
0
  0
VERTEX
  8
0
 10
0.0757921
 20
-5.82503
 30
0.0
 40
0
 41
0
  0
VERTEX
  8
0
 10
0.060981
 20
-5.80214
 30
0.0
 40
0
 41
0
  0
VERTEX
  8
0
 10
0.0461154
 20
-5.77919
 30
0.0
 40
0
 41
0
  0
VERTEX
  8
0
 10
0.00526258
 20
-5.6575
 30
0.0
 40
0
 41
0
  0
VERTEX
  8
0
 10
0.00157335
 20
-5.52881
 30
0.0
 40
0
 41
0
  0
VERTEX
  8
0
 10
0.00531685
 20
-5.50239
 30
0.0
 40
0
 41
0
  0
VERTEX
  8
0
 10
0.00802951
 20
-5.48394
 30
0.0
 40
0
 41
0
  0
VERTEX
  8
0
 10
0.0275608
 20
-5.43024
 30
0.0
 40
0
 41
0
  0
VERTEX
  8
0
 10
0.0665147
 20
-5.36208
 30
0.0
 40
0
 41
0
  0
VERTEX
  8
0
 10
0.113824
 20
-5.29796
 30
0.0
 40
0
 41
0
  0
VERTEX
  8
0
 10
0.149522
 20
-5.25299
 30
0.0
 40
0
 41
0
  0
VERTEX
  8
0
 10
0.161188
 20
-5.23779
 30
0.0
 40
0
 41
0
  0
VERTEX
  8
0
 10
0.177897
 20
-5.21664
 30
0.0
 40
0
 41
0
  0
VERTEX
  8
0
 10
0.273926
 20
-5.11697
 30
0.0
 40
0
 41
0
  0
VERTEX
  8
0
 10
0.382921
 20
-5.02789
 30
0.0
 40
0
 41
0
  0
VERTEX
  8
0
 10
0.406142
 20
-5.01204
 30
0.0
 40
0
 41
0
  0
VERTEX
  8
0
 10
0.452528
 20
-4.97939
 30
0.0
 40
0
 41
0
  0
VERTEX
  8
0
 10
0.701226
 20
-4.8405
 30
0.0
 40
0
 41
0
  0
VERTEX
  8
0
 10
0.957357
 20
-4.71397
 30
0.0
 40
0
 41
0
  0
VERTEX
  8
0
 10
1.00749
 20
-4.68756
 30
0.0
 40
0
 41
0
  0
VERTEX
  8
0
 10
1.05941
 20
-4.65935
 30
0.0
 40
0
 41
0
  0
VERTEX
  8
0
 10
1.32623
 20
-4.52838
 30
0.0
 40
0
 41
0
  0
VERTEX
  8
0
 10
1.59115
 20
-4.39567
 30
0.0
 40
0
 41
0
  0
VERTEX
  8
0
 10
1.64219
 20
-4.3666
 30
0.0
 40
0
 41
0
  0
VERTEX
  8
0
 10
1.66721
 20
-4.35249
 30
0.0
 40
0
 41
0
  0
VERTEX
  8
0
 10
1.90847
 20
-4.18935
 30
0.0
 40
0
 41
0
  0
VERTEX
  8
0
 10
1.93169
 20
-4.17264
 30
0.0
 40
0
 41
0
  0
VERTEX
  8
0
 10
1.95394
 20
-4.15587
 30
0.0
 40
0
 41
0
  0
VERTEX
  8
0
 10
2.05371
 20
-4.06456
 30
0.0
 40
0
 41
0
  0
VERTEX
  8
0
 10
2.14421
 20
-3.96451
 30
0.0
 40
0
 41
0
  0
VERTEX
  8
0
 10
2.16183
 20
-3.94336
 30
0.0
 40
0
 41
0
  0
VERTEX
  8
0
 10
2.17518
 20
-3.92796
 30
0.0
 40
0
 41
0
  0
VERTEX
  8
0
 10
2.21625
 20
-3.88265
 30
0.0
 40
0
 41
0
  0
VERTEX
  8
0
 10
2.26899
 20
-3.81988
 30
0.0
 40
0
 41
0
  0
VERTEX
  8
0
 10
2.31267
 20
-3.7519
 30
0.0
 40
0
 41
0
  0
VERTEX
  8
0
 10
2.33599
 20
-3.69499
 30
0.0
 40
0
 41
0
  0
VERTEX
  8
0
 10
2.34
 20
-3.67529
 30
0.0
 40
0
 41
0
  0
VERTEX
  8
0
 10
2.34646
 20
-3.64794
 30
0.0
 40
0
 41
0
  0
VERTEX
  8
0
 10
2.37289
 20
-3.50553
 30
0.0
 40
0
 41
0
  0
VERTEX
  8
0
 10
2.38265
 20
-3.36139
 30
0.0
 40
0
 41
0
  0
VERTEX
  8
0
 10
2.38081
 20
-3.33317
 30
0.0
 40
0
 41
0
  0
VERTEX
  8
0
 10
2.37989
 20
-3.31993
 30
0.0
 40
0
 41
0
  0
VERTEX
  8
0
 10
2.37381
 20
-3.25379
 30
0.0
 40
0
 41
0
  0
VERTEX
  8
0
 10
2.37706
 20
-3.18767
 30
0.0
 40
0
 41
0
  0
VERTEX
  8
0
 10
2.38081
 20
-3.17443
 30
0.0
 40
0
 41
0
  0
VERTEX
  8
0
 10
2.38357
 20
-3.16032
 30
0.0
 40
0
 41
0
  0
VERTEX
  8
0
 10
2.41
 20
-3.09196
 30
0.0
 40
0
 41
0
  0
VERTEX
  8
0
 10
2.44206
 20
-3.02539
 30
0.0
 40
0
 41
0
  0
VERTEX
  8
0
 10
2.44764
 20
-3.01221
 30
0.0
 40
0
 41
0
  0
VERTEX
  8
0
 10
2.45486
 20
-2.99533
 30
0.0
 40
0
 41
0
  0
VERTEX
  8
0
 10
2.47342
 20
-2.94342
 30
0.0
 40
0
 41
0
  0
VERTEX
  8
0
 10
2.50375
 20
-2.8641
 30
0.0
 40
0
 41
0
  0
VERTEX
  8
0
 10
2.54312
 20
-2.78999
 30
0.0
 40
0
 41
0
  0
VERTEX
  8
0
 10
2.58051
 20
-2.74647
 30
0.0
 40
0
 41
0
  0
VERTEX
  8
0
 10
2.59608
 20
-2.73708
 30
0.0
 40
0
 41
0
  0
VERTEX
  8
0
 10
2.60536
 20
-2.73178
 30
0.0
 40
0
 41
0
  0
VERTEX
  8
0
 10
2.65126
 20
-2.71018
 30
0.0
 40
0
 41
0
  0
VERTEX
  8
0
 10
2.69536
 20
-2.68679
 30
0.0
 40
0
 41
0
  0
VERTEX
  8
0
 10
2.70372
 20
-2.68067
 30
0.0
 40
0
 41
0
  0
VERTEX
  8
0
 10
2.71392
 20
-2.67269
 30
0.0
 40
0
 41
0
  0
VERTEX
  8
0
 10
2.76031
 20
-2.62642
 30
0.0
 40
0
 41
0
  0
VERTEX
  8
0
 10
2.803
 20
-2.57488
 30
0.0
 40
0
 41
0
  0
VERTEX
  8
0
 10
2.81136
 20
-2.56429
 30
0.0
 40
0
 41
0
  0
VERTEX
  8
0
 10
2.829
 20
-2.544
 30
0.0
 40
0
 41
0
  0
VERTEX
  8
0
 10
3.02106
 20
-2.34999
 30
0.0
 40
0
 41
0
  0
VERTEX
  8
0
 10
3.0415
 20
-2.33149
 30
0.0
 40
0
 41
0
  0
VERTEX
  8
0
 10
3.08697
 20
-2.29178
 30
0.0
 40
0
 41
0
  0
VERTEX
  8
0
 10
3.32682
 20
-2.10969
 30
0.0
 40
0
 41
0
  0
VERTEX
  8
0
 10
3.57969
 20
-1.94347
 30
0.0
 40
0
 41
0
  0
VERTEX
  8
0
 10
3.63167
 20
-1.91174
 30
0.0
 40
0
 41
0
  0
VERTEX
  8
0
 10
3.71024
 20
-1.86481
 30
0.0
 40
0
 41
0
  0
VERTEX
  8
0
 10
3.94954
 20
-1.72976
 30
0.0
 40
0
 41
0
  0
VERTEX
  8
0
 10
4.27051
 20
-1.55376
 30
0.0
 40
0
 41
0
  0
VERTEX
  8
0
 10
4.58946
 20
-1.37511
 30
0.0
 40
0
 41
0
  0
VERTEX
  8
0
 10
4.82454
 20
-1.23475
 30
0.0
 40
0
 41
0
  0
VERTEX
  8
0
 10
4.9011
 20
-1.18522
 30
0.0
 40
0
 41
0
  0
VERTEX
  8
0
 10
4.97575
 20
-1.13677
 30
0.0
 40
0
 41
0
  0
VERTEX
  8
0
 10
5.19971
 20
-0.991482
 30
0.0
 40
0
 41
0
  0
VERTEX
  8
0
 10
5.49447
 20
-0.79145
 30
0.0
 40
0
 41
0
  0
VERTEX
  8
0
 10
5.77746
 20
-0.577582
 30
0.0
 40
0
 41
0
  0
VERTEX
  8
0
 10
5.97803
 20
-0.404243
 30
0.0
 40
0
 41
0
  0
VERTEX
  8
0
 10
6.04058
 20
-0.342176
 30
0.0
 40
0
 41
0
  0
VERTEX
  8
0
 10
6.07032
 20
-0.312554
 30
0.0
 40
0
 41
0
  0
VERTEX
  8
0
 10
6.16086
 20
-0.224935
 30
0.0
 40
0
 41
0
  0
VERTEX
  8
0
 10
6.27903
 20
-0.107639
 30
0.0
 40
0
 41
0
  0
VERTEX
  8
0
 10
6.39025
 20
0.0149197
 30
0.0
 40
0
 41
0
  0
VERTEX
  8
0
 10
6.46696
 20
0.11339
 30
0.0
 40
0
 41
0
  0
VERTEX
  8
0
 10
6.48969
 20
0.148058
 30
0.0
 40
0
 41
0
  0
VERTEX
  8
0
 10
6.5045
 20
0.171007
 30
0.0
 40
0
 41
0
  0
VERTEX
  8
0
 10
6.57878
 20
0.287869
 30
0.0
 40
0
 41
0
  0
VERTEX
  8
0
 10
6.64556
 20
0.406467
 30
0.0
 40
0
 41
0
  0
VERTEX
  8
0
 10
6.65674
 20
0.430231
 30
0.0
 40
0
 41
0
  0
VERTEX
  8
0
 10
6.66786
 20
0.454047
 30
0.0
 40
0
 41
0
  0
VERTEX
  8
0
 10
6.7161
 20
0.579264
 30
0.0
 40
0
 41
0
  0
VERTEX
  8
0
 10
6.75694
 20
0.708008
 30
0.0
 40
0
 41
0
  0
VERTEX
  8
0
 10
6.76438
 20
0.733561
 30
0.0
 40
0
 41
0
  0
VERTEX
  8
0
 10
6.77274
 20
0.760906
 30
0.0
 40
0
 41
0
  0
VERTEX
  8
0
 10
6.78847
 20
0.899794
 30
0.0
 40
0
 41
0
  0
VERTEX
  8
0
 10
6.78939
 20
1.04042
 30
0.0
 40
0
 41
0
  0
VERTEX
  8
0
 10
6.79036
 20
1.06863
 30
0.0
 40
0
 41
0
  0
VERTEX
  8
0
 10
6.79036
 20
1.11111
 30
0.0
 40
0
 41
0
  0
VERTEX
  8
0
 10
6.77225
 20
1.23839
 30
0.0
 40
0
 41
0
  0
VERTEX
  8
0
 10
6.73372
 20
1.37196
 30
0.0
 40
0
 41
0
  0
VERTEX
  8
0
 10
6.72353
 20
1.40018
 30
0.0
 40
0
 41
0
  0
VERTEX
  8
0
 10
6.70975
 20
1.43881
 30
0.0
 40
0
 41
0
  0
VERTEX
  8
0
 10
6.66368
 20
1.55285
 30
0.0
 40
0
 41
0
  0
VERTEX
  8
0
 10
6.59267
 20
1.69824
 30
0.0
 40
0
 41
0
  0
VERTEX
  8
0
 10
6.5064
 20
1.83567
 30
0.0
 40
0
 41
0
  0
VERTEX
  8
0
 10
6.4291
 20
1.93425
 30
0.0
 40
0
 41
0
  0
VERTEX
  8
0
 10
6.40061
 20
1.96451
 30
0.0
 40
0
 41
0
  0
VERTEX
  8
0
 10
6.3635
 20
2.00424
 30
0.0
 40
0
 41
0
  0
VERTEX
  8
0
 10
6.16026
 20
2.18631
 30
0.0
 40
0
 41
0
  0
VERTEX
  8
0
 10
5.93847
 20
2.34543
 30
0.0
 40
0
 41
0
  0
VERTEX
  8
0
 10
5.89208
 20
2.37364
 30
0.0
 40
0
 41
0
  0
VERTEX
  8
0
 10
5.86887
 20
2.38775
 30
0.0
 40
0
 41
0
  0
VERTEX
  8
0
 10
5.74224
 20
2.44683
 30
0.0
 40
0
 41
0
  0
VERTEX
  8
0
 10
5.61003
 20
2.49539
 30
0.0
 40
0
 41
0
  0
VERTEX
  8
0
 10
5.58404
 20
2.50418
 30
0.0
 40
0
 41
0
  0
VERTEX
  8
0
 10
5.5701
 20
2.50863
 30
0.0
 40
0
 41
0
  0
VERTEX
  8
0
 10
5.43463
 20
2.54915
 30
0.0
 40
0
 41
0
  0
VERTEX
  8
0
 10
5.42074
 20
2.55354
 30
0.0
 40
0
 41
0
  0
VERTEX
  8
0
 10
5.40494
 20
2.55794
 30
0.0
 40
0
 41
0
  0
VERTEX
  8
0
 10
5.32975
 20
2.58485
 30
0.0
 40
0
 41
0
  0
VERTEX
  8
0
 10
5.25456
 20
2.60997
 30
0.0
 40
0
 41
0
  0
VERTEX
  8
0
 10
5.23882
 20
2.6135
 30
0.0
 40
0
 41
0
  0
VERTEX
  8
0
 10
5.21007
 20
2.62142
 30
0.0
 40
0
 41
0
  0
VERTEX
  8
0
 10
5.05832
 20
2.64481
 30
0.0
 40
0
 41
0
  0
VERTEX
  8
0
 10
4.90479
 20
2.65935
 30
0.0
 40
0
 41
0
  0
VERTEX
  8
0
 10
4.87511
 20
2.66288
 30
0.0
 40
0
 41
0
  0
VERTEX
  8
0
 10
4.84446
 20
2.66553
 30
0.0
 40
0
 41
0
  0
VERTEX
  8
0
 10
4.53174
 20
2.6779
 30
0.0
 40
0
 41
0
  0
VERTEX
  8
0
 10
4.50022
 20
2.67697
 30
0.0
 40
0
 41
0
  0
VERTEX
  8
0
 10
4.46957
 20
2.67524
 30
0.0
 40
0
 41
0
  0
VERTEX
  8
0
 10
4.31831
 20
2.65713
 30
0.0
 40
0
 41
0
  0
VERTEX
  8
0
 10
4.16704
 20
2.63732
 30
0.0
 40
0
 41
0
  0
VERTEX
  8
0
 10
4.13644
 20
2.63465
 30
0.0
 40
0
 41
0
  0
VERTEX
  8
0
 10
4.10579
 20
2.63206
 30
0.0
 40
0
 41
0
  0
VERTEX
  8
0
 10
3.95921
 20
2.60428
 30
0.0
 40
0
 41
0
  0
VERTEX
  8
0
 10
3.81629
 20
2.56765
 30
0.0
 40
0
 41
0
  0
VERTEX
  8
0
 10
3.78754
 20
2.5606
 30
0.0
 40
0
 41
0
  0
VERTEX
  8
0
 10
3.72999
 20
2.54563
 30
0.0
 40
0
 41
0
  0
VERTEX
  8
0
 10
3.45628
 20
2.44726
 30
0.0
 40
0
 41
0
  0
VERTEX
  8
0
 10
3.19362
 20
2.32607
 30
0.0
 40
0
 41
0
  0
VERTEX
  8
0
 10
3.14171
 20
2.29958
 30
0.0
 40
0
 41
0
  0
VERTEX
  8
0
 10
3.09158
 20
2.27403
 30
0.0
 40
0
 41
0
  0
VERTEX
  8
0
 10
2.84754
 20
2.12414
 30
0.0
 40
0
 41
0
  0
VERTEX
  8
0
 10
2.62201
 20
1.94954
 30
0.0
 40
0
 41
0
  0
VERTEX
  8
0
 10
2.58122
 20
1.91162
 30
0.0
 40
0
 41
0
  0
VERTEX
  8
0
 10
2.53944
 20
1.87283
 30
0.0
 40
0
 41
0
  0
VERTEX
  8
0
 10
2.34787
 20
1.66738
 30
0.0
 40
0
 41
0
  0
VERTEX
  8
0
 10
2.18033
 20
1.44428
 30
0.0
 40
0
 41
0
  0
VERTEX
  8
0
 10
2.15067
 20
1.39665
 30
0.0
 40
0
 41
0
  0
VERTEX
  8
0
 10
2.13579
 20
1.37196
 30
0.0
 40
0
 41
0
  0
VERTEX
  8
0
 10
2.00315
 20
1.11887
 30
0.0
 40
0
 41
0
  0
VERTEX
  8
0
 10
1.9911
 20
1.09332
 30
0.0
 40
0
 41
0
  0
VERTEX
  8
0
 10
1.98921
 20
1.08979
 30
0.0
 40
0
 41
0
  0
VERTEX
  8
0
 10
1.98226
 20
1.07726
 30
0.0
 40
0
 41
0
  0
VERTEX
  8
0
 10
1.97065
 20
1.05452
 30
0.0
 40
0
 41
0
  0
VERTEX
  8
0
 10
1.96181
 20
1.03185
 30
0.0
 40
0
 41
0
  0
VERTEX
  8
0
 10
1.95975
 20
1.01888
 30
0.0
 40
0
 41
0
  0
VERTEX
  8
0
 10
1.96137
 20
1.01573
 30
0.0
 40
0
 41
0
  0
VERTEX
  8
0
 10
1.96322
 20
1.01221
 30
0.0
 40
0
 41
0
  0
VERTEX
  8
0
 10
1.98454
 20
1.00298
 30
0.0
 40
0
 41
0
  0
VERTEX
  8
0
 10
2.0096
 20
0.999024
 30
0.0
 40
0
 41
0
  0
VERTEX
  8
0
 10
2.01335
 20
0.998101
 30
0.0
 40
0
 41
0
  0
VERTEX
  8
0
 10
2.02219
 20
0.994249
 30
0.0
 40
0
 41
0
  0
VERTEX
  8
0
 10
2.04699
 20
0.978136
 30
0.0
 40
0
 41
0
  0
VERTEX
  8
0
 10
2.07688
 20
0.951824
 30
0.0
 40
0
 41
0
  0
VERTEX
  8
0
 10
2.10465
 20
0.9222
 30
0.0
 40
0
 41
0
  0
VERTEX
  8
0
 10
2.12506
 20
0.899576
 30
0.0
 40
0
 41
0
  0
VERTEX
  8
0
 10
2.13211
 20
0.892253
 30
0.0
 40
0
 41
0
  0
VERTEX
  8
0
 10
2.15158
 20
0.872017
 30
0.0
 40
0
 41
0
  0
VERTEX
  8
0
 10
2.25412
 20
0.772353
 30
0.0
 40
0
 41
0
  0
VERTEX
  8
0
 10
2.36225
 20
0.679796
 30
0.0
 40
0
 41
0
  0
VERTEX
  8
0
 10
2.38456
 20
0.663032
 30
0.0
 40
0
 41
0
  0
VERTEX
  8
0
 10
2.39019
 20
0.658421
 30
0.0
 40
0
 41
0
  0
VERTEX
  8
0
 10
2.40707
 20
0.644151
 30
0.0
 40
0
 41
0
  0
VERTEX
  8
0
 10
2.43414
 20
0.622885
 30
0.0
 40
0
 41
0
  0
VERTEX
  8
0
 10
2.46332
 20
0.604981
 30
0.0
 40
0
 41
0
  0
VERTEX
  8
0
 10
2.48481
 20
0.596679
 30
0.0
 40
0
 41
0
  0
VERTEX
  8
0
 10
2.49219
 20
0.595975
 30
0.0
 40
0
 41
0
  0
VERTEX
  8
0
 10
2.49881
 20
0.595432
 30
0.0
 40
0
 41
0
  0
VERTEX
  8
0
 10
2.51958
 20
0.602647
 30
0.0
 40
0
 41
0
  0
VERTEX
  8
0
 10
2.54178
 20
0.62245
 30
0.0
 40
0
 41
0
  0
VERTEX
  8
0
 10
2.56054
 20
0.647624
 30
0.0
 40
0
 41
0
  0
VERTEX
  8
0
 10
2.57281
 20
0.664876
 30
0.0
 40
0
 41
0
  0
VERTEX
  8
0
 10
2.57753
 20
0.670085
 30
0.0
 40
0
 41
0
  0
VERTEX
  8
0
 10
2.59424
 20
0.693033
 30
0.0
 40
0
 41
0
  0
VERTEX
  8
0
 10
2.76682
 20
0.923178
 30
0.0
 40
0
 41
0
  0
VERTEX
  8
0
 10
2.78537
 20
0.945204
 30
0.0
 40
0
 41
0
  0
VERTEX
  8
0
 10
2.79557
 20
0.956706
 30
0.0
 40
0
 41
0
  0
VERTEX
  8
0
 10
2.89393
 20
1.07482
 30
0.0
 40
0
 41
0
  0
VERTEX
  8
0
 10
2.90419
 20
1.08626
 30
0.0
 40
0
 41
0
  0
VERTEX
  8
0
 10
2.90972
 20
1.09234
 30
0.0
 40
0
 41
0
  0
VERTEX
  8
0
 10
2.92736
 20
1.10975
 30
0.0
 40
0
 41
0
  0
VERTEX
  8
0
 10
2.95053
 20
1.1365
 30
0.0
 40
0
 41
0
  0
VERTEX
  8
0
 10
2.96263
 20
1.16461
 30
0.0
 40
0
 41
0
  0
VERTEX
  8
0
 10
2.95703
 20
1.18718
 30
0.0
 40
0
 41
0
  0
VERTEX
  8
0
 10
2.95242
 20
1.19206
 30
0.0
 40
0
 41
0
  0
VERTEX
  8
0
 10
2.94646
 20
1.19846
 30
0.0
 40
0
 41
0
  0
VERTEX
  8
0
 10
2.92415
 20
1.21343
 30
0.0
 40
0
 41
0
  0
VERTEX
  8
0
 10
2.88792
 20
1.23047
 30
0.0
 40
0
 41
0
  0
VERTEX
  8
0
 10
2.84956
 20
1.24419
 30
0.0
 40
0
 41
0
  0
VERTEX
  8
0
 10
2.82368
 20
1.25266
 30
0.0
 40
0
 41
0
  0
VERTEX
  8
0
 10
2.81511
 20
1.25559
 30
0.0
 40
0
 41
0
  0
VERTEX
  8
0
 10
2.80474
 20
1.25993
 30
0.0
 40
0
 41
0
  0
VERTEX
  8
0
 10
2.77349
 20
1.27257
 30
0.0
 40
0
 41
0
  0
VERTEX
  8
0
 10
2.73574
 20
1.28293
 30
0.0
 40
0
 41
0
  0
VERTEX
  8
0
 10
2.69862
 20
1.28141
 30
0.0
 40
0
 41
0
  0
VERTEX
  8
0
 10
2.66797
 20
1.26883
 30
0.0
 40
0
 41
0
  0
VERTEX
  8
0
 10
2.65918
 20
1.26264
 30
0.0
 40
0
 41
0
  0
VERTEX
  8
0
 10
2.65375
 20
1.25901
 30
0.0
 40
0
 41
0
  0
VERTEX
  8
0
 10
2.63738
 20
1.24799
 30
0.0
 40
0
 41
0
  0
VERTEX
  8
0
 10
2.61279
 20
1.2353
 30
0.0
 40
0
 41
0
  0
VERTEX
  8
0
 10
2.58817
 20
1.23188
 30
0.0
 40
0
 41
0
  0
VERTEX
  8
0
 10
2.57015
 20
1.2404
 30
0.0
 40
0
 41
0
  0
VERTEX
  8
0
 10
2.5664
 20
1.24501
 30
0.0
 40
0
 41
0
  0
VERTEX
  8
0
 10
2.56158
 20
1.24957
 30
0.0
 40
0
 41
0
  0
VERTEX
  8
0
 10
2.55578
 20
1.27224
 30
0.0
 40
0
 41
0
  0
VERTEX
  8
0
 10
2.56222
 20
1.30675
 30
0.0
 40
0
 41
0
  0
VERTEX
  8
0
 10
2.57628
 20
1.34125
 30
0.0
 40
0
 41
0
  0
VERTEX
  8
0
 10
2.58589
 20
1.36155
 30
0.0
 40
0
 41
0
  0
VERTEX
  8
0
 10
2.58865
 20
1.36843
 30
0.0
 40
0
 41
0
  0
VERTEX
  8
0
 10
2.59614
 20
1.38412
 30
0.0
 40
0
 41
0
  0
VERTEX
  8
0
 10
2.62082
 20
1.43013
 30
0.0
 40
0
 41
0
  0
VERTEX
  8
0
 10
2.66237
 20
1.49143
 30
0.0
 40
0
 41
0
  0
VERTEX
  8
0
 10
2.71442
 20
1.54156
 30
0.0
 40
0
 41
0
  0
VERTEX
  8
0
 10
2.76133
 20
1.56635
 30
0.0
 40
0
 41
0
  0
VERTEX
  8
0
 10
2.77794
 20
1.5695
 30
0.0
 40
0
 41
0
  0
VERTEX
  8
0
 10
2.79844
 20
1.57379
 30
0.0
 40
0
 41
0
  0
VERTEX
  8
0
 10
2.86317
 20
1.57189
 30
0.0
 40
0
 41
0
  0
VERTEX
  8
0
 10
2.94222
 20
1.54878
 30
0.0
 40
0
 41
0
  0
VERTEX
  8
0
 10
3.01699
 20
1.51047
 30
0.0
 40
0
 41
0
  0
VERTEX
  8
0
 10
3.07146
 20
1.47786
 30
0.0
 40
0
 41
0
  0
VERTEX
  8
0
 10
3.08974
 20
1.46718
 30
0.0
 40
0
 41
0
  0
VERTEX
  8
0
 10
3.0976
 20
1.46272
 30
0.0
 40
0
 41
0
  0
VERTEX
  8
0
 10
3.12061
 20
1.44797
 30
0.0
 40
0
 41
0
  0
VERTEX
  8
0
 10
3.15608
 20
1.42708
 30
0.0
 40
0
 41
0
  0
VERTEX
  8
0
 10
3.19358
 20
1.41217
 30
0.0
 40
0
 41
0
  0
VERTEX
  8
0
 10
3.22194
 20
1.40886
 30
0.0
 40
0
 41
0
  0
VERTEX
  8
0
 10
3.23079
 20
1.41075
 30
0.0
 40
0
 41
0
  0
VERTEX
  8
0
 10
3.23981
 20
1.41292
 30
0.0
 40
0
 41
0
  0
VERTEX
  8
0
 10
3.26525
 20
1.42671
 30
0.0
 40
0
 41
0
  0
VERTEX
  8
0
 10
3.30035
 20
1.45356
 30
0.0
 40
0
 41
0
  0
VERTEX
  8
0
 10
3.33415
 20
1.48367
 30
0.0
 40
0
 41
0
  0
VERTEX
  8
0
 10
3.3565
 20
1.50353
 30
0.0
 40
0
 41
0
  0
VERTEX
  8
0
 10
3.36442
 20
1.5095
 30
0.0
 40
0
 41
0
  0
VERTEX
  8
0
 10
3.38574
 20
1.52718
 30
0.0
 40
0
 41
0
  0
VERTEX
  8
0
 10
3.61496
 20
1.69206
 30
0.0
 40
0
 41
0
  0
VERTEX
  8
0
 10
3.63911
 20
1.70703
 30
0.0
 40
0
 41
0
  0
VERTEX
  8
0
 10
3.66411
 20
1.72293
 30
0.0
 40
0
 41
0
  0
VERTEX
  8
0
 10
3.79081
 20
1.79432
 30
0.0
 40
0
 41
0
  0
VERTEX
  8
0
 10
3.92301
 20
1.85514
 30
0.0
 40
0
 41
0
  0
VERTEX
  8
0
 10
3.9509
 20
1.86567
 30
0.0
 40
0
 41
0
  0
VERTEX
  8
0
 10
3.95606
 20
1.86789
 30
0.0
 40
0
 41
0
  0
VERTEX
  8
0
 10
3.97179
 20
1.87408
 30
0.0
 40
0
 41
0
  0
VERTEX
  8
0
 10
4.00635
 20
1.88683
 30
0.0
 40
0
 41
0
  0
VERTEX
  8
0
 10
4.04969
 20
1.90136
 30
0.0
 40
0
 41
0
  0
VERTEX
  8
0
 10
4.097
 20
1.91515
 30
0.0
 40
0
 41
0
  0
VERTEX
  8
0
 10
4.14344
 20
1.92567
 30
0.0
 40
0
 41
0
  0
VERTEX
  8
0
 10
4.18419
 20
1.93028
 30
0.0
 40
0
 41
0
  0
VERTEX
  8
0
 10
4.21442
 20
1.92643
 30
0.0
 40
0
 41
0
  0
VERTEX
  8
0
 10
4.22808
 20
1.91601
 30
0.0
 40
0
 41
0
  0
VERTEX
  8
0
 10
4.22928
 20
1.91162
 30
0.0
 40
0
 41
0
  0
VERTEX
  8
0
 10
4.23019
 20
1.90836
 30
0.0
 40
0
 41
0
  0
VERTEX
  8
0
 10
4.22792
 20
1.89703
 30
0.0
 40
0
 41
0
  0
VERTEX
  8
0
 10
4.21729
 20
1.88243
 30
0.0
 40
0
 41
0
  0
VERTEX
  8
0
 10
4.19987
 20
1.86833
 30
0.0
 40
0
 41
0
  0
VERTEX
  8
0
 10
4.17822
 20
1.85519
 30
0.0
 40
0
 41
0
  0
VERTEX
  8
0
 10
4.15479
 20
1.84332
 30
0.0
 40
0
 41
0
  0
VERTEX
  8
0
 10
4.13217
 20
1.83322
 30
0.0
 40
0
 41
0
  0
VERTEX
  8
0
 10
4.11279
 20
1.82531
 30
0.0
 40
0
 41
0
  0
VERTEX
  8
0
 10
4.10265
 20
1.82124
 30
0.0
 40
0
 41
0
  0
VERTEX
  8
0
 10
4.09933
 20
1.81988
 30
0.0
 40
0
 41
0
  0
VERTEX
  8
0
 10
4.08632
 20
1.81282
 30
0.0
 40
0
 41
0
  0
VERTEX
  8
0
 10
3.95643
 20
1.74229
 30
0.0
 40
0
 41
0
  0
VERTEX
  8
0
 10
3.94347
 20
1.73525
 30
0.0
 40
0
 41
0
  0
VERTEX
  8
0
 10
3.9184
 20
1.72026
 30
0.0
 40
0
 41
0
  0
VERTEX
  8
0
 10
3.79449
 20
1.6396
 30
0.0
 40
0
 41
0
  0
VERTEX
  8
0
 10
3.67617
 20
1.55003
 30
0.0
 40
0
 41
0
  0
VERTEX
  8
0
 10
3.65392
 20
1.5306
 30
0.0
 40
0
 41
0
  0
VERTEX
  8
0
 10
3.64372
 20
1.52268
 30
0.0
 40
0
 41
0
  0
VERTEX
  8
0
 10
3.54536
 20
1.43989
 30
0.0
 40
0
 41
0
  0
VERTEX
  8
0
 10
3.53515
 20
1.43192
 30
0.0
 40
0
 41
0
  0
VERTEX
  8
0
 10
3.52761
 20
1.42551
 30
0.0
 40
0
 41
0
  0
VERTEX
  8
0
 10
3.50407
 20
1.40744
 30
0.0
 40
0
 41
0
  0
VERTEX
  8
0
 10
3.47017
 20
1.38124
 30
0.0
 40
0
 41
0
  0
VERTEX
  8
0
 10
3.43907
 20
1.35308
 30
0.0
 40
0
 41
0
  0
VERTEX
  8
0
 10
3.42074
 20
1.33089
 30
0.0
 40
0
 41
0
  0
VERTEX
  8
0
 10
3.41639
 20
1.32259
 30
0.0
 40
0
 41
0
  0
VERTEX
  8
0
 10
3.41331
 20
1.3163
 30
0.0
 40
0
 41
0
  0
VERTEX
  8
0
 10
3.41271
 20
1.29302
 30
0.0
 40
0
 41
0
  0
VERTEX
  8
0
 10
3.42887
 20
1.27105
 30
0.0
 40
0
 41
0
  0
VERTEX
  8
0
 10
3.45551
 20
1.25369
 30
0.0
 40
0
 41
0
  0
VERTEX
  8
0
 10
3.47646
 20
1.24224
 30
0.0
 40
0
 41
0
  0
VERTEX
  8
0
 10
3.48318
 20
1.23796
 30
0.0
 40
0
 41
0
  0
VERTEX
  8
0
 10
3.49522
 20
1.2309
 30
0.0
 40
0
 41
0
  0
VERTEX
  8
0
 10
3.56022
 20
1.18989
 30
0.0
 40
0
 41
0
  0
VERTEX
  8
0
 10
3.62885
 20
1.15419
 30
0.0
 40
0
 41
0
  0
VERTEX
  8
0
 10
3.64279
 20
1.14974
 30
0.0
 40
0
 41
0
  0
VERTEX
  8
0
 10
3.65018
 20
1.14703
 30
0.0
 40
0
 41
0
  0
VERTEX
  8
0
 10
3.67518
 20
1.14616
 30
0.0
 40
0
 41
0
  0
VERTEX
  8
0
 10
3.70167
 20
1.15815
 30
0.0
 40
0
 41
0
  0
VERTEX
  8
0
 10
3.72472
 20
1.18001
 30
0.0
 40
0
 41
0
  0
VERTEX
  8
0
 10
3.74121
 20
1.19965
 30
0.0
 40
0
 41
0
  0
VERTEX
  8
0
 10
3.74675
 20
1.20616
 30
0.0
 40
0
 41
0
  0
VERTEX
  8
0
 10
3.75694
 20
1.2168
 30
0.0
 40
0
 41
0
  0
VERTEX
  8
0
 10
3.85249
 20
1.32612
 30
0.0
 40
0
 41
0
  0
VERTEX
  8
0
 10
3.86182
 20
1.3367
 30
0.0
 40
0
 41
0
  0
VERTEX
  8
0
 10
3.88222
 20
1.35878
 30
0.0
 40
0
 41
0
  0
VERTEX
  8
0
 10
4.10303
 20
1.56685
 30
0.0
 40
0
 41
0
  0
VERTEX
  8
0
 10
4.12532
 20
1.58713
 30
0.0
 40
0
 41
0
  0
VERTEX
  8
0
 10
4.12956
 20
1.59119
 30
0.0
 40
0
 41
0
  0
VERTEX
  8
0
 10
4.14268
 20
1.60292
 30
0.0
 40
0
 41
0
  0
VERTEX
  8
0
 10
4.17247
 20
1.62858
 30
0.0
 40
0
 41
0
  0
VERTEX
  8
0
 10
4.21035
 20
1.65956
 30
0.0
 40
0
 41
0
  0
VERTEX
  8
0
 10
4.25196
 20
1.69119
 30
0.0
 40
0
 41
0
  0
VERTEX
  8
0
 10
4.29308
 20
1.71881
 30
0.0
 40
0
 41
0
  0
VERTEX
  8
0
 10
4.32937
 20
1.7379
 30
0.0
 40
0
 41
0
  0
VERTEX
  8
0
 10
4.35656
 20
1.74376
 30
0.0
 40
0
 41
0
  0
VERTEX
  8
0
 10
4.36936
 20
1.73535
 30
0.0
 40
0
 41
0
  0
VERTEX
  8
0
 10
4.37028
 20
1.73172
 30
0.0
 40
0
 41
0
  0
VERTEX
  8
0
 10
4.37164
 20
1.72504
 30
0.0
 40
0
 41
0
  0
VERTEX
  8
0
 10
4.36263
 20
1.70221
 30
0.0
 40
0
 41
0
  0
VERTEX
  8
0
 10
4.33686
 20
1.67003
 30
0.0
 40
0
 41
0
  0
VERTEX
  8
0
 10
4.30556
 20
1.64046
 30
0.0
 40
0
 41
0
  0
VERTEX
  8
0
 10
4.28674
 20
1.62418
 30
0.0
 40
0
 41
0
  0
VERTEX
  8
0
 10
4.28119
 20
1.61887
 30
0.0
 40
0
 41
0
  0
VERTEX
  8
0
 10
4.27001
 20
1.60742
 30
0.0
 40
0
 41
0
  0
VERTEX
  8
0
 10
4.16521
 20
1.49278
 30
0.0
 40
0
 41
0
  0
VERTEX
  8
0
 10
4.155
 20
1.48128
 30
0.0
 40
0
 41
0
  0
VERTEX
  8
0
 10
4.13553
 20
1.46012
 30
0.0
 40
0
 41
0
  0
VERTEX
  8
0
 10
3.94715
 20
1.24235
 30
0.0
 40
0
 41
0
  0
VERTEX
  8
0
 10
3.9286
 20
1.22027
 30
0.0
 40
0
 41
0
  0
VERTEX
  8
0
 10
3.92171
 20
1.21229
 30
0.0
 40
0
 41
0
  0
VERTEX
  8
0
 10
3.89974
 20
1.1894
 30
0.0
 40
0
 41
0
  0
VERTEX
  8
0
 10
3.86778
 20
1.15549
 30
0.0
 40
0
 41
0
  0
VERTEX
  8
0
 10
3.83931
 20
1.11963
 30
0.0
 40
0
 41
0
  0
VERTEX
  8
0
 10
3.82383
 20
1.09245
 30
0.0
 40
0
 41
0
  0
VERTEX
  8
0
 10
3.82096
 20
1.08268
 30
0.0
 40
0
 41
0
  0
VERTEX
  8
0
 10
3.81874
 20
1.07596
 30
0.0
 40
0
 41
0
  0
VERTEX
  8
0
 10
3.81982
 20
1.05317
 30
0.0
 40
0
 41
0
  0
VERTEX
  8
0
 10
3.83436
 20
1.0312
 30
0.0
 40
0
 41
0
  0
VERTEX
  8
0
 10
3.85796
 20
1.01383
 30
0.0
 40
0
 41
0
  0
VERTEX
  8
0
 10
3.87761
 20
1.00217
 30
0.0
 40
0
 41
0
  0
VERTEX
  8
0
 10
3.88406
 20
0.998101
 30
0.0
 40
0
 41
0
  0
VERTEX
  8
0
 10
3.89518
 20
0.991049
 30
0.0
 40
0
 41
0
  0
VERTEX
  8
0
 10
3.95503
 20
0.951768
 30
0.0
 40
0
 41
0
  0
VERTEX
  8
0
 10
4.01671
 20
0.91786
 30
0.0
 40
0
 41
0
  0
VERTEX
  8
0
 10
4.02881
 20
0.913411
 30
0.0
 40
0
 41
0
  0
VERTEX
  8
0
 10
4.0364
 20
0.91135
 30
0.0
 40
0
 41
0
  0
VERTEX
  8
0
 10
4.06153
 20
0.912978
 30
0.0
 40
0
 41
0
  0
VERTEX
  8
0
 10
4.08447
 20
0.92844
 30
0.0
 40
0
 41
0
  0
VERTEX
  8
0
 10
4.10189
 20
0.953125
 30
0.0
 40
0
 41
0
  0
VERTEX
  8
0
 10
4.11367
 20
0.973796
 30
0.0
 40
0
 41
0
  0
VERTEX
  8
0
 10
4.11789
 20
0.980469
 30
0.0
 40
0
 41
0
  0
VERTEX
  8
0
 10
4.13271
 20
1.00255
 30
0.0
 40
0
 41
0
  0
VERTEX
  8
0
 10
4.21392
 20
1.10259
 30
0.0
 40
0
 41
0
  0
VERTEX
  8
0
 10
4.30811
 20
1.19032
 30
0.0
 40
0
 41
0
  0
VERTEX
  8
0
 10
4.32949
 20
1.20616
 30
0.0
 40
0
 41
0
  0
VERTEX
  8
0
 10
4.33968
 20
1.21414
 30
0.0
 40
0
 41
0
  0
VERTEX
  8
0
 10
4.38282
 20
1.24989
 30
0.0
 40
0
 41
0
  0
VERTEX
  8
0
 10
4.41667
 20
1.29085
 30
0.0
 40
0
 41
0
  0
VERTEX
  8
0
 10
4.42225
 20
1.30143
 30
0.0
 40
0
 41
0
  0
VERTEX
  8
0
 10
4.42871
 20
1.3138
 30
0.0
 40
0
 41
0
  0
VERTEX
  8
0
 10
4.49647
 20
1.43722
 30
0.0
 40
0
 41
0
  0
VERTEX
  8
0
 10
4.5039
 20
1.44954
 30
0.0
 40
0
 41
0
  0
VERTEX
  8
0
 10
4.51687
 20
1.47071
 30
0.0
 40
0
 41
0
  0
VERTEX
  8
0
 10
4.59532
 20
1.56597
 30
0.0
 40
0
 41
0
  0
VERTEX
  8
0
 10
4.69043
 20
1.64708
 30
0.0
 40
0
 41
0
  0
VERTEX
  8
0
 10
4.71181
 20
1.66118
 30
0.0
 40
0
 41
0
  0
VERTEX
  8
0
 10
4.74685
 20
1.68485
 30
0.0
 40
0
 41
0
  0
VERTEX
  8
0
 10
4.85769
 20
1.7475
 30
0.0
 40
0
 41
0
  0
VERTEX
  8
0
 10
5.02171
 20
1.81993
 30
0.0
 40
0
 41
0
  0
VERTEX
  8
0
 10
5.19407
 20
1.86854
 30
0.0
 40
0
 41
0
  0
VERTEX
  8
0
 10
5.32243
 20
1.88476
 30
0.0
 40
0
 41
0
  0
VERTEX
  8
0
 10
5.36501
 20
1.8834
 30
0.0
 40
0
 41
0
  0
VERTEX
  8
0
 10
5.39469
 20
1.88254
 30
0.0
 40
0
 41
0
  0
VERTEX
  8
0
 10
5.53668
 20
1.85562
 30
0.0
 40
0
 41
0
  0
VERTEX
  8
0
 10
5.67497
 20
1.80931
 30
0.0
 40
0
 41
0
  0
VERTEX
  8
0
 10
5.70281
 20
1.79872
 30
0.0
 40
0
 41
0
  0
VERTEX
  8
0
 10
5.72689
 20
1.78993
 30
0.0
 40
0
 41
0
  0
VERTEX
  8
0
 10
5.83594
 20
1.73654
 30
0.0
 40
0
 41
0
  0
VERTEX
  8
0
 10
5.93571
 20
1.66738
 30
0.0
 40
0
 41
0
  0
VERTEX
  8
0
 10
5.95518
 20
1.65061
 30
0.0
 40
0
 41
0
  0
VERTEX
  8
0
 10
5.97651
 20
1.63211
 30
0.0
 40
0
 41
0
  0
VERTEX
  8
0
 10
6.06326
 20
1.53597
 30
0.0
 40
0
 41
0
  0
VERTEX
  8
0
 10
6.12961
 20
1.42578
 30
0.0
 40
0
 41
0
  0
VERTEX
  8
0
 10
6.14079
 20
1.40018
 30
0.0
 40
0
 41
0
  0
VERTEX
  8
0
 10
6.14324
 20
1.39469
 30
0.0
 40
0
 41
0
  0
VERTEX
  8
0
 10
6.15018
 20
1.37793
 30
0.0
 40
0
 41
0
  0
VERTEX
  8
0
 10
6.15744
 20
1.35173
 30
0.0
 40
0
 41
0
  0
VERTEX
  8
0
 10
6.15642
 20
1.32682
 30
0.0
 40
0
 41
0
  0
VERTEX
  8
0
 10
6.14572
 20
1.31109
 30
0.0
 40
0
 41
0
  0
VERTEX
  8
0
 10
6.14079
 20
1.30848
 30
0.0
 40
0
 41
0
  0
VERTEX
  8
0
 10
6.13396
 20
1.30463
 30
0.0
 40
0
 41
0
  0
VERTEX
  8
0
 10
6.10667
 20
1.3048
 30
0.0
 40
0
 41
0
  0
VERTEX
  8
0
 10
6.0656
 20
1.31863
 30
0.0
 40
0
 41
0
  0
VERTEX
  8
0
 10
6.02593
 20
1.33973
 30
0.0
 40
0
 41
0
  0
VERTEX
  8
0
 10
6.00342
 20
1.35346
 30
0.0
 40
0
 41
0
  0
VERTEX
  8
0
 10
5.99604
 20
1.35786
 30
0.0
 40
0
 41
0
  0
VERTEX
  8
0
 10
5.97097
 20
1.37109
 30
0.0
 40
0
 41
0
  0
VERTEX
  8
0
 10
5.84939
 20
1.42969
 30
0.0
 40
0
 41
0
  0
VERTEX
  8
0
 10
5.72043
 20
1.4725
 30
0.0
 40
0
 41
0
  0
VERTEX
  8
0
 10
5.69168
 20
1.47775
 30
0.0
 40
0
 41
0
  0
VERTEX
  8
0
 10
5.66287
 20
1.48307
 30
0.0
 40
0
 41
0
  0
VERTEX
  8
0
 10
5.51719
 20
1.49408
 30
0.0
 40
0
 41
0
  0
VERTEX
  8
0
 10
5.37153
 20
1.47868
 30
0.0
 40
0
 41
0
  0
VERTEX
  8
0
 10
5.34278
 20
1.47071
 30
0.0
 40
0
 41
0
  0
VERTEX
  8
0
 10
5.30328
 20
1.45975
 30
0.0
 40
0
 41
0
  0
VERTEX
  8
0
 10
5.19038
 20
1.4069
 30
0.0
 40
0
 41
0
  0
VERTEX
  8
0
 10
5.05647
 20
1.31201
 30
0.0
 40
0
 41
0
  0
VERTEX
  8
0
 10
4.94135
 20
1.19596
 30
0.0
 40
0
 41
0
  0
VERTEX
  8
0
 10
4.8674
 20
1.10178
 30
0.0
 40
0
 41
0
  0
VERTEX
  8
0
 10
4.84538
 20
1.06863
 30
0.0
 40
0
 41
0
  0
VERTEX
  8
0
 10
4.82146
 20
1.0325
 30
0.0
 40
0
 41
0
  0
VERTEX
  8
0
 10
4.76269
 20
0.91531
 30
0.0
 40
0
 41
0
  0
VERTEX
  8
0
 10
4.70801
 20
0.755317
 30
0.0
 40
0
 41
0
  0
VERTEX
  8
0
 10
4.67497
 20
0.590169
 30
0.0
 40
0
 41
0
  0
VERTEX
  8
0
 10
4.65701
 20
0.421442
 30
0.0
 40
0
 41
0
  0
VERTEX
  8
0
 10
4.64779
 20
0.25076
 30
0.0
 40
0
 41
0
  0
VERTEX
  8
0
 10
4.64079
 20
0.0796442
 30
0.0
 40
0
 41
0
  0
VERTEX
  8
0
 10
4.62961
 20
-0.0903321
 30
0.0
 40
0
 41
0
  0
VERTEX
  8
0
 10
4.61518
 20
-0.216092
 30
0.0
 40
0
 41
0
  0
VERTEX
  8
0
 10
4.60786
 20
-0.257596
 30
0.0
 40
0
 41
0
  0
VERTEX
  8
0
 10
4.60319
 20
-0.284939
 30
0.0
 40
0
 41
0
  0
VERTEX
  8
0
 10
4.57167
 20
-0.426432
 30
0.0
 40
0
 41
0
  0
VERTEX
  8
0
 10
4.52897
 20
-0.566189
 30
0.0
 40
0
 41
0
  0
VERTEX
  8
0
 10
4.51878
 20
-0.592665
 30
0.0
 40
0
 41
0
  0
VERTEX
  8
0
 10
4.5095
 20
-0.61735
 30
0.0
 40
0
 41
0
  0
VERTEX
  8
0
 10
4.44499
 20
-0.731933
 30
0.0
 40
0
 41
0
  0
VERTEX
  8
0
 10
4.36746
 20
-0.839518
 30
0.0
 40
0
 41
0
  0
VERTEX
  8
0
 10
4.35172
 20
-0.860678
 30
0.0
 40
0
 41
0
  0
VERTEX
  8
0
 10
4.32607
 20
-0.894043
 30
0.0
 40
0
 41
0
  0
VERTEX
  8
0
 10
4.23844
 20
-0.985949
 30
0.0
 40
0
 41
0
  0
VERTEX
  8
0
 10
4.11094
 20
-1.09039
 30
0.0
 40
0
 41
0
  0
VERTEX
  8
0
 10
3.97017
 20
-1.17958
 30
0.0
 40
0
 41
0
  0
VERTEX
  8
0
 10
3.85601
 20
-1.24051
 30
0.0
 40
0
 41
0
  0
VERTEX
  8
0
 10
3.81728
 20
-1.25928
 30
0.0
 40
0
 41
0
  0
VERTEX
  8
0
 10
3.77718
 20
-1.27897
 30
0.0
 40
0
 41
0
  0
VERTEX
  8
0
 10
3.65306
 20
-1.3303
 30
0.0
 40
0
 41
0
  0
VERTEX
  8
0
 10
3.48367
 20
-1.38314
 30
0.0
 40
0
 41
0
  0
VERTEX
  8
0
 10
3.30935
 20
-1.41547
 30
0.0
 40
0
 41
0
  0
VERTEX
  8
0
 10
3.17518
 20
-1.42567
 30
0.0
 40
0
 41
0
  0
VERTEX
  8
0
 10
3.13058
 20
-1.42503
 30
0.0
 40
0
 41
0
  0
VERTEX
  8
0
 10
3.08475
 20
-1.42503
 30
0.0
 40
0
 41
0
  0
VERTEX
  8
0
 10
2.94726
 20
-1.42806
 30
0.0
 40
0
 41
0
  0
VERTEX
  8
0
 10
2.7965
 20
-1.42236
 30
0.0
 40
0
 41
0
  0
VERTEX
  8
0
 10
2.76682
 20
-1.41797
 30
0.0
 40
0
 41
0
  0
VERTEX
  8
0
 10
2.7399
 20
-1.41444
 30
0.0
 40
0
 41
0
  0
VERTEX
  8
0
 10
2.60954
 20
-1.37826
 30
0.0
 40
0
 41
0
  0
VERTEX
  8
0
 10
2.48101
 20
-1.33154
 30
0.0
 40
0
 41
0
  0
VERTEX
  8
0
 10
2.45503
 20
-1.32275
 30
0.0
 40
0
 41
0
  0
VERTEX
  8
0
 10
2.41465
 20
-1.308
 30
0.0
 40
0
 41
0
  0
VERTEX
  8
0
 10
2.29785
 20
-1.25239
 30
0.0
 40
0
 41
0
  0
VERTEX
  8
0
 10
2.15272
 20
-1.16216
 30
0.0
 40
0
 41
0
  0
VERTEX
  8
0
 10
2.02051
 20
-1.05469
 30
0.0
 40
0
 41
0
  0
VERTEX
  8
0
 10
1.90196
 20
-0.932508
 30
0.0
 40
0
 41
0
  0
VERTEX
  8
0
 10
1.79807
 20
-0.798286
 30
0.0
 40
0
 41
0
  0
VERTEX
  8
0
 10
1.70969
 20
-0.654568
 30
0.0
 40
0
 41
0
  0
VERTEX
  8
0
 10
1.63758
 20
-0.504015
 30
0.0
 40
0
 41
0
  0
VERTEX
  8
0
 10
1.59435
 20
-0.38851
 30
0.0
 40
0
 41
0
  0
VERTEX
  8
0
 10
1.58279
 20
-0.349229
 30
0.0
 40
0
 41
0
  0
VERTEX
  8
0
 10
1.57904
 20
-0.33686
 30
0.0
 40
0
 41
0
  0
VERTEX
  8
0
 10
1.56467
 20
-0.273383
 30
0.0
 40
0
 41
0
  0
VERTEX
  8
0
 10
1.55214
 20
-0.209907
 30
0.0
 40
0
 41
0
  0
VERTEX
  8
0
 10
1.54938
 20
-0.197592
 30
0.0
 40
0
 41
0
  0
VERTEX
  8
0
 10
1.54563
 20
-0.184353
 30
0.0
 40
0
 41
0
  0
VERTEX
  8
0
 10
1.5076
 20
-0.0520833
 30
0.0
 40
0
 41
0
  0
VERTEX
  8
0
 10
1.50483
 20
-0.0388997
 30
0.0
 40
0
 41
0
  0
VERTEX
  8
0
 10
1.50017
 20
-0.00976563
 30
0.0
 40
0
 41
0
  0
VERTEX
  8
0
 10
1.49274
 20
0.137478
 30
0.0
 40
0
 41
0
  0
VERTEX
  8
0
 10
1.49647
 20
0.284776
 30
0.0
 40
0
 41
0
  0
VERTEX
  8
0
 10
1.4974
 20
0.313857
 30
0.0
 40
0
 41
0
  0
VERTEX
  8
0
 10
1.4974
 20
0.356988
 30
0.0
 40
0
 41
0
  0
VERTEX
  8
0
 10
1.51411
 20
0.486219
 30
0.0
 40
0
 41
0
  0
VERTEX
  8
0
 10
1.54568
 20
0.626899
 30
0.0
 40
0
 41
0
  0
VERTEX
  8
0
 10
1.55311
 20
0.655979
 30
0.0
 40
0
 41
0
  0
VERTEX
  8
0
 10
1.55957
 20
0.681586
 30
0.0
 40
0
 41
0
  0
VERTEX
  8
0
 10
1.58322
 20
0.811199
 30
0.0
 40
0
 41
0
  0
VERTEX
  8
0
 10
1.61615
 20
0.94081
 30
0.0
 40
0
 41
0
  0
VERTEX
  8
0
 10
1.62733
 20
0.966363
 30
0.0
 40
0
 41
0
  0
VERTEX
  8
0
 10
1.64958
 20
1.01839
 30
0.0
 40
0
 41
0
  0
VERTEX
  8
0
 10
1.7665
 20
1.27409
 30
0.0
 40
0
 41
0
  0
VERTEX
  8
0
 10
1.90571
 20
1.51921
 30
0.0
 40
0
 41
0
  0
VERTEX
  8
0
 10
1.93913
 20
1.56592
 30
0.0
 40
0
 41
0
  0
VERTEX
  8
0
 10
1.97157
 20
1.61089
 30
0.0
 40
0
 41
0
  0
VERTEX
  8
0
 10
2.14833
 20
1.82081
 30
0.0
 40
0
 41
0
  0
VERTEX
  8
0
 10
2.34554
 20
2.01297
 30
0.0
 40
0
 41
0
  0
VERTEX
  8
0
 10
2.38824
 20
2.0491
 30
0.0
 40
0
 41
0
  0
VERTEX
  8
0
 10
2.45367
 20
2.10471
 30
0.0
 40
0
 41
0
  0
VERTEX
  8
0
 10
2.66292
 20
2.25629
 30
0.0
 40
0
 41
0
  0
VERTEX
  8
0
 10
2.96029
 20
2.43365
 30
0.0
 40
0
 41
0
  0
VERTEX
  8
0
 10
3.27501
 20
2.58188
 30
0.0
 40
0
 41
0
  0
VERTEX
  8
0
 10
3.5191
 20
2.67524
 30
0.0
 40
0
 41
0
  0
VERTEX
  8
0
 10
3.602
 20
2.70167
 30
0.0
 40
0
 41
0
  0
VERTEX
  8
0
 10
3.62983
 20
2.7105
 30
0.0
 40
0
 41
0
  0
VERTEX
  8
0
 10
3.76807
 20
2.74886
 30
0.0
 40
0
 41
0
  0
VERTEX
  8
0
 10
3.91
 20
2.77838
 30
0.0
 40
0
 41
0
  0
VERTEX
  8
0
 10
3.93972
 20
2.78276
 30
0.0
 40
0
 41
0
  0
VERTEX
  8
0
 10
3.96847
 20
2.78722
 30
0.0
 40
0
 41
0
  0
VERTEX
  8
0
 10
4.11279
 20
2.81808
 30
0.0
 40
0
 41
0
  0
VERTEX
  8
0
 10
4.2589
 20
2.84896
 30
0.0
 40
0
 41
0
  0
VERTEX
  8
0
 10
4.28863
 20
2.85335
 30
0.0
 40
0
 41
0
  0
VERTEX
  8
0
 10
4.30251
 20
2.85514
 30
0.0
 40
0
 41
0
  0
VERTEX
  8
0
 10
4.44824
 20
2.87631
 30
0.0
 40
0
 41
0
  0
VERTEX
  8
0
 10
4.46311
 20
2.87804
 30
0.0
 40
0
 41
0
  0
VERTEX
  8
0
 10
4.47792
 20
2.87983
 30
0.0
 40
0
 41
0
  0
VERTEX
  8
0
 10
4.55399
 20
2.88069
 30
0.0
 40
0
 41
0
  0
VERTEX
  8
0
 10
4.62218
 20
2.87804
 30
0.0
 40
0
 41
0
  0
VERTEX
  8
0
 10
4.64497
 20
2.87804
 30
0.0
 40
0
 41
0
  0
VERTEX
  8
0
 10
4.68892
 20
2.87804
 30
0.0
 40
0
 41
0
  0
VERTEX
  8
0
 10
4.82081
 20
2.86486
 30
0.0
 40
0
 41
0
  0
VERTEX
  8
0
 10
4.96506
 20
2.84104
 30
0.0
 40
0
 41
0
  0
VERTEX
  8
0
 10
4.99387
 20
2.83572
 30
0.0
 40
0
 41
0
  0
VERTEX
  8
0
 10
5.00776
 20
2.83311
 30
0.0
 40
0
 41
0
  0
VERTEX
  8
0
 10
5.07553
 20
2.81586
 30
0.0
 40
0
 41
0
  0
VERTEX
  8
0
 10
5.14324
 20
2.79688
 30
0.0
 40
0
 41
0
  0
VERTEX
  8
0
 10
5.15717
 20
2.79335
 30
0.0
 40
0
 41
0
  0
VERTEX
  8
0
 10
5.17014
 20
2.78982
 30
0.0
 40
0
 41
0
  0
VERTEX
  8
0
 10
5.23742
 20
2.77838
 30
0.0
 40
0
 41
0
  0
VERTEX
  8
0
 10
5.30658
 20
2.77046
 30
0.0
 40
0
 41
0
  0
VERTEX
  8
0
 10
5.32053
 20
2.76867
 30
0.0
 40
0
 41
0
  0
VERTEX
  8
0
 10
5.34836
 20
2.76514
 30
0.0
 40
0
 41
0
  0
VERTEX
  8
0
 10
5.48335
 20
2.729
 30
0.0
 40
0
 41
0
  0
VERTEX
  8
0
 10
5.61654
 20
2.68229
 30
0.0
 40
0
 41
0
  0
VERTEX
  8
0
 10
5.64344
 20
2.67344
 30
0.0
 40
0
 41
0
  0
VERTEX
  8
0
 10
5.67128
 20
2.66553
 30
0.0
 40
0
 41
0
  0
VERTEX
  8
0
 10
5.80578
 20
2.60954
 30
0.0
 40
0
 41
0
  0
VERTEX
  8
0
 10
5.93664
 20
2.54471
 30
0.0
 40
0
 41
0
  0
VERTEX
  8
0
 10
5.96262
 20
2.53233
 30
0.0
 40
0
 41
0
  0
VERTEX
  8
0
 10
5.99046
 20
2.52001
 30
0.0
 40
0
 41
0
  0
VERTEX
  8
0
 10
6.12825
 20
2.45611
 30
0.0
 40
0
 41
0
  0
VERTEX
  8
0
 10
6.26047
 20
2.38336
 30
0.0
 40
0
 41
0
  0
VERTEX
  8
0
 10
6.28554
 20
2.3666
 30
0.0
 40
0
 41
0
  0
VERTEX
  8
0
 10
6.33192
 20
2.33664
 30
0.0
 40
0
 41
0
  0
VERTEX
  8
0
 10
6.54861
 20
2.17219
 30
0.0
 40
0
 41
0
  0
VERTEX
  8
0
 10
6.74115
 20
1.98481
 30
0.0
 40
0
 41
0
  0
VERTEX
  8
0
 10
6.7755
 20
1.94336
 30
0.0
 40
0
 41
0
  0
VERTEX
  8
0
 10
6.79221
 20
1.92307
 30
0.0
 40
0
 41
0
  0
VERTEX
  8
0
 10
6.94433
 20
1.70882
 30
0.0
 40
0
 41
0
  0
VERTEX
  8
0
 10
6.95736
 20
1.68588
 30
0.0
 40
0
 41
0
  0
VERTEX
  8
0
 10
6.97125
 20
1.66118
 30
0.0
 40
0
 41
0
  0
VERTEX
  8
0
 10
7.02419
 20
1.53689
 30
0.0
 40
0
 41
0
  0
VERTEX
  8
0
 10
7.06222
 20
1.40896
 30
0.0
 40
0
 41
0
  0
VERTEX
  8
0
 10
7.06874
 20
1.38249
 30
0.0
 40
0
 41
0
  0
VERTEX
  8
0
 10
7.07611
 20
1.35427
 30
0.0
 40
0
 41
0
  0
VERTEX
  8
0
 10
7.10954
 20
1.21631
 30
0.0
 40
0
 41
0
  0
VERTEX
  8
0
 10
7.1281
 20
1.08968
 30
0.0
 40
0
 41
0
  0
VERTEX
  8
0
 10
7.1281
 20
1.04742
 30
0.0
 40
0
 41
0
  0
VERTEX
  8
0
 10
7.1281
 20
1.00667
 30
0.0
 40
0
 41
0
  0
VERTEX
  8
0
 10
7.11649
 20
0.884386
 30
0.0
 40
0
 41
0
  0
VERTEX
  8
0
 10
7.08822
 20
0.752115
 30
0.0
 40
0
 41
0
  0
VERTEX
  8
0
 10
7.07986
 20
0.726508
 30
0.0
 40
0
 41
0
  0
VERTEX
  8
0
 10
7.0715
 20
0.698296
 30
0.0
 40
0
 41
0
  0
VERTEX
  8
0
 10
7.02507
 20
0.563422
 30
0.0
 40
0
 41
0
  0
VERTEX
  8
0
 10
6.96756
 20
0.432021
 30
0.0
 40
0
 41
0
  0
VERTEX
  8
0
 10
6.95367
 20
0.405544
 30
0.0
 40
0
 41
0
  0
VERTEX
  8
0
 10
6.93972
 20
0.379992
 30
0.0
 40
0
 41
0
  0
VERTEX
  8
0
 10
6.87011
 20
0.251247
 30
0.0
 40
0
 41
0
  0
VERTEX
  8
0
 10
6.79313
 20
0.126031
 30
0.0
 40
0
 41
0
  0
VERTEX
  8
0
 10
6.7755
 20
0.102214
 30
0.0
 40
0
 41
0
  0
VERTEX
  8
0
 10
6.72401
 20
0.0315213
 30
0.0
 40
0
 41
0
  0
VERTEX
  8
0
 10
6.55339
 20
-0.168892
 30
0.0
 40
0
 41
0
  0
VERTEX
  8
0
 10
6.30453
 20
-0.418892
 30
0.0
 40
0
 41
0
  0
VERTEX
  8
0
 10
6.03689
 20
-0.651693
 30
0.0
 40
0
 41
0
  0
VERTEX
  8
0
 10
5.82894
 20
-0.817546
 30
0.0
 40
0
 41
0
  0
VERTEX
  8
0
 10
5.75846
 20
-0.871257
 30
0.0
 40
0
 41
0
  0
VERTEX
  8
0
 10
5.68664
 20
-0.926215
 30
0.0
 40
0
 41
0
  0
VERTEX
  8
0
 10
5.4636
 20
-1.08116
 30
0.0
 40
0
 41
0
  0
VERTEX
  8
0
 10
5.15625
 20
-1.27555
 30
0.0
 40
0
 41
0
  0
VERTEX
  8
0
 10
4.8419
 20
-1.46001
 30
0.0
 40
0
 41
0
  0
VERTEX
  8
0
 10
4.60508
 20
-1.59506
 30
0.0
 40
0
 41
0
  0
VERTEX
  8
0
 10
4.52621
 20
-1.64019
 30
0.0
 40
0
 41
0
  0
VERTEX
  8
0
 10
4.47515
 20
-1.66928
 30
0.0
 40
0
 41
0
  0
VERTEX
  8
0
 10
3.96474
 20
-1.96729
 30
0.0
 40
0
 41
0
  0
VERTEX
  8
0
 10
3.91374
 20
-1.99642
 30
0.0
 40
0
 41
0
  0
VERTEX
  8
0
 10
3.86546
 20
-2.02371
 30
0.0
 40
0
 41
0
  0
VERTEX
  8
0
 10
3.63026
 20
-2.17626
 30
0.0
 40
0
 41
0
  0
VERTEX
  8
0
 10
3.41174
 20
-2.34999
 30
0.0
 40
0
 41
0
  0
VERTEX
  8
0
 10
3.37185
 20
-2.38792
 30
0.0
 40
0
 41
0
  0
VERTEX
  8
0
 10
3.3514
 20
-2.40728
 30
0.0
 40
0
 41
0
  0
VERTEX
  8
0
 10
3.24333
 20
-2.50429
 30
0.0
 40
0
 41
0
  0
VERTEX
  8
0
 10
3.14079
 20
-2.60835
 30
0.0
 40
0
 41
0
  0
VERTEX
  8
0
 10
3.12315
 20
-2.63129
 30
0.0
 40
0
 41
0
  0
VERTEX
  8
0
 10
3.11789
 20
-2.63792
 30
0.0
 40
0
 41
0
  0
VERTEX
  8
0
 10
3.10406
 20
-2.6595
 30
0.0
 40
0
 41
0
  0
VERTEX
  8
0
 10
3.08951
 20
-2.68994
 30
0.0
 40
0
 41
0
  0
VERTEX
  8
0
 10
3.08083
 20
-2.72049
 30
0.0
 40
0
 41
0
  0
VERTEX
  8
0
 10
3.07954
 20
-2.74897
 30
0.0
 40
0
 41
0
  0
VERTEX
  8
0
 10
3.08686
 20
-2.77333
 30
0.0
 40
0
 41
0
  0
VERTEX
  8
0
 10
3.10433
 20
-2.79144
 30
0.0
 40
0
 41
0
  0
VERTEX
  8
0
 10
3.13331
 20
-2.80122
 30
0.0
 40
0
 41
0
  0
VERTEX
  8
0
 10
3.16482
 20
-2.80192
 30
0.0
 40
0
 41
0
  0
VERTEX
  8
0
 10
3.17512
 20
-2.80057
 30
0.0
 40
0
 41
0
  0
VERTEX
  8
0
 10
3.19656
 20
-2.79725
 30
0.0
 40
0
 41
0
  0
VERTEX
  8
0
 10
3.25976
 20
-2.78017
 30
0.0
 40
0
 41
0
  0
VERTEX
  8
0
 10
3.34304
 20
-2.75379
 30
0.0
 40
0
 41
0
  0
VERTEX
  8
0
 10
3.42774
 20
-2.7341
 30
0.0
 40
0
 41
0
  0
VERTEX
  8
0
 10
3.49485
 20
-2.73042
 30
0.0
 40
0
 41
0
  0
VERTEX
  8
0
 10
3.5166
 20
-2.73356
 30
0.0
 40
0
 41
0
  0
VERTEX
  8
0
 10
3.53489
 20
-2.73665
 30
0.0
 40
0
 41
0
  0
VERTEX
  8
0
 10
3.58843
 20
-2.75444
 30
0.0
 40
0
 41
0
  0
VERTEX
  8
0
 10
3.64882
 20
-2.78956
 30
0.0
 40
0
 41
0
  0
VERTEX
  8
0
 10
3.69874
 20
-2.83724
 30
0.0
 40
0
 41
0
  0
VERTEX
  8
0
 10
3.73053
 20
-2.88043
 30
0.0
 40
0
 41
0
  0
VERTEX
  8
0
 10
3.73931
 20
-2.89589
 30
0.0
 40
0
 41
0
  0
VERTEX
  8
0
 10
3.76014
 20
-2.92974
 30
0.0
 40
0
 41
0
  0
VERTEX
  8
0
 10
3.80376
 20
-3.04297
 30
0.0
 40
0
 41
0
  0
VERTEX
  8
0
 10
3.83208
 20
-3.20003
 30
0.0
 40
0
 41
0
  0
VERTEX
  8
0
 10
3.83529
 20
-3.361
 30
0.0
 40
0
 41
0
  0
VERTEX
  8
0
 10
3.82818
 20
-3.48036
 30
0.0
 40
0
 41
0
  0
VERTEX
  8
0
 10
3.82465
 20
-3.52007
 30
0.0
 40
0
 41
0
  0
VERTEX
  8
0
 10
3.82254
 20
-3.53922
 30
0.0
 40
0
 41
0
  0
VERTEX
  8
0
 10
3.81874
 20
-3.59706
 30
0.0
 40
0
 41
0
  0
VERTEX
  8
0
 10
3.82189
 20
-3.67307
 30
0.0
 40
0
 41
0
  0
VERTEX
  8
0
 10
3.84033
 20
-3.74571
 30
0.0
 40
0
 41
0
  0
VERTEX
  8
0
 10
3.868
 20
-3.79801
 30
0.0
 40
0
 41
0
  0
VERTEX
  8
0
 10
3.88037
 20
-3.81282
 30
0.0
 40
0
 41
0
  0
VERTEX
  8
0
 10
3.898
 20
-3.83399
 30
0.0
 40
0
 41
0
  0
VERTEX
  8
0
 10
4.00467
 20
-3.91954
 30
0.0
 40
0
 41
0
  0
VERTEX
  8
0
 10
4.12625
 20
-3.98742
 30
0.0
 40
0
 41
0
  0
VERTEX
  8
0
 10
4.15132
 20
-3.99978
 30
0.0
 40
0
 41
0
  0
VERTEX
  8
0
 10
4.17632
 20
-4.0121
 30
0.0
 40
0
 41
0
  0
VERTEX
  8
0
 10
4.30251
 20
-4.07292
 30
0.0
 40
0
 41
0
  0
VERTEX
  8
0
 10
4.42503
 20
-4.13732
 30
0.0
 40
0
 41
0
  0
VERTEX
  8
0
 10
4.44824
 20
-4.15142
 30
0.0
 40
0
 41
0
  0
VERTEX
  8
0
 10
4.46496
 20
-4.16157
 30
0.0
 40
0
 41
0
  0
VERTEX
  8
0
 10
4.51243
 20
-4.1965
 30
0.0
 40
0
 41
0
  0
VERTEX
  8
0
 10
4.5721
 20
-4.23964
 30
0.0
 40
0
 41
0
  0
VERTEX
  8
0
 10
4.63667
 20
-4.26947
 30
0.0
 40
0
 41
0
  0
VERTEX
  8
0
 10
4.69618
 20
-4.27724
 30
0.0
 40
0
 41
0
  0
VERTEX
  8
0
 10
4.7155
 20
-4.27496
 30
0.0
 40
0
 41
0
  0
VERTEX
  8
0
 10
4.74517
 20
-4.27138
 30
0.0
 40
0
 41
0
  0
VERTEX
  8
0
 10
4.88574
 20
-4.24007
 30
0.0
 40
0
 41
0
  0
VERTEX
  8
0
 10
5.02447
 20
-4.1964
 30
0.0
 40
0
 41
0
  0
VERTEX
  8
0
 10
5.05328
 20
-4.18674
 30
0.0
 40
0
 41
0
  0
VERTEX
  8
0
 10
5.08111
 20
-4.1779
 30
0.0
 40
0
 41
0
  0
VERTEX
  8
0
 10
5.21935
 20
-4.14171
 30
0.0
 40
0
 41
0
  0
VERTEX
  8
0
 10
5.35389
 20
-4.095
 30
0.0
 40
0
 41
0
  0
VERTEX
  8
0
 10
5.37989
 20
-4.08089
 30
0.0
 40
0
 41
0
  0
VERTEX
  8
0
 10
5.39328
 20
-4.07383
 30
0.0
 40
0
 41
0
  0
VERTEX
  8
0
 10
5.42953
 20
-4.04503
 30
0.0
 40
0
 41
0
  0
VERTEX
  8
0
 10
5.46565
 20
-3.99799
 30
0.0
 40
0
 41
0
  0
VERTEX
  8
0
 10
5.48579
 20
-3.94299
 30
0.0
 40
0
 41
0
  0
VERTEX
  8
0
 10
5.48947
 20
-3.89794
 30
0.0
 40
0
 41
0
  0
VERTEX
  8
0
 10
5.48753
 20
-3.8834
 30
0.0
 40
0
 41
0
  0
VERTEX
  8
0
 10
5.48649
 20
-3.87771
 30
0.0
 40
0
 41
0
  0
VERTEX
  8
0
 10
5.47743
 20
-3.86176
 30
0.0
 40
0
 41
0
  0
VERTEX
  8
0
 10
5.45969
 20
-3.85607
 30
0.0
 40
0
 41
0
  0
VERTEX
  8
0
 10
5.43636
 20
-3.8596
 30
0.0
 40
0
 41
0
  0
VERTEX
  8
0
 10
5.41629
 20
-3.86453
 30
0.0
 40
0
 41
0
  0
VERTEX
  8
0
 10
5.40956
 20
-3.86583
 30
0.0
 40
0
 41
0
  0
VERTEX
  8
0
 10
5.39654
 20
-3.86757
 30
0.0
 40
0
 41
0
  0
VERTEX
  8
0
 10
5.26389
 20
-3.88514
 30
0.0
 40
0
 41
0
  0
VERTEX
  8
0
 10
5.25
 20
-3.88693
 30
0.0
 40
0
 41
0
  0
VERTEX
  8
0
 10
5.22119
 20
-3.89046
 30
0.0
 40
0
 41
0
  0
VERTEX
  8
0
 10
4.98112
 20
-3.91515
 30
0.0
 40
0
 41
0
  0
VERTEX
  8
0
 10
4.9011
 20
-3.91515
 30
0.0
 40
0
 41
0
  0
VERTEX
  8
0
 10
4.81478
 20
-3.91515
 30
0.0
 40
0
 41
0
  0
VERTEX
  8
0
 10
4.62061
 20
-3.90457
 30
0.0
 40
0
 41
0
  0
VERTEX
  8
0
 10
4.55588
 20
-3.90457
 30
0.0
 40
0
 41
0
  0
VERTEX
  8
0
 10
4.55925
 20
-3.91689
 30
0.0
 40
0
 41
0
  0
VERTEX
  8
0
 10
4.58197
 20
-3.95047
 30
0.0
 40
0
 41
0
  0
VERTEX
  8
0
 10
4.62549
 20
-3.98876
 30
0.0
 40
0
 41
0
  0
VERTEX
  8
0
 10
4.67594
 20
-4.02111
 30
0.0
 40
0
 41
0
  0
VERTEX
  8
0
 10
4.71137
 20
-4.04183
 30
0.0
 40
0
 41
0
  0
VERTEX
  8
0
 10
4.72293
 20
-4.04915
 30
0.0
 40
0
 41
0
  0
VERTEX
  8
0
 10
4.73122
 20
-4.05442
 30
0.0
 40
0
 41
0
  0
VERTEX
  8
0
 10
4.77533
 20
-4.08003
 30
0.0
 40
0
 41
0
  0
VERTEX
  8
0
 10
4.82129
 20
-4.10206
 30
0.0
 40
0
 41
0
  0
VERTEX
  8
0
 10
4.83057
 20
-4.10558
 30
0.0
 40
0
 41
0
  0
VERTEX
  8
0
 10
4.83892
 20
-4.1091
 30
0.0
 40
0
 41
0
  0
VERTEX
  8
0
 10
4.88439
 20
-4.11968
 30
0.0
 40
0
 41
0
  0
VERTEX
  8
0
 10
4.92985
 20
-4.13026
 30
0.0
 40
0
 41
0
  0
VERTEX
  8
0
 10
4.93821
 20
-4.13379
 30
0.0
 40
0
 41
0
  0
VERTEX
  8
0
 10
4.94228
 20
-4.13547
 30
0.0
 40
0
 41
0
  0
VERTEX
  8
0
 10
4.95404
 20
-4.14193
 30
0.0
 40
0
 41
0
  0
VERTEX
  8
0
 10
4.95882
 20
-4.14806
 30
0.0
 40
0
 41
0
  0
VERTEX
  8
0
 10
4.95486
 20
-4.1524
 30
0.0
 40
0
 41
0
  0
VERTEX
  8
0
 10
4.94467
 20
-4.15539
 30
0.0
 40
0
 41
0
  0
VERTEX
  8
0
 10
4.93061
 20
-4.15717
 30
0.0
 40
0
 41
0
  0
VERTEX
  8
0
 10
4.91521
 20
-4.15804
 30
0.0
 40
0
 41
0
  0
VERTEX
  8
0
 10
4.90082
 20
-4.15842
 30
0.0
 40
0
 41
0
  0
VERTEX
  8
0
 10
4.89264
 20
-4.15847
 30
0.0
 40
0
 41
0
  0
VERTEX
  8
0
 10
4.88992
 20
-4.15847
 30
0.0
 40
0
 41
0
  0
VERTEX
  8
0
 10
4.87414
 20
-4.15847
 30
0.0
 40
0
 41
0
  0
VERTEX
  8
0
 10
4.82682
 20
-4.15494
 30
0.0
 40
0
 41
0
  0
VERTEX
  8
0
 10
4.77393
 20
-4.14437
 30
0.0
 40
0
 41
0
  0
VERTEX
  8
0
 10
4.76372
 20
-4.14085
 30
0.0
 40
0
 41
0
  0
VERTEX
  8
0
 10
4.74517
 20
-4.13553
 30
0.0
 40
0
 41
0
  0
VERTEX
  8
0
 10
4.64958
 20
-4.10161
 30
0.0
 40
0
 41
0
  0
VERTEX
  8
0
 10
4.55772
 20
-4.05886
 30
0.0
 40
0
 41
0
  0
VERTEX
  8
0
 10
4.54101
 20
-4.04915
 30
0.0
 40
0
 41
0
  0
VERTEX
  8
0
 10
4.51633
 20
-4.03347
 30
0.0
 40
0
 41
0
  0
VERTEX
  8
0
 10
4.44482
 20
-3.98253
 30
0.0
 40
0
 41
0
  0
VERTEX
  8
0
 10
4.35867
 20
-3.90767
 30
0.0
 40
0
 41
0
  0
VERTEX
  8
0
 10
4.28581
 20
-3.8215
 30
0.0
 40
0
 41
0
  0
VERTEX
  8
0
 10
4.24072
 20
-3.7474
 30
0.0
 40
0
 41
0
  0
VERTEX
  8
0
 10
4.22928
 20
-3.72114
 30
0.0
 40
0
 41
0
  0
VERTEX
  8
0
 10
4.21799
 20
-3.69596
 30
0.0
 40
0
 41
0
  0
VERTEX
  8
0
 10
4.2021
 20
-3.61257
 30
0.0
 40
0
 41
0
  0
VERTEX
  8
0
 10
4.20697
 20
-3.50071
 30
0.0
 40
0
 41
0
  0
VERTEX
  8
0
 10
4.23133
 20
-3.38883
 30
0.0
 40
0
 41
0
  0
VERTEX
  8
0
 10
4.25478
 20
-3.3074
 30
0.0
 40
0
 41
0
  0
VERTEX
  8
0
 10
4.26264
 20
-3.28028
 30
0.0
 40
0
 41
0
  0
VERTEX
  8
0
 10
4.26768
 20
-3.28076
 30
0.0
 40
0
 41
0
  0
VERTEX
  8
0
 10
4.28142
 20
-3.2959
 30
0.0
 40
0
 41
0
  0
VERTEX
  8
0
 10
4.29047
 20
-3.32872
 30
0.0
 40
0
 41
0
  0
VERTEX
  8
0
 10
4.29394
 20
-3.36556
 30
0.0
 40
0
 41
0
  0
VERTEX
  8
0
 10
4.29514
 20
-3.38693
 30
0.0
 40
0
 41
0
  0
VERTEX
  8
0
 10
4.29606
 20
-3.39312
 30
0.0
 40
0
 41
0
  0
VERTEX
  8
0
 10
4.29883
 20
-3.40543
 30
0.0
 40
0
 41
0
  0
VERTEX
  8
0
 10
4.32943
 20
-3.53244
 30
0.0
 40
0
 41
0
  0
VERTEX
  8
0
 10
4.33317
 20
-3.54482
 30
0.0
 40
0
 41
0
  0
VERTEX
  8
0
 10
4.3349
 20
-3.55083
 30
0.0
 40
0
 41
0
  0
VERTEX
  8
0
 10
4.34104
 20
-3.56868
 30
0.0
 40
0
 41
0
  0
VERTEX
  8
0
 10
4.35097
 20
-3.59196
 30
0.0
 40
0
 41
0
  0
VERTEX
  8
0
 10
4.36322
 20
-3.61322
 30
0.0
 40
0
 41
0
  0
VERTEX
  8
0
 10
4.37815
 20
-3.63124
 30
0.0
 40
0
 41
0
  0
VERTEX
  8
0
 10
4.39606
 20
-3.64453
 30
0.0
 40
0
 41
0
  0
VERTEX
  8
0
 10
4.41721
 20
-3.65196
 30
0.0
 40
0
 41
0
  0
VERTEX
  8
0
 10
4.44189
 20
-3.65207
 30
0.0
 40
0
 41
0
  0
VERTEX
  8
0
 10
4.46371
 20
-3.64654
 30
0.0
 40
0
 41
0
  0
VERTEX
  8
0
 10
4.47054
 20
-3.64361
 30
0.0
 40
0
 41
0
  0
VERTEX
  8
0
 10
4.48606
 20
-3.63688
 30
0.0
 40
0
 41
0
  0
VERTEX
  8
0
 10
4.52849
 20
-3.60678
 30
0.0
 40
0
 41
0
  0
VERTEX
  8
0
 10
4.58094
 20
-3.55578
 30
0.0
 40
0
 41
0
  0
VERTEX
  8
0
 10
4.62918
 20
-3.50017
 30
0.0
 40
0
 41
0
  0
VERTEX
  8
0
 10
4.66265
 20
-3.46158
 30
0.0
 40
0
 41
0
  0
VERTEX
  8
0
 10
4.67464
 20
-3.44954
 30
0.0
 40
0
 41
0
  0
VERTEX
  8
0
 10
4.69228
 20
-3.43012
 30
0.0
 40
0
 41
0
  0
VERTEX
  8
0
 10
4.87511
 20
-3.23969
 30
0.0
 40
0
 41
0
  0
VERTEX
  8
0
 10
4.89367
 20
-3.22032
 30
0.0
 40
0
 41
0
  0
VERTEX
  8
0
 10
4.90201
 20
-3.21149
 30
0.0
 40
0
 41
0
  0
VERTEX
  8
0
 10
4.98275
 20
-3.12679
 30
0.0
 40
0
 41
0
  0
VERTEX
  8
0
 10
4.99018
 20
-3.118
 30
0.0
 40
0
 41
0
  0
VERTEX
  8
0
 10
4.99593
 20
-3.11193
 30
0.0
 40
0
 41
0
  0
VERTEX
  8
0
 10
5.01335
 20
-3.09375
 30
0.0
 40
0
 41
0
  0
VERTEX
  8
0
 10
5.02539
 20
-3.07476
 30
0.0
 40
0
 41
0
  0
VERTEX
  8
0
 10
5.02354
 20
-3.05453
 30
0.0
 40
0
 41
0
  0
VERTEX
  8
0
 10
5.01025
 20
-3.03282
 30
0.0
 40
0
 41
0
  0
VERTEX
  8
0
 10
5.00499
 20
-3.02632
 30
0.0
 40
0
 41
0
  0
VERTEX
  8
0
 10
4.98921
 20
-3.00776
 30
0.0
 40
0
 41
0
  0
VERTEX
  8
0
 10
4.83143
 20
-2.8226
 30
0.0
 40
0
 41
0
  0
VERTEX
  8
0
 10
4.81569
 20
-2.8041
 30
0.0
 40
0
 41
0
  0
VERTEX
  8
0
 10
4.79992
 20
-2.78554
 30
0.0
 40
0
 41
0
  0
VERTEX
  8
0
 10
4.64214
 20
-2.60308
 30
0.0
 40
0
 41
0
  0
VERTEX
  8
0
 10
4.62642
 20
-2.58544
 30
0.0
 40
0
 41
0
  0
VERTEX
  8
0
 10
4.61806
 20
-2.57574
 30
0.0
 40
0
 41
0
  0
VERTEX
  8
0
 10
4.53082
 20
-2.47254
 30
0.0
 40
0
 41
0
  0
VERTEX
  8
0
 10
4.52246
 20
-2.46197
 30
0.0
 40
0
 41
0
  0
VERTEX
  8
0
 10
4.51779
 20
-2.45665
 30
0.0
 40
0
 41
0
  0
VERTEX
  8
0
 10
4.50261
 20
-2.44162
 30
0.0
 40
0
 41
0
  0
VERTEX
  8
0
 10
4.47792
 20
-2.41564
 30
0.0
 40
0
 41
0
  0
VERTEX
  8
0
 10
4.45876
 20
-2.38906
 30
0.0
 40
0
 41
0
  0
VERTEX
  8
0
 10
4.45372
 20
-2.3711
 30
0.0
 40
0
 41
0
  0
VERTEX
  8
0
 10
4.45568
 20
-2.36675
 30
0.0
 40
0
 41
0
  0
VERTEX
  8
0
 10
4.46203
 20
-2.36828
 30
0.0
 40
0
 41
0
  0
VERTEX
  8
0
 10
4.48019
 20
-2.37657
 30
0.0
 40
0
 41
0
  0
VERTEX
  8
0
 10
4.50717
 20
-2.39231
 30
0.0
 40
0
 41
0
  0
VERTEX
  8
0
 10
4.53342
 20
-2.4094
 30
0.0
 40
0
 41
0
  0
VERTEX
  8
0
 10
4.55007
 20
-2.42003
 30
0.0
 40
0
 41
0
  0
VERTEX
  8
0
 10
4.55588
 20
-2.42318
 30
0.0
 40
0
 41
0
  0
VERTEX
  8
0
 10
4.56793
 20
-2.43024
 30
0.0
 40
0
 41
0
  0
VERTEX
  8
0
 10
4.68576
 20
-2.50076
 30
0.0
 40
0
 41
0
  0
VERTEX
  8
0
 10
4.69694
 20
-2.50782
 30
0.0
 40
0
 41
0
  0
VERTEX
  8
0
 10
4.72287
 20
-2.52365
 30
0.0
 40
0
 41
0
  0
VERTEX
  8
0
 10
4.98275
 20
-2.68858
 30
0.0
 40
0
 41
0
  0
VERTEX
  8
0
 10
5.00874
 20
-2.70535
 30
0.0
 40
0
 41
0
  0
VERTEX
  8
0
 10
5.02171
 20
-2.71326
 30
0.0
 40
0
 41
0
  0
VERTEX
  8
0
 10
5.14507
 20
-2.79258
 30
0.0
 40
0
 41
0
  0
VERTEX
  8
0
 10
5.15717
 20
-2.80057
 30
0.0
 40
0
 41
0
  0
VERTEX
  8
0
 10
5.16407
 20
-2.80512
 30
0.0
 40
0
 41
0
  0
VERTEX
  8
0
 10
5.18381
 20
-2.82042
 30
0.0
 40
0
 41
0
  0
VERTEX
  8
0
 10
5.20915
 20
-2.83763
 30
0.0
 40
0
 41
0
  0
VERTEX
  8
0
 10
5.23443
 20
-2.84418
 30
0.0
 40
0
 41
0
  0
VERTEX
  8
0
 10
5.25581
 20
-2.83681
 30
0.0
 40
0
 41
0
  0
VERTEX
  8
0
 10
5.26112
 20
-2.83231
 30
0.0
 40
0
 41
0
  0
VERTEX
  8
0
 10
5.28429
 20
-2.81287
 30
0.0
 40
0
 41
0
  0
VERTEX
  8
0
 10
5.39144
 20
-2.70269
 30
0.0
 40
0
 41
0
  0
VERTEX
  8
0
 10
5.49306
 20
-2.58892
 30
0.0
 40
0
 41
0
  0
VERTEX
  8
0
 10
5.51351
 20
-2.56776
 30
0.0
 40
0
 41
0
  0
VERTEX
  8
0
 10
5.53483
 20
-2.54568
 30
0.0
 40
0
 41
0
  0
VERTEX
  8
0
 10
5.74451
 20
-2.32536
 30
0.0
 40
0
 41
0
  0
VERTEX
  8
0
 10
5.7659
 20
-2.30333
 30
0.0
 40
0
 41
0
  0
VERTEX
  8
0
 10
5.78444
 20
-2.2839
 30
0.0
 40
0
 41
0
  0
VERTEX
  8
0
 10
5.87771
 20
-2.178
 30
0.0
 40
0
 41
0
  0
VERTEX
  8
0
 10
5.98025
 20
-2.07926
 30
0.0
 40
0
 41
0
  0
VERTEX
  8
0
 10
6.00347
 20
-2.06342
 30
0.0
 40
0
 41
0
  0
VERTEX
  8
0
 10
6.0191
 20
-2.05306
 30
0.0
 40
0
 41
0
  0
VERTEX
  8
0
 10
6.06933
 20
-2.02701
 30
0.0
 40
0
 41
0
  0
VERTEX
  8
0
 10
6.13797
 20
-2.00521
 30
0.0
 40
0
 41
0
  0
VERTEX
  8
0
 10
6.20806
 20
-2.0019
 30
0.0
 40
0
 41
0
  0
VERTEX
  8
0
 10
6.26183
 20
-2.01367
 30
0.0
 40
0
 41
0
  0
VERTEX
  8
0
 10
6.27815
 20
-2.02111
 30
0.0
 40
0
 41
0
  0
VERTEX
  8
0
 10
6.30317
 20
-2.03256
 30
0.0
 40
0
 41
0
  0
VERTEX
  8
0
 10
6.41038
 20
-2.1141
 30
0.0
 40
0
 41
0
  0
VERTEX
  8
0
 10
6.49713
 20
-2.21506
 30
0.0
 40
0
 41
0
  0
VERTEX
  8
0
 10
6.51199
 20
-2.23622
 30
0.0
 40
0
 41
0
  0
VERTEX
  8
0
 10
6.52865
 20
-2.2609
 30
0.0
 40
0
 41
0
  0
VERTEX
  8
0
 10
6.59825
 20
-2.39094
 30
0.0
 40
0
 41
0
  0
VERTEX
  8
0
 10
6.65668
 20
-2.52632
 30
0.0
 40
0
 41
0
  0
VERTEX
  8
0
 10
6.66786
 20
-2.55365
 30
0.0
 40
0
 41
0
  0
VERTEX
  8
0
 10
6.67806
 20
-2.581
 30
0.0
 40
0
 41
0
  0
VERTEX
  8
0
 10
6.72819
 20
-2.72521
 30
0.0
 40
0
 41
0
  0
VERTEX
  8
0
 10
6.76714
 20
-2.87115
 30
0.0
 40
0
 41
0
  0
VERTEX
  8
0
 10
6.77181
 20
-2.89936
 30
0.0
 40
0
 41
0
  0
VERTEX
  8
0
 10
6.76654
 20
-2.89996
 30
0.0
 40
0
 41
0
  0
VERTEX
  8
0
 10
6.74918
 20
-2.8884
 30
0.0
 40
0
 41
0
  0
VERTEX
  8
0
 10
6.72771
 20
-2.85965
 30
0.0
 40
0
 41
0
  0
VERTEX
  8
0
 10
6.70964
 20
-2.82693
 30
0.0
 40
0
 41
0
  0
VERTEX
  8
0
 10
6.70031
 20
-2.80849
 30
0.0
 40
0
 41
0
  0
VERTEX
  8
0
 10
6.69754
 20
-2.8041
 30
0.0
 40
0
 41
0
  0
VERTEX
  8
0
 10
6.69011
 20
-2.79258
 30
0.0
 40
0
 41
0
  0
VERTEX
  8
0
 10
6.61865
 20
-2.678
 30
0.0
 40
0
 41
0
  0
VERTEX
  8
0
 10
6.61219
 20
-2.66656
 30
0.0
 40
0
 41
0
  0
VERTEX
  8
0
 10
6.60254
 20
-2.65082
 30
0.0
 40
0
 41
0
  0
VERTEX
  8
0
 10
6.57032
 20
-2.60574
 30
0.0
 40
0
 41
0
  0
VERTEX
  8
0
 10
6.52219
 20
-2.55057
 30
0.0
 40
0
 41
0
  0
VERTEX
  8
0
 10
6.46707
 20
-2.50136
 30
0.0
 40
0
 41
0
  0
VERTEX
  8
0
 10
6.42063
 20
-2.4681
 30
0.0
 40
0
 41
0
  0
VERTEX
  8
0
 10
6.40435
 20
-2.45844
 30
0.0
 40
0
 41
0
  0
VERTEX
  8
0
 10
6.39979
 20
-2.456
 30
0.0
 40
0
 41
0
  0
VERTEX
  8
0
 10
6.38579
 20
-2.44937
 30
0.0
 40
0
 41
0
  0
VERTEX
  8
0
 10
6.35758
 20
-2.43701
 30
0.0
 40
0
 41
0
  0
VERTEX
  8
0
 10
6.32329
 20
-2.42372
 30
0.0
 40
0
 41
0
  0
VERTEX
  8
0
 10
6.28646
 20
-2.41168
 30
0.0
 40
0
 41
0
  0
VERTEX
  8
0
 10
6.25065
 20
-2.40332
 30
0.0
 40
0
 41
0
  0
VERTEX
  8
0
 10
6.21951
 20
-2.40088
 30
0.0
 40
0
 41
0
  0
VERTEX
  8
0
 10
6.19656
 20
-2.40674
 30
0.0
 40
0
 41
0
  0
VERTEX
  8
0
 10
6.18614
 20
-2.41868
 30
0.0
 40
0
 41
0
  0
VERTEX
  8
0
 10
6.18533
 20
-2.42318
 30
0.0
 40
0
 41
0
  0
VERTEX
  8
0
 10
6.18446
 20
-2.43033
 30
0.0
 40
0
 41
0
  0
VERTEX
  8
0
 10
6.19086
 20
-2.45296
 30
0.0
 40
0
 41
0
  0
VERTEX
  8
0
 10
6.20757
 20
-2.48975
 30
0.0
 40
0
 41
0
  0
VERTEX
  8
0
 10
6.22706
 20
-2.52582
 30
0.0
 40
0
 41
0
  0
VERTEX
  8
0
 10
6.23817
 20
-2.5466
 30
0.0
 40
0
 41
0
  0
VERTEX
  8
0
 10
6.241
 20
-2.55365
 30
0.0
 40
0
 41
0
  0
VERTEX
  8
0
 10
6.24653
 20
-2.56689
 30
0.0
 40
0
 41
0
  0
VERTEX
  8
0
 10
6.29943
 20
-2.69569
 30
0.0
 40
0
 41
0
  0
VERTEX
  8
0
 10
6.3041
 20
-2.70893
 30
0.0
 40
0
 41
0
  0
VERTEX
  8
0
 10
6.31244
 20
-2.73269
 30
0.0
 40
0
 41
0
  0
VERTEX
  8
0
 10
6.34304
 20
-2.85346
 30
0.0
 40
0
 41
0
  0
VERTEX
  8
0
 10
6.36626
 20
-2.97428
 30
0.0
 40
0
 41
0
  0
VERTEX
  8
0
 10
6.37093
 20
-2.9981
 30
0.0
 40
0
 41
0
  0
VERTEX
  8
0
 10
6.37554
 20
-3.02013
 30
0.0
 40
0
 41
0
  0
VERTEX
  8
0
 10
6.38715
 20
-3.13433
 30
0.0
 40
0
 41
0
  0
VERTEX
  8
0
 10
6.38206
 20
-3.25028
 30
0.0
 40
0
 41
0
  0
VERTEX
  8
0
 10
6.37836
 20
-3.27322
 30
0.0
 40
0
 41
0
  0
VERTEX
  8
0
 10
6.37462
 20
-3.29525
 30
0.0
 40
0
 41
0
  0
VERTEX
  8
0
 10
6.33518
 20
-3.40636
 30
0.0
 40
0
 41
0
  0
VERTEX
  8
0
 10
6.2716
 20
-3.50683
 30
0.0
 40
0
 41
0
  0
VERTEX
  8
0
 10
6.25586
 20
-3.5236
 30
0.0
 40
0
 41
0
  0
VERTEX
  8
0
 10
6.25211
 20
-3.528
 30
0.0
 40
0
 41
0
  0
VERTEX
  8
0
 10
6.23676
 20
-3.54021
 30
0.0
 40
0
 41
0
  0
VERTEX
  8
0
 10
6.20899
 20
-3.56108
 30
0.0
 40
0
 41
0
  0
VERTEX
  8
0
 10
6.18326
 20
-3.58263
 30
0.0
 40
0
 41
0
  0
VERTEX
  8
0
 10
6.17133
 20
-3.59614
 30
0.0
 40
0
 41
0
  0
VERTEX
  8
0
 10
6.17046
 20
-3.60124
 30
0.0
 40
0
 41
0
  0
VERTEX
  8
0
 10
6.16965
 20
-3.60715
 30
0.0
 40
0
 41
0
  0
VERTEX
  8
0
 10
6.17731
 20
-3.62619
 30
0.0
 40
0
 41
0
  0
VERTEX
  8
0
 10
6.19738
 20
-3.65543
 30
0.0
 40
0
 41
0
  0
VERTEX
  8
0
 10
6.22163
 20
-3.68403
 30
0.0
 40
0
 41
0
  0
VERTEX
  8
0
 10
6.23649
 20
-3.70101
 30
0.0
 40
0
 41
0
  0
VERTEX
  8
0
 10
6.241
 20
-3.70703
 30
0.0
 40
0
 41
0
  0
VERTEX
  8
0
 10
6.25771
 20
-3.73172
 30
0.0
 40
0
 41
0
  0
VERTEX
  8
0
 10
6.43403
 20
-3.97949
 30
0.0
 40
0
 41
0
  0
VERTEX
  8
0
 10
6.45258
 20
-4.00331
 30
0.0
 40
0
 41
0
  0
VERTEX
  8
0
 10
6.46186
 20
-4.01563
 30
0.0
 40
0
 41
0
  0
VERTEX
  8
0
 10
6.55464
 20
-4.13286
 30
0.0
 40
0
 41
0
  0
VERTEX
  8
0
 10
6.56392
 20
-4.14437
 30
0.0
 40
0
 41
0
  0
VERTEX
  8
0
 10
6.56972
 20
-4.15147
 30
0.0
 40
0
 41
0
  0
VERTEX
  8
0
 10
6.58886
 20
-4.1716
 30
0.0
 40
0
 41
0
  0
VERTEX
  8
0
 10
6.61908
 20
-4.20344
 30
0.0
 40
0
 41
0
  0
VERTEX
  8
0
 10
6.64583
 20
-4.23665
 30
0.0
 40
0
 41
0
  0
VERTEX
  8
0
 10
6.65886
 20
-4.25965
 30
0.0
 40
0
 41
0
  0
VERTEX
  8
0
 10
6.66043
 20
-4.26785
 30
0.0
 40
0
 41
0
  0
VERTEX
  8
0
 10
6.61307
 20
-4.24138
 30
0.0
 40
0
 41
0
  0
VERTEX
  8
0
 10
6.38574
 20
-4.0906
 30
0.0
 40
0
 41
0
  0
VERTEX
  8
0
 10
6.16585
 20
-3.92925
 30
0.0
 40
0
 41
0
  0
VERTEX
  8
0
 10
6.12224
 20
-3.89751
 30
0.0
 40
0
 41
0
  0
VERTEX
  8
0
 10
6.11106
 20
-3.8896
 30
0.0
 40
0
 41
0
  0
VERTEX
  8
0
 10
5.99604
 20
-3.80664
 30
0.0
 40
0
 41
0
  0
VERTEX
  8
0
 10
5.98492
 20
-3.79872
 30
0.0
 40
0
 41
0
  0
VERTEX
  8
0
 10
5.97781
 20
-3.794
 30
0.0
 40
0
 41
0
  0
VERTEX
  8
0
 10
5.95747
 20
-3.77843
 30
0.0
 40
0
 41
0
  0
VERTEX
  8
0
 10
5.92969
 20
-3.75814
 30
0.0
 40
0
 41
0
  0
VERTEX
  8
0
 10
5.89979
 20
-3.74317
 30
0.0
 40
0
 41
0
  0
VERTEX
  8
0
 10
5.87435
 20
-3.73817
 30
0.0
 40
0
 41
0
  0
VERTEX
  8
0
 10
5.8661
 20
-3.73876
 30
0.0
 40
0
 41
0
  0
VERTEX
  8
0
 10
5.85308
 20
-3.7405
 30
0.0
 40
0
 41
0
  0
VERTEX
  8
0
 10
5.78444
 20
-3.759
 30
0.0
 40
0
 41
0
  0
VERTEX
  8
0
 10
5.71576
 20
-3.78108
 30
0.0
 40
0
 41
0
  0
VERTEX
  8
0
 10
5.70281
 20
-3.78461
 30
0.0
 40
0
 41
0
  0
VERTEX
  8
0
 10
5.68978
 20
-3.78814
 30
0.0
 40
0
 41
0
  0
VERTEX
  8
0
 10
5.55615
 20
-3.82607
 30
0.0
 40
0
 41
0
  0
VERTEX
  8
0
 10
5.54318
 20
-3.83051
 30
0.0
 40
0
 41
0
  0
VERTEX
  8
0
 10
5.55431
 20
-3.84196
 30
0.0
 40
0
 41
0
  0
VERTEX
  8
0
 10
5.61372
 20
-3.89572
 30
0.0
 40
0
 41
0
  0
VERTEX
  8
0
 10
5.67307
 20
-3.94949
 30
0.0
 40
0
 41
0
  0
VERTEX
  8
0
 10
5.68425
 20
-3.96099
 30
0.0
 40
0
 41
0
  0
VERTEX
  8
0
 10
5.69536
 20
-3.97331
 30
0.0
 40
0
 41
0
  0
VERTEX
  8
0
 10
5.75011
 20
-4.03765
 30
0.0
 40
0
 41
0
  0
VERTEX
  8
0
 10
5.8086
 20
-4.09853
 30
0.0
 40
0
 41
0
  0
VERTEX
  8
0
 10
5.82161
 20
-4.1091
 30
0.0
 40
0
 41
0
  0
VERTEX
  8
0
 10
5.84033
 20
-4.12554
 30
0.0
 40
0
 41
0
  0
VERTEX
  8
0
 10
5.89789
 20
-4.17356
 30
0.0
 40
0
 41
0
  0
VERTEX
  8
0
 10
5.98118
 20
-4.23606
 30
0.0
 40
0
 41
0
  0
VERTEX
  8
0
 10
6.07004
 20
-4.29064
 30
0.0
 40
0
 41
0
  0
VERTEX
  8
0
 10
6.13911
 20
-4.32329
 30
0.0
 40
0
 41
0
  0
VERTEX
  8
0
 10
6.16308
 20
-4.33132
 30
0.0
 40
0
 41
0
  0
VERTEX
  8
0
 10
6.19738
 20
-4.34278
 30
0.0
 40
0
 41
0
  0
VERTEX
  8
0
 10
6.37511
 20
-4.37935
 30
0.0
 40
0
 41
0
  0
VERTEX
  8
0
 10
6.55464
 20
-4.38243
 30
0.0
 40
0
 41
0
  0
VERTEX
  8
0
 10
6.5899
 20
-4.37717
 30
0.0
 40
0
 41
0
  0
VERTEX
  8
0
 10
6.61122
 20
-4.37424
 30
0.0
 40
0
 41
0
  0
VERTEX
  8
0
 10
6.67529
 20
-4.36535
 30
0.0
 40
0
 41
0
  0
VERTEX
  8
0
 10
6.76665
 20
-4.34631
 30
0.0
 40
0
 41
0
  0
VERTEX
  8
0
 10
6.85032
 20
-4.31272
 30
0.0
 40
0
 41
0
  0
VERTEX
  8
0
 10
6.90132
 20
-4.27393
 30
0.0
 40
0
 41
0
  0
VERTEX
  8
0
 10
6.91282
 20
-4.25726
 30
0.0
 40
0
 41
0
  0
VERTEX
  8
0
 10
6.92025
 20
-4.24567
 30
0.0
 40
0
 41
0
  0
VERTEX
  8
0
 10
6.93468
 20
-4.20574
 30
0.0
 40
0
 41
0
  0
VERTEX
  8
0
 10
6.94015
 20
-4.14919
 30
0.0
 40
0
 41
0
  0
VERTEX
  8
0
 10
6.9311
 20
-4.09207
 30
0.0
 40
0
 41
0
  0
VERTEX
  8
0
 10
6.91607
 20
-4.05111
 30
0.0
 40
0
 41
0
  0
VERTEX
  8
0
 10
6.90913
 20
-4.03857
 30
0.0
 40
0
 41
0
  0
VERTEX
  8
0
 10
6.89774
 20
-4.01947
 30
0.0
 40
0
 41
0
  0
VERTEX
  8
0
 10
6.85118
 20
-3.96951
 30
0.0
 40
0
 41
0
  0
VERTEX
  8
0
 10
6.77686
 20
-3.91732
 30
0.0
 40
0
 41
0
  0
VERTEX
  8
0
 10
6.69353
 20
-3.87636
 30
0.0
 40
0
 41
0
  0
VERTEX
  8
0
 10
6.62972
 20
-3.84978
 30
0.0
 40
0
 41
0
  0
VERTEX
  8
0
 10
6.60846
 20
-3.84104
 30
0.0
 40
0
 41
0
  0
VERTEX
  8
0
 10
6.59267
 20
-3.83485
 30
0.0
 40
0
 41
0
  0
VERTEX
  8
0
 10
6.51144
 20
-3.80974
 30
0.0
 40
0
 41
0
  0
VERTEX
  8
0
 10
6.42844
 20
-3.78635
 30
0.0
 40
0
 41
0
  0
VERTEX
  8
0
 10
6.41174
 20
-3.78108
 30
0.0
 40
0
 41
0
  0
VERTEX
  8
0
 10
6.4005
 20
-3.7781
 30
0.0
 40
0
 41
0
  0
VERTEX
  8
0
 10
6.36817
 20
-3.76394
 30
0.0
 40
0
 41
0
  0
VERTEX
  8
0
 10
6.34169
 20
-3.73921
 30
0.0
 40
0
 41
0
  0
VERTEX
  8
0
 10
6.33811
 20
-3.70719
 30
0.0
 40
0
 41
0
  0
VERTEX
  8
0
 10
6.35547
 20
-3.67632
 30
0.0
 40
0
 41
0
  0
VERTEX
  8
0
 10
6.3635
 20
-3.66824
 30
0.0
 40
0
 41
0
  0
VERTEX
  8
0
 10
6.38172
 20
-3.64958
 30
0.0
 40
0
 41
0
  0
VERTEX
  8
0
 10
6.44363
 20
-3.60053
 30
0.0
 40
0
 41
0
  0
VERTEX
  8
0
 10
6.53424
 20
-3.5421
 30
0.0
 40
0
 41
0
  0
VERTEX
  8
0
 10
6.62761
 20
-3.48762
 30
0.0
 40
0
 41
0
  0
VERTEX
  8
0
 10
6.69467
 20
-3.44683
 30
0.0
 40
0
 41
0
  0
VERTEX
  8
0
 10
6.7161
 20
-3.43192
 30
0.0
 40
0
 41
0
  0
VERTEX
  8
0
 10
6.76124
 20
-3.40018
 30
0.0
 40
0
 41
0
  0
VERTEX
  8
0
 10
6.89501
 20
-3.30246
 30
0.0
 40
0
 41
0
  0
VERTEX
  8
0
 10
7.06885
 20
-3.16749
 30
0.0
 40
0
 41
0
  0
VERTEX
  8
0
 10
7.236
 20
-3.02604
 30
0.0
 40
0
 41
0
  0
VERTEX
  8
0
 10
7.39486
 20
-2.87728
 30
0.0
 40
0
 41
0
  0
VERTEX
  8
0
 10
7.54378
 20
-2.72021
 30
0.0
 40
0
 41
0
  0
VERTEX
  8
0
 10
7.68121
 20
-2.55399
 30
0.0
 40
0
 41
0
  0
VERTEX
  8
0
 10
7.80544
 20
-2.37771
 30
0.0
 40
0
 41
0
  0
VERTEX
  8
0
 10
7.88976
 20
-2.23833
 30
0.0
 40
0
 41
0
  0
VERTEX
  8
0
 10
7.91499
 20
-2.19043
 30
0.0
 40
0
 41
0
  0
VERTEX
  8
0
 10
7.93169
 20
-2.15776
 30
0.0
 40
0
 41
0
  0
VERTEX
  8
0
 10
8.00917
 20
-1.9955
 30
0.0
 40
0
 41
0
  0
VERTEX
  8
0
 10
8.07736
 20
-1.82975
 30
0.0
 40
0
 41
0
  0
VERTEX
  8
0
 10
8.08946
 20
-1.79536
 30
0.0
 40
0
 41
0
  0
VERTEX
  8
0
 10
8.10151
 20
-1.76096
 30
0.0
 40
0
 41
0
  0
VERTEX
  8
0
 10
8.14139
 20
-1.59033
 30
0.0
 40
0
 41
0
  0
VERTEX
  8
0
 10
8.16644
 20
-1.41797
 30
0.0
 40
0
 41
0
  0
VERTEX
  8
0
 10
8.17111
 20
-1.3827
 30
0.0
 40
0
 41
0
  0
VERTEX
  8
0
 10
8.17481
 20
-1.34918
 30
0.0
 40
0
 41
0
  0
VERTEX
  8
0
 10
8.20079
 20
-1.07004
 30
0.0
 40
0
 41
0
  0
VERTEX
  8
0
 10
8.20079
 20
-0.977051
 30
0.0
 40
0
 41
0
  0
VERTEX
  8
0
 10
8.20079
 20
-0.920139
 30
0.0
 40
0
 41
0
  0
VERTEX
  8
0
 10
8.18778
 20
-0.749567
 30
0.0
 40
0
 41
0
  0
VERTEX
  8
0
 10
8.16738
 20
-0.560004
 30
0.0
 40
0
 41
0
  0
VERTEX
  8
0
 10
8.16368
 20
-0.522081
 30
0.0
 40
0
 41
0
  0
VERTEX
  8
0
 10
8.16178
 20
-0.502658
 30
0.0
 40
0
 41
0
  0
VERTEX
  8
0
 10
8.14139
 20
-0.305122
 30
0.0
 40
0
 41
0
  0
VERTEX
  8
0
 10
8.13769
 20
-0.285753
 30
0.0
 40
0
 41
0
  0
VERTEX
  8
0
 10
8.13303
 20
-0.265463
 30
0.0
 40
0
 41
0
  0
VERTEX
  8
0
 10
8.08296
 20
-0.0600586
 30
0.0
 40
0
 41
0
  0
VERTEX
  8
0
 10
8.07835
 20
-0.0388997
 30
0.0
 40
0
 41
0
  0
VERTEX
  8
0
 10
8.07368
 20
-0.0194769
 30
0.0
 40
0
 41
0
  0
VERTEX
  8
0
 10
8.05512
 20
0.0775282
 30
0.0
 40
0
 41
0
  0
VERTEX
  8
0
 10
8.03282
 20
0.174533
 30
0.0
 40
0
 41
0
  0
VERTEX
  8
0
 10
8.02636
 20
0.193901
 30
0.0
 40
0
 41
0
  0
VERTEX
  8
0
 10
8.01986
 20
0.212403
 30
0.0
 40
0
 41
0
  0
VERTEX
  8
0
 10
7.9846
 20
0.303222
 30
0.0
 40
0
 41
0
  0
VERTEX
  8
0
 10
7.95301
 20
0.394043
 30
0.0
 40
0
 41
0
  0
VERTEX
  8
0
 10
7.9484
 20
0.412543
 30
0.0
 40
0
 41
0
  0
VERTEX
  8
0
 10
7.93913
 20
0.450467
 30
0.0
 40
0
 41
0
  0
VERTEX
  8
0
 10
7.87278
 20
0.632161
 30
0.0
 40
0
 41
0
  0
VERTEX
  8
0
 10
7.7934
 20
0.810275
 30
0.0
 40
0
 41
0
  0
VERTEX
  8
0
 10
7.77767
 20
0.846408
 30
0.0
 40
0
 41
0
  0
VERTEX
  8
0
 10
7.77024
 20
0.86404
 30
0.0
 40
0
 41
0
  0
VERTEX
  8
0
 10
7.72939
 20
0.950467
 30
0.0
 40
0
 41
0
  0
VERTEX
  8
0
 10
7.68858
 20
1.03689
 30
0.0
 40
0
 41
0
  0
VERTEX
  8
0
 10
7.68115
 20
1.05452
 30
0.0
 40
0
 41
0
  0
VERTEX
  8
0
 10
7.67513
 20
1.06885
 30
0.0
 40
0
 41
0
  0
VERTEX
  8
0
 10
7.65468
 20
1.11079
 30
0.0
 40
0
 41
0
  0
VERTEX
  8
0
 10
7.62543
 20
1.17139
 30
0.0
 40
0
 41
0
  0
VERTEX
  8
0
 10
7.60178
 20
1.23258
 30
0.0
 40
0
 41
0
  0
VERTEX
  8
0
 10
7.59207
 20
1.27631
 30
0.0
 40
0
 41
0
  0
VERTEX
  8
0
 10
7.59207
 20
1.29085
 30
0.0
 40
0
 41
0
  0
VERTEX
  8
0
 10
7.62121
 20
1.26828
 30
0.0
 40
0
 41
0
  0
VERTEX
  8
0
 10
7.69749
 20
1.18598
 30
0.0
 40
0
 41
0
  0
VERTEX
  8
0
 10
7.78136
 20
1.06288
 30
0.0
 40
0
 41
0
  0
VERTEX
  8
0
 10
7.85406
 20
0.931261
 30
0.0
 40
0
 41
0
  0
VERTEX
  8
0
 10
7.90712
 20
0.832682
 30
0.0
 40
0
 41
0
  0
VERTEX
  8
0
 10
7.92617
 20
0.800564
 30
0.0
 40
0
 41
0
  0
VERTEX
  8
0
 10
7.93913
 20
0.777669
 30
0.0
 40
0
 41
0
  0
VERTEX
  8
0
 10
8.05231
 20
0.54221
 30
0.0
 40
0
 41
0
  0
VERTEX
  8
0
 10
8.06347
 20
0.518392
 30
0.0
 40
0
 41
0
  0
VERTEX
  8
0
 10
8.0746
 20
0.495497
 30
0.0
 40
0
 41
0
  0
VERTEX
  8
0
 10
8.17389
 20
0.256511
 30
0.0
 40
0
 41
0
  0
VERTEX
  8
0
 10
8.18224
 20
0.232693
 30
0.0
 40
0
 41
0
  0
VERTEX
  8
0
 10
8.1906
 20
0.206272
 30
0.0
 40
0
 41
0
  0
VERTEX
  8
0
 10
8.28244
 20
-0.0547418
 30
0.0
 40
0
 41
0
  0
VERTEX
  8
0
 10
8.28987
 20
-0.0812175
 30
0.0
 40
0
 41
0
  0
VERTEX
  8
0
 10
8.29357
 20
-0.0935331
 30
0.0
 40
0
 41
0
  0
VERTEX
  8
0
 10
8.30561
 20
-0.155274
 30
0.0
 40
0
 41
0
  0
VERTEX
  8
0
 10
8.31396
 20
-0.21696
 30
0.0
 40
0
 41
0
  0
VERTEX
  8
0
 10
8.31586
 20
-0.229329
 30
0.0
 40
0
 41
0
  0
VERTEX
  8
0
 10
8.31771
 20
-0.243435
 30
0.0
 40
0
 41
0
  0
VERTEX
  8
0
 10
8.33535
 20
-0.312175
 30
0.0
 40
0
 41
0
  0
VERTEX
  8
0
 10
8.35667
 20
-0.380968
 30
0.0
 40
0
 41
0
  0
VERTEX
  8
0
 10
8.3604
 20
-0.395128
 30
0.0
 40
0
 41
0
  0
VERTEX
  8
0
 10
8.37614
 20
-0.448893
 30
0.0
 40
0
 41
0
  0
VERTEX
  8
0
 10
8.41749
 20
-0.718696
 30
0.0
 40
0
 41
0
  0
VERTEX
  8
0
 10
8.42725
 20
-0.965386
 30
0.0
 40
0
 41
0
  0
VERTEX
  8
0
 10
8.42725
 20
-1.04763
 30
0.0
 40
0
 41
0
  0
VERTEX
  8
0
 10
8.42725
 20
-1.13026
 30
0.0
 40
0
 41
0
  0
VERTEX
  8
0
 10
8.42074
 20
-1.37826
 30
0.0
 40
0
 41
0
  0
VERTEX
  8
0
 10
8.38824
 20
-1.6499
 30
0.0
 40
0
 41
0
  0
VERTEX
  8
0
 10
8.37528
 20
-1.70372
 30
0.0
 40
0
 41
0
  0
VERTEX
  8
0
 10
8.36317
 20
-1.75304
 30
0.0
 40
0
 41
0
  0
VERTEX
  8
0
 10
8.29406
 20
-1.99903
 30
0.0
 40
0
 41
0
  0
VERTEX
  8
0
 10
8.21192
 20
-2.24154
 30
0.0
 40
0
 41
0
  0
VERTEX
  8
0
 10
8.19336
 20
-2.28917
 30
0.0
 40
0
 41
0
  0
VERTEX
  8
0
 10
8.16607
 20
-2.36154
 30
0.0
 40
0
 41
0
  0
VERTEX
  8
0
 10
8.06739
 20
-2.57232
 30
0.0
 40
0
 41
0
  0
VERTEX
  8
0
 10
7.9094
 20
-2.84289
 30
0.0
 40
0
 41
0
  0
VERTEX
  8
0
 10
7.72358
 20
-3.0976
 30
0.0
 40
0
 41
0
  0
VERTEX
  8
0
 10
7.56917
 20
-3.27692
 30
0.0
 40
0
 41
0
  0
VERTEX
  8
0
 10
7.51417
 20
-3.33317
 30
0.0
 40
0
 41
0
  0
VERTEX
  8
0
 10
7.49556
 20
-3.35254
 30
0.0
 40
0
 41
0
  0
VERTEX
  8
0
 10
7.2979
 20
-3.53157
 30
0.0
 40
0
 41
0
  0
VERTEX
  8
0
 10
7.27658
 20
-3.54833
 30
0.0
 40
0
 41
0
  0
VERTEX
  8
0
 10
7.26269
 20
-3.5594
 30
0.0
 40
0
 41
0
  0
VERTEX
  8
0
 10
7.21875
 20
-3.58985
 30
0.0
 40
0
 41
0
  0
VERTEX
  8
0
 10
7.15642
 20
-3.63167
 30
0.0
 40
0
 41
0
  0
VERTEX
  8
0
 10
7.09754
 20
-3.67676
 30
0.0
 40
0
 41
0
  0
VERTEX
  8
0
 10
7.06011
 20
-3.71397
 30
0.0
 40
0
 41
0
  0
VERTEX
  8
0
 10
7.05018
 20
-3.72819
 30
0.0
 40
0
 41
0
  0
VERTEX
  8
0
 10
7.0409
 20
-3.74137
 30
0.0
 40
0
 41
0
  0
VERTEX
  8
0
 10
7.02604
 20
-3.79025
 30
0.0
 40
0
 41
0
  0
VERTEX
  8
0
 10
7.03532
 20
-3.84939
 30
0.0
 40
0
 41
0
  0
VERTEX
  8
0
 10
7.06685
 20
-3.90528
 30
0.0
 40
0
 41
0
  0
VERTEX
  8
0
 10
7.09836
 20
-3.94482
 30
0.0
 40
0
 41
0
  0
VERTEX
  8
0
 10
7.10954
 20
-3.95747
 30
0.0
 40
0
 41
0
  0
VERTEX
  8
0
 10
7.11968
 20
-3.96843
 30
0.0
 40
0
 41
0
  0
VERTEX
  8
0
 10
7.14638
 20
-4.00493
 30
0.0
 40
0
 41
0
  0
VERTEX
  8
0
 10
7.17313
 20
-4.05707
 30
0.0
 40
0
 41
0
  0
VERTEX
  8
0
 10
7.1894
 20
-4.11322
 30
0.0
 40
0
 41
0
  0
VERTEX
  8
0
 10
7.19493
 20
-4.15776
 30
0.0
 40
0
 41
0
  0
VERTEX
  8
0
 10
7.19493
 20
-4.17264
 30
0.0
 40
0
 41
0
  0
VERTEX
  8
0
 10
7.19428
 20
-4.20458
 30
0.0
 40
0
 41
0
  0
VERTEX
  8
0
 10
7.16183
 20
-4.30003
 30
0.0
 40
0
 41
0
  0
VERTEX
  8
0
 10
7.08078
 20
-4.4036
 30
0.0
 40
0
 41
0
  0
VERTEX
  8
0
 10
6.97043
 20
-4.48606
 30
0.0
 40
0
 41
0
  0
VERTEX
  8
0
 10
6.88064
 20
-4.53564
 30
0.0
 40
0
 41
0
  0
VERTEX
  8
0
 10
6.84972
 20
-4.55003
 30
0.0
 40
0
 41
0
  0
VERTEX
  8
0
 10
6.82465
 20
-4.56147
 30
0.0
 40
0
 41
0
  0
VERTEX
  8
0
 10
6.68544
 20
-4.59451
 30
0.0
 40
0
 41
0
  0
VERTEX
  8
0
 10
6.54258
 20
-4.60824
 30
0.0
 40
0
 41
0
  0
VERTEX
  8
0
 10
6.51568
 20
-4.61003
 30
0.0
 40
0
 41
0
  0
VERTEX
  8
0
 10
6.48785
 20
-4.61176
 30
0.0
 40
0
 41
0
  0
VERTEX
  8
0
 10
6.34538
 20
-4.60553
 30
0.0
 40
0
 41
0
  0
VERTEX
  8
0
 10
6.20481
 20
-4.58176
 30
0.0
 40
0
 41
0
  0
VERTEX
  8
0
 10
6.1779
 20
-4.57471
 30
0.0
 40
0
 41
0
  0
VERTEX
  8
0
 10
6.15099
 20
-4.56765
 30
0.0
 40
0
 41
0
  0
VERTEX
  8
0
 10
6.02756
 20
-4.50808
 30
0.0
 40
0
 41
0
  0
VERTEX
  8
0
 10
5.91157
 20
-4.43625
 30
0.0
 40
0
 41
0
  0
VERTEX
  8
0
 10
5.8884
 20
-4.42307
 30
0.0
 40
0
 41
0
  0
VERTEX
  8
0
 10
5.86518
 20
-4.40983
 30
0.0
 40
0
 41
0
  0
VERTEX
  8
0
 10
5.74451
 20
-4.38379
 30
0.0
 40
0
 41
0
  0
VERTEX
  8
0
 10
5.62017
 20
-4.39833
 30
0.0
 40
0
 41
0
  0
VERTEX
  8
0
 10
5.59517
 20
-4.40539
 30
0.0
 40
0
 41
0
  0
VERTEX
  8
0
 10
5.54135
 20
-4.42036
 30
0.0
 40
0
 41
0
  0
VERTEX
  8
0
 10
5.2736
 20
-4.49311
 30
0.0
 40
0
 41
0
  0
VERTEX
  8
0
 10
5.00407
 20
-4.55707
 30
0.0
 40
0
 41
0
  0
VERTEX
  8
0
 10
4.94933
 20
-4.56765
 30
0.0
 40
0
 41
0
  0
VERTEX
  8
0
 10
4.91135
 20
-4.57503
 30
0.0
 40
0
 41
0
  0
VERTEX
  8
0
 10
4.7979
 20
-4.59978
 30
0.0
 40
0
 41
0
  0
VERTEX
  8
0
 10
4.64361
 20
-4.63878
 30
0.0
 40
0
 41
0
  0
VERTEX
  8
0
 10
4.48936
 20
-4.68599
 30
0.0
 40
0
 41
0
  0
VERTEX
  8
0
 10
4.33826
 20
-4.74268
 30
0.0
 40
0
 41
0
  0
VERTEX
  8
0
 10
4.19319
 20
-4.81006
 30
0.0
 40
0
 41
0
  0
VERTEX
  8
0
 10
4.05724
 20
-4.88949
 30
0.0
 40
0
 41
0
  0
VERTEX
  8
0
 10
3.93338
 20
-4.98226
 30
0.0
 40
0
 41
0
  0
VERTEX
  8
0
 10
3.84967
 20
-5.06087
 30
0.0
 40
0
 41
0
  0
VERTEX
  8
0
 10
3.82465
 20
-5.08963
 30
0.0
 40
0
 41
0
  0
VERTEX
  8
0
 10
3.7991
 20
-5.11903
 30
0.0
 40
0
 41
0
  0
VERTEX
  8
0
 10
3.72906
 20
-5.21306
 30
0.0
 40
0
 41
0
  0
VERTEX
  8
0
 10
3.653
 20
-5.34179
 30
0.0
 40
0
 41
0
  0
VERTEX
  8
0
 10
3.595
 20
-5.47846
 30
0.0
 40
0
 41
0
  0
VERTEX
  8
0
 10
3.56179
 20
-5.58843
 30
0.0
 40
0
 41
0
  0
VERTEX
  8
0
 10
3.55371
 20
-5.62576
 30
0.0
 40
0
 41
0
  0
VERTEX
  8
0
 10
3.54812
 20
-5.65218
 30
0.0
 40
0
 41
0
  0
VERTEX
  8
0
 10
3.49983
 20
-5.91672
 30
0.0
 40
0
 41
0
  0
VERTEX
  8
0
 10
3.49431
 20
-5.94319
 30
0.0
 40
0
 41
0
  0
VERTEX
  8
0
 10
3.48872
 20
-5.96875
 30
0.0
 40
0
 41
0
  0
VERTEX
  8
0
 10
3.41635
 20
-6.21479
 30
0.0
 40
0
 41
0
  0
VERTEX
  8
0
 10
3.40896
 20
-6.23947
 30
0.0
 40
0
 41
0
  0
VERTEX
  8
0
 10
3.40001
 20
-6.27018
 30
0.0
 40
0
 41
0
  0
VERTEX
  8
0
 10
3.36236
 20
-6.35926
 30
0.0
 40
0
 41
0
  0
VERTEX
  8
0
 10
3.29531
 20
-6.46783
 30
0.0
 40
0
 41
0
  0
VERTEX
  8
0
 10
3.20801
 20
-6.56185
 30
0.0
 40
0
 41
0
  0
VERTEX
  8
0
 10
3.12935
 20
-6.6219
 30
0.0
 40
0
 41
0
  0
VERTEX
  8
0
 10
3.10092
 20
-6.63803
 30
0.0
 40
0
 41
0
  0
VERTEX
  8
0
 10
3.05539
 20
-6.66357
 30
0.0
 40
0
 41
0
  0
VERTEX
  8
0
 10
2.81554
 20
-6.76372
 30
0.0
 40
0
 41
0
  0
VERTEX
  8
0
 10
2.56267
 20
-6.83029
 30
0.0
 40
0
 41
0
  0
VERTEX
  8
0
 10
2.51074
 20
-6.83914
 30
0.0
 40
0
 41
0
  0
VERTEX
  8
0
 10
2.48193
 20
-6.84972
 30
0.0
 40
0
 41
0
  0
VERTEX
  8
0
 10
2.33718
 20
-6.86908
 30
0.0
 40
0
 41
0
  0
VERTEX
  8
0
 10
2.21121
 20
-6.86729
 30
0.0
 40
0
 41
0
  0
VERTEX
  8
0
 10
2.16922
 20
-6.86729
 30
0.0
 40
0
 41
0
  0
VERTEX
  8
0
 10
2.16922
 20
-6.86729
 30
0.0
 40
0
 41
0
  0
VERTEX
  8
0
 10
2.17025
 20
-6.86729
 30
0.0
 40
0
 41
0
  0
VERTEX
  8
0
 10
2.1791
 20
-6.86729
 30
0.0
 40
0
 41
0
  0
VERTEX
  8
0
 10
2.19174
 20
-6.86729
 30
0.0
 40
0
 41
0
  0
VERTEX
  8
0
 10
2.204
 20
-6.86729
 30
0.0
 40
0
 41
0
  0
VERTEX
  8
0
 10
2.21192
 20
-6.86729
 30
0.0
 40
0
 41
0
  0
VERTEX
  8
0
 10
2.21149
 20
-6.86729
 30
0.0
 40
0
 41
0
  0
VERTEX
  8
0
 10
2.19857
 20
-6.86729
 30
0.0
 40
0
 41
0
  0
VERTEX
  8
0
 10
2.17654
 20
-6.86729
 30
0.0
 40
0
 41
0
  0
VERTEX
  8
0
 10
2.16922
 20
-6.86729
 30
0.0
 40
0
 41
0
  0
SEQEND
 8
0
  0
POLYLINE
  8
0
 62
     0
 66
     1
 10
0
 20
0
 30
0.0
 70
     1
 40
0
 41
0
  0
VERTEX
  8
0
 10
3.53147
 20
-3.54129
 30
0.0
 40
0
 41
0
  0
VERTEX
  8
0
 10
3.53147
 20
-3.51508
 30
0.0
 40
0
 41
0
  0
VERTEX
  8
0
 10
3.52669
 20
-3.43647
 30
0.0
 40
0
 41
0
  0
VERTEX
  8
0
 10
3.5045
 20
-3.33268
 30
0.0
 40
0
 41
0
  0
VERTEX
  8
0
 10
3.45313
 20
-3.24414
 30
0.0
 40
0
 41
0
  0
VERTEX
  8
0
 10
3.3859
 20
-3.19353
 30
0.0
 40
0
 41
0
  0
VERTEX
  8
0
 10
3.36074
 20
-3.185
 30
0.0
 40
0
 41
0
  0
VERTEX
  8
0
 10
3.33208
 20
-3.17535
 30
0.0
 40
0
 41
0
  0
VERTEX
  8
0
 10
3.23682
 20
-3.17426
 30
0.0
 40
0
 41
0
  0
VERTEX
  8
0
 10
3.11849
 20
-3.21278
 30
0.0
 40
0
 41
0
  0
VERTEX
  8
0
 10
3.00993
 20
-3.27974
 30
0.0
 40
0
 41
0
  0
VERTEX
  8
0
 10
2.93847
 20
-3.33512
 30
0.0
 40
0
 41
0
  0
VERTEX
  8
0
 10
2.91531
 20
-3.35433
 30
0.0
 40
0
 41
0
  0
VERTEX
  8
0
 10
2.87912
 20
-3.3834
 30
0.0
 40
0
 41
0
  0
VERTEX
  8
0
 10
2.71533
 20
-3.54519
 30
0.0
 40
0
 41
0
  0
VERTEX
  8
0
 10
2.56825
 20
-3.72287
 30
0.0
 40
0
 41
0
  0
VERTEX
  8
0
 10
2.54042
 20
-3.75993
 30
0.0
 40
0
 41
0
  0
VERTEX
  8
0
 10
2.52647
 20
-3.77843
 30
0.0
 40
0
 41
0
  0
VERTEX
  8
0
 10
2.39469
 20
-3.96712
 30
0.0
 40
0
 41
0
  0
VERTEX
  8
0
 10
2.38081
 20
-3.98568
 30
0.0
 40
0
 41
0
  0
VERTEX
  8
0
 10
2.36686
 20
-4.00331
 30
0.0
 40
0
 41
0
  0
VERTEX
  8
0
 10
2.29215
 20
-4.08485
 30
0.0
 40
0
 41
0
  0
VERTEX
  8
0
 10
2.21192
 20
-4.16114
 30
0.0
 40
0
 41
0
  0
VERTEX
  8
0
 10
2.19521
 20
-4.17617
 30
0.0
 40
0
 41
0
  0
VERTEX
  8
0
 10
2.15994
 20
-4.20876
 30
0.0
 40
0
 41
0
  0
VERTEX
  8
0
 10
1.97944
 20
-4.36176
 30
0.0
 40
0
 41
0
  0
VERTEX
  8
0
 10
1.78228
 20
-4.49533
 30
0.0
 40
0
 41
0
  0
VERTEX
  8
0
 10
1.73867
 20
-4.51828
 30
0.0
 40
0
 41
0
  0
VERTEX
  8
0
 10
1.69596
 20
-4.54031
 30
0.0
 40
0
 41
0
  0
VERTEX
  8
0
 10
1.25336
 20
-4.73693
 30
0.0
 40
0
 41
0
  0
VERTEX
  8
0
 10
1.2079
 20
-4.75456
 30
0.0
 40
0
 41
0
  0
VERTEX
  8
0
 10
1.1652
 20
-4.7704
 30
0.0
 40
0
 41
0
  0
VERTEX
  8
0
 10
0.957357
 20
-4.85026
 30
0.0
 40
0
 41
0
  0
VERTEX
  8
0
 10
0.75689
 20
-4.9459
 30
0.0
 40
0
 41
0
  0
VERTEX
  8
0
 10
0.717936
 20
-4.96972
 30
0.0
 40
0
 41
0
  0
VERTEX
  8
0
 10
0.692003
 20
-4.98617
 30
0.0
 40
0
 41
0
  0
VERTEX
  8
0
 10
0.618164
 20
-5.04183
 30
0.0
 40
0
 41
0
  0
VERTEX
  8
0
 10
0.523981
 20
-5.12842
 30
0.0
 40
0
 41
0
  0
VERTEX
  8
0
 10
0.442329
 20
-5.22564
 30
0.0
 40
0
 41
0
  0
VERTEX
  8
0
 10
0.393067
 20
-5.30225
 30
0.0
 40
0
 41
0
  0
VERTEX
  8
0
 10
0.380208
 20
-5.32949
 30
0.0
 40
0
 41
0
  0
VERTEX
  8
0
 10
0.367731
 20
-5.35758
 30
0.0
 40
0
 41
0
  0
VERTEX
  8
0
 10
0.344185
 20
-5.44814
 30
0.0
 40
0
 41
0
  0
VERTEX
  8
0
 10
0.342611
 20
-5.56446
 30
0.0
 40
0
 41
0
  0
VERTEX
  8
0
 10
0.376519
 20
-5.67617
 30
0.0
 40
0
 41
0
  0
VERTEX
  8
0
 10
0.426215
 20
-5.75754
 30
0.0
 40
0
 41
0
  0
VERTEX
  8
0
 10
0.446994
 20
-5.78097
 30
0.0
 40
0
 41
0
  0
VERTEX
  8
0
 10
0.469456
 20
-5.80621
 30
0.0
 40
0
 41
0
  0
VERTEX
  8
0
 10
0.545301
 20
-5.8744
 30
0.0
 40
0
 41
0
  0
VERTEX
  8
0
 10
0.654406
 20
-5.95199
 30
0.0
 40
0
 41
0
  0
VERTEX
  8
0
 10
0.771104
 20
-6.01899
 30
0.0
 40
0
 41
0
  0
VERTEX
  8
0
 10
0.861925
 20
-6.06565
 30
0.0
 40
0
 41
0
  0
VERTEX
  8
0
 10
0.892415
 20
-6.08078
 30
0.0
 40
0
 41
0
  0
VERTEX
  8
0
 10
0.935058
 20
-6.10281
 30
0.0
 40
0
 41
0
  0
VERTEX
  8
0
 10
1.15918
 20
-6.19011
 30
0.0
 40
0
 41
0
  0
VERTEX
  8
0
 10
1.38883
 20
-6.26324
 30
0.0
 40
0
 41
0
  0
VERTEX
  8
0
 10
1.43431
 20
-6.27826
 30
0.0
 40
0
 41
0
  0
VERTEX
  8
0
 10
1.47976
 20
-6.29237
 30
0.0
 40
0
 41
0
  0
VERTEX
  8
0
 10
1.70622
 20
-6.36203
 30
0.0
 40
0
 41
0
  0
VERTEX
  8
0
 10
1.93631
 20
-6.42117
 30
0.0
 40
0
 41
0
  0
VERTEX
  8
0
 10
1.98367
 20
-6.43001
 30
0.0
 40
0
 41
0
  0
VERTEX
  8
0
 10
2.01585
 20
-6.43608
 30
0.0
 40
0
 41
0
  0
VERTEX
  8
0
 10
2.11328
 20
-6.45036
 30
0.0
 40
0
 41
0
  0
VERTEX
  8
0
 10
2.24914
 20
-6.46208
 30
0.0
 40
0
 41
0
  0
VERTEX
  8
0
 10
2.38721
 20
-6.46251
 30
0.0
 40
0
 41
0
  0
VERTEX
  8
0
 10
2.52365
 20
-6.44889
 30
0.0
 40
0
 41
0
  0
VERTEX
  8
0
 10
2.65457
 20
-6.41857
 30
0.0
 40
0
 41
0
  0
VERTEX
  8
0
 10
2.77593
 20
-6.36893
 30
0.0
 40
0
 41
0
  0
VERTEX
  8
0
 10
2.88396
 20
-6.29715
 30
0.0
 40
0
 41
0
  0
VERTEX
  8
0
 10
2.95518
 20
-6.22711
 30
0.0
 40
0
 41
0
  0
VERTEX
  8
0
 10
2.97467
 20
-6.20068
 30
0.0
 40
0
 41
0
  0
VERTEX
  8
0
 10
3.0154
 20
-6.14638
 30
0.0
 40
0
 41
0
  0
VERTEX
  8
0
 10
3.11367
 20
-5.96544
 30
0.0
 40
0
 41
0
  0
VERTEX
  8
0
 10
3.21544
 20
-5.71306
 30
0.0
 40
0
 41
0
  0
VERTEX
  8
0
 10
3.30821
 20
-5.45665
 30
0.0
 40
0
 41
0
  0
VERTEX
  8
0
 10
3.38753
 20
-5.26882
 30
0.0
 40
0
 41
0
  0
VERTEX
  8
0
 10
3.42008
 20
-5.20958
 30
0.0
 40
0
 41
0
  0
VERTEX
  8
0
 10
3.4414
 20
-5.17079
 30
0.0
 40
0
 41
0
  0
VERTEX
  8
0
 10
3.56532
 20
-4.98649
 30
0.0
 40
0
 41
0
  0
VERTEX
  8
0
 10
3.71332
 20
-4.81976
 30
0.0
 40
0
 41
0
  0
VERTEX
  8
0
 10
3.74675
 20
-4.78982
 30
0.0
 40
0
 41
0
  0
VERTEX
  8
0
 10
3.77106
 20
-4.76801
 30
0.0
 40
0
 41
0
  0
VERTEX
  8
0
 10
3.85172
 20
-4.71121
 30
0.0
 40
0
 41
0
  0
VERTEX
  8
0
 10
3.96615
 20
-4.63732
 30
0.0
 40
0
 41
0
  0
VERTEX
  8
0
 10
4.07292
 20
-4.55669
 30
0.0
 40
0
 41
0
  0
VERTEX
  8
0
 10
4.13921
 20
-4.48562
 30
0.0
 40
0
 41
0
  0
VERTEX
  8
0
 10
4.155
 20
-4.45828
 30
0.0
 40
0
 41
0
  0
VERTEX
  8
0
 10
4.16238
 20
-4.44586
 30
0.0
 40
0
 41
0
  0
VERTEX
  8
0
 10
4.17165
 20
-4.40099
 30
0.0
 40
0
 41
0
  0
VERTEX
  8
0
 10
4.15462
 20
-4.35042
 30
0.0
 40
0
 41
0
  0
VERTEX
  8
0
 10
4.11203
 20
-4.30604
 30
0.0
 40
0
 41
0
  0
VERTEX
  8
0
 10
4.05197
 20
-4.26736
 30
0.0
 40
0
 41
0
  0
VERTEX
  8
0
 10
3.98253
 20
-4.23378
 30
0.0
 40
0
 41
0
  0
VERTEX
  8
0
 10
3.91178
 20
-4.20481
 30
0.0
 40
0
 41
0
  0
VERTEX
  8
0
 10
3.84776
 20
-4.1799
 30
0.0
 40
0
 41
0
  0
VERTEX
  8
0
 10
3.8106
 20
-4.1645
 30
0.0
 40
0
 41
0
  0
VERTEX
  8
0
 10
3.79872
 20
-4.15847
 30
0.0
 40
0
 41
0
  0
VERTEX
  8
0
 10
3.78472
 20
-4.15115
 30
0.0
 40
0
 41
0
  0
VERTEX
  8
0
 10
3.74283
 20
-4.1289
 30
0.0
 40
0
 41
0
  0
VERTEX
  8
0
 10
3.68869
 20
-4.09674
 30
0.0
 40
0
 41
0
  0
VERTEX
  8
0
 10
3.63949
 20
-4.05931
 30
0.0
 40
0
 41
0
  0
VERTEX
  8
0
 10
3.60715
 20
-4.02626
 30
0.0
 40
0
 41
0
  0
VERTEX
  8
0
 10
3.59825
 20
-4.01394
 30
0.0
 40
0
 41
0
  0
VERTEX
  8
0
 10
3.58615
 20
-3.99804
 30
0.0
 40
0
 41
0
  0
VERTEX
  8
0
 10
3.53976
 20
-3.90983
 30
0.0
 40
0
 41
0
  0
VERTEX
  8
0
 10
3.51193
 20
-3.81456
 30
0.0
 40
0
 41
0
  0
VERTEX
  8
0
 10
3.50917
 20
-3.79519
 30
0.0
 40
0
 41
0
  0
VERTEX
  8
0
 10
3.50825
 20
-3.77403
 30
0.0
 40
0
 41
0
  0
VERTEX
  8
0
 10
3.51611
 20
-3.66824
 30
0.0
 40
0
 41
0
  0
VERTEX
  8
0
 10
3.52957
 20
-3.56244
 30
0.0
 40
0
 41
0
  0
VERTEX
  8
0
 10
3.53147
 20
-3.54129
 30
0.0
 40
0
 41
0
  0
VERTEX
  8
0
 10
3.53147
 20
-3.53504
 30
0.0
 40
0
 41
0
  0
VERTEX
  8
0
 10
3.53131
 20
-3.51639
 30
0.0
 40
0
 41
0
  0
VERTEX
  8
0
 10
3.53093
 20
-3.50754
 30
0.0
 40
0
 41
0
  0
VERTEX
  8
0
 10
3.53043
 20
-3.51025
 30
0.0
 40
0
 41
0
  0
VERTEX
  8
0
 10
3.53006
 20
-3.52007
 30
0.0
 40
0
 41
0
  0
VERTEX
  8
0
 10
3.52979
 20
-3.53256
 30
0.0
 40
0
 41
0
  0
VERTEX
  8
0
 10
3.52983
 20
-3.54324
 30
0.0
 40
0
 41
0
  0
VERTEX
  8
0
 10
3.53039
 20
-3.54764
 30
0.0
 40
0
 41
0
  0
VERTEX
  8
0
 10
3.53131
 20
-3.54286
 30
0.0
 40
0
 41
0
  0
VERTEX
  8
0
 10
3.53147
 20
-3.54129
 30
0.0
 40
0
 41
0
  0
SEQEND
 8
0
  0
POLYLINE
  8
0
 62
     0
 66
     1
 10
0
 20
0
 30
0.0
 70
     1
 40
0
 41
0
  0
VERTEX
  8
0
 10
1.89085
 20
0.691243
 30
0.0
 40
0
 41
0
  0
VERTEX
  8
0
 10
1.88721
 20
0.690972
 30
0.0
 40
0
 41
0
  0
VERTEX
  8
0
 10
1.87701
 20
0.682454
 30
0.0
 40
0
 41
0
  0
VERTEX
  8
0
 10
1.866
 20
0.661133
 30
0.0
 40
0
 41
0
  0
VERTEX
  8
0
 10
1.85742
 20
0.630914
 30
0.0
 40
0
 41
0
  0
VERTEX
  8
0
 10
1.85097
 20
0.595594
 30
0.0
 40
0
 41
0
  0
VERTEX
  8
0
 10
1.84619
 20
0.558757
 30
0.0
 40
0
 41
0
  0
VERTEX
  8
0
 10
1.84283
 20
0.524089
 30
0.0
 40
0
 41
0
  0
VERTEX
  8
0
 10
1.8405
 20
0.495335
 30
0.0
 40
0
 41
0
  0
VERTEX
  8
0
 10
1.83942
 20
0.480903
 30
0.0
 40
0
 41
0
  0
VERTEX
  8
0
 10
1.83892
 20
0.476074
 30
0.0
 40
0
 41
0
  0
VERTEX
  8
0
 10
1.83794
 20
0.453179
 30
0.0
 40
0
 41
0
  0
VERTEX
  8
0
 10
1.83892
 20
0.264051
 30
0.0
 40
0
 41
0
  0
VERTEX
  8
0
 10
1.83892
 20
0.200956
 30
0.0
 40
0
 41
0
  0
VERTEX
  8
0
 10
1.83892
 20
0.137478
 30
0.0
 40
0
 41
0
  0
VERTEX
  8
0
 10
1.84071
 20
-0.0317925
 30
0.0
 40
0
 41
0
  0
VERTEX
  8
0
 10
1.84261
 20
-0.0530057
 30
0.0
 40
0
 41
0
  0
VERTEX
  8
0
 10
1.84446
 20
-0.0759006
 30
0.0
 40
0
 41
0
  0
VERTEX
  8
0
 10
1.87088
 20
-0.190104
 30
0.0
 40
0
 41
0
  0
VERTEX
  8
0
 10
1.90662
 20
-0.302463
 30
0.0
 40
0
 41
0
  0
VERTEX
  8
0
 10
1.91314
 20
-0.324544
 30
0.0
 40
0
 41
0
  0
VERTEX
  8
0
 10
1.92518
 20
-0.364204
 30
0.0
 40
0
 41
0
  0
VERTEX
  8
0
 10
1.99664
 20
-0.552951
 30
0.0
 40
0
 41
0
  0
VERTEX
  8
0
 10
2.09033
 20
-0.731065
 30
0.0
 40
0
 41
0
  0
VERTEX
  8
0
 10
2.11356
 20
-0.765463
 30
0.0
 40
0
 41
0
  0
VERTEX
  8
0
 10
2.13672
 20
-0.798936
 30
0.0
 40
0
 41
0
  0
VERTEX
  8
0
 10
2.26531
 20
-0.948839
 30
0.0
 40
0
 41
0
  0
VERTEX
  8
0
 10
2.41422
 20
-1.07758
 30
0.0
 40
0
 41
0
  0
VERTEX
  8
0
 10
2.44764
 20
-1.10053
 30
0.0
 40
0
 41
0
  0
VERTEX
  8
0
 10
2.47412
 20
-1.11909
 30
0.0
 40
0
 41
0
  0
VERTEX
  8
0
 10
2.56022
 20
-1.16537
 30
0.0
 40
0
 41
0
  0
VERTEX
  8
0
 10
2.68332
 20
-1.21468
 30
0.0
 40
0
 41
0
  0
VERTEX
  8
0
 10
2.81196
 20
-1.25277
 30
0.0
 40
0
 41
0
  0
VERTEX
  8
0
 10
2.90886
 20
-1.27653
 30
0.0
 40
0
 41
0
  0
VERTEX
  8
0
 10
2.94129
 20
-1.28391
 30
0.0
 40
0
 41
0
  0
VERTEX
  8
0
 10
2.97433
 20
-1.29096
 30
0.0
 40
0
 41
0
  0
VERTEX
  8
0
 10
3.07693
 20
-1.29622
 30
0.0
 40
0
 41
0
  0
VERTEX
  8
0
 10
3.21083
 20
-1.28174
 30
0.0
 40
0
 41
0
  0
VERTEX
  8
0
 10
3.34267
 20
-1.25071
 30
0.0
 40
0
 41
0
  0
VERTEX
  8
0
 10
3.43972
 20
-1.22271
 30
0.0
 40
0
 41
0
  0
VERTEX
  8
0
 10
3.47206
 20
-1.21338
 30
0.0
 40
0
 41
0
  0
VERTEX
  8
0
 10
3.53358
 20
-1.19602
 30
0.0
 40
0
 41
0
  0
VERTEX
  8
0
 10
3.70958
 20
-1.11285
 30
0.0
 40
0
 41
0
  0
VERTEX
  8
0
 10
3.91374
 20
-0.962076
 30
0.0
 40
0
 41
0
  0
VERTEX
  8
0
 10
4.08171
 20
-0.772894
 30
0.0
 40
0
 41
0
  0
VERTEX
  8
0
 10
4.18349
 20
-0.613661
 30
0.0
 40
0
 41
0
  0
VERTEX
  8
0
 10
4.21072
 20
-0.557346
 30
0.0
 40
0
 41
0
  0
VERTEX
  8
0
 10
4.23112
 20
-0.514106
 30
0.0
 40
0
 41
0
  0
VERTEX
  8
0
 10
4.29237
 20
-0.291015
 30
0.0
 40
0
 41
0
  0
VERTEX
  8
0
 10
4.31646
 20
-0.0608724
 30
0.0
 40
0
 41
0
  0
VERTEX
  8
0
 10
4.31836
 20
-0.0141601
 30
0.0
 40
0
 41
0
  0
VERTEX
  8
0
 10
4.31928
 20
0.0114475
 30
0.0
 40
0
 41
0
  0
VERTEX
  8
0
 10
4.31836
 20
0.219781
 30
0.0
 40
0
 41
0
  0
VERTEX
  8
0
 10
4.31836
 20
0.289171
 30
0.0
 40
0
 41
0
  0
VERTEX
  8
0
 10
4.31836
 20
0.328342
 30
0.0
 40
0
 41
0
  0
VERTEX
  8
0
 10
4.3234
 20
0.445692
 30
0.0
 40
0
 41
0
  0
VERTEX
  8
0
 10
4.31922
 20
0.574815
 30
0.0
 40
0
 41
0
  0
VERTEX
  8
0
 10
4.31461
 20
0.599447
 30
0.0
 40
0
 41
0
  0
VERTEX
  8
0
 10
4.30626
 20
0.597711
 30
0.0
 40
0
 41
0
  0
VERTEX
  8
0
 10
4.26633
 20
0.587619
 30
0.0
 40
0
 41
0
  0
VERTEX
  8
0
 10
4.22646
 20
0.579264
 30
0.0
 40
0
 41
0
  0
VERTEX
  8
0
 10
4.2181
 20
0.578342
 30
0.0
 40
0
 41
0
  0
VERTEX
  8
0
 10
4.21067
 20
0.577474
 30
0.0
 40
0
 41
0
  0
VERTEX
  8
0
 10
4.1754
 20
0.580567
 30
0.0
 40
0
 41
0
  0
VERTEX
  8
0
 10
4.14339
 20
0.585394
 30
0.0
 40
0
 41
0
  0
VERTEX
  8
0
 10
4.13276
 20
0.585394
 30
0.0
 40
0
 41
0
  0
VERTEX
  8
0
 10
4.12294
 20
0.585394
 30
0.0
 40
0
 41
0
  0
VERTEX
  8
0
 10
4.09353
 20
0.574219
 30
0.0
 40
0
 41
0
  0
VERTEX
  8
0
 10
4.06685
 20
0.546169
 30
0.0
 40
0
 41
0
  0
VERTEX
  8
0
 10
4.0471
 20
0.509549
 30
0.0
 40
0
 41
0
  0
VERTEX
  8
0
 10
4.03386
 20
0.4815
 30
0.0
 40
0
 41
0
  0
VERTEX
  8
0
 10
4.02881
 20
0.472547
 30
0.0
 40
0
 41
0
  0
VERTEX
  8
0
 10
4.02046
 20
0.456706
 30
0.0
 40
0
 41
0
  0
VERTEX
  8
0
 10
3.93696
 20
0.295301
 30
0.0
 40
0
 41
0
  0
VERTEX
  8
0
 10
3.9286
 20
0.278538
 30
0.0
 40
0
 41
0
  0
VERTEX
  8
0
 10
3.92188
 20
0.266547
 30
0.0
 40
0
 41
0
  0
VERTEX
  8
0
 10
3.90033
 20
0.231282
 30
0.0
 40
0
 41
0
  0
VERTEX
  8
0
 10
3.86963
 20
0.180718
 30
0.0
 40
0
 41
0
  0
VERTEX
  8
0
 10
3.84244
 20
0.128798
 30
0.0
 40
0
 41
0
  0
VERTEX
  8
0
 10
3.82753
 20
0.0906575
 30
0.0
 40
0
 41
0
  0
VERTEX
  8
0
 10
3.82465
 20
0.077474
 30
0.0
 40
0
 41
0
  0
VERTEX
  8
0
 10
3.82264
 20
0.0686307
 30
0.0
 40
0
 41
0
  0
VERTEX
  8
0
 10
3.82574
 20
0.0399849
 30
0.0
 40
0
 41
0
  0
VERTEX
  8
0
 10
3.83626
 20
0.00217014
 30
0.0
 40
0
 41
0
  0
VERTEX
  8
0
 10
3.84185
 20
-0.0350478
 30
0.0
 40
0
 41
0
  0
VERTEX
  8
0
 10
3.83404
 20
-0.0636393
 30
0.0
 40
0
 41
0
  0
VERTEX
  8
0
 10
3.8284
 20
-0.0706922
 30
0.0
 40
0
 41
0
  0
VERTEX
  8
0
 10
3.82374
 20
-0.0759549
 30
0.0
 40
0
 41
0
  0
VERTEX
  8
0
 10
3.79775
 20
-0.0887044
 30
0.0
 40
0
 41
0
  0
VERTEX
  8
0
 10
3.76801
 20
-0.0961914
 30
0.0
 40
0
 41
0
  0
VERTEX
  8
0
 10
3.76156
 20
-0.0988499
 30
0.0
 40
0
 41
0
  0
VERTEX
  8
0
 10
3.75558
 20
-0.101074
 30
0.0
 40
0
 41
0
  0
VERTEX
  8
0
 10
3.73867
 20
-0.110243
 30
0.0
 40
0
 41
0
  0
VERTEX
  8
0
 10
3.72347
 20
-0.123969
 30
0.0
 40
0
 41
0
  0
VERTEX
  8
0
 10
3.71246
 20
-0.14095
 30
0.0
 40
0
 41
0
  0
VERTEX
  8
0
 10
3.70469
 20
-0.156956
 30
0.0
 40
0
 41
0
  0
VERTEX
  8
0
 10
3.70221
 20
-0.162326
 30
0.0
 40
0
 41
0
  0
VERTEX
  8
0
 10
3.69569
 20
-0.1773
 30
0.0
 40
0
 41
0
  0
VERTEX
  8
0
 10
3.62793
 20
-0.333333
 30
0.0
 40
0
 41
0
  0
VERTEX
  8
0
 10
3.62056
 20
-0.349229
 30
0.0
 40
0
 41
0
  0
VERTEX
  8
0
 10
3.61404
 20
-0.364204
 30
0.0
 40
0
 41
0
  0
VERTEX
  8
0
 10
3.58197
 20
-0.444065
 30
0.0
 40
0
 41
0
  0
VERTEX
  8
0
 10
3.54443
 20
-0.522081
 30
0.0
 40
0
 41
0
  0
VERTEX
  8
0
 10
3.53515
 20
-0.536187
 30
0.0
 40
0
 41
0
  0
VERTEX
  8
0
 10
3.53011
 20
-0.543782
 30
0.0
 40
0
 41
0
  0
VERTEX
  8
0
 10
3.50771
 20
-0.561957
 30
0.0
 40
0
 41
0
  0
VERTEX
  8
0
 10
3.48269
 20
-0.560004
 30
0.0
 40
0
 41
0
  0
VERTEX
  8
0
 10
3.46263
 20
-0.538194
 30
0.0
 40
0
 41
0
  0
VERTEX
  8
0
 10
3.45176
 20
-0.513129
 30
0.0
 40
0
 41
0
  0
VERTEX
  8
0
 10
3.44982
 20
-0.504449
 30
0.0
 40
0
 41
0
  0
VERTEX
  8
0
 10
3.44607
 20
-0.488553
 30
0.0
 40
0
 41
0
  0
VERTEX
  8
0
 10
3.43261
 20
-0.403971
 30
0.0
 40
0
 41
0
  0
VERTEX
  8
0
 10
3.42475
 20
-0.319282
 30
0.0
 40
0
 41
0
  0
VERTEX
  8
0
 10
3.42383
 20
-0.303386
 30
0.0
 40
0
 41
0
  0
VERTEX
  8
0
 10
3.42312
 20
-0.29145
 30
0.0
 40
0
 41
0
  0
VERTEX
  8
0
 10
3.42692
 20
-0.255371
 30
0.0
 40
0
 41
0
  0
VERTEX
  8
0
 10
3.43772
 20
-0.210394
 30
0.0
 40
0
 41
0
  0
VERTEX
  8
0
 10
3.44988
 20
-0.166015
 30
0.0
 40
0
 41
0
  0
VERTEX
  8
0
 10
3.45649
 20
-0.131565
 30
0.0
 40
0
 41
0
  0
VERTEX
  8
0
 10
3.45719
 20
-0.120009
 30
0.0
 40
0
 41
0
  0
VERTEX
  8
0
 10
3.45747
 20
-0.115126
 30
0.0
 40
0
 41
0
  0
VERTEX
  8
0
 10
3.45481
 20
-0.100315
 30
0.0
 40
0
 41
0
  0
VERTEX
  8
0
 10
3.44581
 20
-0.0857206
 30
0.0
 40
0
 41
0
  0
VERTEX
  8
0
 10
3.43164
 20
-0.0752496
 30
0.0
 40
0
 41
0
  0
VERTEX
  8
0
 10
3.41357
 20
-0.0679796
 30
0.0
 40
0
 41
0
  0
VERTEX
  8
0
 10
3.39312
 20
-0.0630425
 30
0.0
 40
0
 41
0
  0
VERTEX
  8
0
 10
3.37158
 20
-0.0594618
 30
0.0
 40
0
 41
0
  0
VERTEX
  8
0
 10
3.35042
 20
-0.0564236
 30
0.0
 40
0
 41
0
  0
VERTEX
  8
0
 10
3.33578
 20
-0.0540365
 30
0.0
 40
0
 41
0
  0
VERTEX
  8
0
 10
3.331
 20
-0.0530057
 30
0.0
 40
0
 41
0
  0
VERTEX
  8
0
 10
3.31429
 20
-0.0494792
 30
0.0
 40
0
 41
0
  0
VERTEX
  8
0
 10
3.22889
 20
-0.0291342
 30
0.0
 40
0
 41
0
  0
VERTEX
  8
0
 10
3.14356
 20
-0.0123698
 30
0.0
 40
0
 41
0
  0
VERTEX
  8
0
 10
3.12685
 20
-0.0106337
 30
0.0
 40
0
 41
0
  0
VERTEX
  8
0
 10
3.11643
 20
-0.00949436
 30
0.0
 40
0
 41
0
  0
VERTEX
  8
0
 10
3.08376
 20
-0.0193685
 30
0.0
 40
0
 41
0
  0
VERTEX
  8
0
 10
3.05214
 20
-0.0489908
 30
0.0
 40
0
 41
0
  0
VERTEX
  8
0
 10
3.02821
 20
-0.0884874
 30
0.0
 40
0
 41
0
  0
VERTEX
  8
0
 10
3.0134
 20
-0.117567
 30
0.0
 40
0
 41
0
  0
VERTEX
  8
0
 10
3.00808
 20
-0.127062
 30
0.0
 40
0
 41
0
  0
VERTEX
  8
0
 10
2.99046
 20
-0.157878
 30
0.0
 40
0
 41
0
  0
VERTEX
  8
0
 10
2.90881
 20
-0.31836
 30
0.0
 40
0
 41
0
  0
VERTEX
  8
0
 10
2.83083
 20
-0.482422
 30
0.0
 40
0
 41
0
  0
VERTEX
  8
0
 10
2.81511
 20
-0.515082
 30
0.0
 40
0
 41
0
  0
VERTEX
  8
0
 10
2.80767
 20
-0.530925
 30
0.0
 40
0
 41
0
  0
VERTEX
  8
0
 10
2.7334
 20
-0.686143
 30
0.0
 40
0
 41
0
  0
VERTEX
  8
0
 10
2.72601
 20
-0.70204
 30
0.0
 40
0
 41
0
  0
VERTEX
  8
0
 10
2.72054
 20
-0.712349
 30
0.0
 40
0
 41
0
  0
VERTEX
  8
0
 10
2.7066
 20
-0.744738
 30
0.0
 40
0
 41
0
  0
VERTEX
  8
0
 10
2.68517
 20
-0.792751
 30
0.0
 40
0
 41
0
  0
VERTEX
  8
0
 10
2.6581
 20
-0.83686
 30
0.0
 40
0
 41
0
  0
VERTEX
  8
0
 10
2.63232
 20
-0.862522
 30
0.0
 40
0
 41
0
  0
VERTEX
  8
0
 10
2.62207
 20
-0.867731
 30
0.0
 40
0
 41
0
  0
VERTEX
  8
0
 10
2.61426
 20
-0.871419
 30
0.0
 40
0
 41
0
  0
VERTEX
  8
0
 10
2.58718
 20
-0.875
 30
0.0
 40
0
 41
0
  0
VERTEX
  8
0
 10
2.55197
 20
-0.867731
 30
0.0
 40
0
 41
0
  0
VERTEX
  8
0
 10
2.52029
 20
-0.849881
 30
0.0
 40
0
 41
0
  0
VERTEX
  8
0
 10
2.50092
 20
-0.832249
 30
0.0
 40
0
 41
0
  0
VERTEX
  8
0
 10
2.49588
 20
-0.825412
 30
0.0
 40
0
 41
0
  0
VERTEX
  8
0
 10
2.49001
 20
-0.816297
 30
0.0
 40
0
 41
0
  0
VERTEX
  8
0
 10
2.48432
 20
-0.781304
 30
0.0
 40
0
 41
0
  0
VERTEX
  8
0
 10
2.50097
 20
-0.742512
 30
0.0
 40
0
 41
0
  0
VERTEX
  8
0
 10
2.53082
 20
-0.706381
 30
0.0
 40
0
 41
0
  0
VERTEX
  8
0
 10
2.55311
 20
-0.679958
 30
0.0
 40
0
 41
0
  0
VERTEX
  8
0
 10
2.55897
 20
-0.670247
 30
0.0
 40
0
 41
0
  0
VERTEX
  8
0
 10
2.56825
 20
-0.656088
 30
0.0
 40
0
 41
0
  0
VERTEX
  8
0
 10
2.60394
 20
-0.579807
 30
0.0
 40
0
 41
0
  0
VERTEX
  8
0
 10
2.63411
 20
-0.50179
 30
0.0
 40
0
 41
0
  0
VERTEX
  8
0
 10
2.64063
 20
-0.486817
 30
0.0
 40
0
 41
0
  0
VERTEX
  8
0
 10
2.64708
 20
-0.470053
 30
0.0
 40
0
 41
0
  0
VERTEX
  8
0
 10
2.68608
 20
-0.386285
 30
0.0
 40
0
 41
0
  0
VERTEX
  8
0
 10
2.72879
 20
-0.302518
 30
0.0
 40
0
 41
0
  0
VERTEX
  8
0
 10
2.73714
 20
-0.285753
 30
0.0
 40
0
 41
0
  0
VERTEX
  8
0
 10
2.7455
 20
-0.269857
 30
0.0
 40
0
 41
0
  0
VERTEX
  8
0
 10
2.83176
 20
-0.107639
 30
0.0
 40
0
 41
0
  0
VERTEX
  8
0
 10
2.8411
 20
-0.0917969
 30
0.0
 40
0
 41
0
  0
VERTEX
  8
0
 10
2.84338
 20
-0.0877279
 30
0.0
 40
0
 41
0
  0
VERTEX
  8
0
 10
2.85086
 20
-0.0758464
 30
0.0
 40
0
 41
0
  0
VERTEX
  8
0
 10
2.86231
 20
-0.0578342
 30
0.0
 40
0
 41
0
  0
VERTEX
  8
0
 10
2.87354
 20
-0.0384657
 30
0.0
 40
0
 41
0
  0
VERTEX
  8
0
 10
2.88282
 20
-0.0185547
 30
0.0
 40
0
 41
0
  0
VERTEX
  8
0
 10
2.88824
 20
0.000976563
 30
0.0
 40
0
 41
0
  0
VERTEX
  8
0
 10
2.88803
 20
0.0193685
 30
0.0
 40
0
 41
0
  0
VERTEX
  8
0
 10
2.88032
 20
0.0357531
 30
0.0
 40
0
 41
0
  0
VERTEX
  8
0
 10
2.868
 20
0.0468207
 30
0.0
 40
0
 41
0
  0
VERTEX
  8
0
 10
2.86333
 20
0.0493164
 30
0.0
 40
0
 41
0
  0
VERTEX
  8
0
 10
2.85385
 20
0.0541992
 30
0.0
 40
0
 41
0
  0
VERTEX
  8
0
 10
2.82357
 20
0.0649957
 30
0.0
 40
0
 41
0
  0
VERTEX
  8
0
 10
2.77935
 20
0.0766601
 30
0.0
 40
0
 41
0
  0
VERTEX
  8
0
 10
2.73438
 20
0.0870226
 30
0.0
 40
0
 41
0
  0
VERTEX
  8
0
 10
2.70281
 20
0.0952149
 30
0.0
 40
0
 41
0
  0
VERTEX
  8
0
 10
2.6926
 20
0.0986871
 30
0.0
 40
0
 41
0
  0
VERTEX
  8
0
 10
2.68365
 20
0.101508
 30
0.0
 40
0
 41
0
  0
VERTEX
  8
0
 10
2.65756
 20
0.11225
 30
0.0
 40
0
 41
0
  0
VERTEX
  8
0
 10
2.62115
 20
0.125163
 30
0.0
 40
0
 41
0
  0
VERTEX
  8
0
 10
2.5861
 20
0.127441
 30
0.0
 40
0
 41
0
  0
VERTEX
  8
0
 10
2.56087
 20
0.115668
 30
0.0
 40
0
 41
0
  0
VERTEX
  8
0
 10
2.55528
 20
0.109267
 30
0.0
 40
0
 41
0
  0
VERTEX
  8
0
 10
2.54796
 20
0.101671
 30
0.0
 40
0
 41
0
  0
VERTEX
  8
0
 10
2.5306
 20
0.0745443
 30
0.0
 40
0
 41
0
  0
VERTEX
  8
0
 10
2.51112
 20
0.0321181
 30
0.0
 40
0
 41
0
  0
VERTEX
  8
0
 10
2.49517
 20
-0.012207
 30
0.0
 40
0
 41
0
  0
VERTEX
  8
0
 10
2.48475
 20
-0.0429144
 30
0.0
 40
0
 41
0
  0
VERTEX
  8
0
 10
2.48101
 20
-0.0530057
 30
0.0
 40
0
 41
0
  0
VERTEX
  8
0
 10
2.47358
 20
-0.0697157
 30
0.0
 40
0
 41
0
  0
VERTEX
  8
0
 10
2.44108
 20
-0.155707
 30
0.0
 40
0
 41
0
  0
VERTEX
  8
0
 10
2.41233
 20
-0.243435
 30
0.0
 40
0
 41
0
  0
VERTEX
  8
0
 10
2.40679
 20
-0.261068
 30
0.0
 40
0
 41
0
  0
VERTEX
  8
0
 10
2.39654
 20
-0.293674
 30
0.0
 40
0
 41
0
  0
VERTEX
  8
0
 10
2.35851
 20
-0.459472
 30
0.0
 40
0
 41
0
  0
VERTEX
  8
0
 10
2.34278
 20
-0.628743
 30
0.0
 40
0
 41
0
  0
VERTEX
  8
0
 10
2.34369
 20
-0.66314
 30
0.0
 40
0
 41
0
  0
VERTEX
  8
0
 10
2.34369
 20
-0.690483
 30
0.0
 40
0
 41
0
  0
VERTEX
  8
0
 10
2.35015
 20
-0.763672
 30
0.0
 40
0
 41
0
  0
VERTEX
  8
0
 10
2.35113
 20
-0.772515
 30
0.0
 40
0
 41
0
  0
VERTEX
  8
0
 10
2.352
 20
-0.776639
 30
0.0
 40
0
 41
0
  0
VERTEX
  8
0
 10
2.35542
 20
-0.789008
 30
0.0
 40
0
 41
0
  0
VERTEX
  8
0
 10
2.36083
 20
-0.809517
 30
0.0
 40
0
 41
0
  0
VERTEX
  8
0
 10
2.36415
 20
-0.830024
 30
0.0
 40
0
 41
0
  0
VERTEX
  8
0
 10
2.36376
 20
-0.842882
 30
0.0
 40
0
 41
0
  0
VERTEX
  8
0
 10
2.36225
 20
-0.846571
 30
0.0
 40
0
 41
0
  0
VERTEX
  8
0
 10
2.36035
 20
-0.85064
 30
0.0
 40
0
 41
0
  0
VERTEX
  8
0
 10
2.35042
 20
-0.860894
 30
0.0
 40
0
 41
0
  0
VERTEX
  8
0
 10
2.33539
 20
-0.86339
 30
0.0
 40
0
 41
0
  0
VERTEX
  8
0
 10
2.31831
 20
-0.856825
 30
0.0
 40
0
 41
0
  0
VERTEX
  8
0
 10
2.30051
 20
-0.843913
 30
0.0
 40
0
 41
0
  0
VERTEX
  8
0
 10
2.28326
 20
-0.827311
 30
0.0
 40
0
 41
0
  0
VERTEX
  8
0
 10
2.26774
 20
-0.809842
 30
0.0
 40
0
 41
0
  0
VERTEX
  8
0
 10
2.25532
 20
-0.794162
 30
0.0
 40
0
 41
0
  0
VERTEX
  8
0
 10
2.24914
 20
-0.785861
 30
0.0
 40
0
 41
0
  0
VERTEX
  8
0
 10
2.24718
 20
-0.783094
 30
0.0
 40
0
 41
0
  0
VERTEX
  8
0
 10
2.23079
 20
-0.759278
 30
0.0
 40
0
 41
0
  0
VERTEX
  8
0
 10
2.19151
 20
-0.68099
 30
0.0
 40
0
 41
0
  0
VERTEX
  8
0
 10
2.15886
 20
-0.57411
 30
0.0
 40
0
 41
0
  0
VERTEX
  8
0
 10
2.14611
 20
-0.463921
 30
0.0
 40
0
 41
0
  0
VERTEX
  8
0
 10
2.15022
 20
-0.351887
 30
0.0
 40
0
 41
0
  0
VERTEX
  8
0
 10
2.16803
 20
-0.239529
 30
0.0
 40
0
 41
0
  0
VERTEX
  8
0
 10
2.19656
 20
-0.128364
 30
0.0
 40
0
 41
0
  0
VERTEX
  8
0
 10
2.23258
 20
-0.0198025
 30
0.0
 40
0
 41
0
  0
VERTEX
  8
0
 10
2.26253
 20
0.0587022
 30
0.0
 40
0
 41
0
  0
VERTEX
  8
0
 10
2.27317
 20
0.0845811
 30
0.0
 40
0
 41
0
  0
VERTEX
  8
0
 10
2.27658
 20
0.0935331
 30
0.0
 40
0
 41
0
  0
VERTEX
  8
0
 10
2.28965
 20
0.119249
 30
0.0
 40
0
 41
0
  0
VERTEX
  8
0
 10
2.31076
 20
0.160861
 30
0.0
 40
0
 41
0
  0
VERTEX
  8
0
 10
2.32693
 20
0.203125
 30
0.0
 40
0
 41
0
  0
VERTEX
  8
0
 10
2.33106
 20
0.231337
 30
0.0
 40
0
 41
0
  0
VERTEX
  8
0
 10
2.32883
 20
0.239746
 30
0.0
 40
0
 41
0
  0
VERTEX
  8
0
 10
2.32667
 20
0.248643
 30
0.0
 40
0
 41
0
  0
VERTEX
  8
0
 10
2.30729
 20
0.272244
 30
0.0
 40
0
 41
0
  0
VERTEX
  8
0
 10
2.26807
 20
0.301107
 30
0.0
 40
0
 41
0
  0
VERTEX
  8
0
 10
2.2239
 20
0.326606
 30
0.0
 40
0
 41
0
  0
VERTEX
  8
0
 10
2.19624
 20
0.342719
 30
0.0
 40
0
 41
0
  0
VERTEX
  8
0
 10
2.18782
 20
0.349121
 30
0.0
 40
0
 41
0
  0
VERTEX
  8
0
 10
2.17204
 20
0.360622
 30
0.0
 40
0
 41
0
  0
VERTEX
  8
0
 10
2.09685
 20
0.422743
 30
0.0
 40
0
 41
0
  0
VERTEX
  8
0
 10
2.02908
 20
0.490181
 30
0.0
 40
0
 41
0
  0
VERTEX
  8
0
 10
2.01704
 20
0.504286
 30
0.0
 40
0
 41
0
  0
VERTEX
  8
0
 10
2.0031
 20
0.52105
 30
0.0
 40
0
 41
0
  0
VERTEX
  8
0
 10
1.947
 20
0.600424
 30
0.0
 40
0
 41
0
  0
VERTEX
  8
0
 10
1.90013
 20
0.676269
 30
0.0
 40
0
 41
0
  0
VERTEX
  8
0
 10
1.89085
 20
0.691243
 30
0.0
 40
0
 41
0
  0
VERTEX
  8
0
 10
1.89085
 20
0.691243
 30
0.0
 40
0
 41
0
  0
VERTEX
  8
0
 10
1.89219
 20
0.688639
 30
0.0
 40
0
 41
0
  0
VERTEX
  8
0
 10
1.89133
 20
0.69081
 30
0.0
 40
0
 41
0
  0
VERTEX
  8
0
 10
1.89085
 20
0.691243
 30
0.0
 40
0
 41
0
  0
SEQEND
 8
0
  0
POLYLINE
  8
0
 62
     0
 66
     1
 10
0
 20
0
 30
0.0
 70
     1
 40
0
 41
0
  0
VERTEX
  8
0
 10
4.61897
 20
-3.80578
 30
0.0
 40
0
 41
0
  0
VERTEX
  8
0
 10
4.62272
 20
-3.81222
 30
0.0
 40
0
 41
0
  0
VERTEX
  8
0
 10
4.6594
 20
-3.81689
 30
0.0
 40
0
 41
0
  0
VERTEX
  8
0
 10
4.73356
 20
-3.81017
 30
0.0
 40
0
 41
0
  0
VERTEX
  8
0
 10
4.81261
 20
-3.79682
 30
0.0
 40
0
 41
0
  0
VERTEX
  8
0
 10
4.8565
 20
-3.78901
 30
0.0
 40
0
 41
0
  0
VERTEX
  8
0
 10
4.86768
 20
-3.78814
 30
0.0
 40
0
 41
0
  0
VERTEX
  8
0
 10
4.88992
 20
-3.78549
 30
0.0
 40
0
 41
0
  0
VERTEX
  8
0
 10
5.11632
 20
-3.74669
 30
0.0
 40
0
 41
0
  0
VERTEX
  8
0
 10
5.13861
 20
-3.74229
 30
0.0
 40
0
 41
0
  0
VERTEX
  8
0
 10
5.17942
 20
-3.73346
 30
0.0
 40
0
 41
0
  0
VERTEX
  8
0
 10
5.38818
 20
-3.68718
 30
0.0
 40
0
 41
0
  0
VERTEX
  8
0
 10
5.59326
 20
-3.63206
 30
0.0
 40
0
 41
0
  0
VERTEX
  8
0
 10
5.63226
 20
-3.61887
 30
0.0
 40
0
 41
0
  0
VERTEX
  8
0
 10
5.65875
 20
-3.60975
 30
0.0
 40
0
 41
0
  0
VERTEX
  8
0
 10
5.73812
 20
-3.58171
 30
0.0
 40
0
 41
0
  0
VERTEX
  8
0
 10
5.84706
 20
-3.53597
 30
0.0
 40
0
 41
0
  0
VERTEX
  8
0
 10
5.947
 20
-3.47694
 30
0.0
 40
0
 41
0
  0
VERTEX
  8
0
 10
6.00965
 20
-3.42204
 30
0.0
 40
0
 41
0
  0
VERTEX
  8
0
 10
6.02572
 20
-3.40018
 30
0.0
 40
0
 41
0
  0
VERTEX
  8
0
 10
6.04194
 20
-3.37869
 30
0.0
 40
0
 41
0
  0
VERTEX
  8
0
 10
6.07742
 20
-3.30414
 30
0.0
 40
0
 41
0
  0
VERTEX
  8
0
 10
6.10553
 20
-3.19293
 30
0.0
 40
0
 41
0
  0
VERTEX
  8
0
 10
6.11133
 20
-3.07781
 30
0.0
 40
0
 41
0
  0
VERTEX
  8
0
 10
6.10275
 20
-2.99621
 30
0.0
 40
0
 41
0
  0
VERTEX
  8
0
 10
6.09625
 20
-2.96994
 30
0.0
 40
0
 41
0
  0
VERTEX
  8
0
 10
6.09158
 20
-2.95139
 30
0.0
 40
0
 41
0
  0
VERTEX
  8
0
 10
6.05865
 20
-2.86143
 30
0.0
 40
0
 41
0
  0
VERTEX
  8
0
 10
6.01644
 20
-2.77501
 30
0.0
 40
0
 41
0
  0
VERTEX
  8
0
 10
6.00717
 20
-2.75825
 30
0.0
 40
0
 41
0
  0
VERTEX
  8
0
 10
6.0025
 20
-2.7494
 30
0.0
 40
0
 41
0
  0
VERTEX
  8
0
 10
5.9496
 20
-2.66124
 30
0.0
 40
0
 41
0
  0
VERTEX
  8
0
 10
5.94407
 20
-2.65246
 30
0.0
 40
0
 41
0
  0
VERTEX
  8
0
 10
5.94086
 20
-2.64714
 30
0.0
 40
0
 41
0
  0
VERTEX
  8
0
 10
5.93261
 20
-2.63043
 30
0.0
 40
0
 41
0
  0
VERTEX
  8
0
 10
5.91949
 20
-2.60613
 30
0.0
 40
0
 41
0
  0
VERTEX
  8
0
 10
5.90283
 20
-2.58649
 30
0.0
 40
0
 41
0
  0
VERTEX
  8
0
 10
5.88639
 20
-2.5784
 30
0.0
 40
0
 41
0
  0
VERTEX
  8
0
 10
5.88097
 20
-2.5784
 30
0.0
 40
0
 41
0
  0
VERTEX
  8
0
 10
5.87511
 20
-2.5784
 30
0.0
 40
0
 41
0
  0
VERTEX
  8
0
 10
5.85753
 20
-2.58794
 30
0.0
 40
0
 41
0
  0
VERTEX
  8
0
 10
5.82992
 20
-2.61014
 30
0.0
 40
0
 41
0
  0
VERTEX
  8
0
 10
5.80365
 20
-2.63493
 30
0.0
 40
0
 41
0
  0
VERTEX
  8
0
 10
5.78907
 20
-2.64893
 30
0.0
 40
0
 41
0
  0
VERTEX
  8
0
 10
5.78444
 20
-2.65246
 30
0.0
 40
0
 41
0
  0
VERTEX
  8
0
 10
5.77701
 20
-2.65858
 30
0.0
 40
0
 41
0
  0
VERTEX
  8
0
 10
5.70281
 20
-2.72032
 30
0.0
 40
0
 41
0
  0
VERTEX
  8
0
 10
5.69536
 20
-2.72651
 30
0.0
 40
0
 41
0
  0
VERTEX
  8
0
 10
5.68701
 20
-2.73356
 30
0.0
 40
0
 41
0
  0
VERTEX
  8
0
 10
5.60351
 20
-2.80057
 30
0.0
 40
0
 41
0
  0
VERTEX
  8
0
 10
5.59517
 20
-2.80761
 30
0.0
 40
0
 41
0
  0
VERTEX
  8
0
 10
5.59039
 20
-2.81213
 30
0.0
 40
0
 41
0
  0
VERTEX
  8
0
 10
5.57904
 20
-2.82878
 30
0.0
 40
0
 41
0
  0
VERTEX
  8
0
 10
5.57796
 20
-2.84728
 30
0.0
 40
0
 41
0
  0
VERTEX
  8
0
 10
5.58735
 20
-2.86714
 30
0.0
 40
0
 41
0
  0
VERTEX
  8
0
 10
5.5989
 20
-2.8859
 30
0.0
 40
0
 41
0
  0
VERTEX
  8
0
 10
5.6026
 20
-2.89231
 30
0.0
 40
0
 41
0
  0
VERTEX
  8
0
 10
5.60883
 20
-2.90489
 30
0.0
 40
0
 41
0
  0
VERTEX
  8
0
 10
5.62896
 20
-2.94217
 30
0.0
 40
0
 41
0
  0
VERTEX
  8
0
 10
5.655
 20
-2.99235
 30
0.0
 40
0
 41
0
  0
VERTEX
  8
0
 10
5.67617
 20
-3.04454
 30
0.0
 40
0
 41
0
  0
VERTEX
  8
0
 10
5.68664
 20
-3.08626
 30
0.0
 40
0
 41
0
  0
VERTEX
  8
0
 10
5.68799
 20
-3.10038
 30
0.0
 40
0
 41
0
  0
VERTEX
  8
0
 10
5.68983
 20
-3.11974
 30
0.0
 40
0
 41
0
  0
VERTEX
  8
0
 10
5.6856
 20
-3.21631
 30
0.0
 40
0
 41
0
  0
VERTEX
  8
0
 10
5.66471
 20
-3.31108
 30
0.0
 40
0
 41
0
  0
VERTEX
  8
0
 10
5.65826
 20
-3.32964
 30
0.0
 40
0
 41
0
  0
VERTEX
  8
0
 10
5.65039
 20
-3.35206
 30
0.0
 40
0
 41
0
  0
VERTEX
  8
0
 10
5.61388
 20
-3.41488
 30
0.0
 40
0
 41
0
  0
VERTEX
  8
0
 10
5.54551
 20
-3.4879
 30
0.0
 40
0
 41
0
  0
VERTEX
  8
0
 10
5.45833
 20
-3.53646
 30
0.0
 40
0
 41
0
  0
VERTEX
  8
0
 10
5.38222
 20
-3.55078
 30
0.0
 40
0
 41
0
  0
VERTEX
  8
0
 10
5.35764
 20
-3.54833
 30
0.0
 40
0
 41
0
  0
VERTEX
  8
0
 10
5.34451
 20
-3.54704
 30
0.0
 40
0
 41
0
  0
VERTEX
  8
0
 10
5.30556
 20
-3.53851
 30
0.0
 40
0
 41
0
  0
VERTEX
  8
0
 10
5.25597
 20
-3.52007
 30
0.0
 40
0
 41
0
  0
VERTEX
  8
0
 10
5.2099
 20
-3.49371
 30
0.0
 40
0
 41
0
  0
VERTEX
  8
0
 10
5.17796
 20
-3.46929
 30
0.0
 40
0
 41
0
  0
VERTEX
  8
0
 10
5.16835
 20
-3.46012
 30
0.0
 40
0
 41
0
  0
VERTEX
  8
0
 10
5.16183
 20
-3.45394
 30
0.0
 40
0
 41
0
  0
VERTEX
  8
0
 10
5.13585
 20
-3.42264
 30
0.0
 40
0
 41
0
  0
VERTEX
  8
0
 10
5.11356
 20
-3.3896
 30
0.0
 40
0
 41
0
  0
VERTEX
  8
0
 10
5.10894
 20
-3.3826
 30
0.0
 40
0
 41
0
  0
VERTEX
  8
0
 10
5.10704
 20
-3.37993
 30
0.0
 40
0
 41
0
  0
VERTEX
  8
0
 10
5.09918
 20
-3.36356
 30
0.0
 40
0
 41
0
  0
VERTEX
  8
0
 10
5.08942
 20
-3.34901
 30
0.0
 40
0
 41
0
  0
VERTEX
  8
0
 10
5.08664
 20
-3.34728
 30
0.0
 40
0
 41
0
  0
VERTEX
  8
0
 10
5.08301
 20
-3.34581
 30
0.0
 40
0
 41
0
  0
VERTEX
  8
0
 10
5.07129
 20
-3.34364
 30
0.0
 40
0
 41
0
  0
VERTEX
  8
0
 10
5.06158
 20
-3.34771
 30
0.0
 40
0
 41
0
  0
VERTEX
  8
0
 10
5.05322
 20
-3.35764
 30
0.0
 40
0
 41
0
  0
VERTEX
  8
0
 10
5.04503
 20
-3.36854
 30
0.0
 40
0
 41
0
  0
VERTEX
  8
0
 10
5.0421
 20
-3.37196
 30
0.0
 40
0
 41
0
  0
VERTEX
  8
0
 10
5.00592
 20
-3.40722
 30
0.0
 40
0
 41
0
  0
VERTEX
  8
0
 10
4.65326
 20
-3.76872
 30
0.0
 40
0
 41
0
  0
VERTEX
  8
0
 10
4.61897
 20
-3.80578
 30
0.0
 40
0
 41
0
  0
VERTEX
  8
0
 10
4.61951
 20
-3.80578
 30
0.0
 40
0
 41
0
  0
VERTEX
  8
0
 10
4.62121
 20
-3.80399
 30
0.0
 40
0
 41
0
  0
VERTEX
  8
0
 10
4.62614
 20
-3.79926
 30
0.0
 40
0
 41
0
  0
VERTEX
  8
0
 10
4.63308
 20
-3.79215
 30
0.0
 40
0
 41
0
  0
VERTEX
  8
0
 10
4.64144
 20
-3.78342
 30
0.0
 40
0
 41
0
  0
VERTEX
  8
0
 10
4.6505
 20
-3.77376
 30
0.0
 40
0
 41
0
  0
VERTEX
  8
0
 10
4.65972
 20
-3.76389
 30
0.0
 40
0
 41
0
  0
VERTEX
  8
0
 10
4.66846
 20
-3.7545
 30
0.0
 40
0
 41
0
  0
VERTEX
  8
0
 10
4.67606
 20
-3.74625
 30
0.0
 40
0
 41
0
  0
VERTEX
  8
0
 10
4.68181
 20
-3.73986
 30
0.0
 40
0
 41
0
  0
VERTEX
  8
0
 10
4.68517
 20
-3.736
 30
0.0
 40
0
 41
0
  0
VERTEX
  8
0
 10
4.68549
 20
-3.7354
 30
0.0
 40
0
 41
0
  0
VERTEX
  8
0
 10
4.68213
 20
-3.73882
 30
0.0
 40
0
 41
0
  0
VERTEX
  8
0
 10
4.67443
 20
-3.74681
 30
0.0
 40
0
 41
0
  0
VERTEX
  8
0
 10
4.66174
 20
-3.76019
 30
0.0
 40
0
 41
0
  0
VERTEX
  8
0
 10
4.64344
 20
-3.77957
 30
0.0
 40
0
 41
0
  0
VERTEX
  8
0
 10
4.62506
 20
-3.79921
 30
0.0
 40
0
 41
0
  0
VERTEX
  8
0
 10
4.61897
 20
-3.80578
 30
0.0
 40
0
 41
0
  0
SEQEND
 8
0
  0
POLYLINE
  8
0
 62
     0
 66
     1
 10
0
 20
0
 30
0.0
 70
     1
 40
0
 41
0
  0
VERTEX
  8
0
 10
3.17882
 20
1.04742
 30
0.0
 40
0
 41
0
  0
VERTEX
  8
0
 10
3.16433
 20
1.0383
 30
0.0
 40
0
 41
0
  0
VERTEX
  8
0
 10
3.12483
 20
1.00456
 30
0.0
 40
0
 41
0
  0
VERTEX
  8
0
 10
3.07813
 20
0.952692
 30
0.0
 40
0
 41
0
  0
VERTEX
  8
0
 10
3.03629
 20
0.896212
 30
0.0
 40
0
 41
0
  0
VERTEX
  8
0
 10
3.00689
 20
0.853515
 30
0.0
 40
0
 41
0
  0
VERTEX
  8
0
 10
2.99696
 20
0.839356
 30
0.0
 40
0
 41
0
  0
VERTEX
  8
0
 10
2.98118
 20
0.818197
 30
0.0
 40
0
 41
0
  0
VERTEX
  8
0
 10
2.829
 20
0.607476
 30
0.0
 40
0
 41
0
  0
VERTEX
  8
0
 10
2.81511
 20
0.585394
 30
0.0
 40
0
 41
0
  0
VERTEX
  8
0
 10
2.80951
 20
0.577474
 30
0.0
 40
0
 41
0
  0
VERTEX
  8
0
 10
2.77979
 20
0.53559
 30
0.0
 40
0
 41
0
  0
VERTEX
  8
0
 10
2.75754
 20
0.491971
 30
0.0
 40
0
 41
0
  0
VERTEX
  8
0
 10
2.75569
 20
0.483128
 30
0.0
 40
0
 41
0
  0
VERTEX
  8
0
 10
2.75407
 20
0.476942
 30
0.0
 40
0
 41
0
  0
VERTEX
  8
0
 10
2.75444
 20
0.456814
 30
0.0
 40
0
 41
0
  0
VERTEX
  8
0
 10
2.7654
 20
0.439074
 30
0.0
 40
0
 41
0
  0
VERTEX
  8
0
 10
2.78543
 20
0.426594
 30
0.0
 40
0
 41
0
  0
VERTEX
  8
0
 10
2.80479
 20
0.418619
 30
0.0
 40
0
 41
0
  0
VERTEX
  8
0
 10
2.81136
 20
0.416124
 30
0.0
 40
0
 41
0
  0
VERTEX
  8
0
 10
2.82156
 20
0.411729
 30
0.0
 40
0
 41
0
  0
VERTEX
  8
0
 10
2.92736
 20
0.370281
 30
0.0
 40
0
 41
0
  0
VERTEX
  8
0
 10
2.93756
 20
0.366754
 30
0.0
 40
0
 41
0
  0
VERTEX
  8
0
 10
2.9459
 20
0.363226
 30
0.0
 40
0
 41
0
  0
VERTEX
  8
0
 10
2.99414
 20
0.342068
 30
0.0
 40
0
 41
0
  0
VERTEX
  8
0
 10
3.04081
 20
0.327963
 30
0.0
 40
0
 41
0
  0
VERTEX
  8
0
 10
3.05638
 20
0.327963
 30
0.0
 40
0
 41
0
  0
VERTEX
  8
0
 10
3.067
 20
0.327963
 30
0.0
 40
0
 41
0
  0
VERTEX
  8
0
 10
3.09907
 20
0.34299
 30
0.0
 40
0
 41
0
  0
VERTEX
  8
0
 10
3.13385
 20
0.379124
 30
0.0
 40
0
 41
0
  0
VERTEX
  8
0
 10
3.16228
 20
0.423178
 30
0.0
 40
0
 41
0
  0
VERTEX
  8
0
 10
3.17969
 20
0.452692
 30
0.0
 40
0
 41
0
  0
VERTEX
  8
0
 10
3.18625
 20
0.461968
 30
0.0
 40
0
 41
0
  0
VERTEX
  8
0
 10
3.20107
 20
0.483128
 30
0.0
 40
0
 41
0
  0
VERTEX
  8
0
 10
3.34586
 20
0.691243
 30
0.0
 40
0
 41
0
  0
VERTEX
  8
0
 10
3.36074
 20
0.712349
 30
0.0
 40
0
 41
0
  0
VERTEX
  8
0
 10
3.36442
 20
0.717503
 30
0.0
 40
0
 41
0
  0
VERTEX
  8
0
 10
3.37651
 20
0.73215
 30
0.0
 40
0
 41
0
  0
VERTEX
  8
0
 10
3.39703
 20
0.756185
 30
0.0
 40
0
 41
0
  0
VERTEX
  8
0
 10
3.41922
 20
0.783149
 30
0.0
 40
0
 41
0
  0
VERTEX
  8
0
 10
3.44
 20
0.811578
 30
0.0
 40
0
 41
0
  0
VERTEX
  8
0
 10
3.45649
 20
0.840224
 30
0.0
 40
0
 41
0
  0
VERTEX
  8
0
 10
3.4656
 20
0.867622
 30
0.0
 40
0
 41
0
  0
VERTEX
  8
0
 10
3.46436
 20
0.892524
 30
0.0
 40
0
 41
0
  0
VERTEX
  8
0
 10
3.45449
 20
0.909506
 30
0.0
 40
0
 41
0
  0
VERTEX
  8
0
 10
3.44982
 20
0.913411
 30
0.0
 40
0
 41
0
  0
VERTEX
  8
0
 10
3.43956
 20
0.921386
 30
0.0
 40
0
 41
0
  0
VERTEX
  8
0
 10
3.37879
 20
0.956651
 30
0.0
 40
0
 41
0
  0
VERTEX
  8
0
 10
3.31614
 20
0.98839
 30
0.0
 40
0
 41
0
  0
VERTEX
  8
0
 10
3.30501
 20
0.994575
 30
0.0
 40
0
 41
0
  0
VERTEX
  8
0
 10
3.29383
 20
0.999024
 30
0.0
 40
0
 41
0
  0
VERTEX
  8
0
 10
3.24192
 20
1.02235
 30
0.0
 40
0
 41
0
  0
VERTEX
  8
0
 10
3.18994
 20
1.04395
 30
0.0
 40
0
 41
0
  0
VERTEX
  8
0
 10
3.17882
 20
1.04742
 30
0.0
 40
0
 41
0
  0
VERTEX
  8
0
 10
3.17796
 20
1.04693
 30
0.0
 40
0
 41
0
  0
VERTEX
  8
0
 10
3.17622
 20
1.044
 30
0.0
 40
0
 41
0
  0
VERTEX
  8
0
 10
3.18018
 20
1.04351
 30
0.0
 40
0
 41
0
  0
VERTEX
  8
0
 10
3.18349
 20
1.04498
 30
0.0
 40
0
 41
0
  0
VERTEX
  8
0
 10
3.18001
 20
1.04715
 30
0.0
 40
0
 41
0
  0
VERTEX
  8
0
 10
3.17882
 20
1.04742
 30
0.0
 40
0
 41
0
  0
SEQEND
 8
0
  0
POLYLINE
  8
0
 62
     0
 66
     1
 10
0
 20
0
 30
0.0
 70
     1
 40
0
 41
0
  0
VERTEX
  8
0
 10
3.57969
 20
0.172743
 30
0.0
 40
0
 41
0
  0
VERTEX
  8
0
 10
3.58583
 20
0.172146
 30
0.0
 40
0
 41
0
  0
VERTEX
  8
0
 10
3.60493
 20
0.175672
 30
0.0
 40
0
 41
0
  0
VERTEX
  8
0
 10
3.62788
 20
0.188206
 30
0.0
 40
0
 41
0
  0
VERTEX
  8
0
 10
3.64865
 20
0.208008
 30
0.0
 40
0
 41
0
  0
VERTEX
  8
0
 10
3.66737
 20
0.232747
 30
0.0
 40
0
 41
0
  0
VERTEX
  8
0
 10
3.68419
 20
0.260146
 30
0.0
 40
0
 41
0
  0
VERTEX
  8
0
 10
3.69922
 20
0.287869
 30
0.0
 40
0
 41
0
  0
VERTEX
  8
0
 10
3.71257
 20
0.313585
 30
0.0
 40
0
 41
0
  0
VERTEX
  8
0
 10
3.72131
 20
0.329807
 30
0.0
 40
0
 41
0
  0
VERTEX
  8
0
 10
3.72444
 20
0.335015
 30
0.0
 40
0
 41
0
  0
VERTEX
  8
0
 10
3.73557
 20
0.353569
 30
0.0
 40
0
 41
0
  0
VERTEX
  8
0
 10
3.85064
 20
0.538683
 30
0.0
 40
0
 41
0
  0
VERTEX
  8
0
 10
3.86182
 20
0.557183
 30
0.0
 40
0
 41
0
  0
VERTEX
  8
0
 10
3.86524
 20
0.562121
 30
0.0
 40
0
 41
0
  0
VERTEX
  8
0
 10
3.87597
 20
0.576497
 30
0.0
 40
0
 41
0
  0
VERTEX
  8
0
 10
3.89193
 20
0.600424
 30
0.0
 40
0
 41
0
  0
VERTEX
  8
0
 10
3.903
 20
0.625706
 30
0.0
 40
0
 41
0
  0
VERTEX
  8
0
 10
3.90457
 20
0.643881
 30
0.0
 40
0
 41
0
  0
VERTEX
  8
0
 10
3.90261
 20
0.648926
 30
0.0
 40
0
 41
0
  0
VERTEX
  8
0
 10
3.90126
 20
0.654025
 30
0.0
 40
0
 41
0
  0
VERTEX
  8
0
 10
3.891
 20
0.667697
 30
0.0
 40
0
 41
0
  0
VERTEX
  8
0
 10
3.87104
 20
0.682454
 30
0.0
 40
0
 41
0
  0
VERTEX
  8
0
 10
3.84831
 20
0.694553
 30
0.0
 40
0
 41
0
  0
VERTEX
  8
0
 10
3.83311
 20
0.702365
 30
0.0
 40
0
 41
0
  0
VERTEX
  8
0
 10
3.8284
 20
0.70535
 30
0.0
 40
0
 41
0
  0
VERTEX
  8
0
 10
3.82314
 20
0.708442
 30
0.0
 40
0
 41
0
  0
VERTEX
  8
0
 10
3.80767
 20
0.718261
 30
0.0
 40
0
 41
0
  0
VERTEX
  8
0
 10
3.78271
 20
0.734538
 30
0.0
 40
0
 41
0
  0
VERTEX
  8
0
 10
3.75467
 20
0.752171
 30
0.0
 40
0
 41
0
  0
VERTEX
  8
0
 10
3.72488
 20
0.769314
 30
0.0
 40
0
 41
0
  0
VERTEX
  8
0
 10
3.69456
 20
0.783908
 30
0.0
 40
0
 41
0
  0
VERTEX
  8
0
 10
3.66499
 20
0.794162
 30
0.0
 40
0
 41
0
  0
VERTEX
  8
0
 10
3.63743
 20
0.798014
 30
0.0
 40
0
 41
0
  0
VERTEX
  8
0
 10
3.61865
 20
0.795844
 30
0.0
 40
0
 41
0
  0
VERTEX
  8
0
 10
3.61312
 20
0.793511
 30
0.0
 40
0
 41
0
  0
VERTEX
  8
0
 10
3.60732
 20
0.790799
 30
0.0
 40
0
 41
0
  0
VERTEX
  8
0
 10
3.59212
 20
0.777832
 30
0.0
 40
0
 41
0
  0
VERTEX
  8
0
 10
3.57362
 20
0.755154
 30
0.0
 40
0
 41
0
  0
VERTEX
  8
0
 10
3.55724
 20
0.730524
 30
0.0
 40
0
 41
0
  0
VERTEX
  8
0
 10
3.5465
 20
0.714085
 30
0.0
 40
0
 41
0
  0
VERTEX
  8
0
 10
3.54258
 20
0.708822
 30
0.0
 40
0
 41
0
  0
VERTEX
  8
0
 10
3.537
 20
0.7009
 30
0.0
 40
0
 41
0
  0
VERTEX
  8
0
 10
3.4776
 20
0.615451
 30
0.0
 40
0
 41
0
  0
VERTEX
  8
0
 10
3.47206
 20
0.606608
 30
0.0
 40
0
 41
0
  0
VERTEX
  8
0
 10
3.45904
 20
0.588108
 30
0.0
 40
0
 41
0
  0
VERTEX
  8
0
 10
3.33285
 20
0.406467
 30
0.0
 40
0
 41
0
  0
VERTEX
  8
0
 10
3.31988
 20
0.387913
 30
0.0
 40
0
 41
0
  0
VERTEX
  8
0
 10
3.31629
 20
0.382813
 30
0.0
 40
0
 41
0
  0
VERTEX
  8
0
 10
3.30524
 20
0.367676
 30
0.0
 40
0
 41
0
  0
VERTEX
  8
0
 10
3.29036
 20
0.346897
 30
0.0
 40
0
 41
0
  0
VERTEX
  8
0
 10
3.27729
 20
0.32601
 30
0.0
 40
0
 41
0
  0
VERTEX
  8
0
 10
3.2679
 20
0.305501
 30
0.0
 40
0
 41
0
  0
VERTEX
  8
0
 10
3.264
 20
0.285807
 30
0.0
 40
0
 41
0
  0
VERTEX
  8
0
 10
3.26764
 20
0.267361
 30
0.0
 40
0
 41
0
  0
VERTEX
  8
0
 10
3.28065
 20
0.250706
 30
0.0
 40
0
 41
0
  0
VERTEX
  8
0
 10
3.29856
 20
0.23904
 30
0.0
 40
0
 41
0
  0
VERTEX
  8
0
 10
3.30501
 20
0.236219
 30
0.0
 40
0
 41
0
  0
VERTEX
  8
0
 10
3.32726
 20
0.230089
 30
0.0
 40
0
 41
0
  0
VERTEX
  8
0
 10
3.5574
 20
0.176269
 30
0.0
 40
0
 41
0
  0
VERTEX
  8
0
 10
3.57969
 20
0.172743
 30
0.0
 40
0
 41
0
  0
VERTEX
  8
0
 10
3.58268
 20
0.172743
 30
0.0
 40
0
 41
0
  0
VERTEX
  8
0
 10
3.59169
 20
0.173286
 30
0.0
 40
0
 41
0
  0
VERTEX
  8
0
 10
3.58664
 20
0.1741
 30
0.0
 40
0
 41
0
  0
VERTEX
  8
0
 10
3.57813
 20
0.174262
 30
0.0
 40
0
 41
0
  0
VERTEX
  8
0
 10
3.57921
 20
0.172851
 30
0.0
 40
0
 41
0
  0
VERTEX
  8
0
 10
3.57969
 20
0.172743
 30
0.0
 40
0
 41
0
  0
SEQEND
 8
0
  0
POLYLINE
  8
0
 62
     0
 66
     1
 10
0
 20
0
 30
0.0
 70
     1
 40
0
 41
0
  0
VERTEX
  8
0
 10
4.35547
 20
1.06863
 30
0.0
 40
0
 41
0
  0
VERTEX
  8
0
 10
4.35286
 20
1.06912
 30
0.0
 40
0
 41
0
  0
VERTEX
  8
0
 10
4.34299
 20
1.05903
 30
0.0
 40
0
 41
0
  0
VERTEX
  8
0
 10
4.3221
 20
1.03114
 30
0.0
 40
0
 41
0
  0
VERTEX
  8
0
 10
4.29639
 20
0.99056
 30
0.0
 40
0
 41
0
  0
VERTEX
  8
0
 10
4.26958
 20
0.942979
 30
0.0
 40
0
 41
0
  0
VERTEX
  8
0
 10
4.24544
 20
0.893881
 30
0.0
 40
0
 41
0
  0
VERTEX
  8
0
 10
4.22754
 20
0.848904
 30
0.0
 40
0
 41
0
  0
VERTEX
  8
0
 10
4.21967
 20
0.813585
 30
0.0
 40
0
 41
0
  0
VERTEX
  8
0
 10
4.22217
 20
0.796061
 30
0.0
 40
0
 41
0
  0
VERTEX
  8
0
 10
4.22553
 20
0.793511
 30
0.0
 40
0
 41
0
  0
VERTEX
  8
0
 10
4.22879
 20
0.791015
 30
0.0
 40
0
 41
0
  0
VERTEX
  8
0
 10
4.2411
 20
0.786458
 30
0.0
 40
0
 41
0
  0
VERTEX
  8
0
 10
4.25678
 20
0.787761
 30
0.0
 40
0
 41
0
  0
VERTEX
  8
0
 10
4.27203
 20
0.795574
 30
0.0
 40
0
 41
0
  0
VERTEX
  8
0
 10
4.28629
 20
0.808106
 30
0.0
 40
0
 41
0
  0
VERTEX
  8
0
 10
4.29899
 20
0.823406
 30
0.0
 40
0
 41
0
  0
VERTEX
  8
0
 10
4.30957
 20
0.839681
 30
0.0
 40
0
 41
0
  0
VERTEX
  8
0
 10
4.31743
 20
0.855035
 30
0.0
 40
0
 41
0
  0
VERTEX
  8
0
 10
4.32118
 20
0.864367
 30
0.0
 40
0
 41
0
  0
VERTEX
  8
0
 10
4.32206
 20
0.867567
 30
0.0
 40
0
 41
0
  0
VERTEX
  8
0
 10
4.32574
 20
0.883464
 30
0.0
 40
0
 41
0
  0
VERTEX
  8
0
 10
4.34011
 20
0.966797
 30
0.0
 40
0
 41
0
  0
VERTEX
  8
0
 10
4.35265
 20
1.05192
 30
0.0
 40
0
 41
0
  0
VERTEX
  8
0
 10
4.35547
 20
1.06863
 30
0.0
 40
0
 41
0
  0
VERTEX
  8
0
 10
4.35508
 20
1.06863
 30
0.0
 40
0
 41
0
  0
VERTEX
  8
0
 10
4.35406
 20
1.06337
 30
0.0
 40
0
 41
0
  0
VERTEX
  8
0
 10
4.35547
 20
1.06733
 30
0.0
 40
0
 41
0
  0
VERTEX
  8
0
 10
4.35547
 20
1.06863
 30
0.0
 40
0
 41
0
  0
SEQEND
 8
0
  0
POLYLINE
  8
0
 62
     0
 66
     1
 10
0
 20
0
 30
0.0
 70
     1
 40
0
 41
0
  0
VERTEX
  8
0
 10
5.55436
 20
-2.97694
 30
0.0
 40
0
 41
0
  0
VERTEX
  8
0
 10
5.55306
 20
-2.97092
 30
0.0
 40
0
 41
0
  0
VERTEX
  8
0
 10
5.54563
 20
-2.95378
 30
0.0
 40
0
 41
0
  0
VERTEX
  8
0
 10
5.5319
 20
-2.93733
 30
0.0
 40
0
 41
0
  0
VERTEX
  8
0
 10
5.51508
 20
-2.92768
 30
0.0
 40
0
 41
0
  0
VERTEX
  8
0
 10
5.49724
 20
-2.92492
 30
0.0
 40
0
 41
0
  0
VERTEX
  8
0
 10
5.48025
 20
-2.92904
 30
0.0
 40
0
 41
0
  0
VERTEX
  8
0
 10
5.4661
 20
-2.94021
 30
0.0
 40
0
 41
0
  0
VERTEX
  8
0
 10
5.45671
 20
-2.9585
 30
0.0
 40
0
 41
0
  0
VERTEX
  8
0
 10
5.45378
 20
-2.97765
 30
0.0
 40
0
 41
0
  0
VERTEX
  8
0
 10
5.4541
 20
-2.984
 30
0.0
 40
0
 41
0
  0
VERTEX
  8
0
 10
5.4541
 20
-2.98856
 30
0.0
 40
0
 41
0
  0
VERTEX
  8
0
 10
5.45742
 20
-3.00233
 30
0.0
 40
0
 41
0
  0
VERTEX
  8
0
 10
5.46664
 20
-3.02235
 30
0.0
 40
0
 41
0
  0
VERTEX
  8
0
 10
5.48074
 20
-3.03907
 30
0.0
 40
0
 41
0
  0
VERTEX
  8
0
 10
5.49397
 20
-3.04688
 30
0.0
 40
0
 41
0
  0
VERTEX
  8
0
 10
5.49864
 20
-3.04753
 30
0.0
 40
0
 41
0
  0
VERTEX
  8
0
 10
5.50461
 20
-3.0485
 30
0.0
 40
0
 41
0
  0
VERTEX
  8
0
 10
5.52403
 20
-3.0434
 30
0.0
 40
0
 41
0
  0
VERTEX
  8
0
 10
5.54042
 20
-3.02539
 30
0.0
 40
0
 41
0
  0
VERTEX
  8
0
 10
5.54981
 20
-3.00082
 30
0.0
 40
0
 41
0
  0
VERTEX
  8
0
 10
5.55354
 20
-2.98292
 30
0.0
 40
0
 41
0
  0
VERTEX
  8
0
 10
5.55436
 20
-2.97694
 30
0.0
 40
0
 41
0
  0
VERTEX
  8
0
 10
5.55436
 20
-2.97694
 30
0.0
 40
0
 41
0
  0
VERTEX
  8
0
 10
5.55382
 20
-2.97743
 30
0.0
 40
0
 41
0
  0
VERTEX
  8
0
 10
5.55296
 20
-2.98356
 30
0.0
 40
0
 41
0
  0
VERTEX
  8
0
 10
5.55274
 20
-2.98633
 30
0.0
 40
0
 41
0
  0
VERTEX
  8
0
 10
5.55399
 20
-2.97928
 30
0.0
 40
0
 41
0
  0
VERTEX
  8
0
 10
5.55436
 20
-2.97694
 30
0.0
 40
0
 41
0
  0
SEQEND
 8
0
  0
POLYLINE
  8
0
 62
     0
 66
     1
 10
0
 20
0
 30
0.0
 70
     1
 40
0
 41
0
  0
VERTEX
  8
0
 10
5.35764
 20
-3.42839
 30
0.0
 40
0
 41
0
  0
VERTEX
  8
0
 10
5.35829
 20
-3.42649
 30
0.0
 40
0
 41
0
  0
VERTEX
  8
0
 10
5.345
 20
-3.41542
 30
0.0
 40
0
 41
0
  0
VERTEX
  8
0
 10
5.31261
 20
-3.39621
 30
0.0
 40
0
 41
0
  0
VERTEX
  8
0
 10
5.27669
 20
-3.37631
 30
0.0
 40
0
 41
0
  0
VERTEX
  8
0
 10
5.25738
 20
-3.3649
 30
0.0
 40
0
 41
0
  0
VERTEX
  8
0
 10
5.25369
 20
-3.36139
 30
0.0
 40
0
 41
0
  0
VERTEX
  8
0
 10
5.24994
 20
-3.35786
 30
0.0
 40
0
 41
0
  0
VERTEX
  8
0
 10
5.23833
 20
-3.34467
 30
0.0
 40
0
 41
0
  0
VERTEX
  8
0
 10
5.21744
 20
-3.32303
 30
0.0
 40
0
 41
0
  0
VERTEX
  8
0
 10
5.19521
 20
-3.30735
 30
0.0
 40
0
 41
0
  0
VERTEX
  8
0
 10
5.17882
 20
-3.30604
 30
0.0
 40
0
 41
0
  0
VERTEX
  8
0
 10
5.17572
 20
-3.30854
 30
0.0
 40
0
 41
0
  0
VERTEX
  8
0
 10
5.17258
 20
-3.31104
 30
0.0
 40
0
 41
0
  0
VERTEX
  8
0
 10
5.17079
 20
-3.32796
 30
0.0
 40
0
 41
0
  0
VERTEX
  8
0
 10
5.18636
 20
-3.35081
 30
0.0
 40
0
 41
0
  0
VERTEX
  8
0
 10
5.20964
 20
-3.37099
 30
0.0
 40
0
 41
0
  0
VERTEX
  8
0
 10
5.22396
 20
-3.38081
 30
0.0
 40
0
 41
0
  0
VERTEX
  8
0
 10
5.22771
 20
-3.3826
 30
0.0
 40
0
 41
0
  0
VERTEX
  8
0
 10
5.2379
 20
-3.3896
 30
0.0
 40
0
 41
0
  0
VERTEX
  8
0
 10
5.28988
 20
-3.41471
 30
0.0
 40
0
 41
0
  0
VERTEX
  8
0
 10
5.34554
 20
-3.42746
 30
0.0
 40
0
 41
0
  0
VERTEX
  8
0
 10
5.35764
 20
-3.42839
 30
0.0
 40
0
 41
0
  0
VERTEX
  8
0
 10
5.35764
 20
-3.42839
 30
0.0
 40
0
 41
0
  0
VERTEX
  8
0
 10
5.3534
 20
-3.42839
 30
0.0
 40
0
 41
0
  0
VERTEX
  8
0
 10
5.35656
 20
-3.42839
 30
0.0
 40
0
 41
0
  0
VERTEX
  8
0
 10
5.35764
 20
-3.42839
 30
0.0
 40
0
 41
0
  0
SEQEND
 8
0
  0
ENDSEC
  0
EOF
