  0
SECTION
  2
HEADER
  9
$ACADVER
  1
AC1009
  9
$EXTMIN
 10
0.0
 20
0.0
 30
0.0
  9
$EXTMAX
 10
1000.0
 20
1000.0
 30
0.0
  9
$FILLMODE
 70
 0
  9
$SPLFRAME
 70
 1
  0
ENDSEC
  0
SECTION
  2
TABLES
  0
TABLE
  2
LAYER
 70
1
  0
LAYER
  2
0
 70
     0
 62
     7
  6
CONTINUOUS
  0
ENDTAB
  0
ENDSEC
  0
SECTION
  2
ENTITIES
  0
POLYLINE
  8
0
 62
     0
 66
     1
 10
0
 20
0
 30
0.0
 70
     1
 40
0
 41
0
  0
VERTEX
  8
0
 10
5.86843
 20
-23.9169
 30
0.0
 40
0
 41
0
  0
VERTEX
  8
0
 10
5.79058
 20
-23.9
 30
0.0
 40
0
 41
0
  0
VERTEX
  8
0
 10
5.40158
 20
-23.8249
 30
0.0
 40
0
 41
0
  0
VERTEX
  8
0
 10
5.01253
 20
-23.7497
 30
0.0
 40
0
 41
0
  0
VERTEX
  8
0
 10
4.93474
 20
-23.7328
 30
0.0
 40
0
 41
0
  0
VERTEX
  8
0
 10
4.85693
 20
-23.7158
 30
0.0
 40
0
 41
0
  0
VERTEX
  8
0
 10
4.47917
 20
-23.6212
 30
0.0
 40
0
 41
0
  0
VERTEX
  8
0
 10
4.10644
 20
-23.5074
 30
0.0
 40
0
 41
0
  0
VERTEX
  8
0
 10
4.03119
 20
-23.4807
 30
0.0
 40
0
 41
0
  0
VERTEX
  8
0
 10
3.95839
 20
-23.4564
 30
0.0
 40
0
 41
0
  0
VERTEX
  8
0
 10
3.58946
 20
-23.3376
 30
0.0
 40
0
 41
0
  0
VERTEX
  8
0
 10
3.22049
 20
-23.2092
 30
0.0
 40
0
 41
0
  0
VERTEX
  8
0
 10
3.14774
 20
-23.18
 30
0.0
 40
0
 41
0
  0
VERTEX
  8
0
 10
3.07243
 20
-23.1486
 30
0.0
 40
0
 41
0
  0
VERTEX
  8
0
 10
2.70221
 20
-22.9789
 30
0.0
 40
0
 41
0
  0
VERTEX
  8
0
 10
2.33703
 20
-22.7996
 30
0.0
 40
0
 41
0
  0
VERTEX
  8
0
 10
2.26426
 20
-22.7632
 30
0.0
 40
0
 41
0
  0
VERTEX
  8
0
 10
2.15804
 20
-22.7101
 30
0.0
 40
0
 41
0
  0
VERTEX
  8
0
 10
1.84446
 20
-22.5406
 30
0.0
 40
0
 41
0
  0
VERTEX
  8
0
 10
1.43599
 20
-22.2917
 30
0.0
 40
0
 41
0
  0
VERTEX
  8
0
 10
1.05008
 20
-22.0119
 30
0.0
 40
0
 41
0
  0
VERTEX
  8
0
 10
0.781033
 20
-21.7804
 30
0.0
 40
0
 41
0
  0
VERTEX
  8
0
 10
0.698079
 20
-21.6967
 30
0.0
 40
0
 41
0
  0
VERTEX
  8
0
 10
0.658963
 20
-21.6569
 30
0.0
 40
0
 41
0
  0
VERTEX
  8
0
 10
0.548557
 20
-21.5315
 30
0.0
 40
0
 41
0
  0
VERTEX
  8
0
 10
0.413194
 20
-21.3572
 30
0.0
 40
0
 41
0
  0
VERTEX
  8
0
 10
0.287218
 20
-21.1758
 30
0.0
 40
0
 41
0
  0
VERTEX
  8
0
 10
0.195856
 20
-21.0357
 30
0.0
 40
0
 41
0
  0
VERTEX
  8
0
 10
0.165961
 20
-20.9889
 30
0.0
 40
0
 41
0
  0
VERTEX
  8
0
 10
0.136936
 20
-20.9433
 30
0.0
 40
0
 41
0
  0
VERTEX
  8
0
 10
0.0690104
 20
-20.7946
 30
0.0
 40
0
 41
0
  0
VERTEX
  8
0
 10
0.0154081
 20
-20.5912
 30
0.0
 40
0
 41
0
  0
VERTEX
  8
0
 10
-0.000596789
 20
-20.3807
 30
0.0
 40
0
 41
0
  0
VERTEX
  8
0
 10
0.00802951
 20
-20.2182
 30
0.0
 40
0
 41
0
  0
VERTEX
  8
0
 10
0.0154081
 20
-20.1647
 30
0.0
 40
0
 41
0
  0
VERTEX
  8
0
 10
0.022895
 20
-20.114
 30
0.0
 40
0
 41
0
  0
VERTEX
  8
0
 10
0.0756293
 20
-19.9665
 30
0.0
 40
0
 41
0
  0
VERTEX
  8
0
 10
0.181044
 20
-19.7793
 30
0.0
 40
0
 41
0
  0
VERTEX
  8
0
 10
0.309028
 20
-19.6029
 30
0.0
 40
0
 41
0
  0
VERTEX
  8
0
 10
0.405599
 20
-19.4793
 30
0.0
 40
0
 41
0
  0
VERTEX
  8
0
 10
0.437067
 20
-19.4375
 30
0.0
 40
0
 41
0
  0
VERTEX
  8
0
 10
0.4713
 20
-19.3935
 30
0.0
 40
0
 41
0
  0
VERTEX
  8
0
 10
0.581543
 20
-19.2669
 30
0.0
 40
0
 41
0
  0
VERTEX
  8
0
 10
0.741971
 20
-19.1054
 30
0.0
 40
0
 41
0
  0
VERTEX
  8
0
 10
0.915636
 20
-18.9549
 30
0.0
 40
0
 41
0
  0
VERTEX
  8
0
 10
1.05246
 20
-18.8497
 30
0.0
 40
0
 41
0
  0
VERTEX
  8
0
 10
1.09966
 20
-18.8169
 30
0.0
 40
0
 41
0
  0
VERTEX
  8
0
 10
1.19363
 20
-18.7497
 30
0.0
 40
0
 41
0
  0
VERTEX
  8
0
 10
1.48926
 20
-18.5672
 30
0.0
 40
0
 41
0
  0
VERTEX
  8
0
 10
1.89779
 20
-18.3456
 30
0.0
 40
0
 41
0
  0
VERTEX
  8
0
 10
2.31381
 20
-18.1367
 30
0.0
 40
0
 41
0
  0
VERTEX
  8
0
 10
2.62397
 20
-17.9797
 30
0.0
 40
0
 41
0
  0
VERTEX
  8
0
 10
2.72607
 20
-17.925
 30
0.0
 40
0
 41
0
  0
VERTEX
  8
0
 10
2.83171
 20
-17.8667
 30
0.0
 40
0
 41
0
  0
VERTEX
  8
0
 10
3.15381
 20
-17.7011
 30
0.0
 40
0
 41
0
  0
VERTEX
  8
0
 10
3.58817
 20
-17.4874
 30
0.0
 40
0
 41
0
  0
VERTEX
  8
0
 10
4.02067
 20
-17.2718
 30
0.0
 40
0
 41
0
  0
VERTEX
  8
0
 10
4.33892
 20
-17.1028
 30
0.0
 40
0
 41
0
  0
VERTEX
  8
0
 10
4.44282
 20
-17.0426
 30
0.0
 40
0
 41
0
  0
VERTEX
  8
0
 10
4.51058
 20
-17.0039
 30
0.0
 40
0
 41
0
  0
VERTEX
  8
0
 10
4.84185
 20
-16.7869
 30
0.0
 40
0
 41
0
  0
VERTEX
  8
0
 10
5.16314
 20
-16.5554
 30
0.0
 40
0
 41
0
  0
VERTEX
  8
0
 10
5.22592
 20
-16.5094
 30
0.0
 40
0
 41
0
  0
VERTEX
  8
0
 10
5.27035
 20
-16.4754
 30
0.0
 40
0
 41
0
  0
VERTEX
  8
0
 10
5.39794
 20
-16.3658
 30
0.0
 40
0
 41
0
  0
VERTEX
  8
0
 10
5.55593
 20
-16.2124
 30
0.0
 40
0
 41
0
  0
VERTEX
  8
0
 10
5.70449
 20
-16.0499
 30
0.0
 40
0
 41
0
  0
VERTEX
  8
0
 10
5.81299
 20
-15.9224
 30
0.0
 40
0
 41
0
  0
VERTEX
  8
0
 10
5.84836
 20
-15.8792
 30
0.0
 40
0
 41
0
  0
VERTEX
  8
0
 10
5.8845
 20
-15.8368
 30
0.0
 40
0
 41
0
  0
VERTEX
  8
0
 10
5.99567
 20
-15.7122
 30
0.0
 40
0
 41
0
  0
VERTEX
  8
0
 10
6.13824
 20
-15.5397
 30
0.0
 40
0
 41
0
  0
VERTEX
  8
0
 10
6.25635
 20
-15.3528
 30
0.0
 40
0
 41
0
  0
VERTEX
  8
0
 10
6.31939
 20
-15.1964
 30
0.0
 40
0
 41
0
  0
VERTEX
  8
0
 10
6.33024
 20
-15.1422
 30
0.0
 40
0
 41
0
  0
VERTEX
  8
0
 10
6.34358
 20
-15.0849
 30
0.0
 40
0
 41
0
  0
VERTEX
  8
0
 10
6.37993
 20
-14.9121
 30
0.0
 40
0
 41
0
  0
VERTEX
  8
0
 10
6.41932
 20
-14.6756
 30
0.0
 40
0
 41
0
  0
VERTEX
  8
0
 10
6.44179
 20
-14.4374
 30
0.0
 40
0
 41
0
  0
VERTEX
  8
0
 10
6.44444
 20
-14.2604
 30
0.0
 40
0
 41
0
  0
VERTEX
  8
0
 10
6.44069
 20
-14.2018
 30
0.0
 40
0
 41
0
  0
VERTEX
  8
0
 10
6.43815
 20
-14.1654
 30
0.0
 40
0
 41
0
  0
VERTEX
  8
0
 10
6.42182
 20
-13.9836
 30
0.0
 40
0
 41
0
  0
VERTEX
  8
0
 10
6.43061
 20
-13.8018
 30
0.0
 40
0
 41
0
  0
VERTEX
  8
0
 10
6.44069
 20
-13.7655
 30
0.0
 40
0
 41
0
  0
VERTEX
  8
0
 10
6.44819
 20
-13.7267
 30
0.0
 40
0
 41
0
  0
VERTEX
  8
0
 10
6.51969
 20
-13.5388
 30
0.0
 40
0
 41
0
  0
VERTEX
  8
0
 10
6.60628
 20
-13.3558
 30
0.0
 40
0
 41
0
  0
VERTEX
  8
0
 10
6.62136
 20
-13.3195
 30
0.0
 40
0
 41
0
  0
VERTEX
  8
0
 10
6.63053
 20
-13.2977
 30
0.0
 40
0
 41
0
  0
VERTEX
  8
0
 10
6.65549
 20
-13.2313
 30
0.0
 40
0
 41
0
  0
VERTEX
  8
0
 10
6.69114
 20
-13.1304
 30
0.0
 40
0
 41
0
  0
VERTEX
  8
0
 10
6.72987
 20
-13.0222
 30
0.0
 40
0
 41
0
  0
VERTEX
  8
0
 10
6.77322
 20
-12.9122
 30
0.0
 40
0
 41
0
  0
VERTEX
  8
0
 10
6.82264
 20
-12.8059
 30
0.0
 40
0
 41
0
  0
VERTEX
  8
0
 10
6.87972
 20
-12.7086
 30
0.0
 40
0
 41
0
  0
VERTEX
  8
0
 10
6.94596
 20
-12.6259
 30
0.0
 40
0
 41
0
  0
VERTEX
  8
0
 10
7.00196
 20
-12.5761
 30
0.0
 40
0
 41
0
  0
VERTEX
  8
0
 10
7.02294
 20
-12.5632
 30
0.0
 40
0
 41
0
  0
VERTEX
  8
0
 10
7.04801
 20
-12.5486
 30
0.0
 40
0
 41
0
  0
VERTEX
  8
0
 10
7.17225
 20
-12.4892
 30
0.0
 40
0
 41
0
  0
VERTEX
  8
0
 10
7.2915
 20
-12.425
 30
0.0
 40
0
 41
0
  0
VERTEX
  8
0
 10
7.31413
 20
-12.408
 30
0.0
 40
0
 41
0
  0
VERTEX
  8
0
 10
7.34169
 20
-12.3862
 30
0.0
 40
0
 41
0
  0
VERTEX
  8
0
 10
7.46718
 20
-12.259
 30
0.0
 40
0
 41
0
  0
VERTEX
  8
0
 10
7.58262
 20
-12.1172
 30
0.0
 40
0
 41
0
  0
VERTEX
  8
0
 10
7.60525
 20
-12.0881
 30
0.0
 40
0
 41
0
  0
VERTEX
  8
0
 10
7.65294
 20
-12.0323
 30
0.0
 40
0
 41
0
  0
VERTEX
  8
0
 10
7.90517
 20
-11.7608
 30
0.0
 40
0
 41
0
  0
VERTEX
  8
0
 10
8.17247
 20
-11.4991
 30
0.0
 40
0
 41
0
  0
VERTEX
  8
0
 10
8.22771
 20
-11.4482
 30
0.0
 40
0
 41
0
  0
VERTEX
  8
0
 10
8.31967
 20
-11.3666
 30
0.0
 40
0
 41
0
  0
VERTEX
  8
0
 10
8.60558
 20
-11.1329
 30
0.0
 40
0
 41
0
  0
VERTEX
  8
0
 10
8.99946
 20
-10.8385
 30
0.0
 40
0
 41
0
  0
VERTEX
  8
0
 10
9.40653
 20
-10.5605
 30
0.0
 40
0
 41
0
  0
VERTEX
  8
0
 10
9.71886
 20
-10.3597
 30
0.0
 40
0
 41
0
  0
VERTEX
  8
0
 10
9.824
 20
-10.2944
 30
0.0
 40
0
 41
0
  0
VERTEX
  8
0
 10
10.0365
 20
-10.1654
 30
0.0
 40
0
 41
0
  0
VERTEX
  8
0
 10
10.6837
 20
-9.79411
 30
0.0
 40
0
 41
0
  0
VERTEX
  8
0
 10
11.552
 20
-9.31022
 30
0.0
 40
0
 41
0
  0
VERTEX
  8
0
 10
12.4146
 20
-8.81907
 30
0.0
 40
0
 41
0
  0
VERTEX
  8
0
 10
13.0506
 20
-8.43326
 30
0.0
 40
0
 41
0
  0
VERTEX
  8
0
 10
13.2575
 20
-8.29704
 30
0.0
 40
0
 41
0
  0
VERTEX
  8
0
 10
13.3583
 20
-8.23058
 30
0.0
 40
0
 41
0
  0
VERTEX
  8
0
 10
13.6612
 20
-8.03162
 30
0.0
 40
0
 41
0
  0
VERTEX
  8
0
 10
14.0651
 20
-7.76449
 30
0.0
 40
0
 41
0
  0
VERTEX
  8
0
 10
14.4665
 20
-7.49306
 30
0.0
 40
0
 41
0
  0
VERTEX
  8
0
 10
14.8625
 20
-7.21474
 30
0.0
 40
0
 41
0
  0
VERTEX
  8
0
 10
15.2506
 20
-6.92681
 30
0.0
 40
0
 41
0
  0
VERTEX
  8
0
 10
15.6279
 20
-6.62674
 30
0.0
 40
0
 41
0
  0
VERTEX
  8
0
 10
15.9918
 20
-6.31196
 30
0.0
 40
0
 41
0
  0
VERTEX
  8
0
 10
16.255
 20
-6.06511
 30
0.0
 40
0
 41
0
  0
VERTEX
  8
0
 10
16.3396
 20
-5.97976
 30
0.0
 40
0
 41
0
  0
VERTEX
  8
0
 10
16.4201
 20
-5.89839
 30
0.0
 40
0
 41
0
  0
VERTEX
  8
0
 10
16.665
 20
-5.65733
 30
0.0
 40
0
 41
0
  0
VERTEX
  8
0
 10
16.9846
 20
-5.33496
 30
0.0
 40
0
 41
0
  0
VERTEX
  8
0
 10
17.2854
 20
-4.99799
 30
0.0
 40
0
 41
0
  0
VERTEX
  8
0
 10
17.4931
 20
-4.72721
 30
0.0
 40
0
 41
0
  0
VERTEX
  8
0
 10
17.5544
 20
-4.632
 30
0.0
 40
0
 41
0
  0
VERTEX
  8
0
 10
17.5946
 20
-4.56896
 30
0.0
 40
0
 41
0
  0
VERTEX
  8
0
 10
17.7954
 20
-4.24783
 30
0.0
 40
0
 41
0
  0
VERTEX
  8
0
 10
17.976
 20
-3.92176
 30
0.0
 40
0
 41
0
  0
VERTEX
  8
0
 10
18.0062
 20
-3.85633
 30
0.0
 40
0
 41
0
  0
VERTEX
  8
0
 10
18.0362
 20
-3.79085
 30
0.0
 40
0
 41
0
  0
VERTEX
  8
0
 10
18.1668
 20
-3.44667
 30
0.0
 40
0
 41
0
  0
VERTEX
  8
0
 10
18.2772
 20
-3.09278
 30
0.0
 40
0
 41
0
  0
VERTEX
  8
0
 10
18.2974
 20
-3.02251
 30
0.0
 40
0
 41
0
  0
VERTEX
  8
0
 10
18.3139
 20
-2.96712
 30
0.0
 40
0
 41
0
  0
VERTEX
  8
0
 10
18.345
 20
-2.79542
 30
0.0
 40
0
 41
0
  0
VERTEX
  8
0
 10
18.3626
 20
-2.5656
 30
0.0
 40
0
 41
0
  0
VERTEX
  8
0
 10
18.3651
 20
-2.33393
 30
0.0
 40
0
 41
0
  0
VERTEX
  8
0
 10
18.3657
 20
-2.15944
 30
0.0
 40
0
 41
0
  0
VERTEX
  8
0
 10
18.3676
 20
-2.1014
 30
0.0
 40
0
 41
0
  0
VERTEX
  8
0
 10
18.3676
 20
-2.0409
 30
0.0
 40
0
 41
0
  0
VERTEX
  8
0
 10
18.3549
 20
-1.85943
 30
0.0
 40
0
 41
0
  0
VERTEX
  8
0
 10
18.3186
 20
-1.63476
 30
0.0
 40
0
 41
0
  0
VERTEX
  8
0
 10
18.2617
 20
-1.41553
 30
0.0
 40
0
 41
0
  0
VERTEX
  8
0
 10
18.2068
 20
-1.24593
 30
0.0
 40
0
 41
0
  0
VERTEX
  8
0
 10
18.1869
 20
-1.19
 30
0.0
 40
0
 41
0
  0
VERTEX
  8
0
 10
18.1497
 20
-1.08393
 30
0.0
 40
0
 41
0
  0
VERTEX
  8
0
 10
18.025
 20
-0.770344
 30
0.0
 40
0
 41
0
  0
VERTEX
  8
0
 10
17.8331
 20
-0.370714
 30
0.0
 40
0
 41
0
  0
VERTEX
  8
0
 10
17.5996
 20
0.00716146
 30
0.0
 40
0
 41
0
  0
VERTEX
  8
0
 10
17.3906
 20
0.277994
 30
0.0
 40
0
 41
0
  0
VERTEX
  8
0
 10
17.3135
 20
0.361328
 30
0.0
 40
0
 41
0
  0
VERTEX
  8
0
 10
17.2381
 20
0.443197
 30
0.0
 40
0
 41
0
  0
VERTEX
  8
0
 10
16.9997
 20
0.677518
 30
0.0
 40
0
 41
0
  0
VERTEX
  8
0
 10
16.6635
 20
0.970975
 30
0.0
 40
0
 41
0
  0
VERTEX
  8
0
 10
16.3082
 20
1.24078
 30
0.0
 40
0
 41
0
  0
VERTEX
  8
0
 10
16.0324
 20
1.42774
 30
0.0
 40
0
 41
0
  0
VERTEX
  8
0
 10
15.9381
 20
1.48606
 30
0.0
 40
0
 41
0
  0
VERTEX
  8
0
 10
15.8904
 20
1.51551
 30
0.0
 40
0
 41
0
  0
VERTEX
  8
0
 10
15.7415
 20
1.59392
 30
0.0
 40
0
 41
0
  0
VERTEX
  8
0
 10
15.5326
 20
1.68722
 30
0.0
 40
0
 41
0
  0
VERTEX
  8
0
 10
15.3182
 20
1.76964
 30
0.0
 40
0
 41
0
  0
VERTEX
  8
0
 10
15.1582
 20
1.82633
 30
0.0
 40
0
 41
0
  0
VERTEX
  8
0
 10
15.1047
 20
1.84478
 30
0.0
 40
0
 41
0
  0
VERTEX
  8
0
 10
15.0671
 20
1.85693
 30
0.0
 40
0
 41
0
  0
VERTEX
  8
0
 10
14.8839
 20
1.91265
 30
0.0
 40
0
 41
0
  0
VERTEX
  8
0
 10
14.7007
 20
1.96843
 30
0.0
 40
0
 41
0
  0
VERTEX
  8
0
 10
14.6631
 20
1.98053
 30
0.0
 40
0
 41
0
  0
VERTEX
  8
0
 10
14.6203
 20
1.99268
 30
0.0
 40
0
 41
0
  0
VERTEX
  8
0
 10
14.4171
 20
2.06662
 30
0.0
 40
0
 41
0
  0
VERTEX
  8
0
 10
14.2138
 20
2.13569
 30
0.0
 40
0
 41
0
  0
VERTEX
  8
0
 10
14.1711
 20
2.14535
 30
0.0
 40
0
 41
0
  0
VERTEX
  8
0
 10
14.1121
 20
2.16189
 30
0.0
 40
0
 41
0
  0
VERTEX
  8
0
 10
13.9312
 20
2.19792
 30
0.0
 40
0
 41
0
  0
VERTEX
  8
0
 10
13.6829
 20
2.23139
 30
0.0
 40
0
 41
0
  0
VERTEX
  8
0
 10
13.4327
 20
2.25581
 30
0.0
 40
0
 41
0
  0
VERTEX
  8
0
 10
13.2484
 20
2.27371
 30
0.0
 40
0
 41
0
  0
VERTEX
  8
0
 10
13.1872
 20
2.28108
 30
0.0
 40
0
 41
0
  0
VERTEX
  8
0
 10
13.1044
 20
2.28836
 30
0.0
 40
0
 41
0
  0
VERTEX
  8
0
 10
12.684
 20
2.31506
 30
0.0
 40
0
 41
0
  0
VERTEX
  8
0
 10
12.2586
 20
2.32232
 30
0.0
 40
0
 41
0
  0
VERTEX
  8
0
 10
12.1732
 20
2.31988
 30
0.0
 40
0
 41
0
  0
VERTEX
  8
0
 10
12.0904
 20
2.31506
 30
0.0
 40
0
 41
0
  0
VERTEX
  8
0
 10
11.6813
 20
2.26535
 30
0.0
 40
0
 41
0
  0
VERTEX
  8
0
 10
11.2721
 20
2.21078
 30
0.0
 40
0
 41
0
  0
VERTEX
  8
0
 10
11.1893
 20
2.2035
 30
0.0
 40
0
 41
0
  0
VERTEX
  8
0
 10
11.1282
 20
2.19819
 30
0.0
 40
0
 41
0
  0
VERTEX
  8
0
 10
10.9459
 20
2.17036
 30
0.0
 40
0
 41
0
  0
VERTEX
  8
0
 10
10.71
 20
2.1199
 30
0.0
 40
0
 41
0
  0
VERTEX
  8
0
 10
10.4778
 20
2.06039
 30
0.0
 40
0
 41
0
  0
VERTEX
  8
0
 10
10.3038
 20
2.01443
 30
0.0
 40
0
 41
0
  0
VERTEX
  8
0
 10
10.2457
 20
1.99989
 30
0.0
 40
0
 41
0
  0
VERTEX
  8
0
 10
10.1303
 20
1.96935
 30
0.0
 40
0
 41
0
  0
VERTEX
  8
0
 10
9.78917
 20
1.85915
 30
0.0
 40
0
 41
0
  0
VERTEX
  8
0
 10
9.34961
 20
1.68842
 30
0.0
 40
0
 41
0
  0
VERTEX
  8
0
 10
8.92133
 20
1.49408
 30
0.0
 40
0
 41
0
  0
VERTEX
  8
0
 10
8.60368
 20
1.33675
 30
0.0
 40
0
 41
0
  0
VERTEX
  8
0
 10
8.49875
 20
1.28244
 30
0.0
 40
0
 41
0
  0
VERTEX
  8
0
 10
8.39611
 20
1.22922
 30
0.0
 40
0
 41
0
  0
VERTEX
  8
0
 10
8.09526
 20
1.05583
 30
0.0
 40
0
 41
0
  0
VERTEX
  8
0
 10
7.70313
 20
0.800076
 30
0.0
 40
0
 41
0
  0
VERTEX
  8
0
 10
7.32975
 20
0.518881
 30
0.0
 40
0
 41
0
  0
VERTEX
  8
0
 10
7.06646
 20
0.294814
 30
0.0
 40
0
 41
0
  0
VERTEX
  8
0
 10
6.98281
 20
0.215821
 30
0.0
 40
0
 41
0
  0
VERTEX
  8
0
 10
6.89865
 20
0.136393
 30
0.0
 40
0
 41
0
  0
VERTEX
  8
0
 10
6.65539
 20
-0.111654
 30
0.0
 40
0
 41
0
  0
VERTEX
  8
0
 10
6.35157
 20
-0.455513
 30
0.0
 40
0
 41
0
  0
VERTEX
  8
0
 10
6.07215
 20
-0.8176
 30
0.0
 40
0
 41
0
  0
VERTEX
  8
0
 10
5.87815
 20
-1.102
 30
0.0
 40
0
 41
0
  0
VERTEX
  8
0
 10
5.81825
 20
-1.19971
 30
0.0
 40
0
 41
0
  0
VERTEX
  8
0
 10
5.77806
 20
-1.26758
 30
0.0
 40
0
 41
0
  0
VERTEX
  8
0
 10
5.5911
 20
-1.61296
 30
0.0
 40
0
 41
0
  0
VERTEX
  8
0
 10
5.41917
 20
-1.96326
 30
0.0
 40
0
 41
0
  0
VERTEX
  8
0
 10
5.38656
 20
-2.03358
 30
0.0
 40
0
 41
0
  0
VERTEX
  8
0
 10
5.38411
 20
-2.03825
 30
0.0
 40
0
 41
0
  0
VERTEX
  8
0
 10
5.37646
 20
-2.05225
 30
0.0
 40
0
 41
0
  0
VERTEX
  8
0
 10
5.36268
 20
-2.07781
 30
0.0
 40
0
 41
0
  0
VERTEX
  8
0
 10
5.34694
 20
-2.10786
 30
0.0
 40
0
 41
0
  0
VERTEX
  8
0
 10
5.33128
 20
-2.14019
 30
0.0
 40
0
 41
0
  0
VERTEX
  8
0
 10
5.31749
 20
-2.17253
 30
0.0
 40
0
 41
0
  0
VERTEX
  8
0
 10
5.30746
 20
-2.20258
 30
0.0
 40
0
 41
0
  0
VERTEX
  8
0
 10
5.30306
 20
-2.22814
 30
0.0
 40
0
 41
0
  0
VERTEX
  8
0
 10
5.3041
 20
-2.24283
 30
0.0
 40
0
 41
0
  0
VERTEX
  8
0
 10
5.30621
 20
-2.24685
 30
0.0
 40
0
 41
0
  0
VERTEX
  8
0
 10
5.30979
 20
-2.25379
 30
0.0
 40
0
 41
0
  0
VERTEX
  8
0
 10
5.33094
 20
-2.26942
 30
0.0
 40
0
 41
0
  0
VERTEX
  8
0
 10
5.36893
 20
-2.28196
 30
0.0
 40
0
 41
0
  0
VERTEX
  8
0
 10
5.41069
 20
-2.28907
 30
0.0
 40
0
 41
0
  0
VERTEX
  8
0
 10
5.43788
 20
-2.29312
 30
0.0
 40
0
 41
0
  0
VERTEX
  8
0
 10
5.44678
 20
-2.29531
 30
0.0
 40
0
 41
0
  0
VERTEX
  8
0
 10
5.47086
 20
-2.30604
 30
0.0
 40
0
 41
0
  0
VERTEX
  8
0
 10
5.53787
 20
-2.35032
 30
0.0
 40
0
 41
0
  0
VERTEX
  8
0
 10
5.61865
 20
-2.42258
 30
0.0
 40
0
 41
0
  0
VERTEX
  8
0
 10
5.69379
 20
-2.50396
 30
0.0
 40
0
 41
0
  0
VERTEX
  8
0
 10
5.74903
 20
-2.56608
 30
0.0
 40
0
 41
0
  0
VERTEX
  8
0
 10
5.76801
 20
-2.58626
 30
0.0
 40
0
 41
0
  0
VERTEX
  8
0
 10
5.82069
 20
-2.64199
 30
0.0
 40
0
 41
0
  0
VERTEX
  8
0
 10
6.09804
 20
-2.91585
 30
0.0
 40
0
 41
0
  0
VERTEX
  8
0
 10
6.39046
 20
-3.17042
 30
0.0
 40
0
 41
0
  0
VERTEX
  8
0
 10
6.45074
 20
-3.21647
 30
0.0
 40
0
 41
0
  0
VERTEX
  8
0
 10
6.46615
 20
-3.22922
 30
0.0
 40
0
 41
0
  0
VERTEX
  8
0
 10
6.51172
 20
-3.26839
 30
0.0
 40
0
 41
0
  0
VERTEX
  8
0
 10
6.58496
 20
-3.32671
 30
0.0
 40
0
 41
0
  0
VERTEX
  8
0
 10
6.6639
 20
-3.37592
 30
0.0
 40
0
 41
0
  0
VERTEX
  8
0
 10
6.72194
 20
-3.39871
 30
0.0
 40
0
 41
0
  0
VERTEX
  8
0
 10
6.74186
 20
-3.40067
 30
0.0
 40
0
 41
0
  0
VERTEX
  8
0
 10
6.75982
 20
-3.40224
 30
0.0
 40
0
 41
0
  0
VERTEX
  8
0
 10
6.81603
 20
-3.38249
 30
0.0
 40
0
 41
0
  0
VERTEX
  8
0
 10
6.87614
 20
-3.3279
 30
0.0
 40
0
 41
0
  0
VERTEX
  8
0
 10
6.92681
 20
-3.25885
 30
0.0
 40
0
 41
0
  0
VERTEX
  8
0
 10
6.96001
 20
-3.21137
 30
0.0
 40
0
 41
0
  0
VERTEX
  8
0
 10
6.97276
 20
-3.19706
 30
0.0
 40
0
 41
0
  0
VERTEX
  8
0
 10
7.0179
 20
-3.134
 30
0.0
 40
0
 41
0
  0
VERTEX
  8
0
 10
7.24631
 20
-2.81521
 30
0.0
 40
0
 41
0
  0
VERTEX
  8
0
 10
7.48475
 20
-2.50136
 30
0.0
 40
0
 41
0
  0
VERTEX
  8
0
 10
7.535
 20
-2.44075
 30
0.0
 40
0
 41
0
  0
VERTEX
  8
0
 10
7.56256
 20
-2.40924
 30
0.0
 40
0
 41
0
  0
VERTEX
  8
0
 10
7.69558
 20
-2.24685
 30
0.0
 40
0
 41
0
  0
VERTEX
  8
0
 10
7.82861
 20
-2.08442
 30
0.0
 40
0
 41
0
  0
VERTEX
  8
0
 10
7.85622
 20
-2.05296
 30
0.0
 40
0
 41
0
  0
VERTEX
  8
0
 10
7.87131
 20
-2.03629
 30
0.0
 40
0
 41
0
  0
VERTEX
  8
0
 10
7.91894
 20
-1.98839
 30
0.0
 40
0
 41
0
  0
VERTEX
  8
0
 10
7.98172
 20
-1.91471
 30
0.0
 40
0
 41
0
  0
VERTEX
  8
0
 10
8.01432
 20
-1.83746
 30
0.0
 40
0
 41
0
  0
VERTEX
  8
0
 10
7.99935
 20
-1.77556
 30
0.0
 40
0
 41
0
  0
VERTEX
  8
0
 10
7.98676
 20
-1.76204
 30
0.0
 40
0
 41
0
  0
VERTEX
  8
0
 10
7.97071
 20
-1.74457
 30
0.0
 40
0
 41
0
  0
VERTEX
  8
0
 10
7.91038
 20
-1.7034
 30
0.0
 40
0
 41
0
  0
VERTEX
  8
0
 10
7.81233
 20
-1.65663
 30
0.0
 40
0
 41
0
  0
VERTEX
  8
0
 10
7.70861
 20
-1.61887
 30
0.0
 40
0
 41
0
  0
VERTEX
  8
0
 10
7.63846
 20
-1.59565
 30
0.0
 40
0
 41
0
  0
VERTEX
  8
0
 10
7.61529
 20
-1.58751
 30
0.0
 40
0
 41
0
  0
VERTEX
  8
0
 10
7.58724
 20
-1.57563
 30
0.0
 40
0
 41
0
  0
VERTEX
  8
0
 10
7.50276
 20
-1.54085
 30
0.0
 40
0
 41
0
  0
VERTEX
  8
0
 10
7.40067
 20
-1.51237
 30
0.0
 40
0
 41
0
  0
VERTEX
  8
0
 10
7.30046
 20
-1.5166
 30
0.0
 40
0
 41
0
  0
VERTEX
  8
0
 10
7.21744
 20
-1.55122
 30
0.0
 40
0
 41
0
  0
VERTEX
  8
0
 10
7.19362
 20
-1.56814
 30
0.0
 40
0
 41
0
  0
VERTEX
  8
0
 10
7.17893
 20
-1.57829
 30
0.0
 40
0
 41
0
  0
VERTEX
  8
0
 10
7.1346
 20
-1.6084
 30
0.0
 40
0
 41
0
  0
VERTEX
  8
0
 10
7.06814
 20
-1.64328
 30
0.0
 40
0
 41
0
  0
VERTEX
  8
0
 10
7.00163
 20
-1.65267
 30
0.0
 40
0
 41
0
  0
VERTEX
  8
0
 10
6.95285
 20
-1.62929
 30
0.0
 40
0
 41
0
  0
VERTEX
  8
0
 10
6.94265
 20
-1.61664
 30
0.0
 40
0
 41
0
  0
VERTEX
  8
0
 10
6.9356
 20
-1.60986
 30
0.0
 40
0
 41
0
  0
VERTEX
  8
0
 10
6.92096
 20
-1.58296
 30
0.0
 40
0
 41
0
  0
VERTEX
  8
0
 10
6.91396
 20
-1.54178
 30
0.0
 40
0
 41
0
  0
VERTEX
  8
0
 10
6.91846
 20
-1.49561
 30
0.0
 40
0
 41
0
  0
VERTEX
  8
0
 10
6.93132
 20
-1.44694
 30
0.0
 40
0
 41
0
  0
VERTEX
  8
0
 10
6.94938
 20
-1.39828
 30
0.0
 40
0
 41
0
  0
VERTEX
  8
0
 10
6.96946
 20
-1.35211
 30
0.0
 40
0
 41
0
  0
VERTEX
  8
0
 10
6.98833
 20
-1.31093
 30
0.0
 40
0
 41
0
  0
VERTEX
  8
0
 10
6.99957
 20
-1.28581
 30
0.0
 40
0
 41
0
  0
VERTEX
  8
0
 10
7.00288
 20
-1.27729
 30
0.0
 40
0
 41
0
  0
VERTEX
  8
0
 10
7.01269
 20
-1.2564
 30
0.0
 40
0
 41
0
  0
VERTEX
  8
0
 10
7.0434
 20
-1.19428
 30
0.0
 40
0
 41
0
  0
VERTEX
  8
0
 10
7.08996
 20
-1.10775
 30
0.0
 40
0
 41
0
  0
VERTEX
  8
0
 10
7.14279
 20
-1.02143
 30
0.0
 40
0
 41
0
  0
VERTEX
  8
0
 10
7.20242
 20
-0.939128
 30
0.0
 40
0
 41
0
  0
VERTEX
  8
0
 10
7.26904
 20
-0.864529
 30
0.0
 40
0
 41
0
  0
VERTEX
  8
0
 10
7.34315
 20
-0.801432
 30
0.0
 40
0
 41
0
  0
VERTEX
  8
0
 10
7.42497
 20
-0.753526
 30
0.0
 40
0
 41
0
  0
VERTEX
  8
0
 10
7.49186
 20
-0.729058
 30
0.0
 40
0
 41
0
  0
VERTEX
  8
0
 10
7.51492
 20
-0.72461
 30
0.0
 40
0
 41
0
  0
VERTEX
  8
0
 10
7.54378
 20
-0.718479
 30
0.0
 40
0
 41
0
  0
VERTEX
  8
0
 10
7.63265
 20
-0.710829
 30
0.0
 40
0
 41
0
  0
VERTEX
  8
0
 10
7.7455
 20
-0.718044
 30
0.0
 40
0
 41
0
  0
VERTEX
  8
0
 10
7.85406
 20
-0.742839
 30
0.0
 40
0
 41
0
  0
VERTEX
  8
0
 10
7.95915
 20
-0.781575
 30
0.0
 40
0
 41
0
  0
VERTEX
  8
0
 10
8.06136
 20
-0.830729
 30
0.0
 40
0
 41
0
  0
VERTEX
  8
0
 10
8.16151
 20
-0.886882
 30
0.0
 40
0
 41
0
  0
VERTEX
  8
0
 10
8.26019
 20
-0.946397
 30
0.0
 40
0
 41
0
  0
VERTEX
  8
0
 10
8.33361
 20
-0.991211
 30
0.0
 40
0
 41
0
  0
VERTEX
  8
0
 10
8.35824
 20
-1.00586
 30
0.0
 40
0
 41
0
  0
VERTEX
  8
0
 10
8.37956
 20
-1.01818
 30
0.0
 40
0
 41
0
  0
VERTEX
  8
0
 10
8.44179
 20
-1.05865
 30
0.0
 40
0
 41
0
  0
VERTEX
  8
0
 10
8.53765
 20
-1.11605
 30
0.0
 40
0
 41
0
  0
VERTEX
  8
0
 10
8.63917
 20
-1.15712
 30
0.0
 40
0
 41
0
  0
VERTEX
  8
0
 10
8.71599
 20
-1.16623
 30
0.0
 40
0
 41
0
  0
VERTEX
  8
0
 10
8.73975
 20
-1.16097
 30
0.0
 40
0
 41
0
  0
VERTEX
  8
0
 10
8.76421
 20
-1.155
 30
0.0
 40
0
 41
0
  0
VERTEX
  8
0
 10
8.8329
 20
-1.11713
 30
0.0
 40
0
 41
0
  0
VERTEX
  8
0
 10
8.92796
 20
-1.04335
 30
0.0
 40
0
 41
0
  0
VERTEX
  8
0
 10
9.01921
 20
-0.960504
 30
0.0
 40
0
 41
0
  0
VERTEX
  8
0
 10
9.07969
 20
-0.906033
 30
0.0
 40
0
 41
0
  0
VERTEX
  8
0
 10
9.10113
 20
-0.889486
 30
0.0
 40
0
 41
0
  0
VERTEX
  8
0
 10
9.15886
 20
-0.840983
 30
0.0
 40
0
 41
0
  0
VERTEX
  8
0
 10
9.46126
 20
-0.607042
 30
0.0
 40
0
 41
0
  0
VERTEX
  8
0
 10
9.77881
 20
-0.387642
 30
0.0
 40
0
 41
0
  0
VERTEX
  8
0
 10
9.84407
 20
-0.346462
 30
0.0
 40
0
 41
0
  0
VERTEX
  8
0
 10
9.91183
 20
-0.302789
 30
0.0
 40
0
 41
0
  0
VERTEX
  8
0
 10
10.2544
 20
-0.1065
 30
0.0
 40
0
 41
0
  0
VERTEX
  8
0
 10
10.6121
 20
0.0607639
 30
0.0
 40
0
 41
0
  0
VERTEX
  8
0
 10
10.6874
 20
0.0898438
 30
0.0
 40
0
 41
0
  0
VERTEX
  8
0
 10
10.7014
 20
0.0958658
 30
0.0
 40
0
 41
0
  0
VERTEX
  8
0
 10
10.744
 20
0.112793
 30
0.0
 40
0
 41
0
  0
VERTEX
  8
0
 10
10.8375
 20
0.147732
 30
0.0
 40
0
 41
0
  0
VERTEX
  8
0
 10
10.9547
 20
0.187717
 30
0.0
 40
0
 41
0
  0
VERTEX
  8
0
 10
11.0827
 20
0.225586
 30
0.0
 40
0
 41
0
  0
VERTEX
  8
0
 10
11.2082
 20
0.254449
 30
0.0
 40
0
 41
0
  0
VERTEX
  8
0
 10
11.3184
 20
0.26709
 30
0.0
 40
0
 41
0
  0
VERTEX
  8
0
 10
11.4002
 20
0.256565
 30
0.0
 40
0
 41
0
  0
VERTEX
  8
0
 10
11.4373
 20
0.22781
 30
0.0
 40
0
 41
0
  0
VERTEX
  8
0
 10
11.4404
 20
0.215821
 30
0.0
 40
0
 41
0
  0
VERTEX
  8
0
 10
11.4429
 20
0.20676
 30
0.0
 40
0
 41
0
  0
VERTEX
  8
0
 10
11.4368
 20
0.175618
 30
0.0
 40
0
 41
0
  0
VERTEX
  8
0
 10
11.408
 20
0.135579
 30
0.0
 40
0
 41
0
  0
VERTEX
  8
0
 10
11.3609
 20
0.096951
 30
0.0
 40
0
 41
0
  0
VERTEX
  8
0
 10
11.3023
 20
0.0607639
 30
0.0
 40
0
 41
0
  0
VERTEX
  8
0
 10
11.2389
 20
0.0282661
 30
0.0
 40
0
 41
0
  0
VERTEX
  8
0
 10
11.1777
 20
0.000488282
 30
0.0
 40
0
 41
0
  0
VERTEX
  8
0
 10
11.1254
 20
-0.0213758
 30
0.0
 40
0
 41
0
  0
VERTEX
  8
0
 10
11.098
 20
-0.0323893
 30
0.0
 40
0
 41
0
  0
VERTEX
  8
0
 10
11.089
 20
-0.0361871
 30
0.0
 40
0
 41
0
  0
VERTEX
  8
0
 10
11.0538
 20
-0.0555556
 30
0.0
 40
0
 41
0
  0
VERTEX
  8
0
 10
10.7024
 20
-0.249457
 30
0.0
 40
0
 41
0
  0
VERTEX
  8
0
 10
10.6673
 20
-0.268881
 30
0.0
 40
0
 41
0
  0
VERTEX
  8
0
 10
10.5996
 20
-0.310058
 30
0.0
 40
0
 41
0
  0
VERTEX
  8
0
 10
10.2644
 20
-0.531901
 30
0.0
 40
0
 41
0
  0
VERTEX
  8
0
 10
9.94444
 20
-0.77794
 30
0.0
 40
0
 41
0
  0
VERTEX
  8
0
 10
9.88422
 20
-0.831272
 30
0.0
 40
0
 41
0
  0
VERTEX
  8
0
 10
9.85661
 20
-0.853082
 30
0.0
 40
0
 41
0
  0
VERTEX
  8
0
 10
9.72358
 20
-0.96696
 30
0.0
 40
0
 41
0
  0
VERTEX
  8
0
 10
9.59056
 20
-1.08089
 30
0.0
 40
0
 41
0
  0
VERTEX
  8
0
 10
9.56299
 20
-1.10276
 30
0.0
 40
0
 41
0
  0
VERTEX
  8
0
 10
9.54264
 20
-1.12039
 30
0.0
 40
0
 41
0
  0
VERTEX
  8
0
 10
9.47885
 20
-1.17014
 30
0.0
 40
0
 41
0
  0
VERTEX
  8
0
 10
9.38726
 20
-1.24208
 30
0.0
 40
0
 41
0
  0
VERTEX
  8
0
 10
9.30317
 20
-1.31955
 30
0.0
 40
0
 41
0
  0
VERTEX
  8
0
 10
9.25347
 20
-1.38053
 30
0.0
 40
0
 41
0
  0
VERTEX
  8
0
 10
9.24169
 20
-1.40338
 30
0.0
 40
0
 41
0
  0
VERTEX
  8
0
 10
9.23335
 20
-1.42085
 30
0.0
 40
0
 41
0
  0
VERTEX
  8
0
 10
9.23178
 20
-1.48465
 30
0.0
 40
0
 41
0
  0
VERTEX
  8
0
 10
9.27556
 20
-1.54508
 30
0.0
 40
0
 41
0
  0
VERTEX
  8
0
 10
9.34754
 20
-1.59283
 30
0.0
 40
0
 41
0
  0
VERTEX
  8
0
 10
9.40424
 20
-1.62435
 30
0.0
 40
0
 41
0
  0
VERTEX
  8
0
 10
9.42242
 20
-1.63607
 30
0.0
 40
0
 41
0
  0
VERTEX
  8
0
 10
9.44814
 20
-1.65132
 30
0.0
 40
0
 41
0
  0
VERTEX
  8
0
 10
9.52371
 20
-1.69982
 30
0.0
 40
0
 41
0
  0
VERTEX
  8
0
 10
9.63069
 20
-1.76813
 30
0.0
 40
0
 41
0
  0
VERTEX
  8
0
 10
9.74143
 20
-1.83094
 30
0.0
 40
0
 41
0
  0
VERTEX
  8
0
 10
9.82508
 20
-1.86908
 30
0.0
 40
0
 41
0
  0
VERTEX
  8
0
 10
9.85411
 20
-1.87842
 30
0.0
 40
0
 41
0
  0
VERTEX
  8
0
 10
9.87414
 20
-1.88585
 30
0.0
 40
0
 41
0
  0
VERTEX
  8
0
 10
9.94179
 20
-1.88824
 30
0.0
 40
0
 41
0
  0
VERTEX
  8
0
 10
10.0135
 20
-1.85536
 30
0.0
 40
0
 41
0
  0
VERTEX
  8
0
 10
10.0757
 20
-1.79519
 30
0.0
 40
0
 41
0
  0
VERTEX
  8
0
 10
10.1203
 20
-1.74121
 30
0.0
 40
0
 41
0
  0
VERTEX
  8
0
 10
10.1352
 20
-1.72325
 30
0.0
 40
0
 41
0
  0
VERTEX
  8
0
 10
10.1628
 20
-1.69417
 30
0.0
 40
0
 41
0
  0
VERTEX
  8
0
 10
10.2945
 20
-1.54389
 30
0.0
 40
0
 41
0
  0
VERTEX
  8
0
 10
10.4213
 20
-1.39361
 30
0.0
 40
0
 41
0
  0
VERTEX
  8
0
 10
10.4465
 20
-1.36453
 30
0.0
 40
0
 41
0
  0
VERTEX
  8
0
 10
10.5016
 20
-1.30393
 30
0.0
 40
0
 41
0
  0
VERTEX
  8
0
 10
10.7953
 20
-1.01307
 30
0.0
 40
0
 41
0
  0
VERTEX
  8
0
 10
11.099
 20
-0.731825
 30
0.0
 40
0
 41
0
  0
VERTEX
  8
0
 10
11.1592
 20
-0.676107
 30
0.0
 40
0
 41
0
  0
VERTEX
  8
0
 10
11.1707
 20
-0.664985
 30
0.0
 40
0
 41
0
  0
VERTEX
  8
0
 10
11.2062
 20
-0.632758
 30
0.0
 40
0
 41
0
  0
VERTEX
  8
0
 10
11.2867
 20
-0.562175
 30
0.0
 40
0
 41
0
  0
VERTEX
  8
0
 10
11.3892
 20
-0.477051
 30
0.0
 40
0
 41
0
  0
VERTEX
  8
0
 10
11.5018
 20
-0.390082
 30
0.0
 40
0
 41
0
  0
VERTEX
  8
0
 10
11.6131
 20
-0.314019
 30
0.0
 40
0
 41
0
  0
VERTEX
  8
0
 10
11.7112
 20
-0.26161
 30
0.0
 40
0
 41
0
  0
VERTEX
  8
0
 10
11.7847
 20
-0.245551
 30
0.0
 40
0
 41
0
  0
VERTEX
  8
0
 10
11.8194
 20
-0.268664
 30
0.0
 40
0
 41
0
  0
VERTEX
  8
0
 10
11.8218
 20
-0.278592
 30
0.0
 40
0
 41
0
  0
VERTEX
  8
0
 10
11.8237
 20
-0.287761
 30
0.0
 40
0
 41
0
  0
VERTEX
  8
0
 10
11.8197
 20
-0.317329
 30
0.0
 40
0
 41
0
  0
VERTEX
  8
0
 10
11.8011
 20
-0.359754
 30
0.0
 40
0
 41
0
  0
VERTEX
  8
0
 10
11.7703
 20
-0.404025
 30
0.0
 40
0
 41
0
  0
VERTEX
  8
0
 10
11.7314
 20
-0.448296
 30
0.0
 40
0
 41
0
  0
VERTEX
  8
0
 10
11.6889
 20
-0.490722
 30
0.0
 40
0
 41
0
  0
VERTEX
  8
0
 10
11.6467
 20
-0.52946
 30
0.0
 40
0
 41
0
  0
VERTEX
  8
0
 10
11.6093
 20
-0.562825
 30
0.0
 40
0
 41
0
  0
VERTEX
  8
0
 10
11.5878
 20
-0.58214
 30
0.0
 40
0
 41
0
  0
VERTEX
  8
0
 10
11.5809
 20
-0.588867
 30
0.0
 40
0
 41
0
  0
VERTEX
  8
0
 10
11.5508
 20
-0.620335
 30
0.0
 40
0
 41
0
  0
VERTEX
  8
0
 10
11.2671
 20
-0.935547
 30
0.0
 40
0
 41
0
  0
VERTEX
  8
0
 10
11.2396
 20
-0.967068
 30
0.0
 40
0
 41
0
  0
VERTEX
  8
0
 10
11.1868
 20
-1.02523
 30
0.0
 40
0
 41
0
  0
VERTEX
  8
0
 10
10.9296
 20
-1.3221
 30
0.0
 40
0
 41
0
  0
VERTEX
  8
0
 10
10.6774
 20
-1.62392
 30
0.0
 40
0
 41
0
  0
VERTEX
  8
0
 10
10.6272
 20
-1.68451
 30
0.0
 40
0
 41
0
  0
VERTEX
  8
0
 10
10.6085
 20
-1.70649
 30
0.0
 40
0
 41
0
  0
VERTEX
  8
0
 10
10.5492
 20
-1.76947
 30
0.0
 40
0
 41
0
  0
VERTEX
  8
0
 10
10.4627
 20
-1.86262
 30
0.0
 40
0
 41
0
  0
VERTEX
  8
0
 10
10.3857
 20
-1.96126
 30
0.0
 40
0
 41
0
  0
VERTEX
  8
0
 10
10.3439
 20
-2.03592
 30
0.0
 40
0
 41
0
  0
VERTEX
  8
0
 10
10.336
 20
-2.06261
 30
0.0
 40
0
 41
0
  0
VERTEX
  8
0
 10
10.33
 20
-2.08128
 30
0.0
 40
0
 41
0
  0
VERTEX
  8
0
 10
10.333
 20
-2.14399
 30
0.0
 40
0
 41
0
  0
VERTEX
  8
0
 10
10.3724
 20
-2.20443
 30
0.0
 40
0
 41
0
  0
VERTEX
  8
0
 10
10.4362
 20
-2.25211
 30
0.0
 40
0
 41
0
  0
VERTEX
  8
0
 10
10.4893
 20
-2.28413
 30
0.0
 40
0
 41
0
  0
VERTEX
  8
0
 10
10.5067
 20
-2.29531
 30
0.0
 40
0
 41
0
  0
VERTEX
  8
0
 10
10.5303
 20
-2.31049
 30
0.0
 40
0
 41
0
  0
VERTEX
  8
0
 10
10.6003
 20
-2.35753
 30
0.0
 40
0
 41
0
  0
VERTEX
  8
0
 10
10.6987
 20
-2.42258
 30
0.0
 40
0
 41
0
  0
VERTEX
  8
0
 10
10.7989
 20
-2.4821
 30
0.0
 40
0
 41
0
  0
VERTEX
  8
0
 10
10.8726
 20
-2.51856
 30
0.0
 40
0
 41
0
  0
VERTEX
  8
0
 10
10.8982
 20
-2.52806
 30
0.0
 40
0
 41
0
  0
VERTEX
  8
0
 10
10.9188
 20
-2.53369
 30
0.0
 40
0
 41
0
  0
VERTEX
  8
0
 10
10.9867
 20
-2.52919
 30
0.0
 40
0
 41
0
  0
VERTEX
  8
0
 10
11.0488
 20
-2.48676
 30
0.0
 40
0
 41
0
  0
VERTEX
  8
0
 10
11.0959
 20
-2.41889
 30
0.0
 40
0
 41
0
  0
VERTEX
  8
0
 10
11.1277
 20
-2.36219
 30
0.0
 40
0
 41
0
  0
VERTEX
  8
0
 10
11.1392
 20
-2.34381
 30
0.0
 40
0
 41
0
  0
VERTEX
  8
0
 10
11.1688
 20
-2.2991
 30
0.0
 40
0
 41
0
  0
VERTEX
  8
0
 10
11.2638
 20
-2.16911
 30
0.0
 40
0
 41
0
  0
VERTEX
  8
0
 10
11.3989
 20
-2.00803
 30
0.0
 40
0
 41
0
  0
VERTEX
  8
0
 10
11.5472
 20
-1.85975
 30
0.0
 40
0
 41
0
  0
VERTEX
  8
0
 10
11.6688
 20
-1.75538
 30
0.0
 40
0
 41
0
  0
VERTEX
  8
0
 10
11.7114
 20
-1.72325
 30
0.0
 40
0
 41
0
  0
VERTEX
  8
0
 10
11.7307
 20
-1.70796
 30
0.0
 40
0
 41
0
  0
VERTEX
  8
0
 10
11.7887
 20
-1.66189
 30
0.0
 40
0
 41
0
  0
VERTEX
  8
0
 10
11.8557
 20
-1.60331
 30
0.0
 40
0
 41
0
  0
VERTEX
  8
0
 10
11.9133
 20
-1.53917
 30
0.0
 40
0
 41
0
  0
VERTEX
  8
0
 10
11.9519
 20
-1.48178
 30
0.0
 40
0
 41
0
  0
VERTEX
  8
0
 10
11.9624
 20
-1.46149
 30
0.0
 40
0
 41
0
  0
VERTEX
  8
0
 10
11.9799
 20
-1.42751
 30
0.0
 40
0
 41
0
  0
VERTEX
  8
0
 10
12.1632
 20
-1.08816
 30
0.0
 40
0
 41
0
  0
VERTEX
  8
0
 10
12.1833
 20
-1.05425
 30
0.0
 40
0
 41
0
  0
VERTEX
  8
0
 10
12.2094
 20
-1.01091
 30
0.0
 40
0
 41
0
  0
VERTEX
  8
0
 10
12.2979
 20
-0.88699
 30
0.0
 40
0
 41
0
  0
VERTEX
  8
0
 10
12.4305
 20
-0.734267
 30
0.0
 40
0
 41
0
  0
VERTEX
  8
0
 10
12.58
 20
-0.596083
 30
0.0
 40
0
 41
0
  0
VERTEX
  8
0
 10
12.7027
 20
-0.501247
 30
0.0
 40
0
 41
0
  0
VERTEX
  8
0
 10
12.7455
 20
-0.472493
 30
0.0
 40
0
 41
0
  0
VERTEX
  8
0
 10
12.7919
 20
-0.440701
 30
0.0
 40
0
 41
0
  0
VERTEX
  8
0
 10
12.9351
 20
-0.350803
 30
0.0
 40
0
 41
0
  0
VERTEX
  8
0
 10
13.1401
 20
-0.235243
 30
0.0
 40
0
 41
0
  0
VERTEX
  8
0
 10
13.3575
 20
-0.129232
 30
0.0
 40
0
 41
0
  0
VERTEX
  8
0
 10
13.5838
 20
-0.0361871
 30
0.0
 40
0
 41
0
  0
VERTEX
  8
0
 10
13.8157
 20
0.0405274
 30
0.0
 40
0
 41
0
  0
VERTEX
  8
0
 10
14.05
 20
0.0974393
 30
0.0
 40
0
 41
0
  0
VERTEX
  8
0
 10
14.2833
 20
0.131185
 30
0.0
 40
0
 41
0
  0
VERTEX
  8
0
 10
14.4553
 20
0.140192
 30
0.0
 40
0
 41
0
  0
VERTEX
  8
0
 10
14.5124
 20
0.138346
 30
0.0
 40
0
 41
0
  0
VERTEX
  8
0
 10
14.5715
 20
0.13661
 30
0.0
 40
0
 41
0
  0
VERTEX
  8
0
 10
14.7483
 20
0.114258
 30
0.0
 40
0
 41
0
  0
VERTEX
  8
0
 10
14.9767
 20
0.0619575
 30
0.0
 40
0
 41
0
  0
VERTEX
  8
0
 10
15.2014
 20
-0.0103082
 30
0.0
 40
0
 41
0
  0
VERTEX
  8
0
 10
15.3701
 20
-0.0728082
 30
0.0
 40
0
 41
0
  0
VERTEX
  8
0
 10
15.4261
 20
-0.0944011
 30
0.0
 40
0
 41
0
  0
VERTEX
  8
0
 10
15.4735
 20
-0.112033
 30
0.0
 40
0
 41
0
  0
VERTEX
  8
0
 10
15.6132
 20
-0.173014
 30
0.0
 40
0
 41
0
  0
VERTEX
  8
0
 10
15.7862
 20
-0.265246
 30
0.0
 40
0
 41
0
  0
VERTEX
  8
0
 10
15.9499
 20
-0.373861
 30
0.0
 40
0
 41
0
  0
VERTEX
  8
0
 10
16.0704
 20
-0.468099
 30
0.0
 40
0
 41
0
  0
VERTEX
  8
0
 10
16.1087
 20
-0.501628
 30
0.0
 40
0
 41
0
  0
VERTEX
  8
0
 10
16.1501
 20
-0.53814
 30
0.0
 40
0
 41
0
  0
VERTEX
  8
0
 10
16.2676
 20
-0.65549
 30
0.0
 40
0
 41
0
  0
VERTEX
  8
0
 10
16.4011
 20
-0.816678
 30
0.0
 40
0
 41
0
  0
VERTEX
  8
0
 10
16.5139
 20
-0.992404
 30
0.0
 40
0
 41
0
  0
VERTEX
  8
0
 10
16.589
 20
-1.13949
 30
0.0
 40
0
 41
0
  0
VERTEX
  8
0
 10
16.6107
 20
-1.19
 30
0.0
 40
0
 41
0
  0
VERTEX
  8
0
 10
16.6174
 20
-1.20508
 30
0.0
 40
0
 41
0
  0
VERTEX
  8
0
 10
16.6361
 20
-1.25119
 30
0.0
 40
0
 41
0
  0
VERTEX
  8
0
 10
16.6558
 20
-1.3233
 30
0.0
 40
0
 41
0
  0
VERTEX
  8
0
 10
16.6531
 20
-1.39182
 30
0.0
 40
0
 41
0
  0
VERTEX
  8
0
 10
16.6242
 20
-1.4349
 30
0.0
 40
0
 41
0
  0
VERTEX
  8
0
 10
16.6107
 20
-1.44217
 30
0.0
 40
0
 41
0
  0
VERTEX
  8
0
 10
16.6014
 20
-1.44754
 30
0.0
 40
0
 41
0
  0
VERTEX
  8
0
 10
16.5683
 20
-1.45497
 30
0.0
 40
0
 41
0
  0
VERTEX
  8
0
 10
16.5185
 20
-1.45226
 30
0.0
 40
0
 41
0
  0
VERTEX
  8
0
 10
16.4639
 20
-1.4375
 30
0.0
 40
0
 41
0
  0
VERTEX
  8
0
 10
16.4074
 20
-1.41422
 30
0.0
 40
0
 41
0
  0
VERTEX
  8
0
 10
16.3518
 20
-1.38591
 30
0.0
 40
0
 41
0
  0
VERTEX
  8
0
 10
16.3001
 20
-1.35617
 30
0.0
 40
0
 41
0
  0
VERTEX
  8
0
 10
16.2549
 20
-1.32845
 30
0.0
 40
0
 41
0
  0
VERTEX
  8
0
 10
16.2281
 20
-1.31174
 30
0.0
 40
0
 41
0
  0
VERTEX
  8
0
 10
16.2192
 20
-1.30637
 30
0.0
 40
0
 41
0
  0
VERTEX
  8
0
 10
16.1696
 20
-1.27978
 30
0.0
 40
0
 41
0
  0
VERTEX
  8
0
 10
16.0199
 20
-1.20166
 30
0.0
 40
0
 41
0
  0
VERTEX
  8
0
 10
15.8226
 20
-1.10878
 30
0.0
 40
0
 41
0
  0
VERTEX
  8
0
 10
15.6178
 20
-1.03228
 30
0.0
 40
0
 41
0
  0
VERTEX
  8
0
 10
15.4519
 20
-0.987142
 30
0.0
 40
0
 41
0
  0
VERTEX
  8
0
 10
15.396
 20
-0.976671
 30
0.0
 40
0
 41
0
  0
VERTEX
  8
0
 10
15.3376
 20
-0.965767
 30
0.0
 40
0
 41
0
  0
VERTEX
  8
0
 10
15.161
 20
-0.942871
 30
0.0
 40
0
 41
0
  0
VERTEX
  8
0
 10
14.924
 20
-0.931803
 30
0.0
 40
0
 41
0
  0
VERTEX
  8
0
 10
14.6872
 20
-0.948025
 30
0.0
 40
0
 41
0
  0
VERTEX
  8
0
 10
14.5097
 20
-0.979926
 30
0.0
 40
0
 41
0
  0
VERTEX
  8
0
 10
14.4522
 20
-0.996094
 30
0.0
 40
0
 41
0
  0
VERTEX
  8
0
 10
14.3981
 20
-1.01139
 30
0.0
 40
0
 41
0
  0
VERTEX
  8
0
 10
14.24
 20
-1.0714
 30
0.0
 40
0
 41
0
  0
VERTEX
  8
0
 10
14.0401
 20
-1.1715
 30
0.0
 40
0
 41
0
  0
VERTEX
  8
0
 10
13.8527
 20
-1.29297
 30
0.0
 40
0
 41
0
  0
VERTEX
  8
0
 10
13.6779
 20
-1.4324
 30
0.0
 40
0
 41
0
  0
VERTEX
  8
0
 10
13.5158
 20
-1.58632
 30
0.0
 40
0
 41
0
  0
VERTEX
  8
0
 10
13.3665
 20
-1.75142
 30
0.0
 40
0
 41
0
  0
VERTEX
  8
0
 10
13.2302
 20
-1.92426
 30
0.0
 40
0
 41
0
  0
VERTEX
  8
0
 10
13.1364
 20
-2.05626
 30
0.0
 40
0
 41
0
  0
VERTEX
  8
0
 10
13.1069
 20
-2.1014
 30
0.0
 40
0
 41
0
  0
VERTEX
  8
0
 10
13.0741
 20
-2.15192
 30
0.0
 40
0
 41
0
  0
VERTEX
  8
0
 10
12.9845
 20
-2.30957
 30
0.0
 40
0
 41
0
  0
VERTEX
  8
0
 10
12.8833
 20
-2.52289
 30
0.0
 40
0
 41
0
  0
VERTEX
  8
0
 10
12.8009
 20
-2.74083
 30
0.0
 40
0
 41
0
  0
VERTEX
  8
0
 10
12.7354
 20
-2.96278
 30
0.0
 40
0
 41
0
  0
VERTEX
  8
0
 10
12.6845
 20
-3.18832
 30
0.0
 40
0
 41
0
  0
VERTEX
  8
0
 10
12.6459
 20
-3.41678
 30
0.0
 40
0
 41
0
  0
VERTEX
  8
0
 10
12.6176
 20
-3.64774
 30
0.0
 40
0
 41
0
  0
VERTEX
  8
0
 10
12.5974
 20
-3.88058
 30
0.0
 40
0
 41
0
  0
VERTEX
  8
0
 10
12.583
 20
-4.11475
 30
0.0
 40
0
 41
0
  0
VERTEX
  8
0
 10
12.5723
 20
-4.34978
 30
0.0
 40
0
 41
0
  0
VERTEX
  8
0
 10
12.5632
 20
-4.58507
 30
0.0
 40
0
 41
0
  0
VERTEX
  8
0
 10
12.5534
 20
-4.82015
 30
0.0
 40
0
 41
0
  0
VERTEX
  8
0
 10
12.5408
 20
-5.05442
 30
0.0
 40
0
 41
0
  0
VERTEX
  8
0
 10
12.5232
 20
-5.28733
 30
0.0
 40
0
 41
0
  0
VERTEX
  8
0
 10
12.4985
 20
-5.51833
 30
0.0
 40
0
 41
0
  0
VERTEX
  8
0
 10
12.4742
 20
-5.69006
 30
0.0
 40
0
 41
0
  0
VERTEX
  8
0
 10
12.4644
 20
-5.74701
 30
0.0
 40
0
 41
0
  0
VERTEX
  8
0
 10
12.4518
 20
-5.82215
 30
0.0
 40
0
 41
0
  0
VERTEX
  8
0
 10
12.3665
 20
-6.21121
 30
0.0
 40
0
 41
0
  0
VERTEX
  8
0
 10
12.251
 20
-6.59543
 30
0.0
 40
0
 41
0
  0
VERTEX
  8
0
 10
12.2234
 20
-6.66813
 30
0.0
 40
0
 41
0
  0
VERTEX
  8
0
 10
12.2047
 20
-6.71864
 30
0.0
 40
0
 41
0
  0
VERTEX
  8
0
 10
12.1344
 20
-6.86507
 30
0.0
 40
0
 41
0
  0
VERTEX
  8
0
 10
12.0239
 20
-7.05111
 30
0.0
 40
0
 41
0
  0
VERTEX
  8
0
 10
11.9001
 20
-7.22988
 30
0.0
 40
0
 41
0
  0
VERTEX
  8
0
 10
11.8037
 20
-7.36122
 30
0.0
 40
0
 41
0
  0
VERTEX
  8
0
 10
11.7717
 20
-7.405
 30
0.0
 40
0
 41
0
  0
VERTEX
  8
0
 10
11.7364
 20
-7.45144
 30
0.0
 40
0
 41
0
  0
VERTEX
  8
0
 10
11.6234
 20
-7.58529
 30
0.0
 40
0
 41
0
  0
VERTEX
  8
0
 10
11.4653
 20
-7.74935
 30
0.0
 40
0
 41
0
  0
VERTEX
  8
0
 10
11.2974
 20
-7.89908
 30
0.0
 40
0
 41
0
  0
VERTEX
  8
0
 10
11.1203
 20
-8.03646
 30
0.0
 40
0
 41
0
  0
VERTEX
  8
0
 10
10.9342
 20
-8.16336
 30
0.0
 40
0
 41
0
  0
VERTEX
  8
0
 10
10.7396
 20
-8.28168
 30
0.0
 40
0
 41
0
  0
VERTEX
  8
0
 10
10.5367
 20
-8.3935
 30
0.0
 40
0
 41
0
  0
VERTEX
  8
0
 10
10.379
 20
-8.47456
 30
0.0
 40
0
 41
0
  0
VERTEX
  8
0
 10
10.326
 20
-8.50065
 30
0.0
 40
0
 41
0
  0
VERTEX
  8
0
 10
10.2176
 20
-8.55474
 30
0.0
 40
0
 41
0
  0
VERTEX
  8
0
 10
9.88183
 20
-8.6959
 30
0.0
 40
0
 41
0
  0
VERTEX
  8
0
 10
9.42361
 20
-8.84119
 30
0.0
 40
0
 41
0
  0
VERTEX
  8
0
 10
8.95226
 20
-8.93012
 30
0.0
 40
0
 41
0
  0
VERTEX
  8
0
 10
8.58942
 20
-8.95811
 30
0.0
 40
0
 41
0
  0
VERTEX
  8
0
 10
8.46864
 20
-8.95632
 30
0.0
 40
0
 41
0
  0
VERTEX
  8
0
 10
8.40653
 20
-8.95632
 30
0.0
 40
0
 41
0
  0
VERTEX
  8
0
 10
8.22032
 20
-8.96007
 30
0.0
 40
0
 41
0
  0
VERTEX
  8
0
 10
7.97293
 20
-8.96479
 30
0.0
 40
0
 41
0
  0
VERTEX
  8
0
 10
7.72743
 20
-8.96039
 30
0.0
 40
0
 41
0
  0
VERTEX
  8
0
 10
7.54497
 20
-8.94607
 30
0.0
 40
0
 41
0
  0
VERTEX
  8
0
 10
7.48481
 20
-8.93701
 30
0.0
 40
0
 41
0
  0
VERTEX
  8
0
 10
7.4305
 20
-8.92974
 30
0.0
 40
0
 41
0
  0
VERTEX
  8
0
 10
7.26969
 20
-8.89333
 30
0.0
 40
0
 41
0
  0
VERTEX
  8
0
 10
7.05935
 20
-8.8279
 30
0.0
 40
0
 41
0
  0
VERTEX
  8
0
 10
6.85086
 20
-8.75151
 30
0.0
 40
0
 41
0
  0
VERTEX
  8
0
 10
6.69412
 20
-8.69331
 30
0.0
 40
0
 41
0
  0
VERTEX
  8
0
 10
6.6415
 20
-8.67518
 30
0.0
 40
0
 41
0
  0
VERTEX
  8
0
 10
6.53233
 20
-8.6346
 30
0.0
 40
0
 41
0
  0
VERTEX
  8
0
 10
6.21642
 20
-8.48182
 30
0.0
 40
0
 41
0
  0
VERTEX
  8
0
 10
5.82383
 20
-8.23383
 30
0.0
 40
0
 41
0
  0
VERTEX
  8
0
 10
5.46615
 20
-7.93837
 30
0.0
 40
0
 41
0
  0
VERTEX
  8
0
 10
5.14556
 20
-7.60254
 30
0.0
 40
0
 41
0
  0
VERTEX
  8
0
 10
4.86453
 20
-7.23356
 30
0.0
 40
0
 41
0
  0
VERTEX
  8
0
 10
4.62538
 20
-6.83854
 30
0.0
 40
0
 41
0
  0
VERTEX
  8
0
 10
4.43044
 20
-6.42469
 30
0.0
 40
0
 41
0
  0
VERTEX
  8
0
 10
4.31342
 20
-6.10715
 30
0.0
 40
0
 41
0
  0
VERTEX
  8
0
 10
4.28217
 20
-5.99914
 30
0.0
 40
0
 41
0
  0
VERTEX
  8
0
 10
4.27214
 20
-5.96517
 30
0.0
 40
0
 41
0
  0
VERTEX
  8
0
 10
4.23324
 20
-5.79069
 30
0.0
 40
0
 41
0
  0
VERTEX
  8
0
 10
4.19933
 20
-5.61615
 30
0.0
 40
0
 41
0
  0
VERTEX
  8
0
 10
4.19185
 20
-5.58225
 30
0.0
 40
0
 41
0
  0
VERTEX
  8
0
 10
4.18181
 20
-5.54585
 30
0.0
 40
0
 41
0
  0
VERTEX
  8
0
 10
4.12782
 20
-5.36404
 30
0.0
 40
0
 41
0
  0
VERTEX
  8
0
 10
4.07883
 20
-5.18224
 30
0.0
 40
0
 41
0
  0
VERTEX
  8
0
 10
4.07135
 20
-5.14589
 30
0.0
 40
0
 41
0
  0
VERTEX
  8
0
 10
4.06196
 20
-5.08599
 30
0.0
 40
0
 41
0
  0
VERTEX
  8
0
 10
4.04557
 20
-4.9044
 30
0.0
 40
0
 41
0
  0
VERTEX
  8
0
 10
4.03868
 20
-4.66108
 30
0.0
 40
0
 41
0
  0
VERTEX
  8
0
 10
4.04308
 20
-4.41775
 30
0.0
 40
0
 41
0
  0
VERTEX
  8
0
 10
4.04937
 20
-4.23665
 30
0.0
 40
0
 41
0
  0
VERTEX
  8
0
 10
4.05126
 20
-4.17632
 30
0.0
 40
0
 41
0
  0
VERTEX
  8
0
 10
4.05126
 20
-4.11604
 30
0.0
 40
0
 41
0
  0
VERTEX
  8
0
 10
4.06347
 20
-3.93528
 30
0.0
 40
0
 41
0
  0
VERTEX
  8
0
 10
4.0964
 20
-3.70242
 30
0.0
 40
0
 41
0
  0
VERTEX
  8
0
 10
4.14442
 20
-3.4714
 30
0.0
 40
0
 41
0
  0
VERTEX
  8
0
 10
4.18712
 20
-3.2946
 30
0.0
 40
0
 41
0
  0
VERTEX
  8
0
 10
4.20188
 20
-3.23583
 30
0.0
 40
0
 41
0
  0
VERTEX
  8
0
 10
4.215
 20
-3.18326
 30
0.0
 40
0
 41
0
  0
VERTEX
  8
0
 10
4.24593
 20
-3.02344
 30
0.0
 40
0
 41
0
  0
VERTEX
  8
0
 10
4.28342
 20
-2.80919
 30
0.0
 40
0
 41
0
  0
VERTEX
  8
0
 10
4.33029
 20
-2.595
 30
0.0
 40
0
 41
0
  0
VERTEX
  8
0
 10
4.38064
 20
-2.43397
 30
0.0
 40
0
 41
0
  0
VERTEX
  8
0
 10
4.40267
 20
-2.3826
 30
0.0
 40
0
 41
0
  0
VERTEX
  8
0
 10
4.44769
 20
-2.27567
 30
0.0
 40
0
 41
0
  0
VERTEX
  8
0
 10
4.58524
 20
-1.95594
 30
0.0
 40
0
 41
0
  0
VERTEX
  8
0
 10
4.77914
 20
-1.53663
 30
0.0
 40
0
 41
0
  0
VERTEX
  8
0
 10
4.99561
 20
-1.12815
 30
0.0
 40
0
 41
0
  0
VERTEX
  8
0
 10
5.17893
 20
-0.82959
 30
0.0
 40
0
 41
0
  0
VERTEX
  8
0
 10
5.24599
 20
-0.734321
 30
0.0
 40
0
 41
0
  0
VERTEX
  8
0
 10
5.31142
 20
-0.642199
 30
0.0
 40
0
 41
0
  0
VERTEX
  8
0
 10
5.51904
 20
-0.374024
 30
0.0
 40
0
 41
0
  0
VERTEX
  8
0
 10
5.81196
 20
-0.0337457
 30
0.0
 40
0
 41
0
  0
VERTEX
  8
0
 10
6.12549
 20
0.288357
 30
0.0
 40
0
 41
0
  0
VERTEX
  8
0
 10
6.37483
 20
0.520074
 30
0.0
 40
0
 41
0
  0
VERTEX
  8
0
 10
6.46078
 20
0.594021
 30
0.0
 40
0
 41
0
  0
VERTEX
  8
0
 10
6.54921
 20
0.67041
 30
0.0
 40
0
 41
0
  0
VERTEX
  8
0
 10
6.82374
 20
0.889051
 30
0.0
 40
0
 41
0
  0
VERTEX
  8
0
 10
7.20383
 20
1.16336
 30
0.0
 40
0
 41
0
  0
VERTEX
  8
0
 10
7.59918
 20
1.41726
 30
0.0
 40
0
 41
0
  0
VERTEX
  8
0
 10
8.00808
 20
1.65087
 30
0.0
 40
0
 41
0
  0
VERTEX
  8
0
 10
8.42871
 20
1.86453
 30
0.0
 40
0
 41
0
  0
VERTEX
  8
0
 10
8.85938
 20
2.05838
 30
0.0
 40
0
 41
0
  0
VERTEX
  8
0
 10
9.29829
 20
2.23269
 30
0.0
 40
0
 41
0
  0
VERTEX
  8
0
 10
9.63151
 20
2.35135
 30
0.0
 40
0
 41
0
  0
VERTEX
  8
0
 10
9.74365
 20
2.38769
 30
0.0
 40
0
 41
0
  0
VERTEX
  8
0
 10
9.81896
 20
2.41194
 30
0.0
 40
0
 41
0
  0
VERTEX
  8
0
 10
10.1929
 20
2.51747
 30
0.0
 40
0
 41
0
  0
VERTEX
  8
0
 10
10.5769
 20
2.59864
 30
0.0
 40
0
 41
0
  0
VERTEX
  8
0
 10
10.6573
 20
2.61074
 30
0.0
 40
0
 41
0
  0
VERTEX
  8
0
 10
10.7351
 20
2.62289
 30
0.0
 40
0
 41
0
  0
VERTEX
  8
0
 10
11.1253
 20
2.70774
 30
0.0
 40
0
 41
0
  0
VERTEX
  8
0
 10
11.5206
 20
2.79258
 30
0.0
 40
0
 41
0
  0
VERTEX
  8
0
 10
11.601
 20
2.80469
 30
0.0
 40
0
 41
0
  0
VERTEX
  8
0
 10
11.6386
 20
2.80951
 30
0.0
 40
0
 41
0
  0
VERTEX
  8
0
 10
11.8331
 20
2.8386
 30
0.0
 40
0
 41
0
  0
VERTEX
  8
0
 10
12.0327
 20
2.86774
 30
0.0
 40
0
 41
0
  0
VERTEX
  8
0
 10
12.0729
 20
2.87256
 30
0.0
 40
0
 41
0
  0
VERTEX
  8
0
 10
12.113
 20
2.87744
 30
0.0
 40
0
 41
0
  0
VERTEX
  8
0
 10
12.3188
 20
2.87983
 30
0.0
 40
0
 41
0
  0
VERTEX
  8
0
 10
12.5033
 20
2.87256
 30
0.0
 40
0
 41
0
  0
VERTEX
  8
0
 10
12.5648
 20
2.87256
 30
0.0
 40
0
 41
0
  0
VERTEX
  8
0
 10
12.6837
 20
2.87256
 30
0.0
 40
0
 41
0
  0
VERTEX
  8
0
 10
13.0404
 20
2.83621
 30
0.0
 40
0
 41
0
  0
VERTEX
  8
0
 10
13.4307
 20
2.77072
 30
0.0
 40
0
 41
0
  0
VERTEX
  8
0
 10
13.5085
 20
2.75618
 30
0.0
 40
0
 41
0
  0
VERTEX
  8
0
 10
13.5461
 20
2.74892
 30
0.0
 40
0
 41
0
  0
VERTEX
  8
0
 10
13.7293
 20
2.70167
 30
0.0
 40
0
 41
0
  0
VERTEX
  8
0
 10
13.9126
 20
2.64953
 30
0.0
 40
0
 41
0
  0
VERTEX
  8
0
 10
13.9503
 20
2.63981
 30
0.0
 40
0
 41
0
  0
VERTEX
  8
0
 10
13.9854
 20
2.63015
 30
0.0
 40
0
 41
0
  0
VERTEX
  8
0
 10
14.1674
 20
2.59868
 30
0.0
 40
0
 41
0
  0
VERTEX
  8
0
 10
14.3543
 20
2.57688
 30
0.0
 40
0
 41
0
  0
VERTEX
  8
0
 10
14.3919
 20
2.572
 30
0.0
 40
0
 41
0
  0
VERTEX
  8
0
 10
14.4481
 20
2.56478
 30
0.0
 40
0
 41
0
  0
VERTEX
  8
0
 10
14.6146
 20
2.52838
 30
0.0
 40
0
 41
0
  0
VERTEX
  8
0
 10
14.8324
 20
2.46289
 30
0.0
 40
0
 41
0
  0
VERTEX
  8
0
 10
15.0485
 20
2.3865
 30
0.0
 40
0
 41
0
  0
VERTEX
  8
0
 10
15.2108
 20
2.32829
 30
0.0
 40
0
 41
0
  0
VERTEX
  8
0
 10
15.2654
 20
2.31011
 30
0.0
 40
0
 41
0
  0
VERTEX
  8
0
 10
15.3219
 20
2.29378
 30
0.0
 40
0
 41
0
  0
VERTEX
  8
0
 10
15.4878
 20
2.23188
 30
0.0
 40
0
 41
0
  0
VERTEX
  8
0
 10
15.7046
 20
2.1345
 30
0.0
 40
0
 41
0
  0
VERTEX
  8
0
 10
15.9176
 20
2.028
 30
0.0
 40
0
 41
0
  0
VERTEX
  8
0
 10
16.0757
 20
1.94803
 30
0.0
 40
0
 41
0
  0
VERTEX
  8
0
 10
16.1288
 20
1.92236
 30
0.0
 40
0
 41
0
  0
VERTEX
  8
0
 10
16.1853
 20
1.89697
 30
0.0
 40
0
 41
0
  0
VERTEX
  8
0
 10
16.3542
 20
1.81982
 30
0.0
 40
0
 41
0
  0
VERTEX
  8
0
 10
16.5768
 20
1.71272
 30
0.0
 40
0
 41
0
  0
VERTEX
  8
0
 10
16.7938
 20
1.59651
 30
0.0
 40
0
 41
0
  0
VERTEX
  8
0
 10
16.9514
 20
1.50114
 30
0.0
 40
0
 41
0
  0
VERTEX
  8
0
 10
17.0022
 20
1.46664
 30
0.0
 40
0
 41
0
  0
VERTEX
  8
0
 10
17.0957
 20
1.40528
 30
0.0
 40
0
 41
0
  0
VERTEX
  8
0
 10
17.3688
 20
1.20991
 30
0.0
 40
0
 41
0
  0
VERTEX
  8
0
 10
17.7138
 20
0.932183
 30
0.0
 40
0
 41
0
  0
VERTEX
  8
0
 10
18.0342
 20
0.63086
 30
0.0
 40
0
 41
0
  0
VERTEX
  8
0
 10
18.2581
 20
0.388292
 30
0.0
 40
0
 41
0
  0
VERTEX
  8
0
 10
18.3275
 20
0.303168
 30
0.0
 40
0
 41
0
  0
VERTEX
  8
0
 10
18.3726
 20
0.24745
 30
0.0
 40
0
 41
0
  0
VERTEX
  8
0
 10
18.5885
 20
-0.0398221
 30
0.0
 40
0
 41
0
  0
VERTEX
  8
0
 10
18.7842
 20
-0.341581
 30
0.0
 40
0
 41
0
  0
VERTEX
  8
0
 10
18.8194
 20
-0.404622
 30
0.0
 40
0
 41
0
  0
VERTEX
  8
0
 10
18.8469
 20
-0.454264
 30
0.0
 40
0
 41
0
  0
VERTEX
  8
0
 10
18.9201
 20
-0.608507
 30
0.0
 40
0
 41
0
  0
VERTEX
  8
0
 10
19
 20
-0.814236
 30
0.0
 40
0
 41
0
  0
VERTEX
  8
0
 10
19.065
 20
-1.02365
 30
0.0
 40
0
 41
0
  0
VERTEX
  8
0
 10
19.1075
 20
-1.18457
 30
0.0
 40
0
 41
0
  0
VERTEX
  8
0
 10
19.1206
 20
-1.2385
 30
0.0
 40
0
 41
0
  0
VERTEX
  8
0
 10
19.1354
 20
-1.2959
 30
0.0
 40
0
 41
0
  0
VERTEX
  8
0
 10
19.1796
 20
-1.46832
 30
0.0
 40
0
 41
0
  0
VERTEX
  8
0
 10
19.231
 20
-1.69536
 30
0.0
 40
0
 41
0
  0
VERTEX
  8
0
 10
19.2674
 20
-1.92426
 30
0.0
 40
0
 41
0
  0
VERTEX
  8
0
 10
19.2813
 20
-2.10069
 30
0.0
 40
0
 41
0
  0
VERTEX
  8
0
 10
19.2813
 20
-2.15956
 30
0.0
 40
0
 41
0
  0
VERTEX
  8
0
 10
19.2813
 20
-2.27165
 30
0.0
 40
0
 41
0
  0
VERTEX
  8
0
 10
19.2497
 20
-2.60801
 30
0.0
 40
0
 41
0
  0
VERTEX
  8
0
 10
19.1733
 20
-2.97157
 30
0.0
 40
0
 41
0
  0
VERTEX
  8
0
 10
19.1507
 20
-3.04189
 30
0.0
 40
0
 41
0
  0
VERTEX
  8
0
 10
19.134
 20
-3.09907
 30
0.0
 40
0
 41
0
  0
VERTEX
  8
0
 10
19.0804
 20
-3.26969
 30
0.0
 40
0
 41
0
  0
VERTEX
  8
0
 10
19.0026
 20
-3.49029
 30
0.0
 40
0
 41
0
  0
VERTEX
  8
0
 10
18.9135
 20
-3.70725
 30
0.0
 40
0
 41
0
  0
VERTEX
  8
0
 10
18.8369
 20
-3.87082
 30
0.0
 40
0
 41
0
  0
VERTEX
  8
0
 10
18.8093
 20
-3.92426
 30
0.0
 40
0
 41
0
  0
VERTEX
  8
0
 10
18.781
 20
-3.97711
 30
0.0
 40
0
 41
0
  0
VERTEX
  8
0
 10
18.6974
 20
-4.13629
 30
0.0
 40
0
 41
0
  0
VERTEX
  8
0
 10
18.5835
 20
-4.34842
 30
0.0
 40
0
 41
0
  0
VERTEX
  8
0
 10
18.4621
 20
-4.55686
 30
0.0
 40
0
 41
0
  0
VERTEX
  8
0
 10
18.3631
 20
-4.70925
 30
0.0
 40
0
 41
0
  0
VERTEX
  8
0
 10
18.3275
 20
-4.75814
 30
0.0
 40
0
 41
0
  0
VERTEX
  8
0
 10
18.2579
 20
-4.85531
 30
0.0
 40
0
 41
0
  0
VERTEX
  8
0
 10
18.0375
 20
-5.13872
 30
0.0
 40
0
 41
0
  0
VERTEX
  8
0
 10
17.7268
 20
-5.50342
 30
0.0
 40
0
 41
0
  0
VERTEX
  8
0
 10
17.3979
 20
-5.85363
 30
0.0
 40
0
 41
0
  0
VERTEX
  8
0
 10
17.0536
 20
-6.19065
 30
0.0
 40
0
 41
0
  0
VERTEX
  8
0
 10
16.6967
 20
-6.51579
 30
0.0
 40
0
 41
0
  0
VERTEX
  8
0
 10
16.3297
 20
-6.83051
 30
0.0
 40
0
 41
0
  0
VERTEX
  8
0
 10
15.9554
 20
-7.13618
 30
0.0
 40
0
 41
0
  0
VERTEX
  8
0
 10
15.6718
 20
-7.36029
 30
0.0
 40
0
 41
0
  0
VERTEX
  8
0
 10
15.5767
 20
-7.43408
 30
0.0
 40
0
 41
0
  0
VERTEX
  8
0
 10
15.3825
 20
-7.58513
 30
0.0
 40
0
 41
0
  0
VERTEX
  8
0
 10
14.779
 20
-8.01113
 30
0.0
 40
0
 41
0
  0
VERTEX
  8
0
 10
13.9476
 20
-8.54546
 30
0.0
 40
0
 41
0
  0
VERTEX
  8
0
 10
13.0974
 20
-9.05251
 30
0.0
 40
0
 41
0
  0
VERTEX
  8
0
 10
12.4568
 20
-9.42378
 30
0.0
 40
0
 41
0
  0
VERTEX
  8
0
 10
12.2435
 20
-9.54779
 30
0.0
 40
0
 41
0
  0
VERTEX
  8
0
 10
12.1054
 20
-9.62776
 30
0.0
 40
0
 41
0
  0
VERTEX
  8
0
 10
11.4152
 20
-10.0374
 30
0.0
 40
0
 41
0
  0
VERTEX
  8
0
 10
10.725
 20
-10.4471
 30
0.0
 40
0
 41
0
  0
VERTEX
  8
0
 10
10.587
 20
-10.5271
 30
0.0
 40
0
 41
0
  0
VERTEX
  8
0
 10
10.4884
 20
-10.5838
 30
0.0
 40
0
 41
0
  0
VERTEX
  8
0
 10
10.1984
 20
-10.7634
 30
0.0
 40
0
 41
0
  0
VERTEX
  8
0
 10
9.82021
 20
-11.0215
 30
0.0
 40
0
 41
0
  0
VERTEX
  8
0
 10
9.45893
 20
-11.3015
 30
0.0
 40
0
 41
0
  0
VERTEX
  8
0
 10
9.20258
 20
-11.5247
 30
0.0
 40
0
 41
0
  0
VERTEX
  8
0
 10
9.12121
 20
-11.6033
 30
0.0
 40
0
 41
0
  0
VERTEX
  8
0
 10
9.07915
 20
-11.6439
 30
0.0
 40
0
 41
0
  0
VERTEX
  8
0
 10
8.94971
 20
-11.7624
 30
0.0
 40
0
 41
0
  0
VERTEX
  8
0
 10
8.77354
 20
-11.9233
 30
0.0
 40
0
 41
0
  0
VERTEX
  8
0
 10
8.60308
 20
-12.0914
 30
0.0
 40
0
 41
0
  0
VERTEX
  8
0
 10
8.48438
 20
-12.2249
 30
0.0
 40
0
 41
0
  0
VERTEX
  8
0
 10
8.44857
 20
-12.2723
 30
0.0
 40
0
 41
0
  0
VERTEX
  8
0
 10
8.43431
 20
-12.2906
 30
0.0
 40
0
 41
0
  0
VERTEX
  8
0
 10
8.39692
 20
-12.3499
 30
0.0
 40
0
 41
0
  0
VERTEX
  8
0
 10
8.35753
 20
-12.4336
 30
0.0
 40
0
 41
0
  0
VERTEX
  8
0
 10
8.33421
 20
-12.5175
 30
0.0
 40
0
 41
0
  0
VERTEX
  8
0
 10
8.33057
 20
-12.5959
 30
0.0
 40
0
 41
0
  0
VERTEX
  8
0
 10
8.35047
 20
-12.6629
 30
0.0
 40
0
 41
0
  0
VERTEX
  8
0
 10
8.39774
 20
-12.7127
 30
0.0
 40
0
 41
0
  0
VERTEX
  8
0
 10
8.47601
 20
-12.7395
 30
0.0
 40
0
 41
0
  0
VERTEX
  8
0
 10
8.56131
 20
-12.7415
 30
0.0
 40
0
 41
0
  0
VERTEX
  8
0
 10
8.58914
 20
-12.7377
 30
0.0
 40
0
 41
0
  0
VERTEX
  8
0
 10
8.64714
 20
-12.7286
 30
0.0
 40
0
 41
0
  0
VERTEX
  8
0
 10
8.81814
 20
-12.6816
 30
0.0
 40
0
 41
0
  0
VERTEX
  8
0
 10
9.0434
 20
-12.6092
 30
0.0
 40
0
 41
0
  0
VERTEX
  8
0
 10
9.2724
 20
-12.555
 30
0.0
 40
0
 41
0
  0
VERTEX
  8
0
 10
9.45394
 20
-12.5449
 30
0.0
 40
0
 41
0
  0
VERTEX
  8
0
 10
9.51275
 20
-12.5535
 30
0.0
 40
0
 41
0
  0
VERTEX
  8
0
 10
9.56228
 20
-12.562
 30
0.0
 40
0
 41
0
  0
VERTEX
  8
0
 10
9.70708
 20
-12.6109
 30
0.0
 40
0
 41
0
  0
VERTEX
  8
0
 10
9.87039
 20
-12.7074
 30
0.0
 40
0
 41
0
  0
VERTEX
  8
0
 10
10.0055
 20
-12.8385
 30
0.0
 40
0
 41
0
  0
VERTEX
  8
0
 10
10.0914
 20
-12.9572
 30
0.0
 40
0
 41
0
  0
VERTEX
  8
0
 10
10.1151
 20
-12.9995
 30
0.0
 40
0
 41
0
  0
VERTEX
  8
0
 10
10.1438
 20
-13.0469
 30
0.0
 40
0
 41
0
  0
VERTEX
  8
0
 10
10.2165
 20
-13.1973
 30
0.0
 40
0
 41
0
  0
VERTEX
  8
0
 10
10.2896
 20
-13.404
 30
0.0
 40
0
 41
0
  0
VERTEX
  8
0
 10
10.3382
 20
-13.6175
 30
0.0
 40
0
 41
0
  0
VERTEX
  8
0
 10
10.3661
 20
-13.8358
 30
0.0
 40
0
 41
0
  0
VERTEX
  8
0
 10
10.3771
 20
-14.0568
 30
0.0
 40
0
 41
0
  0
VERTEX
  8
0
 10
10.3749
 20
-14.2785
 30
0.0
 40
0
 41
0
  0
VERTEX
  8
0
 10
10.3633
 20
-14.4988
 30
0.0
 40
0
 41
0
  0
VERTEX
  8
0
 10
10.3508
 20
-14.6615
 30
0.0
 40
0
 41
0
  0
VERTEX
  8
0
 10
10.346
 20
-14.7157
 30
0.0
 40
0
 41
0
  0
VERTEX
  8
0
 10
10.3404
 20
-14.7683
 30
0.0
 40
0
 41
0
  0
VERTEX
  8
0
 10
10.33
 20
-14.9274
 30
0.0
 40
0
 41
0
  0
VERTEX
  8
0
 10
10.3385
 20
-15.1361
 30
0.0
 40
0
 41
0
  0
VERTEX
  8
0
 10
10.3883
 20
-15.336
 30
0.0
 40
0
 41
0
  0
VERTEX
  8
0
 10
10.4632
 20
-15.4796
 30
0.0
 40
0
 41
0
  0
VERTEX
  8
0
 10
10.4966
 20
-15.5204
 30
0.0
 40
0
 41
0
  0
VERTEX
  8
0
 10
10.5319
 20
-15.5635
 30
0.0
 40
0
 41
0
  0
VERTEX
  8
0
 10
10.6535
 20
-15.6797
 30
0.0
 40
0
 41
0
  0
VERTEX
  8
0
 10
10.833
 20
-15.8137
 30
0.0
 40
0
 41
0
  0
VERTEX
  8
0
 10
11.0275
 20
-15.9294
 30
0.0
 40
0
 41
0
  0
VERTEX
  8
0
 10
11.1787
 20
-16.0088
 30
0.0
 40
0
 41
0
  0
VERTEX
  8
0
 10
11.2295
 20
-16.0343
 30
0.0
 40
0
 41
0
  0
VERTEX
  8
0
 10
11.2973
 20
-16.0682
 30
0.0
 40
0
 41
0
  0
VERTEX
  8
0
 10
11.6386
 20
-16.2354
 30
0.0
 40
0
 41
0
  0
VERTEX
  8
0
 10
11.9699
 20
-16.4125
 30
0.0
 40
0
 41
0
  0
VERTEX
  8
0
 10
12.0327
 20
-16.4512
 30
0.0
 40
0
 41
0
  0
VERTEX
  8
0
 10
12.0557
 20
-16.4654
 30
0.0
 40
0
 41
0
  0
VERTEX
  8
0
 10
12.1226
 20
-16.5119
 30
0.0
 40
0
 41
0
  0
VERTEX
  8
0
 10
12.2063
 20
-16.5751
 30
0.0
 40
0
 41
0
  0
VERTEX
  8
0
 10
12.2869
 20
-16.6369
 30
0.0
 40
0
 41
0
  0
VERTEX
  8
0
 10
12.3677
 20
-16.6936
 30
0.0
 40
0
 41
0
  0
VERTEX
  8
0
 10
12.4518
 20
-16.7411
 30
0.0
 40
0
 41
0
  0
VERTEX
  8
0
 10
12.5423
 20
-16.7757
 30
0.0
 40
0
 41
0
  0
VERTEX
  8
0
 10
12.6425
 20
-16.7935
 30
0.0
 40
0
 41
0
  0
VERTEX
  8
0
 10
12.7276
 20
-16.7939
 30
0.0
 40
0
 41
0
  0
VERTEX
  8
0
 10
12.7555
 20
-16.7906
 30
0.0
 40
0
 41
0
  0
VERTEX
  8
0
 10
12.8145
 20
-16.7835
 30
0.0
 40
0
 41
0
  0
VERTEX
  8
0
 10
12.99
 20
-16.7512
 30
0.0
 40
0
 41
0
  0
VERTEX
  8
0
 10
13.216
 20
-16.6949
 30
0.0
 40
0
 41
0
  0
VERTEX
  8
0
 10
13.4402
 20
-16.6256
 30
0.0
 40
0
 41
0
  0
VERTEX
  8
0
 10
13.612
 20
-16.5678
 30
0.0
 40
0
 41
0
  0
VERTEX
  8
0
 10
13.6691
 20
-16.5482
 30
0.0
 40
0
 41
0
  0
VERTEX
  8
0
 10
13.7249
 20
-16.5303
 30
0.0
 40
0
 41
0
  0
VERTEX
  8
0
 10
13.8947
 20
-16.4836
 30
0.0
 40
0
 41
0
  0
VERTEX
  8
0
 10
14.1183
 20
-16.4246
 30
0.0
 40
0
 41
0
  0
VERTEX
  8
0
 10
14.3383
 20
-16.3546
 30
0.0
 40
0
 41
0
  0
VERTEX
  8
0
 10
14.5012
 20
-16.2856
 30
0.0
 40
0
 41
0
  0
VERTEX
  8
0
 10
14.5526
 20
-16.2572
 30
0.0
 40
0
 41
0
  0
VERTEX
  8
0
 10
14.589
 20
-16.2379
 30
0.0
 40
0
 41
0
  0
VERTEX
  8
0
 10
14.6869
 20
-16.1588
 30
0.0
 40
0
 41
0
  0
VERTEX
  8
0
 10
14.7847
 20
-16.0294
 30
0.0
 40
0
 41
0
  0
VERTEX
  8
0
 10
14.8392
 20
-15.8782
 30
0.0
 40
0
 41
0
  0
VERTEX
  8
0
 10
14.8492
 20
-15.7543
 30
0.0
 40
0
 41
0
  0
VERTEX
  8
0
 10
14.8438
 20
-15.7143
 30
0.0
 40
0
 41
0
  0
VERTEX
  8
0
 10
14.8421
 20
-15.705
 30
0.0
 40
0
 41
0
  0
VERTEX
  8
0
 10
14.8331
 20
-15.6781
 30
0.0
 40
0
 41
0
  0
VERTEX
  8
0
 10
14.8164
 20
-15.6549
 30
0.0
 40
0
 41
0
  0
VERTEX
  8
0
 10
14.7946
 20
-15.6428
 30
0.0
 40
0
 41
0
  0
VERTEX
  8
0
 10
14.7685
 20
-15.6392
 30
0.0
 40
0
 41
0
  0
VERTEX
  8
0
 10
14.7383
 20
-15.6419
 30
0.0
 40
0
 41
0
  0
VERTEX
  8
0
 10
14.7054
 20
-15.6489
 30
0.0
 40
0
 41
0
  0
VERTEX
  8
0
 10
14.6699
 20
-15.6575
 30
0.0
 40
0
 41
0
  0
VERTEX
  8
0
 10
14.6422
 20
-15.664
 30
0.0
 40
0
 41
0
  0
VERTEX
  8
0
 10
14.6329
 20
-15.6658
 30
0.0
 40
0
 41
0
  0
VERTEX
  8
0
 10
14.5978
 20
-15.6707
 30
0.0
 40
0
 41
0
  0
VERTEX
  8
0
 10
14.2389
 20
-15.7192
 30
0.0
 40
0
 41
0
  0
VERTEX
  8
0
 10
14.2012
 20
-15.724
 30
0.0
 40
0
 41
0
  0
VERTEX
  8
0
 10
14.1233
 20
-15.7336
 30
0.0
 40
0
 41
0
  0
VERTEX
  8
0
 10
13.7331
 20
-15.7774
 30
0.0
 40
0
 41
0
  0
VERTEX
  8
0
 10
13.3764
 20
-15.8015
 30
0.0
 40
0
 41
0
  0
VERTEX
  8
0
 10
13.2575
 20
-15.8015
 30
0.0
 40
0
 41
0
  0
VERTEX
  8
0
 10
13.1407
 20
-15.8015
 30
0.0
 40
0
 41
0
  0
VERTEX
  8
0
 10
12.7906
 20
-15.7871
 30
0.0
 40
0
 41
0
  0
VERTEX
  8
0
 10
12.4405
 20
-15.7726
 30
0.0
 40
0
 41
0
  0
VERTEX
  8
0
 10
12.3238
 20
-15.7726
 30
0.0
 40
0
 41
0
  0
VERTEX
  8
0
 10
12.333
 20
-15.8064
 30
0.0
 40
0
 41
0
  0
VERTEX
  8
0
 10
12.3944
 20
-15.8987
 30
0.0
 40
0
 41
0
  0
VERTEX
  8
0
 10
12.512
 20
-16.004
 30
0.0
 40
0
 41
0
  0
VERTEX
  8
0
 10
12.6485
 20
-16.0929
 30
0.0
 40
0
 41
0
  0
VERTEX
  8
0
 10
12.7444
 20
-16.1499
 30
0.0
 40
0
 41
0
  0
VERTEX
  8
0
 10
12.7756
 20
-16.17
 30
0.0
 40
0
 41
0
  0
VERTEX
  8
0
 10
12.7982
 20
-16.1846
 30
0.0
 40
0
 41
0
  0
VERTEX
  8
0
 10
12.9174
 20
-16.2549
 30
0.0
 40
0
 41
0
  0
VERTEX
  8
0
 10
13.0416
 20
-16.3154
 30
0.0
 40
0
 41
0
  0
VERTEX
  8
0
 10
13.0667
 20
-16.3251
 30
0.0
 40
0
 41
0
  0
VERTEX
  8
0
 10
13.0893
 20
-16.3349
 30
0.0
 40
0
 41
0
  0
VERTEX
  8
0
 10
13.2123
 20
-16.3639
 30
0.0
 40
0
 41
0
  0
VERTEX
  8
0
 10
13.3353
 20
-16.3931
 30
0.0
 40
0
 41
0
  0
VERTEX
  8
0
 10
13.3579
 20
-16.4028
 30
0.0
 40
0
 41
0
  0
VERTEX
  8
0
 10
13.369
 20
-16.4075
 30
0.0
 40
0
 41
0
  0
VERTEX
  8
0
 10
13.4009
 20
-16.4251
 30
0.0
 40
0
 41
0
  0
VERTEX
  8
0
 10
13.4137
 20
-16.4419
 30
0.0
 40
0
 41
0
  0
VERTEX
  8
0
 10
13.4031
 20
-16.454
 30
0.0
 40
0
 41
0
  0
VERTEX
  8
0
 10
13.3754
 20
-16.4621
 30
0.0
 40
0
 41
0
  0
VERTEX
  8
0
 10
13.3375
 20
-16.4671
 30
0.0
 40
0
 41
0
  0
VERTEX
  8
0
 10
13.2957
 20
-16.4694
 30
0.0
 40
0
 41
0
  0
VERTEX
  8
0
 10
13.2568
 20
-16.4704
 30
0.0
 40
0
 41
0
  0
VERTEX
  8
0
 10
13.2347
 20
-16.4706
 30
0.0
 40
0
 41
0
  0
VERTEX
  8
0
 10
13.2274
 20
-16.4706
 30
0.0
 40
0
 41
0
  0
VERTEX
  8
0
 10
13.1847
 20
-16.4706
 30
0.0
 40
0
 41
0
  0
VERTEX
  8
0
 10
13.0567
 20
-16.4608
 30
0.0
 40
0
 41
0
  0
VERTEX
  8
0
 10
12.9136
 20
-16.4318
 30
0.0
 40
0
 41
0
  0
VERTEX
  8
0
 10
12.886
 20
-16.4221
 30
0.0
 40
0
 41
0
  0
VERTEX
  8
0
 10
12.8358
 20
-16.4075
 30
0.0
 40
0
 41
0
  0
VERTEX
  8
0
 10
12.5773
 20
-16.3143
 30
0.0
 40
0
 41
0
  0
VERTEX
  8
0
 10
12.3288
 20
-16.1967
 30
0.0
 40
0
 41
0
  0
VERTEX
  8
0
 10
12.2837
 20
-16.17
 30
0.0
 40
0
 41
0
  0
VERTEX
  8
0
 10
12.2168
 20
-16.1269
 30
0.0
 40
0
 41
0
  0
VERTEX
  8
0
 10
12.0234
 20
-15.9868
 30
0.0
 40
0
 41
0
  0
VERTEX
  8
0
 10
11.7905
 20
-15.781
 30
0.0
 40
0
 41
0
  0
VERTEX
  8
0
 10
11.5933
 20
-15.5442
 30
0.0
 40
0
 41
0
  0
VERTEX
  8
0
 10
11.4713
 20
-15.3404
 30
0.0
 40
0
 41
0
  0
VERTEX
  8
0
 10
11.4404
 20
-15.2683
 30
0.0
 40
0
 41
0
  0
VERTEX
  8
0
 10
11.4247
 20
-15.2329
 30
0.0
 40
0
 41
0
  0
VERTEX
  8
0
 10
11.3907
 20
-15.1208
 30
0.0
 40
0
 41
0
  0
VERTEX
  8
0
 10
11.3669
 20
-14.9699
 30
0.0
 40
0
 41
0
  0
VERTEX
  8
0
 10
11.3648
 20
-14.8167
 30
0.0
 40
0
 41
0
  0
VERTEX
  8
0
 10
11.3801
 20
-14.6624
 30
0.0
 40
0
 41
0
  0
VERTEX
  8
0
 10
11.4085
 20
-14.5079
 30
0.0
 40
0
 41
0
  0
VERTEX
  8
0
 10
11.446
 20
-14.3547
 30
0.0
 40
0
 41
0
  0
VERTEX
  8
0
 10
11.4881
 20
-14.2039
 30
0.0
 40
0
 41
0
  0
VERTEX
  8
0
 10
11.5202
 20
-14.0932
 30
0.0
 40
0
 41
0
  0
VERTEX
  8
0
 10
11.5307
 20
-14.0562
 30
0.0
 40
0
 41
0
  0
VERTEX
  8
0
 10
11.5383
 20
-14.0571
 30
0.0
 40
0
 41
0
  0
VERTEX
  8
0
 10
11.5601
 20
-14.0696
 30
0.0
 40
0
 41
0
  0
VERTEX
  8
0
 10
11.5815
 20
-14.0993
 30
0.0
 40
0
 41
0
  0
VERTEX
  8
0
 10
11.5963
 20
-14.1408
 30
0.0
 40
0
 41
0
  0
VERTEX
  8
0
 10
11.606
 20
-14.1896
 30
0.0
 40
0
 41
0
  0
VERTEX
  8
0
 10
11.6118
 20
-14.2411
 30
0.0
 40
0
 41
0
  0
VERTEX
  8
0
 10
11.6153
 20
-14.2908
 30
0.0
 40
0
 41
0
  0
VERTEX
  8
0
 10
11.6179
 20
-14.3342
 30
0.0
 40
0
 41
0
  0
VERTEX
  8
0
 10
11.6198
 20
-14.3585
 30
0.0
 40
0
 41
0
  0
VERTEX
  8
0
 10
11.621
 20
-14.3665
 30
0.0
 40
0
 41
0
  0
VERTEX
  8
0
 10
11.6286
 20
-14.4006
 30
0.0
 40
0
 41
0
  0
VERTEX
  8
0
 10
11.6675
 20
-14.5751
 30
0.0
 40
0
 41
0
  0
VERTEX
  8
0
 10
11.7114
 20
-14.7496
 30
0.0
 40
0
 41
0
  0
VERTEX
  8
0
 10
11.7215
 20
-14.7836
 30
0.0
 40
0
 41
0
  0
VERTEX
  8
0
 10
11.7262
 20
-14.8001
 30
0.0
 40
0
 41
0
  0
VERTEX
  8
0
 10
11.7427
 20
-14.8493
 30
0.0
 40
0
 41
0
  0
VERTEX
  8
0
 10
11.7696
 20
-14.9132
 30
0.0
 40
0
 41
0
  0
VERTEX
  8
0
 10
11.8028
 20
-14.9717
 30
0.0
 40
0
 41
0
  0
VERTEX
  8
0
 10
11.8432
 20
-15.0211
 30
0.0
 40
0
 41
0
  0
VERTEX
  8
0
 10
11.8915
 20
-15.0578
 30
0.0
 40
0
 41
0
  0
VERTEX
  8
0
 10
11.9487
 20
-15.0781
 30
0.0
 40
0
 41
0
  0
VERTEX
  8
0
 10
12.0156
 20
-15.0783
 30
0.0
 40
0
 41
0
  0
VERTEX
  8
0
 10
12.0745
 20
-15.0631
 30
0.0
 40
0
 41
0
  0
VERTEX
  8
0
 10
12.0929
 20
-15.055
 30
0.0
 40
0
 41
0
  0
VERTEX
  8
0
 10
12.1351
 20
-15.0365
 30
0.0
 40
0
 41
0
  0
VERTEX
  8
0
 10
12.2498
 20
-14.9539
 30
0.0
 40
0
 41
0
  0
VERTEX
  8
0
 10
12.3916
 20
-14.8137
 30
0.0
 40
0
 41
0
  0
VERTEX
  8
0
 10
12.5221
 20
-14.661
 30
0.0
 40
0
 41
0
  0
VERTEX
  8
0
 10
12.6127
 20
-14.555
 30
0.0
 40
0
 41
0
  0
VERTEX
  8
0
 10
12.6451
 20
-14.5218
 30
0.0
 40
0
 41
0
  0
VERTEX
  8
0
 10
12.6928
 20
-14.4685
 30
0.0
 40
0
 41
0
  0
VERTEX
  8
0
 10
12.9374
 20
-14.2067
 30
0.0
 40
0
 41
0
  0
VERTEX
  8
0
 10
13.1872
 20
-13.9449
 30
0.0
 40
0
 41
0
  0
VERTEX
  8
0
 10
13.2374
 20
-13.8915
 30
0.0
 40
0
 41
0
  0
VERTEX
  8
0
 10
13.26
 20
-13.8672
 30
0.0
 40
0
 41
0
  0
VERTEX
  8
0
 10
13.3717
 20
-13.7509
 30
0.0
 40
0
 41
0
  0
VERTEX
  8
0
 10
13.4783
 20
-13.6346
 30
0.0
 40
0
 41
0
  0
VERTEX
  8
0
 10
13.4984
 20
-13.6103
 30
0.0
 40
0
 41
0
  0
VERTEX
  8
0
 10
13.5141
 20
-13.5937
 30
0.0
 40
0
 41
0
  0
VERTEX
  8
0
 10
13.5611
 20
-13.5437
 30
0.0
 40
0
 41
0
  0
VERTEX
  8
0
 10
13.5938
 20
-13.4915
 30
0.0
 40
0
 41
0
  0
VERTEX
  8
0
 10
13.5888
 20
-13.4358
 30
0.0
 40
0
 41
0
  0
VERTEX
  8
0
 10
13.5529
 20
-13.3763
 30
0.0
 40
0
 41
0
  0
VERTEX
  8
0
 10
13.5386
 20
-13.3583
 30
0.0
 40
0
 41
0
  0
VERTEX
  8
0
 10
13.4959
 20
-13.3073
 30
0.0
 40
0
 41
0
  0
VERTEX
  8
0
 10
13.0692
 20
-12.7983
 30
0.0
 40
0
 41
0
  0
VERTEX
  8
0
 10
13.0266
 20
-12.7474
 30
0.0
 40
0
 41
0
  0
VERTEX
  8
0
 10
12.9839
 20
-12.6965
 30
0.0
 40
0
 41
0
  0
VERTEX
  8
0
 10
12.5572
 20
-12.1947
 30
0.0
 40
0
 41
0
  0
VERTEX
  8
0
 10
12.5146
 20
-12.1463
 30
0.0
 40
0
 41
0
  0
VERTEX
  8
0
 10
12.492
 20
-12.1196
 30
0.0
 40
0
 41
0
  0
VERTEX
  8
0
 10
12.374
 20
-11.9802
 30
0.0
 40
0
 41
0
  0
VERTEX
  8
0
 10
12.256
 20
-11.836
 30
0.0
 40
0
 41
0
  0
VERTEX
  8
0
 10
12.2335
 20
-11.8069
 30
0.0
 40
0
 41
0
  0
VERTEX
  8
0
 10
12.2209
 20
-11.7924
 30
0.0
 40
0
 41
0
  0
VERTEX
  8
0
 10
12.1798
 20
-11.751
 30
0.0
 40
0
 41
0
  0
VERTEX
  8
0
 10
12.113
 20
-11.6796
 30
0.0
 40
0
 41
0
  0
VERTEX
  8
0
 10
12.0612
 20
-11.6065
 30
0.0
 40
0
 41
0
  0
VERTEX
  8
0
 10
12.0474
 20
-11.5572
 30
0.0
 40
0
 41
0
  0
VERTEX
  8
0
 10
12.0528
 20
-11.5452
 30
0.0
 40
0
 41
0
  0
VERTEX
  8
0
 10
12.0699
 20
-11.5493
 30
0.0
 40
0
 41
0
  0
VERTEX
  8
0
 10
12.1191
 20
-11.5721
 30
0.0
 40
0
 41
0
  0
VERTEX
  8
0
 10
12.1921
 20
-11.6154
 30
0.0
 40
0
 41
0
  0
VERTEX
  8
0
 10
12.2631
 20
-11.6624
 30
0.0
 40
0
 41
0
  0
VERTEX
  8
0
 10
12.3082
 20
-11.6917
 30
0.0
 40
0
 41
0
  0
VERTEX
  8
0
 10
12.3238
 20
-11.7003
 30
0.0
 40
0
 41
0
  0
VERTEX
  8
0
 10
12.3564
 20
-11.7197
 30
0.0
 40
0
 41
0
  0
VERTEX
  8
0
 10
12.6752
 20
-11.9135
 30
0.0
 40
0
 41
0
  0
VERTEX
  8
0
 10
12.7053
 20
-11.9329
 30
0.0
 40
0
 41
0
  0
VERTEX
  8
0
 10
12.7756
 20
-11.9766
 30
0.0
 40
0
 41
0
  0
VERTEX
  8
0
 10
13.4783
 20
-12.4298
 30
0.0
 40
0
 41
0
  0
VERTEX
  8
0
 10
13.5487
 20
-12.4759
 30
0.0
 40
0
 41
0
  0
VERTEX
  8
0
 10
13.5838
 20
-12.4977
 30
0.0
 40
0
 41
0
  0
VERTEX
  8
0
 10
13.9176
 20
-12.7159
 30
0.0
 40
0
 41
0
  0
VERTEX
  8
0
 10
13.9503
 20
-12.7377
 30
0.0
 40
0
 41
0
  0
VERTEX
  8
0
 10
13.9689
 20
-12.7503
 30
0.0
 40
0
 41
0
  0
VERTEX
  8
0
 10
14.0224
 20
-12.7922
 30
0.0
 40
0
 41
0
  0
VERTEX
  8
0
 10
14.0908
 20
-12.8395
 30
0.0
 40
0
 41
0
  0
VERTEX
  8
0
 10
14.1592
 20
-12.8577
 30
0.0
 40
0
 41
0
  0
VERTEX
  8
0
 10
14.2169
 20
-12.8374
 30
0.0
 40
0
 41
0
  0
VERTEX
  8
0
 10
14.2314
 20
-12.825
 30
0.0
 40
0
 41
0
  0
VERTEX
  8
0
 10
14.2787
 20
-12.7847
 30
0.0
 40
0
 41
0
  0
VERTEX
  8
0
 10
14.4128
 20
-12.6541
 30
0.0
 40
0
 41
0
  0
VERTEX
  8
0
 10
14.5839
 20
-12.4686
 30
0.0
 40
0
 41
0
  0
VERTEX
  8
0
 10
14.7494
 20
-12.2796
 30
0.0
 40
0
 41
0
  0
VERTEX
  8
0
 10
14.8718
 20
-12.1423
 30
0.0
 40
0
 41
0
  0
VERTEX
  8
0
 10
14.914
 20
-12.0978
 30
0.0
 40
0
 41
0
  0
VERTEX
  8
0
 10
14.9717
 20
-12.0372
 30
0.0
 40
0
 41
0
  0
VERTEX
  8
0
 10
15.5389
 20
-11.4312
 30
0.0
 40
0
 41
0
  0
VERTEX
  8
0
 10
15.5967
 20
-11.3706
 30
0.0
 40
0
 41
0
  0
VERTEX
  8
0
 10
15.6353
 20
-11.3296
 30
0.0
 40
0
 41
0
  0
VERTEX
  8
0
 10
15.7465
 20
-11.2021
 30
0.0
 40
0
 41
0
  0
VERTEX
  8
0
 10
15.899
 20
-11.0264
 30
0.0
 40
0
 41
0
  0
VERTEX
  8
0
 10
16.0611
 20
-10.8579
 30
0.0
 40
0
 41
0
  0
VERTEX
  8
0
 10
16.1921
 20
-10.7441
 30
0.0
 40
0
 41
0
  0
VERTEX
  8
0
 10
16.2393
 20
-10.7113
 30
0.0
 40
0
 41
0
  0
VERTEX
  8
0
 10
16.2815
 20
-10.6829
 30
0.0
 40
0
 41
0
  0
VERTEX
  8
0
 10
16.4174
 20
-10.6113
 30
0.0
 40
0
 41
0
  0
VERTEX
  8
0
 10
16.6032
 20
-10.5513
 30
0.0
 40
0
 41
0
  0
VERTEX
  8
0
 10
16.7926
 20
-10.5423
 30
0.0
 40
0
 41
0
  0
VERTEX
  8
0
 10
16.9381
 20
-10.5745
 30
0.0
 40
0
 41
0
  0
VERTEX
  8
0
 10
16.9821
 20
-10.595
 30
0.0
 40
0
 41
0
  0
VERTEX
  8
0
 10
17.0321
 20
-10.6182
 30
0.0
 40
0
 41
0
  0
VERTEX
  8
0
 10
17.1726
 20
-10.7078
 30
0.0
 40
0
 41
0
  0
VERTEX
  8
0
 10
17.3397
 20
-10.8506
 30
0.0
 40
0
 41
0
  0
VERTEX
  8
0
 10
17.4861
 20
-11.0135
 30
0.0
 40
0
 41
0
  0
VERTEX
  8
0
 10
17.584
 20
-11.1421
 30
0.0
 40
0
 41
0
  0
VERTEX
  8
0
 10
17.6146
 20
-11.1864
 30
0.0
 40
0
 41
0
  0
VERTEX
  8
0
 10
17.6483
 20
-11.2369
 30
0.0
 40
0
 41
0
  0
VERTEX
  8
0
 10
17.7399
 20
-11.395
 30
0.0
 40
0
 41
0
  0
VERTEX
  8
0
 10
17.8481
 20
-11.6118
 30
0.0
 40
0
 41
0
  0
VERTEX
  8
0
 10
17.945
 20
-11.834
 30
0.0
 40
0
 41
0
  0
VERTEX
  8
0
 10
18.0137
 20
-12.0027
 30
0.0
 40
0
 41
0
  0
VERTEX
  8
0
 10
18.0362
 20
-12.0591
 30
0.0
 40
0
 41
0
  0
VERTEX
  8
0
 10
18.0575
 20
-12.1168
 30
0.0
 40
0
 41
0
  0
VERTEX
  8
0
 10
18.1197
 20
-12.2906
 30
0.0
 40
0
 41
0
  0
VERTEX
  8
0
 10
18.1994
 20
-12.5304
 30
0.0
 40
0
 41
0
  0
VERTEX
  8
0
 10
18.2678
 20
-12.7721
 30
0.0
 40
0
 41
0
  0
VERTEX
  8
0
 10
18.3078
 20
-12.9494
 30
0.0
 40
0
 41
0
  0
VERTEX
  8
0
 10
18.3175
 20
-13.0092
 30
0.0
 40
0
 41
0
  0
VERTEX
  8
0
 10
18.3033
 20
-13.0108
 30
0.0
 40
0
 41
0
  0
VERTEX
  8
0
 10
18.2564
 20
-12.9792
 30
0.0
 40
0
 41
0
  0
VERTEX
  8
0
 10
18.1982
 20
-12.9001
 30
0.0
 40
0
 41
0
  0
VERTEX
  8
0
 10
18.1494
 20
-12.8101
 30
0.0
 40
0
 41
0
  0
VERTEX
  8
0
 10
18.1242
 20
-12.7595
 30
0.0
 40
0
 41
0
  0
VERTEX
  8
0
 10
18.1167
 20
-12.7474
 30
0.0
 40
0
 41
0
  0
VERTEX
  8
0
 10
18.0965
 20
-12.7159
 30
0.0
 40
0
 41
0
  0
VERTEX
  8
0
 10
17.9033
 20
-12.4008
 30
0.0
 40
0
 41
0
  0
VERTEX
  8
0
 10
17.8857
 20
-12.3693
 30
0.0
 40
0
 41
0
  0
VERTEX
  8
0
 10
17.8596
 20
-12.3262
 30
0.0
 40
0
 41
0
  0
VERTEX
  8
0
 10
17.7724
 20
-12.2022
 30
0.0
 40
0
 41
0
  0
VERTEX
  8
0
 10
17.6422
 20
-12.0505
 30
0.0
 40
0
 41
0
  0
VERTEX
  8
0
 10
17.4932
 20
-11.9152
 30
0.0
 40
0
 41
0
  0
VERTEX
  8
0
 10
17.3676
 20
-11.8238
 30
0.0
 40
0
 41
0
  0
VERTEX
  8
0
 10
17.3235
 20
-11.7972
 30
0.0
 40
0
 41
0
  0
VERTEX
  8
0
 10
17.3111
 20
-11.7906
 30
0.0
 40
0
 41
0
  0
VERTEX
  8
0
 10
17.2733
 20
-11.7723
 30
0.0
 40
0
 41
0
  0
VERTEX
  8
0
 10
17.1971
 20
-11.7384
 30
0.0
 40
0
 41
0
  0
VERTEX
  8
0
 10
17.1043
 20
-11.7018
 30
0.0
 40
0
 41
0
  0
VERTEX
  8
0
 10
17.0047
 20
-11.6687
 30
0.0
 40
0
 41
0
  0
VERTEX
  8
0
 10
16.9081
 20
-11.6457
 30
0.0
 40
0
 41
0
  0
VERTEX
  8
0
 10
16.8236
 20
-11.6391
 30
0.0
 40
0
 41
0
  0
VERTEX
  8
0
 10
16.7615
 20
-11.6551
 30
0.0
 40
0
 41
0
  0
VERTEX
  8
0
 10
16.7333
 20
-11.688
 30
0.0
 40
0
 41
0
  0
VERTEX
  8
0
 10
16.7311
 20
-11.7003
 30
0.0
 40
0
 41
0
  0
VERTEX
  8
0
 10
16.7289
 20
-11.7201
 30
0.0
 40
0
 41
0
  0
VERTEX
  8
0
 10
16.7462
 20
-11.7822
 30
0.0
 40
0
 41
0
  0
VERTEX
  8
0
 10
16.7914
 20
-11.8833
 30
0.0
 40
0
 41
0
  0
VERTEX
  8
0
 10
16.8442
 20
-11.9825
 30
0.0
 40
0
 41
0
  0
VERTEX
  8
0
 10
16.8743
 20
-12.0397
 30
0.0
 40
0
 41
0
  0
VERTEX
  8
0
 10
16.8818
 20
-12.0591
 30
0.0
 40
0
 41
0
  0
VERTEX
  8
0
 10
16.8968
 20
-12.0954
 30
0.0
 40
0
 41
0
  0
VERTEX
  8
0
 10
16.9708
 20
-12.2723
 30
0.0
 40
0
 41
0
  0
VERTEX
  8
0
 10
17.0399
 20
-12.4492
 30
0.0
 40
0
 41
0
  0
VERTEX
  8
0
 10
17.0524
 20
-12.4856
 30
0.0
 40
0
 41
0
  0
VERTEX
  8
0
 10
17.075
 20
-12.5511
 30
0.0
 40
0
 41
0
  0
VERTEX
  8
0
 10
17.1578
 20
-12.8831
 30
0.0
 40
0
 41
0
  0
VERTEX
  8
0
 10
17.2206
 20
-13.2152
 30
0.0
 40
0
 41
0
  0
VERTEX
  8
0
 10
17.2332
 20
-13.2807
 30
0.0
 40
0
 41
0
  0
VERTEX
  8
0
 10
17.2457
 20
-13.3413
 30
0.0
 40
0
 41
0
  0
VERTEX
  8
0
 10
17.2771
 20
-13.6552
 30
0.0
 40
0
 41
0
  0
VERTEX
  8
0
 10
17.2632
 20
-13.9739
 30
0.0
 40
0
 41
0
  0
VERTEX
  8
0
 10
17.2532
 20
-14.0369
 30
0.0
 40
0
 41
0
  0
VERTEX
  8
0
 10
17.2456
 20
-14.0835
 30
0.0
 40
0
 41
0
  0
VERTEX
  8
0
 10
17.2085
 20
-14.2208
 30
0.0
 40
0
 41
0
  0
VERTEX
  8
0
 10
17.1365
 20
-14.4029
 30
0.0
 40
0
 41
0
  0
VERTEX
  8
0
 10
17.04
 20
-14.5742
 30
0.0
 40
0
 41
0
  0
VERTEX
  8
0
 10
16.9543
 20
-14.6903
 30
0.0
 40
0
 41
0
  0
VERTEX
  8
0
 10
16.9219
 20
-14.7254
 30
0.0
 40
0
 41
0
  0
VERTEX
  8
0
 10
16.9119
 20
-14.7375
 30
0.0
 40
0
 41
0
  0
VERTEX
  8
0
 10
16.8703
 20
-14.771
 30
0.0
 40
0
 41
0
  0
VERTEX
  8
0
 10
16.7951
 20
-14.8283
 30
0.0
 40
0
 41
0
  0
VERTEX
  8
0
 10
16.7257
 20
-14.8876
 30
0.0
 40
0
 41
0
  0
VERTEX
  8
0
 10
16.6935
 20
-14.9249
 30
0.0
 40
0
 41
0
  0
VERTEX
  8
0
 10
16.691
 20
-14.9387
 30
0.0
 40
0
 41
0
  0
VERTEX
  8
0
 10
16.6889
 20
-14.955
 30
0.0
 40
0
 41
0
  0
VERTEX
  8
0
 10
16.7096
 20
-15.0074
 30
0.0
 40
0
 41
0
  0
VERTEX
  8
0
 10
16.7637
 20
-15.0878
 30
0.0
 40
0
 41
0
  0
VERTEX
  8
0
 10
16.8293
 20
-15.1664
 30
0.0
 40
0
 41
0
  0
VERTEX
  8
0
 10
16.8696
 20
-15.2131
 30
0.0
 40
0
 41
0
  0
VERTEX
  8
0
 10
16.8818
 20
-15.2296
 30
0.0
 40
0
 41
0
  0
VERTEX
  8
0
 10
16.9269
 20
-15.2974
 30
0.0
 40
0
 41
0
  0
VERTEX
  8
0
 10
17.1603
 20
-15.6404
 30
0.0
 40
0
 41
0
  0
VERTEX
  8
0
 10
17.4037
 20
-15.9786
 30
0.0
 40
0
 41
0
  0
VERTEX
  8
0
 10
17.454
 20
-16.044
 30
0.0
 40
0
 41
0
  0
VERTEX
  8
0
 10
17.479
 20
-16.0779
 30
0.0
 40
0
 41
0
  0
VERTEX
  8
0
 10
17.7301
 20
-16.4003
 30
0.0
 40
0
 41
0
  0
VERTEX
  8
0
 10
17.7553
 20
-16.4318
 30
0.0
 40
0
 41
0
  0
VERTEX
  8
0
 10
17.771
 20
-16.4514
 30
0.0
 40
0
 41
0
  0
VERTEX
  8
0
 10
17.8228
 20
-16.5067
 30
0.0
 40
0
 41
0
  0
VERTEX
  8
0
 10
17.9046
 20
-16.5943
 30
0.0
 40
0
 41
0
  0
VERTEX
  8
0
 10
17.9768
 20
-16.6854
 30
0.0
 40
0
 41
0
  0
VERTEX
  8
0
 10
18.0119
 20
-16.7486
 30
0.0
 40
0
 41
0
  0
VERTEX
  8
0
 10
18.0163
 20
-16.7711
 30
0.0
 40
0
 41
0
  0
VERTEX
  8
0
 10
17.9199
 20
-16.7165
 30
0.0
 40
0
 41
0
  0
VERTEX
  8
0
 10
17.6392
 20
-16.5385
 30
0.0
 40
0
 41
0
  0
VERTEX
  8
0
 10
17.2733
 20
-16.284
 30
0.0
 40
0
 41
0
  0
VERTEX
  8
0
 10
16.915
 20
-16.0185
 30
0.0
 40
0
 41
0
  0
VERTEX
  8
0
 10
16.6494
 20
-15.8189
 30
0.0
 40
0
 41
0
  0
VERTEX
  8
0
 10
16.5606
 20
-15.7531
 30
0.0
 40
0
 41
0
  0
VERTEX
  8
0
 10
16.5304
 20
-15.7313
 30
0.0
 40
0
 41
0
  0
VERTEX
  8
0
 10
16.3747
 20
-15.6174
 30
0.0
 40
0
 41
0
  0
VERTEX
  8
0
 10
16.2192
 20
-15.5035
 30
0.0
 40
0
 41
0
  0
VERTEX
  8
0
 10
16.189
 20
-15.4817
 30
0.0
 40
0
 41
0
  0
VERTEX
  8
0
 10
16.1699
 20
-15.4686
 30
0.0
 40
0
 41
0
  0
VERTEX
  8
0
 10
16.1149
 20
-15.4258
 30
0.0
 40
0
 41
0
  0
VERTEX
  8
0
 10
16.0397
 20
-15.3701
 30
0.0
 40
0
 41
0
  0
VERTEX
  8
0
 10
15.9589
 20
-15.3289
 30
0.0
 40
0
 41
0
  0
VERTEX
  8
0
 10
15.8901
 20
-15.3151
 30
0.0
 40
0
 41
0
  0
VERTEX
  8
0
 10
15.8678
 20
-15.3168
 30
0.0
 40
0
 41
0
  0
VERTEX
  8
0
 10
15.8326
 20
-15.3217
 30
0.0
 40
0
 41
0
  0
VERTEX
  8
0
 10
15.6468
 20
-15.3725
 30
0.0
 40
0
 41
0
  0
VERTEX
  8
0
 10
15.4611
 20
-15.4331
 30
0.0
 40
0
 41
0
  0
VERTEX
  8
0
 10
15.4261
 20
-15.4428
 30
0.0
 40
0
 41
0
  0
VERTEX
  8
0
 10
15.3908
 20
-15.4525
 30
0.0
 40
0
 41
0
  0
VERTEX
  8
0
 10
15.2101
 20
-15.5022
 30
0.0
 40
0
 41
0
  0
VERTEX
  8
0
 10
15.0294
 20
-15.5568
 30
0.0
 40
0
 41
0
  0
VERTEX
  8
0
 10
14.9943
 20
-15.5689
 30
0.0
 40
0
 41
0
  0
VERTEX
  8
0
 10
15.0244
 20
-15.6004
 30
0.0
 40
0
 41
0
  0
VERTEX
  8
0
 10
15.185
 20
-15.7483
 30
0.0
 40
0
 41
0
  0
VERTEX
  8
0
 10
15.3457
 20
-15.8961
 30
0.0
 40
0
 41
0
  0
VERTEX
  8
0
 10
15.3758
 20
-15.9276
 30
0.0
 40
0
 41
0
  0
VERTEX
  8
0
 10
15.406
 20
-15.9615
 30
0.0
 40
0
 41
0
  0
VERTEX
  8
0
 10
15.554
 20
-16.1385
 30
0.0
 40
0
 41
0
  0
VERTEX
  8
0
 10
15.7121
 20
-16.3057
 30
0.0
 40
0
 41
0
  0
VERTEX
  8
0
 10
15.7472
 20
-16.3349
 30
0.0
 40
0
 41
0
  0
VERTEX
  8
0
 10
15.7981
 20
-16.3801
 30
0.0
 40
0
 41
0
  0
VERTEX
  8
0
 10
15.9536
 20
-16.5121
 30
0.0
 40
0
 41
0
  0
VERTEX
  8
0
 10
16.179
 20
-16.6839
 30
0.0
 40
0
 41
0
  0
VERTEX
  8
0
 10
16.4193
 20
-16.8339
 30
0.0
 40
0
 41
0
  0
VERTEX
  8
0
 10
16.606
 20
-16.9236
 30
0.0
 40
0
 41
0
  0
VERTEX
  8
0
 10
16.671
 20
-16.9457
 30
0.0
 40
0
 41
0
  0
VERTEX
  8
0
 10
16.7406
 20
-16.9693
 30
0.0
 40
0
 41
0
  0
VERTEX
  8
0
 10
16.9543
 20
-17.0268
 30
0.0
 40
0
 41
0
  0
VERTEX
  8
0
 10
17.2444
 20
-17.0778
 30
0.0
 40
0
 41
0
  0
VERTEX
  8
0
 10
17.5364
 20
-17.0943
 30
0.0
 40
0
 41
0
  0
VERTEX
  8
0
 10
17.754
 20
-17.0826
 30
0.0
 40
0
 41
0
  0
VERTEX
  8
0
 10
17.8254
 20
-17.0718
 30
0.0
 40
0
 41
0
  0
VERTEX
  8
0
 10
17.8532
 20
-17.0679
 30
0.0
 40
0
 41
0
  0
VERTEX
  8
0
 10
17.9367
 20
-17.0568
 30
0.0
 40
0
 41
0
  0
VERTEX
  8
0
 10
18.0565
 20
-17.0393
 30
0.0
 40
0
 41
0
  0
VERTEX
  8
0
 10
18.1803
 20
-17.0168
 30
0.0
 40
0
 41
0
  0
VERTEX
  8
0
 10
18.3036
 20
-16.9869
 30
0.0
 40
0
 41
0
  0
VERTEX
  8
0
 10
18.4217
 20
-16.9469
 30
0.0
 40
0
 41
0
  0
VERTEX
  8
0
 10
18.53
 20
-16.8944
 30
0.0
 40
0
 41
0
  0
VERTEX
  8
0
 10
18.6239
 20
-16.8271
 30
0.0
 40
0
 41
0
  0
VERTEX
  8
0
 10
18.6831
 20
-16.7654
 30
0.0
 40
0
 41
0
  0
VERTEX
  8
0
 10
18.6989
 20
-16.7421
 30
0.0
 40
0
 41
0
  0
VERTEX
  8
0
 10
18.719
 20
-16.7101
 30
0.0
 40
0
 41
0
  0
VERTEX
  8
0
 10
18.7581
 20
-16.6004
 30
0.0
 40
0
 41
0
  0
VERTEX
  8
0
 10
18.7729
 20
-16.4451
 30
0.0
 40
0
 41
0
  0
VERTEX
  8
0
 10
18.7483
 20
-16.2881
 30
0.0
 40
0
 41
0
  0
VERTEX
  8
0
 10
18.7076
 20
-16.1756
 30
0.0
 40
0
 41
0
  0
VERTEX
  8
0
 10
18.6889
 20
-16.141
 30
0.0
 40
0
 41
0
  0
VERTEX
  8
0
 10
18.6732
 20
-16.1142
 30
0.0
 40
0
 41
0
  0
VERTEX
  8
0
 10
18.6172
 20
-16.0392
 30
0.0
 40
0
 41
0
  0
VERTEX
  8
0
 10
18.5321
 20
-15.9511
 30
0.0
 40
0
 41
0
  0
VERTEX
  8
0
 10
18.436
 20
-15.8744
 30
0.0
 40
0
 41
0
  0
VERTEX
  8
0
 10
18.3312
 20
-15.8076
 30
0.0
 40
0
 41
0
  0
VERTEX
  8
0
 10
18.2203
 20
-15.7485
 30
0.0
 40
0
 41
0
  0
VERTEX
  8
0
 10
18.1058
 20
-15.695
 30
0.0
 40
0
 41
0
  0
VERTEX
  8
0
 10
17.9901
 20
-15.6456
 30
0.0
 40
0
 41
0
  0
VERTEX
  8
0
 10
17.9042
 20
-15.6099
 30
0.0
 40
0
 41
0
  0
VERTEX
  8
0
 10
17.8757
 20
-15.5979
 30
0.0
 40
0
 41
0
  0
VERTEX
  8
0
 10
17.8329
 20
-15.581
 30
0.0
 40
0
 41
0
  0
VERTEX
  8
0
 10
17.6133
 20
-15.5119
 30
0.0
 40
0
 41
0
  0
VERTEX
  8
0
 10
17.3887
 20
-15.4476
 30
0.0
 40
0
 41
0
  0
VERTEX
  8
0
 10
17.3436
 20
-15.4332
 30
0.0
 40
0
 41
0
  0
VERTEX
  8
0
 10
17.3274
 20
-15.4289
 30
0.0
 40
0
 41
0
  0
VERTEX
  8
0
 10
17.2799
 20
-15.4122
 30
0.0
 40
0
 41
0
  0
VERTEX
  8
0
 10
17.2257
 20
-15.386
 30
0.0
 40
0
 41
0
  0
VERTEX
  8
0
 10
17.1832
 20
-15.3546
 30
0.0
 40
0
 41
0
  0
VERTEX
  8
0
 10
17.154
 20
-15.3179
 30
0.0
 40
0
 41
0
  0
VERTEX
  8
0
 10
17.1406
 20
-15.2764
 30
0.0
 40
0
 41
0
  0
VERTEX
  8
0
 10
17.1444
 20
-15.23
 30
0.0
 40
0
 41
0
  0
VERTEX
  8
0
 10
17.1681
 20
-15.1788
 30
0.0
 40
0
 41
0
  0
VERTEX
  8
0
 10
17.2007
 20
-15.1357
 30
0.0
 40
0
 41
0
  0
VERTEX
  8
0
 10
17.2131
 20
-15.1229
 30
0.0
 40
0
 41
0
  0
VERTEX
  8
0
 10
17.2624
 20
-15.0717
 30
0.0
 40
0
 41
0
  0
VERTEX
  8
0
 10
17.4299
 20
-14.9368
 30
0.0
 40
0
 41
0
  0
VERTEX
  8
0
 10
17.6749
 20
-14.7763
 30
0.0
 40
0
 41
0
  0
VERTEX
  8
0
 10
17.9274
 20
-14.6265
 30
0.0
 40
0
 41
0
  0
VERTEX
  8
0
 10
18.1089
 20
-14.5143
 30
0.0
 40
0
 41
0
  0
VERTEX
  8
0
 10
18.1668
 20
-14.4732
 30
0.0
 40
0
 41
0
  0
VERTEX
  8
0
 10
18.289
 20
-14.3861
 30
0.0
 40
0
 41
0
  0
VERTEX
  8
0
 10
18.6508
 20
-14.1174
 30
0.0
 40
0
 41
0
  0
VERTEX
  8
0
 10
19.121
 20
-13.7464
 30
0.0
 40
0
 41
0
  0
VERTEX
  8
0
 10
19.5732
 20
-13.3576
 30
0.0
 40
0
 41
0
  0
VERTEX
  8
0
 10
20.0028
 20
-12.9486
 30
0.0
 40
0
 41
0
  0
VERTEX
  8
0
 10
20.4056
 20
-12.5168
 30
0.0
 40
0
 41
0
  0
VERTEX
  8
0
 10
20.7772
 20
-12.0599
 30
0.0
 40
0
 41
0
  0
VERTEX
  8
0
 10
21.1133
 20
-11.5752
 30
0.0
 40
0
 41
0
  0
VERTEX
  8
0
 10
21.3414
 20
-11.1921
 30
0.0
 40
0
 41
0
  0
VERTEX
  8
0
 10
21.4096
 20
-11.0603
 30
0.0
 40
0
 41
0
  0
VERTEX
  8
0
 10
21.4547
 20
-10.9707
 30
0.0
 40
0
 41
0
  0
VERTEX
  8
0
 10
21.6643
 20
-10.5246
 30
0.0
 40
0
 41
0
  0
VERTEX
  8
0
 10
21.8487
 20
-10.0689
 30
0.0
 40
0
 41
0
  0
VERTEX
  8
0
 10
21.8814
 20
-9.97439
 30
0.0
 40
0
 41
0
  0
VERTEX
  8
0
 10
21.9054
 20
-9.90494
 30
0.0
 40
0
 41
0
  0
VERTEX
  8
0
 10
21.9639
 20
-9.69211
 30
0.0
 40
0
 41
0
  0
VERTEX
  8
0
 10
22.0219
 20
-9.41081
 30
0.0
 40
0
 41
0
  0
VERTEX
  8
0
 10
22.065
 20
-9.12765
 30
0.0
 40
0
 41
0
  0
VERTEX
  8
0
 10
22.0931
 20
-8.91189
 30
0.0
 40
0
 41
0
  0
VERTEX
  8
0
 10
22.1024
 20
-8.84
 30
0.0
 40
0
 41
0
  0
VERTEX
  8
0
 10
22.1124
 20
-8.74789
 30
0.0
 40
0
 41
0
  0
VERTEX
  8
0
 10
22.1575
 20
-8.28614
 30
0.0
 40
0
 41
0
  0
VERTEX
  8
0
 10
22.1826
 20
-7.86524
 30
0.0
 40
0
 41
0
  0
VERTEX
  8
0
 10
22.1826
 20
-7.72499
 30
0.0
 40
0
 41
0
  0
VERTEX
  8
0
 10
22.1826
 20
-7.56862
 30
0.0
 40
0
 41
0
  0
VERTEX
  8
0
 10
22.1475
 20
-7.09956
 30
0.0
 40
0
 41
0
  0
VERTEX
  8
0
 10
22.0922
 20
-6.57844
 30
0.0
 40
0
 41
0
  0
VERTEX
  8
0
 10
22.0822
 20
-6.47424
 30
0.0
 40
0
 41
0
  0
VERTEX
  8
0
 10
22.0772
 20
-6.4209
 30
0.0
 40
0
 41
0
  0
VERTEX
  8
0
 10
22.0546
 20
-6.14942
 30
0.0
 40
0
 41
0
  0
VERTEX
  8
0
 10
22.0219
 20
-5.87793
 30
0.0
 40
0
 41
0
  0
VERTEX
  8
0
 10
22.0119
 20
-5.8246
 30
0.0
 40
0
 41
0
  0
VERTEX
  8
0
 10
21.9993
 20
-5.76882
 30
0.0
 40
0
 41
0
  0
VERTEX
  8
0
 10
21.9317
 20
-5.48888
 30
0.0
 40
0
 41
0
  0
VERTEX
  8
0
 10
21.8639
 20
-5.20404
 30
0.0
 40
0
 41
0
  0
VERTEX
  8
0
 10
21.8514
 20
-5.14589
 30
0.0
 40
0
 41
0
  0
VERTEX
  8
0
 10
21.8388
 20
-5.09256
 30
0.0
 40
0
 41
0
  0
VERTEX
  8
0
 10
21.7885
 20
-4.8259
 30
0.0
 40
0
 41
0
  0
VERTEX
  8
0
 10
21.7283
 20
-4.55931
 30
0.0
 40
0
 41
0
  0
VERTEX
  8
0
 10
21.7108
 20
-4.50597
 30
0.0
 40
0
 41
0
  0
VERTEX
  8
0
 10
21.6932
 20
-4.45503
 30
0.0
 40
0
 41
0
  0
VERTEX
  8
0
 10
21.5978
 20
-4.2054
 30
0.0
 40
0
 41
0
  0
VERTEX
  8
0
 10
21.5125
 20
-3.95574
 30
0.0
 40
0
 41
0
  0
VERTEX
  8
0
 10
21.5
 20
-3.90483
 30
0.0
 40
0
 41
0
  0
VERTEX
  8
0
 10
21.4813
 20
-3.82726
 30
0.0
 40
0
 41
0
  0
VERTEX
  8
0
 10
21.4094
 20
-3.59847
 30
0.0
 40
0
 41
0
  0
VERTEX
  8
0
 10
21.2954
 20
-3.30122
 30
0.0
 40
0
 41
0
  0
VERTEX
  8
0
 10
21.1682
 20
-3.00765
 30
0.0
 40
0
 41
0
  0
VERTEX
  8
0
 10
21.07
 20
-2.78635
 30
0.0
 40
0
 41
0
  0
VERTEX
  8
0
 10
21.0382
 20
-2.71224
 30
0.0
 40
0
 41
0
  0
VERTEX
  8
0
 10
21.0181
 20
-2.66374
 30
0.0
 40
0
 41
0
  0
VERTEX
  8
0
 10
20.9076
 20
-2.42622
 30
0.0
 40
0
 41
0
  0
VERTEX
  8
0
 10
20.7971
 20
-2.18864
 30
0.0
 40
0
 41
0
  0
VERTEX
  8
0
 10
20.7771
 20
-2.14019
 30
0.0
 40
0
 41
0
  0
VERTEX
  8
0
 10
20.7608
 20
-2.10086
 30
0.0
 40
0
 41
0
  0
VERTEX
  8
0
 10
20.7056
 20
-1.98551
 30
0.0
 40
0
 41
0
  0
VERTEX
  8
0
 10
20.6265
 20
-1.81901
 30
0.0
 40
0
 41
0
  0
VERTEX
  8
0
 10
20.5625
 20
-1.65067
 30
0.0
 40
0
 41
0
  0
VERTEX
  8
0
 10
20.5361
 20
-1.53054
 30
0.0
 40
0
 41
0
  0
VERTEX
  8
0
 10
20.5361
 20
-1.49056
 30
0.0
 40
0
 41
0
  0
VERTEX
  8
0
 10
20.5761
 20
-1.52197
 30
0.0
 40
0
 41
0
  0
VERTEX
  8
0
 10
20.6878
 20
-1.62679
 30
0.0
 40
0
 41
0
  0
VERTEX
  8
0
 10
20.8213
 20
-1.77881
 30
0.0
 40
0
 41
0
  0
VERTEX
  8
0
 10
20.9403
 20
-1.94336
 30
0.0
 40
0
 41
0
  0
VERTEX
  8
0
 10
21.0481
 20
-2.11714
 30
0.0
 40
0
 41
0
  0
VERTEX
  8
0
 10
21.1485
 20
-2.29676
 30
0.0
 40
0
 41
0
  0
VERTEX
  8
0
 10
21.2449
 20
-2.47906
 30
0.0
 40
0
 41
0
  0
VERTEX
  8
0
 10
21.3408
 20
-2.66064
 30
0.0
 40
0
 41
0
  0
VERTEX
  8
0
 10
21.4142
 20
-2.79432
 30
0.0
 40
0
 41
0
  0
VERTEX
  8
0
 10
21.4397
 20
-2.83826
 30
0.0
 40
0
 41
0
  0
VERTEX
  8
0
 10
21.4749
 20
-2.90126
 30
0.0
 40
0
 41
0
  0
VERTEX
  8
0
 10
21.6329
 20
-3.22244
 30
0.0
 40
0
 41
0
  0
VERTEX
  8
0
 10
21.781
 20
-3.54844
 30
0.0
 40
0
 41
0
  0
VERTEX
  8
0
 10
21.8111
 20
-3.61393
 30
0.0
 40
0
 41
0
  0
VERTEX
  8
0
 10
21.8412
 20
-3.67692
 30
0.0
 40
0
 41
0
  0
VERTEX
  8
0
 10
21.9831
 20
-4.00299
 30
0.0
 40
0
 41
0
  0
VERTEX
  8
0
 10
22.1099
 20
-4.33388
 30
0.0
 40
0
 41
0
  0
VERTEX
  8
0
 10
22.1325
 20
-4.39936
 30
0.0
 40
0
 41
0
  0
VERTEX
  8
0
 10
22.155
 20
-4.47206
 30
0.0
 40
0
 41
0
  0
VERTEX
  8
0
 10
22.2818
 20
-4.83078
 30
0.0
 40
0
 41
0
  0
VERTEX
  8
0
 10
22.4035
 20
-5.18951
 30
0.0
 40
0
 41
0
  0
VERTEX
  8
0
 10
22.4236
 20
-5.26226
 30
0.0
 40
0
 41
0
  0
VERTEX
  8
0
 10
22.4336
 20
-5.29617
 30
0.0
 40
0
 41
0
  0
VERTEX
  8
0
 10
22.4662
 20
-5.46588
 30
0.0
 40
0
 41
0
  0
VERTEX
  8
0
 10
22.4889
 20
-5.63553
 30
0.0
 40
0
 41
0
  0
VERTEX
  8
0
 10
22.4939
 20
-5.66949
 30
0.0
 40
0
 41
0
  0
VERTEX
  8
0
 10
22.4989
 20
-5.70822
 30
0.0
 40
0
 41
0
  0
VERTEX
  8
0
 10
22.5465
 20
-5.89729
 30
0.0
 40
0
 41
0
  0
VERTEX
  8
0
 10
22.6043
 20
-6.08637
 30
0.0
 40
0
 41
0
  0
VERTEX
  8
0
 10
22.6143
 20
-6.12517
 30
0.0
 40
0
 41
0
  0
VERTEX
  8
0
 10
22.6458
 20
-6.23426
 30
0.0
 40
0
 41
0
  0
VERTEX
  8
0
 10
22.7146
 20
-6.56901
 30
0.0
 40
0
 41
0
  0
VERTEX
  8
0
 10
22.7686
 20
-7.01476
 30
0.0
 40
0
 41
0
  0
VERTEX
  8
0
 10
22.7907
 20
-7.46408
 30
0.0
 40
0
 41
0
  0
VERTEX
  8
0
 10
22.795
 20
-7.80518
 30
0.0
 40
0
 41
0
  0
VERTEX
  8
0
 10
22.795
 20
-7.91889
 30
0.0
 40
0
 41
0
  0
VERTEX
  8
0
 10
22.795
 20
-8.03293
 30
0.0
 40
0
 41
0
  0
VERTEX
  8
0
 10
22.7928
 20
-8.37517
 30
0.0
 40
0
 41
0
  0
VERTEX
  8
0
 10
22.7775
 20
-8.82785
 30
0.0
 40
0
 41
0
  0
VERTEX
  8
0
 10
22.7357
 20
-9.27692
 30
0.0
 40
0
 41
0
  0
VERTEX
  8
0
 10
22.6806
 20
-9.61236
 30
0.0
 40
0
 41
0
  0
VERTEX
  8
0
 10
22.6544
 20
-9.72233
 30
0.0
 40
0
 41
0
  0
VERTEX
  8
0
 10
22.6218
 20
-9.85807
 30
0.0
 40
0
 41
0
  0
VERTEX
  8
0
 10
22.4349
 20
-10.5343
 30
0.0
 40
0
 41
0
  0
VERTEX
  8
0
 10
22.2128
 20
-11.2009
 30
0.0
 40
0
 41
0
  0
VERTEX
  8
0
 10
22.1625
 20
-11.3318
 30
0.0
 40
0
 41
0
  0
VERTEX
  8
0
 10
22.1257
 20
-11.4311
 30
0.0
 40
0
 41
0
  0
VERTEX
  8
0
 10
22.0038
 20
-11.7247
 30
0.0
 40
0
 41
0
  0
VERTEX
  8
0
 10
21.8218
 20
-12.1102
 30
0.0
 40
0
 41
0
  0
VERTEX
  8
0
 10
21.6183
 20
-12.487
 30
0.0
 40
0
 41
0
  0
VERTEX
  8
0
 10
21.3944
 20
-12.8541
 30
0.0
 40
0
 41
0
  0
VERTEX
  8
0
 10
21.1519
 20
-13.2102
 30
0.0
 40
0
 41
0
  0
VERTEX
  8
0
 10
20.8918
 20
-13.5543
 30
0.0
 40
0
 41
0
  0
VERTEX
  8
0
 10
20.6158
 20
-13.8851
 30
0.0
 40
0
 41
0
  0
VERTEX
  8
0
 10
20.3997
 20
-14.1243
 30
0.0
 40
0
 41
0
  0
VERTEX
  8
0
 10
20.3253
 20
-14.2018
 30
0.0
 40
0
 41
0
  0
VERTEX
  8
0
 10
20.275
 20
-14.2551
 30
0.0
 40
0
 41
0
  0
VERTEX
  8
0
 10
20.0153
 20
-14.5085
 30
0.0
 40
0
 41
0
  0
VERTEX
  8
0
 10
19.7406
 20
-14.7472
 30
0.0
 40
0
 41
0
  0
VERTEX
  8
0
 10
19.6828
 20
-14.7932
 30
0.0
 40
0
 41
0
  0
VERTEX
  8
0
 10
19.6453
 20
-14.8236
 30
0.0
 40
0
 41
0
  0
VERTEX
  8
0
 10
19.5264
 20
-14.9072
 30
0.0
 40
0
 41
0
  0
VERTEX
  8
0
 10
19.3578
 20
-15.0222
 30
0.0
 40
0
 41
0
  0
VERTEX
  8
0
 10
19.1985
 20
-15.1464
 30
0.0
 40
0
 41
0
  0
VERTEX
  8
0
 10
19.0972
 20
-15.2488
 30
0.0
 40
0
 41
0
  0
VERTEX
  8
0
 10
19.0704
 20
-15.2876
 30
0.0
 40
0
 41
0
  0
VERTEX
  8
0
 10
19.0565
 20
-15.3076
 30
0.0
 40
0
 41
0
  0
VERTEX
  8
0
 10
19.0246
 20
-15.374
 30
0.0
 40
0
 41
0
  0
VERTEX
  8
0
 10
19.0051
 20
-15.4585
 30
0.0
 40
0
 41
0
  0
VERTEX
  8
0
 10
19.0082
 20
-15.5408
 30
0.0
 40
0
 41
0
  0
VERTEX
  8
0
 10
19.0301
 20
-15.621
 30
0.0
 40
0
 41
0
  0
VERTEX
  8
0
 10
19.0672
 20
-15.6989
 30
0.0
 40
0
 41
0
  0
VERTEX
  8
0
 10
19.1156
 20
-15.7744
 30
0.0
 40
0
 41
0
  0
VERTEX
  8
0
 10
19.1714
 20
-15.8475
 30
0.0
 40
0
 41
0
  0
VERTEX
  8
0
 10
19.2158
 20
-15.9006
 30
0.0
 40
0
 41
0
  0
VERTEX
  8
0
 10
19.231
 20
-15.9179
 30
0.0
 40
0
 41
0
  0
VERTEX
  8
0
 10
19.2586
 20
-15.9481
 30
0.0
 40
0
 41
0
  0
VERTEX
  8
0
 10
19.3306
 20
-16.0485
 30
0.0
 40
0
 41
0
  0
VERTEX
  8
0
 10
19.4029
 20
-16.1918
 30
0.0
 40
0
 41
0
  0
VERTEX
  8
0
 10
19.4469
 20
-16.346
 30
0.0
 40
0
 41
0
  0
VERTEX
  8
0
 10
19.4619
 20
-16.4685
 30
0.0
 40
0
 41
0
  0
VERTEX
  8
0
 10
19.4619
 20
-16.5094
 30
0.0
 40
0
 41
0
  0
VERTEX
  8
0
 10
19.461
 20
-16.5554
 30
0.0
 40
0
 41
0
  0
VERTEX
  8
0
 10
19.4365
 20
-16.6932
 30
0.0
 40
0
 41
0
  0
VERTEX
  8
0
 10
19.3725
 20
-16.8596
 30
0.0
 40
0
 41
0
  0
VERTEX
  8
0
 10
19.2758
 20
-17.0097
 30
0.0
 40
0
 41
0
  0
VERTEX
  8
0
 10
19.1532
 20
-17.1444
 30
0.0
 40
0
 41
0
  0
VERTEX
  8
0
 10
19.0107
 20
-17.2646
 30
0.0
 40
0
 41
0
  0
VERTEX
  8
0
 10
18.8549
 20
-17.3711
 30
0.0
 40
0
 41
0
  0
VERTEX
  8
0
 10
18.6919
 20
-17.4649
 30
0.0
 40
0
 41
0
  0
VERTEX
  8
0
 10
18.5696
 20
-17.5274
 30
0.0
 40
0
 41
0
  0
VERTEX
  8
0
 10
18.5283
 20
-17.5469
 30
0.0
 40
0
 41
0
  0
VERTEX
  8
0
 10
18.4768
 20
-17.5707
 30
0.0
 40
0
 41
0
  0
VERTEX
  8
0
 10
18.3136
 20
-17.6231
 30
0.0
 40
0
 41
0
  0
VERTEX
  8
0
 10
18.084
 20
-17.6692
 30
0.0
 40
0
 41
0
  0
VERTEX
  8
0
 10
17.8506
 20
-17.6954
 30
0.0
 40
0
 41
0
  0
VERTEX
  8
0
 10
17.6811
 20
-17.7078
 30
0.0
 40
0
 41
0
  0
VERTEX
  8
0
 10
17.6247
 20
-17.7117
 30
0.0
 40
0
 41
0
  0
VERTEX
  8
0
 10
17.5676
 20
-17.7153
 30
0.0
 40
0
 41
0
  0
VERTEX
  8
0
 10
17.3958
 20
-17.7156
 30
0.0
 40
0
 41
0
  0
VERTEX
  8
0
 10
17.1642
 20
-17.6996
 30
0.0
 40
0
 41
0
  0
VERTEX
  8
0
 10
16.9343
 20
-17.6653
 30
0.0
 40
0
 41
0
  0
VERTEX
  8
0
 10
16.7664
 20
-17.6294
 30
0.0
 40
0
 41
0
  0
VERTEX
  8
0
 10
16.7111
 20
-17.6147
 30
0.0
 40
0
 41
0
  0
VERTEX
  8
0
 10
16.6572
 20
-17.6003
 30
0.0
 40
0
 41
0
  0
VERTEX
  8
0
 10
16.5012
 20
-17.5372
 30
0.0
 40
0
 41
0
  0
VERTEX
  8
0
 10
16.3044
 20
-17.4317
 30
0.0
 40
0
 41
0
  0
VERTEX
  8
0
 10
16.1153
 20
-17.3133
 30
0.0
 40
0
 41
0
  0
VERTEX
  8
0
 10
15.9756
 20
-17.2253
 30
0.0
 40
0
 41
0
  0
VERTEX
  8
0
 10
15.9281
 20
-17.1978
 30
0.0
 40
0
 41
0
  0
VERTEX
  8
0
 10
15.8835
 20
-17.1719
 30
0.0
 40
0
 41
0
  0
VERTEX
  8
0
 10
15.7363
 20
-17.1179
 30
0.0
 40
0
 41
0
  0
VERTEX
  8
0
 10
15.5389
 20
-17.0899
 30
0.0
 40
0
 41
0
  0
VERTEX
  8
0
 10
15.3378
 20
-17.1037
 30
0.0
 40
0
 41
0
  0
VERTEX
  8
0
 10
15.1847
 20
-17.135
 30
0.0
 40
0
 41
0
  0
VERTEX
  8
0
 10
15.1349
 20
-17.1493
 30
0.0
 40
0
 41
0
  0
VERTEX
  8
0
 10
14.9893
 20
-17.1906
 30
0.0
 40
0
 41
0
  0
VERTEX
  8
0
 10
14.2651
 20
-17.3904
 30
0.0
 40
0
 41
0
  0
VERTEX
  8
0
 10
13.5361
 20
-17.5663
 30
0.0
 40
0
 41
0
  0
VERTEX
  8
0
 10
13.388
 20
-17.5953
 30
0.0
 40
0
 41
0
  0
VERTEX
  8
0
 10
13.2853
 20
-17.6157
 30
0.0
 40
0
 41
0
  0
VERTEX
  8
0
 10
12.9785
 20
-17.6836
 30
0.0
 40
0
 41
0
  0
VERTEX
  8
0
 10
12.5611
 20
-17.7908
 30
0.0
 40
0
 41
0
  0
VERTEX
  8
0
 10
12.144
 20
-17.9207
 30
0.0
 40
0
 41
0
  0
VERTEX
  8
0
 10
11.7352
 20
-18.0764
 30
0.0
 40
0
 41
0
  0
VERTEX
  8
0
 10
11.3429
 20
-18.2618
 30
0.0
 40
0
 41
0
  0
VERTEX
  8
0
 10
10.9752
 20
-18.4801
 30
0.0
 40
0
 41
0
  0
VERTEX
  8
0
 10
10.6402
 20
-18.7351
 30
0.0
 40
0
 41
0
  0
VERTEX
  8
0
 10
10.4136
 20
-18.9514
 30
0.0
 40
0
 41
0
  0
VERTEX
  8
0
 10
10.346
 20
-19.0303
 30
0.0
 40
0
 41
0
  0
VERTEX
  8
0
 10
10.2768
 20
-19.1111
 30
0.0
 40
0
 41
0
  0
VERTEX
  8
0
 10
10.0875
 20
-19.3696
 30
0.0
 40
0
 41
0
  0
VERTEX
  8
0
 10
9.88167
 20
-19.7235
 30
0.0
 40
0
 41
0
  0
VERTEX
  8
0
 10
9.72483
 20
-20.0992
 30
0.0
 40
0
 41
0
  0
VERTEX
  8
0
 10
9.6351
 20
-20.4015
 30
0.0
 40
0
 41
0
  0
VERTEX
  8
0
 10
9.61317
 20
-20.5042
 30
0.0
 40
0
 41
0
  0
VERTEX
  8
0
 10
9.5981
 20
-20.5768
 30
0.0
 40
0
 41
0
  0
VERTEX
  8
0
 10
9.53282
 20
-20.9403
 30
0.0
 40
0
 41
0
  0
VERTEX
  8
0
 10
9.46756
 20
-21.304
 30
0.0
 40
0
 41
0
  0
VERTEX
  8
0
 10
9.45253
 20
-21.3768
 30
0.0
 40
0
 41
0
  0
VERTEX
  8
0
 10
9.43744
 20
-21.4469
 30
0.0
 40
0
 41
0
  0
VERTEX
  8
0
 10
9.34457
 20
-21.7875
 30
0.0
 40
0
 41
0
  0
VERTEX
  8
0
 10
9.24169
 20
-22.1233
 30
0.0
 40
0
 41
0
  0
VERTEX
  8
0
 10
9.22162
 20
-22.1911
 30
0.0
 40
0
 41
0
  0
VERTEX
  8
0
 10
9.20942
 20
-22.2336
 30
0.0
 40
0
 41
0
  0
VERTEX
  8
0
 10
9.16564
 20
-22.359
 30
0.0
 40
0
 41
0
  0
VERTEX
  8
0
 10
9.09565
 20
-22.5204
 30
0.0
 40
0
 41
0
  0
VERTEX
  8
0
 10
9.01178
 20
-22.6742
 30
0.0
 40
0
 41
0
  0
VERTEX
  8
0
 10
8.91411
 20
-22.8189
 30
0.0
 40
0
 41
0
  0
VERTEX
  8
0
 10
8.80285
 20
-22.9536
 30
0.0
 40
0
 41
0
  0
VERTEX
  8
0
 10
8.67806
 20
-23.0774
 30
0.0
 40
0
 41
0
  0
VERTEX
  8
0
 10
8.53982
 20
-23.1887
 30
0.0
 40
0
 41
0
  0
VERTEX
  8
0
 10
8.42736
 20
-23.2643
 30
0.0
 40
0
 41
0
  0
VERTEX
  8
0
 10
8.38835
 20
-23.2867
 30
0.0
 40
0
 41
0
  0
VERTEX
  8
0
 10
8.2965
 20
-23.3392
 30
0.0
 40
0
 41
0
  0
VERTEX
  8
0
 10
8.01042
 20
-23.4781
 30
0.0
 40
0
 41
0
  0
VERTEX
  8
0
 10
7.61654
 20
-23.6322
 30
0.0
 40
0
 41
0
  0
VERTEX
  8
0
 10
7.20947
 20
-23.7517
 30
0.0
 40
0
 41
0
  0
VERTEX
  8
0
 10
6.89703
 20
-23.8213
 30
0.0
 40
0
 41
0
  0
VERTEX
  8
0
 10
6.79204
 20
-23.8394
 30
0.0
 40
0
 41
0
  0
VERTEX
  8
0
 10
6.73551
 20
-23.8606
 30
0.0
 40
0
 41
0
  0
VERTEX
  8
0
 10
6.55735
 20
-23.9006
 30
0.0
 40
0
 41
0
  0
VERTEX
  8
0
 10
6.32269
 20
-23.9218
 30
0.0
 40
0
 41
0
  0
VERTEX
  8
0
 10
6.09179
 20
-23.9212
 30
0.0
 40
0
 41
0
  0
VERTEX
  8
0
 10
5.92426
 20
-23.9169
 30
0.0
 40
0
 41
0
  0
VERTEX
  8
0
 10
5.86843
 20
-23.9169
 30
0.0
 40
0
 41
0
  0
VERTEX
  8
0
 10
5.86843
 20
-23.9169
 30
0.0
 40
0
 41
0
  0
VERTEX
  8
0
 10
5.87131
 20
-23.9169
 30
0.0
 40
0
 41
0
  0
VERTEX
  8
0
 10
5.89524
 20
-23.9169
 30
0.0
 40
0
 41
0
  0
VERTEX
  8
0
 10
5.92931
 20
-23.9169
 30
0.0
 40
0
 41
0
  0
VERTEX
  8
0
 10
5.96251
 20
-23.9169
 30
0.0
 40
0
 41
0
  0
VERTEX
  8
0
 10
5.984
 20
-23.9169
 30
0.0
 40
0
 41
0
  0
VERTEX
  8
0
 10
5.98275
 20
-23.9169
 30
0.0
 40
0
 41
0
  0
VERTEX
  8
0
 10
5.94786
 20
-23.9169
 30
0.0
 40
0
 41
0
  0
VERTEX
  8
0
 10
5.88829
 20
-23.9169
 30
0.0
 40
0
 41
0
  0
VERTEX
  8
0
 10
5.86843
 20
-23.9169
 30
0.0
 40
0
 41
0
  0
SEQEND
 8
0
  0
POLYLINE
  8
0
 62
     0
 66
     1
 10
0
 20
0
 30
0.0
 70
     1
 40
0
 41
0
  0
VERTEX
  8
0
 10
9.55296
 20
-14.7737
 30
0.0
 40
0
 41
0
  0
VERTEX
  8
0
 10
9.55296
 20
-14.7383
 30
0.0
 40
0
 41
0
  0
VERTEX
  8
0
 10
9.55035
 20
-14.6319
 30
0.0
 40
0
 41
0
  0
VERTEX
  8
0
 10
9.54004
 20
-14.4858
 30
0.0
 40
0
 41
0
  0
VERTEX
  8
0
 10
9.51796
 20
-14.3404
 30
0.0
 40
0
 41
0
  0
VERTEX
  8
0
 10
9.48014
 20
-14.2006
 30
0.0
 40
0
 41
0
  0
VERTEX
  8
0
 10
9.42247
 20
-14.0711
 30
0.0
 40
0
 41
0
  0
VERTEX
  8
0
 10
9.3411
 20
-13.9571
 30
0.0
 40
0
 41
0
  0
VERTEX
  8
0
 10
9.23199
 20
-13.8633
 30
0.0
 40
0
 41
0
  0
VERTEX
  8
0
 10
9.12782
 20
-13.8072
 30
0.0
 40
0
 41
0
  0
VERTEX
  8
0
 10
9.0911
 20
-13.7946
 30
0.0
 40
0
 41
0
  0
VERTEX
  8
0
 10
9.05063
 20
-13.7807
 30
0.0
 40
0
 41
0
  0
VERTEX
  8
0
 10
8.92236
 20
-13.7593
 30
0.0
 40
0
 41
0
  0
VERTEX
  8
0
 10
8.75603
 20
-13.765
 30
0.0
 40
0
 41
0
  0
VERTEX
  8
0
 10
8.59343
 20
-13.8046
 30
0.0
 40
0
 41
0
  0
VERTEX
  8
0
 10
8.43599
 20
-13.8709
 30
0.0
 40
0
 41
0
  0
VERTEX
  8
0
 10
8.28515
 20
-13.9567
 30
0.0
 40
0
 41
0
  0
VERTEX
  8
0
 10
8.14236
 20
-14.055
 30
0.0
 40
0
 41
0
  0
VERTEX
  8
0
 10
8.00896
 20
-14.1583
 30
0.0
 40
0
 41
0
  0
VERTEX
  8
0
 10
7.91683
 20
-14.2343
 30
0.0
 40
0
 41
0
  0
VERTEX
  8
0
 10
7.88639
 20
-14.2599
 30
0.0
 40
0
 41
0
  0
VERTEX
  8
0
 10
7.81337
 20
-14.3196
 30
0.0
 40
0
 41
0
  0
VERTEX
  8
0
 10
7.60508
 20
-14.5118
 30
0.0
 40
0
 41
0
  0
VERTEX
  8
0
 10
7.34549
 20
-14.7847
 30
0.0
 40
0
 41
0
  0
VERTEX
  8
0
 10
7.10281
 20
-15.0739
 30
0.0
 40
0
 41
0
  0
VERTEX
  8
0
 10
6.92871
 20
-15.2988
 30
0.0
 40
0
 41
0
  0
VERTEX
  8
0
 10
6.8724
 20
-15.375
 30
0.0
 40
0
 41
0
  0
VERTEX
  8
0
 10
6.83475
 20
-15.4258
 30
0.0
 40
0
 41
0
  0
VERTEX
  8
0
 10
6.65653
 20
-15.6853
 30
0.0
 40
0
 41
0
  0
VERTEX
  8
0
 10
6.47831
 20
-15.9446
 30
0.0
 40
0
 41
0
  0
VERTEX
  8
0
 10
6.44069
 20
-15.9956
 30
0.0
 40
0
 41
0
  0
VERTEX
  8
0
 10
6.40306
 20
-16.0439
 30
0.0
 40
0
 41
0
  0
VERTEX
  8
0
 10
6.20096
 20
-16.2682
 30
0.0
 40
0
 41
0
  0
VERTEX
  8
0
 10
5.98383
 20
-16.4779
 30
0.0
 40
0
 41
0
  0
VERTEX
  8
0
 10
5.93869
 20
-16.5192
 30
0.0
 40
0
 41
0
  0
VERTEX
  8
0
 10
5.86774
 20
-16.5858
 30
0.0
 40
0
 41
0
  0
VERTEX
  8
0
 10
5.65115
 20
-16.7819
 30
0.0
 40
0
 41
0
  0
VERTEX
  8
0
 10
5.35514
 20
-17.0293
 30
0.0
 40
0
 41
0
  0
VERTEX
  8
0
 10
5.04221
 20
-17.2567
 30
0.0
 40
0
 41
0
  0
VERTEX
  8
0
 10
4.79069
 20
-17.4132
 30
0.0
 40
0
 41
0
  0
VERTEX
  8
0
 10
4.70383
 20
-17.4596
 30
0.0
 40
0
 41
0
  0
VERTEX
  8
0
 10
4.58838
 20
-17.5201
 30
0.0
 40
0
 41
0
  0
VERTEX
  8
0
 10
3.99729
 20
-17.8026
 30
0.0
 40
0
 41
0
  0
VERTEX
  8
0
 10
3.39117
 20
-18.0607
 30
0.0
 40
0
 41
0
  0
VERTEX
  8
0
 10
3.26818
 20
-18.1092
 30
0.0
 40
0
 41
0
  0
VERTEX
  8
0
 10
3.18251
 20
-18.1415
 30
0.0
 40
0
 41
0
  0
VERTEX
  8
0
 10
2.92557
 20
-18.2383
 30
0.0
 40
0
 41
0
  0
VERTEX
  8
0
 10
2.5905
 20
-18.3722
 30
0.0
 40
0
 41
0
  0
VERTEX
  8
0
 10
2.26297
 20
-18.5224
 30
0.0
 40
0
 41
0
  0
VERTEX
  8
0
 10
2.02067
 20
-18.6524
 30
0.0
 40
0
 41
0
  0
VERTEX
  8
0
 10
1.94299
 20
-18.7007
 30
0.0
 40
0
 41
0
  0
VERTEX
  8
0
 10
1.90836
 20
-18.7229
 30
0.0
 40
0
 41
0
  0
VERTEX
  8
0
 10
1.80735
 20
-18.794
 30
0.0
 40
0
 41
0
  0
VERTEX
  8
0
 10
1.67312
 20
-18.8987
 30
0.0
 40
0
 41
0
  0
VERTEX
  8
0
 10
1.54269
 20
-19.0135
 30
0.0
 40
0
 41
0
  0
VERTEX
  8
0
 10
1.4184
 20
-19.1369
 30
0.0
 40
0
 41
0
  0
VERTEX
  8
0
 10
1.30252
 20
-19.2676
 30
0.0
 40
0
 41
0
  0
VERTEX
  8
0
 10
1.19754
 20
-19.4042
 30
0.0
 40
0
 41
0
  0
VERTEX
  8
0
 10
1.10569
 20
-19.5453
 30
0.0
 40
0
 41
0
  0
VERTEX
  8
0
 10
1.0466
 20
-19.6526
 30
0.0
 40
0
 41
0
  0
VERTEX
  8
0
 10
1.02941
 20
-19.6896
 30
0.0
 40
0
 41
0
  0
VERTEX
  8
0
 10
1.01199
 20
-19.7294
 30
0.0
 40
0
 41
0
  0
VERTEX
  8
0
 10
0.969185
 20
-19.8531
 30
0.0
 40
0
 41
0
  0
VERTEX
  8
0
 10
0.931967
 20
-20.0157
 30
0.0
 40
0
 41
0
  0
VERTEX
  8
0
 10
0.918024
 20
-20.1768
 30
0.0
 40
0
 41
0
  0
VERTEX
  8
0
 10
0.927735
 20
-20.3356
 30
0.0
 40
0
 41
0
  0
VERTEX
  8
0
 10
0.961426
 20
-20.4911
 30
0.0
 40
0
 41
0
  0
VERTEX
  8
0
 10
1.01948
 20
-20.6426
 30
0.0
 40
0
 41
0
  0
VERTEX
  8
0
 10
1.10221
 20
-20.7894
 30
0.0
 40
0
 41
0
  0
VERTEX
  8
0
 10
1.18093
 20
-20.8972
 30
0.0
 40
0
 41
0
  0
VERTEX
  8
0
 10
1.21007
 20
-20.9307
 30
0.0
 40
0
 41
0
  0
VERTEX
  8
0
 10
1.27073
 20
-21
 30
0.0
 40
0
 41
0
  0
VERTEX
  8
0
 10
1.47597
 20
-21.1876
 30
0.0
 40
0
 41
0
  0
VERTEX
  8
0
 10
1.771
 20
-21.401
 30
0.0
 40
0
 41
0
  0
VERTEX
  8
0
 10
2.08681
 20
-21.5851
 30
0.0
 40
0
 41
0
  0
VERTEX
  8
0
 10
2.33242
 20
-21.7132
 30
0.0
 40
0
 41
0
  0
VERTEX
  8
0
 10
2.41482
 20
-21.7549
 30
0.0
 40
0
 41
0
  0
VERTEX
  8
0
 10
2.50119
 20
-21.8001
 30
0.0
 40
0
 41
0
  0
VERTEX
  8
0
 10
2.76947
 20
-21.9186
 30
0.0
 40
0
 41
0
  0
VERTEX
  8
0
 10
3.13639
 20
-22.0553
 30
0.0
 40
0
 41
0
  0
VERTEX
  8
0
 10
3.50896
 20
-22.1775
 30
0.0
 40
0
 41
0
  0
VERTEX
  8
0
 10
3.78797
 20
-22.2668
 30
0.0
 40
0
 41
0
  0
VERTEX
  8
0
 10
3.88058
 20
-22.2978
 30
0.0
 40
0
 41
0
  0
VERTEX
  8
0
 10
3.97254
 20
-22.3268
 30
0.0
 40
0
 41
0
  0
VERTEX
  8
0
 10
4.24826
 20
-22.4147
 30
0.0
 40
0
 41
0
  0
VERTEX
  8
0
 10
4.616
 20
-22.5281
 30
0.0
 40
0
 41
0
  0
VERTEX
  8
0
 10
4.98742
 20
-22.6304
 30
0.0
 40
0
 41
0
  0
VERTEX
  8
0
 10
5.27111
 20
-22.6967
 30
0.0
 40
0
 41
0
  0
VERTEX
  8
0
 10
5.36643
 20
-22.7147
 30
0.0
 40
0
 41
0
  0
VERTEX
  8
0
 10
5.4094
 20
-22.7231
 30
0.0
 40
0
 41
0
  0
VERTEX
  8
0
 10
5.53901
 20
-22.7453
 30
0.0
 40
0
 41
0
  0
VERTEX
  8
0
 10
5.71712
 20
-22.7707
 30
0.0
 40
0
 41
0
  0
VERTEX
  8
0
 10
5.89942
 20
-22.7903
 30
0.0
 40
0
 41
0
  0
VERTEX
  8
0
 10
6.08458
 20
-22.8031
 30
0.0
 40
0
 41
0
  0
VERTEX
  8
0
 10
6.27121
 20
-22.8079
 30
0.0
 40
0
 41
0
  0
VERTEX
  8
0
 10
6.45811
 20
-22.8042
 30
0.0
 40
0
 41
0
  0
VERTEX
  8
0
 10
6.64382
 20
-22.7907
 30
0.0
 40
0
 41
0
  0
VERTEX
  8
0
 10
6.82715
 20
-22.7668
 30
0.0
 40
0
 41
0
  0
VERTEX
  8
0
 10
7.00672
 20
-22.7314
 30
0.0
 40
0
 41
0
  0
VERTEX
  8
0
 10
7.18115
 20
-22.6835
 30
0.0
 40
0
 41
0
  0
VERTEX
  8
0
 10
7.34924
 20
-22.6224
 30
0.0
 40
0
 41
0
  0
VERTEX
  8
0
 10
7.50956
 20
-22.5469
 30
0.0
 40
0
 41
0
  0
VERTEX
  8
0
 10
7.66081
 20
-22.4564
 30
0.0
 40
0
 41
0
  0
VERTEX
  8
0
 10
7.80165
 20
-22.3497
 30
0.0
 40
0
 41
0
  0
VERTEX
  8
0
 10
7.93083
 20
-22.2261
 30
0.0
 40
0
 41
0
  0
VERTEX
  8
0
 10
8.02018
 20
-22.1215
 30
0.0
 40
0
 41
0
  0
VERTEX
  8
0
 10
8.04699
 20
-22.0846
 30
0.0
 40
0
 41
0
  0
VERTEX
  8
0
 10
8.10275
 20
-22.009
 30
0.0
 40
0
 41
0
  0
VERTEX
  8
0
 10
8.25233
 20
-21.7693
 30
0.0
 40
0
 41
0
  0
VERTEX
  8
0
 10
8.42296
 20
-21.4379
 30
0.0
 40
0
 41
0
  0
VERTEX
  8
0
 10
8.56847
 20
-21.0946
 30
0.0
 40
0
 41
0
  0
VERTEX
  8
0
 10
8.69829
 20
-20.744
 30
0.0
 40
0
 41
0
  0
VERTEX
  8
0
 10
8.822
 20
-20.3907
 30
0.0
 40
0
 41
0
  0
VERTEX
  8
0
 10
8.94911
 20
-20.0393
 30
0.0
 40
0
 41
0
  0
VERTEX
  8
0
 10
9.08919
 20
-19.6942
 30
0.0
 40
0
 41
0
  0
VERTEX
  8
0
 10
9.20757
 20
-19.4415
 30
0.0
 40
0
 41
0
  0
VERTEX
  8
0
 10
9.25174
 20
-19.36
 30
0.0
 40
0
 41
0
  0
VERTEX
  8
0
 10
9.29503
 20
-19.28
 30
0.0
 40
0
 41
0
  0
VERTEX
  8
0
 10
9.43636
 20
-19.046
 30
0.0
 40
0
 41
0
  0
VERTEX
  8
0
 10
9.64453
 20
-18.7467
 30
0.0
 40
0
 41
0
  0
VERTEX
  8
0
 10
9.87717
 20
-18.4656
 30
0.0
 40
0
 41
0
  0
VERTEX
  8
0
 10
10.0677
 20
-18.2676
 30
0.0
 40
0
 41
0
  0
VERTEX
  8
0
 10
10.1352
 20
-18.2061
 30
0.0
 40
0
 41
0
  0
VERTEX
  8
0
 10
10.1676
 20
-18.1765
 30
0.0
 40
0
 41
0
  0
VERTEX
  8
0
 10
10.2712
 20
-18.0946
 30
0.0
 40
0
 41
0
  0
VERTEX
  8
0
 10
10.4193
 20
-17.9901
 30
0.0
 40
0
 41
0
  0
VERTEX
  8
0
 10
10.5737
 20
-17.8887
 30
0.0
 40
0
 41
0
  0
VERTEX
  8
0
 10
10.7288
 20
-17.7868
 30
0.0
 40
0
 41
0
  0
VERTEX
  8
0
 10
10.8786
 20
-17.6803
 30
0.0
 40
0
 41
0
  0
VERTEX
  8
0
 10
11.0176
 20
-17.5653
 30
0.0
 40
0
 41
0
  0
VERTEX
  8
0
 10
11.1398
 20
-17.4381
 30
0.0
 40
0
 41
0
  0
VERTEX
  8
0
 10
11.2181
 20
-17.3326
 30
0.0
 40
0
 41
0
  0
VERTEX
  8
0
 10
11.2396
 20
-17.2947
 30
0.0
 40
0
 41
0
  0
VERTEX
  8
0
 10
11.2507
 20
-17.2758
 30
0.0
 40
0
 41
0
  0
VERTEX
  8
0
 10
11.2748
 20
-17.2136
 30
0.0
 40
0
 41
0
  0
VERTEX
  8
0
 10
11.2846
 20
-17.1372
 30
0.0
 40
0
 41
0
  0
VERTEX
  8
0
 10
11.2717
 20
-17.0656
 30
0.0
 40
0
 41
0
  0
VERTEX
  8
0
 10
11.2386
 20
-16.9983
 30
0.0
 40
0
 41
0
  0
VERTEX
  8
0
 10
11.1883
 20
-16.9353
 30
0.0
 40
0
 41
0
  0
VERTEX
  8
0
 10
11.1234
 20
-16.8762
 30
0.0
 40
0
 41
0
  0
VERTEX
  8
0
 10
11.0467
 20
-16.8213
 30
0.0
 40
0
 41
0
  0
VERTEX
  8
0
 10
10.9609
 20
-16.77
 30
0.0
 40
0
 41
0
  0
VERTEX
  8
0
 10
10.8688
 20
-16.7221
 30
0.0
 40
0
 41
0
  0
VERTEX
  8
0
 10
10.7731
 20
-16.6776
 30
0.0
 40
0
 41
0
  0
VERTEX
  8
0
 10
10.6764
 20
-16.6364
 30
0.0
 40
0
 41
0
  0
VERTEX
  8
0
 10
10.5817
 20
-16.5979
 30
0.0
 40
0
 41
0
  0
VERTEX
  8
0
 10
10.4914
 20
-16.5624
 30
0.0
 40
0
 41
0
  0
VERTEX
  8
0
 10
10.4086
 20
-16.5294
 30
0.0
 40
0
 41
0
  0
VERTEX
  8
0
 10
10.3358
 20
-16.4989
 30
0.0
 40
0
 41
0
  0
VERTEX
  8
0
 10
10.2905
 20
-16.4782
 30
0.0
 40
0
 41
0
  0
VERTEX
  8
0
 10
10.2758
 20
-16.4706
 30
0.0
 40
0
 41
0
  0
VERTEX
  8
0
 10
10.2379
 20
-16.4504
 30
0.0
 40
0
 41
0
  0
VERTEX
  8
0
 10
10.1247
 20
-16.3894
 30
0.0
 40
0
 41
0
  0
VERTEX
  8
0
 10
9.97831
 20
-16.3008
 30
0.0
 40
0
 41
0
  0
VERTEX
  8
0
 10
9.84511
 20
-16.1979
 30
0.0
 40
0
 41
0
  0
VERTEX
  8
0
 10
9.75765
 20
-16.1069
 30
0.0
 40
0
 41
0
  0
VERTEX
  8
0
 10
9.73361
 20
-16.0731
 30
0.0
 40
0
 41
0
  0
VERTEX
  8
0
 10
9.70921
 20
-16.0404
 30
0.0
 40
0
 41
0
  0
VERTEX
  8
0
 10
9.64512
 20
-15.9356
 30
0.0
 40
0
 41
0
  0
VERTEX
  8
0
 10
9.57547
 20
-15.7871
 30
0.0
 40
0
 41
0
  0
VERTEX
  8
0
 10
9.52463
 20
-15.6312
 30
0.0
 40
0
 41
0
  0
VERTEX
  8
0
 10
9.49832
 20
-15.5121
 30
0.0
 40
0
 41
0
  0
VERTEX
  8
0
 10
9.49268
 20
-15.4719
 30
0.0
 40
0
 41
0
  0
VERTEX
  8
0
 10
9.49013
 20
-15.4138
 30
0.0
 40
0
 41
0
  0
VERTEX
  8
0
 10
9.5115
 20
-15.1228
 30
0.0
 40
0
 41
0
  0
VERTEX
  8
0
 10
9.5479
 20
-14.8319
 30
0.0
 40
0
 41
0
  0
VERTEX
  8
0
 10
9.55296
 20
-14.7737
 30
0.0
 40
0
 41
0
  0
VERTEX
  8
0
 10
9.55296
 20
-14.7636
 30
0.0
 40
0
 41
0
  0
VERTEX
  8
0
 10
9.55279
 20
-14.7333
 30
0.0
 40
0
 41
0
  0
VERTEX
  8
0
 10
9.55251
 20
-14.7054
 30
0.0
 40
0
 41
0
  0
VERTEX
  8
0
 10
9.55208
 20
-14.6885
 30
0.0
 40
0
 41
0
  0
VERTEX
  8
0
 10
9.55149
 20
-14.6811
 30
0.0
 40
0
 41
0
  0
VERTEX
  8
0
 10
9.55089
 20
-14.6817
 30
0.0
 40
0
 41
0
  0
VERTEX
  8
0
 10
9.55024
 20
-14.6886
 30
0.0
 40
0
 41
0
  0
VERTEX
  8
0
 10
9.54964
 20
-14.7004
 30
0.0
 40
0
 41
0
  0
VERTEX
  8
0
 10
9.54915
 20
-14.7156
 30
0.0
 40
0
 41
0
  0
VERTEX
  8
0
 10
9.54872
 20
-14.7326
 30
0.0
 40
0
 41
0
  0
VERTEX
  8
0
 10
9.5485
 20
-14.75
 30
0.0
 40
0
 41
0
  0
VERTEX
  8
0
 10
9.54844
 20
-14.766
 30
0.0
 40
0
 41
0
  0
VERTEX
  8
0
 10
9.54867
 20
-14.7793
 30
0.0
 40
0
 41
0
  0
VERTEX
  8
0
 10
9.54915
 20
-14.7882
 30
0.0
 40
0
 41
0
  0
VERTEX
  8
0
 10
9.55003
 20
-14.7912
 30
0.0
 40
0
 41
0
  0
VERTEX
  8
0
 10
9.55126
 20
-14.7869
 30
0.0
 40
0
 41
0
  0
VERTEX
  8
0
 10
9.55257
 20
-14.7771
 30
0.0
 40
0
 41
0
  0
VERTEX
  8
0
 10
9.55296
 20
-14.7737
 30
0.0
 40
0
 41
0
  0
SEQEND
 8
0
  0
POLYLINE
  8
0
 62
     0
 66
     1
 10
0
 20
0
 30
0.0
 70
     1
 40
0
 41
0
  0
VERTEX
  8
0
 10
5.11546
 20
-3.13894
 30
0.0
 40
0
 41
0
  0
VERTEX
  8
0
 10
5.10563
 20
-3.13976
 30
0.0
 40
0
 41
0
  0
VERTEX
  8
0
 10
5.07813
 20
-3.16308
 30
0.0
 40
0
 41
0
  0
VERTEX
  8
0
 10
5.04829
 20
-3.22174
 30
0.0
 40
0
 41
0
  0
VERTEX
  8
0
 10
5.02512
 20
-3.30469
 30
0.0
 40
0
 41
0
  0
VERTEX
  8
0
 10
5.00754
 20
-3.40186
 30
0.0
 40
0
 41
0
  0
VERTEX
  8
0
 10
4.99468
 20
-3.5031
 30
0.0
 40
0
 41
0
  0
VERTEX
  8
0
 10
4.98557
 20
-3.59836
 30
0.0
 40
0
 41
0
  0
VERTEX
  8
0
 10
4.97928
 20
-3.67746
 30
0.0
 40
0
 41
0
  0
VERTEX
  8
0
 10
4.97629
 20
-3.71718
 30
0.0
 40
0
 41
0
  0
VERTEX
  8
0
 10
4.97493
 20
-3.73036
 30
0.0
 40
0
 41
0
  0
VERTEX
  8
0
 10
4.97239
 20
-3.79335
 30
0.0
 40
0
 41
0
  0
VERTEX
  8
0
 10
4.97114
 20
-4.10846
 30
0.0
 40
0
 41
0
  0
VERTEX
  8
0
 10
4.97493
 20
-4.39204
 30
0.0
 40
0
 41
0
  0
VERTEX
  8
0
 10
4.97493
 20
-4.4866
 30
0.0
 40
0
 41
0
  0
VERTEX
  8
0
 10
4.97493
 20
-4.57383
 30
0.0
 40
0
 41
0
  0
VERTEX
  8
0
 10
4.97239
 20
-4.83567
 30
0.0
 40
0
 41
0
  0
VERTEX
  8
0
 10
4.97993
 20
-5.12651
 30
0.0
 40
0
 41
0
  0
VERTEX
  8
0
 10
4.98497
 20
-5.18468
 30
0.0
 40
0
 41
0
  0
VERTEX
  8
0
 10
4.98872
 20
-5.23215
 30
0.0
 40
0
 41
0
  0
VERTEX
  8
0
 10
5.01335
 20
-5.37358
 30
0.0
 40
0
 41
0
  0
VERTEX
  8
0
 10
5.06147
 20
-5.56158
 30
0.0
 40
0
 41
0
  0
VERTEX
  8
0
 10
5.11903
 20
-5.74778
 30
0.0
 40
0
 41
0
  0
VERTEX
  8
0
 10
5.16233
 20
-5.88514
 30
0.0
 40
0
 41
0
  0
VERTEX
  8
0
 10
5.17572
 20
-5.93126
 30
0.0
 40
0
 41
0
  0
VERTEX
  8
0
 10
5.19982
 20
-6.01188
 30
0.0
 40
0
 41
0
  0
VERTEX
  8
0
 10
5.28017
 20
-6.25151
 30
0.0
 40
0
 41
0
  0
VERTEX
  8
0
 10
5.40158
 20
-6.55903
 30
0.0
 40
0
 41
0
  0
VERTEX
  8
0
 10
5.54557
 20
-6.85568
 30
0.0
 40
0
 41
0
  0
VERTEX
  8
0
 10
5.6715
 20
-7.07346
 30
0.0
 40
0
 41
0
  0
VERTEX
  8
0
 10
5.71783
 20
-7.14324
 30
0.0
 40
0
 41
0
  0
VERTEX
  8
0
 10
5.76406
 20
-7.2111
 30
0.0
 40
0
 41
0
  0
VERTEX
  8
0
 10
5.91407
 20
-7.40712
 30
0.0
 40
0
 41
0
  0
VERTEX
  8
0
 10
6.12815
 20
-7.6474
 30
0.0
 40
0
 41
0
  0
VERTEX
  8
0
 10
6.36301
 20
-7.86583
 30
0.0
 40
0
 41
0
  0
VERTEX
  8
0
 10
6.55464
 20
-8.01779
 30
0.0
 40
0
 41
0
  0
VERTEX
  8
0
 10
6.62136
 20
-8.06435
 30
0.0
 40
0
 41
0
  0
VERTEX
  8
0
 10
6.69293
 20
-8.11529
 30
0.0
 40
0
 41
0
  0
VERTEX
  8
0
 10
6.926
 20
-8.24262
 30
0.0
 40
0
 41
0
  0
VERTEX
  8
0
 10
7.2589
 20
-8.37819
 30
0.0
 40
0
 41
0
  0
VERTEX
  8
0
 10
7.60682
 20
-8.48292
 30
0.0
 40
0
 41
0
  0
VERTEX
  8
0
 10
7.86893
 20
-8.54824
 30
0.0
 40
0
 41
0
  0
VERTEX
  8
0
 10
7.95665
 20
-8.56853
 30
0.0
 40
0
 41
0
  0
VERTEX
  8
0
 10
8.04596
 20
-8.58789
 30
0.0
 40
0
 41
0
  0
VERTEX
  8
0
 10
8.32351
 20
-8.60226
 30
0.0
 40
0
 41
0
  0
VERTEX
  8
0
 10
8.68576
 20
-8.56244
 30
0.0
 40
0
 41
0
  0
VERTEX
  8
0
 10
9.04232
 20
-8.47715
 30
0.0
 40
0
 41
0
  0
VERTEX
  8
0
 10
9.30479
 20
-8.40028
 30
0.0
 40
0
 41
0
  0
VERTEX
  8
0
 10
9.39231
 20
-8.37463
 30
0.0
 40
0
 41
0
  0
VERTEX
  8
0
 10
9.47683
 20
-8.35037
 30
0.0
 40
0
 41
0
  0
VERTEX
  8
0
 10
9.72433
 20
-8.25575
 30
0.0
 40
0
 41
0
  0
VERTEX
  8
0
 10
10.0348
 20
-8.09825
 30
0.0
 40
0
 41
0
  0
VERTEX
  8
0
 10
10.3226
 20
-7.90625
 30
0.0
 40
0
 41
0
  0
VERTEX
  8
0
 10
10.587
 20
-7.68375
 30
0.0
 40
0
 41
0
  0
VERTEX
  8
0
 10
10.8268
 20
-7.43494
 30
0.0
 40
0
 41
0
  0
VERTEX
  8
0
 10
11.0412
 20
-7.16385
 30
0.0
 40
0
 41
0
  0
VERTEX
  8
0
 10
11.2293
 20
-6.87457
 30
0.0
 40
0
 41
0
  0
VERTEX
  8
0
 10
11.3533
 20
-6.64865
 30
0.0
 40
0
 41
0
  0
VERTEX
  8
0
 10
11.3901
 20
-6.57124
 30
0.0
 40
0
 41
0
  0
VERTEX
  8
0
 10
11.4307
 20
-6.48394
 30
0.0
 40
0
 41
0
  0
VERTEX
  8
0
 10
11.526
 20
-6.20975
 30
0.0
 40
0
 41
0
  0
VERTEX
  8
0
 10
11.611
 20
-5.83914
 30
0.0
 40
0
 41
0
  0
VERTEX
  8
0
 10
11.6584
 20
-5.46132
 30
0.0
 40
0
 41
0
  0
VERTEX
  8
0
 10
11.6776
 20
-5.17389
 30
0.0
 40
0
 41
0
  0
VERTEX
  8
0
 10
11.6813
 20
-5.07801
 30
0.0
 40
0
 41
0
  0
VERTEX
  8
0
 10
11.6838
 20
-5.00771
 30
0.0
 40
0
 41
0
  0
VERTEX
  8
0
 10
11.6851
 20
-4.65744
 30
0.0
 40
0
 41
0
  0
VERTEX
  8
0
 10
11.6813
 20
-4.34754
 30
0.0
 40
0
 41
0
  0
VERTEX
  8
0
 10
11.6813
 20
-4.24425
 30
0.0
 40
0
 41
0
  0
VERTEX
  8
0
 10
11.6813
 20
-4.19075
 30
0.0
 40
0
 41
0
  0
VERTEX
  8
0
 10
11.6868
 20
-4.03043
 30
0.0
 40
0
 41
0
  0
VERTEX
  8
0
 10
11.6951
 20
-3.81392
 30
0.0
 40
0
 41
0
  0
VERTEX
  8
0
 10
11.694
 20
-3.59924
 30
0.0
 40
0
 41
0
  0
VERTEX
  8
0
 10
11.6808
 20
-3.44228
 30
0.0
 40
0
 41
0
  0
VERTEX
  8
0
 10
11.6713
 20
-3.39094
 30
0.0
 40
0
 41
0
  0
VERTEX
  8
0
 10
11.6487
 20
-3.39578
 30
0.0
 40
0
 41
0
  0
VERTEX
  8
0
 10
11.5408
 20
-3.42367
 30
0.0
 40
0
 41
0
  0
VERTEX
  8
0
 10
11.4328
 20
-3.44672
 30
0.0
 40
0
 41
0
  0
VERTEX
  8
0
 10
11.4102
 20
-3.44917
 30
0.0
 40
0
 41
0
  0
VERTEX
  8
0
 10
11.3901
 20
-3.45156
 30
0.0
 40
0
 41
0
  0
VERTEX
  8
0
 10
11.2948
 20
-3.44303
 30
0.0
 40
0
 41
0
  0
VERTEX
  8
0
 10
11.2082
 20
-3.42974
 30
0.0
 40
0
 41
0
  0
VERTEX
  8
0
 10
11.1793
 20
-3.42974
 30
0.0
 40
0
 41
0
  0
VERTEX
  8
0
 10
11.1647
 20
-3.42974
 30
0.0
 40
0
 41
0
  0
VERTEX
  8
0
 10
11.1211
 20
-3.43787
 30
0.0
 40
0
 41
0
  0
VERTEX
  8
0
 10
11.0732
 20
-3.46044
 30
0.0
 40
0
 41
0
  0
VERTEX
  8
0
 10
11.0339
 20
-3.49463
 30
0.0
 40
0
 41
0
  0
VERTEX
  8
0
 10
11.0011
 20
-3.5376
 30
0.0
 40
0
 41
0
  0
VERTEX
  8
0
 10
10.973
 20
-3.58643
 30
0.0
 40
0
 41
0
  0
VERTEX
  8
0
 10
10.9477
 20
-3.63829
 30
0.0
 40
0
 41
0
  0
VERTEX
  8
0
 10
10.9234
 20
-3.69049
 30
0.0
 40
0
 41
0
  0
VERTEX
  8
0
 10
10.9049
 20
-3.72786
 30
0.0
 40
0
 41
0
  0
VERTEX
  8
0
 10
10.8982
 20
-3.74001
 30
0.0
 40
0
 41
0
  0
VERTEX
  8
0
 10
10.8756
 20
-3.78364
 30
0.0
 40
0
 41
0
  0
VERTEX
  8
0
 10
10.6497
 20
-4.22721
 30
0.0
 40
0
 41
0
  0
VERTEX
  8
0
 10
10.6272
 20
-4.27328
 30
0.0
 40
0
 41
0
  0
VERTEX
  8
0
 10
10.6091
 20
-4.30632
 30
0.0
 40
0
 41
0
  0
VERTEX
  8
0
 10
10.5507
 20
-4.40326
 30
0.0
 40
0
 41
0
  0
VERTEX
  8
0
 10
10.4678
 20
-4.54232
 30
0.0
 40
0
 41
0
  0
VERTEX
  8
0
 10
10.3942
 20
-4.685
 30
0.0
 40
0
 41
0
  0
VERTEX
  8
0
 10
10.3539
 20
-4.78982
 30
0.0
 40
0
 41
0
  0
VERTEX
  8
0
 10
10.346
 20
-4.82596
 30
0.0
 40
0
 41
0
  0
VERTEX
  8
0
 10
10.3406
 20
-4.85037
 30
0.0
 40
0
 41
0
  0
VERTEX
  8
0
 10
10.349
 20
-4.9291
 30
0.0
 40
0
 41
0
  0
VERTEX
  8
0
 10
10.3774
 20
-5.03321
 30
0.0
 40
0
 41
0
  0
VERTEX
  8
0
 10
10.3926
 20
-5.13547
 30
0.0
 40
0
 41
0
  0
VERTEX
  8
0
 10
10.3715
 20
-5.21382
 30
0.0
 40
0
 41
0
  0
VERTEX
  8
0
 10
10.3561
 20
-5.23324
 30
0.0
 40
0
 41
0
  0
VERTEX
  8
0
 10
10.3478
 20
-5.24274
 30
0.0
 40
0
 41
0
  0
VERTEX
  8
0
 10
10.3165
 20
-5.26574
 30
0.0
 40
0
 41
0
  0
VERTEX
  8
0
 10
10.2732
 20
-5.28282
 30
0.0
 40
0
 41
0
  0
VERTEX
  8
0
 10
10.2262
 20
-5.29449
 30
0.0
 40
0
 41
0
  0
VERTEX
  8
0
 10
10.1876
 20
-5.30561
 30
0.0
 40
0
 41
0
  0
VERTEX
  8
0
 10
10.1753
 20
-5.31071
 30
0.0
 40
0
 41
0
  0
VERTEX
  8
0
 10
10.1592
 20
-5.31689
 30
0.0
 40
0
 41
0
  0
VERTEX
  8
0
 10
10.1136
 20
-5.34207
 30
0.0
 40
0
 41
0
  0
VERTEX
  8
0
 10
10.0724
 20
-5.37983
 30
0.0
 40
0
 41
0
  0
VERTEX
  8
0
 10
10.0426
 20
-5.4266
 30
0.0
 40
0
 41
0
  0
VERTEX
  8
0
 10
10.0215
 20
-5.47049
 30
0.0
 40
0
 41
0
  0
VERTEX
  8
0
 10
10.0148
 20
-5.48525
 30
0.0
 40
0
 41
0
  0
VERTEX
  8
0
 10
9.99718
 20
-5.52642
 30
0.0
 40
0
 41
0
  0
VERTEX
  8
0
 10
9.90804
 20
-5.7385
 30
0.0
 40
0
 41
0
  0
VERTEX
  8
0
 10
9.81396
 20
-5.95546
 30
0.0
 40
0
 41
0
  0
VERTEX
  8
0
 10
9.79389
 20
-5.99914
 30
0.0
 40
0
 41
0
  0
VERTEX
  8
0
 10
9.78033
 20
-6.03082
 30
0.0
 40
0
 41
0
  0
VERTEX
  8
0
 10
9.74224
 20
-6.12711
 30
0.0
 40
0
 41
0
  0
VERTEX
  8
0
 10
9.68967
 20
-6.25965
 30
0.0
 40
0
 41
0
  0
VERTEX
  8
0
 10
9.63151
 20
-6.3904
 30
0.0
 40
0
 41
0
  0
VERTEX
  8
0
 10
9.58197
 20
-6.48356
 30
0.0
 40
0
 41
0
  0
VERTEX
  8
0
 10
9.56299
 20
-6.51303
 30
0.0
 40
0
 41
0
  0
VERTEX
  8
0
 10
9.5549
 20
-6.52544
 30
0.0
 40
0
 41
0
  0
VERTEX
  8
0
 10
9.52544
 20
-6.55935
 30
0.0
 40
0
 41
0
  0
VERTEX
  8
0
 10
9.48876
 20
-6.58388
 30
0.0
 40
0
 41
0
  0
VERTEX
  8
0
 10
9.45372
 20
-6.58936
 30
0.0
 40
0
 41
0
  0
VERTEX
  8
0
 10
9.42111
 20
-6.5784
 30
0.0
 40
0
 41
0
  0
VERTEX
  8
0
 10
9.39188
 20
-6.55388
 30
0.0
 40
0
 41
0
  0
VERTEX
  8
0
 10
9.36669
 20
-6.51839
 30
0.0
 40
0
 41
0
  0
VERTEX
  8
0
 10
9.34646
 20
-6.47478
 30
0.0
 40
0
 41
0
  0
VERTEX
  8
0
 10
9.33475
 20
-6.43815
 30
0.0
 40
0
 41
0
  0
VERTEX
  8
0
 10
9.33203
 20
-6.42572
 30
0.0
 40
0
 41
0
  0
VERTEX
  8
0
 10
9.322
 20
-6.38211
 30
0.0
 40
0
 41
0
  0
VERTEX
  8
0
 10
9.2856
 20
-6.14942
 30
0.0
 40
0
 41
0
  0
VERTEX
  8
0
 10
9.26426
 20
-5.91672
 30
0.0
 40
0
 41
0
  0
VERTEX
  8
0
 10
9.26178
 20
-5.8731
 30
0.0
 40
0
 41
0
  0
VERTEX
  8
0
 10
9.25999
 20
-5.84028
 30
0.0
 40
0
 41
0
  0
VERTEX
  8
0
 10
9.27024
 20
-5.7411
 30
0.0
 40
0
 41
0
  0
VERTEX
  8
0
 10
9.29937
 20
-5.61735
 30
0.0
 40
0
 41
0
  0
VERTEX
  8
0
 10
9.33236
 20
-5.49539
 30
0.0
 40
0
 41
0
  0
VERTEX
  8
0
 10
9.35032
 20
-5.40072
 30
0.0
 40
0
 41
0
  0
VERTEX
  8
0
 10
9.35215
 20
-5.36893
 30
0.0
 40
0
 41
0
  0
VERTEX
  8
0
 10
9.35297
 20
-5.35553
 30
0.0
 40
0
 41
0
  0
VERTEX
  8
0
 10
9.34571
 20
-5.31483
 30
0.0
 40
0
 41
0
  0
VERTEX
  8
0
 10
9.3214
 20
-5.27463
 30
0.0
 40
0
 41
0
  0
VERTEX
  8
0
 10
9.28293
 20
-5.24582
 30
0.0
 40
0
 41
0
  0
VERTEX
  8
0
 10
9.23415
 20
-5.22586
 30
0.0
 40
0
 41
0
  0
VERTEX
  8
0
 10
9.17876
 20
-5.21224
 30
0.0
 40
0
 41
0
  0
VERTEX
  8
0
 10
9.12061
 20
-5.20253
 30
0.0
 40
0
 41
0
  0
VERTEX
  8
0
 10
9.06332
 20
-5.19417
 30
0.0
 40
0
 41
0
  0
VERTEX
  8
0
 10
9.02376
 20
-5.18756
 30
0.0
 40
0
 41
0
  0
VERTEX
  8
0
 10
9.01079
 20
-5.18468
 30
0.0
 40
0
 41
0
  0
VERTEX
  8
0
 10
8.9656
 20
-5.17497
 30
0.0
 40
0
 41
0
  0
VERTEX
  8
0
 10
8.73469
 20
-5.11919
 30
0.0
 40
0
 41
0
  0
VERTEX
  8
0
 10
8.50375
 20
-5.07319
 30
0.0
 40
0
 41
0
  0
VERTEX
  8
0
 10
8.45861
 20
-5.06836
 30
0.0
 40
0
 41
0
  0
VERTEX
  8
0
 10
8.44314
 20
-5.06668
 30
0.0
 40
0
 41
0
  0
VERTEX
  8
0
 10
8.39578
 20
-5.07135
 30
0.0
 40
0
 41
0
  0
VERTEX
  8
0
 10
8.34201
 20
-5.09239
 30
0.0
 40
0
 41
0
  0
VERTEX
  8
0
 10
8.29606
 20
-5.12782
 30
0.0
 40
0
 41
0
  0
VERTEX
  8
0
 10
8.25657
 20
-5.17378
 30
0.0
 40
0
 41
0
  0
VERTEX
  8
0
 10
8.22222
 20
-5.22657
 30
0.0
 40
0
 41
0
  0
VERTEX
  8
0
 10
8.19179
 20
-5.28239
 30
0.0
 40
0
 41
0
  0
VERTEX
  8
0
 10
8.1639
 20
-5.33757
 30
0.0
 40
0
 41
0
  0
VERTEX
  8
0
 10
8.14432
 20
-5.37582
 30
0.0
 40
0
 41
0
  0
VERTEX
  8
0
 10
8.13737
 20
-5.38835
 30
0.0
 40
0
 41
0
  0
VERTEX
  8
0
 10
8.08968
 20
-5.47314
 30
0.0
 40
0
 41
0
  0
VERTEX
  8
0
 10
7.86876
 20
-5.91428
 30
0.0
 40
0
 41
0
  0
VERTEX
  8
0
 10
7.65793
 20
-6.36513
 30
0.0
 40
0
 41
0
  0
VERTEX
  8
0
 10
7.61529
 20
-6.45481
 30
0.0
 40
0
 41
0
  0
VERTEX
  8
0
 10
7.59521
 20
-6.49843
 30
0.0
 40
0
 41
0
  0
VERTEX
  8
0
 10
7.39442
 20
-6.92503
 30
0.0
 40
0
 41
0
  0
VERTEX
  8
0
 10
7.37435
 20
-6.96869
 30
0.0
 40
0
 41
0
  0
VERTEX
  8
0
 10
7.3596
 20
-6.99718
 30
0.0
 40
0
 41
0
  0
VERTEX
  8
0
 10
7.32194
 20
-7.08621
 30
0.0
 40
0
 41
0
  0
VERTEX
  8
0
 10
7.26389
 20
-7.21838
 30
0.0
 40
0
 41
0
  0
VERTEX
  8
0
 10
7.19081
 20
-7.33957
 30
0.0
 40
0
 41
0
  0
VERTEX
  8
0
 10
7.12115
 20
-7.41004
 30
0.0
 40
0
 41
0
  0
VERTEX
  8
0
 10
7.09326
 20
-7.42443
 30
0.0
 40
0
 41
0
  0
VERTEX
  8
0
 10
7.07215
 20
-7.43457
 30
0.0
 40
0
 41
0
  0
VERTEX
  8
0
 10
6.99897
 20
-7.44439
 30
0.0
 40
0
 41
0
  0
VERTEX
  8
0
 10
6.90369
 20
-7.42437
 30
0.0
 40
0
 41
0
  0
VERTEX
  8
0
 10
6.81793
 20
-7.37528
 30
0.0
 40
0
 41
0
  0
VERTEX
  8
0
 10
6.76551
 20
-7.32687
 30
0.0
 40
0
 41
0
  0
VERTEX
  8
0
 10
6.7519
 20
-7.30806
 30
0.0
 40
0
 41
0
  0
VERTEX
  8
0
 10
6.74278
 20
-7.29368
 30
0.0
 40
0
 41
0
  0
VERTEX
  8
0
 10
6.72424
 20
-7.24517
 30
0.0
 40
0
 41
0
  0
VERTEX
  8
0
 10
6.72065
 20
-7.18685
 30
0.0
 40
0
 41
0
  0
VERTEX
  8
0
 10
6.73617
 20
-7.13217
 30
0.0
 40
0
 41
0
  0
VERTEX
  8
0
 10
6.76568
 20
-7.08018
 30
0.0
 40
0
 41
0
  0
VERTEX
  8
0
 10
6.80414
 20
-7.03006
 30
0.0
 40
0
 41
0
  0
VERTEX
  8
0
 10
6.84646
 20
-6.98079
 30
0.0
 40
0
 41
0
  0
VERTEX
  8
0
 10
6.88764
 20
-6.93158
 30
0.0
 40
0
 41
0
  0
VERTEX
  8
0
 10
6.91482
 20
-6.89453
 30
0.0
 40
0
 41
0
  0
VERTEX
  8
0
 10
6.92258
 20
-6.88146
 30
0.0
 40
0
 41
0
  0
VERTEX
  8
0
 10
6.94129
 20
-6.85249
 30
0.0
 40
0
 41
0
  0
VERTEX
  8
0
 10
6.98953
 20
-6.76042
 30
0.0
 40
0
 41
0
  0
VERTEX
  8
0
 10
7.04428
 20
-6.63297
 30
0.0
 40
0
 41
0
  0
VERTEX
  8
0
 10
7.09337
 20
-6.50379
 30
0.0
 40
0
 41
0
  0
VERTEX
  8
0
 10
7.1301
 20
-6.40858
 30
0.0
 40
0
 41
0
  0
VERTEX
  8
0
 10
7.14344
 20
-6.37733
 30
0.0
 40
0
 41
0
  0
VERTEX
  8
0
 10
7.16097
 20
-6.33122
 30
0.0
 40
0
 41
0
  0
VERTEX
  8
0
 10
7.26639
 20
-6.10092
 30
0.0
 40
0
 41
0
  0
VERTEX
  8
0
 10
7.38183
 20
-5.87067
 30
0.0
 40
0
 41
0
  0
VERTEX
  8
0
 10
7.40446
 20
-5.8246
 30
0.0
 40
0
 41
0
  0
VERTEX
  8
0
 10
7.42703
 20
-5.78093
 30
0.0
 40
0
 41
0
  0
VERTEX
  8
0
 10
7.54124
 20
-5.55794
 30
0.0
 40
0
 41
0
  0
VERTEX
  8
0
 10
7.66049
 20
-5.33496
 30
0.0
 40
0
 41
0
  0
VERTEX
  8
0
 10
7.6856
 20
-5.29135
 30
0.0
 40
0
 41
0
  0
VERTEX
  8
0
 10
7.69185
 20
-5.28022
 30
0.0
 40
0
 41
0
  0
VERTEX
  8
0
 10
7.71203
 20
-5.24761
 30
0.0
 40
0
 41
0
  0
VERTEX
  8
0
 10
7.743
 20
-5.19797
 30
0.0
 40
0
 41
0
  0
VERTEX
  8
0
 10
7.77344
 20
-5.14475
 30
0.0
 40
0
 41
0
  0
VERTEX
  8
0
 10
7.7985
 20
-5.09017
 30
0.0
 40
0
 41
0
  0
VERTEX
  8
0
 10
7.81321
 20
-5.03646
 30
0.0
 40
0
 41
0
  0
VERTEX
  8
0
 10
7.81261
 20
-4.98589
 30
0.0
 40
0
 41
0
  0
VERTEX
  8
0
 10
7.79178
 20
-4.94081
 30
0.0
 40
0
 41
0
  0
VERTEX
  8
0
 10
7.75857
 20
-4.91043
 30
0.0
 40
0
 41
0
  0
VERTEX
  8
0
 10
7.74582
 20
-4.90349
 30
0.0
 40
0
 41
0
  0
VERTEX
  8
0
 10
7.72026
 20
-4.89019
 30
0.0
 40
0
 41
0
  0
VERTEX
  8
0
 10
7.63835
 20
-4.86046
 30
0.0
 40
0
 41
0
  0
VERTEX
  8
0
 10
7.51867
 20
-4.82835
 30
0.0
 40
0
 41
0
  0
VERTEX
  8
0
 10
7.39708
 20
-4.79986
 30
0.0
 40
0
 41
0
  0
VERTEX
  8
0
 10
7.31174
 20
-4.77729
 30
0.0
 40
0
 41
0
  0
VERTEX
  8
0
 10
7.28401
 20
-4.76774
 30
0.0
 40
0
 41
0
  0
VERTEX
  8
0
 10
7.25982
 20
-4.75993
 30
0.0
 40
0
 41
0
  0
VERTEX
  8
0
 10
7.18924
 20
-4.73047
 30
0.0
 40
0
 41
0
  0
VERTEX
  8
0
 10
7.09071
 20
-4.69499
 30
0.0
 40
0
 41
0
  0
VERTEX
  8
0
 10
6.99593
 20
-4.68864
 30
0.0
 40
0
 41
0
  0
VERTEX
  8
0
 10
6.92763
 20
-4.72119
 30
0.0
 40
0
 41
0
  0
VERTEX
  8
0
 10
6.91254
 20
-4.73867
 30
0.0
 40
0
 41
0
  0
VERTEX
  8
0
 10
6.89274
 20
-4.7596
 30
0.0
 40
0
 41
0
  0
VERTEX
  8
0
 10
6.84581
 20
-4.83425
 30
0.0
 40
0
 41
0
  0
VERTEX
  8
0
 10
6.79329
 20
-4.95074
 30
0.0
 40
0
 41
0
  0
VERTEX
  8
0
 10
6.75017
 20
-5.07269
 30
0.0
 40
0
 41
0
  0
VERTEX
  8
0
 10
6.722
 20
-5.1569
 30
0.0
 40
0
 41
0
  0
VERTEX
  8
0
 10
6.71175
 20
-5.18468
 30
0.0
 40
0
 41
0
  0
VERTEX
  8
0
 10
6.69163
 20
-5.23074
 30
0.0
 40
0
 41
0
  0
VERTEX
  8
0
 10
6.60379
 20
-5.46707
 30
0.0
 40
0
 41
0
  0
VERTEX
  8
0
 10
6.52599
 20
-5.70822
 30
0.0
 40
0
 41
0
  0
VERTEX
  8
0
 10
6.51096
 20
-5.75672
 30
0.0
 40
0
 41
0
  0
VERTEX
  8
0
 10
6.49029
 20
-5.82379
 30
0.0
 40
0
 41
0
  0
VERTEX
  8
0
 10
6.43625
 20
-6.02756
 30
0.0
 40
0
 41
0
  0
VERTEX
  8
0
 10
6.38043
 20
-6.30208
 30
0.0
 40
0
 41
0
  0
VERTEX
  8
0
 10
6.34717
 20
-6.58024
 30
0.0
 40
0
 41
0
  0
VERTEX
  8
0
 10
6.33838
 20
-6.79167
 30
0.0
 40
0
 41
0
  0
VERTEX
  8
0
 10
6.34028
 20
-6.86203
 30
0.0
 40
0
 41
0
  0
VERTEX
  8
0
 10
6.34028
 20
-6.89958
 30
0.0
 40
0
 41
0
  0
VERTEX
  8
0
 10
6.34651
 20
-7.01232
 30
0.0
 40
0
 41
0
  0
VERTEX
  8
0
 10
6.35781
 20
-7.1384
 30
0.0
 40
0
 41
0
  0
VERTEX
  8
0
 10
6.36035
 20
-7.16265
 30
0.0
 40
0
 41
0
  0
VERTEX
  8
0
 10
6.36268
 20
-7.1741
 30
0.0
 40
0
 41
0
  0
VERTEX
  8
0
 10
6.37207
 20
-7.20806
 30
0.0
 40
0
 41
0
  0
VERTEX
  8
0
 10
6.38667
 20
-7.26443
 30
0.0
 40
0
 41
0
  0
VERTEX
  8
0
 10
6.39561
 20
-7.32075
 30
0.0
 40
0
 41
0
  0
VERTEX
  8
0
 10
6.39464
 20
-7.35607
 30
0.0
 40
0
 41
0
  0
VERTEX
  8
0
 10
6.39046
 20
-7.36621
 30
0.0
 40
0
 41
0
  0
VERTEX
  8
0
 10
6.38536
 20
-7.37739
 30
0.0
 40
0
 41
0
  0
VERTEX
  8
0
 10
6.35856
 20
-7.40565
 30
0.0
 40
0
 41
0
  0
VERTEX
  8
0
 10
6.31782
 20
-7.4126
 30
0.0
 40
0
 41
0
  0
VERTEX
  8
0
 10
6.27171
 20
-7.39453
 30
0.0
 40
0
 41
0
  0
VERTEX
  8
0
 10
6.22353
 20
-7.35894
 30
0.0
 40
0
 41
0
  0
VERTEX
  8
0
 10
6.17681
 20
-7.31342
 30
0.0
 40
0
 41
0
  0
VERTEX
  8
0
 10
6.13493
 20
-7.26535
 30
0.0
 40
0
 41
0
  0
VERTEX
  8
0
 10
6.10124
 20
-7.22228
 30
0.0
 40
0
 41
0
  0
VERTEX
  8
0
 10
6.08458
 20
-7.19943
 30
0.0
 40
0
 41
0
  0
VERTEX
  8
0
 10
6.07926
 20
-7.19174
 30
0.0
 40
0
 41
0
  0
VERTEX
  8
0
 10
6.03489
 20
-7.12608
 30
0.0
 40
0
 41
0
  0
VERTEX
  8
0
 10
5.92865
 20
-6.91103
 30
0.0
 40
0
 41
0
  0
VERTEX
  8
0
 10
5.84033
 20
-6.61719
 30
0.0
 40
0
 41
0
  0
VERTEX
  8
0
 10
5.80588
 20
-6.31429
 30
0.0
 40
0
 41
0
  0
VERTEX
  8
0
 10
5.81694
 20
-6.00635
 30
0.0
 40
0
 41
0
  0
VERTEX
  8
0
 10
5.86518
 20
-5.69754
 30
0.0
 40
0
 41
0
  0
VERTEX
  8
0
 10
5.94228
 20
-5.39187
 30
0.0
 40
0
 41
0
  0
VERTEX
  8
0
 10
6.03982
 20
-5.09353
 30
0.0
 40
0
 41
0
  0
VERTEX
  8
0
 10
6.12076
 20
-4.87771
 30
0.0
 40
0
 41
0
  0
VERTEX
  8
0
 10
6.14953
 20
-4.80653
 30
0.0
 40
0
 41
0
  0
VERTEX
  8
0
 10
6.15875
 20
-4.78196
 30
0.0
 40
0
 41
0
  0
VERTEX
  8
0
 10
6.19417
 20
-4.71121
 30
0.0
 40
0
 41
0
  0
VERTEX
  8
0
 10
6.25114
 20
-4.59685
 30
0.0
 40
0
 41
0
  0
VERTEX
  8
0
 10
6.29492
 20
-4.48063
 30
0.0
 40
0
 41
0
  0
VERTEX
  8
0
 10
6.30615
 20
-4.40321
 30
0.0
 40
0
 41
0
  0
VERTEX
  8
0
 10
6.30013
 20
-4.37993
 30
0.0
 40
0
 41
0
  0
VERTEX
  8
0
 10
6.29428
 20
-4.35553
 30
0.0
 40
0
 41
0
  0
VERTEX
  8
0
 10
6.24192
 20
-4.29069
 30
0.0
 40
0
 41
0
  0
VERTEX
  8
0
 10
6.13574
 20
-4.21143
 30
0.0
 40
0
 41
0
  0
VERTEX
  8
0
 10
6.01633
 20
-4.14128
 30
0.0
 40
0
 41
0
  0
VERTEX
  8
0
 10
5.9414
 20
-4.09694
 30
0.0
 40
0
 41
0
  0
VERTEX
  8
0
 10
5.91862
 20
-4.07937
 30
0.0
 40
0
 41
0
  0
VERTEX
  8
0
 10
5.87592
 20
-4.04785
 30
0.0
 40
0
 41
0
  0
VERTEX
  8
0
 10
5.67264
 20
-3.87696
 30
0.0
 40
0
 41
0
  0
VERTEX
  8
0
 10
5.48942
 20
-3.69151
 30
0.0
 40
0
 41
0
  0
VERTEX
  8
0
 10
5.45682
 20
-3.65272
 30
0.0
 40
0
 41
0
  0
VERTEX
  8
0
 10
5.43001
 20
-3.6199
 30
0.0
 40
0
 41
0
  0
VERTEX
  8
0
 10
5.35406
 20
-3.5179
 30
0.0
 40
0
 41
0
  0
VERTEX
  8
0
 10
5.26731
 20
-3.38851
 30
0.0
 40
0
 41
0
  0
VERTEX
  8
0
 10
5.18994
 20
-3.26281
 30
0.0
 40
0
 41
0
  0
VERTEX
  8
0
 10
5.13422
 20
-3.16976
 30
0.0
 40
0
 41
0
  0
VERTEX
  8
0
 10
5.11546
 20
-3.13894
 30
0.0
 40
0
 41
0
  0
VERTEX
  8
0
 10
5.11507
 20
-3.13894
 30
0.0
 40
0
 41
0
  0
VERTEX
  8
0
 10
5.11399
 20
-3.14165
 30
0.0
 40
0
 41
0
  0
VERTEX
  8
0
 10
5.11919
 20
-3.14615
 30
0.0
 40
0
 41
0
  0
VERTEX
  8
0
 10
5.1225
 20
-3.14708
 30
0.0
 40
0
 41
0
  0
VERTEX
  8
0
 10
5.11735
 20
-3.14079
 30
0.0
 40
0
 41
0
  0
VERTEX
  8
0
 10
5.11546
 20
-3.13894
 30
0.0
 40
0
 41
0
  0
SEQEND
 8
0
  0
POLYLINE
  8
0
 62
     0
 66
     1
 10
0
 20
0
 30
0.0
 70
     1
 40
0
 41
0
  0
VERTEX
  8
0
 10
12.4945
 20
-15.501
 30
0.0
 40
0
 41
0
  0
VERTEX
  8
0
 10
12.4994
 20
-15.5096
 30
0.0
 40
0
 41
0
  0
VERTEX
  8
0
 10
12.5329
 20
-15.5243
 30
0.0
 40
0
 41
0
  0
VERTEX
  8
0
 10
12.6038
 20
-15.5315
 30
0.0
 40
0
 41
0
  0
VERTEX
  8
0
 10
12.6976
 20
-15.5265
 30
0.0
 40
0
 41
0
  0
VERTEX
  8
0
 10
12.8045
 20
-15.5132
 30
0.0
 40
0
 41
0
  0
VERTEX
  8
0
 10
12.9146
 20
-15.4951
 30
0.0
 40
0
 41
0
  0
VERTEX
  8
0
 10
13.0182
 20
-15.4764
 30
0.0
 40
0
 41
0
  0
VERTEX
  8
0
 10
13.1057
 20
-15.461
 30
0.0
 40
0
 41
0
  0
VERTEX
  8
0
 10
13.1517
 20
-15.4538
 30
0.0
 40
0
 41
0
  0
VERTEX
  8
0
 10
13.1672
 20
-15.4526
 30
0.0
 40
0
 41
0
  0
VERTEX
  8
0
 10
13.2274
 20
-15.4453
 30
0.0
 40
0
 41
0
  0
VERTEX
  8
0
 10
13.5336
 20
-15.3968
 30
0.0
 40
0
 41
0
  0
VERTEX
  8
0
 10
13.8397
 20
-15.3386
 30
0.0
 40
0
 41
0
  0
VERTEX
  8
0
 10
13.9
 20
-15.3265
 30
0.0
 40
0
 41
0
  0
VERTEX
  8
0
 10
13.9839
 20
-15.3081
 30
0.0
 40
0
 41
0
  0
VERTEX
  8
0
 10
14.2357
 20
-15.2529
 30
0.0
 40
0
 41
0
  0
VERTEX
  8
0
 10
14.5751
 20
-15.175
 30
0.0
 40
0
 41
0
  0
VERTEX
  8
0
 10
14.9108
 20
-15.0879
 30
0.0
 40
0
 41
0
  0
VERTEX
  8
0
 10
15.155
 20
-15.0149
 30
0.0
 40
0
 41
0
  0
VERTEX
  8
0
 10
15.2353
 20
-14.9871
 30
0.0
 40
0
 41
0
  0
VERTEX
  8
0
 10
15.2703
 20
-14.975
 30
0.0
 40
0
 41
0
  0
VERTEX
  8
0
 10
15.3753
 20
-14.9382
 30
0.0
 40
0
 41
0
  0
VERTEX
  8
0
 10
15.5215
 20
-14.885
 30
0.0
 40
0
 41
0
  0
VERTEX
  8
0
 10
15.6699
 20
-14.8258
 30
0.0
 40
0
 41
0
  0
VERTEX
  8
0
 10
15.8163
 20
-14.7593
 30
0.0
 40
0
 41
0
  0
VERTEX
  8
0
 10
15.9565
 20
-14.6836
 30
0.0
 40
0
 41
0
  0
VERTEX
  8
0
 10
16.0865
 20
-14.5972
 30
0.0
 40
0
 41
0
  0
VERTEX
  8
0
 10
16.2022
 20
-14.4985
 30
0.0
 40
0
 41
0
  0
VERTEX
  8
0
 10
16.2778
 20
-14.4161
 30
0.0
 40
0
 41
0
  0
VERTEX
  8
0
 10
16.2994
 20
-14.3861
 30
0.0
 40
0
 41
0
  0
VERTEX
  8
0
 10
16.3214
 20
-14.3567
 30
0.0
 40
0
 41
0
  0
VERTEX
  8
0
 10
16.3776
 20
-14.2613
 30
0.0
 40
0
 41
0
  0
VERTEX
  8
0
 10
16.4394
 20
-14.1221
 30
0.0
 40
0
 41
0
  0
VERTEX
  8
0
 10
16.4851
 20
-13.9725
 30
0.0
 40
0
 41
0
  0
VERTEX
  8
0
 10
16.5153
 20
-13.8164
 30
0.0
 40
0
 41
0
  0
VERTEX
  8
0
 10
16.5304
 20
-13.6575
 30
0.0
 40
0
 41
0
  0
VERTEX
  8
0
 10
16.531
 20
-13.4998
 30
0.0
 40
0
 41
0
  0
VERTEX
  8
0
 10
16.5174
 20
-13.347
 30
0.0
 40
0
 41
0
  0
VERTEX
  8
0
 10
16.4989
 20
-13.2387
 30
0.0
 40
0
 41
0
  0
VERTEX
  8
0
 10
16.4903
 20
-13.2032
 30
0.0
 40
0
 41
0
  0
VERTEX
  8
0
 10
16.4776
 20
-13.1522
 30
0.0
 40
0
 41
0
  0
VERTEX
  8
0
 10
16.3886
 20
-12.9049
 30
0.0
 40
0
 41
0
  0
VERTEX
  8
0
 10
16.2743
 20
-12.6674
 30
0.0
 40
0
 41
0
  0
VERTEX
  8
0
 10
16.2493
 20
-12.6214
 30
0.0
 40
0
 41
0
  0
VERTEX
  8
0
 10
16.2367
 20
-12.5971
 30
0.0
 40
0
 41
0
  0
VERTEX
  8
0
 10
16.0936
 20
-12.3547
 30
0.0
 40
0
 41
0
  0
VERTEX
  8
0
 10
16.0786
 20
-12.3305
 30
0.0
 40
0
 41
0
  0
VERTEX
  8
0
 10
16.0746
 20
-12.3236
 30
0.0
 40
0
 41
0
  0
VERTEX
  8
0
 10
16.0635
 20
-12.3023
 30
0.0
 40
0
 41
0
  0
VERTEX
  8
0
 10
16.0476
 20
-12.27
 30
0.0
 40
0
 41
0
  0
VERTEX
  8
0
 10
16.0307
 20
-12.2362
 30
0.0
 40
0
 41
0
  0
VERTEX
  8
0
 10
16.0121
 20
-12.2032
 30
0.0
 40
0
 41
0
  0
VERTEX
  8
0
 10
15.991
 20
-12.1734
 30
0.0
 40
0
 41
0
  0
VERTEX
  8
0
 10
15.9671
 20
-12.1491
 30
0.0
 40
0
 41
0
  0
VERTEX
  8
0
 10
15.9394
 20
-12.1328
 30
0.0
 40
0
 41
0
  0
VERTEX
  8
0
 10
15.9158
 20
-12.1269
 30
0.0
 40
0
 41
0
  0
VERTEX
  8
0
 10
15.9079
 20
-12.1269
 30
0.0
 40
0
 41
0
  0
VERTEX
  8
0
 10
15.8921
 20
-12.1269
 30
0.0
 40
0
 41
0
  0
VERTEX
  8
0
 10
15.8446
 20
-12.1532
 30
0.0
 40
0
 41
0
  0
VERTEX
  8
0
 10
15.7699
 20
-12.2141
 30
0.0
 40
0
 41
0
  0
VERTEX
  8
0
 10
15.6989
 20
-12.2823
 30
0.0
 40
0
 41
0
  0
VERTEX
  8
0
 10
15.6594
 20
-12.3208
 30
0.0
 40
0
 41
0
  0
VERTEX
  8
0
 10
15.6469
 20
-12.3305
 30
0.0
 40
0
 41
0
  0
VERTEX
  8
0
 10
15.6268
 20
-12.3474
 30
0.0
 40
0
 41
0
  0
VERTEX
  8
0
 10
15.4261
 20
-12.5171
 30
0.0
 40
0
 41
0
  0
VERTEX
  8
0
 10
15.406
 20
-12.5341
 30
0.0
 40
0
 41
0
  0
VERTEX
  8
0
 10
15.3833
 20
-12.5535
 30
0.0
 40
0
 41
0
  0
VERTEX
  8
0
 10
15.1575
 20
-12.7377
 30
0.0
 40
0
 41
0
  0
VERTEX
  8
0
 10
15.1349
 20
-12.7571
 30
0.0
 40
0
 41
0
  0
VERTEX
  8
0
 10
15.1219
 20
-12.7695
 30
0.0
 40
0
 41
0
  0
VERTEX
  8
0
 10
15.0914
 20
-12.8153
 30
0.0
 40
0
 41
0
  0
VERTEX
  8
0
 10
15.0885
 20
-12.8662
 30
0.0
 40
0
 41
0
  0
VERTEX
  8
0
 10
15.1136
 20
-12.9207
 30
0.0
 40
0
 41
0
  0
VERTEX
  8
0
 10
15.145
 20
-12.9723
 30
0.0
 40
0
 41
0
  0
VERTEX
  8
0
 10
15.155
 20
-12.9898
 30
0.0
 40
0
 41
0
  0
VERTEX
  8
0
 10
15.1719
 20
-13.0245
 30
0.0
 40
0
 41
0
  0
VERTEX
  8
0
 10
15.2263
 20
-13.1269
 30
0.0
 40
0
 41
0
  0
VERTEX
  8
0
 10
15.2968
 20
-13.2649
 30
0.0
 40
0
 41
0
  0
VERTEX
  8
0
 10
15.354
 20
-13.4084
 30
0.0
 40
0
 41
0
  0
VERTEX
  8
0
 10
15.3822
 20
-13.5231
 30
0.0
 40
0
 41
0
  0
VERTEX
  8
0
 10
15.3858
 20
-13.5619
 30
0.0
 40
0
 41
0
  0
VERTEX
  8
0
 10
15.3908
 20
-13.6152
 30
0.0
 40
0
 41
0
  0
VERTEX
  8
0
 10
15.3796
 20
-13.8806
 30
0.0
 40
0
 41
0
  0
VERTEX
  8
0
 10
15.3231
 20
-14.1411
 30
0.0
 40
0
 41
0
  0
VERTEX
  8
0
 10
15.3056
 20
-14.1921
 30
0.0
 40
0
 41
0
  0
VERTEX
  8
0
 10
15.295
 20
-14.2226
 30
0.0
 40
0
 41
0
  0
VERTEX
  8
0
 10
15.2546
 20
-14.3114
 30
0.0
 40
0
 41
0
  0
VERTEX
  8
0
 10
15.1856
 20
-14.4264
 30
0.0
 40
0
 41
0
  0
VERTEX
  8
0
 10
15.1003
 20
-14.5331
 30
0.0
 40
0
 41
0
  0
VERTEX
  8
0
 10
15.0006
 20
-14.6272
 30
0.0
 40
0
 41
0
  0
VERTEX
  8
0
 10
14.8882
 20
-14.7043
 30
0.0
 40
0
 41
0
  0
VERTEX
  8
0
 10
14.7649
 20
-14.7607
 30
0.0
 40
0
 41
0
  0
VERTEX
  8
0
 10
14.6322
 20
-14.7917
 30
0.0
 40
0
 41
0
  0
VERTEX
  8
0
 10
14.5269
 20
-14.7967
 30
0.0
 40
0
 41
0
  0
VERTEX
  8
0
 10
14.4924
 20
-14.7932
 30
0.0
 40
0
 41
0
  0
VERTEX
  8
0
 10
14.4568
 20
-14.7896
 30
0.0
 40
0
 41
0
  0
VERTEX
  8
0
 10
14.3517
 20
-14.7663
 30
0.0
 40
0
 41
0
  0
VERTEX
  8
0
 10
14.2175
 20
-14.7157
 30
0.0
 40
0
 41
0
  0
VERTEX
  8
0
 10
14.0928
 20
-14.6432
 30
0.0
 40
0
 41
0
  0
VERTEX
  8
0
 10
14.0064
 20
-14.576
 30
0.0
 40
0
 41
0
  0
VERTEX
  8
0
 10
13.9804
 20
-14.5508
 30
0.0
 40
0
 41
0
  0
VERTEX
  8
0
 10
13.9678
 20
-14.5388
 30
0.0
 40
0
 41
0
  0
VERTEX
  8
0
 10
13.9326
 20
-14.4997
 30
0.0
 40
0
 41
0
  0
VERTEX
  8
0
 10
13.8925
 20
-14.4478
 30
0.0
 40
0
 41
0
  0
VERTEX
  8
0
 10
13.8561
 20
-14.394
 30
0.0
 40
0
 41
0
  0
VERTEX
  8
0
 10
13.8288
 20
-14.3515
 30
0.0
 40
0
 41
0
  0
VERTEX
  8
0
 10
13.8197
 20
-14.3375
 30
0.0
 40
0
 41
0
  0
VERTEX
  8
0
 10
13.8157
 20
-14.3317
 30
0.0
 40
0
 41
0
  0
VERTEX
  8
0
 10
13.806
 20
-14.3128
 30
0.0
 40
0
 41
0
  0
VERTEX
  8
0
 10
13.7933
 20
-14.2854
 30
0.0
 40
0
 41
0
  0
VERTEX
  8
0
 10
13.7788
 20
-14.2597
 30
0.0
 40
0
 41
0
  0
VERTEX
  8
0
 10
13.7651
 20
-14.2442
 30
0.0
 40
0
 41
0
  0
VERTEX
  8
0
 10
13.7595
 20
-14.2406
 30
0.0
 40
0
 41
0
  0
VERTEX
  8
0
 10
13.7498
 20
-14.2365
 30
0.0
 40
0
 41
0
  0
VERTEX
  8
0
 10
13.718
 20
-14.2307
 30
0.0
 40
0
 41
0
  0
VERTEX
  8
0
 10
13.6917
 20
-14.2418
 30
0.0
 40
0
 41
0
  0
VERTEX
  8
0
 10
13.6691
 20
-14.2692
 30
0.0
 40
0
 41
0
  0
VERTEX
  8
0
 10
13.647
 20
-14.2992
 30
0.0
 40
0
 41
0
  0
VERTEX
  8
0
 10
13.639
 20
-14.3085
 30
0.0
 40
0
 41
0
  0
VERTEX
  8
0
 10
13.5411
 20
-14.4054
 30
0.0
 40
0
 41
0
  0
VERTEX
  8
0
 10
13.0592
 20
-14.8975
 30
0.0
 40
0
 41
0
  0
VERTEX
  8
0
 10
12.5873
 20
-15.3992
 30
0.0
 40
0
 41
0
  0
VERTEX
  8
0
 10
12.4945
 20
-15.501
 30
0.0
 40
0
 41
0
  0
VERTEX
  8
0
 10
12.496
 20
-15.501
 30
0.0
 40
0
 41
0
  0
VERTEX
  8
0
 10
12.5005
 20
-15.4962
 30
0.0
 40
0
 41
0
  0
VERTEX
  8
0
 10
12.5138
 20
-15.4832
 30
0.0
 40
0
 41
0
  0
VERTEX
  8
0
 10
12.5326
 20
-15.4636
 30
0.0
 40
0
 41
0
  0
VERTEX
  8
0
 10
12.5552
 20
-15.4397
 30
0.0
 40
0
 41
0
  0
VERTEX
  8
0
 10
12.5798
 20
-15.4132
 30
0.0
 40
0
 41
0
  0
VERTEX
  8
0
 10
12.6048
 20
-15.386
 30
0.0
 40
0
 41
0
  0
VERTEX
  8
0
 10
12.6284
 20
-15.3601
 30
0.0
 40
0
 41
0
  0
VERTEX
  8
0
 10
12.6489
 20
-15.3374
 30
0.0
 40
0
 41
0
  0
VERTEX
  8
0
 10
12.6645
 20
-15.3199
 30
0.0
 40
0
 41
0
  0
VERTEX
  8
0
 10
12.6736
 20
-15.3093
 30
0.0
 40
0
 41
0
  0
VERTEX
  8
0
 10
12.6745
 20
-15.3076
 30
0.0
 40
0
 41
0
  0
VERTEX
  8
0
 10
12.6653
 20
-15.3169
 30
0.0
 40
0
 41
0
  0
VERTEX
  8
0
 10
12.6445
 20
-15.339
 30
0.0
 40
0
 41
0
  0
VERTEX
  8
0
 10
12.6102
 20
-15.3757
 30
0.0
 40
0
 41
0
  0
VERTEX
  8
0
 10
12.5608
 20
-15.429
 30
0.0
 40
0
 41
0
  0
VERTEX
  8
0
 10
12.5111
 20
-15.4831
 30
0.0
 40
0
 41
0
  0
VERTEX
  8
0
 10
12.4945
 20
-15.501
 30
0.0
 40
0
 41
0
  0
SEQEND
 8
0
  0
POLYLINE
  8
0
 62
     0
 66
     1
 10
0
 20
0
 30
0.0
 70
     1
 40
0
 41
0
  0
VERTEX
  8
0
 10
8.59918
 20
-2.15956
 30
0.0
 40
0
 41
0
  0
VERTEX
  8
0
 10
8.5599
 20
-2.18479
 30
0.0
 40
0
 41
0
  0
VERTEX
  8
0
 10
8.45313
 20
-2.27756
 30
0.0
 40
0
 41
0
  0
VERTEX
  8
0
 10
8.32682
 20
-2.42014
 30
0.0
 40
0
 41
0
  0
VERTEX
  8
0
 10
8.21371
 20
-2.57542
 30
0.0
 40
0
 41
0
  0
VERTEX
  8
0
 10
8.13406
 20
-2.69276
 30
0.0
 40
0
 41
0
  0
VERTEX
  8
0
 10
8.10726
 20
-2.73167
 30
0.0
 40
0
 41
0
  0
VERTEX
  8
0
 10
8.06456
 20
-2.78982
 30
0.0
 40
0
 41
0
  0
VERTEX
  8
0
 10
7.85374
 20
-3.07704
 30
0.0
 40
0
 41
0
  0
VERTEX
  8
0
 10
7.65294
 20
-3.36914
 30
0.0
 40
0
 41
0
  0
VERTEX
  8
0
 10
7.61529
 20
-3.42974
 30
0.0
 40
0
 41
0
  0
VERTEX
  8
0
 10
7.60021
 20
-3.45156
 30
0.0
 40
0
 41
0
  0
VERTEX
  8
0
 10
7.51992
 20
-3.56668
 30
0.0
 40
0
 41
0
  0
VERTEX
  8
0
 10
7.45964
 20
-3.68668
 30
0.0
 40
0
 41
0
  0
VERTEX
  8
0
 10
7.45464
 20
-3.71094
 30
0.0
 40
0
 41
0
  0
VERTEX
  8
0
 10
7.45215
 20
-3.7206
 30
0.0
 40
0
 41
0
  0
VERTEX
  8
0
 10
7.44835
 20
-3.75065
 30
0.0
 40
0
 41
0
  0
VERTEX
  8
0
 10
7.45133
 20
-3.78331
 30
0.0
 40
0
 41
0
  0
VERTEX
  8
0
 10
7.46257
 20
-3.81006
 30
0.0
 40
0
 41
0
  0
VERTEX
  8
0
 10
7.48101
 20
-3.83208
 30
0.0
 40
0
 41
0
  0
VERTEX
  8
0
 10
7.50553
 20
-3.85042
 30
0.0
 40
0
 41
0
  0
VERTEX
  8
0
 10
7.5351
 20
-3.86632
 30
0.0
 40
0
 41
0
  0
VERTEX
  8
0
 10
7.56868
 20
-3.88081
 30
0.0
 40
0
 41
0
  0
VERTEX
  8
0
 10
7.59608
 20
-3.8916
 30
0.0
 40
0
 41
0
  0
VERTEX
  8
0
 10
7.60525
 20
-3.89513
 30
0.0
 40
0
 41
0
  0
VERTEX
  8
0
 10
7.63286
 20
-3.90722
 30
0.0
 40
0
 41
0
  0
VERTEX
  8
0
 10
7.77593
 20
-3.96664
 30
0.0
 40
0
 41
0
  0
VERTEX
  8
0
 10
7.919
 20
-4.02115
 30
0.0
 40
0
 41
0
  0
VERTEX
  8
0
 10
7.94661
 20
-4.03087
 30
0.0
 40
0
 41
0
  0
VERTEX
  8
0
 10
7.96496
 20
-4.03874
 30
0.0
 40
0
 41
0
  0
VERTEX
  8
0
 10
8.01938
 20
-4.06386
 30
0.0
 40
0
 41
0
  0
VERTEX
  8
0
 10
8.09967
 20
-4.09874
 30
0.0
 40
0
 41
0
  0
VERTEX
  8
0
 10
8.18375
 20
-4.12631
 30
0.0
 40
0
 41
0
  0
VERTEX
  8
0
 10
8.24681
 20
-4.13753
 30
0.0
 40
0
 41
0
  0
VERTEX
  8
0
 10
8.26785
 20
-4.13753
 30
0.0
 40
0
 41
0
  0
VERTEX
  8
0
 10
8.28304
 20
-4.13753
 30
0.0
 40
0
 41
0
  0
VERTEX
  8
0
 10
8.32861
 20
-4.12646
 30
0.0
 40
0
 41
0
  0
VERTEX
  8
0
 10
8.38346
 20
-4.09631
 30
0.0
 40
0
 41
0
  0
VERTEX
  8
0
 10
8.43283
 20
-4.0516
 30
0.0
 40
0
 41
0
  0
VERTEX
  8
0
 10
8.47743
 20
-3.99696
 30
0.0
 40
0
 41
0
  0
VERTEX
  8
0
 10
8.51774
 20
-3.93679
 30
0.0
 40
0
 41
0
  0
VERTEX
  8
0
 10
8.55447
 20
-3.87576
 30
0.0
 40
0
 41
0
  0
VERTEX
  8
0
 10
8.58806
 20
-3.81836
 30
0.0
 40
0
 41
0
  0
VERTEX
  8
0
 10
8.61094
 20
-3.78108
 30
0.0
 40
0
 41
0
  0
VERTEX
  8
0
 10
8.61925
 20
-3.76915
 30
0.0
 40
0
 41
0
  0
VERTEX
  8
0
 10
8.6594
 20
-3.71094
 30
0.0
 40
0
 41
0
  0
VERTEX
  8
0
 10
8.85514
 20
-3.42486
 30
0.0
 40
0
 41
0
  0
VERTEX
  8
0
 10
9.05094
 20
-3.13883
 30
0.0
 40
0
 41
0
  0
VERTEX
  8
0
 10
9.0911
 20
-3.08068
 30
0.0
 40
0
 41
0
  0
VERTEX
  8
0
 10
9.10113
 20
-3.06662
 30
0.0
 40
0
 41
0
  0
VERTEX
  8
0
 10
9.13396
 20
-3.02632
 30
0.0
 40
0
 41
0
  0
VERTEX
  8
0
 10
9.18946
 20
-2.96024
 30
0.0
 40
0
 41
0
  0
VERTEX
  8
0
 10
9.2494
 20
-2.88624
 30
0.0
 40
0
 41
0
  0
VERTEX
  8
0
 10
9.30567
 20
-2.808
 30
0.0
 40
0
 41
0
  0
VERTEX
  8
0
 10
9.35021
 20
-2.72933
 30
0.0
 40
0
 41
0
  0
VERTEX
  8
0
 10
9.37483
 20
-2.65392
 30
0.0
 40
0
 41
0
  0
VERTEX
  8
0
 10
9.37147
 20
-2.58561
 30
0.0
 40
0
 41
0
  0
VERTEX
  8
0
 10
9.34483
 20
-2.5389
 30
0.0
 40
0
 41
0
  0
VERTEX
  8
0
 10
9.33203
 20
-2.52806
 30
0.0
 40
0
 41
0
  0
VERTEX
  8
0
 10
9.30442
 20
-2.50618
 30
0.0
 40
0
 41
0
  0
VERTEX
  8
0
 10
9.14003
 20
-2.40924
 30
0.0
 40
0
 41
0
  0
VERTEX
  8
0
 10
8.97065
 20
-2.322
 30
0.0
 40
0
 41
0
  0
VERTEX
  8
0
 10
8.94054
 20
-2.30507
 30
0.0
 40
0
 41
0
  0
VERTEX
  8
0
 10
8.91038
 20
-2.29292
 30
0.0
 40
0
 41
0
  0
VERTEX
  8
0
 10
8.76986
 20
-2.22862
 30
0.0
 40
0
 41
0
  0
VERTEX
  8
0
 10
8.62929
 20
-2.16922
 30
0.0
 40
0
 41
0
  0
VERTEX
  8
0
 10
8.59918
 20
-2.15956
 30
0.0
 40
0
 41
0
  0
VERTEX
  8
0
 10
8.59685
 20
-2.16103
 30
0.0
 40
0
 41
0
  0
VERTEX
  8
0
 10
8.59207
 20
-2.16911
 30
0.0
 40
0
 41
0
  0
VERTEX
  8
0
 10
8.60292
 20
-2.17046
 30
0.0
 40
0
 41
0
  0
VERTEX
  8
0
 10
8.61187
 20
-2.16635
 30
0.0
 40
0
 41
0
  0
VERTEX
  8
0
 10
8.60254
 20
-2.16037
 30
0.0
 40
0
 41
0
  0
VERTEX
  8
0
 10
8.59918
 20
-2.15956
 30
0.0
 40
0
 41
0
  0
SEQEND
 8
0
  0
POLYLINE
  8
0
 62
     0
 66
     1
 10
0
 20
0
 30
0.0
 70
     1
 40
0
 41
0
  0
VERTEX
  8
0
 10
9.68343
 20
-4.56413
 30
0.0
 40
0
 41
0
  0
VERTEX
  8
0
 10
9.70008
 20
-4.56581
 30
0.0
 40
0
 41
0
  0
VERTEX
  8
0
 10
9.75168
 20
-4.5561
 30
0.0
 40
0
 41
0
  0
VERTEX
  8
0
 10
9.81375
 20
-4.52171
 30
0.0
 40
0
 41
0
  0
VERTEX
  8
0
 10
9.86996
 20
-4.46733
 30
0.0
 40
0
 41
0
  0
VERTEX
  8
0
 10
9.92062
 20
-4.39931
 30
0.0
 40
0
 41
0
  0
VERTEX
  8
0
 10
9.9661
 20
-4.324
 30
0.0
 40
0
 41
0
  0
VERTEX
  8
0
 10
10.0067
 20
-4.24783
 30
0.0
 40
0
 41
0
  0
VERTEX
  8
0
 10
10.0429
 20
-4.17708
 30
0.0
 40
0
 41
0
  0
VERTEX
  8
0
 10
10.0664
 20
-4.13254
 30
0.0
 40
0
 41
0
  0
VERTEX
  8
0
 10
10.075
 20
-4.11817
 30
0.0
 40
0
 41
0
  0
VERTEX
  8
0
 10
10.1051
 20
-4.06722
 30
0.0
 40
0
 41
0
  0
VERTEX
  8
0
 10
10.4163
 20
-3.55821
 30
0.0
 40
0
 41
0
  0
VERTEX
  8
0
 10
10.4465
 20
-3.50732
 30
0.0
 40
0
 41
0
  0
VERTEX
  8
0
 10
10.4557
 20
-3.49382
 30
0.0
 40
0
 41
0
  0
VERTEX
  8
0
 10
10.4849
 20
-3.45426
 30
0.0
 40
0
 41
0
  0
VERTEX
  8
0
 10
10.528
 20
-3.38857
 30
0.0
 40
0
 41
0
  0
VERTEX
  8
0
 10
10.5579
 20
-3.31917
 30
0.0
 40
0
 41
0
  0
VERTEX
  8
0
 10
10.5622
 20
-3.26921
 30
0.0
 40
0
 41
0
  0
VERTEX
  8
0
 10
10.5569
 20
-3.25526
 30
0.0
 40
0
 41
0
  0
VERTEX
  8
0
 10
10.5532
 20
-3.24126
 30
0.0
 40
0
 41
0
  0
VERTEX
  8
0
 10
10.5254
 20
-3.20372
 30
0.0
 40
0
 41
0
  0
VERTEX
  8
0
 10
10.4715
 20
-3.16314
 30
0.0
 40
0
 41
0
  0
VERTEX
  8
0
 10
10.41
 20
-3.12983
 30
0.0
 40
0
 41
0
  0
VERTEX
  8
0
 10
10.3689
 20
-3.10846
 30
0.0
 40
0
 41
0
  0
VERTEX
  8
0
 10
10.3561
 20
-3.10015
 30
0.0
 40
0
 41
0
  0
VERTEX
  8
0
 10
10.3418
 20
-3.09169
 30
0.0
 40
0
 41
0
  0
VERTEX
  8
0
 10
10.3001
 20
-3.06461
 30
0.0
 40
0
 41
0
  0
VERTEX
  8
0
 10
10.2326
 20
-3.01997
 30
0.0
 40
0
 41
0
  0
VERTEX
  8
0
 10
10.1568
 20
-2.9714
 30
0.0
 40
0
 41
0
  0
VERTEX
  8
0
 10
10.0762
 20
-2.92432
 30
0.0
 40
0
 41
0
  0
VERTEX
  8
0
 10
9.99419
 20
-2.88406
 30
0.0
 40
0
 41
0
  0
VERTEX
  8
0
 10
9.91417
 20
-2.85601
 30
0.0
 40
0
 41
0
  0
VERTEX
  8
0
 10
9.83957
 20
-2.84543
 30
0.0
 40
0
 41
0
  0
VERTEX
  8
0
 10
9.78885
 20
-2.85135
 30
0.0
 40
0
 41
0
  0
VERTEX
  8
0
 10
9.77382
 20
-2.85769
 30
0.0
 40
0
 41
0
  0
VERTEX
  8
0
 10
9.75808
 20
-2.86524
 30
0.0
 40
0
 41
0
  0
VERTEX
  8
0
 10
9.71713
 20
-2.90082
 30
0.0
 40
0
 41
0
  0
VERTEX
  8
0
 10
9.6671
 20
-2.96311
 30
0.0
 40
0
 41
0
  0
VERTEX
  8
0
 10
9.62272
 20
-3.03082
 30
0.0
 40
0
 41
0
  0
VERTEX
  8
0
 10
9.59364
 20
-3.07601
 30
0.0
 40
0
 41
0
  0
VERTEX
  8
0
 10
9.58306
 20
-3.09039
 30
0.0
 40
0
 41
0
  0
VERTEX
  8
0
 10
9.56799
 20
-3.11219
 30
0.0
 40
0
 41
0
  0
VERTEX
  8
0
 10
9.48763
 20
-3.22732
 30
0.0
 40
0
 41
0
  0
VERTEX
  8
0
 10
9.40733
 20
-3.34733
 30
0.0
 40
0
 41
0
  0
VERTEX
  8
0
 10
9.39231
 20
-3.37158
 30
0.0
 40
0
 41
0
  0
VERTEX
  8
0
 10
9.35715
 20
-3.42247
 30
0.0
 40
0
 41
0
  0
VERTEX
  8
0
 10
9.18647
 20
-3.67215
 30
0.0
 40
0
 41
0
  0
VERTEX
  8
0
 10
9.01579
 20
-3.92182
 30
0.0
 40
0
 41
0
  0
VERTEX
  8
0
 10
8.98068
 20
-3.97271
 30
0.0
 40
0
 41
0
  0
VERTEX
  8
0
 10
8.97097
 20
-3.98676
 30
0.0
 40
0
 41
0
  0
VERTEX
  8
0
 10
8.94103
 20
-4.02838
 30
0.0
 40
0
 41
0
  0
VERTEX
  8
0
 10
8.90099
 20
-4.08556
 30
0.0
 40
0
 41
0
  0
VERTEX
  8
0
 10
8.86561
 20
-4.14296
 30
0.0
 40
0
 41
0
  0
VERTEX
  8
0
 10
8.84011
 20
-4.19933
 30
0.0
 40
0
 41
0
  0
VERTEX
  8
0
 10
8.82969
 20
-4.25342
 30
0.0
 40
0
 41
0
  0
VERTEX
  8
0
 10
8.83946
 20
-4.30399
 30
0.0
 40
0
 41
0
  0
VERTEX
  8
0
 10
8.87472
 20
-4.34978
 30
0.0
 40
0
 41
0
  0
VERTEX
  8
0
 10
8.92307
 20
-4.38189
 30
0.0
 40
0
 41
0
  0
VERTEX
  8
0
 10
8.94054
 20
-4.3896
 30
0.0
 40
0
 41
0
  0
VERTEX
  8
0
 10
9.00076
 20
-4.40653
 30
0.0
 40
0
 41
0
  0
VERTEX
  8
0
 10
9.31196
 20
-4.48774
 30
0.0
 40
0
 41
0
  0
VERTEX
  8
0
 10
9.62315
 20
-4.55442
 30
0.0
 40
0
 41
0
  0
VERTEX
  8
0
 10
9.68343
 20
-4.56413
 30
0.0
 40
0
 41
0
  0
VERTEX
  8
0
 10
9.68946
 20
-4.56413
 30
0.0
 40
0
 41
0
  0
VERTEX
  8
0
 10
9.70768
 20
-4.56369
 30
0.0
 40
0
 41
0
  0
VERTEX
  8
0
 10
9.71588
 20
-4.56272
 30
0.0
 40
0
 41
0
  0
VERTEX
  8
0
 10
9.71257
 20
-4.56158
 30
0.0
 40
0
 41
0
  0
VERTEX
  8
0
 10
9.70226
 20
-4.56049
 30
0.0
 40
0
 41
0
  0
VERTEX
  8
0
 10
9.68961
 20
-4.55985
 30
0.0
 40
0
 41
0
  0
VERTEX
  8
0
 10
9.67919
 20
-4.56
 30
0.0
 40
0
 41
0
  0
VERTEX
  8
0
 10
9.67557
 20
-4.56131
 30
0.0
 40
0
 41
0
  0
VERTEX
  8
0
 10
9.68143
 20
-4.56364
 30
0.0
 40
0
 41
0
  0
VERTEX
  8
0
 10
9.68343
 20
-4.56413
 30
0.0
 40
0
 41
0
  0
SEQEND
 8
0
  0
POLYLINE
  8
0
 62
     0
 66
     1
 10
0
 20
0
 30
0.0
 70
     1
 40
0
 41
0
  0
VERTEX
  8
0
 10
11.7817
 20
-2.1014
 30
0.0
 40
0
 41
0
  0
VERTEX
  8
0
 10
11.7788
 20
-2.10081
 30
0.0
 40
0
 41
0
  0
VERTEX
  8
0
 10
11.7683
 20
-2.10742
 30
0.0
 40
0
 41
0
  0
VERTEX
  8
0
 10
11.748
 20
-2.12788
 30
0.0
 40
0
 41
0
  0
VERTEX
  8
0
 10
11.722
 20
-2.16092
 30
0.0
 40
0
 41
0
  0
VERTEX
  8
0
 10
11.6915
 20
-2.20454
 30
0.0
 40
0
 41
0
  0
VERTEX
  8
0
 10
11.6577
 20
-2.25689
 30
0.0
 40
0
 41
0
  0
VERTEX
  8
0
 10
11.622
 20
-2.31597
 30
0.0
 40
0
 41
0
  0
VERTEX
  8
0
 10
11.5854
 20
-2.37993
 30
0.0
 40
0
 41
0
  0
VERTEX
  8
0
 10
11.5495
 20
-2.44683
 30
0.0
 40
0
 41
0
  0
VERTEX
  8
0
 10
11.5153
 20
-2.51471
 30
0.0
 40
0
 41
0
  0
VERTEX
  8
0
 10
11.4841
 20
-2.58176
 30
0.0
 40
0
 41
0
  0
VERTEX
  8
0
 10
11.4572
 20
-2.64594
 30
0.0
 40
0
 41
0
  0
VERTEX
  8
0
 10
11.4358
 20
-2.7054
 30
0.0
 40
0
 41
0
  0
VERTEX
  8
0
 10
11.4212
 20
-2.75825
 30
0.0
 40
0
 41
0
  0
VERTEX
  8
0
 10
11.4145
 20
-2.80251
 30
0.0
 40
0
 41
0
  0
VERTEX
  8
0
 10
11.4172
 20
-2.83626
 30
0.0
 40
0
 41
0
  0
VERTEX
  8
0
 10
11.4257
 20
-2.85406
 30
0.0
 40
0
 41
0
  0
VERTEX
  8
0
 10
11.4303
 20
-2.85769
 30
0.0
 40
0
 41
0
  0
VERTEX
  8
0
 10
11.4391
 20
-2.86464
 30
0.0
 40
0
 41
0
  0
VERTEX
  8
0
 10
11.4724
 20
-2.87717
 30
0.0
 40
0
 41
0
  0
VERTEX
  8
0
 10
11.5149
 20
-2.87358
 30
0.0
 40
0
 41
0
  0
VERTEX
  8
0
 10
11.5561
 20
-2.85206
 30
0.0
 40
0
 41
0
  0
VERTEX
  8
0
 10
11.5947
 20
-2.81765
 30
0.0
 40
0
 41
0
  0
VERTEX
  8
0
 10
11.629
 20
-2.77556
 30
0.0
 40
0
 41
0
  0
VERTEX
  8
0
 10
11.6576
 20
-2.73085
 30
0.0
 40
0
 41
0
  0
VERTEX
  8
0
 10
11.6789
 20
-2.68864
 30
0.0
 40
0
 41
0
  0
VERTEX
  8
0
 10
11.6891
 20
-2.66292
 30
0.0
 40
0
 41
0
  0
VERTEX
  8
0
 10
11.6913
 20
-2.65408
 30
0.0
 40
0
 41
0
  0
VERTEX
  8
0
 10
11.7014
 20
-2.6104
 30
0.0
 40
0
 41
0
  0
VERTEX
  8
0
 10
11.7402
 20
-2.38135
 30
0.0
 40
0
 41
0
  0
VERTEX
  8
0
 10
11.7741
 20
-2.14746
 30
0.0
 40
0
 41
0
  0
VERTEX
  8
0
 10
11.7817
 20
-2.1014
 30
0.0
 40
0
 41
0
  0
VERTEX
  8
0
 10
11.7806
 20
-2.1014
 30
0.0
 40
0
 41
0
  0
VERTEX
  8
0
 10
11.7774
 20
-2.10682
 30
0.0
 40
0
 41
0
  0
VERTEX
  8
0
 10
11.7779
 20
-2.11594
 30
0.0
 40
0
 41
0
  0
VERTEX
  8
0
 10
11.7802
 20
-2.11774
 30
0.0
 40
0
 41
0
  0
VERTEX
  8
0
 10
11.7817
 20
-2.10547
 30
0.0
 40
0
 41
0
  0
VERTEX
  8
0
 10
11.7817
 20
-2.1014
 30
0.0
 40
0
 41
0
  0
SEQEND
 8
0
  0
POLYLINE
  8
0
 62
     0
 66
     1
 10
0
 20
0
 30
0.0
 70
     1
 40
0
 41
0
  0
VERTEX
  8
0
 10
15.0244
 20
-13.2225
 30
0.0
 40
0
 41
0
  0
VERTEX
  8
0
 10
15.0211
 20
-13.2061
 30
0.0
 40
0
 41
0
  0
VERTEX
  8
0
 10
15.0008
 20
-13.1589
 30
0.0
 40
0
 41
0
  0
VERTEX
  8
0
 10
14.9638
 20
-13.1137
 30
0.0
 40
0
 41
0
  0
VERTEX
  8
0
 10
14.9183
 20
-13.0871
 30
0.0
 40
0
 41
0
  0
VERTEX
  8
0
 10
14.87
 20
-13.0795
 30
0.0
 40
0
 41
0
  0
VERTEX
  8
0
 10
14.8242
 20
-13.0909
 30
0.0
 40
0
 41
0
  0
VERTEX
  8
0
 10
14.7858
 20
-13.1216
 30
0.0
 40
0
 41
0
  0
VERTEX
  8
0
 10
14.7604
 20
-13.1719
 30
0.0
 40
0
 41
0
  0
VERTEX
  8
0
 10
14.7525
 20
-13.2246
 30
0.0
 40
0
 41
0
  0
VERTEX
  8
0
 10
14.7533
 20
-13.242
 30
0.0
 40
0
 41
0
  0
VERTEX
  8
0
 10
14.7533
 20
-13.2546
 30
0.0
 40
0
 41
0
  0
VERTEX
  8
0
 10
14.7622
 20
-13.2924
 30
0.0
 40
0
 41
0
  0
VERTEX
  8
0
 10
14.7872
 20
-13.3473
 30
0.0
 40
0
 41
0
  0
VERTEX
  8
0
 10
14.8254
 20
-13.3932
 30
0.0
 40
0
 41
0
  0
VERTEX
  8
0
 10
14.8611
 20
-13.4147
 30
0.0
 40
0
 41
0
  0
VERTEX
  8
0
 10
14.8739
 20
-13.4164
 30
0.0
 40
0
 41
0
  0
VERTEX
  8
0
 10
14.8831
 20
-13.418
 30
0.0
 40
0
 41
0
  0
VERTEX
  8
0
 10
14.9117
 20
-13.4168
 30
0.0
 40
0
 41
0
  0
VERTEX
  8
0
 10
14.9425
 20
-13.4052
 30
0.0
 40
0
 41
0
  0
VERTEX
  8
0
 10
14.9674
 20
-13.384
 30
0.0
 40
0
 41
0
  0
VERTEX
  8
0
 10
14.9868
 20
-13.3558
 30
0.0
 40
0
 41
0
  0
VERTEX
  8
0
 10
15.0015
 20
-13.323
 30
0.0
 40
0
 41
0
  0
VERTEX
  8
0
 10
15.0122
 20
-13.2883
 30
0.0
 40
0
 41
0
  0
VERTEX
  8
0
 10
15.0196
 20
-13.2538
 30
0.0
 40
0
 41
0
  0
VERTEX
  8
0
 10
15.0235
 20
-13.2303
 30
0.0
 40
0
 41
0
  0
VERTEX
  8
0
 10
15.0244
 20
-13.2225
 30
0.0
 40
0
 41
0
  0
VERTEX
  8
0
 10
15.0244
 20
-13.2218
 30
0.0
 40
0
 41
0
  0
VERTEX
  8
0
 10
15.024
 20
-13.2197
 30
0.0
 40
0
 41
0
  0
VERTEX
  8
0
 10
15.0231
 20
-13.2238
 30
0.0
 40
0
 41
0
  0
VERTEX
  8
0
 10
15.0218
 20
-13.2319
 30
0.0
 40
0
 41
0
  0
VERTEX
  8
0
 10
15.0207
 20
-13.2407
 30
0.0
 40
0
 41
0
  0
VERTEX
  8
0
 10
15.02
 20
-13.2472
 30
0.0
 40
0
 41
0
  0
VERTEX
  8
0
 10
15.0201
 20
-13.2484
 30
0.0
 40
0
 41
0
  0
VERTEX
  8
0
 10
15.0215
 20
-13.2412
 30
0.0
 40
0
 41
0
  0
VERTEX
  8
0
 10
15.0237
 20
-13.2272
 30
0.0
 40
0
 41
0
  0
VERTEX
  8
0
 10
15.0244
 20
-13.2225
 30
0.0
 40
0
 41
0
  0
SEQEND
 8
0
  0
POLYLINE
  8
0
 62
     0
 66
     1
 10
0
 20
0
 30
0.0
 70
     1
 40
0
 41
0
  0
VERTEX
  8
0
 10
14.4924
 20
-14.4636
 30
0.0
 40
0
 41
0
  0
VERTEX
  8
0
 10
14.4933
 20
-14.4608
 30
0.0
 40
0
 41
0
  0
VERTEX
  8
0
 10
14.4847
 20
-14.4489
 30
0.0
 40
0
 41
0
  0
VERTEX
  8
0
 10
14.4583
 20
-14.4279
 30
0.0
 40
0
 41
0
  0
VERTEX
  8
0
 10
14.4185
 20
-14.4028
 30
0.0
 40
0
 41
0
  0
VERTEX
  8
0
 10
14.3706
 20
-14.375
 30
0.0
 40
0
 41
0
  0
VERTEX
  8
0
 10
14.3204
 20
-14.3469
 30
0.0
 40
0
 41
0
  0
VERTEX
  8
0
 10
14.2735
 20
-14.3204
 30
0.0
 40
0
 41
0
  0
VERTEX
  8
0
 10
14.2353
 20
-14.2972
 30
0.0
 40
0
 41
0
  0
VERTEX
  8
0
 10
14.2165
 20
-14.2844
 30
0.0
 40
0
 41
0
  0
VERTEX
  8
0
 10
14.2113
 20
-14.2793
 30
0.0
 40
0
 41
0
  0
VERTEX
  8
0
 10
14.2065
 20
-14.2747
 30
0.0
 40
0
 41
0
  0
VERTEX
  8
0
 10
14.1932
 20
-14.2599
 30
0.0
 40
0
 41
0
  0
VERTEX
  8
0
 10
14.1699
 20
-14.2333
 30
0.0
 40
0
 41
0
  0
VERTEX
  8
0
 10
14.1428
 20
-14.2035
 30
0.0
 40
0
 41
0
  0
VERTEX
  8
0
 10
14.1133
 20
-14.1739
 30
0.0
 40
0
 41
0
  0
VERTEX
  8
0
 10
14.0831
 20
-14.1483
 30
0.0
 40
0
 41
0
  0
VERTEX
  8
0
 10
14.0531
 20
-14.1307
 30
0.0
 40
0
 41
0
  0
VERTEX
  8
0
 10
14.0251
 20
-14.1246
 30
0.0
 40
0
 41
0
  0
VERTEX
  8
0
 10
14.0053
 20
-14.13
 30
0.0
 40
0
 41
0
  0
VERTEX
  8
0
 10
14.0004
 20
-14.1339
 30
0.0
 40
0
 41
0
  0
VERTEX
  8
0
 10
13.995
 20
-14.1383
 30
0.0
 40
0
 41
0
  0
VERTEX
  8
0
 10
13.9846
 20
-14.1585
 30
0.0
 40
0
 41
0
  0
VERTEX
  8
0
 10
13.9871
 20
-14.1875
 30
0.0
 40
0
 41
0
  0
VERTEX
  8
0
 10
14.0035
 20
-14.2188
 30
0.0
 40
0
 41
0
  0
VERTEX
  8
0
 10
14.0293
 20
-14.2503
 30
0.0
 40
0
 41
0
  0
VERTEX
  8
0
 10
14.0603
 20
-14.2799
 30
0.0
 40
0
 41
0
  0
VERTEX
  8
0
 10
14.0922
 20
-14.3057
 30
0.0
 40
0
 41
0
  0
VERTEX
  8
0
 10
14.1206
 20
-14.3256
 30
0.0
 40
0
 41
0
  0
VERTEX
  8
0
 10
14.1357
 20
-14.3349
 30
0.0
 40
0
 41
0
  0
VERTEX
  8
0
 10
14.141
 20
-14.3375
 30
0.0
 40
0
 41
0
  0
VERTEX
  8
0
 10
14.1686
 20
-14.3569
 30
0.0
 40
0
 41
0
  0
VERTEX
  8
0
 10
14.3092
 20
-14.426
 30
0.0
 40
0
 41
0
  0
VERTEX
  8
0
 10
14.4597
 20
-14.4611
 30
0.0
 40
0
 41
0
  0
VERTEX
  8
0
 10
14.4924
 20
-14.4636
 30
0.0
 40
0
 41
0
  0
VERTEX
  8
0
 10
14.4924
 20
-14.4636
 30
0.0
 40
0
 41
0
  0
VERTEX
  8
0
 10
14.4881
 20
-14.4636
 30
0.0
 40
0
 41
0
  0
VERTEX
  8
0
 10
14.481
 20
-14.4636
 30
0.0
 40
0
 41
0
  0
VERTEX
  8
0
 10
14.4796
 20
-14.4636
 30
0.0
 40
0
 41
0
  0
VERTEX
  8
0
 10
14.4892
 20
-14.4636
 30
0.0
 40
0
 41
0
  0
VERTEX
  8
0
 10
14.4924
 20
-14.4636
 30
0.0
 40
0
 41
0
  0
SEQEND
 8
0
  0
ENDSEC
  0
EOF
