  0
SECTION
  2
HEADER
  9
$ACADVER
  1
AC1014
  9
$HANDSEED
  5
FFFF
  9
$MEASUREMENT
 70
     1
  0
ENDSEC
  0
SECTION
  2
TABLES
  0
TABLE
  2
VPORT
  5
8
330
0
100
AcDbSymbolTable
 70
     4
  0
VPORT
  5
2E
330
8
100
AcDbSymbolTableRecord
100
AcDbViewportTableRecord
  2
*ACTIVE
 70
     0
 10
0.0
 20
0.0
 11
1.0
 21
1.0
 12
210.0
 22
148.5
 13
0.0
 23
0.0
 14
10.0
 24
10.0
 15
10.0
 25
10.0
 16
0.0
 26
0.0
 36
1.0
 17
0.0
 27
0.0
 37
0.0
 40
341.0
 41
1.24
 42
50.0
 43
0.0
 44
0.0
 50
0.0
 51
0.0
 71
     0
 72
   100
 73
     1
 74
     3
 75
     0
 76
     0
 77
     0
 78
     0
  0
ENDTAB
  0
TABLE
  2
LTYPE
  5
5
330
0
100
AcDbSymbolTable
 70
     1
  0
LTYPE
  5
14
330
5
100
AcDbSymbolTableRecord
100
AcDbLinetypeTableRecord
  2
BYBLOCK
 70
     0
  3

 72
    65
 73
     0
 40
0.0
  0
LTYPE
  5
15
330
5
100
AcDbSymbolTableRecord
100
AcDbLinetypeTableRecord
  2
BYLAYER
 70
     0
  3

 72
    65
 73
     0
 40
0.0
  0
LTYPE
  5
16
330
5
100
AcDbSymbolTableRecord
100
AcDbLinetypeTableRecord
  2
CONTINUOUS
 70
     0
  3
Solid line
 72
    65
 73
     0
 40
0.0
  0
ENDTAB
  0
TABLE
  2
LAYER
  5
2
100
AcDbSymbolTable
 70
2
  0
LAYER
  5
50
100
AcDbSymbolTableRecord
100
AcDbLayerTableRecord
  2
0
 70
0
  6
CONTINUOUS
  0
LAYER
  5
51
100
AcDbSymbolTableRecord
100
AcDbLayerTableRecord
  2
Layer_1
 70
0
  6
CONTINUOUS
  0
ENDTAB
  0
TABLE
  2
STYLE
  5
3
330
0
100
AcDbSymbolTable
 70
     1
  0
STYLE
  5
11
330
3
100
AcDbSymbolTableRecord
100
AcDbTextStyleTableRecord
  2
STANDARD
 70
     0
 40
0.0
 41
1.0
 50
0.0
 71
     0
 42
2.5
  3
txt
  4

  0
ENDTAB
  0
TABLE
  2
VIEW
  5
6
330
0
100
AcDbSymbolTable
 70
     0
  0
ENDTAB
  0
TABLE
  2
UCS
  5
7
330
0
100
AcDbSymbolTable
 70
     0
  0
ENDTAB
  0
TABLE
  2
APPID
  5
9
330
0
100
AcDbSymbolTable
 70
     2
  0
APPID
  5
12
330
9
100
AcDbSymbolTableRecord
100
AcDbRegAppTableRecord
  2
ACAD
 70
     0
  0
ENDTAB
  0
TABLE
  2
DIMSTYLE
  5
A
330
0
100
AcDbSymbolTable
 70
     1
  0
DIMSTYLE
105
27
330
A
100
AcDbSymbolTableRecord
100
AcDbDimStyleTableRecord
  2
ISO-25
 70
     0
  3

  4

  5

  6

  7

 40
1.0
 41
2.5
 42
0.625
 43
3.75
 44
1.25
 45
0.0
 46
0.0
 47
0.0
 48
0.0
140
2.5
141
2.5
142
0.0
143
0.03937007874016
144
1.0
145
0.0
146
1.0
147
0.625
 71
     0
 72
     0
 73
     0
 74
     0
 75
     0
 76
     0
 77
     1
 78
     8
170
     0
171
     3
172
     1
173
     0
174
     0
175
     0
176
     0
177
     0
178
     0
270
     2
271
     2
272
     2
273
     2
274
     3
340
11
275
     0
280
     0
281
     0
282
     0
283
     0
284
     8
285
     0
286
     0
287
     3
288
     0
  0
ENDTAB
  0
TABLE
  2
BLOCK_RECORD
  5
1
330
0
100
AcDbSymbolTable
 70
     1
  0
BLOCK_RECORD
  5
1F
330
1
100
AcDbSymbolTableRecord
100
AcDbBlockTableRecord
  2
*MODEL_SPACE
  0
BLOCK_RECORD
  5
1B
330
1
100
AcDbSymbolTableRecord
100
AcDbBlockTableRecord
  2
*PAPER_SPACE
  0
ENDTAB
  0
ENDSEC
  0
SECTION
  2
BLOCKS
  0
BLOCK
  5
20
330
1F
100
AcDbEntity
  8
0
100
AcDbBlockBegin
  2
*MODEL_SPACE
 70
     0
 10
0.0
 20
0.0
 30
0.0
  3
*MODEL_SPACE
  1

  0
ENDBLK
  5
21
330
1F
100
AcDbEntity
  8
0
100
AcDbBlockEnd
  0
BLOCK
  5
1C
330
1B
100
AcDbEntity
 67
     1
  8
0
100
AcDbBlockBegin
  2
*PAPER_SPACE
  1

  0
ENDBLK
  5
1D
330
1B
100
AcDbEntity
 67
     1
  8
0
100
AcDbBlockEnd
  0
ENDSEC
  0
SECTION
  2
ENTITIES
  0
LINE
  5
100
100
AcDbEntity
  8
Layer_1
 62
7
100
AcDbLine
 10
126.457184
 20
767.235260
 30
0.0
 11
126.356560
 21
767.219412
 31
0.0
  0
LINE
  5
101
100
AcDbEntity
  8
Layer_1
 62
7
100
AcDbLine
 10
126.356560
 20
767.219412
 30
0.0
 11
126.457856
 21
767.229772
 31
0.0
  0
SPLINE
  5
102
100
AcDbEntity
  8
Layer_1
 62
7
100
AcDbSpline
 70
8
 71
3
 72
8
 73
4
 74
0
 40
0
 40
0
 40
0
 40
0
 40
1
 40
1
 40
1
 40
1
 10
126.457856
 20
767.229772
 30
0.0
 10
126.457688
 20
767.232092
 30
0.0
 10
126.457056
 20
767.235212
 30
0.0
 10
126.457056
 20
767.235292
 30
0.0
  0
LINE
  5
103
100
AcDbEntity
  8
Layer_1
 62
7
100
AcDbLine
 10
126.457056
 20
767.235292
 30
0.0
 11
126.457184
 21
767.235260
 31
0.0
  0
SPLINE
  5
104
100
AcDbEntity
  8
Layer_1
 62
7
100
AcDbSpline
 70
8
 71
3
 72
8
 73
4
 74
0
 40
0
 40
0
 40
0
 40
0
 40
1
 40
1
 40
1
 40
1
 10
126.457984
 20
767.226044
 30
0.0
 10
126.458160
 20
767.220604
 30
0.0
 10
126.458032
 20
767.214348
 30
0.0
 10
126.457984
 20
767.213932
 30
0.0
  0
SPLINE
  5
105
100
AcDbEntity
  8
Layer_1
 62
7
100
AcDbSpline
 70
8
 71
3
 72
8
 73
4
 74
0
 40
0
 40
0
 40
0
 40
0
 40
1
 40
1
 40
1
 40
1
 10
126.457984
 20
767.213932
 30
0.0
 10
126.457952
 20
767.213638
 30
0.0
 10
126.458784
 20
767.219612
 30
0.0
 10
126.458784
 20
767.219692
 30
0.0
  0
SPLINE
  5
106
100
AcDbEntity
  8
Layer_1
 62
7
100
AcDbSpline
 70
8
 71
3
 72
8
 73
4
 74
0
 40
0
 40
0
 40
0
 40
0
 40
1
 40
1
 40
1
 40
1
 10
126.458784
 20
767.219692
 30
0.0
 10
126.458784
 20
767.219715
 30
0.0
 10
126.458432
 20
767.223132
 30
0.0
 10
126.457984
 20
767.226012
 30
0.0
  0
LINE
  5
107
100
AcDbEntity
  8
Layer_1
 62
7
100
AcDbLine
 10
126.457984
 20
767.226012
 30
0.0
 11
126.457984
 21
767.226044
 31
0.0
  0
SPLINE
  5
108
100
AcDbEntity
  8
Layer_1
 62
7
100
AcDbSpline
 70
8
 71
3
 72
8
 73
4
 74
0
 40
0
 40
0
 40
0
 40
0
 40
1
 40
1
 40
1
 40
1
 10
126.286120
 20
767.219964
 30
0.0
 10
126.286072
 20
767.216924
 30
0.0
 10
126.285680
 20
767.215404
 30
0.0
 10
126.286120
 20
767.212204
 30
0.0
  0
LINE
  5
109
100
AcDbEntity
  8
Layer_1
 62
7
100
AcDbLine
 10
126.286120
 20
767.212204
 30
0.0
 11
126.286920
 21
767.212204
 31
0.0
  0
SPLINE
  5
10a
100
AcDbEntity
  8
Layer_1
 62
7
100
AcDbSpline
 70
8
 71
3
 72
8
 73
4
 74
0
 40
0
 40
0
 40
0
 40
0
 40
1
 40
1
 40
1
 40
1
 10
126.286920
 20
767.212204
 30
0.0
 10
126.286576
 20
767.214844
 30
0.0
 10
126.286576
 20
767.217084
 30
0.0
 10
126.286120
 20
767.219964
 30
0.0
  0
LINE
  5
10b
100
AcDbEntity
  8
Layer_1
 62
7
100
AcDbLine
 10
126.286120
 20
767.219964
 30
0.0
 11
126.286120
 21
767.219964
 31
0.0
  0
LINE
  5
10c
100
AcDbEntity
  8
Layer_1
 62
7
100
AcDbLine
 10
61.043564
 20
737.726748
 30
0.0
 11
61.066532
 21
737.580644
 31
0.0
  0
SPLINE
  5
10d
100
AcDbEntity
  8
Layer_1
 62
7
100
AcDbSpline
 70
8
 71
3
 72
8
 73
4
 74
0
 40
0
 40
0
 40
0
 40
0
 40
1
 40
1
 40
1
 40
1
 10
61.066532
 20
737.580644
 30
0.0
 10
61.066706
 20
737.580668
 30
0.0
 10
61.066969
 20
737.580620
 30
0.0
 10
61.067412
 20
737.580644
 30
0.0
  0
LINE
  5
10e
100
AcDbEntity
  8
Layer_1
 62
7
100
AcDbLine
 10
61.067412
 20
737.580644
 30
0.0
 11
61.045140
 21
737.726748
 31
0.0
  0
SPLINE
  5
10f
100
AcDbEntity
  8
Layer_1
 62
7
100
AcDbSpline
 70
8
 71
3
 72
8
 73
4
 74
0
 40
0
 40
0
 40
0
 40
0
 40
1
 40
1
 40
1
 40
1
 10
61.045140
 20
737.726748
 30
0.0
 10
61.044703
 20
737.726708
 30
0.0
 10
61.044260
 20
737.726796
 30
0.0
 10
61.043860
 20
737.726748
 30
0.0
  0
LINE
  5
110
100
AcDbEntity
  8
Layer_1
 62
7
100
AcDbLine
 10
61.043860
 20
737.726748
 30
0.0
 11
61.043564
 21
737.726748
 31
0.0
  0
LINE
  5
111
100
AcDbEntity
  8
Layer_1
 62
7
100
AcDbLine
 10
102.346352
 20
798.948516
 30
0.0
 11
102.249112
 21
798.826622
 31
0.0
  0
SPLINE
  5
112
100
AcDbEntity
  8
Layer_1
 62
7
100
AcDbSpline
 70
8
 71
3
 72
8
 73
4
 74
0
 40
0
 40
0
 40
0
 40
0
 40
1
 40
1
 40
1
 40
1
 10
102.249112
 20
798.826622
 30
0.0
 10
104.708256
 20
797.399228
 30
0.0
 10
106.925192
 20
795.759655
 30
0.0
 10
108.749960
 20
793.781456
 30
0.0
  0
LINE
  5
113
100
AcDbEntity
  8
Layer_1
 62
7
100
AcDbLine
 10
108.749960
 20
793.781456
 30
0.0
 11
108.885688
 21
793.872804
 31
0.0
  0
SPLINE
  5
114
100
AcDbEntity
  8
Layer_1
 62
7
100
AcDbSpline
 70
8
 71
3
 72
8
 73
4
 74
0
 40
0
 40
0
 40
0
 40
0
 40
1
 40
1
 40
1
 40
1
 10
108.885688
 20
793.872804
 30
0.0
 10
107.047552
 20
795.865505
 30
0.0
 10
104.816448
 20
797.514765
 30
0.0
 10
102.346352
 20
798.948516
 30
0.0
  0
LINE
  5
115
100
AcDbEntity
  8
Layer_1
 62
7
100
AcDbLine
 10
102.346352
 20
798.948516
 30
0.0
 11
102.346352
 21
798.948516
 31
0.0
  0
LINE
  5
116
100
AcDbEntity
  8
Layer_1
 62
7
100
AcDbLine
 10
98.039584
 20
800.935979
 30
0.0
 11
97.966624
 21
800.802271
 31
0.0
  0
SPLINE
  5
117
100
AcDbEntity
  8
Layer_1
 62
7
100
AcDbSpline
 70
8
 71
3
 72
8
 73
4
 74
0
 40
0
 40
0
 40
0
 40
0
 40
1
 40
1
 40
1
 40
1
 10
97.966624
 20
800.802271
 30
0.0
 10
99.434000
 20
800.217865
 30
0.0
 10
100.910104
 20
799.630123
 30
0.0
 10
102.246048
 20
798.828063
 30
0.0
  0
LINE
  5
118
100
AcDbEntity
  8
Layer_1
 62
7
100
AcDbLine
 10
102.246048
 20
798.828063
 30
0.0
 11
102.345680
 21
798.948804
 31
0.0
  0
SPLINE
  5
119
100
AcDbEntity
  8
Layer_1
 62
7
100
AcDbSpline
 70
8
 71
3
 72
8
 73
4
 74
0
 40
0
 40
0
 40
0
 40
0
 40
1
 40
1
 40
1
 40
1
 10
102.345680
 20
798.948804
 30
0.0
 10
100.993256
 20
799.760757
 30
0.0
 10
99.506920
 20
800.351586
 30
0.0
 10
98.039584
 20
800.935979
 30
0.0
  0
LINE
  5
11a
100
AcDbEntity
  8
Layer_1
 62
7
100
AcDbLine
 10
98.039584
 20
800.935979
 30
0.0
 11
98.039584
 21
800.935979
 31
0.0
  0
LINE
  5
11b
100
AcDbEntity
  8
Layer_1
 62
7
100
AcDbLine
 10
102.334872
 20
798.954279
 30
0.0
 11
102.256872
 21
798.822588
 31
0.0
  0
LINE
  5
11c
100
AcDbEntity
  8
Layer_1
 62
7
100
AcDbLine
 10
102.256872
 20
798.822588
 30
0.0
 11
102.259272
 21
798.821708
 31
0.0
  0
LINE
  5
11d
100
AcDbEntity
  8
Layer_1
 62
7
100
AcDbLine
 10
102.259272
 20
798.821708
 30
0.0
 11
102.336952
 21
798.953398
 31
0.0
  0
LINE
  5
11e
100
AcDbEntity
  8
Layer_1
 62
7
100
AcDbLine
 10
102.336952
 20
798.953398
 30
0.0
 11
102.335352
 21
798.954278
 31
0.0
  0
LINE
  5
11f
100
AcDbEntity
  8
Layer_1
 62
7
100
AcDbLine
 10
102.335352
 20
798.954278
 30
0.0
 11
102.334872
 21
798.954279
 31
0.0
  0
LINE
  5
120
100
AcDbEntity
  8
Layer_1
 62
7
100
AcDbLine
 10
93.774344
 20
802.625769
 30
0.0
 11
93.724744
 21
802.484569
 31
0.0
  0
SPLINE
  5
121
100
AcDbEntity
  8
Layer_1
 62
7
100
AcDbSpline
 70
8
 71
3
 72
8
 73
4
 74
0
 40
0
 40
0
 40
0
 40
0
 40
1
 40
1
 40
1
 40
1
 10
93.724744
 20
802.484569
 30
0.0
 10
95.219368
 20
802.101901
 30
0.0
 10
96.595440
 20
801.387369
 30
0.0
 10
97.957568
 20
800.805729
 30
0.0
  0
LINE
  5
122
100
AcDbEntity
  8
Layer_1
 62
7
100
AcDbLine
 10
97.957568
 20
800.805729
 30
0.0
 11
98.035248
 21
800.937708
 31
0.0
  0
SPLINE
  5
123
100
AcDbEntity
  8
Layer_1
 62
7
100
AcDbSpline
 70
8
 71
3
 72
8
 73
4
 74
0
 40
0
 40
0
 40
0
 40
0
 40
1
 40
1
 40
1
 40
1
 10
98.035248
 20
800.937708
 30
0.0
 10
96.682240
 20
801.515456
 30
0.0
 10
95.297656
 20
802.235771
 30
0.0
 10
93.774400
 20
802.625769
 30
0.0
  0
LINE
  5
124
100
AcDbEntity
  8
Layer_1
 62
7
100
AcDbLine
 10
93.774400
 20
802.625769
 30
0.0
 11
93.774344
 21
802.625769
 31
0.0
  0
LINE
  5
125
100
AcDbEntity
  8
Layer_1
 62
7
100
AcDbLine
 10
89.458792
 20
803.764592
 30
0.0
 11
89.435832
 21
803.618205
 31
0.0
  0
SPLINE
  5
126
100
AcDbEntity
  8
Layer_1
 62
7
100
AcDbSpline
 70
8
 71
3
 72
8
 73
4
 74
0
 40
0
 40
0
 40
0
 40
0
 40
1
 40
1
 40
1
 40
1
 10
89.435832
 20
803.618205
 30
0.0
 10
90.935016
 20
803.447614
 30
0.0
 10
92.313216
 20
802.900401
 30
0.0
 10
93.721336
 20
802.485434
 30
0.0
  0
LINE
  5
127
100
AcDbEntity
  8
Layer_1
 62
7
100
AcDbLine
 10
93.721336
 20
802.485434
 30
0.0
 11
93.777736
 21
802.624905
 31
0.0
  0
SPLINE
  5
128
100
AcDbEntity
  8
Layer_1
 62
7
100
AcDbSpline
 70
8
 71
3
 72
8
 73
4
 74
0
 40
0
 40
0
 40
0
 40
0
 40
1
 40
1
 40
1
 40
1
 10
93.777736
 20
802.624905
 30
0.0
 10
92.381224
 20
803.036454
 30
0.0
 10
90.992088
 20
803.590122
 30
0.0
 10
89.458808
 20
803.764592
 30
0.0
  0
LINE
  5
129
100
AcDbEntity
  8
Layer_1
 62
7
100
AcDbLine
 10
89.458808
 20
803.764592
 30
0.0
 11
89.458792
 21
803.764592
 31
0.0
  0
LINE
  5
12a
100
AcDbEntity
  8
Layer_1
 62
7
100
AcDbLine
 10
87.350144
 20
804.049009
 30
0.0
 11
87.302544
 21
803.907233
 31
0.0
  0
SPLINE
  5
12b
100
AcDbEntity
  8
Layer_1
 62
7
100
AcDbSpline
 70
8
 71
3
 72
8
 73
4
 74
0
 40
0
 40
0
 40
0
 40
0
 40
1
 40
1
 40
1
 40
1
 10
87.302544
 20
803.907233
 30
0.0
 10
87.966824
 20
803.745257
 30
0.0
 10
88.693632
 20
803.702662
 30
0.0
 10
89.435832
 20
803.618205
 30
0.0
  0
LINE
  5
12c
100
AcDbEntity
  8
Layer_1
 62
7
100
AcDbLine
 10
89.435832
 20
803.618205
 30
0.0
 11
89.458792
 21
803.764592
 31
0.0
  0
SPLINE
  5
12d
100
AcDbEntity
  8
Layer_1
 62
7
100
AcDbSpline
 70
8
 71
3
 72
8
 73
4
 74
0
 40
0
 40
0
 40
0
 40
0
 40
1
 40
1
 40
1
 40
1
 10
89.458792
 20
803.764592
 30
0.0
 10
88.709640
 20
803.849841
 30
0.0
 10
87.989848
 20
803.893026
 30
0.0
 10
87.350152
 20
804.049009
 30
0.0
  0
LINE
  5
12e
100
AcDbEntity
  8
Layer_1
 62
7
100
AcDbLine
 10
87.350152
 20
804.049009
 30
0.0
 11
87.350144
 21
804.049009
 31
0.0
  0
LINE
  5
12f
100
AcDbEntity
  8
Layer_1
 62
7
100
AcDbLine
 10
98.031144
 20
800.939437
 30
0.0
 11
97.961624
 21
800.804288
 31
0.0
  0
LINE
  5
130
100
AcDbEntity
  8
Layer_1
 62
7
100
AcDbLine
 10
97.961624
 20
800.804288
 30
0.0
 11
97.968024
 21
800.801728
 31
0.0
  0
LINE
  5
131
100
AcDbEntity
  8
Layer_1
 62
7
100
AcDbLine
 10
97.968024
 20
800.801728
 30
0.0
 11
98.037624
 21
800.936877
 31
0.0
  0
LINE
  5
132
100
AcDbEntity
  8
Layer_1
 62
7
100
AcDbLine
 10
98.037624
 20
800.936877
 30
0.0
 11
98.031224
 21
800.939437
 31
0.0
  0
LINE
  5
133
100
AcDbEntity
  8
Layer_1
 62
7
100
AcDbLine
 10
98.031224
 20
800.939437
 30
0.0
 11
98.031144
 21
800.939437
 31
0.0
  0
LINE
  5
134
100
AcDbEntity
  8
Layer_1
 62
7
100
AcDbLine
 10
85.167552
 20
804.556177
 30
0.0
 11
85.133792
 21
804.411518
 31
0.0
  0
SPLINE
  5
135
100
AcDbEntity
  8
Layer_1
 62
7
100
AcDbSpline
 70
8
 71
3
 72
8
 73
4
 74
0
 40
0
 40
0
 40
0
 40
0
 40
1
 40
1
 40
1
 40
1
 10
85.133792
 20
804.411518
 30
0.0
 10
85.883640
 20
804.283529
 30
0.0
 10
86.573024
 20
804.073296
 30
0.0
 10
87.300176
 20
803.907809
 30
0.0
  0
LINE
  5
136
100
AcDbEntity
  8
Layer_1
 62
7
100
AcDbLine
 10
87.300176
 20
803.907809
 30
0.0
 11
87.344736
 21
804.050161
 31
0.0
  0
SPLINE
  5
137
100
AcDbEntity
  8
Layer_1
 62
7
100
AcDbSpline
 70
8
 71
3
 72
8
 73
4
 74
0
 40
0
 40
0
 40
0
 40
0
 40
1
 40
1
 40
1
 40
1
 10
87.344736
 20
804.050161
 30
0.0
 10
86.626632
 20
804.213589
 30
0.0
 10
85.933016
 20
804.425520
 30
0.0
 10
85.167544
 20
804.556177
 30
0.0
  0
LINE
  5
138
100
AcDbEntity
  8
Layer_1
 62
7
100
AcDbLine
 10
85.167544
 20
804.556177
 30
0.0
 11
85.167552
 21
804.556177
 31
0.0
  0
LINE
  5
139
100
AcDbEntity
  8
Layer_1
 62
7
100
AcDbLine
 10
87.339344
 20
803.995122
 30
0.0
 11
87.307264
 21
803.921642
 31
0.0
  0
LINE
  5
13a
100
AcDbEntity
  8
Layer_1
 62
7
100
AcDbLine
 10
87.307264
 20
803.921642
 30
0.0
 11
87.317424
 21
803.991090
 31
0.0
  0
LINE
  5
13b
100
AcDbEntity
  8
Layer_1
 62
7
100
AcDbLine
 10
87.317424
 20
803.991090
 30
0.0
 11
87.283344
 21
803.913290
 31
0.0
  0
LINE
  5
13c
100
AcDbEntity
  8
Layer_1
 62
7
100
AcDbLine
 10
87.283344
 20
803.913290
 30
0.0
 11
87.303984
 21
803.904354
 31
0.0
  0
LINE
  5
13d
100
AcDbEntity
  8
Layer_1
 62
7
100
AcDbLine
 10
87.303984
 20
803.904354
 30
0.0
 11
87.326224
 21
803.904354
 31
0.0
  0
LINE
  5
13e
100
AcDbEntity
  8
Layer_1
 62
7
100
AcDbLine
 10
87.326224
 20
803.904354
 30
0.0
 11
87.339424
 21
803.995126
 31
0.0
  0
LINE
  5
13f
100
AcDbEntity
  8
Layer_1
 62
7
100
AcDbLine
 10
87.339424
 20
803.995126
 30
0.0
 11
87.339344
 21
803.995122
 31
0.0
  0
LINE
  5
140
100
AcDbEntity
  8
Layer_1
 62
7
100
AcDbLine
 10
80.496120
 20
805.063344
 30
0.0
 11
80.496120
 21
804.915805
 31
0.0
  0
SPLINE
  5
141
100
AcDbEntity
  8
Layer_1
 62
7
100
AcDbSpline
 70
8
 71
3
 72
8
 73
4
 74
0
 40
0
 40
0
 40
0
 40
0
 40
1
 40
1
 40
1
 40
1
 10
80.496120
 20
804.915805
 30
0.0
 10
82.084152
 20
804.915805
 30
0.0
 10
83.613920
 20
804.662459
 30
0.0
 10
85.133112
 20
804.411518
 30
0.0
  0
LINE
  5
142
100
AcDbEntity
  8
Layer_1
 62
7
100
AcDbLine
 10
85.133112
 20
804.411518
 30
0.0
 11
85.166152
 21
804.556177
 31
0.0
  0
SPLINE
  5
143
100
AcDbEntity
  8
Layer_1
 62
7
100
AcDbSpline
 70
8
 71
3
 72
8
 73
4
 74
0
 40
0
 40
0
 40
0
 40
0
 40
1
 40
1
 40
1
 40
1
 10
85.166152
 20
804.556177
 30
0.0
 10
83.647040
 20
804.807103
 30
0.0
 10
82.105608
 20
805.063344
 30
0.0
 10
80.496064
 20
805.063344
 30
0.0
  0
LINE
  5
144
100
AcDbEntity
  8
Layer_1
 62
7
100
AcDbLine
 10
80.496064
 20
805.063344
 30
0.0
 11
80.496120
 21
805.063344
 31
0.0
  0
LINE
  5
145
100
AcDbEntity
  8
Layer_1
 62
7
100
AcDbLine
 10
85.149664
 20
804.557617
 30
0.0
 11
85.149664
 21
804.410077
 31
0.0
  0
LINE
  5
146
100
AcDbEntity
  8
Layer_1
 62
7
100
AcDbLine
 10
85.149664
 20
804.410077
 30
0.0
 11
85.150464
 21
804.410077
 31
0.0
  0
LINE
  5
147
100
AcDbEntity
  8
Layer_1
 62
7
100
AcDbLine
 10
85.150464
 20
804.410077
 30
0.0
 11
85.150464
 21
804.557617
 31
0.0
  0
LINE
  5
148
100
AcDbEntity
  8
Layer_1
 62
7
100
AcDbLine
 10
85.150464
 20
804.557617
 30
0.0
 11
85.149664
 21
804.557617
 31
0.0
  0
LINE
  5
149
100
AcDbEntity
  8
Layer_1
 62
7
100
AcDbLine
 10
85.149664
 20
804.557617
 30
0.0
 11
85.149664
 21
804.557617
 31
0.0
  0
SPLINE
  5
14a
100
AcDbEntity
  8
Layer_1
 62
7
100
AcDbSpline
 70
8
 71
3
 72
8
 73
4
 74
0
 40
0
 40
0
 40
0
 40
0
 40
1
 40
1
 40
1
 40
1
 10
79.308254
 20
805.094754
 30
0.0
 10
78.897213
 20
805.105386
 30
0.0
 10
78.475894
 20
805.104962
 30
0.0
 10
78.056234
 20
805.060170
 30
0.0
  0
LINE
  5
14b
100
AcDbEntity
  8
Layer_1
 62
7
100
AcDbLine
 10
78.056234
 20
805.060170
 30
0.0
 11
78.077850
 21
804.913783
 31
0.0
  0
SPLINE
  5
14c
100
AcDbEntity
  8
Layer_1
 62
7
100
AcDbSpline
 70
8
 71
3
 72
8
 73
4
 74
0
 40
0
 40
0
 40
0
 40
0
 40
1
 40
1
 40
1
 40
1
 10
78.077850
 20
804.913783
 30
0.0
 10
78.888986
 20
805.000353
 30
0.0
 10
79.726853
 20
804.914903
 30
0.0
 10
80.498154
 20
804.914903
 30
0.0
  0
LINE
  5
14d
100
AcDbEntity
  8
Layer_1
 62
7
100
AcDbLine
 10
80.498154
 20
804.914903
 30
0.0
 11
80.498154
 21
805.062442
 31
0.0
  0
SPLINE
  5
14e
100
AcDbEntity
  8
Layer_1
 62
7
100
AcDbSpline
 70
8
 71
3
 72
8
 73
4
 74
0
 40
0
 40
0
 40
0
 40
0
 40
1
 40
1
 40
1
 40
1
 10
80.498154
 20
805.062442
 30
0.0
 10
80.120146
 20
805.062442
 30
0.0
 10
79.719302
 20
805.084082
 30
0.0
 10
79.308261
 20
805.094722
 30
0.0
  0
LINE
  5
14f
100
AcDbEntity
  8
Layer_1
 62
7
100
AcDbLine
 10
79.308261
 20
805.094722
 30
0.0
 11
79.308254
 21
805.094754
 31
0.0
  0
SPLINE
  5
150
100
AcDbEntity
  8
Layer_1
 62
7
100
AcDbSpline
 70
8
 71
3
 72
8
 73
4
 74
0
 40
0
 40
0
 40
0
 40
0
 40
1
 40
1
 40
1
 40
1
 10
78.056234
 20
805.060174
 30
0.0
 10
77.258754
 20
804.975097
 30
0.0
 10
76.472378
 20
804.849920
 30
0.0
 10
75.749726
 20
804.767689
 30
0.0
  0
LINE
  5
151
100
AcDbEntity
  8
Layer_1
 62
7
100
AcDbLine
 10
75.749726
 20
804.767689
 30
0.0
 11
75.772694
 21
804.621301
 31
0.0
  0
SPLINE
  5
152
100
AcDbEntity
  8
Layer_1
 62
7
100
AcDbSpline
 70
8
 71
3
 72
8
 73
4
 74
0
 40
0
 40
0
 40
0
 40
0
 40
1
 40
1
 40
1
 40
1
 10
75.772694
 20
804.621301
 30
0.0
 10
76.501812
 20
804.704269
 30
0.0
 10
77.287230
 20
804.829442
 30
0.0
 10
78.077850
 20
804.913788
 30
0.0
  0
LINE
  5
153
100
AcDbEntity
  8
Layer_1
 62
7
100
AcDbLine
 10
78.077850
 20
804.913788
 30
0.0
 11
78.056234
 21
805.060174
 31
0.0
  0
LINE
  5
154
100
AcDbEntity
  8
Layer_1
 62
7
100
AcDbLine
 10
78.056234
 20
805.060174
 30
0.0
 11
78.056234
 21
805.060174
 31
0.0
  0
LINE
  5
155
100
AcDbEntity
  8
Layer_1
 62
7
100
AcDbLine
 10
80.534952
 20
805.055276
 30
0.0
 11
80.457272
 21
804.923585
 31
0.0
  0
LINE
  5
156
100
AcDbEntity
  8
Layer_1
 62
7
100
AcDbLine
 10
80.457272
 20
804.923585
 30
0.0
 11
80.458872
 21
804.922705
 31
0.0
  0
LINE
  5
157
100
AcDbEntity
  8
Layer_1
 62
7
100
AcDbLine
 10
80.458872
 20
804.922705
 30
0.0
 11
80.536872
 21
805.054396
 31
0.0
  0
LINE
  5
158
100
AcDbEntity
  8
Layer_1
 62
7
100
AcDbLine
 10
80.536872
 20
805.054396
 30
0.0
 11
80.534472
 21
805.055276
 31
0.0
  0
LINE
  5
159
100
AcDbEntity
  8
Layer_1
 62
7
100
AcDbLine
 10
80.534472
 20
805.055276
 30
0.0
 11
80.534952
 21
805.055276
 31
0.0
  0
SPLINE
  5
15a
100
AcDbEntity
  8
Layer_1
 62
7
100
AcDbSpline
 70
8
 71
3
 72
8
 73
4
 74
0
 40
0
 40
0
 40
0
 40
0
 40
1
 40
1
 40
1
 40
1
 10
75.741959
 20
804.766536
 30
0.0
 10
74.139600
 20
804.552866
 30
0.0
 10
72.618710
 20
804.134369
 30
0.0
 10
71.133998
 20
803.929997
 30
0.0
  0
LINE
  5
15b
100
AcDbEntity
  8
Layer_1
 62
7
100
AcDbLine
 10
71.133998
 20
803.929997
 30
0.0
 11
71.161342
 21
803.784475
 31
0.0
  0
SPLINE
  5
15c
100
AcDbEntity
  8
Layer_1
 62
7
100
AcDbSpline
 70
8
 71
3
 72
8
 73
4
 74
0
 40
0
 40
0
 40
0
 40
0
 40
1
 40
1
 40
1
 40
1
 10
71.161342
 20
803.784475
 30
0.0
 10
72.664242
 20
803.991350
 30
0.0
 10
74.183889
 20
804.409405
 30
0.0
 10
75.768625
 20
804.620725
 30
0.0
  0
LINE
  5
15d
100
AcDbEntity
  8
Layer_1
 62
7
100
AcDbLine
 10
75.768625
 20
804.620725
 30
0.0
 11
75.741937
 21
804.766536
 31
0.0
  0
LINE
  5
15e
100
AcDbEntity
  8
Layer_1
 62
7
100
AcDbLine
 10
75.741937
 20
804.766536
 30
0.0
 11
75.741959
 21
804.766536
 31
0.0
  0
SPLINE
  5
15f
100
AcDbEntity
  8
Layer_1
 62
7
100
AcDbSpline
 70
8
 71
3
 72
8
 73
4
 74
0
 40
0
 40
0
 40
0
 40
0
 40
1
 40
1
 40
1
 40
1
 10
71.134336
 20
803.929997
 30
0.0
 10
69.543806
 20
803.717787
 30
0.0
 10
68.102974
 20
803.377902
 30
0.0
 10
66.622948
 20
802.956869
 30
0.0
  0
LINE
  5
160
100
AcDbEntity
  8
Layer_1
 62
7
100
AcDbLine
 10
66.622948
 20
802.956869
 30
0.0
 11
66.677652
 21
802.816822
 31
0.0
  0
SPLINE
  5
161
100
AcDbEntity
  8
Layer_1
 62
7
100
AcDbSpline
 70
8
 71
3
 72
8
 73
4
 74
0
 40
0
 40
0
 40
0
 40
0
 40
1
 40
1
 40
1
 40
1
 10
66.677652
 20
802.816822
 30
0.0
 10
68.152235
 20
803.236308
 30
0.0
 10
69.582581
 20
803.573879
 30
0.0
 10
71.161013
 20
803.784475
 30
0.0
  0
LINE
  5
162
100
AcDbEntity
  8
Layer_1
 62
7
100
AcDbLine
 10
71.161013
 20
803.784475
 30
0.0
 11
71.134325
 21
803.929997
 31
0.0
  0
LINE
  5
163
100
AcDbEntity
  8
Layer_1
 62
7
100
AcDbLine
 10
71.134325
 20
803.929997
 30
0.0
 11
71.134336
 21
803.929997
 31
0.0
  0
LINE
  5
164
100
AcDbEntity
  8
Layer_1
 62
7
100
AcDbLine
 10
75.744996
 20
804.726481
 30
0.0
 11
75.755452
 21
804.619861
 31
0.0
  0
LINE
  5
165
100
AcDbEntity
  8
Layer_1
 62
7
100
AcDbLine
 10
75.755452
 20
804.619861
 30
0.0
 11
75.772340
 21
804.619861
 31
0.0
  0
LINE
  5
166
100
AcDbEntity
  8
Layer_1
 62
7
100
AcDbLine
 10
75.772340
 20
804.619861
 30
0.0
 11
75.788524
 21
804.624501
 31
0.0
  0
LINE
  5
167
100
AcDbEntity
  8
Layer_1
 62
7
100
AcDbLine
 10
75.788524
 20
804.624501
 30
0.0
 11
75.759820
 21
804.723917
 31
0.0
  0
LINE
  5
168
100
AcDbEntity
  8
Layer_1
 62
7
100
AcDbLine
 10
75.759820
 20
804.723917
 30
0.0
 11
75.766620
 21
804.651877
 31
0.0
  0
LINE
  5
169
100
AcDbEntity
  8
Layer_1
 62
7
100
AcDbLine
 10
75.766620
 20
804.651877
 30
0.0
 11
75.745004
 21
804.726509
 31
0.0
  0
LINE
  5
16a
100
AcDbEntity
  8
Layer_1
 62
7
100
AcDbLine
 10
75.745004
 20
804.726509
 30
0.0
 11
75.744996
 21
804.726481
 31
0.0
  0
SPLINE
  5
16b
100
AcDbEntity
  8
Layer_1
 62
7
100
AcDbSpline
 70
8
 71
3
 72
8
 73
4
 74
0
 40
0
 40
0
 40
0
 40
0
 40
1
 40
1
 40
1
 40
1
 10
66.621600
 20
802.956869
 30
0.0
 10
60.754187
 20
801.273688
 30
0.0
 10
55.128391
 20
798.705781
 30
0.0
 10
50.482096
 20
795.162336
 30
0.0
  0
LINE
  5
16c
100
AcDbEntity
  8
Layer_1
 62
7
100
AcDbLine
 10
50.482096
 20
795.162336
 30
0.0
 11
50.597574
 21
795.052257
 31
0.0
  0
SPLINE
  5
16d
100
AcDbEntity
  8
Layer_1
 62
7
100
AcDbSpline
 70
8
 71
3
 72
8
 73
4
 74
0
 40
0
 40
0
 40
0
 40
0
 40
1
 40
1
 40
1
 40
1
 10
50.597574
 20
795.052257
 30
0.0
 10
55.223109
 20
798.579871
 30
0.0
 10
60.827930
 20
801.139006
 30
0.0
 10
66.676635
 20
802.816822
 30
0.0
  0
LINE
  5
16e
100
AcDbEntity
  8
Layer_1
 62
7
100
AcDbLine
 10
66.676635
 20
802.816822
 30
0.0
 11
66.621600
 21
802.956869
 31
0.0
  0
LINE
  5
16f
100
AcDbEntity
  8
Layer_1
 62
7
100
AcDbLine
 10
66.621600
 20
802.956869
 30
0.0
 11
66.621600
 21
802.956869
 31
0.0
  0
SPLINE
  5
170
100
AcDbEntity
  8
Layer_1
 62
7
100
AcDbSpline
 70
8
 71
3
 72
8
 73
4
 74
0
 40
0
 40
0
 40
0
 40
0
 40
1
 40
1
 40
1
 40
1
 10
50.482435
 20
795.162336
 30
0.0
 10
48.209743
 20
793.433519
 30
0.0
 10
46.230138
 20
791.533746
 30
0.0
 10
44.499890
 20
789.382065
 30
0.0
  0
LINE
  5
171
100
AcDbEntity
  8
Layer_1
 62
7
100
AcDbLine
 10
44.499890
 20
789.382065
 30
0.0
 11
44.642379
 21
789.298498
 31
0.0
  0
SPLINE
  5
172
100
AcDbEntity
  8
Layer_1
 62
7
100
AcDbSpline
 70
8
 71
3
 72
8
 73
4
 74
0
 40
0
 40
0
 40
0
 40
0
 40
1
 40
1
 40
1
 40
1
 10
44.642379
 20
789.298498
 30
0.0
 10
46.364684
 20
791.440301
 30
0.0
 10
48.334282
 20
793.330846
 30
0.0
 10
50.597237
 20
795.052257
 30
0.0
  0
LINE
  5
173
100
AcDbEntity
  8
Layer_1
 62
7
100
AcDbLine
 10
50.597237
 20
795.052257
 30
0.0
 11
50.482435
 21
795.162336
 31
0.0
  0
LINE
  5
174
100
AcDbEntity
  8
Layer_1
 62
7
100
AcDbLine
 10
50.482435
 20
795.162336
 30
0.0
 11
50.482435
 21
795.162336
 31
0.0
  0
LINE
  5
175
100
AcDbEntity
  8
Layer_1
 62
7
100
AcDbLine
 10
66.649286
 20
802.960615
 30
0.0
 11
66.649286
 21
802.813076
 31
0.0
  0
LINE
  5
176
100
AcDbEntity
  8
Layer_1
 62
7
100
AcDbLine
 10
66.649286
 20
802.813076
 30
0.0
 11
66.650166
 21
802.813076
 31
0.0
  0
LINE
  5
177
100
AcDbEntity
  8
Layer_1
 62
7
100
AcDbLine
 10
66.650166
 20
802.813076
 30
0.0
 11
66.650166
 21
802.960615
 31
0.0
  0
LINE
  5
178
100
AcDbEntity
  8
Layer_1
 62
7
100
AcDbLine
 10
66.650166
 20
802.960615
 30
0.0
 11
66.649286
 21
802.960615
 31
0.0
  0
LINE
  5
179
100
AcDbEntity
  8
Layer_1
 62
7
100
AcDbLine
 10
66.649286
 20
802.960615
 30
0.0
 11
66.649286
 21
802.960615
 31
0.0
  0
SPLINE
  5
17a
100
AcDbEntity
  8
Layer_1
 62
7
100
AcDbSpline
 70
8
 71
3
 72
8
 73
4
 74
0
 40
0
 40
0
 40
0
 40
0
 40
1
 40
1
 40
1
 40
1
 10
44.499552
 20
789.380912
 30
0.0
 10
42.710708
 20
787.133340
 30
0.0
 10
41.526394
 20
784.686854
 30
0.0
 10
40.349790
 20
782.218320
 30
0.0
  0
LINE
  5
17b
100
AcDbEntity
  8
Layer_1
 62
7
100
AcDbLine
 10
40.349790
 20
782.218320
 30
0.0
 11
40.509837
 21
782.162704
 31
0.0
  0
SPLINE
  5
17c
100
AcDbEntity
  8
Layer_1
 62
7
100
AcDbSpline
 70
8
 71
3
 72
8
 73
4
 74
0
 40
0
 40
0
 40
0
 40
0
 40
1
 40
1
 40
1
 40
1
 10
40.509837
 20
782.162704
 30
0.0
 10
41.686197
 20
784.630722
 30
0.0
 10
42.866714
 20
787.066479
 30
0.0
 10
44.642717
 20
789.297919
 30
0.0
  0
LINE
  5
17d
100
AcDbEntity
  8
Layer_1
 62
7
100
AcDbLine
 10
44.642717
 20
789.297919
 30
0.0
 11
44.499552
 21
789.380912
 31
0.0
  0
LINE
  5
17e
100
AcDbEntity
  8
Layer_1
 62
7
100
AcDbLine
 10
44.499552
 20
789.380912
 30
0.0
 11
44.499552
 21
789.380912
 31
0.0
  0
SPLINE
  5
17f
100
AcDbEntity
  8
Layer_1
 62
7
100
AcDbSpline
 70
8
 71
3
 72
8
 73
4
 74
0
 40
0
 40
0
 40
0
 40
0
 40
1
 40
1
 40
1
 40
1
 10
40.349790
 20
782.218609
 30
0.0
 10
39.734278
 20
780.948056
 30
0.0
 10
39.687277
 20
779.672436
 30
0.0
 10
39.355062
 20
778.497844
 30
0.0
  0
LINE
  5
180
100
AcDbEntity
  8
Layer_1
 62
7
100
AcDbLine
 10
39.355062
 20
778.497844
 30
0.0
 11
39.523214
 21
778.462988
 31
0.0
  0
SPLINE
  5
181
100
AcDbEntity
  8
Layer_1
 62
7
100
AcDbSpline
 70
8
 71
3
 72
8
 73
4
 74
0
 40
0
 40
0
 40
0
 40
0
 40
1
 40
1
 40
1
 40
1
 10
39.523214
 20
778.462988
 30
0.0
 10
39.861169
 20
779.657879
 30
0.0
 10
39.908503
 20
780.921838
 30
0.0
 10
40.509500
 20
782.162429
 30
0.0
  0
LINE
  5
182
100
AcDbEntity
  8
Layer_1
 62
7
100
AcDbLine
 10
40.509500
 20
782.162429
 30
0.0
 11
40.349790
 21
782.218621
 31
0.0
  0
LINE
  5
183
100
AcDbEntity
  8
Layer_1
 62
7
100
AcDbLine
 10
40.349790
 20
782.218621
 30
0.0
 11
40.349790
 21
782.218609
 31
0.0
  0
SPLINE
  5
184
100
AcDbEntity
  8
Layer_1
 62
7
100
AcDbSpline
 70
8
 71
3
 72
8
 73
4
 74
0
 40
0
 40
0
 40
0
 40
0
 40
1
 40
1
 40
1
 40
1
 10
39.355062
 20
778.497844
 30
0.0
 10
38.962712
 20
777.116614
 30
0.0
 10
38.610874
 20
775.835581
 30
0.0
 10
38.610874
 20
774.375089
 30
0.0
  0
LINE
  5
185
100
AcDbEntity
  8
Layer_1
 62
7
100
AcDbLine
 10
38.610874
 20
774.375089
 30
0.0
 11
38.783753
 21
774.375089
 31
0.0
  0
SPLINE
  5
186
100
AcDbEntity
  8
Layer_1
 62
7
100
AcDbSpline
 70
8
 71
3
 72
8
 73
4
 74
0
 40
0
 40
0
 40
0
 40
0
 40
1
 40
1
 40
1
 40
1
 10
38.783753
 20
774.375089
 30
0.0
 10
38.783753
 20
775.815351
 30
0.0
 10
39.131061
 20
777.082438
 30
0.0
 10
39.523214
 20
778.462975
 30
0.0
  0
LINE
  5
187
100
AcDbEntity
  8
Layer_1
 62
7
100
AcDbLine
 10
39.523214
 20
778.462975
 30
0.0
 11
39.355062
 21
778.497831
 31
0.0
  0
LINE
  5
188
100
AcDbEntity
  8
Layer_1
 62
7
100
AcDbLine
 10
39.355062
 20
778.497831
 30
0.0
 11
39.355062
 21
778.497844
 31
0.0
  0
SPLINE
  5
189
100
AcDbEntity
  8
Layer_1
 62
7
100
AcDbSpline
 70
8
 71
3
 72
8
 73
4
 74
0
 40
0
 40
0
 40
0
 40
0
 40
1
 40
1
 40
1
 40
1
 10
38.610874
 20
774.377105
 30
0.0
 10
38.561970
 20
773.004525
 30
0.0
 10
38.460538
 20
771.567974
 30
0.0
 10
38.712170
 20
770.150610
 30
0.0
  0
LINE
  5
18a
100
AcDbEntity
  8
Layer_1
 62
7
100
AcDbLine
 10
38.712170
 20
770.150610
 30
0.0
 11
38.883361
 21
770.172778
 31
0.0
  0
SPLINE
  5
18b
100
AcDbEntity
  8
Layer_1
 62
7
100
AcDbSpline
 70
8
 71
3
 72
8
 73
4
 74
0
 40
0
 40
0
 40
0
 40
0
 40
1
 40
1
 40
1
 40
1
 10
38.883361
 20
770.172778
 30
0.0
 10
38.635359
 20
771.569698
 30
0.0
 10
38.734744
 20
772.997172
 30
0.0
 10
38.783753
 20
774.372761
 30
0.0
  0
LINE
  5
18c
100
AcDbEntity
  8
Layer_1
 62
7
100
AcDbLine
 10
38.783753
 20
774.372761
 30
0.0
 11
38.610874
 21
774.377081
 31
0.0
  0
LINE
  5
18d
100
AcDbEntity
  8
Layer_1
 62
7
100
AcDbLine
 10
38.610874
 20
774.377081
 30
0.0
 11
38.610874
 21
774.377105
 31
0.0
  0
LINE
  5
18e
100
AcDbEntity
  8
Layer_1
 62
7
100
AcDbLine
 10
44.484694
 20
789.340281
 30
0.0
 11
44.484694
 21
789.339401
 31
0.0
  0
LINE
  5
18f
100
AcDbEntity
  8
Layer_1
 62
7
100
AcDbLine
 10
44.484694
 20
789.339401
 30
0.0
 11
44.657574
 21
789.339401
 31
0.0
  0
LINE
  5
190
100
AcDbEntity
  8
Layer_1
 62
7
100
AcDbLine
 10
44.657574
 20
789.339401
 30
0.0
 11
44.657574
 21
789.340281
 31
0.0
  0
LINE
  5
191
100
AcDbEntity
  8
Layer_1
 62
7
100
AcDbLine
 10
44.657574
 20
789.340281
 30
0.0
 11
44.484694
 21
789.340281
 31
0.0
  0
LINE
  5
192
100
AcDbEntity
  8
Layer_1
 62
7
100
AcDbLine
 10
44.484694
 20
789.340281
 30
0.0
 11
44.484694
 21
789.340281
 31
0.0
  0
LINE
  5
193
100
AcDbEntity
  8
Layer_1
 62
7
100
AcDbLine
 10
38.884374
 20
770.166461
 30
0.0
 11
38.714871
 21
770.137357
 31
0.0
  0
SPLINE
  5
194
100
AcDbEntity
  8
Layer_1
 62
7
100
AcDbSpline
 70
8
 71
3
 72
8
 73
4
 74
0
 40
0
 40
0
 40
0
 40
0
 40
1
 40
1
 40
1
 40
1
 10
38.714871
 20
770.137357
 30
0.0
 10
38.867418
 20
769.486416
 30
0.0
 10
39.115345
 20
768.853692
 30
0.0
 10
39.307791
 20
768.237785
 30
0.0
  0
LINE
  5
195
100
AcDbEntity
  8
Layer_1
 62
7
100
AcDbLine
 10
39.307791
 20
768.237785
 30
0.0
 11
39.474929
 21
768.275841
 31
0.0
  0
SPLINE
  5
196
100
AcDbEntity
  8
Layer_1
 62
7
100
AcDbSpline
 70
8
 71
3
 72
8
 73
4
 74
0
 40
0
 40
0
 40
0
 40
0
 40
1
 40
1
 40
1
 40
1
 10
39.474929
 20
768.275841
 30
0.0
 10
39.280580
 20
768.897831
 30
0.0
 10
39.034071
 20
769.527695
 30
0.0
 10
38.884374
 20
770.166480
 30
0.0
  0
LINE
  5
197
100
AcDbEntity
  8
Layer_1
 62
7
100
AcDbLine
 10
38.884374
 20
770.166480
 30
0.0
 11
38.884374
 21
770.166461
 31
0.0
  0
LINE
  5
198
100
AcDbEntity
  8
Layer_1
 62
7
100
AcDbLine
 10
39.475942
 20
768.272362
 30
0.0
 11
39.306778
 21
768.241506
 31
0.0
  0
SPLINE
  5
199
100
AcDbEntity
  8
Layer_1
 62
7
100
AcDbSpline
 70
8
 71
3
 72
8
 73
4
 74
0
 40
0
 40
0
 40
0
 40
0
 40
1
 40
1
 40
1
 40
1
 10
39.306778
 20
768.241506
 30
0.0
 10
39.448654
 20
767.673877
 30
0.0
 10
39.546430
 20
767.044135
 30
0.0
 10
39.750454
 20
766.434723
 30
0.0
  0
LINE
  5
19a
100
AcDbEntity
  8
Layer_1
 62
7
100
AcDbLine
 10
39.750454
 20
766.434723
 30
0.0
 11
39.916580
 21
766.475067
 31
0.0
  0
SPLINE
  5
19b
100
AcDbEntity
  8
Layer_1
 62
7
100
AcDbSpline
 70
8
 71
3
 72
8
 73
4
 74
0
 40
0
 40
0
 40
0
 40
0
 40
1
 40
1
 40
1
 40
1
 10
39.916580
 20
766.475067
 30
0.0
 10
39.717223
 20
767.070534
 30
0.0
 10
39.619854
 20
767.696565
 30
0.0
 10
39.475942
 20
768.272342
 30
0.0
  0
LINE
  5
19c
100
AcDbEntity
  8
Layer_1
 62
7
100
AcDbLine
 10
39.475942
 20
768.272342
 30
0.0
 11
39.475942
 21
768.272362
 31
0.0
  0
LINE
  5
19d
100
AcDbEntity
  8
Layer_1
 62
7
100
AcDbLine
 10
39.916580
 20
766.474797
 30
0.0
 11
39.750117
 21
766.435029
 31
0.0
  0
SPLINE
  5
19e
100
AcDbEntity
  8
Layer_1
 62
7
100
AcDbSpline
 70
8
 71
3
 72
8
 73
4
 74
0
 40
0
 40
0
 40
0
 40
0
 40
1
 40
1
 40
1
 40
1
 10
39.750117
 20
766.435029
 30
0.0
 10
41.392403
 20
761.424108
 30
0.0
 10
45.609525
 20
756.627396
 30
0.0
 10
51.466019
 20
754.705052
 30
0.0
  0
LINE
  5
19f
100
AcDbEntity
  8
Layer_1
 62
7
100
AcDbLine
 10
51.466019
 20
754.705052
 30
0.0
 11
51.528147
 21
754.842796
 31
0.0
  0
SPLINE
  5
1a0
100
AcDbEntity
  8
Layer_1
 62
7
100
AcDbSpline
 70
8
 71
3
 72
8
 73
4
 74
0
 40
0
 40
0
 40
0
 40
0
 40
1
 40
1
 40
1
 40
1
 10
51.528147
 20
754.842796
 30
0.0
 10
45.735714
 20
756.744116
 30
0.0
 10
41.545882
 20
761.503492
 30
0.0
 10
39.916579
 20
766.474797
 30
0.0
  0
LINE
  5
1a1
100
AcDbEntity
  8
Layer_1
 62
7
100
AcDbLine
 10
39.916579
 20
766.474797
 30
0.0
 11
39.916580
 21
766.474797
 31
0.0
  0
LINE
  5
1a2
100
AcDbEntity
  8
Layer_1
 62
7
100
AcDbLine
 10
38.691573
 20
770.249162
 30
0.0
 11
38.712845
 21
770.148595
 31
0.0
  0
LINE
  5
1a3
100
AcDbEntity
  8
Layer_1
 62
7
100
AcDbLine
 10
38.712845
 20
770.148595
 30
0.0
 11
38.713885
 21
770.143715
 31
0.0
  0
LINE
  5
1a4
100
AcDbEntity
  8
Layer_1
 62
7
100
AcDbLine
 10
38.713885
 20
770.143715
 30
0.0
 11
38.714925
 21
770.139395
 31
0.0
  0
LINE
  5
1a5
100
AcDbEntity
  8
Layer_1
 62
7
100
AcDbLine
 10
38.714925
 20
770.139395
 30
0.0
 11
38.869233
 21
770.162747
 31
0.0
  0
LINE
  5
1a6
100
AcDbEntity
  8
Layer_1
 62
7
100
AcDbLine
 10
38.869233
 20
770.162747
 30
0.0
 11
38.868193
 21
770.161627
 31
0.0
  0
LINE
  5
1a7
100
AcDbEntity
  8
Layer_1
 62
7
100
AcDbLine
 10
38.868193
 20
770.161627
 30
0.0
 11
38.885065
 21
770.164267
 31
0.0
  0
LINE
  5
1a8
100
AcDbEntity
  8
Layer_1
 62
7
100
AcDbLine
 10
38.885065
 20
770.164267
 30
0.0
 11
38.885065
 21
770.165029
 31
0.0
  0
LINE
  5
1a9
100
AcDbEntity
  8
Layer_1
 62
7
100
AcDbLine
 10
38.885065
 20
770.165029
 30
0.0
 11
38.884025
 21
770.169909
 31
0.0
  0
LINE
  5
1aa
100
AcDbEntity
  8
Layer_1
 62
7
100
AcDbLine
 10
38.884025
 20
770.169909
 30
0.0
 11
38.882985
 21
770.174789
 31
0.0
  0
LINE
  5
1ab
100
AcDbEntity
  8
Layer_1
 62
7
100
AcDbLine
 10
38.882985
 20
770.174789
 30
0.0
 11
38.872521
 21
770.226949
 31
0.0
  0
LINE
  5
1ac
100
AcDbEntity
  8
Layer_1
 62
7
100
AcDbLine
 10
38.872521
 20
770.226949
 30
0.0
 11
38.691538
 21
770.249157
 31
0.0
  0
LINE
  5
1ad
100
AcDbEntity
  8
Layer_1
 62
7
100
AcDbLine
 10
38.691538
 20
770.249157
 30
0.0
 11
38.691573
 21
770.249162
 31
0.0
  0
LINE
  5
1ae
100
AcDbEntity
  8
Layer_1
 62
7
100
AcDbLine
 10
51.531862
 20
754.841932
 30
0.0
 11
51.473782
 21
754.703036
 31
0.0
  0
SPLINE
  5
1af
100
AcDbEntity
  8
Layer_1
 62
7
100
AcDbSpline
 70
8
 71
3
 72
8
 73
4
 74
0
 40
0
 40
0
 40
0
 40
0
 40
1
 40
1
 40
1
 40
1
 10
51.473782
 20
754.703036
 30
0.0
 10
52.822032
 20
754.292092
 30
0.0
 10
54.163978
 20
753.736748
 30
0.0
 10
55.651569
 20
753.560756
 30
0.0
  0
LINE
  5
1b0
100
AcDbEntity
  8
Layer_1
 62
7
100
AcDbLine
 10
55.651569
 20
753.560756
 30
0.0
 11
55.675545
 21
753.706852
 31
0.0
  0
SPLINE
  5
1b1
100
AcDbEntity
  8
Layer_1
 62
7
100
AcDbSpline
 70
8
 71
3
 72
8
 73
4
 74
0
 40
0
 40
0
 40
0
 40
0
 40
1
 40
1
 40
1
 40
1
 10
55.675545
 20
753.706852
 30
0.0
 10
54.223122
 20
753.878684
 30
0.0
 10
52.892158
 20
754.427308
 30
0.0
 10
51.531859
 20
754.841932
 30
0.0
  0
LINE
  5
1b2
100
AcDbEntity
  8
Layer_1
 62
7
100
AcDbLine
 10
51.531859
 20
754.841932
 30
0.0
 11
51.531862
 21
754.841932
 31
0.0
  0
SPLINE
  5
1b3
100
AcDbEntity
  8
Layer_1
 62
7
100
AcDbSpline
 70
8
 71
3
 72
8
 73
4
 74
0
 40
0
 40
0
 40
0
 40
0
 40
1
 40
1
 40
1
 40
1
 10
55.663389
 20
753.707428
 30
0.0
 10
55.667309
 20
753.707324
 30
0.0
 10
55.679709
 20
753.706628
 30
0.0
 10
55.679573
 20
753.706628
 30
0.0
  0
SPLINE
  5
1b4
100
AcDbEntity
  8
Layer_1
 62
7
100
AcDbSpline
 70
8
 71
3
 72
8
 73
4
 74
0
 40
0
 40
0
 40
0
 40
0
 40
1
 40
1
 40
1
 40
1
 10
55.679573
 20
753.706628
 30
0.0
 10
55.675653
 20
753.707388
 30
0.0
 10
55.672693
 20
753.707428
 30
0.0
 10
55.670781
 20
753.707428
 30
0.0
  0
SPLINE
  5
1b5
100
AcDbEntity
  8
Layer_1
 62
7
100
AcDbSpline
 70
8
 71
3
 72
8
 73
4
 74
0
 40
0
 40
0
 40
0
 40
0
 40
1
 40
1
 40
1
 40
1
 10
55.670781
 20
753.707428
 30
0.0
 10
55.667261
 20
753.707580
 30
0.0
 10
55.665021
 20
753.707452
 30
0.0
 10
55.663341
 20
753.707428
 30
0.0
  0
LINE
  5
1b6
100
AcDbEntity
  8
Layer_1
 62
7
100
AcDbLine
 10
55.663341
 20
753.707428
 30
0.0
 11
55.663389
 21
753.707428
 31
0.0
  0
LINE
  5
1b7
100
AcDbEntity
  8
Layer_1
 62
7
100
AcDbLine
 10
55.679573
 20
753.706628
 30
0.0
 11
55.656957
 21
753.604620
 31
0.0
  0
LINE
  5
1b8
100
AcDbEntity
  8
Layer_1
 62
7
100
AcDbLine
 10
55.656957
 20
753.604620
 30
0.0
 11
55.686317
 21
753.705764
 31
0.0
  0
SPLINE
  5
1b9
100
AcDbEntity
  8
Layer_1
 62
7
100
AcDbSpline
 70
8
 71
3
 72
8
 73
4
 74
0
 40
0
 40
0
 40
0
 40
0
 40
1
 40
1
 40
1
 40
1
 10
55.686317
 20
753.705764
 30
0.0
 10
55.686295
 20
753.705772
 30
0.0
 10
55.682397
 20
753.706148
 30
0.0
 10
55.679517
 20
753.706524
 30
0.0
  0
LINE
  5
1ba
100
AcDbEntity
  8
Layer_1
 62
7
100
AcDbLine
 10
55.679517
 20
753.706524
 30
0.0
 11
55.679573
 21
753.706628
 31
0.0
  0
LINE
  5
1bb
100
AcDbEntity
  8
Layer_1
 62
7
100
AcDbLine
 10
55.647501
 20
753.562260
 30
0.0
 11
55.647501
 21
753.561500
 31
0.0
  0
SPLINE
  5
1bc
100
AcDbEntity
  8
Layer_1
 62
7
100
AcDbSpline
 70
8
 71
3
 72
8
 73
4
 74
0
 40
0
 40
0
 40
0
 40
0
 40
1
 40
1
 40
1
 40
1
 10
55.647501
 20
753.561500
 30
0.0
 10
55.647571
 20
753.561484
 30
0.0
 10
55.652781
 20
753.561116
 30
0.0
 10
55.657301
 20
753.560740
 30
0.0
  0
SPLINE
  5
1bd
100
AcDbEntity
  8
Layer_1
 62
7
100
AcDbSpline
 70
8
 71
3
 72
8
 73
4
 74
0
 40
0
 40
0
 40
0
 40
0
 40
1
 40
1
 40
1
 40
1
 10
55.657301
 20
753.560740
 30
0.0
 10
55.653781
 20
753.561116
 30
0.0
 10
55.649781
 20
753.561540
 30
0.0
 10
55.647501
 20
753.562340
 30
0.0
  0
LINE
  5
1be
100
AcDbEntity
  8
Layer_1
 62
7
100
AcDbLine
 10
55.647501
 20
753.562340
 30
0.0
 11
55.647501
 21
753.562260
 31
0.0
  0
LINE
  5
1bf
100
AcDbEntity
  8
Layer_1
 62
7
100
AcDbLine
 10
51.410644
 20
754.878236
 30
0.0
 11
51.410644
 21
754.773916
 31
0.0
  0
LINE
  5
1c0
100
AcDbEntity
  8
Layer_1
 62
7
100
AcDbLine
 10
51.410644
 20
754.773916
 30
0.0
 11
51.410644
 21
754.720636
 31
0.0
  0
LINE
  5
1c1
100
AcDbEntity
  8
Layer_1
 62
7
100
AcDbLine
 10
51.410644
 20
754.720636
 30
0.0
 11
51.471084
 21
754.703676
 31
0.0
  0
LINE
  5
1c2
100
AcDbEntity
  8
Layer_1
 62
7
100
AcDbLine
 10
51.471084
 20
754.703676
 30
0.0
 11
51.474124
 21
754.702916
 31
0.0
  0
LINE
  5
1c3
100
AcDbEntity
  8
Layer_1
 62
7
100
AcDbLine
 10
51.474124
 20
754.702916
 30
0.0
 11
51.475564
 21
754.702156
 31
0.0
  0
LINE
  5
1c4
100
AcDbEntity
  8
Layer_1
 62
7
100
AcDbLine
 10
51.475564
 20
754.702156
 30
0.0
 11
51.478924
 21
754.710796
 31
0.0
  0
LINE
  5
1c5
100
AcDbEntity
  8
Layer_1
 62
7
100
AcDbLine
 10
51.478924
 20
754.710796
 30
0.0
 11
51.476924
 21
754.709996
 31
0.0
  0
LINE
  5
1c6
100
AcDbEntity
  8
Layer_1
 62
7
100
AcDbLine
 10
51.476924
 20
754.709996
 30
0.0
 11
51.530268
 21
754.842548
 31
0.0
  0
LINE
  5
1c7
100
AcDbEntity
  8
Layer_1
 62
7
100
AcDbLine
 10
51.530268
 20
754.842548
 30
0.0
 11
51.528828
 21
754.843308
 31
0.0
  0
LINE
  5
1c8
100
AcDbEntity
  8
Layer_1
 62
7
100
AcDbLine
 10
51.528828
 20
754.843308
 30
0.0
 11
51.410650
 21
754.878748
 31
0.0
  0
LINE
  5
1c9
100
AcDbEntity
  8
Layer_1
 62
7
100
AcDbLine
 10
51.410650
 20
754.878748
 30
0.0
 11
51.410644
 21
754.878236
 31
0.0
  0
LINE
  5
1ca
100
AcDbEntity
  8
Layer_1
 62
7
100
AcDbLine
 10
69.222207
 20
800.886127
 30
0.0
 11
69.218687
 21
800.885247
 31
0.0
  0
LINE
  5
1cb
100
AcDbEntity
  8
Layer_1
 62
7
100
AcDbLine
 10
69.218687
 20
800.885247
 30
0.0
 11
69.260559
 21
800.742030
 31
0.0
  0
LINE
  5
1cc
100
AcDbEntity
  8
Layer_1
 62
7
100
AcDbLine
 10
69.260559
 20
800.742030
 30
0.0
 11
69.264479
 21
800.742910
 31
0.0
  0
LINE
  5
1cd
100
AcDbEntity
  8
Layer_1
 62
7
100
AcDbLine
 10
69.264479
 20
800.742910
 30
0.0
 11
69.222263
 21
800.886128
 31
0.0
  0
LINE
  5
1ce
100
AcDbEntity
  8
Layer_1
 62
7
100
AcDbLine
 10
69.222263
 20
800.886128
 30
0.0
 11
69.222207
 21
800.886127
 31
0.0
  0
LINE
  5
1cf
100
AcDbEntity
  8
Layer_1
 62
7
100
AcDbLine
 10
103.555496
 20
793.861278
 30
0.0
 11
103.433264
 21
793.756963
 31
0.0
  0
LINE
  5
1d0
100
AcDbEntity
  8
Layer_1
 62
7
100
AcDbLine
 10
103.433264
 20
793.756963
 30
0.0
 11
103.434064
 21
793.756083
 31
0.0
  0
LINE
  5
1d1
100
AcDbEntity
  8
Layer_1
 62
7
100
AcDbLine
 10
103.434064
 20
793.756083
 30
0.0
 11
103.556296
 21
793.860398
 31
0.0
  0
LINE
  5
1d2
100
AcDbEntity
  8
Layer_1
 62
7
100
AcDbLine
 10
103.556296
 20
793.860398
 30
0.0
 11
103.555496
 21
793.861278
 31
0.0
  0
LINE
  5
1d3
100
AcDbEntity
  8
Layer_1
 62
7
100
AcDbLine
 10
103.555496
 20
793.861278
 30
0.0
 11
103.555496
 21
793.861278
 31
0.0
  0
SPLINE
  5
1d4
100
AcDbEntity
  8
Layer_1
 62
7
100
AcDbSpline
 70
8
 71
3
 72
8
 73
4
 74
0
 40
0
 40
0
 40
0
 40
0
 40
1
 40
1
 40
1
 40
1
 10
83.693360
 20
756.834292
 30
0.0
 10
78.326781
 20
753.711564
 30
0.0
 10
72.498459
 20
751.203604
 30
0.0
 10
66.943379
 20
748.224828
 30
0.0
  0
LINE
  5
1d5
100
AcDbEntity
  8
Layer_1
 62
7
100
AcDbLine
 10
66.943379
 20
748.224828
 30
0.0
 11
67.035564
 21
748.099772
 31
0.0
  0
SPLINE
  5
1d6
100
AcDbEntity
  8
Layer_1
 62
7
100
AcDbSpline
 70
8
 71
3
 72
8
 73
4
 74
0
 40
0
 40
0
 40
0
 40
0
 40
1
 40
1
 40
1
 40
1
 10
67.035564
 20
748.099772
 30
0.0
 10
72.581518
 20
751.073652
 30
0.0
 10
78.411501
 20
753.582380
 30
0.0
 10
83.790600
 20
756.712396
 30
0.0
  0
LINE
  5
1d7
100
AcDbEntity
  8
Layer_1
 62
7
100
AcDbLine
 10
83.790600
 20
756.712396
 30
0.0
 11
83.693360
 21
756.834292
 31
0.0
  0
LINE
  5
1d8
100
AcDbEntity
  8
Layer_1
 62
7
100
AcDbLine
 10
83.693360
 20
756.834292
 30
0.0
 11
83.693360
 21
756.834292
 31
0.0
  0
SPLINE
  5
1d9
100
AcDbEntity
  8
Layer_1
 62
7
100
AcDbSpline
 70
8
 71
3
 72
8
 73
4
 74
0
 40
0
 40
0
 40
0
 40
0
 40
1
 40
1
 40
1
 40
1
 10
66.940680
 20
748.222812
 30
0.0
 10
64.188693
 20
746.712980
 30
0.0
 10
61.526546
 20
745.115212
 30
0.0
 10
59.104418
 20
743.216836
 30
0.0
  0
LINE
  5
1da
100
AcDbEntity
  8
Layer_1
 62
7
100
AcDbLine
 10
59.104418
 20
743.216836
 30
0.0
 11
59.221585
 21
743.108196
 31
0.0
  0
SPLINE
  5
1db
100
AcDbEntity
  8
Layer_1
 62
7
100
AcDbSpline
 70
8
 71
3
 72
8
 73
4
 74
0
 40
0
 40
0
 40
0
 40
0
 40
1
 40
1
 40
1
 40
1
 10
59.221585
 20
743.108196
 30
0.0
 10
61.632822
 20
744.998036
 30
0.0
 10
64.286237
 20
746.590980
 30
0.0
 10
67.034212
 20
748.098612
 30
0.0
  0
LINE
  5
1dc
100
AcDbEntity
  8
Layer_1
 62
7
100
AcDbLine
 10
67.034212
 20
748.098612
 30
0.0
 11
66.940680
 21
748.222812
 31
0.0
  0
LINE
  5
1dd
100
AcDbEntity
  8
Layer_1
 62
7
100
AcDbLine
 10
66.940680
 20
748.222812
 30
0.0
 11
66.940680
 21
748.222812
 31
0.0
  0
LINE
  5
1de
100
AcDbEntity
  8
Layer_1
 62
7
100
AcDbLine
 10
66.928189
 20
748.214452
 30
0.0
 11
66.927309
 21
748.213692
 31
0.0
  0
LINE
  5
1df
100
AcDbEntity
  8
Layer_1
 62
7
100
AcDbLine
 10
66.927309
 20
748.213692
 30
0.0
 11
66.926429
 21
748.212932
 31
0.0
  0
LINE
  5
1e0
100
AcDbEntity
  8
Layer_1
 62
7
100
AcDbLine
 10
66.926429
 20
748.212932
 30
0.0
 11
67.048662
 21
748.108620
 31
0.0
  0
LINE
  5
1e1
100
AcDbEntity
  8
Layer_1
 62
7
100
AcDbLine
 10
67.048662
 20
748.108620
 30
0.0
 11
67.049542
 21
748.109380
 31
0.0
  0
LINE
  5
1e2
100
AcDbEntity
  8
Layer_1
 62
7
100
AcDbLine
 10
67.049542
 20
748.109380
 30
0.0
 11
67.050422
 21
748.110140
 31
0.0
  0
LINE
  5
1e3
100
AcDbEntity
  8
Layer_1
 62
7
100
AcDbLine
 10
67.050422
 20
748.110140
 30
0.0
 11
66.928194
 21
748.214452
 31
0.0
  0
LINE
  5
1e4
100
AcDbEntity
  8
Layer_1
 62
7
100
AcDbLine
 10
66.928194
 20
748.214452
 30
0.0
 11
66.928189
 21
748.214452
 31
0.0
  0
SPLINE
  5
1e5
100
AcDbEntity
  8
Layer_1
 62
7
100
AcDbSpline
 70
8
 71
3
 72
8
 73
4
 74
0
 40
0
 40
0
 40
0
 40
0
 40
1
 40
1
 40
1
 40
1
 10
59.099352
 20
743.212516
 30
0.0
 10
58.013820
 20
742.328196
 30
0.0
 10
56.975846
 20
741.400524
 30
0.0
 10
56.034472
 20
740.427988
 30
0.0
  0
LINE
  5
1e6
100
AcDbEntity
  8
Layer_1
 62
7
100
AcDbLine
 10
56.034472
 20
740.427988
 30
0.0
 11
56.167844
 21
740.334044
 31
0.0
  0
SPLINE
  5
1e7
100
AcDbEntity
  8
Layer_1
 62
7
100
AcDbSpline
 70
8
 71
3
 72
8
 73
4
 74
0
 40
0
 40
0
 40
0
 40
0
 40
1
 40
1
 40
1
 40
1
 10
56.167844
 20
740.334044
 30
0.0
 10
57.103850
 20
741.301036
 30
0.0
 10
58.137208
 20
742.224436
 30
0.0
 10
59.218881
 20
743.105604
 30
0.0
  0
LINE
  5
1e8
100
AcDbEntity
  8
Layer_1
 62
7
100
AcDbLine
 10
59.218881
 20
743.105604
 30
0.0
 11
59.099352
 21
743.212516
 31
0.0
  0
LINE
  5
1e9
100
AcDbEntity
  8
Layer_1
 62
7
100
AcDbLine
 10
59.099352
 20
743.212516
 30
0.0
 11
59.099352
 21
743.212516
 31
0.0
  0
LINE
  5
1ea
100
AcDbEntity
  8
Layer_1
 62
7
100
AcDbLine
 10
59.101714
 20
743.214532
 30
0.0
 11
59.099954
 21
743.212932
 31
0.0
  0
LINE
  5
1eb
100
AcDbEntity
  8
Layer_1
 62
7
100
AcDbLine
 10
59.099954
 20
743.212932
 30
0.0
 11
59.097794
 21
743.211332
 31
0.0
  0
LINE
  5
1ec
100
AcDbEntity
  8
Layer_1
 62
7
100
AcDbLine
 10
59.097794
 20
743.211332
 30
0.0
 11
59.220027
 21
743.107012
 31
0.0
  0
LINE
  5
1ed
100
AcDbEntity
  8
Layer_1
 62
7
100
AcDbLine
 10
59.220027
 20
743.107012
 30
0.0
 11
59.222187
 21
743.108612
 31
0.0
  0
LINE
  5
1ee
100
AcDbEntity
  8
Layer_1
 62
7
100
AcDbLine
 10
59.222187
 20
743.108612
 30
0.0
 11
59.223947
 21
743.110212
 31
0.0
  0
LINE
  5
1ef
100
AcDbEntity
  8
Layer_1
 62
7
100
AcDbLine
 10
59.223947
 20
743.110212
 30
0.0
 11
59.101719
 21
743.214524
 31
0.0
  0
LINE
  5
1f0
100
AcDbEntity
  8
Layer_1
 62
7
100
AcDbLine
 10
59.101719
 20
743.214524
 30
0.0
 11
59.101714
 21
743.214532
 31
0.0
  0
SPLINE
  5
1f1
100
AcDbEntity
  8
Layer_1
 62
7
100
AcDbSpline
 70
8
 71
3
 72
8
 73
4
 74
0
 40
0
 40
0
 40
0
 40
0
 40
1
 40
1
 40
1
 40
1
 10
56.025017
 20
740.416756
 30
0.0
 10
55.584715
 20
739.915732
 30
0.0
 10
55.155119
 20
739.433780
 30
0.0
 10
54.660219
 20
739.087740
 30
0.0
  0
LINE
  5
1f2
100
AcDbEntity
  8
Layer_1
 62
7
100
AcDbLine
 10
54.660219
 20
739.087740
 30
0.0
 11
54.769620
 21
738.973340
 31
0.0
  0
SPLINE
  5
1f3
100
AcDbEntity
  8
Layer_1
 62
7
100
AcDbSpline
 70
8
 71
3
 72
8
 73
4
 74
0
 40
0
 40
0
 40
0
 40
0
 40
1
 40
1
 40
1
 40
1
 10
54.769620
 20
738.973340
 30
0.0
 10
55.287297
 20
739.335308
 30
0.0
 10
55.722803
 20
739.826868
 30
0.0
 10
56.163455
 20
740.328284
 30
0.0
  0
LINE
  5
1f4
100
AcDbEntity
  8
Layer_1
 62
7
100
AcDbLine
 10
56.163455
 20
740.328284
 30
0.0
 11
56.025017
 21
740.416756
 31
0.0
  0
LINE
  5
1f5
100
AcDbEntity
  8
Layer_1
 62
7
100
AcDbLine
 10
56.025017
 20
740.416756
 30
0.0
 11
56.025017
 21
740.416756
 31
0.0
  0
SPLINE
  5
1f6
100
AcDbEntity
  8
Layer_1
 62
7
100
AcDbSpline
 70
8
 71
3
 72
8
 73
4
 74
0
 40
0
 40
0
 40
0
 40
0
 40
1
 40
1
 40
1
 40
1
 10
54.661908
 20
739.088892
 30
0.0
 10
54.280089
 20
738.836252
 30
0.0
 10
53.806540
 20
738.712332
 30
0.0
 10
53.276854
 20
738.441108
 30
0.0
  0
LINE
  5
1f7
100
AcDbEntity
  8
Layer_1
 62
7
100
AcDbLine
 10
53.276854
 20
738.441108
 30
0.0
 11
53.365998
 21
738.314604
 31
0.0
  0
SPLINE
  5
1f8
100
AcDbEntity
  8
Layer_1
 62
7
100
AcDbSpline
 70
8
 71
3
 72
8
 73
4
 74
0
 40
0
 40
0
 40
0
 40
0
 40
1
 40
1
 40
1
 40
1
 10
53.365998
 20
738.314604
 30
0.0
 10
53.875948
 20
738.575724
 30
0.0
 10
54.354002
 20
738.698300
 30
0.0
 10
54.767931
 20
738.972188
 30
0.0
  0
LINE
  5
1f9
100
AcDbEntity
  8
Layer_1
 62
7
100
AcDbLine
 10
54.767931
 20
738.972188
 30
0.0
 11
54.661908
 21
739.088892
 31
0.0
  0
LINE
  5
1fa
100
AcDbEntity
  8
Layer_1
 62
7
100
AcDbLine
 10
54.661908
 20
739.088892
 30
0.0
 11
54.661908
 21
739.088892
 31
0.0
  0
LINE
  5
1fb
100
AcDbEntity
  8
Layer_1
 62
7
100
AcDbLine
 10
56.187427
 20
740.615004
 30
0.0
 11
56.033457
 21
740.427124
 31
0.0
  0
LINE
  5
1fc
100
AcDbEntity
  8
Layer_1
 62
7
100
AcDbLine
 10
56.033457
 20
740.427124
 30
0.0
 11
56.031697
 21
740.425524
 31
0.0
  0
LINE
  5
1fd
100
AcDbEntity
  8
Layer_1
 62
7
100
AcDbLine
 10
56.031697
 20
740.425524
 30
0.0
 11
56.025937
 21
740.419124
 31
0.0
  0
LINE
  5
1fe
100
AcDbEntity
  8
Layer_1
 62
7
100
AcDbLine
 10
56.025937
 20
740.419124
 30
0.0
 11
56.023297
 21
740.415124
 31
0.0
  0
LINE
  5
1ff
100
AcDbEntity
  8
Layer_1
 62
7
100
AcDbLine
 10
56.023297
 20
740.415124
 30
0.0
 11
56.019777
 21
740.411124
 31
0.0
  0
LINE
  5
200
100
AcDbEntity
  8
Layer_1
 62
7
100
AcDbLine
 10
56.019777
 20
740.411124
 30
0.0
 11
56.025137
 21
740.407924
 31
0.0
  0
LINE
  5
201
100
AcDbEntity
  8
Layer_1
 62
7
100
AcDbLine
 10
56.025137
 20
740.407924
 30
0.0
 11
56.027297
 21
740.412724
 31
0.0
  0
LINE
  5
202
100
AcDbEntity
  8
Layer_1
 62
7
100
AcDbLine
 10
56.027297
 20
740.412724
 30
0.0
 11
56.150536
 21
740.344404
 31
0.0
  0
LINE
  5
203
100
AcDbEntity
  8
Layer_1
 62
7
100
AcDbLine
 10
56.150536
 20
740.344404
 30
0.0
 11
56.129272
 21
740.350004
 31
0.0
  0
LINE
  5
204
100
AcDbEntity
  8
Layer_1
 62
7
100
AcDbLine
 10
56.129272
 20
740.350004
 30
0.0
 11
56.165064
 21
740.330084
 31
0.0
  0
LINE
  5
205
100
AcDbEntity
  8
Layer_1
 62
7
100
AcDbLine
 10
56.165064
 20
740.330084
 30
0.0
 11
56.171464
 21
740.338084
 31
0.0
  0
LINE
  5
206
100
AcDbEntity
  8
Layer_1
 62
7
100
AcDbLine
 10
56.171464
 20
740.338084
 30
0.0
 11
56.171810
 21
740.338844
 31
0.0
  0
LINE
  5
207
100
AcDbEntity
  8
Layer_1
 62
7
100
AcDbLine
 10
56.171810
 20
740.338844
 30
0.0
 11
56.187338
 21
740.355244
 31
0.0
  0
LINE
  5
208
100
AcDbEntity
  8
Layer_1
 62
7
100
AcDbLine
 10
56.187338
 20
740.355244
 30
0.0
 11
56.187338
 21
740.381164
 31
0.0
  0
LINE
  5
209
100
AcDbEntity
  8
Layer_1
 62
7
100
AcDbLine
 10
56.187338
 20
740.381164
 30
0.0
 11
56.187338
 21
740.615156
 31
0.0
  0
LINE
  5
20a
100
AcDbEntity
  8
Layer_1
 62
7
100
AcDbLine
 10
56.187338
 20
740.615156
 30
0.0
 11
56.187427
 21
740.615004
 31
0.0
  0
SPLINE
  5
20b
100
AcDbEntity
  8
Layer_1
 62
7
100
AcDbSpline
 70
8
 71
3
 72
8
 73
4
 74
0
 40
0
 40
0
 40
0
 40
0
 40
1
 40
1
 40
1
 40
1
 10
53.269088
 20
738.436780
 30
0.0
 10
52.622126
 20
738.085412
 30
0.0
 10
52.230701
 20
737.446644
 30
0.0
 10
51.921176
 20
736.799724
 30
0.0
  0
LINE
  5
20c
100
AcDbEntity
  8
Layer_1
 62
7
100
AcDbLine
 10
51.921176
 20
736.799724
 30
0.0
 11
52.081223
 21
736.744124
 31
0.0
  0
SPLINE
  5
20d
100
AcDbEntity
  8
Layer_1
 62
7
100
AcDbSpline
 70
8
 71
3
 72
8
 73
4
 74
0
 40
0
 40
0
 40
0
 40
0
 40
1
 40
1
 40
1
 40
1
 10
52.081223
 20
736.744124
 30
0.0
 10
52.386358
 20
737.381868
 30
0.0
 10
52.769074
 20
737.990324
 30
0.0
 10
53.361946
 20
738.312308
 30
0.0
  0
LINE
  5
20e
100
AcDbEntity
  8
Layer_1
 62
7
100
AcDbLine
 10
53.361946
 20
738.312308
 30
0.0
 11
53.269088
 21
738.436796
 31
0.0
  0
LINE
  5
20f
100
AcDbEntity
  8
Layer_1
 62
7
100
AcDbLine
 10
53.269088
 20
738.436796
 30
0.0
 11
53.269088
 21
738.436780
 31
0.0
  0
SPLINE
  5
210
100
AcDbEntity
  8
Layer_1
 62
7
100
AcDbSpline
 70
8
 71
3
 72
8
 73
4
 74
0
 40
0
 40
0
 40
0
 40
0
 40
1
 40
1
 40
1
 40
1
 10
51.921176
 20
736.799724
 30
0.0
 10
51.611354
 20
736.152196
 30
0.0
 10
51.387708
 20
735.474652
 30
0.0
 10
51.180702
 20
735.042796
 30
0.0
  0
LINE
  5
211
100
AcDbEntity
  8
Layer_1
 62
7
100
AcDbLine
 10
51.180702
 20
735.042796
 30
0.0
 11
51.340413
 21
734.986876
 31
0.0
  0
SPLINE
  5
212
100
AcDbEntity
  8
Layer_1
 62
7
100
AcDbSpline
 70
8
 71
3
 72
8
 73
4
 74
0
 40
0
 40
0
 40
0
 40
0
 40
1
 40
1
 40
1
 40
1
 10
51.340413
 20
734.986876
 30
0.0
 10
51.554738
 20
735.434004
 30
0.0
 10
51.776376
 20
736.106964
 30
0.0
 10
52.081223
 20
736.744092
 30
0.0
  0
LINE
  5
213
100
AcDbEntity
  8
Layer_1
 62
7
100
AcDbLine
 10
52.081223
 20
736.744092
 30
0.0
 11
51.921176
 21
736.799692
 31
0.0
  0
LINE
  5
214
100
AcDbEntity
  8
Layer_1
 62
7
100
AcDbLine
 10
51.921176
 20
736.799692
 30
0.0
 11
51.921176
 21
736.799724
 31
0.0
  0
LINE
  5
215
100
AcDbEntity
  8
Layer_1
 62
7
100
AcDbLine
 10
53.407863
 20
738.515740
 30
0.0
 11
53.273481
 21
738.439340
 31
0.0
  0
LINE
  5
216
100
AcDbEntity
  8
Layer_1
 62
7
100
AcDbLine
 10
53.273481
 20
738.439340
 30
0.0
 11
53.270441
 21
738.437740
 31
0.0
  0
LINE
  5
217
100
AcDbEntity
  8
Layer_1
 62
7
100
AcDbLine
 10
53.270441
 20
738.437740
 30
0.0
 11
53.267801
 21
738.436140
 31
0.0
  0
LINE
  5
218
100
AcDbEntity
  8
Layer_1
 62
7
100
AcDbLine
 10
53.267801
 20
738.436140
 30
0.0
 11
53.267455
 21
738.436140
 31
0.0
  0
LINE
  5
219
100
AcDbEntity
  8
Layer_1
 62
7
100
AcDbLine
 10
53.267455
 20
738.436140
 30
0.0
 11
53.269615
 21
738.432940
 31
0.0
  0
LINE
  5
21a
100
AcDbEntity
  8
Layer_1
 62
7
100
AcDbLine
 10
53.269615
 20
738.432940
 30
0.0
 11
53.269961
 21
738.433236
 31
0.0
  0
LINE
  5
21b
100
AcDbEntity
  8
Layer_1
 62
7
100
AcDbLine
 10
53.269961
 20
738.433236
 30
0.0
 11
53.356063
 21
738.322868
 31
0.0
  0
LINE
  5
21c
100
AcDbEntity
  8
Layer_1
 62
7
100
AcDbLine
 10
53.356063
 20
738.322868
 30
0.0
 11
53.363503
 21
738.313108
 31
0.0
  0
LINE
  5
21d
100
AcDbEntity
  8
Layer_1
 62
7
100
AcDbLine
 10
53.363503
 20
738.313108
 30
0.0
 11
53.363849
 21
738.313108
 31
0.0
  0
LINE
  5
21e
100
AcDbEntity
  8
Layer_1
 62
7
100
AcDbLine
 10
53.363849
 20
738.313108
 30
0.0
 11
53.366489
 21
738.314708
 31
0.0
  0
LINE
  5
21f
100
AcDbEntity
  8
Layer_1
 62
7
100
AcDbLine
 10
53.366489
 20
738.314708
 30
0.0
 11
53.368649
 21
738.316308
 31
0.0
  0
LINE
  5
220
100
AcDbEntity
  8
Layer_1
 62
7
100
AcDbLine
 10
53.368649
 20
738.316308
 30
0.0
 11
53.369529
 21
738.316604
 31
0.0
  0
LINE
  5
221
100
AcDbEntity
  8
Layer_1
 62
7
100
AcDbLine
 10
53.369529
 20
738.316604
 30
0.0
 11
53.408033
 21
738.338204
 31
0.0
  0
LINE
  5
222
100
AcDbEntity
  8
Layer_1
 62
7
100
AcDbLine
 10
53.408033
 20
738.338204
 30
0.0
 11
53.408033
 21
738.377964
 31
0.0
  0
LINE
  5
223
100
AcDbEntity
  8
Layer_1
 62
7
100
AcDbLine
 10
53.408033
 20
738.377964
 30
0.0
 11
53.408033
 21
738.515708
 31
0.0
  0
LINE
  5
224
100
AcDbEntity
  8
Layer_1
 62
7
100
AcDbLine
 10
53.408033
 20
738.515708
 30
0.0
 11
53.407863
 21
738.515740
 31
0.0
  0
SPLINE
  5
225
100
AcDbEntity
  8
Layer_1
 62
7
100
AcDbSpline
 70
8
 71
3
 72
8
 73
4
 74
0
 40
0
 40
0
 40
0
 40
0
 40
1
 40
1
 40
1
 40
1
 10
51.179352
 20
735.040484
 30
0.0
 10
50.900680
 20
734.445916
 30
0.0
 10
50.446031
 20
733.805108
 30
0.0
 10
50.282544
 20
733.070604
 30
0.0
  0
LINE
  5
226
100
AcDbEntity
  8
Layer_1
 62
7
100
AcDbLine
 10
50.282544
 20
733.070604
 30
0.0
 11
50.452383
 21
733.043244
 31
0.0
  0
SPLINE
  5
227
100
AcDbEntity
  8
Layer_1
 62
7
100
AcDbSpline
 70
8
 71
3
 72
8
 73
4
 74
0
 40
0
 40
0
 40
0
 40
0
 40
1
 40
1
 40
1
 40
1
 10
50.452383
 20
733.043244
 30
0.0
 10
50.608261
 20
733.743564
 30
0.0
 10
51.053144
 20
734.374292
 30
0.0
 10
51.339737
 20
734.985756
 30
0.0
  0
LINE
  5
228
100
AcDbEntity
  8
Layer_1
 62
7
100
AcDbLine
 10
51.339737
 20
734.985756
 30
0.0
 11
51.179352
 21
735.040476
 31
0.0
  0
LINE
  5
229
100
AcDbEntity
  8
Layer_1
 62
7
100
AcDbLine
 10
51.179352
 20
735.040476
 30
0.0
 11
51.179352
 21
735.040484
 31
0.0
  0
SPLINE
  5
22a
100
AcDbEntity
  8
Layer_1
 62
7
100
AcDbSpline
 70
8
 71
3
 72
8
 73
4
 74
0
 40
0
 40
0
 40
0
 40
0
 40
1
 40
1
 40
1
 40
1
 10
50.283894
 20
733.075500
 30
0.0
 10
50.067710
 20
732.372988
 30
0.0
 10
50.227662
 20
731.710004
 30
0.0
 10
50.274438
 20
731.111092
 30
0.0
  0
LINE
  5
22b
100
AcDbEntity
  8
Layer_1
 62
7
100
AcDbLine
 10
50.274438
 20
731.111092
 30
0.0
 11
50.446980
 21
731.120852
 31
0.0
  0
SPLINE
  5
22c
100
AcDbEntity
  8
Layer_1
 62
7
100
AcDbSpline
 70
8
 71
3
 72
8
 73
4
 74
0
 40
0
 40
0
 40
0
 40
0
 40
1
 40
1
 40
1
 40
1
 10
50.446980
 20
731.120852
 30
0.0
 10
50.399076
 20
731.734228
 30
0.0
 10
50.247058
 20
732.375172
 30
0.0
 10
50.450980
 20
733.038004
 30
0.0
  0
LINE
  5
22d
100
AcDbEntity
  8
Layer_1
 62
7
100
AcDbLine
 10
50.450980
 20
733.038004
 30
0.0
 11
50.283841
 21
733.075444
 31
0.0
  0
LINE
  5
22e
100
AcDbEntity
  8
Layer_1
 62
7
100
AcDbLine
 10
50.283841
 20
733.075444
 30
0.0
 11
50.283894
 21
733.075500
 31
0.0
  0
LINE
  5
22f
100
AcDbEntity
  8
Layer_1
 62
7
100
AcDbLine
 10
50.446981
 20
731.120596
 30
0.0
 11
50.274439
 21
731.111396
 31
0.0
  0
SPLINE
  5
230
100
AcDbEntity
  8
Layer_1
 62
7
100
AcDbSpline
 70
8
 71
3
 72
8
 73
4
 74
0
 40
0
 40
0
 40
0
 40
0
 40
1
 40
1
 40
1
 40
1
 10
50.274439
 20
731.111396
 30
0.0
 10
50.368786
 20
729.821012
 30
0.0
 10
50.082745
 20
728.422308
 30
0.0
 10
49.742298
 20
727.135604
 30
0.0
  0
LINE
  5
231
100
AcDbEntity
  8
Layer_1
 62
7
100
AcDbLine
 10
49.742298
 20
727.135604
 30
0.0
 11
49.911125
 21
727.103044
 31
0.0
  0
SPLINE
  5
232
100
AcDbEntity
  8
Layer_1
 62
7
100
AcDbSpline
 70
8
 71
3
 72
8
 73
4
 74
0
 40
0
 40
0
 40
0
 40
0
 40
1
 40
1
 40
1
 40
1
 10
49.911125
 20
727.103044
 30
0.0
 10
50.252906
 20
728.394788
 30
0.0
 10
50.543157
 20
729.805188
 30
0.0
 10
50.446981
 20
731.120612
 30
0.0
  0
LINE
  5
233
100
AcDbEntity
  8
Layer_1
 62
7
100
AcDbLine
 10
50.446981
 20
731.120612
 30
0.0
 11
50.446981
 21
731.120596
 31
0.0
  0
LINE
  5
234
100
AcDbEntity
  8
Layer_1
 62
7
100
AcDbLine
 10
51.346828
 20
735.192924
 30
0.0
 11
51.199272
 21
735.066996
 31
0.0
  0
LINE
  5
235
100
AcDbEntity
  8
Layer_1
 62
7
100
AcDbLine
 10
51.199272
 20
735.066996
 30
0.0
 11
51.172936
 21
735.044516
 31
0.0
  0
LINE
  5
236
100
AcDbEntity
  8
Layer_1
 62
7
100
AcDbLine
 10
51.172936
 20
735.044516
 30
0.0
 11
51.172936
 21
735.013076
 31
0.0
  0
LINE
  5
237
100
AcDbEntity
  8
Layer_1
 62
7
100
AcDbLine
 10
51.172936
 20
735.013076
 30
0.0
 11
51.187784
 21
735.009876
 31
0.0
  0
LINE
  5
238
100
AcDbEntity
  8
Layer_1
 62
7
100
AcDbLine
 10
51.187784
 20
735.009876
 30
0.0
 11
51.173936
 21
735.014676
 31
0.0
  0
LINE
  5
239
100
AcDbEntity
  8
Layer_1
 62
7
100
AcDbLine
 10
51.173936
 20
735.014676
 30
0.0
 11
51.173936
 21
735.033076
 31
0.0
  0
LINE
  5
23a
100
AcDbEntity
  8
Layer_1
 62
7
100
AcDbLine
 10
51.173936
 20
735.033076
 30
0.0
 11
51.183048
 21
735.047476
 31
0.0
  0
LINE
  5
23b
100
AcDbEntity
  8
Layer_1
 62
7
100
AcDbLine
 10
51.183048
 20
735.047476
 30
0.0
 11
51.345798
 21
735.012916
 31
0.0
  0
LINE
  5
23c
100
AcDbEntity
  8
Layer_1
 62
7
100
AcDbLine
 10
51.345798
 20
735.012916
 30
0.0
 11
51.345798
 21
734.994436
 31
0.0
  0
LINE
  5
23d
100
AcDbEntity
  8
Layer_1
 62
7
100
AcDbLine
 10
51.345798
 20
734.994436
 30
0.0
 11
51.346838
 21
734.996036
 31
0.0
  0
LINE
  5
23e
100
AcDbEntity
  8
Layer_1
 62
7
100
AcDbLine
 10
51.346838
 20
734.996036
 30
0.0
 11
51.346838
 21
735.192564
 31
0.0
  0
LINE
  5
23f
100
AcDbEntity
  8
Layer_1
 62
7
100
AcDbLine
 10
51.346838
 20
735.192564
 30
0.0
 11
51.346828
 21
735.192924
 31
0.0
  0
SPLINE
  5
240
100
AcDbEntity
  8
Layer_1
 62
7
100
AcDbSpline
 70
8
 71
3
 72
8
 73
4
 74
0
 40
0
 40
0
 40
0
 40
0
 40
1
 40
1
 40
1
 40
1
 10
49.740946
 20
727.126652
 30
0.0
 10
49.471510
 20
725.938604
 30
0.0
 10
48.406284
 20
725.054604
 30
0.0
 10
47.458072
 20
724.075004
 30
0.0
  0
LINE
  5
241
100
AcDbEntity
  8
Layer_1
 62
7
100
AcDbLine
 10
47.458072
 20
724.075004
 30
0.0
 11
47.591445
 21
723.981060
 31
0.0
  0
SPLINE
  5
242
100
AcDbEntity
  8
Layer_1
 62
7
100
AcDbSpline
 70
8
 71
3
 72
8
 73
4
 74
0
 40
0
 40
0
 40
0
 40
0
 40
1
 40
1
 40
1
 40
1
 10
47.591445
 20
723.981060
 30
0.0
 10
48.531365
 20
724.952092
 30
0.0
 10
49.628003
 20
725.853004
 30
0.0
 10
49.910449
 20
727.098412
 30
0.0
  0
LINE
  5
243
100
AcDbEntity
  8
Layer_1
 62
7
100
AcDbLine
 10
49.910449
 20
727.098412
 30
0.0
 11
49.740946
 21
727.126652
 31
0.0
  0
LINE
  5
244
100
AcDbEntity
  8
Layer_1
 62
7
100
AcDbLine
 10
49.740946
 20
727.126652
 30
0.0
 11
49.740946
 21
727.126652
 31
0.0
  0
LINE
  5
245
100
AcDbEntity
  8
Layer_1
 62
7
100
AcDbLine
 10
49.743311
 20
727.138180
 30
0.0
 11
49.739311
 21
727.125460
 31
0.0
  0
LINE
  5
246
100
AcDbEntity
  8
Layer_1
 62
7
100
AcDbLine
 10
49.739311
 20
727.125460
 30
0.0
 11
49.739311
 21
727.112500
 31
0.0
  0
LINE
  5
247
100
AcDbEntity
  8
Layer_1
 62
7
100
AcDbLine
 10
49.739311
 20
727.112500
 30
0.0
 11
49.887203
 21
727.104420
 31
0.0
  0
LINE
  5
248
100
AcDbEntity
  8
Layer_1
 62
7
100
AcDbLine
 10
49.887203
 20
727.104420
 30
0.0
 11
49.801101
 21
727.118900
 31
0.0
  0
LINE
  5
249
100
AcDbEntity
  8
Layer_1
 62
7
100
AcDbLine
 10
49.801101
 20
727.118900
 30
0.0
 11
49.886866
 21
727.114100
 31
0.0
  0
LINE
  5
24a
100
AcDbEntity
  8
Layer_1
 62
7
100
AcDbLine
 10
49.886866
 20
727.114100
 30
0.0
 11
49.743363
 21
727.138340
 31
0.0
  0
LINE
  5
24b
100
AcDbEntity
  8
Layer_1
 62
7
100
AcDbLine
 10
49.743363
 20
727.138340
 30
0.0
 11
49.743311
 21
727.138180
 31
0.0
  0
LINE
  5
24c
100
AcDbEntity
  8
Layer_1
 62
7
100
AcDbLine
 10
49.912138
 20
727.109620
 30
0.0
 11
49.912138
 21
727.107220
 31
0.0
  0
LINE
  5
24d
100
AcDbEntity
  8
Layer_1
 62
7
100
AcDbLine
 10
49.912138
 20
727.107220
 30
0.0
 11
49.912483
 21
727.109620
 31
0.0
  0
LINE
  5
24e
100
AcDbEntity
  8
Layer_1
 62
7
100
AcDbLine
 10
49.912483
 20
727.109620
 30
0.0
 11
49.912138
 21
727.109620
 31
0.0
  0
LINE
  5
24f
100
AcDbEntity
  8
Layer_1
 62
7
100
AcDbLine
 10
49.912138
 20
727.109620
 30
0.0
 11
49.912138
 21
727.109620
 31
0.0
  0
LINE
  5
250
100
AcDbEntity
  8
Layer_1
 62
7
100
AcDbLine
 10
49.911792
 20
727.104820
 30
0.0
 11
49.911092
 21
727.103220
 31
0.0
  0
LINE
  5
251
100
AcDbEntity
  8
Layer_1
 62
7
100
AcDbLine
 10
49.911092
 20
727.103220
 30
0.0
 11
49.911438
 21
727.103220
 31
0.0
  0
LINE
  5
252
100
AcDbEntity
  8
Layer_1
 62
7
100
AcDbLine
 10
49.911438
 20
727.103220
 30
0.0
 11
49.911784
 21
727.104820
 31
0.0
  0
LINE
  5
253
100
AcDbEntity
  8
Layer_1
 62
7
100
AcDbLine
 10
49.911784
 20
727.104820
 30
0.0
 11
49.911792
 21
727.104820
 31
0.0
  0
SPLINE
  5
254
100
AcDbEntity
  8
Layer_1
 62
7
100
AcDbSpline
 70
8
 71
3
 72
8
 73
4
 74
0
 40
0
 40
0
 40
0
 40
0
 40
1
 40
1
 40
1
 40
1
 10
47.454020
 20
724.069812
 30
0.0
 10
46.528509
 20
723.072092
 30
0.0
 10
45.614747
 20
722.171436
 30
0.0
 10
44.469501
 20
721.397676
 30
0.0
  0
LINE
  5
255
100
AcDbEntity
  8
Layer_1
 62
7
100
AcDbLine
 10
44.469501
 20
721.397676
 30
0.0
 11
44.576874
 21
721.282124
 31
0.0
  0
SPLINE
  5
256
100
AcDbEntity
  8
Layer_1
 62
7
100
AcDbSpline
 70
8
 71
3
 72
8
 73
4
 74
0
 40
0
 40
0
 40
0
 40
0
 40
1
 40
1
 40
1
 40
1
 10
44.576874
 20
721.282124
 30
0.0
 10
45.738212
 20
722.066756
 30
0.0
 10
46.661304
 20
722.977292
 30
0.0
 10
47.589758
 20
723.978180
 30
0.0
  0
LINE
  5
257
100
AcDbEntity
  8
Layer_1
 62
7
100
AcDbLine
 10
47.589758
 20
723.978180
 30
0.0
 11
47.454020
 21
724.069812
 31
0.0
  0
LINE
  5
258
100
AcDbEntity
  8
Layer_1
 62
7
100
AcDbLine
 10
47.454020
 20
724.069812
 30
0.0
 11
47.454020
 21
724.069812
 31
0.0
  0
SPLINE
  5
259
100
AcDbEntity
  8
Layer_1
 62
7
100
AcDbSpline
 70
8
 71
3
 72
8
 73
4
 74
0
 40
0
 40
0
 40
0
 40
0
 40
1
 40
1
 40
1
 40
1
 10
44.470851
 20
721.398540
 30
0.0
 10
43.245867
 20
720.603988
 30
0.0
 10
41.981909
 20
719.775820
 30
0.0
 10
40.684066
 20
719.119460
 30
0.0
  0
LINE
  5
25a
100
AcDbEntity
  8
Layer_1
 62
7
100
AcDbLine
 10
40.684066
 20
719.119460
 30
0.0
 11
40.772194
 21
718.992372
 31
0.0
  0
SPLINE
  5
25b
100
AcDbEntity
  8
Layer_1
 62
7
100
AcDbSpline
 70
8
 71
3
 72
8
 73
4
 74
0
 40
0
 40
0
 40
0
 40
0
 40
1
 40
1
 40
1
 40
1
 10
40.772194
 20
718.992372
 30
0.0
 10
42.082539
 20
719.655068
 30
0.0
 10
43.351024
 20
720.486732
 30
0.0
 10
44.575524
 20
721.280972
 30
0.0
  0
LINE
  5
25c
100
AcDbEntity
  8
Layer_1
 62
7
100
AcDbLine
 10
44.575524
 20
721.280972
 30
0.0
 11
44.470851
 21
721.398540
 31
0.0
  0
LINE
  5
25d
100
AcDbEntity
  8
Layer_1
 62
7
100
AcDbLine
 10
44.470851
 20
721.398540
 30
0.0
 11
44.470851
 21
721.398540
 31
0.0
  0
LINE
  5
25e
100
AcDbEntity
  8
Layer_1
 62
7
100
AcDbLine
 10
47.475967
 20
724.101804
 30
0.0
 11
47.455711
 21
724.073564
 31
0.0
  0
LINE
  5
25f
100
AcDbEntity
  8
Layer_1
 62
7
100
AcDbLine
 10
47.455711
 20
724.073564
 30
0.0
 11
47.447951
 21
724.067164
 31
0.0
  0
LINE
  5
260
100
AcDbEntity
  8
Layer_1
 62
7
100
AcDbLine
 10
47.447951
 20
724.067164
 30
0.0
 11
47.440191
 21
724.048684
 31
0.0
  0
LINE
  5
261
100
AcDbEntity
  8
Layer_1
 62
7
100
AcDbLine
 10
47.440191
 20
724.048684
 30
0.0
 11
47.488815
 21
724.029084
 31
0.0
  0
LINE
  5
262
100
AcDbEntity
  8
Layer_1
 62
7
100
AcDbLine
 10
47.488815
 20
724.029084
 30
0.0
 11
47.478679
 21
724.049804
 31
0.0
  0
LINE
  5
263
100
AcDbEntity
  8
Layer_1
 62
7
100
AcDbLine
 10
47.478679
 20
724.049804
 30
0.0
 11
47.603273
 21
723.999644
 31
0.0
  0
LINE
  5
264
100
AcDbEntity
  8
Layer_1
 62
7
100
AcDbLine
 10
47.603273
 20
723.999644
 30
0.0
 11
47.597913
 21
723.986364
 31
0.0
  0
LINE
  5
265
100
AcDbEntity
  8
Layer_1
 62
7
100
AcDbLine
 10
47.597913
 20
723.986364
 30
0.0
 11
47.733650
 21
724.101924
 31
0.0
  0
LINE
  5
266
100
AcDbEntity
  8
Layer_1
 62
7
100
AcDbLine
 10
47.733650
 20
724.101924
 30
0.0
 11
47.524980
 21
724.101924
 31
0.0
  0
LINE
  5
267
100
AcDbEntity
  8
Layer_1
 62
7
100
AcDbLine
 10
47.524980
 20
724.101924
 30
0.0
 11
47.476020
 21
724.101924
 31
0.0
  0
LINE
  5
268
100
AcDbEntity
  8
Layer_1
 62
7
100
AcDbLine
 10
47.476020
 20
724.101924
 30
0.0
 11
47.475967
 21
724.101804
 31
0.0
  0
SPLINE
  5
269
100
AcDbEntity
  8
Layer_1
 62
7
100
AcDbSpline
 70
8
 71
3
 72
8
 73
4
 74
0
 40
0
 40
0
 40
0
 40
0
 40
1
 40
1
 40
1
 40
1
 10
40.682715
 20
719.118300
 30
0.0
 10
38.012823
 20
717.751156
 30
0.0
 10
35.074219
 20
716.664716
 30
0.0
 10
32.308571
 20
715.315988
 30
0.0
  0
LINE
  5
26a
100
AcDbEntity
  8
Layer_1
 62
7
100
AcDbLine
 10
32.308571
 20
715.315988
 30
0.0
 11
32.394334
 21
715.187756
 31
0.0
  0
SPLINE
  5
26b
100
AcDbEntity
  8
Layer_1
 62
7
100
AcDbSpline
 70
8
 71
3
 72
8
 73
4
 74
0
 40
0
 40
0
 40
0
 40
0
 40
1
 40
1
 40
1
 40
1
 10
32.394334
 20
715.187756
 30
0.0
 10
35.148880
 20
716.531068
 30
0.0
 10
38.088316
 20
717.617844
 30
0.0
 10
40.771518
 20
718.991796
 30
0.0
  0
LINE
  5
26c
100
AcDbEntity
  8
Layer_1
 62
7
100
AcDbLine
 10
40.771518
 20
718.991796
 30
0.0
 11
40.682715
 21
719.118300
 31
0.0
  0
LINE
  5
26d
100
AcDbEntity
  8
Layer_1
 62
7
100
AcDbLine
 10
40.682715
 20
719.118300
 30
0.0
 11
40.682715
 21
719.118300
 31
0.0
  0
SPLINE
  5
26e
100
AcDbEntity
  8
Layer_1
 62
7
100
AcDbSpline
 70
8
 71
3
 72
8
 73
4
 74
0
 40
0
 40
0
 40
0
 40
0
 40
1
 40
1
 40
1
 40
1
 10
32.309245
 20
715.316268
 30
0.0
 10
29.683498
 20
714.071532
 30
0.0
 10
26.828080
 20
713.022828
 30
0.0
 10
24.337584
 20
711.449980
 30
0.0
  0
LINE
  5
26f
100
AcDbEntity
  8
Layer_1
 62
7
100
AcDbLine
 10
24.337584
 20
711.449980
 30
0.0
 11
24.440568
 21
711.331260
 31
0.0
  0
SPLINE
  5
270
100
AcDbEntity
  8
Layer_1
 62
7
100
AcDbSpline
 70
8
 71
3
 72
8
 73
4
 74
0
 40
0
 40
0
 40
0
 40
0
 40
1
 40
1
 40
1
 40
1
 10
24.440568
 20
711.331260
 30
0.0
 10
26.909766
 20
712.890652
 30
0.0
 10
29.757152
 20
713.937780
 30
0.0
 10
32.393321
 20
715.187460
 30
0.0
  0
LINE
  5
271
100
AcDbEntity
  8
Layer_1
 62
7
100
AcDbLine
 10
32.393321
 20
715.187460
 30
0.0
 11
32.309245
 21
715.316268
 31
0.0
  0
LINE
  5
272
100
AcDbEntity
  8
Layer_1
 62
7
100
AcDbLine
 10
32.309245
 20
715.316268
 30
0.0
 11
32.309245
 21
715.316268
 31
0.0
  0
SPLINE
  5
273
100
AcDbEntity
  8
Layer_1
 62
7
100
AcDbSpline
 70
8
 71
3
 72
8
 73
4
 74
0
 40
0
 40
0
 40
0
 40
0
 40
1
 40
1
 40
1
 40
1
 10
24.338597
 20
711.450556
 30
0.0
 10
23.088648
 20
710.682236
 30
0.0
 10
21.939519
 20
709.744860
 30
0.0
 10
21.034994
 20
708.715604
 30
0.0
  0
LINE
  5
274
100
AcDbEntity
  8
Layer_1
 62
7
100
AcDbLine
 10
21.034994
 20
708.715604
 30
0.0
 11
21.173432
 21
708.627132
 31
0.0
  0
SPLINE
  5
275
100
AcDbEntity
  8
Layer_1
 62
7
100
AcDbSpline
 70
8
 71
3
 72
8
 73
4
 74
0
 40
0
 40
0
 40
0
 40
0
 40
1
 40
1
 40
1
 40
1
 10
21.173432
 20
708.627132
 30
0.0
 10
22.066007
 20
709.642796
 30
0.0
 10
23.202952
 20
710.570564
 30
0.0
 10
24.439555
 20
711.330684
 30
0.0
  0
LINE
  5
276
100
AcDbEntity
  8
Layer_1
 62
7
100
AcDbLine
 10
24.439555
 20
711.330684
 30
0.0
 11
24.338597
 21
711.450556
 31
0.0
  0
LINE
  5
277
100
AcDbEntity
  8
Layer_1
 62
7
100
AcDbLine
 10
24.338597
 20
711.450556
 30
0.0
 11
24.338597
 21
711.450556
 31
0.0
  0
LINE
  5
278
100
AcDbEntity
  8
Layer_1
 62
7
100
AcDbLine
 10
40.667184
 20
719.108212
 30
0.0
 11
40.666144
 21
719.107452
 31
0.0
  0
LINE
  5
279
100
AcDbEntity
  8
Layer_1
 62
7
100
AcDbLine
 10
40.666144
 20
719.107452
 30
0.0
 11
40.788374
 21
719.003140
 31
0.0
  0
LINE
  5
27a
100
AcDbEntity
  8
Layer_1
 62
7
100
AcDbLine
 10
40.788374
 20
719.003140
 30
0.0
 11
40.789414
 21
719.003900
 31
0.0
  0
LINE
  5
27b
100
AcDbEntity
  8
Layer_1
 62
7
100
AcDbLine
 10
40.789414
 20
719.003900
 30
0.0
 11
40.667184
 21
719.108212
 31
0.0
  0
LINE
  5
27c
100
AcDbEntity
  8
Layer_1
 62
7
100
AcDbLine
 10
40.667184
 20
719.108212
 30
0.0
 11
40.667184
 21
719.108212
 31
0.0
  0
SPLINE
  5
27d
100
AcDbEntity
  8
Layer_1
 62
7
100
AcDbSpline
 70
8
 71
3
 72
8
 73
4
 74
0
 40
0
 40
0
 40
0
 40
0
 40
1
 40
1
 40
1
 40
1
 10
21.032293
 20
708.712428
 30
0.0
 10
20.263550
 20
707.810340
 30
0.0
 10
19.129866
 20
706.739132
 30
0.0
 10
18.913854
 20
705.448692
 30
0.0
  0
LINE
  5
27e
100
AcDbEntity
  8
Layer_1
 62
7
100
AcDbLine
 10
18.913854
 20
705.448692
 30
0.0
 11
19.085045
 21
705.427972
 31
0.0
  0
SPLINE
  5
27f
100
AcDbEntity
  8
Layer_1
 62
7
100
AcDbSpline
 70
8
 71
3
 72
8
 73
4
 74
0
 40
0
 40
0
 40
0
 40
0
 40
1
 40
1
 40
1
 40
1
 10
19.085045
 20
705.427972
 30
0.0
 10
19.290878
 20
706.657612
 30
0.0
 10
20.394473
 20
707.712940
 30
0.0
 10
21.172082
 20
708.625436
 30
0.0
  0
LINE
  5
280
100
AcDbEntity
  8
Layer_1
 62
7
100
AcDbLine
 10
21.172082
 20
708.625436
 30
0.0
 11
21.032293
 21
708.712460
 31
0.0
  0
LINE
  5
281
100
AcDbEntity
  8
Layer_1
 62
7
100
AcDbLine
 10
21.032293
 20
708.712460
 30
0.0
 11
21.032293
 21
708.712428
 31
0.0
  0
LINE
  5
282
100
AcDbEntity
  8
Layer_1
 62
7
100
AcDbLine
 10
21.088006
 20
708.686788
 30
0.0
 11
21.142366
 21
708.649588
 31
0.0
  0
LINE
  5
283
100
AcDbEntity
  8
Layer_1
 62
7
100
AcDbLine
 10
21.142366
 20
708.649588
 30
0.0
 11
21.100830
 21
708.661988
 31
0.0
  0
LINE
  5
284
100
AcDbEntity
  8
Layer_1
 62
7
100
AcDbLine
 10
21.100830
 20
708.661988
 30
0.0
 11
21.164982
 21
708.618148
 31
0.0
  0
LINE
  5
285
100
AcDbEntity
  8
Layer_1
 62
7
100
AcDbLine
 10
21.164982
 20
708.618148
 30
0.0
 11
21.174438
 21
708.626788
 31
0.0
  0
LINE
  5
286
100
AcDbEntity
  8
Layer_1
 62
7
100
AcDbLine
 10
21.174438
 20
708.626788
 30
0.0
 11
21.178518
 21
708.633988
 31
0.0
  0
LINE
  5
287
100
AcDbEntity
  8
Layer_1
 62
7
100
AcDbLine
 10
21.178518
 20
708.633988
 30
0.0
 11
21.185638
 21
708.642948
 31
0.0
  0
LINE
  5
288
100
AcDbEntity
  8
Layer_1
 62
7
100
AcDbLine
 10
21.185638
 20
708.642948
 30
0.0
 11
21.188998
 21
708.657108
 31
0.0
  0
LINE
  5
289
100
AcDbEntity
  8
Layer_1
 62
7
100
AcDbLine
 10
21.188998
 20
708.657108
 30
0.0
 11
21.088040
 21
708.687108
 31
0.0
  0
LINE
  5
28a
100
AcDbEntity
  8
Layer_1
 62
7
100
AcDbLine
 10
21.088040
 20
708.687108
 30
0.0
 11
21.088006
 21
708.686788
 31
0.0
  0
SPLINE
  5
28b
100
AcDbEntity
  8
Layer_1
 62
7
100
AcDbSpline
 70
8
 71
3
 72
8
 73
4
 74
0
 40
0
 40
0
 40
0
 40
0
 40
1
 40
1
 40
1
 40
1
 10
18.912842
 20
705.446388
 30
0.0
 10
18.710230
 20
704.149532
 30
0.0
 10
18.862058
 20
702.859740
 30
0.0
 10
19.694172
 20
701.705732
 30
0.0
  0
LINE
  5
28c
100
AcDbEntity
  8
Layer_1
 62
7
100
AcDbLine
 10
19.694172
 20
701.705732
 30
0.0
 11
19.841389
 21
701.783252
 31
0.0
  0
SPLINE
  5
28d
100
AcDbEntity
  8
Layer_1
 62
7
100
AcDbSpline
 70
8
 71
3
 72
8
 73
4
 74
0
 40
0
 40
0
 40
0
 40
0
 40
1
 40
1
 40
1
 40
1
 10
19.841389
 20
701.783252
 30
0.0
 10
19.034434
 20
702.902356
 30
0.0
 10
18.884890
 20
704.152148
 30
0.0
 10
19.084032
 20
705.426796
 30
0.0
  0
LINE
  5
28e
100
AcDbEntity
  8
Layer_1
 62
7
100
AcDbLine
 10
19.084032
 20
705.426796
 30
0.0
 11
18.912842
 21
705.446396
 31
0.0
  0
LINE
  5
28f
100
AcDbEntity
  8
Layer_1
 62
7
100
AcDbLine
 10
18.912842
 20
705.446396
 30
0.0
 11
18.912842
 21
705.446388
 31
0.0
  0
LINE
  5
290
100
AcDbEntity
  8
Layer_1
 62
7
100
AcDbLine
 10
19.841389
 20
701.783252
 30
0.0
 11
19.694172
 21
701.705732
 31
0.0
  0
SPLINE
  5
291
100
AcDbEntity
  8
Layer_1
 62
7
100
AcDbSpline
 70
8
 71
3
 72
8
 73
4
 74
0
 40
0
 40
0
 40
0
 40
0
 40
1
 40
1
 40
1
 40
1
 10
19.694172
 20
701.705732
 30
0.0
 10
20.480230
 20
700.615612
 30
0.0
 10
21.277017
 20
699.551524
 30
0.0
 10
22.334622
 20
698.605964
 30
0.0
  0
LINE
  5
292
100
AcDbEntity
  8
Layer_1
 62
7
100
AcDbLine
 10
22.334622
 20
698.605964
 30
0.0
 11
22.459554
 21
698.707684
 31
0.0
  0
SPLINE
  5
293
100
AcDbEntity
  8
Layer_1
 62
7
100
AcDbSpline
 70
8
 71
3
 72
8
 73
4
 74
0
 40
0
 40
0
 40
0
 40
0
 40
1
 40
1
 40
1
 40
1
 10
22.459554
 20
698.707684
 30
0.0
 10
21.416758
 20
699.640012
 30
0.0
 10
20.626430
 20
700.694540
 30
0.0
 10
19.841389
 20
701.783252
 30
0.0
  0
LINE
  5
294
100
AcDbEntity
  8
Layer_1
 62
7
100
AcDbLine
 10
19.841389
 20
701.783252
 30
0.0
 11
19.841389
 21
701.783252
 31
0.0
  0
LINE
  5
295
100
AcDbEntity
  8
Layer_1
 62
7
100
AcDbLine
 10
22.459554
 20
698.707972
 30
0.0
 11
22.334622
 21
698.605964
 31
0.0
  0
SPLINE
  5
296
100
AcDbEntity
  8
Layer_1
 62
7
100
AcDbSpline
 70
8
 71
3
 72
8
 73
4
 74
0
 40
0
 40
0
 40
0
 40
0
 40
1
 40
1
 40
1
 40
1
 10
22.334622
 20
698.605964
 30
0.0
 10
24.529855
 20
696.647316
 30
0.0
 10
27.305373
 20
695.169412
 30
0.0
 10
30.066214
 20
693.949236
 30
0.0
  0
LINE
  5
297
100
AcDbEntity
  8
Layer_1
 62
7
100
AcDbLine
 10
30.066214
 20
693.949236
 30
0.0
 11
30.145566
 21
694.080356
 31
0.0
  0
SPLINE
  5
298
100
AcDbEntity
  8
Layer_1
 62
7
100
AcDbSpline
 70
8
 71
3
 72
8
 73
4
 74
0
 40
0
 40
0
 40
0
 40
0
 40
1
 40
1
 40
1
 40
1
 10
30.145566
 20
694.080356
 30
0.0
 10
27.393348
 20
695.296716
 30
0.0
 10
24.634490
 20
696.767444
 30
0.0
 10
22.459558
 20
698.707972
 30
0.0
  0
LINE
  5
299
100
AcDbEntity
  8
Layer_1
 62
7
100
AcDbLine
 10
22.459558
 20
698.707972
 30
0.0
 11
22.459554
 21
698.707972
 31
0.0
  0
LINE
  5
29a
100
AcDbEntity
  8
Layer_1
 62
7
100
AcDbLine
 10
30.145562
 20
694.080356
 30
0.0
 11
30.066210
 21
693.949236
 31
0.0
  0
SPLINE
  5
29b
100
AcDbEntity
  8
Layer_1
 62
7
100
AcDbSpline
 70
8
 71
3
 72
8
 73
4
 74
0
 40
0
 40
0
 40
0
 40
0
 40
1
 40
1
 40
1
 40
1
 10
30.066210
 20
693.949236
 30
0.0
 10
31.487358
 20
693.321908
 30
0.0
 10
32.915678
 20
692.691548
 30
0.0
 10
34.399654
 20
692.142748
 30
0.0
  0
LINE
  5
29c
100
AcDbEntity
  8
Layer_1
 62
7
100
AcDbLine
 10
34.399654
 20
692.142748
 30
0.0
 11
34.468534
 21
692.277892
 31
0.0
  0
SPLINE
  5
29d
100
AcDbEntity
  8
Layer_1
 62
7
100
AcDbSpline
 70
8
 71
3
 72
8
 73
4
 74
0
 40
0
 40
0
 40
0
 40
0
 40
1
 40
1
 40
1
 40
1
 10
34.468534
 20
692.277892
 30
0.0
 10
32.991746
 20
692.824036
 30
0.0
 10
31.566694
 20
693.453020
 30
0.0
 10
30.145555
 20
694.080356
 30
0.0
  0
LINE
  5
29e
100
AcDbEntity
  8
Layer_1
 62
7
100
AcDbLine
 10
30.145555
 20
694.080356
 30
0.0
 11
30.145562
 21
694.080356
 31
0.0
  0
LINE
  5
29f
100
AcDbEntity
  8
Layer_1
 62
7
100
AcDbLine
 10
18.973619
 20
705.438316
 30
0.0
 11
19.061072
 21
705.385596
 31
0.0
  0
LINE
  5
2a0
100
AcDbEntity
  8
Layer_1
 62
7
100
AcDbLine
 10
19.061072
 20
705.385596
 30
0.0
 11
19.085720
 21
705.408076
 31
0.0
  0
LINE
  5
2a1
100
AcDbEntity
  8
Layer_1
 62
7
100
AcDbLine
 10
19.085720
 20
705.408076
 30
0.0
 11
19.085720
 21
705.420796
 31
0.0
  0
LINE
  5
2a2
100
AcDbEntity
  8
Layer_1
 62
7
100
AcDbLine
 10
19.085720
 20
705.420796
 30
0.0
 11
19.085720
 21
705.438396
 31
0.0
  0
LINE
  5
2a3
100
AcDbEntity
  8
Layer_1
 62
7
100
AcDbLine
 10
19.085720
 20
705.438396
 30
0.0
 11
19.017512
 21
705.438396
 31
0.0
  0
LINE
  5
2a4
100
AcDbEntity
  8
Layer_1
 62
7
100
AcDbLine
 10
19.017512
 20
705.438396
 30
0.0
 11
18.973616
 21
705.438396
 31
0.0
  0
LINE
  5
2a5
100
AcDbEntity
  8
Layer_1
 62
7
100
AcDbLine
 10
18.973616
 20
705.438396
 30
0.0
 11
18.973619
 21
705.438316
 31
0.0
  0
LINE
  5
2a6
100
AcDbEntity
  8
Layer_1
 62
7
100
AcDbLine
 10
34.470903
 20
692.276740
 30
0.0
 11
34.404727
 21
692.140436
 31
0.0
  0
SPLINE
  5
2a7
100
AcDbEntity
  8
Layer_1
 62
7
100
AcDbSpline
 70
8
 71
3
 72
8
 73
4
 74
0
 40
0
 40
0
 40
0
 40
0
 40
1
 40
1
 40
1
 40
1
 10
34.404727
 20
692.140436
 30
0.0
 10
35.846386
 20
691.631324
 30
0.0
 10
37.323373
 20
691.254172
 30
0.0
 10
38.735808
 20
690.838516
 30
0.0
  0
LINE
  5
2a8
100
AcDbEntity
  8
Layer_1
 62
7
100
AcDbLine
 10
38.735808
 20
690.838516
 30
0.0
 11
38.792192
 21
690.977988
 31
0.0
  0
SPLINE
  5
2a9
100
AcDbEntity
  8
Layer_1
 62
7
100
AcDbSpline
 70
8
 71
3
 72
8
 73
4
 74
0
 40
0
 40
0
 40
0
 40
0
 40
1
 40
1
 40
1
 40
1
 10
38.792192
 20
690.977988
 30
0.0
 10
37.375138
 20
691.395004
 30
0.0
 10
35.901874
 20
691.771404
 30
0.0
 10
34.470902
 20
692.276740
 30
0.0
  0
LINE
  5
2aa
100
AcDbEntity
  8
Layer_1
 62
7
100
AcDbLine
 10
34.470902
 20
692.276740
 30
0.0
 11
34.470903
 21
692.276740
 31
0.0
  0
LINE
  5
2ab
100
AcDbEntity
  8
Layer_1
 62
7
100
AcDbLine
 10
38.793882
 20
690.977412
 30
0.0
 11
38.734458
 21
690.839092
 31
0.0
  0
SPLINE
  5
2ac
100
AcDbEntity
  8
Layer_1
 62
7
100
AcDbSpline
 70
8
 71
3
 72
8
 73
4
 74
0
 40
0
 40
0
 40
0
 40
0
 40
1
 40
1
 40
1
 40
1
 10
38.734458
 20
690.839092
 30
0.0
 10
40.218988
 20
690.374780
 30
0.0
 10
41.654195
 20
690.036932
 30
0.0
 10
43.181355
 20
689.742628
 30
0.0
  0
LINE
  5
2ad
100
AcDbEntity
  8
Layer_1
 62
7
100
AcDbLine
 10
43.181355
 20
689.742628
 30
0.0
 11
43.219507
 21
689.886420
 31
0.0
  0
SPLINE
  5
2ae
100
AcDbEntity
  8
Layer_1
 62
7
100
AcDbSpline
 70
8
 71
3
 72
8
 73
4
 74
0
 40
0
 40
0
 40
0
 40
0
 40
1
 40
1
 40
1
 40
1
 10
43.219507
 20
689.886420
 30
0.0
 10
41.697370
 20
690.179756
 30
0.0
 10
40.270051
 20
690.515716
 30
0.0
 10
38.793880
 20
690.977412
 30
0.0
  0
LINE
  5
2af
100
AcDbEntity
  8
Layer_1
 62
7
100
AcDbLine
 10
38.793880
 20
690.977412
 30
0.0
 11
38.793882
 21
690.977412
 31
0.0
  0
LINE
  5
2b0
100
AcDbEntity
  8
Layer_1
 62
7
100
AcDbLine
 10
43.219507
 20
689.886420
 30
0.0
 11
43.181355
 21
689.742628
 31
0.0
  0
SPLINE
  5
2b1
100
AcDbEntity
  8
Layer_1
 62
7
100
AcDbSpline
 70
8
 71
3
 72
8
 73
4
 74
0
 40
0
 40
0
 40
0
 40
0
 40
1
 40
1
 40
1
 40
1
 10
43.181355
 20
689.742628
 30
0.0
 10
44.713706
 20
689.447324
 30
0.0
 10
46.232414
 20
689.238076
 30
0.0
 10
47.738326
 20
688.947876
 30
0.0
  0
LINE
  5
2b2
100
AcDbEntity
  8
Layer_1
 62
7
100
AcDbLine
 10
47.738326
 20
688.947876
 30
0.0
 11
47.776486
 21
689.091668
 31
0.0
  0
SPLINE
  5
2b3
100
AcDbEntity
  8
Layer_1
 62
7
100
AcDbSpline
 70
8
 71
3
 72
8
 73
4
 74
0
 40
0
 40
0
 40
0
 40
0
 40
1
 40
1
 40
1
 40
1
 10
47.776486
 20
689.091668
 30
0.0
 10
46.263651
 20
689.383204
 30
0.0
 10
44.745032
 20
689.592436
 30
0.0
 10
43.219515
 20
689.886420
 30
0.0
  0
LINE
  5
2b4
100
AcDbEntity
  8
Layer_1
 62
7
100
AcDbLine
 10
43.219515
 20
689.886420
 30
0.0
 11
43.219507
 21
689.886420
 31
0.0
  0
LINE
  5
2b5
100
AcDbEntity
  8
Layer_1
 62
7
100
AcDbLine
 10
34.365894
 20
692.324860
 30
0.0
 11
34.348334
 21
692.220836
 31
0.0
  0
LINE
  5
2b6
100
AcDbEntity
  8
Layer_1
 62
7
100
AcDbLine
 10
34.348334
 20
692.220836
 30
0.0
 11
34.339550
 21
692.167796
 31
0.0
  0
LINE
  5
2b7
100
AcDbEntity
  8
Layer_1
 62
7
100
AcDbLine
 10
34.339550
 20
692.167796
 30
0.0
 11
34.393574
 21
692.144996
 31
0.0
  0
LINE
  5
2b8
100
AcDbEntity
  8
Layer_1
 62
7
100
AcDbLine
 10
34.393574
 20
692.144996
 30
0.0
 11
34.395334
 21
692.144236
 31
0.0
  0
LINE
  5
2b9
100
AcDbEntity
  8
Layer_1
 62
7
100
AcDbLine
 10
34.395334
 20
692.144236
 30
0.0
 11
34.397334
 21
692.143468
 31
0.0
  0
LINE
  5
2ba
100
AcDbEntity
  8
Layer_1
 62
7
100
AcDbLine
 10
34.397334
 20
692.143468
 30
0.0
 11
34.399334
 21
692.142708
 31
0.0
  0
LINE
  5
2bb
100
AcDbEntity
  8
Layer_1
 62
7
100
AcDbLine
 10
34.399334
 20
692.142708
 30
0.0
 11
34.403334
 21
692.149908
 31
0.0
  0
LINE
  5
2bc
100
AcDbEntity
  8
Layer_1
 62
7
100
AcDbLine
 10
34.403334
 20
692.149908
 30
0.0
 11
34.399974
 21
692.148308
 31
0.0
  0
LINE
  5
2bd
100
AcDbEntity
  8
Layer_1
 62
7
100
AcDbLine
 10
34.399974
 20
692.148308
 30
0.0
 11
34.476286
 21
692.275100
 31
0.0
  0
LINE
  5
2be
100
AcDbEntity
  8
Layer_1
 62
7
100
AcDbLine
 10
34.476286
 20
692.275100
 30
0.0
 11
34.365873
 21
692.325260
 31
0.0
  0
LINE
  5
2bf
100
AcDbEntity
  8
Layer_1
 62
7
100
AcDbLine
 10
34.365873
 20
692.325260
 30
0.0
 11
34.365894
 21
692.324860
 31
0.0
  0
SPLINE
  5
2c0
100
AcDbEntity
  8
Layer_1
 62
7
100
AcDbSpline
 70
8
 71
3
 72
8
 73
4
 74
0
 40
0
 40
0
 40
0
 40
0
 40
1
 40
1
 40
1
 40
1
 10
52.377682
 20
689.432276
 30
0.0
 10
50.817921
 20
688.916988
 30
0.0
 10
49.230229
 20
689.087308
 30
0.0
 10
47.826453
 20
689.088500
 30
0.0
  0
LINE
  5
2c1
100
AcDbEntity
  8
Layer_1
 62
7
100
AcDbLine
 10
47.826453
 20
689.088500
 30
0.0
 11
47.826106
 21
688.940956
 31
0.0
  0
SPLINE
  5
2c2
100
AcDbEntity
  8
Layer_1
 62
7
100
AcDbSpline
 70
8
 71
3
 72
8
 73
4
 74
0
 40
0
 40
0
 40
0
 40
0
 40
1
 40
1
 40
1
 40
1
 10
47.826106
 20
688.940956
 30
0.0
 10
49.213241
 20
688.940156
 30
0.0
 10
50.831774
 20
688.763476
 30
0.0
 10
52.440142
 20
689.294820
 30
0.0
  0
LINE
  5
2c3
100
AcDbEntity
  8
Layer_1
 62
7
100
AcDbLine
 10
52.440142
 20
689.294820
 30
0.0
 11
52.377678
 21
689.432276
 31
0.0
  0
LINE
  5
2c4
100
AcDbEntity
  8
Layer_1
 62
7
100
AcDbLine
 10
52.377678
 20
689.432276
 30
0.0
 11
52.377682
 21
689.432276
 31
0.0
  0
LINE
  5
2c5
100
AcDbEntity
  8
Layer_1
 62
7
100
AcDbLine
 10
47.757234
 20
689.093396
 30
0.0
 11
47.739338
 21
688.947588
 31
0.0
  0
LINE
  5
2c6
100
AcDbEntity
  8
Layer_1
 62
7
100
AcDbLine
 10
47.739338
 20
688.947588
 30
0.0
 11
47.775130
 21
688.941188
 31
0.0
  0
LINE
  5
2c7
100
AcDbEntity
  8
Layer_1
 62
7
100
AcDbLine
 10
47.775130
 20
688.941188
 30
0.0
 11
47.802482
 21
688.941188
 31
0.0
  0
LINE
  5
2c8
100
AcDbEntity
  8
Layer_1
 62
7
100
AcDbLine
 10
47.802482
 20
688.941188
 30
0.0
 11
47.811938
 21
688.941188
 31
0.0
  0
LINE
  5
2c9
100
AcDbEntity
  8
Layer_1
 62
7
100
AcDbLine
 10
47.811938
 20
688.941188
 30
0.0
 11
47.826114
 21
688.941188
 31
0.0
  0
LINE
  5
2ca
100
AcDbEntity
  8
Layer_1
 62
7
100
AcDbLine
 10
47.826114
 20
688.941188
 30
0.0
 11
47.833554
 21
689.088444
 31
0.0
  0
LINE
  5
2cb
100
AcDbEntity
  8
Layer_1
 62
7
100
AcDbLine
 10
47.833554
 20
689.088444
 30
0.0
 11
47.760962
 21
689.093244
 31
0.0
  0
LINE
  5
2cc
100
AcDbEntity
  8
Layer_1
 62
7
100
AcDbLine
 10
47.760962
 20
689.093244
 30
0.0
 11
47.757282
 21
689.093244
 31
0.0
  0
LINE
  5
2cd
100
AcDbEntity
  8
Layer_1
 62
7
100
AcDbLine
 10
47.757282
 20
689.093244
 30
0.0
 11
47.757234
 21
689.093396
 31
0.0
  0
SPLINE
  5
2ce
100
AcDbEntity
  8
Layer_1
 62
7
100
AcDbSpline
 70
8
 71
3
 72
8
 73
4
 74
0
 40
0
 40
0
 40
0
 40
0
 40
1
 40
1
 40
1
 40
1
 10
60.192334
 20
691.825188
 30
0.0
 10
57.771896
 20
690.602644
 30
0.0
 10
55.107303
 20
689.845308
 30
0.0
 10
52.347970
 20
689.424788
 30
0.0
  0
LINE
  5
2cf
100
AcDbEntity
  8
Layer_1
 62
7
100
AcDbLine
 10
52.347970
 20
689.424788
 30
0.0
 11
52.378378
 21
689.279548
 31
0.0
  0
SPLINE
  5
2d0
100
AcDbEntity
  8
Layer_1
 62
7
100
AcDbSpline
 70
8
 71
3
 72
8
 73
4
 74
0
 40
0
 40
0
 40
0
 40
0
 40
1
 40
1
 40
1
 40
1
 10
52.378378
 20
689.279548
 30
0.0
 10
55.154118
 20
689.702572
 30
0.0
 10
57.839117
 20
690.465284
 30
0.0
 10
60.280482
 20
691.698396
 30
0.0
  0
LINE
  5
2d1
100
AcDbEntity
  8
Layer_1
 62
7
100
AcDbLine
 10
60.280482
 20
691.698396
 30
0.0
 11
60.192353
 21
691.825188
 31
0.0
  0
LINE
  5
2d2
100
AcDbEntity
  8
Layer_1
 62
7
100
AcDbLine
 10
60.192353
 20
691.825188
 30
0.0
 11
60.192334
 21
691.825188
 31
0.0
  0
LINE
  5
2d3
100
AcDbEntity
  8
Layer_1
 62
7
100
AcDbLine
 10
52.384774
 20
689.434300
 30
0.0
 11
52.338854
 21
689.423100
 31
0.0
  0
LINE
  5
2d4
100
AcDbEntity
  8
Layer_1
 62
7
100
AcDbLine
 10
52.338854
 20
689.423100
 30
0.0
 11
52.387142
 21
689.281324
 31
0.0
  0
LINE
  5
2d5
100
AcDbEntity
  8
Layer_1
 62
7
100
AcDbLine
 10
52.387142
 20
689.281324
 30
0.0
 11
52.433062
 21
689.292844
 31
0.0
  0
LINE
  5
2d6
100
AcDbEntity
  8
Layer_1
 62
7
100
AcDbLine
 10
52.433062
 20
689.292844
 30
0.0
 11
52.384774
 21
689.434332
 31
0.0
  0
LINE
  5
2d7
100
AcDbEntity
  8
Layer_1
 62
7
100
AcDbLine
 10
52.384774
 20
689.434332
 30
0.0
 11
52.384774
 21
689.434300
 31
0.0
  0
SPLINE
  5
2d8
100
AcDbEntity
  8
Layer_1
 62
7
100
AcDbSpline
 70
8
 71
3
 72
8
 73
4
 74
0
 40
0
 40
0
 40
0
 40
0
 40
1
 40
1
 40
1
 40
1
 10
64.331970
 20
696.632044
 30
0.0
 10
63.685634
 20
694.637788
 30
0.0
 10
62.290066
 20
692.891340
 30
0.0
 10
60.193013
 20
691.826052
 30
0.0
  0
LINE
  5
2d9
100
AcDbEntity
  8
Layer_1
 62
7
100
AcDbLine
 10
60.193013
 20
691.826052
 30
0.0
 11
60.281478
 21
691.699260
 31
0.0
  0
SPLINE
  5
2da
100
AcDbEntity
  8
Layer_1
 62
7
100
AcDbSpline
 70
8
 71
3
 72
8
 73
4
 74
0
 40
0
 40
0
 40
0
 40
0
 40
1
 40
1
 40
1
 40
1
 10
60.281478
 20
691.699260
 30
0.0
 10
62.420935
 20
692.786092
 30
0.0
 10
63.841958
 20
694.567028
 30
0.0
 10
64.498432
 20
696.592564
 30
0.0
  0
LINE
  5
2db
100
AcDbEntity
  8
Layer_1
 62
7
100
AcDbLine
 10
64.498432
 20
696.592564
 30
0.0
 11
64.331970
 21
696.632084
 31
0.0
  0
LINE
  5
2dc
100
AcDbEntity
  8
Layer_1
 62
7
100
AcDbLine
 10
64.331970
 20
696.632084
 30
0.0
 11
64.331970
 21
696.632044
 31
0.0
  0
SPLINE
  5
2dd
100
AcDbEntity
  8
Layer_1
 62
7
100
AcDbSpline
 70
8
 71
3
 72
8
 73
4
 74
0
 40
0
 40
0
 40
0
 40
0
 40
1
 40
1
 40
1
 40
1
 10
65.461757
 20
700.153396
 30
0.0
 10
65.165437
 20
698.931092
 30
0.0
 10
64.722667
 20
697.799476
 30
0.0
 10
64.331970
 20
696.632620
 30
0.0
  0
LINE
  5
2de
100
AcDbEntity
  8
Layer_1
 62
7
100
AcDbLine
 10
64.331970
 20
696.632620
 30
0.0
 11
64.498432
 21
696.591980
 31
0.0
  0
SPLINE
  5
2df
100
AcDbEntity
  8
Layer_1
 62
7
100
AcDbSpline
 70
8
 71
3
 72
8
 73
4
 74
0
 40
0
 40
0
 40
0
 40
0
 40
1
 40
1
 40
1
 40
1
 10
64.498432
 20
696.591980
 30
0.0
 10
64.887754
 20
697.754732
 30
0.0
 10
65.332309
 20
698.890556
 30
0.0
 10
65.631258
 20
700.123716
 30
0.0
  0
LINE
  5
2e0
100
AcDbEntity
  8
Layer_1
 62
7
100
AcDbLine
 10
65.631258
 20
700.123716
 30
0.0
 11
65.461757
 21
700.153396
 31
0.0
  0
LINE
  5
2e1
100
AcDbEntity
  8
Layer_1
 62
7
100
AcDbLine
 10
65.461757
 20
700.153396
 30
0.0
 11
65.461757
 21
700.153396
 31
0.0
  0
LINE
  5
2e2
100
AcDbEntity
  8
Layer_1
 62
7
100
AcDbLine
 10
60.176129
 20
691.814812
 30
0.0
 11
60.175249
 21
691.814052
 31
0.0
  0
LINE
  5
2e3
100
AcDbEntity
  8
Layer_1
 62
7
100
AcDbLine
 10
60.175249
 20
691.814052
 30
0.0
 11
60.297478
 21
691.709740
 31
0.0
  0
LINE
  5
2e4
100
AcDbEntity
  8
Layer_1
 62
7
100
AcDbLine
 10
60.297478
 20
691.709740
 30
0.0
 11
60.298758
 21
691.710500
 31
0.0
  0
LINE
  5
2e5
100
AcDbEntity
  8
Layer_1
 62
7
100
AcDbLine
 10
60.298758
 20
691.710500
 30
0.0
 11
60.176187
 21
691.814812
 31
0.0
  0
LINE
  5
2e6
100
AcDbEntity
  8
Layer_1
 62
7
100
AcDbLine
 10
60.176187
 20
691.814812
 30
0.0
 11
60.176129
 21
691.814812
 31
0.0
  0
SPLINE
  5
2e7
100
AcDbEntity
  8
Layer_1
 62
7
100
AcDbSpline
 70
8
 71
3
 72
8
 73
4
 74
0
 40
0
 40
0
 40
0
 40
0
 40
1
 40
1
 40
1
 40
1
 10
66.245792
 20
703.917100
 30
0.0
 10
65.953291
 20
702.668612
 30
0.0
 10
65.757001
 20
701.414676
 30
0.0
 10
65.461757
 20
700.154836
 30
0.0
  0
LINE
  5
2e8
100
AcDbEntity
  8
Layer_1
 62
7
100
AcDbLine
 10
65.461757
 20
700.154836
 30
0.0
 11
65.631258
 21
700.125716
 31
0.0
  0
SPLINE
  5
2e9
100
AcDbEntity
  8
Layer_1
 62
7
100
AcDbSpline
 70
8
 71
3
 72
8
 73
4
 74
0
 40
0
 40
0
 40
0
 40
0
 40
1
 40
1
 40
1
 40
1
 10
65.631258
 20
700.125716
 30
0.0
 10
65.927938
 20
701.391684
 30
0.0
 10
66.124246
 20
702.645980
 30
0.0
 10
66.415294
 20
703.888268
 30
0.0
  0
LINE
  5
2ea
100
AcDbEntity
  8
Layer_1
 62
7
100
AcDbLine
 10
66.415294
 20
703.888268
 30
0.0
 11
66.245792
 21
703.917068
 31
0.0
  0
LINE
  5
2eb
100
AcDbEntity
  8
Layer_1
 62
7
100
AcDbLine
 10
66.245792
 20
703.917068
 30
0.0
 11
66.245792
 21
703.917100
 31
0.0
  0
LINE
  5
2ec
100
AcDbEntity
  8
Layer_1
 62
7
100
AcDbLine
 10
65.460072
 20
700.140428
 30
0.0
 11
65.460072
 21
700.139668
 31
0.0
  0
LINE
  5
2ed
100
AcDbEntity
  8
Layer_1
 62
7
100
AcDbLine
 10
65.460072
 20
700.139668
 30
0.0
 11
65.460072
 21
700.138908
 31
0.0
  0
LINE
  5
2ee
100
AcDbEntity
  8
Layer_1
 62
7
100
AcDbLine
 10
65.460072
 20
700.138908
 30
0.0
 11
65.632947
 21
700.138908
 31
0.0
  0
LINE
  5
2ef
100
AcDbEntity
  8
Layer_1
 62
7
100
AcDbLine
 10
65.632947
 20
700.138908
 30
0.0
 11
65.632947
 21
700.139668
 31
0.0
  0
LINE
  5
2f0
100
AcDbEntity
  8
Layer_1
 62
7
100
AcDbLine
 10
65.632947
 20
700.139668
 30
0.0
 11
65.632947
 21
700.140428
 31
0.0
  0
LINE
  5
2f1
100
AcDbEntity
  8
Layer_1
 62
7
100
AcDbLine
 10
65.632947
 20
700.140428
 30
0.0
 11
65.460072
 21
700.140428
 31
0.0
  0
LINE
  5
2f2
100
AcDbEntity
  8
Layer_1
 62
7
100
AcDbLine
 10
65.460072
 20
700.140428
 30
0.0
 11
65.460072
 21
700.140428
 31
0.0
  0
SPLINE
  5
2f3
100
AcDbEntity
  8
Layer_1
 62
7
100
AcDbSpline
 70
8
 71
3
 72
8
 73
4
 74
0
 40
0
 40
0
 40
0
 40
0
 40
1
 40
1
 40
1
 40
1
 10
69.789799
 20
710.215492
 30
0.0
 10
67.942874
 20
708.307284
 30
0.0
 10
66.829258
 20
706.324716
 30
0.0
 10
66.245792
 20
703.919116
 30
0.0
  0
LINE
  5
2f4
100
AcDbEntity
  8
Layer_1
 62
7
100
AcDbLine
 10
66.245792
 20
703.919116
 30
0.0
 11
66.414953
 21
703.889436
 31
0.0
  0
SPLINE
  5
2f5
100
AcDbEntity
  8
Layer_1
 62
7
100
AcDbSpline
 70
8
 71
3
 72
8
 73
4
 74
0
 40
0
 40
0
 40
0
 40
0
 40
1
 40
1
 40
1
 40
1
 10
66.414953
 20
703.889436
 30
0.0
 10
66.993405
 20
706.274356
 30
0.0
 10
68.091918
 20
708.229532
 30
0.0
 10
69.923176
 20
710.121548
 30
0.0
  0
LINE
  5
2f6
100
AcDbEntity
  8
Layer_1
 62
7
100
AcDbLine
 10
69.923176
 20
710.121548
 30
0.0
 11
69.789799
 21
710.215492
 31
0.0
  0
LINE
  5
2f7
100
AcDbEntity
  8
Layer_1
 62
7
100
AcDbLine
 10
69.789799
 20
710.215492
 30
0.0
 11
69.789799
 21
710.215492
 31
0.0
  0
LINE
  5
2f8
100
AcDbEntity
  8
Layer_1
 62
7
100
AcDbLine
 10
66.244099
 20
703.904420
 30
0.0
 11
66.244099
 21
703.902820
 31
0.0
  0
LINE
  5
2f9
100
AcDbEntity
  8
Layer_1
 62
7
100
AcDbLine
 10
66.244099
 20
703.902820
 30
0.0
 11
66.416978
 21
703.902820
 31
0.0
  0
LINE
  5
2fa
100
AcDbEntity
  8
Layer_1
 62
7
100
AcDbLine
 10
66.416978
 20
703.902820
 30
0.0
 11
66.416978
 21
703.904420
 31
0.0
  0
LINE
  5
2fb
100
AcDbEntity
  8
Layer_1
 62
7
100
AcDbLine
 10
66.416978
 20
703.904420
 30
0.0
 11
66.244099
 21
703.904420
 31
0.0
  0
LINE
  5
2fc
100
AcDbEntity
  8
Layer_1
 62
7
100
AcDbLine
 10
66.244099
 20
703.904420
 30
0.0
 11
66.244099
 21
703.904420
 31
0.0
  0
SPLINE
  5
2fd
100
AcDbEntity
  8
Layer_1
 62
7
100
AcDbSpline
 70
8
 71
3
 72
8
 73
4
 74
0
 40
0
 40
0
 40
0
 40
0
 40
1
 40
1
 40
1
 40
1
 10
84.548304
 20
716.359140
 30
0.0
 10
79.317406
 20
715.441260
 30
0.0
 10
73.276208
 20
713.811532
 30
0.0
 10
69.789799
 20
710.216644
 30
0.0
  0
LINE
  5
2fe
100
AcDbEntity
  8
Layer_1
 62
7
100
AcDbLine
 10
69.789799
 20
710.216644
 30
0.0
 11
69.923176
 21
710.122412
 31
0.0
  0
SPLINE
  5
2ff
100
AcDbEntity
  8
Layer_1
 62
7
100
AcDbSpline
 70
8
 71
3
 72
8
 73
4
 74
0
 40
0
 40
0
 40
0
 40
0
 40
1
 40
1
 40
1
 40
1
 10
69.923176
 20
710.122412
 30
0.0
 10
73.363291
 20
713.669572
 30
0.0
 10
79.366106
 20
715.299044
 30
0.0
 10
84.583080
 20
716.214476
 30
0.0
  0
LINE
  5
300
100
AcDbEntity
  8
Layer_1
 62
7
100
AcDbLine
 10
84.583080
 20
716.214476
 30
0.0
 11
84.548280
 21
716.359140
 31
0.0
  0
LINE
  5
301
100
AcDbEntity
  8
Layer_1
 62
7
100
AcDbLine
 10
84.548280
 20
716.359140
 30
0.0
 11
84.548304
 21
716.359140
 31
0.0
  0
SPLINE
  5
302
100
AcDbEntity
  8
Layer_1
 62
7
100
AcDbSpline
 70
8
 71
3
 72
8
 73
4
 74
0
 40
0
 40
0
 40
0
 40
0
 40
1
 40
1
 40
1
 40
1
 10
93.087560
 20
718.286084
 30
0.0
 10
90.245720
 20
717.575220
 30
0.0
 10
87.448704
 20
716.862588
 30
0.0
 10
84.548304
 20
716.359140
 30
0.0
  0
LINE
  5
303
100
AcDbEntity
  8
Layer_1
 62
7
100
AcDbLine
 10
84.548304
 20
716.359140
 30
0.0
 11
84.582704
 21
716.214476
 31
0.0
  0
SPLINE
  5
304
100
AcDbEntity
  8
Layer_1
 62
7
100
AcDbSpline
 70
8
 71
3
 72
8
 73
4
 74
0
 40
0
 40
0
 40
0
 40
0
 40
1
 40
1
 40
1
 40
1
 10
84.582704
 20
716.214476
 30
0.0
 10
87.493064
 20
716.719652
 30
0.0
 10
90.294856
 20
717.433876
 30
0.0
 10
93.136136
 20
718.144596
 30
0.0
  0
LINE
  5
305
100
AcDbEntity
  8
Layer_1
 62
7
100
AcDbLine
 10
93.136136
 20
718.144596
 30
0.0
 11
93.087496
 21
718.286084
 31
0.0
  0
LINE
  5
306
100
AcDbEntity
  8
Layer_1
 62
7
100
AcDbLine
 10
93.087496
 20
718.286084
 30
0.0
 11
93.087560
 21
718.286084
 31
0.0
  0
LINE
  5
307
100
AcDbEntity
  8
Layer_1
 62
7
100
AcDbLine
 10
69.770216
 20
710.169676
 30
0.0
 11
69.770216
 21
710.168876
 31
0.0
  0
LINE
  5
308
100
AcDbEntity
  8
Layer_1
 62
7
100
AcDbLine
 10
69.770216
 20
710.168876
 30
0.0
 11
69.943096
 21
710.168876
 31
0.0
  0
LINE
  5
309
100
AcDbEntity
  8
Layer_1
 62
7
100
AcDbLine
 10
69.943096
 20
710.168876
 30
0.0
 11
69.943096
 21
710.169676
 31
0.0
  0
LINE
  5
30a
100
AcDbEntity
  8
Layer_1
 62
7
100
AcDbLine
 10
69.943096
 20
710.169676
 30
0.0
 11
69.770216
 21
710.169676
 31
0.0
  0
LINE
  5
30b
100
AcDbEntity
  8
Layer_1
 62
7
100
AcDbLine
 10
69.770216
 20
710.169676
 30
0.0
 11
69.770216
 21
710.169676
 31
0.0
  0
SPLINE
  5
30c
100
AcDbEntity
  8
Layer_1
 62
7
100
AcDbSpline
 70
8
 71
3
 72
8
 73
4
 74
0
 40
0
 40
0
 40
0
 40
0
 40
1
 40
1
 40
1
 40
1
 10
95.007456
 20
718.537652
 30
0.0
 10
94.381152
 20
718.552372
 30
0.0
 10
93.739272
 20
718.450716
 30
0.0
 10
93.088232
 20
718.286084
 30
0.0
  0
LINE
  5
30d
100
AcDbEntity
  8
Layer_1
 62
7
100
AcDbLine
 10
93.088232
 20
718.286084
 30
0.0
 11
93.137512
 21
718.144596
 31
0.0
  0
SPLINE
  5
30e
100
AcDbEntity
  8
Layer_1
 62
7
100
AcDbSpline
 70
8
 71
3
 72
8
 73
4
 74
0
 40
0
 40
0
 40
0
 40
0
 40
1
 40
1
 40
1
 40
1
 10
93.137512
 20
718.144596
 30
0.0
 10
94.417704
 20
718.468316
 30
0.0
 10
95.619656
 20
718.539756
 30
0.0
 10
96.743656
 20
717.964204
 30
0.0
  0
LINE
  5
30f
100
AcDbEntity
  8
Layer_1
 62
7
100
AcDbLine
 10
96.743656
 20
717.964204
 30
0.0
 11
96.832792
 21
718.090708
 31
0.0
  0
SPLINE
  5
310
100
AcDbEntity
  8
Layer_1
 62
7
100
AcDbSpline
 70
8
 71
3
 72
8
 73
4
 74
0
 40
0
 40
0
 40
0
 40
0
 40
1
 40
1
 40
1
 40
1
 10
96.832792
 20
718.090708
 30
0.0
 10
96.244648
 20
718.391876
 30
0.0
 10
95.633744
 20
718.522948
 30
0.0
 10
95.007440
 20
718.537652
 30
0.0
  0
LINE
  5
311
100
AcDbEntity
  8
Layer_1
 62
7
100
AcDbLine
 10
95.007440
 20
718.537652
 30
0.0
 11
95.007456
 21
718.537652
 31
0.0
  0
LINE
  5
312
100
AcDbEntity
  8
Layer_1
 62
7
100
AcDbLine
 10
96.832808
 20
718.090708
 30
0.0
 11
96.743672
 21
717.964204
 31
0.0
  0
SPLINE
  5
313
100
AcDbEntity
  8
Layer_1
 62
7
100
AcDbSpline
 70
8
 71
3
 72
8
 73
4
 74
0
 40
0
 40
0
 40
0
 40
0
 40
1
 40
1
 40
1
 40
1
 10
96.743672
 20
717.964204
 30
0.0
 10
97.937088
 20
717.353108
 30
0.0
 10
99.137336
 20
716.491484
 30
0.0
 10
100.649312
 20
716.135524
 30
0.0
  0
LINE
  5
314
100
AcDbEntity
  8
Layer_1
 62
7
100
AcDbLine
 10
100.649312
 20
716.135524
 30
0.0
 11
100.695232
 21
716.277876
 31
0.0
  0
SPLINE
  5
315
100
AcDbEntity
  8
Layer_1
 62
7
100
AcDbSpline
 70
8
 71
3
 72
8
 73
4
 74
0
 40
0
 40
0
 40
0
 40
0
 40
1
 40
1
 40
1
 40
1
 10
100.695232
 20
716.277876
 30
0.0
 10
99.229888
 20
716.622860
 30
0.0
 10
98.043496
 20
717.470772
 30
0.0
 10
96.832808
 20
718.090708
 30
0.0
  0
LINE
  5
316
100
AcDbEntity
  8
Layer_1
 62
7
100
AcDbLine
 10
96.832808
 20
718.090708
 30
0.0
 11
96.832808
 21
718.090708
 31
0.0
  0
LINE
  5
317
100
AcDbEntity
  8
Layer_1
 62
7
100
AcDbLine
 10
100.695232
 20
716.277876
 30
0.0
 11
100.649312
 21
716.135524
 31
0.0
  0
SPLINE
  5
318
100
AcDbEntity
  8
Layer_1
 62
7
100
AcDbSpline
 70
8
 71
3
 72
8
 73
4
 74
0
 40
0
 40
0
 40
0
 40
0
 40
1
 40
1
 40
1
 40
1
 10
100.649312
 20
716.135524
 30
0.0
 10
102.103344
 20
715.793196
 30
0.0
 10
103.703456
 20
715.621404
 30
0.0
 10
105.218432
 20
715.707596
 30
0.0
  0
LINE
  5
319
100
AcDbEntity
  8
Layer_1
 62
7
100
AcDbLine
 10
105.218432
 20
715.707596
 30
0.0
 11
105.206992
 21
715.854852
 31
0.0
  0
SPLINE
  5
31a
100
AcDbEntity
  8
Layer_1
 62
7
100
AcDbSpline
 70
8
 71
3
 72
8
 73
4
 74
0
 40
0
 40
0
 40
0
 40
0
 40
1
 40
1
 40
1
 40
1
 10
105.206992
 20
715.854852
 30
0.0
 10
103.715328
 20
715.769980
 30
0.0
 10
102.132232
 20
715.939572
 30
0.0
 10
100.695264
 20
716.277876
 30
0.0
  0
LINE
  5
31b
100
AcDbEntity
  8
Layer_1
 62
7
100
AcDbLine
 10
100.695264
 20
716.277876
 30
0.0
 11
100.695232
 21
716.277876
 31
0.0
  0
LINE
  5
31c
100
AcDbEntity
  8
Layer_1
 62
7
100
AcDbLine
 10
93.111864
 20
718.289252
 30
0.0
 11
93.111864
 21
718.141716
 31
0.0
  0
LINE
  5
31d
100
AcDbEntity
  8
Layer_1
 62
7
100
AcDbLine
 10
93.111864
 20
718.141716
 30
0.0
 11
93.112664
 21
718.141716
 31
0.0
  0
LINE
  5
31e
100
AcDbEntity
  8
Layer_1
 62
7
100
AcDbLine
 10
93.112664
 20
718.141716
 30
0.0
 11
93.112664
 21
718.289252
 31
0.0
  0
LINE
  5
31f
100
AcDbEntity
  8
Layer_1
 62
7
100
AcDbLine
 10
93.112664
 20
718.289252
 30
0.0
 11
93.111864
 21
718.289252
 31
0.0
  0
LINE
  5
320
100
AcDbEntity
  8
Layer_1
 62
7
100
AcDbLine
 10
93.111864
 20
718.289252
 30
0.0
 11
93.111864
 21
718.289252
 31
0.0
  0
SPLINE
  5
321
100
AcDbEntity
  8
Layer_1
 62
7
100
AcDbSpline
 70
8
 71
3
 72
8
 73
4
 74
0
 40
0
 40
0
 40
0
 40
0
 40
1
 40
1
 40
1
 40
1
 10
109.675800
 20
716.579580
 30
0.0
 10
108.311056
 20
716.018796
 30
0.0
 10
106.628176
 20
715.938444
 30
0.0
 10
105.207968
 20
715.854852
 30
0.0
  0
LINE
  5
322
100
AcDbEntity
  8
Layer_1
 62
7
100
AcDbLine
 10
105.207968
 20
715.854852
 30
0.0
 11
105.219808
 21
715.707596
 31
0.0
  0
SPLINE
  5
323
100
AcDbEntity
  8
Layer_1
 62
7
100
AcDbSpline
 70
8
 71
3
 72
8
 73
4
 74
0
 40
0
 40
0
 40
0
 40
0
 40
1
 40
1
 40
1
 40
1
 10
105.219808
 20
715.707596
 30
0.0
 10
106.638024
 20
715.791076
 30
0.0
 10
108.342064
 20
715.867884
 30
0.0
 10
109.750776
 20
716.446740
 30
0.0
  0
LINE
  5
324
100
AcDbEntity
  8
Layer_1
 62
7
100
AcDbLine
 10
109.750776
 20
716.446740
 30
0.0
 11
109.675816
 21
716.579580
 31
0.0
  0
LINE
  5
325
100
AcDbEntity
  8
Layer_1
 62
7
100
AcDbLine
 10
109.675816
 20
716.579580
 30
0.0
 11
109.675800
 21
716.579580
 31
0.0
  0
LINE
  5
326
100
AcDbEntity
  8
Layer_1
 62
7
100
AcDbLine
 10
105.212696
 20
715.854852
 30
0.0
 11
105.212696
 21
715.707308
 31
0.0
  0
LINE
  5
327
100
AcDbEntity
  8
Layer_1
 62
7
100
AcDbLine
 10
105.212696
 20
715.707308
 30
0.0
 11
105.213496
 21
715.707308
 31
0.0
  0
LINE
  5
328
100
AcDbEntity
  8
Layer_1
 62
7
100
AcDbLine
 10
105.213496
 20
715.707308
 30
0.0
 11
105.213496
 21
715.854852
 31
0.0
  0
LINE
  5
329
100
AcDbEntity
  8
Layer_1
 62
7
100
AcDbLine
 10
105.213496
 20
715.854852
 30
0.0
 11
105.212696
 21
715.854852
 31
0.0
  0
LINE
  5
32a
100
AcDbEntity
  8
Layer_1
 62
7
100
AcDbLine
 10
105.212696
 20
715.854852
 30
0.0
 11
105.212696
 21
715.854852
 31
0.0
  0
SPLINE
  5
32b
100
AcDbEntity
  8
Layer_1
 62
7
100
AcDbSpline
 70
8
 71
3
 72
8
 73
4
 74
0
 40
0
 40
0
 40
0
 40
0
 40
1
 40
1
 40
1
 40
1
 10
112.769040
 20
718.340548
 30
0.0
 10
111.879376
 20
717.591972
 30
0.0
 10
110.738256
 20
717.021836
 30
0.0
 10
109.676480
 20
716.579292
 30
0.0
  0
LINE
  5
32c
100
AcDbEntity
  8
Layer_1
 62
7
100
AcDbLine
 10
109.676480
 20
716.579292
 30
0.0
 11
109.752080
 21
716.446740
 31
0.0
  0
SPLINE
  5
32d
100
AcDbEntity
  8
Layer_1
 62
7
100
AcDbSpline
 70
8
 71
3
 72
8
 73
4
 74
0
 40
0
 40
0
 40
0
 40
0
 40
1
 40
1
 40
1
 40
1
 10
109.752080
 20
716.446740
 30
0.0
 10
110.822512
 20
716.892884
 30
0.0
 10
111.979240
 20
717.469140
 30
0.0
 10
112.890232
 20
718.235652
 30
0.0
  0
LINE
  5
32e
100
AcDbEntity
  8
Layer_1
 62
7
100
AcDbLine
 10
112.890232
 20
718.235652
 30
0.0
 11
112.769008
 21
718.340548
 31
0.0
  0
LINE
  5
32f
100
AcDbEntity
  8
Layer_1
 62
7
100
AcDbLine
 10
112.769008
 20
718.340548
 30
0.0
 11
112.769040
 21
718.340548
 31
0.0
  0
SPLINE
  5
330
100
AcDbEntity
  8
Layer_1
 62
7
100
AcDbSpline
 70
8
 71
3
 72
8
 73
4
 74
0
 40
0
 40
0
 40
0
 40
0
 40
1
 40
1
 40
1
 40
1
 10
114.323600
 20
721.173772
 30
0.0
 10
114.298160
 20
720.024540
 30
0.0
 10
113.658416
 20
719.088876
 30
0.0
 10
112.769040
 20
718.340548
 30
0.0
  0
LINE
  5
331
100
AcDbEntity
  8
Layer_1
 62
7
100
AcDbLine
 10
112.769040
 20
718.340548
 30
0.0
 11
112.890264
 21
718.235652
 31
0.0
  0
SPLINE
  5
332
100
AcDbEntity
  8
Layer_1
 62
7
100
AcDbSpline
 70
8
 71
3
 72
8
 73
4
 74
0
 40
0
 40
0
 40
0
 40
0
 40
1
 40
1
 40
1
 40
1
 10
112.890264
 20
718.235652
 30
0.0
 10
113.801552
 20
719.002428
 30
0.0
 10
114.470072
 20
719.976356
 30
0.0
 10
114.496480
 20
721.170892
 30
0.0
  0
LINE
  5
333
100
AcDbEntity
  8
Layer_1
 62
7
100
AcDbLine
 10
114.496480
 20
721.170892
 30
0.0
 11
114.323600
 21
721.174092
 31
0.0
  0
LINE
  5
334
100
AcDbEntity
  8
Layer_1
 62
7
100
AcDbLine
 10
114.323600
 20
721.174092
 30
0.0
 11
114.323600
 21
721.173772
 31
0.0
  0
LINE
  5
335
100
AcDbEntity
  8
Layer_1
 62
7
100
AcDbLine
 10
109.713280
 20
716.586788
 30
0.0
 11
109.713280
 21
716.439244
 31
0.0
  0
LINE
  5
336
100
AcDbEntity
  8
Layer_1
 62
7
100
AcDbLine
 10
109.713280
 20
716.439244
 30
0.0
 11
109.714080
 21
716.439244
 31
0.0
  0
LINE
  5
337
100
AcDbEntity
  8
Layer_1
 62
7
100
AcDbLine
 10
109.714080
 20
716.439244
 30
0.0
 11
109.714080
 21
716.586788
 31
0.0
  0
LINE
  5
338
100
AcDbEntity
  8
Layer_1
 62
7
100
AcDbLine
 10
109.714080
 20
716.586788
 30
0.0
 11
109.713280
 21
716.586788
 31
0.0
  0
LINE
  5
339
100
AcDbEntity
  8
Layer_1
 62
7
100
AcDbLine
 10
109.713280
 20
716.586788
 30
0.0
 11
109.713280
 21
716.586788
 31
0.0
  0
LINE
  5
33a
100
AcDbEntity
  8
Layer_1
 62
7
100
AcDbLine
 10
113.285992
 20
723.914492
 30
0.0
 11
113.156328
 21
723.816804
 31
0.0
  0
SPLINE
  5
33b
100
AcDbEntity
  8
Layer_1
 62
7
100
AcDbSpline
 70
8
 71
3
 72
8
 73
4
 74
0
 40
0
 40
0
 40
0
 40
0
 40
1
 40
1
 40
1
 40
1
 10
113.156328
 20
723.816804
 30
0.0
 10
113.915664
 20
723.082372
 30
0.0
 10
114.323600
 20
722.169772
 30
0.0
 10
114.323600
 20
721.176652
 30
0.0
  0
LINE
  5
33c
100
AcDbEntity
  8
Layer_1
 62
7
100
AcDbLine
 10
114.323600
 20
721.176652
 30
0.0
 11
114.496480
 21
721.176652
 31
0.0
  0
SPLINE
  5
33d
100
AcDbEntity
  8
Layer_1
 62
7
100
AcDbSpline
 70
8
 71
3
 72
8
 73
4
 74
0
 40
0
 40
0
 40
0
 40
0
 40
1
 40
1
 40
1
 40
1
 10
114.496480
 20
721.176652
 30
0.0
 10
114.496480
 20
722.204332
 30
0.0
 10
114.072088
 20
723.154172
 30
0.0
 10
113.285992
 20
723.914492
 30
0.0
  0
LINE
  5
33e
100
AcDbEntity
  8
Layer_1
 62
7
100
AcDbLine
 10
113.285992
 20
723.914492
 30
0.0
 11
113.285992
 21
723.914492
 31
0.0
  0
LINE
  5
33f
100
AcDbEntity
  8
Layer_1
 62
7
100
AcDbLine
 10
114.323600
 20
721.176652
 30
0.0
 11
114.323600
 21
721.174252
 31
0.0
  0
LINE
  5
340
100
AcDbEntity
  8
Layer_1
 62
7
100
AcDbLine
 10
114.323600
 20
721.174252
 30
0.0
 11
114.323600
 21
721.172652
 31
0.0
  0
LINE
  5
341
100
AcDbEntity
  8
Layer_1
 62
7
100
AcDbLine
 10
114.323600
 20
721.172652
 30
0.0
 11
114.496480
 21
721.172652
 31
0.0
  0
LINE
  5
342
100
AcDbEntity
  8
Layer_1
 62
7
100
AcDbLine
 10
114.496480
 20
721.172652
 30
0.0
 11
114.496480
 21
721.176652
 31
0.0
  0
LINE
  5
343
100
AcDbEntity
  8
Layer_1
 62
7
100
AcDbLine
 10
114.496480
 20
721.176652
 30
0.0
 11
114.323600
 21
721.176652
 31
0.0
  0
LINE
  5
344
100
AcDbEntity
  8
Layer_1
 62
7
100
AcDbLine
 10
114.323600
 20
721.176652
 30
0.0
 11
114.323600
 21
721.176652
 31
0.0
  0
LINE
  5
345
100
AcDbEntity
  8
Layer_1
 62
7
100
AcDbLine
 10
112.368248
 20
725.105476
 30
0.0
 11
112.205840
 21
725.054756
 31
0.0
  0
SPLINE
  5
346
100
AcDbEntity
  8
Layer_1
 62
7
100
AcDbSpline
 70
8
 71
3
 72
8
 73
4
 74
0
 40
0
 40
0
 40
0
 40
0
 40
1
 40
1
 40
1
 40
1
 10
112.205840
 20
725.054756
 30
0.0
 10
112.389640
 20
724.628300
 30
0.0
 10
112.769392
 20
724.209668
 30
0.0
 10
113.159032
 20
723.814788
 30
0.0
  0
LINE
  5
347
100
AcDbEntity
  8
Layer_1
 62
7
100
AcDbLine
 10
113.159032
 20
723.814788
 30
0.0
 11
113.291056
 21
723.909596
 31
0.0
  0
SPLINE
  5
348
100
AcDbEntity
  8
Layer_1
 62
7
100
AcDbSpline
 70
8
 71
3
 72
8
 73
4
 74
0
 40
0
 40
0
 40
0
 40
0
 40
1
 40
1
 40
1
 40
1
 10
113.291056
 20
723.909596
 30
0.0
 10
112.904800
 20
724.301044
 30
0.0
 10
112.537856
 20
724.711948
 30
0.0
 10
112.368248
 20
725.105476
 30
0.0
  0
LINE
  5
349
100
AcDbEntity
  8
Layer_1
 62
7
100
AcDbLine
 10
112.368248
 20
725.105476
 30
0.0
 11
112.368248
 21
725.105476
 31
0.0
  0
SPLINE
  5
34a
100
AcDbEntity
  8
Layer_1
 62
7
100
AcDbSpline
 70
8
 71
3
 72
8
 73
4
 74
0
 40
0
 40
0
 40
0
 40
0
 40
1
 40
1
 40
1
 40
1
 10
112.385472
 20
726.370804
 30
0.0
 10
112.020552
 20
725.903660
 30
0.0
 10
112.023200
 20
725.478524
 30
0.0
 10
112.205840
 20
725.054756
 30
0.0
  0
LINE
  5
34b
100
AcDbEntity
  8
Layer_1
 62
7
100
AcDbLine
 10
112.205840
 20
725.054756
 30
0.0
 11
112.368248
 21
725.105476
 31
0.0
  0
SPLINE
  5
34c
100
AcDbEntity
  8
Layer_1
 62
7
100
AcDbSpline
 70
8
 71
3
 72
8
 73
4
 74
0
 40
0
 40
0
 40
0
 40
0
 40
1
 40
1
 40
1
 40
1
 10
112.368248
 20
725.105476
 30
0.0
 10
112.197488
 20
725.501684
 30
0.0
 10
112.190296
 20
725.854972
 30
0.0
 10
112.529312
 20
726.288964
 30
0.0
  0
LINE
  5
34d
100
AcDbEntity
  8
Layer_1
 62
7
100
AcDbLine
 10
112.529312
 20
726.288964
 30
0.0
 11
112.385472
 21
726.370804
 31
0.0
  0
LINE
  5
34e
100
AcDbEntity
  8
Layer_1
 62
7
100
AcDbLine
 10
112.385472
 20
726.370804
 30
0.0
 11
112.385472
 21
726.370804
 31
0.0
  0
SPLINE
  5
34f
100
AcDbEntity
  8
Layer_1
 62
7
100
AcDbSpline
 70
8
 71
3
 72
8
 73
4
 74
0
 40
0
 40
0
 40
0
 40
0
 40
1
 40
1
 40
1
 40
1
 10
115.342976
 20
728.474100
 30
0.0
 10
114.386968
 20
727.787452
 30
0.0
 10
113.036184
 20
727.203804
 30
0.0
 10
112.385472
 20
726.370804
 30
0.0
  0
LINE
  5
350
100
AcDbEntity
  8
Layer_1
 62
7
100
AcDbLine
 10
112.385472
 20
726.370804
 30
0.0
 11
112.529312
 21
726.288964
 31
0.0
  0
SPLINE
  5
351
100
AcDbEntity
  8
Layer_1
 62
7
100
AcDbSpline
 70
8
 71
3
 72
8
 73
4
 74
0
 40
0
 40
0
 40
0
 40
0
 40
1
 40
1
 40
1
 40
1
 10
112.529312
 20
726.288964
 30
0.0
 10
113.138544
 20
727.068868
 30
0.0
 10
114.474728
 20
727.657780
 30
0.0
 10
115.454408
 20
728.361428
 30
0.0
  0
LINE
  5
352
100
AcDbEntity
  8
Layer_1
 62
7
100
AcDbLine
 10
115.454408
 20
728.361428
 30
0.0
 11
115.342976
 21
728.474100
 31
0.0
  0
LINE
  5
353
100
AcDbEntity
  8
Layer_1
 62
7
100
AcDbLine
 10
115.342976
 20
728.474100
 30
0.0
 11
115.342976
 21
728.474100
 31
0.0
  0
LINE
  5
354
100
AcDbEntity
  8
Layer_1
 62
7
100
AcDbLine
 10
113.282280
 20
723.917660
 30
0.0
 11
113.160048
 21
723.813348
 31
0.0
  0
LINE
  5
355
100
AcDbEntity
  8
Layer_1
 62
7
100
AcDbLine
 10
113.160048
 20
723.813348
 30
0.0
 11
113.164048
 21
723.810148
 31
0.0
  0
LINE
  5
356
100
AcDbEntity
  8
Layer_1
 62
7
100
AcDbLine
 10
113.164048
 20
723.810148
 30
0.0
 11
113.286280
 21
723.914460
 31
0.0
  0
LINE
  5
357
100
AcDbEntity
  8
Layer_1
 62
7
100
AcDbLine
 10
113.286280
 20
723.914460
 30
0.0
 11
113.282280
 21
723.917660
 31
0.0
  0
LINE
  5
358
100
AcDbEntity
  8
Layer_1
 62
7
100
AcDbLine
 10
113.282280
 20
723.917660
 30
0.0
 11
113.282280
 21
723.917660
 31
0.0
  0
SPLINE
  5
359
100
AcDbEntity
  8
Layer_1
 62
7
100
AcDbSpline
 70
8
 71
3
 72
8
 73
4
 74
0
 40
0
 40
0
 40
0
 40
0
 40
1
 40
1
 40
1
 40
1
 10
118.494296
 20
731.037028
 30
0.0
 10
117.510216
 20
730.113356
 30
0.0
 10
116.477032
 20
729.273268
 30
0.0
 10
115.345680
 20
728.475548
 30
0.0
  0
LINE
  5
35a
100
AcDbEntity
  8
Layer_1
 62
7
100
AcDbLine
 10
115.345680
 20
728.475548
 30
0.0
 11
115.455752
 21
728.361724
 31
0.0
  0
SPLINE
  5
35b
100
AcDbEntity
  8
Layer_1
 62
7
100
AcDbSpline
 70
8
 71
3
 72
8
 73
4
 74
0
 40
0
 40
0
 40
0
 40
0
 40
1
 40
1
 40
1
 40
1
 10
115.455752
 20
728.361724
 30
0.0
 10
116.593224
 20
729.163756
 30
0.0
 10
117.632776
 20
730.009148
 30
0.0
 10
118.622272
 20
730.937900
 30
0.0
  0
LINE
  5
35c
100
AcDbEntity
  8
Layer_1
 62
7
100
AcDbLine
 10
118.622272
 20
730.937900
 30
0.0
 11
118.494296
 21
731.037028
 31
0.0
  0
LINE
  5
35d
100
AcDbEntity
  8
Layer_1
 62
7
100
AcDbLine
 10
118.494296
 20
731.037028
 30
0.0
 11
118.494296
 21
731.037028
 31
0.0
  0
SPLINE
  5
35e
100
AcDbEntity
  8
Layer_1
 62
7
100
AcDbSpline
 70
8
 71
3
 72
8
 73
4
 74
0
 40
0
 40
0
 40
0
 40
0
 40
1
 40
1
 40
1
 40
1
 10
127.494792
 20
743.461196
 30
0.0
 10
125.575224
 20
738.883772
 30
0.0
 10
122.379232
 20
734.604596
 30
0.0
 10
118.494976
 20
731.037892
 30
0.0
  0
LINE
  5
35f
100
AcDbEntity
  8
Layer_1
 62
7
100
AcDbLine
 10
118.494976
 20
731.037892
 30
0.0
 11
118.621592
 21
730.937324
 31
0.0
  0
SPLINE
  5
360
100
AcDbEntity
  8
Layer_1
 62
7
100
AcDbSpline
 70
8
 71
3
 72
8
 73
4
 74
0
 40
0
 40
0
 40
0
 40
0
 40
1
 40
1
 40
1
 40
1
 10
118.621592
 20
730.937324
 30
0.0
 10
122.520600
 20
734.517564
 30
0.0
 10
125.728984
 20
738.812476
 30
0.0
 10
127.657536
 20
743.411348
 30
0.0
  0
LINE
  5
361
100
AcDbEntity
  8
Layer_1
 62
7
100
AcDbLine
 10
127.657536
 20
743.411348
 30
0.0
 11
127.494792
 21
743.461188
 31
0.0
  0
LINE
  5
362
100
AcDbEntity
  8
Layer_1
 62
7
100
AcDbLine
 10
127.494792
 20
743.461188
 30
0.0
 11
127.494792
 21
743.461196
 31
0.0
  0
LINE
  5
363
100
AcDbEntity
  8
Layer_1
 62
7
100
AcDbLine
 10
115.360192
 20
728.483900
 30
0.0
 11
115.357792
 21
728.483140
 31
0.0
  0
LINE
  5
364
100
AcDbEntity
  8
Layer_1
 62
7
100
AcDbLine
 10
115.357792
 20
728.483140
 30
0.0
 11
115.438832
 21
728.352604
 31
0.0
  0
LINE
  5
365
100
AcDbEntity
  8
Layer_1
 62
7
100
AcDbLine
 10
115.438832
 20
728.352604
 30
0.0
 11
115.441232
 21
728.353364
 31
0.0
  0
LINE
  5
366
100
AcDbEntity
  8
Layer_1
 62
7
100
AcDbLine
 10
115.441232
 20
728.353364
 30
0.0
 11
115.360192
 21
728.483900
 31
0.0
  0
LINE
  5
367
100
AcDbEntity
  8
Layer_1
 62
7
100
AcDbLine
 10
115.360192
 20
728.483900
 30
0.0
 11
115.360192
 21
728.483900
 31
0.0
  0
SPLINE
  5
368
100
AcDbEntity
  8
Layer_1
 62
7
100
AcDbSpline
 70
8
 71
3
 72
8
 73
4
 74
0
 40
0
 40
0
 40
0
 40
0
 40
1
 40
1
 40
1
 40
1
 10
129.903272
 20
750.421500
 30
0.0
 10
129.265224
 20
748.075828
 30
0.0
 10
128.478592
 20
745.728564
 30
0.0
 10
127.496144
 20
743.464372
 30
0.0
  0
LINE
  5
369
100
AcDbEntity
  8
Layer_1
 62
7
100
AcDbLine
 10
127.496144
 20
743.464372
 30
0.0
 11
127.658216
 21
743.413092
 31
0.0
  0
SPLINE
  5
36a
100
AcDbEntity
  8
Layer_1
 62
7
100
AcDbSpline
 70
8
 71
3
 72
8
 73
4
 74
0
 40
0
 40
0
 40
0
 40
0
 40
1
 40
1
 40
1
 40
1
 10
127.658216
 20
743.413092
 30
0.0
 10
128.643744
 20
745.684388
 30
0.0
 10
129.432040
 20
748.037524
 30
0.0
 10
130.071424
 20
750.388092
 30
0.0
  0
LINE
  5
36b
100
AcDbEntity
  8
Layer_1
 62
7
100
AcDbLine
 10
130.071424
 20
750.388092
 30
0.0
 11
129.903272
 21
750.421532
 31
0.0
  0
LINE
  5
36c
100
AcDbEntity
  8
Layer_1
 62
7
100
AcDbLine
 10
129.903272
 20
750.421532
 30
0.0
 11
129.903272
 21
750.421500
 31
0.0
  0
SPLINE
  5
36d
100
AcDbEntity
  8
Layer_1
 62
7
100
AcDbSpline
 70
8
 71
3
 72
8
 73
4
 74
0
 40
0
 40
0
 40
0
 40
0
 40
1
 40
1
 40
1
 40
1
 10
130.592760
 20
758.231020
 30
0.0
 10
130.592760
 20
755.596180
 30
0.0
 10
130.594360
 20
752.991876
 30
0.0
 10
129.902936
 20
750.421212
 30
0.0
  0
LINE
  5
36e
100
AcDbEntity
  8
Layer_1
 62
7
100
AcDbLine
 10
129.902936
 20
750.421212
 30
0.0
 11
130.071424
 21
750.388412
 31
0.0
  0
SPLINE
  5
36f
100
AcDbEntity
  8
Layer_1
 62
7
100
AcDbSpline
 70
8
 71
3
 72
8
 73
4
 74
0
 40
0
 40
0
 40
0
 40
0
 40
1
 40
1
 40
1
 40
1
 10
130.071424
 20
750.388412
 30
0.0
 10
130.768440
 20
752.980284
 30
0.0
 10
130.765640
 20
755.596308
 30
0.0
 10
130.765640
 20
758.231076
 30
0.0
  0
LINE
  5
370
100
AcDbEntity
  8
Layer_1
 62
7
100
AcDbLine
 10
130.765640
 20
758.231076
 30
0.0
 11
130.592760
 21
758.231076
 31
0.0
  0
LINE
  5
371
100
AcDbEntity
  8
Layer_1
 62
7
100
AcDbLine
 10
130.592760
 20
758.231076
 30
0.0
 11
130.592760
 21
758.231020
 31
0.0
  0
LINE
  5
372
100
AcDbEntity
  8
Layer_1
 62
7
100
AcDbLine
 10
129.873560
 20
766.038517
 30
0.0
 11
129.706760
 21
765.998749
 31
0.0
  0
SPLINE
  5
373
100
AcDbEntity
  8
Layer_1
 62
7
100
AcDbSpline
 70
8
 71
3
 72
8
 73
4
 74
0
 40
0
 40
0
 40
0
 40
0
 40
1
 40
1
 40
1
 40
1
 10
129.706760
 20
765.998749
 30
0.0
 10
130.544944
 20
763.428353
 30
0.0
 10
130.592760
 20
760.865304
 30
0.0
 10
130.592760
 20
758.231016
 30
0.0
  0
LINE
  5
374
100
AcDbEntity
  8
Layer_1
 62
7
100
AcDbLine
 10
130.592760
 20
758.231016
 30
0.0
 11
130.765640
 21
758.231016
 31
0.0
  0
SPLINE
  5
375
100
AcDbEntity
  8
Layer_1
 62
7
100
AcDbSpline
 70
8
 71
3
 72
8
 73
4
 74
0
 40
0
 40
0
 40
0
 40
0
 40
1
 40
1
 40
1
 40
1
 10
130.765640
 20
758.231016
 30
0.0
 10
130.765640
 20
760.866808
 30
0.0
 10
130.719240
 20
763.445121
 30
0.0
 10
129.873560
 20
766.038513
 30
0.0
  0
LINE
  5
376
100
AcDbEntity
  8
Layer_1
 62
7
100
AcDbLine
 10
129.873560
 20
766.038513
 30
0.0
 11
129.873560
 21
766.038517
 31
0.0
  0
LINE
  5
377
100
AcDbEntity
  8
Layer_1
 62
7
100
AcDbLine
 10
127.495800
 20
743.463220
 30
0.0
 11
127.495000
 21
743.460820
 31
0.0
  0
LINE
  5
378
100
AcDbEntity
  8
Layer_1
 62
7
100
AcDbLine
 10
127.495000
 20
743.460820
 30
0.0
 11
127.658088
 21
743.411860
 31
0.0
  0
LINE
  5
379
100
AcDbEntity
  8
Layer_1
 62
7
100
AcDbLine
 10
127.658088
 20
743.411860
 30
0.0
 11
127.658888
 21
743.414260
 31
0.0
  0
LINE
  5
37a
100
AcDbEntity
  8
Layer_1
 62
7
100
AcDbLine
 10
127.658888
 20
743.414260
 30
0.0
 11
127.495800
 21
743.463220
 31
0.0
  0
LINE
  5
37b
100
AcDbEntity
  8
Layer_1
 62
7
100
AcDbLine
 10
127.495800
 20
743.463220
 30
0.0
 11
127.495800
 21
743.463220
 31
0.0
  0
LINE
  5
37c
100
AcDbEntity
  8
Layer_1
 62
7
100
AcDbLine
 10
129.293136
 20
767.968635
 30
0.0
 11
129.121608
 21
767.950195
 31
0.0
  0
SPLINE
  5
37d
100
AcDbEntity
  8
Layer_1
 62
7
100
AcDbSpline
 70
8
 71
3
 72
8
 73
4
 74
0
 40
0
 40
0
 40
0
 40
0
 40
1
 40
1
 40
1
 40
1
 10
129.121608
 20
767.950195
 30
0.0
 10
129.216072
 20
767.305281
 30
0.0
 10
129.504944
 20
766.685249
 30
0.0
 10
129.704400
 20
766.006532
 30
0.0
  0
LINE
  5
37e
100
AcDbEntity
  8
Layer_1
 62
7
100
AcDbLine
 10
129.704400
 20
766.006532
 30
0.0
 11
129.872208
 21
766.042260
 31
0.0
  0
SPLINE
  5
37f
100
AcDbEntity
  8
Layer_1
 62
7
100
AcDbSpline
 70
8
 71
3
 72
8
 73
4
 74
0
 40
0
 40
0
 40
0
 40
0
 40
1
 40
1
 40
1
 40
1
 10
129.872208
 20
766.042260
 30
0.0
 10
129.669296
 20
766.732778
 30
0.0
 10
129.383864
 20
767.349226
 30
0.0
 10
129.293136
 20
767.968629
 30
0.0
  0
LINE
  5
380
100
AcDbEntity
  8
Layer_1
 62
7
100
AcDbLine
 10
129.293136
 20
767.968629
 30
0.0
 11
129.293136
 21
767.968635
 31
0.0
  0
LINE
  5
381
100
AcDbEntity
  8
Layer_1
 62
7
100
AcDbLine
 10
129.871192
 20
766.045145
 30
0.0
 11
129.705072
 21
766.003649
 31
0.0
  0
LINE
  5
382
100
AcDbEntity
  8
Layer_1
 62
7
100
AcDbLine
 10
129.705072
 20
766.003649
 30
0.0
 11
129.707472
 21
765.998129
 31
0.0
  0
LINE
  5
383
100
AcDbEntity
  8
Layer_1
 62
7
100
AcDbLine
 10
129.707472
 20
765.998129
 30
0.0
 11
129.873600
 21
766.039337
 31
0.0
  0
LINE
  5
384
100
AcDbEntity
  8
Layer_1
 62
7
100
AcDbLine
 10
129.873600
 20
766.039337
 30
0.0
 11
129.871200
 21
766.045097
 31
0.0
  0
LINE
  5
385
100
AcDbEntity
  8
Layer_1
 62
7
100
AcDbLine
 10
129.871200
 20
766.045097
 30
0.0
 11
129.871192
 21
766.045145
 31
0.0
  0
LINE
  5
386
100
AcDbEntity
  8
Layer_1
 62
7
100
AcDbLine
 10
128.940960
 20
769.764471
 30
0.0
 11
128.774832
 21
769.724127
 31
0.0
  0
SPLINE
  5
387
100
AcDbEntity
  8
Layer_1
 62
7
100
AcDbSpline
 70
8
 71
3
 72
8
 73
4
 74
0
 40
0
 40
0
 40
0
 40
0
 40
1
 40
1
 40
1
 40
1
 10
128.774832
 20
769.724127
 30
0.0
 10
128.975712
 20
769.122462
 30
0.0
 10
129.023776
 20
768.530934
 30
0.0
 10
129.120592
 20
767.952499
 30
0.0
  0
LINE
  5
388
100
AcDbEntity
  8
Layer_1
 62
7
100
AcDbLine
 10
129.120592
 20
767.952499
 30
0.0
 11
129.291784
 21
767.973259
 31
0.0
  0
SPLINE
  5
389
100
AcDbEntity
  8
Layer_1
 62
7
100
AcDbSpline
 70
8
 71
3
 72
8
 73
4
 74
0
 40
0
 40
0
 40
0
 40
0
 40
1
 40
1
 40
1
 40
1
 10
129.291784
 20
767.973259
 30
0.0
 10
129.196184
 20
768.544396
 30
0.0
 10
129.147984
 20
769.144396
 30
0.0
 10
128.940960
 20
769.764481
 30
0.0
  0
LINE
  5
38a
100
AcDbEntity
  8
Layer_1
 62
7
100
AcDbLine
 10
128.940960
 20
769.764481
 30
0.0
 11
128.940960
 21
769.764471
 31
0.0
  0
LINE
  5
38b
100
AcDbEntity
  8
Layer_1
 62
7
100
AcDbLine
 10
129.282664
 20
767.997456
 30
0.0
 11
129.193184
 21
767.967480
 31
0.0
  0
LINE
  5
38c
100
AcDbEntity
  8
Layer_1
 62
7
100
AcDbLine
 10
129.193184
 20
767.967480
 30
0.0
 11
129.274904
 21
767.976696
 31
0.0
  0
LINE
  5
38d
100
AcDbEntity
  8
Layer_1
 62
7
100
AcDbLine
 10
129.274904
 20
767.976696
 30
0.0
 11
129.188128
 21
767.947896
 31
0.0
  0
LINE
  5
38e
100
AcDbEntity
  8
Layer_1
 62
7
100
AcDbLine
 10
129.188128
 20
767.947896
 30
0.0
 11
129.293808
 21
767.959400
 31
0.0
  0
LINE
  5
38f
100
AcDbEntity
  8
Layer_1
 62
7
100
AcDbLine
 10
129.293808
 20
767.959400
 30
0.0
 11
129.293808
 21
767.979592
 31
0.0
  0
LINE
  5
390
100
AcDbEntity
  8
Layer_1
 62
7
100
AcDbLine
 10
129.293808
 20
767.979592
 30
0.0
 11
129.282688
 21
767.997456
 31
0.0
  0
LINE
  5
391
100
AcDbEntity
  8
Layer_1
 62
7
100
AcDbLine
 10
129.282688
 20
767.997456
 30
0.0
 11
129.282664
 21
767.997456
 31
0.0
  0
LINE
  5
392
100
AcDbEntity
  8
Layer_1
 62
7
100
AcDbLine
 10
127.517416
 20
773.493597
 30
0.0
 11
127.351624
 21
773.451237
 31
0.0
  0
SPLINE
  5
393
100
AcDbEntity
  8
Layer_1
 62
7
100
AcDbSpline
 70
8
 71
3
 72
8
 73
4
 74
0
 40
0
 40
0
 40
0
 40
0
 40
1
 40
1
 40
1
 40
1
 10
127.351624
 20
773.451237
 30
0.0
 10
127.789424
 20
772.205805
 30
0.0
 10
128.377808
 20
770.992702
 30
0.0
 10
128.773488
 20
769.727013
 30
0.0
  0
LINE
  5
394
100
AcDbEntity
  8
Layer_1
 62
7
100
AcDbLine
 10
128.773488
 20
769.727013
 30
0.0
 11
128.940288
 21
769.765069
 31
0.0
  0
SPLINE
  5
395
100
AcDbEntity
  8
Layer_1
 62
7
100
AcDbSpline
 70
8
 71
3
 72
8
 73
4
 74
0
 40
0
 40
0
 40
0
 40
0
 40
1
 40
1
 40
1
 40
1
 10
128.940288
 20
769.765069
 30
0.0
 10
128.540720
 20
771.043207
 30
0.0
 10
127.951832
 20
772.257810
 30
0.0
 10
127.517416
 20
773.493620
 30
0.0
  0
LINE
  5
396
100
AcDbEntity
  8
Layer_1
 62
7
100
AcDbLine
 10
127.517416
 20
773.493620
 30
0.0
 11
127.517416
 21
773.493597
 31
0.0
  0
LINE
  5
397
100
AcDbEntity
  8
Layer_1
 62
7
100
AcDbLine
 10
128.933192
 20
769.780610
 30
0.0
 11
128.780576
 21
769.711450
 31
0.0
  0
LINE
  5
398
100
AcDbEntity
  8
Layer_1
 62
7
100
AcDbLine
 10
128.780576
 20
769.711450
 30
0.0
 11
128.781376
 21
769.709530
 31
0.0
  0
LINE
  5
399
100
AcDbEntity
  8
Layer_1
 62
7
100
AcDbLine
 10
128.781376
 20
769.709530
 30
0.0
 11
128.934000
 21
769.778690
 31
0.0
  0
LINE
  5
39a
100
AcDbEntity
  8
Layer_1
 62
7
100
AcDbLine
 10
128.934000
 20
769.778690
 30
0.0
 11
128.933200
 21
769.780610
 31
0.0
  0
LINE
  5
39b
100
AcDbEntity
  8
Layer_1
 62
7
100
AcDbLine
 10
128.933200
 20
769.780610
 30
0.0
 11
128.933192
 21
769.780610
 31
0.0
  0
LINE
  5
39c
100
AcDbEntity
  8
Layer_1
 62
7
100
AcDbLine
 10
125.933816
 20
776.916402
 30
0.0
 11
125.776808
 21
776.854442
 31
0.0
  0
SPLINE
  5
39d
100
AcDbEntity
  8
Layer_1
 62
7
100
AcDbSpline
 70
8
 71
3
 72
8
 73
4
 74
0
 40
0
 40
0
 40
0
 40
0
 40
1
 40
1
 40
1
 40
1
 10
125.776808
 20
776.854442
 30
0.0
 10
126.367088
 20
775.762709
 30
0.0
 10
126.908024
 20
774.588132
 30
0.0
 10
127.350616
 20
773.454980
 30
0.0
  0
LINE
  5
39e
100
AcDbEntity
  8
Layer_1
 62
7
100
AcDbLine
 10
127.350616
 20
773.454980
 30
0.0
 11
127.514712
 21
773.501660
 31
0.0
  0
SPLINE
  5
39f
100
AcDbEntity
  8
Layer_1
 62
7
100
AcDbSpline
 70
8
 71
3
 72
8
 73
4
 74
0
 40
0
 40
0
 40
0
 40
0
 40
1
 40
1
 40
1
 40
1
 10
127.514712
 20
773.501660
 30
0.0
 10
127.070096
 20
774.640008
 30
0.0
 10
126.527024
 20
775.819247
 30
0.0
 10
125.933816
 20
776.916397
 30
0.0
  0
LINE
  5
3a0
100
AcDbEntity
  8
Layer_1
 62
7
100
AcDbLine
 10
125.933816
 20
776.916397
 30
0.0
 11
125.933816
 21
776.916402
 31
0.0
  0
LINE
  5
3a1
100
AcDbEntity
  8
Layer_1
 62
7
100
AcDbLine
 10
127.515720
 20
773.498496
 30
0.0
 11
127.351288
 21
773.453832
 31
0.0
  0
LINE
  5
3a2
100
AcDbEntity
  8
Layer_1
 62
7
100
AcDbLine
 10
127.351288
 20
773.453832
 30
0.0
 11
127.356888
 21
773.460232
 31
0.0
  0
LINE
  5
3a3
100
AcDbEntity
  8
Layer_1
 62
7
100
AcDbLine
 10
127.356888
 20
773.460232
 30
0.0
 11
127.348888
 21
773.458312
 31
0.0
  0
LINE
  5
3a4
100
AcDbEntity
  8
Layer_1
 62
7
100
AcDbLine
 10
127.348888
 20
773.458312
 30
0.0
 11
127.350488
 21
773.453672
 31
0.0
  0
LINE
  5
3a5
100
AcDbEntity
  8
Layer_1
 62
7
100
AcDbLine
 10
127.350488
 20
773.453672
 30
0.0
 11
127.368728
 21
773.398920
 31
0.0
  0
LINE
  5
3a6
100
AcDbEntity
  8
Layer_1
 62
7
100
AcDbLine
 10
127.368728
 20
773.398920
 30
0.0
 11
127.546328
 21
773.398920
 31
0.0
  0
LINE
  5
3a7
100
AcDbEntity
  8
Layer_1
 62
7
100
AcDbLine
 10
127.546328
 20
773.398920
 30
0.0
 11
127.517608
 21
773.491423
 31
0.0
  0
LINE
  5
3a8
100
AcDbEntity
  8
Layer_1
 62
7
100
AcDbLine
 10
127.517608
 20
773.491423
 30
0.0
 11
127.515208
 21
773.497823
 31
0.0
  0
LINE
  5
3a9
100
AcDbEntity
  8
Layer_1
 62
7
100
AcDbLine
 10
127.515208
 20
773.497823
 30
0.0
 11
127.514864
 21
773.498585
 31
0.0
  0
LINE
  5
3aa
100
AcDbEntity
  8
Layer_1
 62
7
100
AcDbLine
 10
127.514864
 20
773.498585
 30
0.0
 11
127.515720
 21
773.498496
 31
0.0
  0
LINE
  5
3ab
100
AcDbEntity
  8
Layer_1
 62
7
100
AcDbLine
 10
124.109816
 20
780.280134
 30
0.0
 11
123.957872
 21
780.210110
 31
0.0
  0
SPLINE
  5
3ac
100
AcDbEntity
  8
Layer_1
 62
7
100
AcDbSpline
 70
8
 71
3
 72
8
 73
4
 74
0
 40
0
 40
0
 40
0
 40
0
 40
1
 40
1
 40
1
 40
1
 10
123.957872
 20
780.210110
 30
0.0
 10
124.648768
 20
779.115073
 30
0.0
 10
125.189192
 20
777.983789
 30
0.0
 10
125.775456
 20
776.857905
 30
0.0
  0
LINE
  5
3ad
100
AcDbEntity
  8
Layer_1
 62
7
100
AcDbLine
 10
125.775456
 20
776.857905
 30
0.0
 11
125.933144
 21
776.917841
 31
0.0
  0
SPLINE
  5
3ae
100
AcDbEntity
  8
Layer_1
 62
7
100
AcDbSpline
 70
8
 71
3
 72
8
 73
4
 74
0
 40
0
 40
0
 40
0
 40
0
 40
1
 40
1
 40
1
 40
1
 10
125.933144
 20
776.917841
 30
0.0
 10
125.348328
 20
778.040941
 30
0.0
 10
124.806432
 20
779.176038
 30
0.0
 10
124.109816
 20
780.280133
 30
0.0
  0
LINE
  5
3af
100
AcDbEntity
  8
Layer_1
 62
7
100
AcDbLine
 10
124.109816
 20
780.280133
 30
0.0
 11
124.109816
 21
780.280134
 31
0.0
  0
LINE
  5
3b0
100
AcDbEntity
  8
Layer_1
 62
7
100
AcDbLine
 10
125.935840
 20
776.912365
 30
0.0
 11
125.772752
 21
776.863381
 31
0.0
  0
LINE
  5
3b1
100
AcDbEntity
  8
Layer_1
 62
7
100
AcDbLine
 10
125.772752
 20
776.863381
 30
0.0
 11
125.773552
 21
776.860741
 31
0.0
  0
LINE
  5
3b2
100
AcDbEntity
  8
Layer_1
 62
7
100
AcDbLine
 10
125.773552
 20
776.860741
 30
0.0
 11
125.936640
 21
776.910013
 31
0.0
  0
LINE
  5
3b3
100
AcDbEntity
  8
Layer_1
 62
7
100
AcDbLine
 10
125.936640
 20
776.910013
 30
0.0
 11
125.935840
 21
776.912333
 31
0.0
  0
LINE
  5
3b4
100
AcDbEntity
  8
Layer_1
 62
7
100
AcDbLine
 10
125.935840
 20
776.912333
 30
0.0
 11
125.935840
 21
776.912365
 31
0.0
  0
LINE
  5
3b5
100
AcDbEntity
  8
Layer_1
 62
7
100
AcDbLine
 10
124.109136
 20
780.281285
 30
0.0
 11
123.960912
 21
780.216165
 31
0.0
  0
LINE
  5
3b6
100
AcDbEntity
  8
Layer_1
 62
7
100
AcDbLine
 10
123.960912
 20
780.216165
 30
0.0
 11
123.963312
 21
780.219205
 31
0.0
  0
LINE
  5
3b7
100
AcDbEntity
  8
Layer_1
 62
7
100
AcDbLine
 10
123.963312
 20
780.219205
 30
0.0
 11
123.954912
 21
780.215365
 31
0.0
  0
LINE
  5
3b8
100
AcDbEntity
  8
Layer_1
 62
7
100
AcDbLine
 10
123.954912
 20
780.215365
 30
0.0
 11
123.955712
 21
780.213445
 31
0.0
  0
LINE
  5
3b9
100
AcDbEntity
  8
Layer_1
 62
7
100
AcDbLine
 10
123.955712
 20
780.213445
 30
0.0
 11
123.956512
 21
780.211525
 31
0.0
  0
LINE
  5
3ba
100
AcDbEntity
  8
Layer_1
 62
7
100
AcDbLine
 10
123.956512
 20
780.211525
 30
0.0
 11
123.957312
 21
780.209605
 31
0.0
  0
LINE
  5
3bb
100
AcDbEntity
  8
Layer_1
 62
7
100
AcDbLine
 10
123.957312
 20
780.209605
 30
0.0
 11
123.984032
 21
780.163789
 31
0.0
  0
LINE
  5
3bc
100
AcDbEntity
  8
Layer_1
 62
7
100
AcDbLine
 10
123.984032
 20
780.163789
 30
0.0
 11
124.167712
 21
780.186261
 31
0.0
  0
LINE
  5
3bd
100
AcDbEntity
  8
Layer_1
 62
7
100
AcDbLine
 10
124.167712
 20
780.186261
 30
0.0
 11
124.109952
 21
780.278760
 31
0.0
  0
LINE
  5
3be
100
AcDbEntity
  8
Layer_1
 62
7
100
AcDbLine
 10
124.109952
 20
780.278760
 30
0.0
 11
124.109152
 21
780.280680
 31
0.0
  0
LINE
  5
3bf
100
AcDbEntity
  8
Layer_1
 62
7
100
AcDbLine
 10
124.109152
 20
780.280680
 30
0.0
 11
124.109136
 21
780.281285
 31
0.0
  0
LINE
  5
3c0
100
AcDbEntity
  8
Layer_1
 62
7
100
AcDbLine
 10
123.831248
 20
744.642668
 30
0.0
 11
123.830448
 21
744.641908
 31
0.0
  0
LINE
  5
3c1
100
AcDbEntity
  8
Layer_1
 62
7
100
AcDbLine
 10
123.830448
 20
744.641908
 30
0.0
 11
123.829648
 21
744.641148
 31
0.0
  0
LINE
  5
3c2
100
AcDbEntity
  8
Layer_1
 62
7
100
AcDbLine
 10
123.829648
 20
744.641148
 30
0.0
 11
123.951544
 21
744.536828
 31
0.0
  0
LINE
  5
3c3
100
AcDbEntity
  8
Layer_1
 62
7
100
AcDbLine
 10
123.951544
 20
744.536828
 30
0.0
 11
123.952344
 21
744.537588
 31
0.0
  0
LINE
  5
3c4
100
AcDbEntity
  8
Layer_1
 62
7
100
AcDbLine
 10
123.952344
 20
744.537588
 30
0.0
 11
123.953944
 21
744.538356
 31
0.0
  0
LINE
  5
3c5
100
AcDbEntity
  8
Layer_1
 62
7
100
AcDbLine
 10
123.953944
 20
744.538356
 30
0.0
 11
123.831368
 21
744.642668
 31
0.0
  0
LINE
  5
3c6
100
AcDbEntity
  8
Layer_1
 62
7
100
AcDbLine
 10
123.831368
 20
744.642668
 30
0.0
 11
123.831248
 21
744.642668
 31
0.0
  0
LINE
  5
3c7
100
AcDbEntity
  8
Layer_1
 62
7
100
AcDbLine
 10
127.250328
 20
754.249172
 30
0.0
 11
127.353312
 21
754.224692
 31
0.0
  0
LINE
  5
3c8
100
AcDbEntity
  8
Layer_1
 62
7
100
AcDbLine
 10
127.353312
 20
754.224692
 30
0.0
 11
127.286832
 21
754.230292
 31
0.0
  0
LINE
  5
3c9
100
AcDbEntity
  8
Layer_1
 62
7
100
AcDbLine
 10
127.286832
 20
754.230292
 30
0.0
 11
127.377656
 21
754.208692
 31
0.0
  0
LINE
  5
3ca
100
AcDbEntity
  8
Layer_1
 62
7
100
AcDbLine
 10
127.377656
 20
754.208692
 30
0.0
 11
127.383256
 21
754.223092
 31
0.0
  0
LINE
  5
3cb
100
AcDbEntity
  8
Layer_1
 62
7
100
AcDbLine
 10
127.383256
 20
754.223092
 30
0.0
 11
127.383256
 21
754.237252
 31
0.0
  0
LINE
  5
3cc
100
AcDbEntity
  8
Layer_1
 62
7
100
AcDbLine
 10
127.383256
 20
754.237252
 30
0.0
 11
127.250216
 21
754.249092
 31
0.0
  0
LINE
  5
3cd
100
AcDbEntity
  8
Layer_1
 62
7
100
AcDbLine
 10
127.250216
 20
754.249092
 30
0.0
 11
127.250328
 21
754.249172
 31
0.0
  0
LINE
  5
3ce
100
AcDbEntity
  8
Layer_1
 62
7
100
AcDbLine
 10
126.937328
 20
767.319981
 30
0.0
 11
126.938128
 21
767.317341
 31
0.0
  0
LINE
  5
3cf
100
AcDbEntity
  8
Layer_1
 62
7
100
AcDbLine
 10
126.938128
 20
767.317341
 30
0.0
 11
126.937784
 21
767.319981
 31
0.0
  0
LINE
  5
3d0
100
AcDbEntity
  8
Layer_1
 62
7
100
AcDbLine
 10
126.937784
 20
767.319981
 30
0.0
 11
126.937440
 21
767.319981
 31
0.0
  0
LINE
  5
3d1
100
AcDbEntity
  8
Layer_1
 62
7
100
AcDbLine
 10
126.937440
 20
767.319981
 30
0.0
 11
126.937328
 21
767.319981
 31
0.0
  0
LINE
  5
3d2
100
AcDbEntity
  8
Layer_1
 62
7
100
AcDbLine
 10
126.912688
 20
767.318461
 30
0.0
 11
126.765472
 21
767.310389
 31
0.0
  0
LINE
  5
3d3
100
AcDbEntity
  8
Layer_1
 62
7
100
AcDbLine
 10
126.765472
 20
767.310389
 30
0.0
 11
126.765472
 21
767.297437
 31
0.0
  0
LINE
  5
3d4
100
AcDbEntity
  8
Layer_1
 62
7
100
AcDbLine
 10
126.765472
 20
767.297437
 30
0.0
 11
126.768672
 21
767.284749
 31
0.0
  0
LINE
  5
3d5
100
AcDbEntity
  8
Layer_1
 62
7
100
AcDbLine
 10
126.768672
 20
767.284749
 30
0.0
 11
126.912512
 21
767.308941
 31
0.0
  0
LINE
  5
3d6
100
AcDbEntity
  8
Layer_1
 62
7
100
AcDbLine
 10
126.912512
 20
767.308941
 30
0.0
 11
126.826416
 21
767.304061
 31
0.0
  0
LINE
  5
3d7
100
AcDbEntity
  8
Layer_1
 62
7
100
AcDbLine
 10
126.826416
 20
767.304061
 30
0.0
 11
126.912176
 21
767.318461
 31
0.0
  0
LINE
  5
3d8
100
AcDbEntity
  8
Layer_1
 62
7
100
AcDbLine
 10
126.912176
 20
767.318461
 30
0.0
 11
126.912688
 21
767.318461
 31
0.0
  0
LINE
  5
3d9
100
AcDbEntity
  8
Layer_1
 62
7
100
AcDbLine
 10
126.938368
 20
767.315421
 30
0.0
 11
126.938368
 21
767.313101
 31
0.0
  0
LINE
  5
3da
100
AcDbEntity
  8
Layer_1
 62
7
100
AcDbLine
 10
126.938368
 20
767.313101
 30
0.0
 11
126.938712
 21
767.313101
 31
0.0
  0
LINE
  5
3db
100
AcDbEntity
  8
Layer_1
 62
7
100
AcDbLine
 10
126.938712
 20
767.313101
 30
0.0
 11
126.938368
 21
767.315421
 31
0.0
  0
LINE
  5
3dc
100
AcDbEntity
  8
Layer_1
 62
7
100
AcDbLine
 10
126.938368
 20
767.315421
 30
0.0
 11
126.938368
 21
767.315421
 31
0.0
  0
LINE
  5
3dd
100
AcDbEntity
  8
Layer_1
 62
7
100
AcDbLine
 10
126.073264
 20
770.248877
 30
0.0
 11
125.980416
 21
770.240533
 31
0.0
  0
LINE
  5
3de
100
AcDbEntity
  8
Layer_1
 62
7
100
AcDbLine
 10
125.980416
 20
770.240533
 30
0.0
 11
125.980416
 21
770.219509
 31
0.0
  0
LINE
  5
3df
100
AcDbEntity
  8
Layer_1
 62
7
100
AcDbLine
 10
125.980416
 20
770.219509
 30
0.0
 11
125.991536
 21
770.201645
 31
0.0
  0
LINE
  5
3e0
100
AcDbEntity
  8
Layer_1
 62
7
100
AcDbLine
 10
125.991536
 20
770.201645
 30
0.0
 11
126.102624
 21
770.235925
 31
0.0
  0
LINE
  5
3e1
100
AcDbEntity
  8
Layer_1
 62
7
100
AcDbLine
 10
126.102624
 20
770.235925
 30
0.0
 11
126.003352
 21
770.227277
 31
0.0
  0
LINE
  5
3e2
100
AcDbEntity
  8
Layer_1
 62
7
100
AcDbLine
 10
126.003352
 20
770.227277
 30
0.0
 11
126.073272
 21
770.248877
 31
0.0
  0
LINE
  5
3e3
100
AcDbEntity
  8
Layer_1
 62
7
100
AcDbLine
 10
126.073272
 20
770.248877
 30
0.0
 11
126.073264
 21
770.248877
 31
0.0
  0
LINE
  5
3e4
100
AcDbEntity
  8
Layer_1
 62
7
100
AcDbLine
 10
128.465880
 20
769.663039
 30
0.0
 11
128.374376
 21
769.640831
 31
0.0
  0
LINE
  5
3e5
100
AcDbEntity
  8
Layer_1
 62
7
100
AcDbLine
 10
128.374376
 20
769.640831
 30
0.0
 11
128.439896
 21
769.646911
 31
0.0
  0
LINE
  5
3e6
100
AcDbEntity
  8
Layer_1
 62
7
100
AcDbLine
 10
128.439896
 20
769.646911
 30
0.0
 11
128.338264
 21
769.622415
 31
0.0
  0
LINE
  5
3e7
100
AcDbEntity
  8
Layer_1
 62
7
100
AcDbLine
 10
128.338264
 20
769.622415
 30
0.0
 11
128.471640
 21
769.634223
 31
0.0
  0
LINE
  5
3e8
100
AcDbEntity
  8
Layer_1
 62
7
100
AcDbLine
 10
128.471640
 20
769.634223
 30
0.0
 11
128.471640
 21
769.648623
 31
0.0
  0
LINE
  5
3e9
100
AcDbEntity
  8
Layer_1
 62
7
100
AcDbLine
 10
128.471640
 20
769.648623
 30
0.0
 11
128.466040
 21
769.663023
 31
0.0
  0
LINE
  5
3ea
100
AcDbEntity
  8
Layer_1
 62
7
100
AcDbLine
 10
128.466040
 20
769.663023
 30
0.0
 11
128.465880
 21
769.663039
 31
0.0
  0
LINE
  5
3eb
100
AcDbEntity
  8
Layer_1
 62
7
100
AcDbLine
 10
127.091632
 20
743.583380
 30
0.0
 11
127.177064
 21
743.529460
 31
0.0
  0
LINE
  5
3ec
100
AcDbEntity
  8
Layer_1
 62
7
100
AcDbLine
 10
127.177064
 20
743.529460
 30
0.0
 11
127.203384
 21
743.551940
 31
0.0
  0
LINE
  5
3ed
100
AcDbEntity
  8
Layer_1
 62
7
100
AcDbLine
 10
127.203384
 20
743.551940
 30
0.0
 11
127.203384
 21
743.564900
 31
0.0
  0
LINE
  5
3ee
100
AcDbEntity
  8
Layer_1
 62
7
100
AcDbLine
 10
127.203384
 20
743.564900
 30
0.0
 11
127.203384
 21
743.583300
 31
0.0
  0
LINE
  5
3ef
100
AcDbEntity
  8
Layer_1
 62
7
100
AcDbLine
 10
127.203384
 20
743.583300
 30
0.0
 11
127.134824
 21
743.583300
 31
0.0
  0
LINE
  5
3f0
100
AcDbEntity
  8
Layer_1
 62
7
100
AcDbLine
 10
127.134824
 20
743.583300
 30
0.0
 11
127.091624
 21
743.583300
 31
0.0
  0
LINE
  5
3f1
100
AcDbEntity
  8
Layer_1
 62
7
100
AcDbLine
 10
127.091624
 20
743.583300
 30
0.0
 11
127.091632
 21
743.583380
 31
0.0
  0
LINE
  5
3f2
100
AcDbEntity
  8
Layer_1
 62
7
100
AcDbLine
 10
118.138408
 20
731.325772
 30
0.0
 11
118.138064
 21
731.325476
 31
0.0
  0
LINE
  5
3f3
100
AcDbEntity
  8
Layer_1
 62
7
100
AcDbLine
 10
118.138064
 20
731.325476
 30
0.0
 11
118.137264
 21
731.324716
 31
0.0
  0
LINE
  5
3f4
100
AcDbEntity
  8
Layer_1
 62
7
100
AcDbLine
 10
118.137264
 20
731.324716
 30
0.0
 11
118.136464
 21
731.323948
 31
0.0
  0
LINE
  5
3f5
100
AcDbEntity
  8
Layer_1
 62
7
100
AcDbLine
 10
118.136464
 20
731.323948
 30
0.0
 11
118.258696
 21
731.219636
 31
0.0
  0
LINE
  5
3f6
100
AcDbEntity
  8
Layer_1
 62
7
100
AcDbLine
 10
118.258696
 20
731.219636
 30
0.0
 11
118.259496
 21
731.220396
 31
0.0
  0
LINE
  5
3f7
100
AcDbEntity
  8
Layer_1
 62
7
100
AcDbLine
 10
118.259496
 20
731.220396
 30
0.0
 11
118.260296
 21
731.221156
 31
0.0
  0
LINE
  5
3f8
100
AcDbEntity
  8
Layer_1
 62
7
100
AcDbLine
 10
118.260296
 20
731.221156
 30
0.0
 11
118.260640
 21
731.221460
 31
0.0
  0
LINE
  5
3f9
100
AcDbEntity
  8
Layer_1
 62
7
100
AcDbLine
 10
118.260640
 20
731.221460
 30
0.0
 11
118.138408
 21
731.325772
 31
0.0
  0
LINE
  5
3fa
100
AcDbEntity
  8
Layer_1
 62
7
100
AcDbLine
 10
118.138408
 20
731.325772
 30
0.0
 11
118.138408
 21
731.325772
 31
0.0
  0
LINE
  5
3fb
100
AcDbEntity
  8
Layer_1
 62
7
100
AcDbLine
 10
84.467264
 20
716.772364
 30
0.0
 11
84.467264
 21
716.624820
 31
0.0
  0
LINE
  5
3fc
100
AcDbEntity
  8
Layer_1
 62
7
100
AcDbLine
 10
84.467264
 20
716.624820
 30
0.0
 11
84.468064
 21
716.624820
 31
0.0
  0
LINE
  5
3fd
100
AcDbEntity
  8
Layer_1
 62
7
100
AcDbLine
 10
84.468064
 20
716.624820
 30
0.0
 11
84.468064
 21
716.772364
 31
0.0
  0
LINE
  5
3fe
100
AcDbEntity
  8
Layer_1
 62
7
100
AcDbLine
 10
84.468064
 20
716.772364
 30
0.0
 11
84.467264
 21
716.772364
 31
0.0
  0
LINE
  5
3ff
100
AcDbEntity
  8
Layer_1
 62
7
100
AcDbLine
 10
84.467264
 20
716.772364
 30
0.0
 11
84.467264
 21
716.772364
 31
0.0
  0
LINE
  5
400
100
AcDbEntity
  8
Layer_1
 62
7
100
AcDbLine
 10
65.825747
 20
703.989148
 30
0.0
 11
65.911176
 21
703.935228
 31
0.0
  0
LINE
  5
401
100
AcDbEntity
  8
Layer_1
 62
7
100
AcDbLine
 10
65.911176
 20
703.935228
 30
0.0
 11
65.937512
 21
703.957708
 31
0.0
  0
LINE
  5
402
100
AcDbEntity
  8
Layer_1
 62
7
100
AcDbLine
 10
65.937512
 20
703.957708
 30
0.0
 11
65.937512
 21
703.970668
 31
0.0
  0
LINE
  5
403
100
AcDbEntity
  8
Layer_1
 62
7
100
AcDbLine
 10
65.937512
 20
703.970668
 30
0.0
 11
65.937512
 21
703.989068
 31
0.0
  0
LINE
  5
404
100
AcDbEntity
  8
Layer_1
 62
7
100
AcDbLine
 10
65.937512
 20
703.989068
 30
0.0
 11
65.868968
 21
703.989068
 31
0.0
  0
LINE
  5
405
100
AcDbEntity
  8
Layer_1
 62
7
100
AcDbLine
 10
65.868968
 20
703.989068
 30
0.0
 11
65.825744
 21
703.989068
 31
0.0
  0
LINE
  5
406
100
AcDbEntity
  8
Layer_1
 62
7
100
AcDbLine
 10
65.825744
 20
703.989068
 30
0.0
 11
65.825747
 21
703.989148
 31
0.0
  0
LINE
  5
407
100
AcDbEntity
  8
Layer_1
 62
7
100
AcDbLine
 10
63.857227
 20
696.727420
 30
0.0
 11
63.857227
 21
696.726660
 31
0.0
  0
LINE
  5
408
100
AcDbEntity
  8
Layer_1
 62
7
100
AcDbLine
 10
63.857227
 20
696.726660
 30
0.0
 11
63.857227
 21
696.725900
 31
0.0
  0
LINE
  5
409
100
AcDbEntity
  8
Layer_1
 62
7
100
AcDbLine
 10
63.857227
 20
696.725900
 30
0.0
 11
64.030107
 21
696.725900
 31
0.0
  0
LINE
  5
40a
100
AcDbEntity
  8
Layer_1
 62
7
100
AcDbLine
 10
64.030107
 20
696.725900
 30
0.0
 11
64.030107
 21
696.727500
 31
0.0
  0
LINE
  5
40b
100
AcDbEntity
  8
Layer_1
 62
7
100
AcDbLine
 10
64.030107
 20
696.727500
 30
0.0
 11
63.857227
 21
696.727500
 31
0.0
  0
LINE
  5
40c
100
AcDbEntity
  8
Layer_1
 62
7
100
AcDbLine
 10
63.857227
 20
696.727500
 30
0.0
 11
63.857227
 21
696.727420
 31
0.0
  0
SPLINE
  5
40d
100
AcDbEntity
  8
Layer_1
 62
7
100
AcDbSpline
 70
8
 71
3
 72
8
 73
4
 74
0
 40
0
 40
0
 40
0
 40
0
 40
1
 40
1
 40
1
 40
1
 10
47.836244
 20
689.508356
 30
0.0
 10
47.836170
 20
689.508348
 30
0.0
 10
47.828484
 20
689.507596
 30
0.0
 10
47.828804
 20
689.507596
 30
0.0
  0
SPLINE
  5
40e
100
AcDbEntity
  8
Layer_1
 62
7
100
AcDbSpline
 70
8
 71
3
 72
8
 73
4
 74
0
 40
0
 40
0
 40
0
 40
0
 40
1
 40
1
 40
1
 40
1
 10
47.828804
 20
689.507596
 30
0.0
 10
47.829330
 20
689.507636
 30
0.0
 10
47.837292
 20
689.507740
 30
0.0
 10
47.843996
 20
689.507596
 30
0.0
  0
SPLINE
  5
40f
100
AcDbEntity
  8
Layer_1
 62
7
100
AcDbSpline
 70
8
 71
3
 72
8
 73
4
 74
0
 40
0
 40
0
 40
0
 40
0
 40
1
 40
1
 40
1
 40
1
 10
47.843996
 20
689.507596
 30
0.0
 10
47.840316
 20
689.507884
 30
0.0
 10
47.836236
 20
689.508356
 30
0.0
 10
47.836236
 20
689.508356
 30
0.0
  0
LINE
  5
410
100
AcDbEntity
  8
Layer_1
 62
7
100
AcDbLine
 10
47.836236
 20
689.508356
 30
0.0
 11
47.836244
 21
689.508356
 31
0.0
  0
LINE
  5
411
100
AcDbEntity
  8
Layer_1
 62
7
100
AcDbLine
 10
47.849076
 20
689.507596
 30
0.0
 11
47.835900
 21
689.422300
 31
0.0
  0
LINE
  5
412
100
AcDbEntity
  8
Layer_1
 62
7
100
AcDbLine
 10
47.835900
 20
689.422300
 30
0.0
 11
47.855828
 21
689.507020
 31
0.0
  0
SPLINE
  5
413
100
AcDbEntity
  8
Layer_1
 62
7
100
AcDbSpline
 70
8
 71
3
 72
8
 73
4
 74
0
 40
0
 40
0
 40
0
 40
0
 40
1
 40
1
 40
1
 40
1
 10
47.855828
 20
689.507020
 30
0.0
 10
47.855798
 20
689.507020
 30
0.0
 10
47.852148
 20
689.507308
 30
0.0
 10
47.849108
 20
689.507780
 30
0.0
  0
LINE
  5
414
100
AcDbEntity
  8
Layer_1
 62
7
100
AcDbLine
 10
47.849108
 20
689.507780
 30
0.0
 11
47.849076
 21
689.507596
 31
0.0
  0
LINE
  5
415
100
AcDbEntity
  8
Layer_1
 62
7
100
AcDbLine
 10
47.826788
 20
689.362068
 30
0.0
 11
47.826788
 21
689.361308
 31
0.0
  0
SPLINE
  5
416
100
AcDbEntity
  8
Layer_1
 62
7
100
AcDbSpline
 70
8
 71
3
 72
8
 73
4
 74
0
 40
0
 40
0
 40
0
 40
0
 40
1
 40
1
 40
1
 40
1
 10
47.826788
 20
689.361308
 30
0.0
 10
47.829508
 20
689.361012
 30
0.0
 10
47.830628
 20
689.361356
 30
0.0
 10
47.833508
 20
689.361308
 30
0.0
  0
SPLINE
  5
417
100
AcDbEntity
  8
Layer_1
 62
7
100
AcDbSpline
 70
8
 71
3
 72
8
 73
4
 74
0
 40
0
 40
0
 40
0
 40
0
 40
1
 40
1
 40
1
 40
1
 10
47.833508
 20
689.361308
 30
0.0
 10
47.830308
 20
689.361604
 30
0.0
 10
47.829188
 20
689.361692
 30
0.0
 10
47.826788
 20
689.362068
 30
0.0
  0
LINE
  5
418
100
AcDbEntity
  8
Layer_1
 62
7
100
AcDbLine
 10
47.826788
 20
689.362068
 30
0.0
 11
47.826788
 21
689.362068
 31
0.0
  0
LINE
  5
419
100
AcDbEntity
  8
Layer_1
 62
7
100
AcDbLine
 10
34.663366
 20
692.663452
 30
0.0
 11
34.586046
 21
692.531476
 31
0.0
  0
LINE
  5
41a
100
AcDbEntity
  8
Layer_1
 62
7
100
AcDbLine
 10
34.586046
 20
692.531476
 30
0.0
 11
34.590046
 21
692.529876
 31
0.0
  0
LINE
  5
41b
100
AcDbEntity
  8
Layer_1
 62
7
100
AcDbLine
 10
34.590046
 20
692.529876
 30
0.0
 11
34.667030
 21
692.661852
 31
0.0
  0
LINE
  5
41c
100
AcDbEntity
  8
Layer_1
 62
7
100
AcDbLine
 10
34.667030
 20
692.661852
 30
0.0
 11
34.663350
 21
692.663452
 31
0.0
  0
LINE
  5
41d
100
AcDbEntity
  8
Layer_1
 62
7
100
AcDbLine
 10
34.663350
 20
692.663452
 30
0.0
 11
34.663366
 21
692.663452
 31
0.0
  0
LINE
  5
41e
100
AcDbEntity
  8
Layer_1
 62
7
100
AcDbLine
 10
21.437478
 20
708.476716
 30
0.0
 11
21.434758
 21
708.474316
 31
0.0
  0
LINE
  5
41f
100
AcDbEntity
  8
Layer_1
 62
7
100
AcDbLine
 10
21.434758
 20
708.474316
 30
0.0
 11
21.556988
 21
708.370004
 31
0.0
  0
LINE
  5
420
100
AcDbEntity
  8
Layer_1
 62
7
100
AcDbLine
 10
21.556988
 20
708.370004
 30
0.0
 11
21.559708
 21
708.372404
 31
0.0
  0
LINE
  5
421
100
AcDbEntity
  8
Layer_1
 62
7
100
AcDbLine
 10
21.559708
 20
708.372404
 30
0.0
 11
21.437478
 21
708.476724
 31
0.0
  0
LINE
  5
422
100
AcDbEntity
  8
Layer_1
 62
7
100
AcDbLine
 10
21.437478
 20
708.476724
 30
0.0
 11
21.437478
 21
708.476716
 31
0.0
  0
LINE
  5
423
100
AcDbEntity
  8
Layer_1
 62
7
100
AcDbLine
 10
40.918061
 20
718.750316
 30
0.0
 11
40.917021
 21
718.749556
 31
0.0
  0
LINE
  5
424
100
AcDbEntity
  8
Layer_1
 62
7
100
AcDbLine
 10
40.917021
 20
718.749556
 30
0.0
 11
41.039251
 21
718.645244
 31
0.0
  0
LINE
  5
425
100
AcDbEntity
  8
Layer_1
 62
7
100
AcDbLine
 10
41.039251
 20
718.645244
 30
0.0
 11
41.040691
 21
718.646004
 31
0.0
  0
LINE
  5
426
100
AcDbEntity
  8
Layer_1
 62
7
100
AcDbLine
 10
41.040691
 20
718.646004
 30
0.0
 11
40.918124
 21
718.750316
 31
0.0
  0
LINE
  5
427
100
AcDbEntity
  8
Layer_1
 62
7
100
AcDbLine
 10
40.918124
 20
718.750316
 30
0.0
 11
40.918061
 21
718.750316
 31
0.0
  0
LINE
  5
428
100
AcDbEntity
  8
Layer_1
 62
7
100
AcDbLine
 10
47.836918
 20
723.811044
 30
0.0
 11
47.834198
 21
723.807844
 31
0.0
  0
LINE
  5
429
100
AcDbEntity
  8
Layer_1
 62
7
100
AcDbLine
 10
47.834198
 20
723.807844
 30
0.0
 11
47.972299
 21
723.719380
 31
0.0
  0
LINE
  5
42a
100
AcDbEntity
  8
Layer_1
 62
7
100
AcDbLine
 10
47.972299
 20
723.719380
 30
0.0
 11
47.975339
 21
723.722580
 31
0.0
  0
LINE
  5
42b
100
AcDbEntity
  8
Layer_1
 62
7
100
AcDbLine
 10
47.975339
 20
723.722580
 30
0.0
 11
47.836902
 21
723.811044
 31
0.0
  0
LINE
  5
42c
100
AcDbEntity
  8
Layer_1
 62
7
100
AcDbLine
 10
47.836902
 20
723.811044
 30
0.0
 11
47.836918
 21
723.811044
 31
0.0
  0
LINE
  5
42d
100
AcDbEntity
  8
Layer_1
 62
7
100
AcDbLine
 10
50.764037
 20
731.145380
 30
0.0
 11
50.764037
 21
731.144620
 31
0.0
  0
LINE
  5
42e
100
AcDbEntity
  8
Layer_1
 62
7
100
AcDbLine
 10
50.764037
 20
731.144620
 30
0.0
 11
50.936915
 21
731.144620
 31
0.0
  0
LINE
  5
42f
100
AcDbEntity
  8
Layer_1
 62
7
100
AcDbLine
 10
50.936915
 20
731.144620
 30
0.0
 11
50.936915
 21
731.145380
 31
0.0
  0
LINE
  5
430
100
AcDbEntity
  8
Layer_1
 62
7
100
AcDbLine
 10
50.936915
 20
731.145380
 30
0.0
 11
50.764037
 21
731.145380
 31
0.0
  0
LINE
  5
431
100
AcDbEntity
  8
Layer_1
 62
7
100
AcDbLine
 10
50.764037
 20
731.145380
 30
0.0
 11
50.764037
 21
731.145380
 31
0.0
  0
LINE
  5
432
100
AcDbEntity
  8
Layer_1
 62
7
100
AcDbLine
 10
59.437004
 20
742.910228
 30
0.0
 11
59.434364
 21
742.907828
 31
0.0
  0
LINE
  5
433
100
AcDbEntity
  8
Layer_1
 62
7
100
AcDbLine
 10
59.434364
 20
742.907828
 30
0.0
 11
59.556593
 21
742.803508
 31
0.0
  0
LINE
  5
434
100
AcDbEntity
  8
Layer_1
 62
7
100
AcDbLine
 10
59.556593
 20
742.803508
 30
0.0
 11
59.559233
 21
742.805908
 31
0.0
  0
LINE
  5
435
100
AcDbEntity
  8
Layer_1
 62
7
100
AcDbLine
 10
59.559233
 20
742.805908
 30
0.0
 11
59.437000
 21
742.910220
 31
0.0
  0
LINE
  5
436
100
AcDbEntity
  8
Layer_1
 62
7
100
AcDbLine
 10
59.437000
 20
742.910220
 30
0.0
 11
59.437004
 21
742.910228
 31
0.0
  0
LINE
  5
437
100
AcDbEntity
  8
Layer_1
 62
7
100
AcDbLine
 10
59.434305
 20
742.907924
 30
0.0
 11
59.433425
 21
742.907164
 31
0.0
  0
LINE
  5
438
100
AcDbEntity
  8
Layer_1
 62
7
100
AcDbLine
 10
59.433425
 20
742.907164
 30
0.0
 11
59.555654
 21
742.802852
 31
0.0
  0
LINE
  5
439
100
AcDbEntity
  8
Layer_1
 62
7
100
AcDbLine
 10
59.555654
 20
742.802852
 30
0.0
 11
59.556534
 21
742.803612
 31
0.0
  0
LINE
  5
43a
100
AcDbEntity
  8
Layer_1
 62
7
100
AcDbLine
 10
59.556534
 20
742.803612
 30
0.0
 11
59.434300
 21
742.907924
 31
0.0
  0
LINE
  5
43b
100
AcDbEntity
  8
Layer_1
 62
7
100
AcDbLine
 10
59.434300
 20
742.907924
 30
0.0
 11
59.434305
 21
742.907924
 31
0.0
  0
LINE
  5
43c
100
AcDbEntity
  8
Layer_1
 62
7
100
AcDbLine
 10
67.212490
 20
747.874996
 30
0.0
 11
67.210330
 21
747.874236
 31
0.0
  0
LINE
  5
43d
100
AcDbEntity
  8
Layer_1
 62
7
100
AcDbLine
 10
67.210330
 20
747.874236
 30
0.0
 11
67.291366
 21
747.743988
 31
0.0
  0
LINE
  5
43e
100
AcDbEntity
  8
Layer_1
 62
7
100
AcDbLine
 10
67.291366
 20
747.743988
 30
0.0
 11
67.293526
 21
747.744748
 31
0.0
  0
LINE
  5
43f
100
AcDbEntity
  8
Layer_1
 62
7
100
AcDbLine
 10
67.293526
 20
747.744748
 30
0.0
 11
67.212490
 21
747.874996
 31
0.0
  0
LINE
  5
440
100
AcDbEntity
  8
Layer_1
 62
7
100
AcDbLine
 10
67.212490
 20
747.874996
 30
0.0
 11
67.212490
 21
747.874996
 31
0.0
  0
LINE
  5
441
100
AcDbEntity
  8
Layer_1
 62
7
100
AcDbLine
 10
55.737001
 20
754.120940
 30
0.0
 11
55.737001
 21
753.973404
 31
0.0
  0
LINE
  5
442
100
AcDbEntity
  8
Layer_1
 62
7
100
AcDbLine
 10
55.737001
 20
753.973404
 30
0.0
 11
55.740041
 21
753.973404
 31
0.0
  0
LINE
  5
443
100
AcDbEntity
  8
Layer_1
 62
7
100
AcDbLine
 10
55.740041
 20
753.973404
 30
0.0
 11
55.740041
 21
754.120940
 31
0.0
  0
LINE
  5
444
100
AcDbEntity
  8
Layer_1
 62
7
100
AcDbLine
 10
55.740041
 20
754.120940
 30
0.0
 11
55.737001
 21
754.120940
 31
0.0
  0
LINE
  5
445
100
AcDbEntity
  8
Layer_1
 62
7
100
AcDbLine
 10
55.737001
 20
754.120940
 30
0.0
 11
55.737001
 21
754.120940
 31
0.0
  0
LINE
  5
446
100
AcDbEntity
  8
Layer_1
 62
7
100
AcDbLine
 10
44.915202
 20
789.157009
 30
0.0
 11
44.914162
 21
789.156129
 31
0.0
  0
LINE
  5
447
100
AcDbEntity
  8
Layer_1
 62
7
100
AcDbLine
 10
44.914162
 20
789.156129
 30
0.0
 11
45.036393
 21
789.051813
 31
0.0
  0
LINE
  5
448
100
AcDbEntity
  8
Layer_1
 62
7
100
AcDbLine
 10
45.036393
 20
789.051813
 30
0.0
 11
45.037433
 21
789.052693
 31
0.0
  0
LINE
  5
449
100
AcDbEntity
  8
Layer_1
 62
7
100
AcDbLine
 10
45.037433
 20
789.052693
 30
0.0
 11
44.915202
 21
789.157009
 31
0.0
  0
LINE
  5
44a
100
AcDbEntity
  8
Layer_1
 62
7
100
AcDbLine
 10
44.915202
 20
789.157009
 30
0.0
 11
44.915202
 21
789.157009
 31
0.0
  0
LINE
  5
44b
100
AcDbEntity
  8
Layer_1
 62
7
100
AcDbLine
 10
50.779907
 20
794.796656
 30
0.0
 11
50.779907
 21
794.795776
 31
0.0
  0
LINE
  5
44c
100
AcDbEntity
  8
Layer_1
 62
7
100
AcDbLine
 10
50.779907
 20
794.795776
 30
0.0
 11
50.952786
 21
794.795776
 31
0.0
  0
LINE
  5
44d
100
AcDbEntity
  8
Layer_1
 62
7
100
AcDbLine
 10
50.952786
 20
794.795776
 30
0.0
 11
50.952786
 21
794.796656
 31
0.0
  0
LINE
  5
44e
100
AcDbEntity
  8
Layer_1
 62
7
100
AcDbLine
 10
50.952786
 20
794.796656
 30
0.0
 11
50.779907
 21
794.796656
 31
0.0
  0
LINE
  5
44f
100
AcDbEntity
  8
Layer_1
 62
7
100
AcDbLine
 10
50.779907
 20
794.796656
 30
0.0
 11
50.779907
 21
794.796656
 31
0.0
  0
LINE
  5
450
100
AcDbEntity
  8
Layer_1
 62
7
100
AcDbLine
 10
71.225505
 20
803.518212
 30
0.0
 11
71.225505
 21
803.370672
 31
0.0
  0
LINE
  5
451
100
AcDbEntity
  8
Layer_1
 62
7
100
AcDbLine
 10
71.225505
 20
803.370672
 30
0.0
 11
71.226385
 21
803.370672
 31
0.0
  0
LINE
  5
452
100
AcDbEntity
  8
Layer_1
 62
7
100
AcDbLine
 10
71.226385
 20
803.370672
 30
0.0
 11
71.226385
 21
803.518212
 31
0.0
  0
LINE
  5
453
100
AcDbEntity
  8
Layer_1
 62
7
100
AcDbLine
 10
71.226385
 20
803.518212
 30
0.0
 11
71.225505
 21
803.518212
 31
0.0
  0
LINE
  5
454
100
AcDbEntity
  8
Layer_1
 62
7
100
AcDbLine
 10
71.225505
 20
803.518212
 30
0.0
 11
71.225505
 21
803.518212
 31
0.0
  0
LINE
  5
455
100
AcDbEntity
  8
Layer_1
 62
7
100
AcDbLine
 10
75.817593
 20
804.353597
 30
0.0
 11
75.811833
 21
804.352717
 31
0.0
  0
LINE
  5
456
100
AcDbEntity
  8
Layer_1
 62
7
100
AcDbLine
 10
75.811833
 20
804.352717
 30
0.0
 11
75.840881
 21
804.207195
 31
0.0
  0
LINE
  5
457
100
AcDbEntity
  8
Layer_1
 62
7
100
AcDbLine
 10
75.840881
 20
804.207195
 30
0.0
 11
75.846641
 21
804.208075
 31
0.0
  0
LINE
  5
458
100
AcDbEntity
  8
Layer_1
 62
7
100
AcDbLine
 10
75.846641
 20
804.208075
 30
0.0
 11
75.817593
 21
804.353597
 31
0.0
  0
LINE
  5
459
100
AcDbEntity
  8
Layer_1
 62
7
100
AcDbLine
 10
75.817593
 20
804.353597
 30
0.0
 11
75.817593
 21
804.353597
 31
0.0
  0
LINE
  5
45a
100
AcDbEntity
  8
Layer_1
 62
7
100
AcDbLine
 10
78.073118
 20
804.629946
 30
0.0
 11
78.180830
 21
804.514681
 31
0.0
  0
LINE
  5
45b
100
AcDbEntity
  8
Layer_1
 62
7
100
AcDbLine
 10
78.180830
 20
804.514681
 30
0.0
 11
78.181176
 21
804.514976
 31
0.0
  0
LINE
  5
45c
100
AcDbEntity
  8
Layer_1
 62
7
100
AcDbLine
 10
78.181176
 20
804.514976
 30
0.0
 11
78.073464
 21
804.629953
 31
0.0
  0
LINE
  5
45d
100
AcDbEntity
  8
Layer_1
 62
7
100
AcDbLine
 10
78.073464
 20
804.629953
 30
0.0
 11
78.073118
 21
804.629953
 31
0.0
  0
LINE
  5
45e
100
AcDbEntity
  8
Layer_1
 62
7
100
AcDbLine
 10
78.073118
 20
804.629953
 30
0.0
 11
78.073118
 21
804.629946
 31
0.0
  0
LINE
  5
45f
100
AcDbEntity
  8
Layer_1
 62
7
100
AcDbLine
 10
25.322518
 20
702.292436
 30
0.0
 11
25.197250
 21
702.190716
 31
0.0
  0
LINE
  5
460
100
AcDbEntity
  8
Layer_1
 62
7
100
AcDbLine
 10
25.197250
 20
702.190716
 30
0.0
 11
25.198290
 21
702.189956
 31
0.0
  0
LINE
  5
461
100
AcDbEntity
  8
Layer_1
 62
7
100
AcDbLine
 10
25.198290
 20
702.189956
 30
0.0
 11
25.323559
 21
702.291676
 31
0.0
  0
LINE
  5
462
100
AcDbEntity
  8
Layer_1
 62
7
100
AcDbLine
 10
25.323559
 20
702.291676
 30
0.0
 11
25.322519
 21
702.292436
 31
0.0
  0
LINE
  5
463
100
AcDbEntity
  8
Layer_1
 62
7
100
AcDbLine
 10
25.322519
 20
702.292436
 30
0.0
 11
25.322518
 21
702.292436
 31
0.0
  0
LINE
  5
464
100
AcDbEntity
  8
Layer_1
 62
7
100
AcDbLine
 10
24.338597
 20
707.408780
 30
0.0
 11
24.337557
 21
707.407180
 31
0.0
  0
LINE
  5
465
100
AcDbEntity
  8
Layer_1
 62
7
100
AcDbLine
 10
24.337557
 20
707.407180
 30
0.0
 11
24.491864
 21
707.340620
 31
0.0
  0
LINE
  5
466
100
AcDbEntity
  8
Layer_1
 62
7
100
AcDbLine
 10
24.491864
 20
707.340620
 30
0.0
 11
24.492904
 21
707.342220
 31
0.0
  0
LINE
  5
467
100
AcDbEntity
  8
Layer_1
 62
7
100
AcDbLine
 10
24.492904
 20
707.342220
 30
0.0
 11
24.338597
 21
707.408780
 31
0.0
  0
LINE
  5
468
100
AcDbEntity
  8
Layer_1
 62
7
100
AcDbLine
 10
24.338597
 20
707.408780
 30
0.0
 11
24.338597
 21
707.408780
 31
0.0
  0
LINE
  5
469
100
AcDbEntity
  8
Layer_1
 62
7
100
AcDbLine
 10
50.743779
 20
723.324340
 30
0.0
 11
50.742019
 21
723.322740
 31
0.0
  0
LINE
  5
46a
100
AcDbEntity
  8
Layer_1
 62
7
100
AcDbLine
 10
50.742019
 20
723.322740
 30
0.0
 11
50.740019
 21
723.321140
 31
0.0
  0
LINE
  5
46b
100
AcDbEntity
  8
Layer_1
 62
7
100
AcDbLine
 10
50.740019
 20
723.321140
 30
0.0
 11
50.862250
 21
723.216820
 31
0.0
  0
LINE
  5
46c
100
AcDbEntity
  8
Layer_1
 62
7
100
AcDbLine
 10
50.862250
 20
723.216820
 30
0.0
 11
50.864250
 21
723.218420
 31
0.0
  0
LINE
  5
46d
100
AcDbEntity
  8
Layer_1
 62
7
100
AcDbLine
 10
50.864250
 20
723.218420
 30
0.0
 11
50.866010
 21
723.220020
 31
0.0
  0
LINE
  5
46e
100
AcDbEntity
  8
Layer_1
 62
7
100
AcDbLine
 10
50.866010
 20
723.220020
 30
0.0
 11
50.743779
 21
723.324340
 31
0.0
  0
LINE
  5
46f
100
AcDbEntity
  8
Layer_1
 62
7
100
AcDbLine
 10
50.743779
 20
723.324340
 30
0.0
 11
50.743779
 21
723.324340
 31
0.0
  0
ENDSEC
  0
SECTION
  2
OBJECTS
  0
DICTIONARY
  5
C
330
0
100
AcDbDictionary
  3
ACAD_GROUP
350
D
  3
ACAD_MLINESTYLE
350
17
  0
DICTIONARY
  5
D
330
C
100
AcDbDictionary
  0
DICTIONARY
  5
1A
330
C
100
AcDbDictionary
  0
DICTIONARY
  5
17
330
C
100
AcDbDictionary
  3
STANDARD
350
18
  0
DICTIONARY
  5
19
330
C
100
AcDbDictionary
  0
ENDSEC
  0
EOF
