G04 #@! TF.FileFunction,Soldermask,Top*
%FSLAX46Y46*%
G04 Gerber Fmt 4.6, Leading zero omitted, Abs format (unit mm)*
G04 Created by KiCad (PCBNEW 4.0.3+e1-6302~38~ubuntu16.04.1-stable) date Sat Aug 27 13:07:25 2016*
%MOMM*%
%LPD*%
G01*
G04 APERTURE LIST*
%ADD10C,0.100000*%
%ADD11C,0.500000*%
%ADD12C,0.800000*%
%ADD13C,3.200000*%
%ADD14R,0.797560X0.797560*%
G04 APERTURE END LIST*
D10*
D11*
X183400000Y-107200000D02*
X180600000Y-110700000D01*
X186450520Y-109404100D02*
X186679420Y-109240000D01*
X186203620Y-109547900D02*
X186450520Y-109404100D01*
X185945920Y-109674400D02*
X186203620Y-109547900D01*
X185684720Y-109786800D02*
X185945920Y-109674400D01*
X185427220Y-109887900D02*
X185684720Y-109786800D01*
X185242320Y-109957600D02*
X185427220Y-109887900D01*
X185180820Y-109980800D02*
X185242320Y-109957600D01*
X185039720Y-110033300D02*
X185180820Y-109980800D01*
X184609720Y-110172200D02*
X185039720Y-110033300D01*
X184018720Y-110337600D02*
X184609720Y-110172200D01*
X183421220Y-110485900D02*
X184018720Y-110337600D01*
X182978020Y-110590500D02*
X183421220Y-110485900D01*
X182830220Y-110625500D02*
X182978020Y-110590500D01*
X182724320Y-110648400D02*
X182830220Y-110625500D01*
X182185220Y-110759000D02*
X182724320Y-110648400D01*
X181646220Y-110851200D02*
X182185220Y-110759000D01*
X181540120Y-110865000D02*
X181646220Y-110851200D01*
X181528320Y-110865900D02*
X181540120Y-110865000D01*
X181492920Y-110870800D02*
X181528320Y-110865900D01*
X181431920Y-110881100D02*
X181492920Y-110870800D01*
X181359720Y-110894400D02*
X181431920Y-110881100D01*
X181278020Y-110910400D02*
X181359720Y-110894400D01*
X181189420Y-110927900D02*
X181278020Y-110910400D01*
X181095620Y-110945800D02*
X181189420Y-110927900D01*
X180999020Y-110963600D02*
X181095620Y-110945800D01*
X180901620Y-110980000D02*
X180999020Y-110963600D01*
X180805820Y-110994400D02*
X180901620Y-110980000D01*
X180713620Y-111005500D02*
X180805820Y-110994400D01*
X180627020Y-111012900D02*
X180713620Y-111005500D01*
X180548420Y-111015300D02*
X180627020Y-111012900D01*
X180480020Y-111011600D02*
X180548420Y-111015300D01*
X180423620Y-111001500D02*
X180480020Y-111011600D01*
X180381520Y-110983600D02*
X180423620Y-111001500D01*
X180360220Y-110964800D02*
X180381520Y-110983600D01*
X180356120Y-110957100D02*
X180360220Y-110964800D01*
X186883020Y-109052600D02*
X187016220Y-108895400D01*
X186679420Y-109240000D02*
X186883020Y-109052600D01*
X167366600Y-87471940D02*
X167366600Y-87471940D01*
X167368980Y-87474440D02*
X167366600Y-87471940D01*
X167375980Y-87482470D02*
X167368980Y-87474440D01*
X167378960Y-87487460D02*
X167375980Y-87482470D01*
X167377440Y-87488110D02*
X167378960Y-87487460D01*
X167373150Y-87485720D02*
X167377440Y-87488110D01*
X167368110Y-87481650D02*
X167373150Y-87485720D01*
X167364090Y-87477100D02*
X167368110Y-87481650D01*
X167362960Y-87473420D02*
X167364090Y-87477100D01*
X167365660Y-87471940D02*
X167362960Y-87473420D01*
X167366600Y-87471940D02*
X167365660Y-87471940D01*
X167399690Y-87530600D02*
X167366600Y-87471940D01*
X167497720Y-87707350D02*
X167399690Y-87530600D01*
X167633850Y-87946240D02*
X167497720Y-87707350D01*
X167786570Y-88192000D02*
X167633850Y-87946240D01*
X167920140Y-88385680D02*
X167786570Y-88192000D01*
X167967440Y-88448180D02*
X167920140Y-88385680D01*
X168010900Y-88503960D02*
X167967440Y-88448180D01*
X168149140Y-88665470D02*
X168010900Y-88503960D01*
X168347390Y-88874120D02*
X168149140Y-88665470D01*
X168558920Y-89072400D02*
X168347390Y-88874120D01*
X168723820Y-89213500D02*
X168558920Y-89072400D01*
X168780420Y-89258600D02*
X168723820Y-89213500D01*
X168798820Y-89274000D02*
X168780420Y-89258600D01*
X168857820Y-89315600D02*
X168798820Y-89274000D01*
X168952420Y-89376300D02*
X168857820Y-89315600D01*
X169056520Y-89440900D02*
X168952420Y-89376300D01*
X169162520Y-89509600D02*
X169056520Y-89440900D01*
X169262720Y-89582600D02*
X169162520Y-89509600D01*
X169349520Y-89660100D02*
X169262720Y-89582600D01*
X169415120Y-89742400D02*
X169349520Y-89660100D01*
X169446920Y-89806900D02*
X169415120Y-89742400D01*
X169452020Y-89829600D02*
X169446920Y-89806900D01*
X169457120Y-89851200D02*
X169452020Y-89829600D01*
X169458620Y-89919600D02*
X169457120Y-89851200D01*
X169442820Y-90021000D02*
X169458620Y-89919600D01*
X169410020Y-90129800D02*
X169442820Y-90021000D01*
X169365820Y-90241800D02*
X169410020Y-90129800D01*
X169315720Y-90352900D02*
X169365820Y-90241800D01*
X169265520Y-90459000D02*
X169315720Y-90352900D01*
X169220720Y-90556200D02*
X169265520Y-90459000D01*
X169194320Y-90618800D02*
X169220720Y-90556200D01*
X169186820Y-90640100D02*
X169194320Y-90618800D01*
X169161720Y-90707300D02*
X169186820Y-90640100D01*
X169088520Y-90909600D02*
X169161720Y-90707300D01*
X168993720Y-91185300D02*
X169088520Y-90909600D01*
X168904320Y-91466600D02*
X168993720Y-91185300D01*
X168822020Y-91752200D02*
X168904320Y-91466600D01*
X168748820Y-92041300D02*
X168822020Y-91752200D01*
X168686320Y-92332800D02*
X168748820Y-92041300D01*
X168636620Y-92625900D02*
X168686320Y-92332800D01*
X168601420Y-92919600D02*
X168636620Y-92625900D01*
X168582620Y-93212700D02*
X168601420Y-92919600D01*
X168581920Y-93504600D02*
X168582620Y-93212700D01*
X168601320Y-93793900D02*
X168581920Y-93504600D01*
X168642620Y-94080000D02*
X168601320Y-93793900D01*
X168707620Y-94361600D02*
X168642620Y-94080000D01*
X168798020Y-94638200D02*
X168707620Y-94361600D01*
X168915920Y-94908300D02*
X168798020Y-94638200D01*
X169023120Y-95107600D02*
X168915920Y-94908300D01*
X169063120Y-95171400D02*
X169023120Y-95107600D01*
X169072520Y-95186100D02*
X169063120Y-95171400D01*
X169101920Y-95229400D02*
X169072520Y-95186100D01*
X169161120Y-95311200D02*
X169101920Y-95229400D01*
X169234920Y-95402500D02*
X169161120Y-95311200D01*
X169317120Y-95489100D02*
X169234920Y-95402500D01*
X169401920Y-95556600D02*
X169317120Y-95489100D01*
X169483120Y-95590900D02*
X169401920Y-95556600D01*
X169554820Y-95577700D02*
X169483120Y-95590900D01*
X169602220Y-95523900D02*
X169554820Y-95577700D01*
X169611020Y-95502900D02*
X169602220Y-95523900D01*
X169618520Y-95483300D02*
X169611020Y-95502900D01*
X169620120Y-95416500D02*
X169618520Y-95483300D01*
X169604420Y-95309600D02*
X169620120Y-95416500D01*
X169578620Y-95202500D02*
X169604420Y-95309600D01*
X169562220Y-95137900D02*
X169578620Y-95202500D01*
X169558020Y-95116200D02*
X169562220Y-95137900D01*
X169553520Y-95070100D02*
X169558020Y-95116200D01*
X169533720Y-94830500D02*
X169553520Y-95070100D01*
X169522720Y-94616400D02*
X169533720Y-94830500D01*
X169522720Y-94545100D02*
X169522720Y-94616400D01*
X169519420Y-94411400D02*
X169522720Y-94545100D01*
X169534820Y-94009700D02*
X169519420Y-94411400D01*
X169593320Y-93481400D02*
X169534820Y-94009700D01*
X169691620Y-92959800D02*
X169593320Y-93481400D01*
X169786720Y-92572900D02*
X169691620Y-92959800D01*
X169823120Y-92445300D02*
X169786720Y-92572900D01*
X169849520Y-92353100D02*
X169823120Y-92445300D01*
X169986520Y-91895000D02*
X169849520Y-92353100D01*
X170141120Y-91446000D02*
X169986520Y-91895000D01*
X170176520Y-91358500D02*
X170141120Y-91446000D01*
X170194620Y-91305700D02*
X170176520Y-91358500D01*
X170244220Y-91145800D02*
X170194620Y-91305700D01*
X170320120Y-90914100D02*
X170244220Y-91145800D01*
X170412620Y-90692800D02*
X170320120Y-90914100D01*
X170494820Y-90551500D02*
X170412620Y-90692800D01*
X170530020Y-90511200D02*
X170494820Y-90551500D01*
X170544620Y-90492800D02*
X170530020Y-90511200D01*
X170600120Y-90447000D02*
X170544620Y-90492800D01*
X170676920Y-90416200D02*
X170600120Y-90447000D01*
X170758620Y-90412100D02*
X170676920Y-90416200D01*
X170843720Y-90428300D02*
X170758620Y-90412100D01*
X170930420Y-90458300D02*
X170843720Y-90428300D01*
X171017120Y-90495600D02*
X170930420Y-90458300D01*
X171102120Y-90533800D02*
X171017120Y-90495600D01*
X171163120Y-90559200D02*
X171102120Y-90533800D01*
X171183920Y-90566500D02*
X171163120Y-90559200D01*
X171232620Y-90584600D02*
X171183920Y-90566500D01*
X171382920Y-90627400D02*
X171232620Y-90584600D01*
X171596920Y-90681500D02*
X171382920Y-90627400D01*
X171807720Y-90742600D02*
X171596920Y-90681500D01*
X171952120Y-90799300D02*
X171807720Y-90742600D01*
X171996820Y-90824300D02*
X171952120Y-90799300D01*
X172019620Y-90837700D02*
X171996820Y-90824300D01*
X172077820Y-90895200D02*
X172019620Y-90837700D01*
X172114520Y-90980900D02*
X172077820Y-90895200D01*
X172115520Y-91076900D02*
X172114520Y-90980900D01*
X172089620Y-91178900D02*
X172115520Y-91076900D01*
X172045420Y-91282700D02*
X172089620Y-91178900D01*
X171991820Y-91383800D02*
X172045420Y-91282700D01*
X171937420Y-91478000D02*
X171991820Y-91383800D01*
X171901820Y-91540000D02*
X171937420Y-91478000D01*
X171890820Y-91561100D02*
X171901820Y-91540000D01*
X171846520Y-91644000D02*
X171890820Y-91561100D01*
X171636720Y-92067700D02*
X171846520Y-91644000D01*
X171435720Y-92491300D02*
X171636720Y-92067700D01*
X171396020Y-92574200D02*
X171435720Y-92491300D01*
X171356220Y-92661700D02*
X171396020Y-92574200D01*
X171152920Y-93099100D02*
X171356220Y-92661700D01*
X170967420Y-93536600D02*
X171152920Y-93099100D01*
X170936520Y-93624100D02*
X170967420Y-93536600D01*
X170913020Y-93683600D02*
X170936520Y-93624100D01*
X170848320Y-93864400D02*
X170913020Y-93683600D01*
X170761920Y-94110000D02*
X170848320Y-93864400D01*
X170665620Y-94351900D02*
X170761920Y-94110000D01*
X170580820Y-94526600D02*
X170665620Y-94351900D01*
X170547720Y-94581900D02*
X170580820Y-94526600D01*
X170534020Y-94606800D02*
X170547720Y-94581900D01*
X170486120Y-94677200D02*
X170534020Y-94606800D01*
X170413720Y-94770700D02*
X170486120Y-94677200D01*
X170339220Y-94864300D02*
X170413720Y-94770700D01*
X170271520Y-94959600D02*
X170339220Y-94864300D01*
X170219520Y-95058300D02*
X170271520Y-94959600D01*
X170192320Y-95162200D02*
X170219520Y-95058300D01*
X170198520Y-95272900D02*
X170192320Y-95162200D01*
X170231020Y-95364800D02*
X170198520Y-95272900D01*
X170247220Y-95392500D02*
X170231020Y-95364800D01*
X170259020Y-95410000D02*
X170247220Y-95392500D01*
X170299820Y-95459300D02*
X170259020Y-95410000D01*
X170363420Y-95520100D02*
X170299820Y-95459300D01*
X170435720Y-95572500D02*
X170363420Y-95520100D01*
X170514520Y-95613400D02*
X170435720Y-95572500D01*
X170597420Y-95640700D02*
X170514520Y-95613400D01*
X170682120Y-95651400D02*
X170597420Y-95640700D01*
X170766420Y-95643200D02*
X170682120Y-95651400D01*
X170829020Y-95623300D02*
X170766420Y-95643200D01*
X170848120Y-95613400D02*
X170829020Y-95623300D01*
X170873020Y-95599600D02*
X170848120Y-95613400D01*
X170940420Y-95544400D02*
X170873020Y-95599600D01*
X171019820Y-95452200D02*
X170940420Y-95544400D01*
X171088520Y-95342700D02*
X171019820Y-95452200D01*
X171148520Y-95222100D02*
X171088520Y-95342700D01*
X171201920Y-95096100D02*
X171148520Y-95222100D01*
X171250720Y-94971100D02*
X171201920Y-95096100D01*
X171297020Y-94852900D02*
X171250720Y-94971100D01*
X171330520Y-94773600D02*
X171297020Y-94852900D01*
X171342920Y-94747700D02*
X171330520Y-94773600D01*
X171378220Y-94664800D02*
X171342920Y-94747700D01*
X171731720Y-93854300D02*
X171378220Y-94664800D01*
X171767120Y-93771500D02*
X171731720Y-93854300D01*
X171823520Y-93643400D02*
X171767120Y-93771500D01*
X171990220Y-93258000D02*
X171823520Y-93643400D01*
X172213320Y-92744600D02*
X171990220Y-93258000D01*
X172443020Y-92238000D02*
X172213320Y-92744600D01*
X172622620Y-91867100D02*
X172443020Y-92238000D01*
X172686120Y-91745300D02*
X172622620Y-91867100D01*
X172698320Y-91721500D02*
X172686120Y-91745300D01*
X172732920Y-91648900D02*
X172698320Y-91721500D01*
X172781920Y-91544100D02*
X172732920Y-91648900D01*
X172835520Y-91438000D02*
X172781920Y-91544100D01*
X172895920Y-91337800D02*
X172835520Y-91438000D01*
X172965520Y-91250400D02*
X172895920Y-91337800D01*
X173046520Y-91183200D02*
X172965520Y-91250400D01*
X173141120Y-91143200D02*
X173046520Y-91183200D01*
X173224520Y-91134300D02*
X173141120Y-91143200D01*
X173251620Y-91137500D02*
X173224520Y-91134300D01*
X173312320Y-91144500D02*
X173251620Y-91137500D01*
X173492920Y-91177200D02*
X173312320Y-91144500D01*
X173737620Y-91234200D02*
X173492920Y-91177200D01*
X173982220Y-91298100D02*
X173737620Y-91234200D01*
X174163020Y-91344500D02*
X173982220Y-91298100D01*
X174223620Y-91358500D02*
X174163020Y-91344500D01*
X174246520Y-91364000D02*
X174223620Y-91358500D01*
X174316120Y-91376500D02*
X174246520Y-91364000D01*
X174416920Y-91392400D02*
X174316120Y-91376500D01*
X174519320Y-91410900D02*
X174416920Y-91392400D01*
X174616820Y-91436700D02*
X174519320Y-91410900D01*
X174702720Y-91474700D02*
X174616820Y-91436700D01*
X174770420Y-91529400D02*
X174702720Y-91474700D01*
X174813120Y-91605700D02*
X174770420Y-91529400D01*
X174825920Y-91683000D02*
X174813120Y-91605700D01*
X174824520Y-91708400D02*
X174825920Y-91683000D01*
X174821220Y-91768800D02*
X174824520Y-91708400D01*
X174789720Y-91948700D02*
X174821220Y-91768800D01*
X174731620Y-92180400D02*
X174789720Y-91948700D01*
X174680420Y-92415600D02*
X174731620Y-92180400D01*
X174662320Y-92603900D02*
X174680420Y-92415600D01*
X174665420Y-92666300D02*
X174662320Y-92603900D01*
X174668820Y-92730600D02*
X174665420Y-92666300D01*
X174682220Y-92923600D02*
X174668820Y-92730600D01*
X174707520Y-93191200D02*
X174682220Y-92923600D01*
X174742420Y-93458900D02*
X174707520Y-93191200D01*
X174775520Y-93652300D02*
X174742420Y-93458900D01*
X174789120Y-93716200D02*
X174775520Y-93652300D01*
X174794020Y-93739800D02*
X174789120Y-93716200D01*
X174814520Y-93809400D02*
X174794020Y-93739800D01*
X174850120Y-93892300D02*
X174814520Y-93809400D01*
X174894420Y-93959700D02*
X174850120Y-93892300D01*
X174945920Y-94006200D02*
X174894420Y-93959700D01*
X175003320Y-94027100D02*
X174945920Y-94006200D01*
X175065020Y-94016600D02*
X175003320Y-94027100D01*
X175129520Y-93970100D02*
X175065020Y-94016600D01*
X175181520Y-93905400D02*
X175129520Y-93970100D01*
X175195620Y-93882100D02*
X175181520Y-93905400D01*
X175229320Y-93825800D02*
X175195620Y-93882100D01*
X175316320Y-93649100D02*
X175229320Y-93825800D01*
X175418720Y-93400800D02*
X175316320Y-93649100D01*
X175511220Y-93148900D02*
X175418720Y-93400800D01*
X175578320Y-92966100D02*
X175511220Y-93148900D01*
X175602020Y-92905800D02*
X175578320Y-92966100D01*
X175637520Y-92822900D02*
X175602020Y-92905800D01*
X175803120Y-92410700D02*
X175637520Y-92822900D01*
X175959920Y-92007800D02*
X175803120Y-92410700D01*
X175990920Y-91929500D02*
X175959920Y-92007800D01*
X176002920Y-91901500D02*
X175990920Y-91929500D01*
X176040120Y-91818100D02*
X176002920Y-91901500D01*
X176092520Y-91729200D02*
X176040120Y-91818100D01*
X176164820Y-91657500D02*
X176092520Y-91729200D01*
X176245120Y-91609800D02*
X176164820Y-91657500D01*
X176273720Y-91597900D02*
X176245120Y-91609800D01*
X176295120Y-91588300D02*
X176273720Y-91597900D01*
X176363120Y-91567200D02*
X176295120Y-91588300D01*
X176445920Y-91545000D02*
X176363120Y-91567200D01*
X176522220Y-91512500D02*
X176445920Y-91545000D01*
X176577420Y-91468500D02*
X176522220Y-91512500D01*
X176591820Y-91450600D02*
X176577420Y-91468500D01*
X176606920Y-91430100D02*
X176591820Y-91450600D01*
X176639520Y-91359200D02*
X176606920Y-91430100D01*
X176656120Y-91265000D02*
X176639520Y-91359200D01*
X176649820Y-91168600D02*
X176656120Y-91265000D01*
X176629320Y-91070700D02*
X176649820Y-91168600D01*
X176603020Y-90971900D02*
X176629320Y-91070700D01*
X176579320Y-90872900D02*
X176603020Y-90971900D01*
X176566920Y-90774400D02*
X176579320Y-90872900D01*
X176569320Y-90700700D02*
X176566920Y-90774400D01*
X176574120Y-90677000D02*
X176569320Y-90700700D01*
X176587920Y-90608600D02*
X176574120Y-90677000D01*
X176658820Y-90409300D02*
X176587920Y-90608600D01*
X176788320Y-90138200D02*
X176658820Y-90409300D01*
X176934420Y-89874000D02*
X176788320Y-90138200D01*
X177037020Y-89689700D02*
X176934420Y-89874000D01*
X177069020Y-89627100D02*
X177037020Y-89689700D01*
X177108720Y-89539500D02*
X177069020Y-89627100D01*
X177506320Y-88696830D02*
X177108720Y-89539500D01*
X177546120Y-88613930D02*
X177506320Y-88696830D01*
X177558020Y-88590820D02*
X177546120Y-88613930D01*
X177590520Y-88519850D02*
X177558020Y-88590820D01*
X177633320Y-88420790D02*
X177590520Y-88519850D01*
X177677720Y-88322210D02*
X177633320Y-88420790D01*
X177727220Y-88229430D02*
X177677720Y-88322210D01*
X177785020Y-88147830D02*
X177727220Y-88229430D01*
X177854320Y-88082890D02*
X177785020Y-88147830D01*
X177938420Y-88039990D02*
X177854320Y-88082890D01*
X178015220Y-88024510D02*
X177938420Y-88039990D01*
X178040920Y-88024510D02*
X178015220Y-88024510D01*
X178066820Y-88024510D02*
X178040920Y-88024510D01*
X178144320Y-88032820D02*
X178066820Y-88024510D01*
X178244120Y-88049860D02*
X178144320Y-88032820D01*
X178344120Y-88063360D02*
X178244120Y-88049860D01*
X178422020Y-88064670D02*
X178344120Y-88063360D01*
X178447420Y-88061360D02*
X178422020Y-88064670D01*
X178487220Y-88056750D02*
X178447420Y-88061360D01*
X178677220Y-88013010D02*
X178487220Y-88056750D01*
X178867220Y-87960070D02*
X178677220Y-88013010D01*
X178906920Y-87950850D02*
X178867220Y-87960070D01*
X178923620Y-88048610D02*
X178906920Y-87950850D01*
X178946920Y-88346570D02*
X178923620Y-88048610D01*
X178948820Y-88754390D02*
X178946920Y-88346570D01*
X178934320Y-89165600D02*
X178948820Y-88754390D01*
X178924520Y-89470200D02*
X178934320Y-89165600D01*
X178924520Y-89571800D02*
X178924520Y-89470200D01*
X178924520Y-89768000D02*
X178924520Y-89571800D01*
X178931220Y-90356900D02*
X178924520Y-89768000D01*
X178929020Y-91022300D02*
X178931220Y-90356900D01*
X178924520Y-91155900D02*
X178929020Y-91022300D01*
X178921220Y-91247200D02*
X178924520Y-91155900D01*
X178908320Y-91521000D02*
X178921220Y-91247200D01*
X178884320Y-91884000D02*
X178908320Y-91521000D01*
X178849420Y-92244400D02*
X178884320Y-91884000D01*
X178800820Y-92601800D02*
X178849420Y-92244400D01*
X178735620Y-92955700D02*
X178800820Y-92601800D01*
X178651220Y-93305800D02*
X178735620Y-92955700D01*
X178544320Y-93651500D02*
X178651220Y-93305800D01*
X178448120Y-93908600D02*
X178544320Y-93651500D01*
X178412020Y-93992500D02*
X178448120Y-93908600D01*
X178379720Y-94065900D02*
X178412020Y-93992500D01*
X178276620Y-94283600D02*
X178379720Y-94065900D01*
X178129020Y-94568700D02*
X178276620Y-94283600D01*
X177969420Y-94847500D02*
X178129020Y-94568700D01*
X177797920Y-95118400D02*
X177969420Y-94847500D01*
X177614820Y-95380700D02*
X177797920Y-95118400D01*
X177420420Y-95633400D02*
X177614820Y-95380700D01*
X177214820Y-95875500D02*
X177420420Y-95633400D01*
X176998120Y-96106100D02*
X177214820Y-95875500D01*
X176770820Y-96324300D02*
X176998120Y-96106100D01*
X176532920Y-96528700D02*
X176770820Y-96324300D01*
X176284720Y-96718900D02*
X176532920Y-96528700D01*
X176026220Y-96893600D02*
X176284720Y-96718900D01*
X175757920Y-97051900D02*
X176026220Y-96893600D01*
X175479820Y-97192800D02*
X175757920Y-97051900D01*
X175192020Y-97315200D02*
X175479820Y-97192800D01*
X174970220Y-97395400D02*
X175192020Y-97315200D01*
X174895220Y-97418600D02*
X174970220Y-97395400D01*
X174818420Y-97442900D02*
X174895220Y-97418600D01*
X174588720Y-97516600D02*
X174818420Y-97442900D01*
X174279120Y-97613400D02*
X174588720Y-97516600D01*
X173966620Y-97701800D02*
X174279120Y-97613400D01*
X173651320Y-97775400D02*
X173966620Y-97701800D01*
X173333720Y-97827500D02*
X173651320Y-97775400D01*
X173013820Y-97851100D02*
X173333720Y-97827500D01*
X172691820Y-97839800D02*
X173013820Y-97851100D01*
X172447620Y-97805500D02*
X172691820Y-97839800D01*
X175081920Y-110978000D02*
X175071920Y-110901800D01*
X175128320Y-111204600D02*
X175081920Y-110978000D01*
X175217720Y-111500400D02*
X175128320Y-111204600D01*
X175340220Y-111782500D02*
X175217720Y-111500400D01*
X175452720Y-111981500D02*
X175340220Y-111782500D01*
X175496120Y-112043900D02*
X175452720Y-111981500D01*
X175538020Y-112107800D02*
X175496120Y-112043900D01*
X175692320Y-112280900D02*
X175538020Y-112107800D01*
X175926820Y-112476600D02*
X175692320Y-112280900D01*
X176184420Y-112644800D02*
X175926820Y-112476600D01*
X176383720Y-112760800D02*
X176184420Y-112644800D01*
X176450420Y-112799100D02*
X176383720Y-112760800D01*
X176476220Y-112813400D02*
X176450420Y-112799100D01*
X176556120Y-112852900D02*
X176476220Y-112813400D01*
X176684120Y-112910900D02*
X176556120Y-112852900D01*
X176830120Y-112973600D02*
X176684120Y-112910900D01*
X176988820Y-113041100D02*
X176830120Y-112973600D01*
X177155620Y-113113900D02*
X176988820Y-113041100D01*
X177325820Y-113192500D02*
X177155620Y-113113900D01*
X177494420Y-113276900D02*
X177325820Y-113192500D01*
X177656620Y-113367800D02*
X177494420Y-113276900D01*
X177807620Y-113465300D02*
X177656620Y-113367800D01*
X177942620Y-113569800D02*
X177807620Y-113465300D01*
X178056820Y-113681800D02*
X177942620Y-113569800D01*
X178145220Y-113801400D02*
X178056820Y-113681800D01*
X178203420Y-113929300D02*
X178145220Y-113801400D01*
X178226320Y-114065500D02*
X178203420Y-113929300D01*
X178209020Y-114210500D02*
X178226320Y-114065500D01*
X178166620Y-114328400D02*
X178209020Y-114210500D01*
X178146920Y-114364700D02*
X178166620Y-114328400D01*
X178109420Y-114436100D02*
X178146920Y-114364700D01*
X177971320Y-114637100D02*
X178109420Y-114436100D01*
X177756220Y-114878700D02*
X177971320Y-114637100D01*
X177511620Y-115097100D02*
X177756220Y-114878700D01*
X177247920Y-115299400D02*
X177511620Y-115097100D01*
X176974920Y-115493300D02*
X177247920Y-115299400D01*
X176703020Y-115685700D02*
X176974920Y-115493300D01*
X176442320Y-115884300D02*
X176703020Y-115685700D01*
X176259920Y-116040200D02*
X176442320Y-115884300D01*
X176203020Y-116096100D02*
X176259920Y-116040200D01*
X176083720Y-116213400D02*
X176203020Y-116096100D01*
X175748720Y-116588900D02*
X176083720Y-116213400D01*
X175339120Y-117123000D02*
X175748720Y-116588900D01*
X174972720Y-117691800D02*
X175339120Y-117123000D01*
X174723820Y-118136400D02*
X174972720Y-117691800D01*
X174647720Y-118288000D02*
X174723820Y-118136400D01*
X174608820Y-118365800D02*
X174647720Y-118288000D01*
X174498720Y-118602300D02*
X174608820Y-118365800D01*
X174361620Y-118922900D02*
X174498720Y-118602300D01*
X174234520Y-119248700D02*
X174361620Y-118922900D01*
X174115120Y-119578600D02*
X174234520Y-119248700D01*
X174001320Y-119911500D02*
X174115120Y-119578600D01*
X173891320Y-120246400D02*
X174001320Y-119911500D01*
X173782720Y-120581900D02*
X173891320Y-120246400D01*
X173673620Y-120917500D02*
X173782720Y-120581900D01*
X173561620Y-121251600D02*
X173673620Y-120917500D01*
X173445020Y-121583400D02*
X173561620Y-121251600D01*
X173321520Y-121911800D02*
X173445020Y-121583400D01*
X173188820Y-122235700D02*
X173321520Y-121911800D01*
X173045220Y-122553900D02*
X173188820Y-122235700D01*
X172888420Y-122865400D02*
X173045220Y-122553900D01*
X172716320Y-123169100D02*
X172888420Y-122865400D01*
X172576520Y-123391800D02*
X172716320Y-123169100D01*
X172527020Y-123464000D02*
X172576520Y-123391800D01*
X172479920Y-123534000D02*
X172527020Y-123464000D01*
X172322520Y-123733000D02*
X172479920Y-123534000D01*
X172095120Y-123968000D02*
X172322520Y-123733000D01*
X171847220Y-124170700D02*
X172095120Y-123968000D01*
X171580920Y-124342700D02*
X171847220Y-124170700D01*
X171298720Y-124485900D02*
X171580920Y-124342700D01*
X171002920Y-124602200D02*
X171298720Y-124485900D01*
X170695820Y-124693000D02*
X171002920Y-124602200D01*
X170379820Y-124760400D02*
X170695820Y-124693000D01*
X170057120Y-124805900D02*
X170379820Y-124760400D01*
X169730120Y-124831400D02*
X170057120Y-124805900D01*
X169401120Y-124838400D02*
X169730120Y-124831400D01*
X169072520Y-124829100D02*
X169401120Y-124838400D01*
X168746620Y-124805000D02*
X169072520Y-124829100D01*
X168425720Y-124767800D02*
X168746620Y-124805000D01*
X168112190Y-124719300D02*
X168425720Y-124767800D01*
X167884070Y-124677100D02*
X168112190Y-124719300D01*
X167808370Y-124661400D02*
X167884070Y-124677100D01*
X167640410Y-124627100D02*
X167808370Y-124661400D01*
X167141220Y-124501400D02*
X167640410Y-124627100D01*
X166487300Y-124306600D02*
X167141220Y-124501400D01*
X165840070Y-124091400D02*
X166487300Y-124306600D01*
X165354760Y-123924400D02*
X165840070Y-124091400D01*
X165192820Y-123869300D02*
X165354760Y-123924400D01*
X165029900Y-123810400D02*
X165192820Y-123869300D01*
X164538620Y-123640700D02*
X165029900Y-123810400D01*
X163882820Y-123408700D02*
X164538620Y-123640700D01*
X163236930Y-123149100D02*
X163882820Y-123408700D01*
X162764110Y-122923600D02*
X163236930Y-123149100D01*
X162612580Y-122837900D02*
X162764110Y-122923600D01*
X162539820Y-122798200D02*
X162612580Y-122837900D01*
X162322110Y-122678300D02*
X162539820Y-122798200D01*
X162035150Y-122515500D02*
X162322110Y-122678300D01*
X161753580Y-122345700D02*
X162035150Y-122515500D01*
X161479280Y-122165500D02*
X161753580Y-122345700D01*
X161214080Y-121971500D02*
X161479280Y-122165500D01*
X160959860Y-121760300D02*
X161214080Y-121971500D01*
X160718480Y-121528200D02*
X160959860Y-121760300D01*
X160545680Y-121338400D02*
X160718480Y-121528200D01*
X160491860Y-121272100D02*
X160545680Y-121338400D01*
X160440320Y-121208300D02*
X160491860Y-121272100D01*
X160302030Y-121003900D02*
X160440320Y-121208300D01*
X160156300Y-120725000D02*
X160302030Y-121003900D01*
X160054100Y-120437100D02*
X160156300Y-120725000D01*
X159994790Y-120141600D02*
X160054100Y-120437100D01*
X159977710Y-119840100D02*
X159994790Y-120141600D01*
X160002220Y-119534000D02*
X159977710Y-119840100D01*
X160067760Y-119225000D02*
X160002220Y-119534000D01*
X160142960Y-118990300D02*
X160067760Y-119225000D01*
X160173720Y-118914400D02*
X160142960Y-118990300D01*
X160203940Y-118844400D02*
X160173720Y-118914400D01*
X160308050Y-118640300D02*
X160203940Y-118844400D01*
X160469730Y-118372100D02*
X160308050Y-118640300D01*
X160654620Y-118112600D02*
X160469730Y-118372100D01*
X160858510Y-117864400D02*
X160654620Y-118112600D01*
X161077370Y-117630000D02*
X160858510Y-117864400D01*
X161306970Y-117412100D02*
X161077370Y-117630000D01*
X161543190Y-117212900D02*
X161306970Y-117412100D01*
X161720910Y-117077900D02*
X161543190Y-117212900D01*
X161781960Y-117035500D02*
X161720910Y-117077900D01*
X161918290Y-116944100D02*
X161781960Y-117035500D01*
X162345280Y-116696800D02*
X161918290Y-116944100D01*
X162921820Y-116411500D02*
X162345280Y-116696800D01*
X163511660Y-116157500D02*
X162921820Y-116411500D01*
X163964030Y-115973400D02*
X163511660Y-116157500D01*
X164114800Y-115911900D02*
X163964030Y-115973400D01*
X164277030Y-115842900D02*
X164114800Y-115911900D01*
X164760640Y-115628400D02*
X164277030Y-115842900D01*
X165398220Y-115329400D02*
X164760640Y-115628400D01*
X166025870Y-115013200D02*
X165398220Y-115329400D01*
X166489410Y-114764300D02*
X166025870Y-115013200D01*
X166641980Y-114677900D02*
X166489410Y-114764300D01*
X166719180Y-114633300D02*
X166641980Y-114677900D01*
X166946290Y-114491500D02*
X166719180Y-114633300D01*
X167237580Y-114292500D02*
X166946290Y-114491500D01*
X167517690Y-114081800D02*
X167237580Y-114292500D01*
X167788470Y-113860400D02*
X167517690Y-114081800D01*
X168051820Y-113629700D02*
X167788470Y-113860400D01*
X168309570Y-113390500D02*
X168051820Y-113629700D01*
X168563620Y-113143900D02*
X168309570Y-113390500D01*
X168753120Y-112954700D02*
X168563620Y-113143900D01*
X168815720Y-112891100D02*
X168753120Y-112954700D01*
X168875020Y-112832700D02*
X168815720Y-112891100D01*
X169050720Y-112655400D02*
X168875020Y-112832700D01*
X169277420Y-112414600D02*
X169050720Y-112655400D01*
X169494220Y-112163300D02*
X169277420Y-112414600D01*
X169650220Y-111964700D02*
X169494220Y-112163300D01*
X169699420Y-111896500D02*
X169650220Y-111964700D01*
X169765620Y-111799700D02*
X169699420Y-111896500D01*
X170079320Y-111307100D02*
X169765620Y-111799700D01*
X170393020Y-110814300D02*
X170079320Y-111307100D01*
X170459320Y-110717600D02*
X170393020Y-110814300D01*
X170558420Y-110573000D02*
X170459320Y-110717600D01*
X170864920Y-110145700D02*
X170558420Y-110573000D01*
X171292120Y-109596400D02*
X170864920Y-110145700D01*
X171749120Y-109078000D02*
X171292120Y-109596400D01*
X172115220Y-108713200D02*
X171749120Y-109078000D01*
X172244220Y-108599400D02*
X172115220Y-108713200D01*
X172270520Y-108575500D02*
X172244220Y-108599400D01*
X172349520Y-108504300D02*
X172270520Y-108575500D01*
X172459920Y-108406500D02*
X172349520Y-108504300D01*
X172575220Y-108307900D02*
X172459920Y-108406500D01*
X172694820Y-108210000D02*
X172575220Y-108307900D01*
X172818720Y-108114600D02*
X172694820Y-108210000D01*
X172946320Y-108023300D02*
X172818720Y-108114600D01*
X173077420Y-107938000D02*
X172946320Y-108023300D01*
X173211820Y-107860200D02*
X173077420Y-107938000D01*
X173349120Y-107791800D02*
X173211820Y-107860200D01*
X173489020Y-107734300D02*
X173349120Y-107791800D01*
X173631120Y-107689400D02*
X173489020Y-107734300D01*
X173775120Y-107659000D02*
X173631120Y-107689400D01*
X173920920Y-107644700D02*
X173775120Y-107659000D01*
X174068020Y-107648200D02*
X173920920Y-107644700D01*
X174216120Y-107671100D02*
X174068020Y-107648200D01*
X174328720Y-107701800D02*
X174216120Y-107671100D01*
X174365020Y-107715100D02*
X174328720Y-107701800D01*
X174398720Y-107727600D02*
X174365020Y-107715100D01*
X174496320Y-107773900D02*
X174398720Y-107727600D01*
X174613020Y-107845700D02*
X174496320Y-107773900D01*
X174715620Y-107929400D02*
X174613020Y-107845700D01*
X174805120Y-108024000D02*
X174715620Y-107929400D01*
X174882520Y-108128000D02*
X174805120Y-108024000D01*
X174948420Y-108240700D02*
X174882520Y-108128000D01*
X175003820Y-108360500D02*
X174948420Y-108240700D01*
X175049820Y-108486500D02*
X175003820Y-108360500D01*
X175087020Y-108617500D02*
X175049820Y-108486500D01*
X175116520Y-108752200D02*
X175087020Y-108617500D01*
X175138820Y-108889600D02*
X175116520Y-108752200D01*
X175155220Y-109028400D02*
X175138820Y-108889600D01*
X175166520Y-109167600D02*
X175155220Y-109028400D01*
X175173420Y-109306100D02*
X175166520Y-109167600D01*
X175176920Y-109442300D02*
X175173420Y-109306100D01*
X175177920Y-109542300D02*
X175176920Y-109442300D01*
X175177920Y-109575700D02*
X175177920Y-109542300D01*
X175068620Y-110819000D02*
X175076120Y-110570300D01*
X168692020Y-126945400D02*
X168692020Y-126945400D01*
X168712320Y-126945400D02*
X168692020Y-126945400D01*
X168773020Y-126945400D02*
X168712320Y-126945400D01*
X168831920Y-126945400D02*
X168773020Y-126945400D01*
X168871220Y-126945400D02*
X168831920Y-126945400D01*
X168893320Y-126945400D02*
X168871220Y-126945400D01*
X168900620Y-126945400D02*
X168893320Y-126945400D01*
X168895420Y-126945400D02*
X168900620Y-126945400D01*
X168880420Y-126945400D02*
X168895420Y-126945400D01*
X168857720Y-126945400D02*
X168880420Y-126945400D01*
X168829820Y-126945400D02*
X168857720Y-126945400D01*
X168799120Y-126945400D02*
X168829820Y-126945400D01*
X168768220Y-126945400D02*
X168799120Y-126945400D01*
X168739220Y-126945400D02*
X168768220Y-126945400D01*
X168714720Y-126945400D02*
X168739220Y-126945400D01*
X168697120Y-126945400D02*
X168714720Y-126945400D01*
X168688720Y-126945400D02*
X168697120Y-126945400D01*
X168691220Y-126945400D02*
X168688720Y-126945400D01*
X168692020Y-126945400D02*
X168691220Y-126945400D01*
X168740620Y-126945400D02*
X168692020Y-126945400D01*
X168886520Y-126948200D02*
X168740620Y-126945400D01*
X169085220Y-126953400D02*
X168886520Y-126948200D01*
X169287220Y-126957100D02*
X169085220Y-126953400D01*
X169491720Y-126954600D02*
X169287220Y-126957100D01*
X169495320Y-110327900D02*
X169505020Y-110275500D01*
X196108620Y-102394100D02*
X196281220Y-102012100D01*
X196049520Y-102520800D02*
X196108620Y-102394100D01*
X195989420Y-102646200D02*
X196049520Y-102520800D01*
X195798020Y-103017300D02*
X195989420Y-102646200D01*
X195528020Y-103499000D02*
X195798020Y-103017300D01*
X195240520Y-103966200D02*
X195528020Y-103499000D01*
X194936320Y-104419700D02*
X195240520Y-103966200D01*
X194616620Y-104860100D02*
X194936320Y-104419700D01*
X194282220Y-105287900D02*
X194616620Y-104860100D01*
X193934020Y-105703700D02*
X194282220Y-105287900D01*
X193573120Y-106108000D02*
X193934020Y-105703700D01*
X193200420Y-106501600D02*
X193573120Y-106108000D01*
X192816820Y-106885000D02*
X193200420Y-106501600D01*
X192423320Y-107258900D02*
X192816820Y-106885000D01*
X192020920Y-107623600D02*
X192423320Y-107258900D01*
X191610520Y-107980000D02*
X192020920Y-107623600D01*
X191193120Y-108328600D02*
X191610520Y-107980000D01*
X190769720Y-108669800D02*
X191193120Y-108328600D01*
X190448820Y-108921600D02*
X190769720Y-108669800D01*
X190341220Y-109004600D02*
X190448820Y-108921600D01*
X190290920Y-109043000D02*
X190341220Y-109004600D01*
X190135620Y-109152800D02*
X190290920Y-109043000D01*
X189919820Y-109295800D02*
X190135620Y-109152800D01*
X189698120Y-109437100D02*
X189919820Y-109295800D01*
X189475220Y-109580100D02*
X189698120Y-109437100D01*
X189255620Y-109728300D02*
X189475220Y-109580100D01*
X189043820Y-109885300D02*
X189255620Y-109728300D01*
X188844520Y-110054100D02*
X189043820Y-109885300D01*
X188705420Y-110190200D02*
X188844520Y-110054100D01*
X188662320Y-110238700D02*
X188705420Y-110190200D01*
X188640220Y-110263200D02*
X188662320Y-110238700D01*
X188582920Y-110344800D02*
X188640220Y-110263200D01*
X188541520Y-110442200D02*
X188582920Y-110344800D01*
X188534520Y-110530400D02*
X188541520Y-110442200D01*
X188558420Y-110609400D02*
X188534520Y-110530400D01*
X188609720Y-110678900D02*
X188558420Y-110609400D01*
X188684720Y-110738600D02*
X188609720Y-110678900D01*
X188779920Y-110788400D02*
X188684720Y-110738600D01*
X188863420Y-110819800D02*
X188779920Y-110788400D01*
X188892020Y-110828200D02*
X188863420Y-110819800D01*
X188971620Y-110855800D02*
X188892020Y-110828200D01*
X189366920Y-110977700D02*
X188971620Y-110855800D01*
X189753620Y-111109000D02*
X189366920Y-110977700D01*
X189828720Y-111141200D02*
X189753620Y-111109000D01*
X189879020Y-111164000D02*
X189828720Y-111141200D01*
X190030120Y-111231600D02*
X189879020Y-111164000D01*
X190233720Y-111325700D02*
X190030120Y-111231600D01*
X190435420Y-111427200D02*
X190233720Y-111325700D01*
X190630520Y-111539600D02*
X190435420Y-111427200D01*
X190814920Y-111666600D02*
X190630520Y-111539600D01*
X190984320Y-111812100D02*
X190814920Y-111666600D01*
X191134120Y-111979600D02*
X190984320Y-111812100D01*
X191232720Y-112122200D02*
X191134120Y-111979600D01*
X191260220Y-112172700D02*
X191232720Y-112122200D01*
X191276920Y-112205800D02*
X191260220Y-112172700D01*
X191319720Y-112308600D02*
X191276920Y-112205800D01*
X191364820Y-112452200D02*
X191319720Y-112308600D01*
X191394720Y-112600400D02*
X191364820Y-112452200D01*
X191408120Y-112750700D02*
X191394720Y-112600400D01*
X191404320Y-112900000D02*
X191408120Y-112750700D01*
X191381920Y-113045700D02*
X191404320Y-112900000D01*
X191340120Y-113184800D02*
X191381920Y-113045700D01*
X191295920Y-113283900D02*
X191340120Y-113184800D01*
X191277920Y-113314800D02*
X191295920Y-113283900D01*
X191250420Y-113358600D02*
X191277920Y-113314800D01*
X191145820Y-113476100D02*
X191250420Y-113358600D01*
X190980520Y-113604300D02*
X191145820Y-113476100D01*
X190789820Y-113704000D02*
X190980520Y-113604300D01*
X190581920Y-113779800D02*
X190789820Y-113704000D01*
X190365020Y-113836800D02*
X190581920Y-113779800D01*
X190147020Y-113879400D02*
X190365020Y-113836800D01*
X189936120Y-113912600D02*
X190147020Y-113879400D01*
X189789320Y-113933700D02*
X189936120Y-113912600D01*
X189740420Y-113941100D02*
X189789320Y-113933700D01*
X189614720Y-113961600D02*
X189740420Y-113941100D01*
X189231320Y-113983900D02*
X189614720Y-113961600D01*
X188717420Y-113952500D02*
X189231320Y-113983900D01*
X188206920Y-113855500D02*
X188717420Y-113952500D01*
X187830420Y-113746400D02*
X188206920Y-113855500D01*
X187707920Y-113701600D02*
X187830420Y-113746400D01*
X187650920Y-113680700D02*
X187707920Y-113701600D01*
X187484420Y-113606400D02*
X187650920Y-113680700D01*
X187265020Y-113489100D02*
X187484420Y-113606400D01*
X187050620Y-113353900D02*
X187265020Y-113489100D01*
X186841920Y-113204300D02*
X187050620Y-113353900D01*
X186639920Y-113044300D02*
X186841920Y-113204300D01*
X186445420Y-112877900D02*
X186639920Y-113044300D01*
X186259120Y-112708900D02*
X186445420Y-112877900D01*
X186125920Y-112583400D02*
X186259120Y-112708900D01*
X186082020Y-112541100D02*
X186125920Y-112583400D01*
X186035420Y-112499400D02*
X186082020Y-112541100D01*
X185905420Y-112363200D02*
X186035420Y-112499400D01*
X185741920Y-112168200D02*
X185905420Y-112363200D01*
X185584920Y-111966100D02*
X185741920Y-112168200D01*
X185468320Y-111816400D02*
X185584920Y-111966100D01*
X185428120Y-111767500D02*
X185468320Y-111816400D01*
X185375120Y-111707600D02*
X185428120Y-111767500D01*
X185092320Y-111426800D02*
X185375120Y-111707600D01*
X184809720Y-111145900D02*
X185092320Y-111426800D01*
X184756620Y-111086100D02*
X184809720Y-111145900D01*
X184818420Y-111063000D02*
X184756620Y-111086100D01*
X185136520Y-110959300D02*
X184818420Y-111063000D01*
X185454720Y-110865000D02*
X185136520Y-110959300D01*
X185516520Y-110846500D02*
X185454720Y-110865000D01*
X185564720Y-110832200D02*
X185516520Y-110846500D01*
X185707620Y-110783200D02*
X185564720Y-110832200D01*
X185905420Y-110713000D02*
X185707620Y-110783200D01*
X186103020Y-110649700D02*
X185905420Y-110713000D01*
X186245920Y-110614300D02*
X186103020Y-110649700D01*
X186294120Y-110607100D02*
X186245920Y-110614300D01*
X186333420Y-110603900D02*
X186294120Y-110607100D01*
X186454520Y-110630100D02*
X186333420Y-110603900D01*
X186596820Y-110708400D02*
X186454520Y-110630100D01*
X186729020Y-110814300D02*
X186596820Y-110708400D01*
X186825620Y-110895400D02*
X186729020Y-110814300D01*
X186859720Y-110920300D02*
X186825620Y-110895400D01*
X186912620Y-110961600D02*
X186859720Y-110920300D01*
X187186620Y-111178000D02*
X186912620Y-110961600D01*
X187460520Y-111394600D02*
X187186620Y-111178000D01*
X187513620Y-111435900D02*
X187460520Y-111394600D01*
X187670220Y-111561100D02*
X187513620Y-111435900D01*
X188137620Y-111940100D02*
X187670220Y-111561100D01*
X188768320Y-112444400D02*
X188137620Y-111940100D01*
X189412320Y-112927900D02*
X188768320Y-112444400D01*
X189906220Y-113265900D02*
X189412320Y-112927900D01*
X190076120Y-113370100D02*
X189906220Y-113265900D01*
X190072620Y-113349800D02*
X190076120Y-113370100D01*
X190051220Y-113290900D02*
X190072620Y-113349800D01*
X190006820Y-113207200D02*
X190051220Y-113290900D01*
X189947720Y-113120700D02*
X190006820Y-113207200D01*
X189879520Y-113033900D02*
X189947720Y-113120700D01*
X189807020Y-112948700D02*
X189879520Y-113033900D01*
X189735620Y-112867500D02*
X189807020Y-112948700D01*
X189670420Y-112792300D02*
X189735620Y-112867500D01*
X189629420Y-112742500D02*
X189670420Y-112792300D01*
X189616620Y-112725400D02*
X189629420Y-112742500D01*
X189572420Y-112665500D02*
X189616620Y-112725400D01*
X189130520Y-112053000D02*
X189572420Y-112665500D01*
X189086320Y-111988600D02*
X189130520Y-112053000D01*
X188998020Y-111864100D02*
X189086320Y-111988600D01*
X188569520Y-111221800D02*
X188998020Y-111864100D01*
X188158620Y-110570300D02*
X188569520Y-111221800D01*
X188079120Y-110441400D02*
X188158620Y-110570300D01*
X188069420Y-110427300D02*
X188079120Y-110441400D01*
X188038620Y-110386600D02*
X188069420Y-110427300D01*
X187986820Y-110321200D02*
X188038620Y-110386600D01*
X187929320Y-110248600D02*
X187986820Y-110321200D01*
X187871320Y-110171900D02*
X187929320Y-110248600D01*
X187818420Y-110094300D02*
X187871320Y-110171900D01*
X187775920Y-110019100D02*
X187818420Y-110094300D01*
X187749020Y-109949600D02*
X187775920Y-110019100D01*
X187741520Y-109903600D02*
X187749020Y-109949600D01*
X187743320Y-109888700D02*
X187741520Y-109903600D01*
X187745120Y-109876900D02*
X187743320Y-109888700D01*
X187762920Y-109843300D02*
X187745120Y-109876900D01*
X187804320Y-109791800D02*
X187762920Y-109843300D01*
X187860920Y-109736200D02*
X187804320Y-109791800D01*
X187926620Y-109679100D02*
X187860920Y-109736200D01*
X187994720Y-109623000D02*
X187926620Y-109679100D01*
X188058820Y-109570100D02*
X187994720Y-109623000D01*
X188112720Y-109522700D02*
X188058820Y-109570100D01*
X188141620Y-109494100D02*
X188112720Y-109522700D01*
X188149820Y-109483400D02*
X188141620Y-109494100D01*
X188207320Y-109416500D02*
X188149820Y-109483400D01*
X188357720Y-109196200D02*
X188207320Y-109416500D01*
X188527420Y-108871100D02*
X188357720Y-109196200D01*
X188654320Y-108525100D02*
X188527420Y-108871100D01*
X188719420Y-108264000D02*
X188654320Y-108525100D01*
X188733020Y-108175700D02*
X188719420Y-108264000D01*
X188746220Y-108085900D02*
X188733020Y-108175700D01*
X188769720Y-107813900D02*
X188746220Y-108085900D01*
X188775020Y-107450400D02*
X188769720Y-107813900D01*
X188750420Y-107090400D02*
X188775020Y-107450400D01*
X188714420Y-106826100D02*
X188750420Y-107090400D01*
X188697620Y-106738900D02*
X188714420Y-106826100D01*
X188680920Y-106645000D02*
X188697620Y-106738900D01*
X188633020Y-106363000D02*
X188680920Y-106645000D01*
X188565120Y-105983700D02*
X188633020Y-106363000D01*
X188483820Y-105604400D02*
X188565120Y-105983700D01*
X188409320Y-105321200D02*
X188483820Y-105604400D01*
X188379520Y-105228400D02*
X188409320Y-105321200D01*
X188357420Y-105159400D02*
X188379520Y-105228400D01*
X188235920Y-104823300D02*
X188357420Y-105159400D01*
X188105520Y-104487200D02*
X188235920Y-104823300D01*
X188079120Y-104418000D02*
X188105520Y-104487200D01*
X188073120Y-104401500D02*
X188079120Y-104418000D01*
X188051820Y-104353300D02*
X188073120Y-104401500D01*
X188012720Y-104272800D02*
X188051820Y-104353300D01*
X187967220Y-104181400D02*
X188012720Y-104272800D01*
X187919920Y-104084100D02*
X187967220Y-104181400D01*
X187876120Y-103986200D02*
X187919920Y-104084100D01*
X187840520Y-103892200D02*
X187876120Y-103986200D01*
X187818120Y-103807300D02*
X187840520Y-103892200D01*
X187812220Y-103754000D02*
X187818120Y-103807300D01*
X187814020Y-103736600D02*
X187812220Y-103754000D01*
X187816220Y-103723600D02*
X187814020Y-103736600D01*
X187832720Y-103686100D02*
X187816220Y-103723600D01*
X187867420Y-103650800D02*
X187832720Y-103686100D01*
X187916220Y-103629400D02*
X187867420Y-103650800D01*
X187976920Y-103620300D02*
X187916220Y-103629400D01*
X188047220Y-103621900D02*
X187976920Y-103620300D01*
X188125220Y-103632900D02*
X188047220Y-103621900D01*
X188208720Y-103651600D02*
X188125220Y-103632900D01*
X188295520Y-103676600D02*
X188208720Y-103651600D01*
X188383620Y-103706500D02*
X188295520Y-103676600D01*
X188470820Y-103739400D02*
X188383620Y-103706500D01*
X188555120Y-103774100D02*
X188470820Y-103739400D01*
X188634120Y-103809000D02*
X188555120Y-103774100D01*
X188705920Y-103842600D02*
X188634120Y-103809000D01*
X188768420Y-103873400D02*
X188705920Y-103842600D01*
X188819320Y-103900000D02*
X188768420Y-103873400D01*
X188847520Y-103915400D02*
X188819320Y-103900000D01*
X188856820Y-103920700D02*
X188847520Y-103915400D01*
X188934820Y-103971500D02*
X188856820Y-103920700D01*
X189155520Y-104145000D02*
X188934820Y-103971500D01*
X189417720Y-104401900D02*
X189155520Y-104145000D01*
X189646920Y-104690000D02*
X189417720Y-104401900D01*
X189800620Y-104925800D02*
X189646920Y-104690000D01*
X189846320Y-105007500D02*
X189800620Y-104925800D01*
X189877320Y-105067300D02*
X189846320Y-105007500D01*
X190217420Y-105665900D02*
X189877320Y-105067300D01*
X190252920Y-105725800D02*
X190217420Y-105665900D01*
X190259520Y-105737600D02*
X190252920Y-105725800D01*
X190277420Y-105774400D02*
X190259520Y-105737600D01*
X190310520Y-105845000D02*
X190277420Y-105774400D01*
X190350620Y-105928600D02*
X190310520Y-105845000D01*
X190396520Y-106015900D02*
X190350620Y-105928600D01*
X190446320Y-106098200D02*
X190396520Y-106015900D01*
X190498820Y-106166200D02*
X190446320Y-106098200D01*
X190552620Y-106210900D02*
X190498820Y-106166200D01*
X190593420Y-106224800D02*
X190552620Y-106210900D01*
X190606220Y-106223300D02*
X190593420Y-106224800D01*
X190589320Y-106110000D02*
X190606220Y-106223300D01*
X190519020Y-105772800D02*
X190589320Y-106110000D01*
X190398720Y-105313700D02*
X190519020Y-105772800D01*
X190258320Y-104858200D02*
X190398720Y-105313700D01*
X190148820Y-104527900D02*
X190258320Y-104858200D01*
X190111520Y-104418000D02*
X190148820Y-104527900D01*
X190071820Y-104311100D02*
X190111520Y-104418000D01*
X189950820Y-103990700D02*
X190071820Y-104311100D01*
X189780120Y-103568400D02*
X189950820Y-103990700D01*
X189589520Y-103156600D02*
X189780120Y-103568400D01*
X189428620Y-102856600D02*
X189589520Y-103156600D01*
X189369120Y-102760300D02*
X189428620Y-102856600D01*
X189342420Y-102718600D02*
X189369120Y-102760300D01*
X189259720Y-102594800D02*
X189342420Y-102718600D01*
X189143020Y-102431900D02*
X189259720Y-102594800D01*
X189018420Y-102273600D02*
X189143020Y-102431900D01*
X188885420Y-102122500D02*
X189018420Y-102273600D01*
X188743120Y-101980800D02*
X188885420Y-102122500D01*
X188591320Y-101851100D02*
X188743120Y-101980800D01*
X188429020Y-101735500D02*
X188591320Y-101851100D01*
X188300220Y-101659000D02*
X188429020Y-101735500D01*
X188255820Y-101636600D02*
X188300220Y-101659000D01*
X188215920Y-101616600D02*
X188255820Y-101636600D01*
X188089420Y-101570500D02*
X188215920Y-101616600D01*
X187922220Y-101536500D02*
X188089420Y-101570500D01*
X187755020Y-101531800D02*
X187922220Y-101536500D01*
X187588720Y-101553700D02*
X187755020Y-101531800D01*
X187424020Y-101600000D02*
X187588720Y-101553700D01*
X187261620Y-101667700D02*
X187424020Y-101600000D01*
X187102720Y-101754600D02*
X187261620Y-101667700D01*
X186985620Y-101830400D02*
X187102720Y-101754600D01*
X169682020Y-108281600D02*
X169666220Y-108074400D01*
X167226290Y-113137200D02*
X167477370Y-112938900D01*
X170092320Y-87922360D02*
X170194420Y-87965600D01*
X169953420Y-87828780D02*
X170092320Y-87922360D01*
X169824420Y-87717990D02*
X169953420Y-87828780D01*
X169744220Y-87643560D02*
X169824420Y-87717990D01*
X169717020Y-87619310D02*
X169744220Y-87643560D01*
X169636520Y-87552830D02*
X169717020Y-87619310D01*
X169402520Y-87344130D02*
X169636520Y-87552830D01*
X169096320Y-87048220D02*
X169402520Y-87344130D01*
X168800020Y-86738560D02*
X169096320Y-87048220D01*
X168585420Y-86502060D02*
X168800020Y-86738560D01*
X168515320Y-86422030D02*
X168585420Y-86502060D01*
X168481820Y-86383620D02*
X168515320Y-86422030D01*
X168384620Y-86265740D02*
X168481820Y-86383620D01*
X168252390Y-86111170D02*
X168384620Y-86265740D01*
X168110190Y-85973850D02*
X168252390Y-86111170D01*
X167992510Y-85889970D02*
X168110190Y-85973850D01*
X167949760Y-85869400D02*
X167992510Y-85889970D01*
X167934140Y-85865330D02*
X167949760Y-85869400D01*
X167886230Y-85857580D02*
X167934140Y-85865330D01*
X167812780Y-85844070D02*
X167886230Y-85857580D01*
X167745930Y-85820190D02*
X167812780Y-85844070D01*
X167708550Y-85790250D02*
X167745930Y-85820190D01*
X167702370Y-85777330D02*
X167708550Y-85790250D01*
X167698620Y-85769580D02*
X167702370Y-85777330D01*
X167696830Y-85741750D02*
X167698620Y-85769580D01*
X167704540Y-85693250D02*
X167696830Y-85741750D01*
X167722220Y-85636120D02*
X167704540Y-85693250D01*
X167746530Y-85574710D02*
X167722220Y-85636120D01*
X167774140Y-85513240D02*
X167746530Y-85574710D01*
X167801760Y-85456110D02*
X167774140Y-85513240D01*
X167826070Y-85407600D02*
X167801760Y-85456110D01*
X167839470Y-85380960D02*
X167826070Y-85407600D01*
X167843750Y-85372070D02*
X167839470Y-85380960D01*
X167901150Y-85238500D02*
X167843750Y-85372070D01*
X168203780Y-84573130D02*
X167901150Y-85238500D01*
X168533020Y-83916880D02*
X168203780Y-84573130D01*
X168603720Y-83787970D02*
X168533020Y-83916880D01*
X168708920Y-83602810D02*
X168603720Y-83787970D01*
X169050720Y-83062110D02*
X168708920Y-83602810D01*
X169542520Y-82374240D02*
X169050720Y-83062110D01*
X170077420Y-81720920D02*
X169542520Y-82374240D01*
X170505220Y-81250000D02*
X170077420Y-81720920D01*
X170653720Y-81098740D02*
X170505220Y-81250000D01*
X170726920Y-81024140D02*
X170653720Y-81098740D01*
X170952520Y-80806150D02*
X170726920Y-81024140D01*
X171264520Y-80523110D02*
X170952520Y-80806150D01*
X171588120Y-80250380D02*
X171264520Y-80523110D01*
X171921720Y-79988930D02*
X171588120Y-80250380D01*
X172263620Y-79739525D02*
X171921720Y-79988930D01*
X172612020Y-79503089D02*
X172263620Y-79739525D01*
X172965520Y-79280432D02*
X172612020Y-79503089D01*
X173232220Y-79122935D02*
X172965520Y-79280432D01*
X173322320Y-79072533D02*
X173232220Y-79122935D01*
X173506820Y-78969451D02*
X173322320Y-79072533D01*
X174066220Y-78670461D02*
X173506820Y-78969451D01*
X174820120Y-78301211D02*
X174066220Y-78670461D01*
X175593720Y-77976829D02*
X174820120Y-78301211D01*
X176194020Y-77767570D02*
X175593720Y-77976829D01*
X176397320Y-77709470D02*
X176194020Y-77767570D01*
X176499820Y-77681910D02*
X176397320Y-77709470D01*
X176806120Y-77594610D02*
X176499820Y-77681910D01*
X177214720Y-77481500D02*
X176806120Y-77594610D01*
X177630120Y-77385680D02*
X177214720Y-77481500D01*
X177950920Y-77332850D02*
X177630120Y-77385680D01*
X178058620Y-77322690D02*
X177950920Y-77332850D01*
X178167520Y-77312330D02*
X178058620Y-77322690D01*
X178493120Y-77270010D02*
X178167520Y-77312330D01*
X178924520Y-77205240D02*
X178493120Y-77270010D01*
X179355920Y-77143990D02*
X178924520Y-77205240D01*
X179681620Y-77108560D02*
X179355920Y-77143990D01*
X179790520Y-77101720D02*
X179681620Y-77108560D01*
X179940820Y-77097060D02*
X179790520Y-77101720D01*
X180689520Y-77110830D02*
X179940820Y-77097060D01*
X181429720Y-77161510D02*
X180689520Y-77110830D01*
X181575520Y-77175350D02*
X181429720Y-77161510D01*
X181683320Y-77189350D02*
X181575520Y-77175350D01*
X182007620Y-77223360D02*
X181683320Y-77189350D01*
X182448020Y-77269690D02*
X182007620Y-77223360D01*
X182885220Y-77333330D02*
X182448020Y-77269690D01*
X183203820Y-77401850D02*
X182885220Y-77333330D01*
X183307520Y-77433210D02*
X183203820Y-77401850D01*
X183363120Y-77446830D02*
X183307520Y-77433210D01*
X183527220Y-77500210D02*
X183363120Y-77446830D01*
X183740420Y-77582840D02*
X183527220Y-77500210D01*
X183953620Y-77668890D02*
X183740420Y-77582840D01*
X184117720Y-77729220D02*
X183953620Y-77668890D01*
X184173420Y-77746310D02*
X184117720Y-77729220D01*
X184239720Y-77769310D02*
X184173420Y-77746310D01*
X184562220Y-77875270D02*
X184239720Y-77769310D01*
X184884720Y-77981169D02*
X184562220Y-77875270D01*
X184950920Y-78004228D02*
X184884720Y-77981169D01*
X185045220Y-78039275D02*
X184950920Y-78004228D01*
X185326820Y-78146968D02*
X185045220Y-78039275D01*
X185704320Y-78303490D02*
X185326820Y-78146968D01*
X186071820Y-78480790D02*
X185704320Y-78303490D01*
X186334320Y-78630042D02*
X186071820Y-78480790D01*
X186417920Y-78685760D02*
X186334320Y-78630042D01*
X186584420Y-78796817D02*
X186417920Y-78685760D01*
X187069520Y-79151689D02*
X186584420Y-78796817D01*
X187694720Y-79664275D02*
X187069520Y-79151689D01*
X188286820Y-80221730D02*
X187694720Y-79664275D01*
X188706820Y-80667320D02*
X188286820Y-80221730D01*
X188839020Y-80822430D02*
X188706820Y-80667320D01*
X188907920Y-80902720D02*
X188839020Y-80822430D01*
X189103720Y-81152990D02*
X188907920Y-80902720D01*
X189342620Y-81495280D02*
X189103720Y-81152990D01*
X189558420Y-81848790D02*
X189342620Y-81495280D01*
X189753620Y-82213100D02*
X189558420Y-81848790D01*
X189930420Y-82587720D02*
X189753620Y-82213100D01*
X190091620Y-82972330D02*
X189930420Y-82587720D01*
X190239420Y-83366430D02*
X190091620Y-82972330D01*
X190343620Y-83668350D02*
X190239420Y-83366430D01*
X190376620Y-83769580D02*
X190343620Y-83668350D01*
X190411620Y-83875970D02*
X190376620Y-83769580D01*
X190508320Y-84198070D02*
X190411620Y-83875970D01*
X190608420Y-84614580D02*
X190508320Y-84198070D01*
X190672220Y-85041390D02*
X190608420Y-84614580D01*
X190694720Y-85386120D02*
X190672220Y-85041390D01*
X190694720Y-85501080D02*
X190694720Y-85386120D01*
X190691320Y-85611430D02*
X190694720Y-85501080D01*
X190690220Y-85942820D02*
X190691320Y-85611430D01*
X190685820Y-86382860D02*
X190690220Y-85942820D01*
X190654820Y-86819440D02*
X190685820Y-86382860D01*
X190600220Y-87145390D02*
X190654820Y-86819440D01*
X190570920Y-87250920D02*
X190600220Y-87145390D01*
X190544320Y-87351830D02*
X190570920Y-87250920D01*
X190461120Y-87653810D02*
X190544320Y-87351830D01*
X190341220Y-88056750D02*
X190461120Y-87653810D01*
X190208020Y-88452740D02*
X190341220Y-88056750D01*
X190098620Y-88740610D02*
X190208020Y-88452740D01*
X190058420Y-88835010D02*
X190098620Y-88740610D01*
X190018120Y-88929500D02*
X190058420Y-88835010D01*
X189884420Y-89207700D02*
X190018120Y-88929500D01*
X189687320Y-89578700D02*
X189884420Y-89207700D01*
X189476920Y-89946200D02*
X189687320Y-89578700D01*
X189316620Y-90218000D02*
X189476920Y-89946200D01*
X189263120Y-90308600D02*
X189316620Y-90218000D01*
X189209020Y-90399300D02*
X189263120Y-90308600D01*
X189035020Y-90664900D02*
X189209020Y-90399300D01*
X188789820Y-91003900D02*
X189035020Y-90664900D01*
X188530620Y-91329100D02*
X188789820Y-91003900D01*
X188260220Y-91644000D02*
X188530620Y-91329100D01*
X187981520Y-91951900D02*
X188260220Y-91644000D01*
X187697420Y-92256500D02*
X187981520Y-91951900D01*
X187410920Y-92560900D02*
X187697420Y-92256500D01*
X187195820Y-92791400D02*
X187410920Y-92560900D01*
X187124820Y-92868900D02*
X187195820Y-92791400D01*
X186976120Y-93030700D02*
X187124820Y-92868900D01*
X186512520Y-93500000D02*
X186976120Y-93030700D01*
X185871920Y-94098200D02*
X186512520Y-93500000D01*
X185207720Y-94668200D02*
X185871920Y-94098200D01*
X184524720Y-95215100D02*
X185207720Y-94668200D01*
X183827420Y-95743900D02*
X184524720Y-95215100D01*
X183121120Y-96259600D02*
X183827420Y-95743900D01*
X182410020Y-96767100D02*
X183121120Y-96259600D01*
X181876820Y-97145000D02*
X182410020Y-96767100D01*
X181699320Y-97271200D02*
X181876820Y-97145000D01*
X181517220Y-97400500D02*
X181699320Y-97271200D01*
X180963320Y-97777200D02*
X181517220Y-97400500D01*
X180215520Y-98263000D02*
X180963320Y-97777200D01*
X179459020Y-98734000D02*
X180215520Y-98263000D01*
X178697020Y-99196100D02*
X179459020Y-98734000D01*
X177932520Y-99654600D02*
X178697020Y-99196100D01*
X177168620Y-100115300D02*
X177932520Y-99654600D01*
X176408420Y-100583900D02*
X177168620Y-100115300D01*
X175842220Y-100943200D02*
X176408420Y-100583900D01*
X175655120Y-101065700D02*
X175842220Y-100943200D01*
X175469820Y-101189800D02*
X175655120Y-101065700D01*
X174920220Y-101571400D02*
X175469820Y-101189800D01*
X174203720Y-102099400D02*
X174920220Y-101571400D01*
X173510220Y-102658600D02*
X174203720Y-102099400D01*
X173006820Y-103102900D02*
X173510220Y-102658600D01*
X172845120Y-103257600D02*
X173006820Y-103102900D01*
X172747920Y-103354300D02*
X172845120Y-103257600D01*
X172277320Y-103851600D02*
X172747920Y-103354300D01*
X171833320Y-104367300D02*
X172277320Y-103851600D01*
X171749420Y-104473300D02*
X171833320Y-104367300D01*
X171719620Y-104514700D02*
X171749420Y-104473300D01*
X171629520Y-104638200D02*
X171719620Y-104514700D01*
X171506420Y-104797900D02*
X171629520Y-104638200D01*
X171376620Y-104947300D02*
X171506420Y-104797900D01*
X171273620Y-105049800D02*
X171376620Y-104947300D01*
X171236920Y-105081200D02*
X171273620Y-105049800D01*
X171208020Y-105104600D02*
X171236920Y-105081200D01*
X171114620Y-105166100D02*
X171208020Y-105104600D01*
X170987220Y-105235400D02*
X171114620Y-105166100D01*
X170856620Y-105301400D02*
X170987220Y-105235400D01*
X170756520Y-105355800D02*
X170856620Y-105301400D01*
X170724420Y-105375900D02*
X170756520Y-105355800D01*
X170687120Y-105400700D02*
X170724420Y-105375900D01*
X170588920Y-105495100D02*
X170687120Y-105400700D01*
X170472320Y-105652200D02*
X170588920Y-105495100D01*
X170371820Y-105836900D02*
X170472320Y-105652200D01*
X170284820Y-106039000D02*
X170371820Y-105836900D01*
X170208520Y-106247900D02*
X170284820Y-106039000D01*
X170140320Y-106453400D02*
X170208520Y-106247900D01*
X170077520Y-106645100D02*
X170140320Y-106453400D01*
X170033720Y-106771200D02*
X170077520Y-106645100D01*
X170017520Y-106812600D02*
X170033720Y-106771200D01*
X169997320Y-106865100D02*
X170017520Y-106812600D01*
X168594420Y-111757300D02*
X168656720Y-111675400D01*
X167560980Y-112872800D02*
X167639430Y-112807900D01*
X169838520Y-107229400D02*
X169930420Y-107020100D01*
X169374920Y-110675500D02*
X169451820Y-110482200D01*
X163913470Y-115136900D02*
X164678070Y-114730800D01*
X168403420Y-111999700D02*
X168594420Y-111757300D01*
X160635040Y-117010800D02*
X160983350Y-116782100D01*
X160380090Y-117192900D02*
X160635040Y-117010800D01*
X160297470Y-117256600D02*
X160380090Y-117192900D01*
X160214190Y-117319000D02*
X160297470Y-117256600D01*
X159973530Y-117518400D02*
X160214190Y-117319000D01*
X159667860Y-117804600D02*
X159973530Y-117518400D01*
X159385360Y-118111400D02*
X159667860Y-117804600D01*
X159191081Y-118351900D02*
X159385360Y-118111400D01*
X159131023Y-118435400D02*
X159191081Y-118351900D01*
X159103842Y-118474300D02*
X159131023Y-118435400D01*
X159020834Y-118590000D02*
X159103842Y-118474300D01*
X158905707Y-118749700D02*
X159020834Y-118590000D01*
X158790528Y-118914700D02*
X158905707Y-118749700D01*
X158680394Y-119084700D02*
X158790528Y-118914700D01*
X158580132Y-119260000D02*
X158680394Y-119084700D01*
X158494792Y-119440500D02*
X158580132Y-119260000D01*
X158429362Y-119626100D02*
X158494792Y-119440500D01*
X158395345Y-119768700D02*
X158429362Y-119626100D01*
X158388781Y-119817100D02*
X158395345Y-119768700D01*
X158375760Y-119918700D02*
X158388781Y-119817100D01*
X158360569Y-120227300D02*
X158375760Y-119918700D01*
X158388727Y-120627300D02*
X158360569Y-120227300D01*
X158483182Y-121013600D02*
X158388727Y-120627300D01*
X158602431Y-121295500D02*
X158483182Y-121013600D01*
X158653863Y-121382600D02*
X158602431Y-121295500D01*
X158706489Y-121471800D02*
X158653863Y-121382600D01*
X158867296Y-121737700D02*
X158706489Y-121471800D01*
X159089030Y-122082600D02*
X158867296Y-121737700D01*
X159327366Y-122413600D02*
X159089030Y-122082600D01*
X159521430Y-122651900D02*
X159327366Y-122413600D01*
X159590550Y-122727300D02*
X159521430Y-122651900D01*
X159663360Y-122806600D02*
X159590550Y-122727300D01*
X159891650Y-123035700D02*
X159663360Y-122806600D01*
X160210180Y-123326200D02*
X159891650Y-123035700D01*
X160543620Y-123599800D02*
X160210180Y-123326200D01*
X160889480Y-123857800D02*
X160543620Y-123599800D01*
X161245280Y-124100900D02*
X160889480Y-123857800D01*
X161608510Y-124330700D02*
X161245280Y-124100900D01*
X161976720Y-124547700D02*
X161608510Y-124330700D01*
X162254180Y-124703000D02*
X161976720Y-124547700D01*
X162347500Y-124753400D02*
X162254180Y-124703000D01*
X162475580Y-124822500D02*
X162347500Y-124753400D01*
X163118440Y-125163300D02*
X162475580Y-124822500D01*
X163770120Y-125485700D02*
X163118440Y-125163300D01*
X163902720Y-125545500D02*
X163770120Y-125485700D01*
X164030820Y-125600800D02*
X163902720Y-125545500D01*
X164680290Y-125844800D02*
X164030820Y-125600800D01*
X165329750Y-126070400D02*
X164680290Y-125844800D01*
X165457900Y-126116500D02*
X165329750Y-126070400D01*
X165555940Y-126153900D02*
X165457900Y-126116500D01*
X176545920Y-109867200D02*
X176546120Y-110067100D01*
X176556520Y-109665900D02*
X176545920Y-109867200D01*
X176569120Y-109515300D02*
X176556520Y-109665900D01*
X176574120Y-109465100D02*
X176569120Y-109515300D01*
X176582520Y-109362200D02*
X176574120Y-109465100D01*
X176604420Y-109053000D02*
X176582520Y-109362200D01*
X176624820Y-108634600D02*
X176604420Y-109053000D01*
X176628720Y-108213300D02*
X176624820Y-108634600D01*
X176609420Y-107793400D02*
X176628720Y-108213300D01*
X176560220Y-107378900D02*
X176609420Y-107793400D01*
X176474720Y-106973200D02*
X176560220Y-107378900D01*
X176345920Y-106580500D02*
X176474720Y-106973200D01*
X176218320Y-106295300D02*
X176345920Y-106580500D01*
X176167620Y-106204700D02*
X176218320Y-106295300D01*
X176146520Y-106164000D02*
X176167620Y-106204700D01*
X176076320Y-106045300D02*
X176146520Y-106164000D01*
X175974520Y-105898900D02*
X176076320Y-106045300D01*
X175861620Y-105766600D02*
X175974520Y-105898900D01*
X175736820Y-105649800D02*
X175861620Y-105766600D01*
X175599520Y-105549400D02*
X175736820Y-105649800D01*
X175449420Y-105466500D02*
X175599520Y-105549400D01*
X175285420Y-105402200D02*
X175449420Y-105466500D01*
X175152320Y-105365900D02*
X175285420Y-105402200D01*
X175107220Y-105357500D02*
X175152320Y-105365900D01*
X175054320Y-105349100D02*
X175107220Y-105357500D01*
X174892520Y-105342300D02*
X175054320Y-105349100D01*
X174684120Y-105360400D02*
X174892520Y-105342300D01*
X174480920Y-105403400D02*
X174684120Y-105360400D01*
X174281120Y-105463400D02*
X174480920Y-105403400D01*
X174082720Y-105531900D02*
X174281120Y-105463400D01*
X173884520Y-105600900D02*
X174082720Y-105531900D01*
X173684520Y-105662200D02*
X173884520Y-105600900D01*
X173532620Y-105698900D02*
X173684520Y-105662200D01*
X173481320Y-105707500D02*
X173532620Y-105698900D01*
X173454720Y-105711500D02*
X173481320Y-105707500D01*
X173373720Y-105716800D02*
X173454720Y-105711500D01*
X173282220Y-105711100D02*
X173373720Y-105716800D01*
X173206120Y-105691600D02*
X173282220Y-105711100D01*
X173144420Y-105660000D02*
X173206120Y-105691600D01*
X173096520Y-105617300D02*
X173144420Y-105660000D01*
X173061320Y-105565200D02*
X173096520Y-105617300D01*
X173038120Y-105505100D02*
X173061320Y-105565200D01*
X173026220Y-105438000D02*
X173038120Y-105505100D01*
X173024720Y-105365700D02*
X173026220Y-105438000D01*
X173032620Y-105289300D02*
X173024720Y-105365700D01*
X173049320Y-105210100D02*
X173032620Y-105289300D01*
X173073720Y-105129800D02*
X173049320Y-105210100D01*
X173105220Y-105049600D02*
X173073720Y-105129800D01*
X173143020Y-104970800D02*
X173105220Y-105049600D01*
X173186220Y-104895000D02*
X173143020Y-104970800D01*
X173221320Y-104840800D02*
X173186220Y-104895000D01*
X173234020Y-104823300D02*
X173221320Y-104840800D01*
X173296820Y-104733700D02*
X173234020Y-104823300D01*
X173505920Y-104479700D02*
X173296820Y-104733700D01*
X173806120Y-104160300D02*
X173505920Y-104479700D01*
X174116220Y-103854600D02*
X173806120Y-104160300D01*
X174344120Y-103629300D02*
X174116220Y-103854600D01*
X174418020Y-103552300D02*
X174344120Y-103629300D01*
X174560820Y-103403400D02*
X174418020Y-103552300D01*
X175012520Y-102979000D02*
X174560820Y-103403400D01*
X175648420Y-102447200D02*
X175012520Y-102979000D01*
X176314320Y-101956600D02*
X175648420Y-102447200D01*
X176824520Y-101615700D02*
X176314320Y-101956600D01*
X176998320Y-101507700D02*
X176824520Y-101615700D01*
X177241220Y-101355800D02*
X176998320Y-101507700D01*
X178456220Y-100577500D02*
X177241220Y-101355800D01*
X179671220Y-99799300D02*
X178456220Y-100577500D01*
X179914320Y-99647500D02*
X179671220Y-99799300D01*
X180101820Y-99529800D02*
X179914320Y-99647500D01*
X180665120Y-99177900D02*
X180101820Y-99529800D01*
X181417520Y-98706500D02*
X180665120Y-99177900D01*
X182168320Y-98229600D02*
X181417520Y-98706500D01*
X182914120Y-97743200D02*
X182168320Y-98229600D01*
X183651820Y-97244000D02*
X182914120Y-97743200D01*
X184377720Y-96728200D02*
X183651820Y-97244000D01*
X185088720Y-96192100D02*
X184377720Y-96728200D01*
X185611120Y-95775100D02*
X185088720Y-96192100D01*
X185781620Y-95631900D02*
X185611120Y-95775100D01*
X185949420Y-95491600D02*
X185781620Y-95631900D01*
X186448620Y-95065900D02*
X185949420Y-95491600D01*
X187107320Y-94485200D02*
X186448620Y-95065900D01*
X187753320Y-93887300D02*
X187107320Y-94485200D01*
X188381820Y-93269600D02*
X187753320Y-93887300D01*
X188987720Y-92629300D02*
X188381820Y-93269600D01*
X189566620Y-91964000D02*
X188987720Y-92629300D01*
X190113620Y-91271100D02*
X189566620Y-91964000D01*
X190501620Y-90732300D02*
X190113620Y-91271100D01*
X190624020Y-90548000D02*
X190501620Y-90732300D01*
X190686820Y-90454900D02*
X190624020Y-90548000D01*
X190860920Y-90165800D02*
X190686820Y-90454900D01*
X191074520Y-89769800D02*
X190860920Y-90165800D01*
X191275120Y-89366900D02*
X191074520Y-89769800D01*
X191422420Y-89064400D02*
X191275120Y-89366900D01*
X191472320Y-88964000D02*
X191422420Y-89064400D01*
X191520920Y-88862310D02*
X191472320Y-88964000D01*
X191655620Y-88551810D02*
X191520920Y-88862310D01*
X191812520Y-88139640D02*
X191655620Y-88551810D01*
X191949420Y-87720600D02*
X191812520Y-88139640D01*
X192043820Y-87396380D02*
X191949420Y-87720600D01*
X192073120Y-87287750D02*
X192043820Y-87396380D01*
X192103020Y-87187220D02*
X192073120Y-87287750D01*
X192176120Y-86880750D02*
X192103020Y-87187220D01*
X192247620Y-86463430D02*
X192176120Y-86880750D01*
X192289320Y-86039220D02*
X192247620Y-86463430D01*
X192302920Y-85718470D02*
X192289320Y-86039220D01*
X192302920Y-85611600D02*
X192302920Y-85718470D01*
X192302920Y-85499830D02*
X192302920Y-85611600D01*
X192278620Y-85164540D02*
X192302920Y-85499830D01*
X192214520Y-84729710D02*
X192278620Y-85164540D01*
X192123820Y-84298220D02*
X192214520Y-84729710D01*
X192046220Y-83970690D02*
X192123820Y-84298220D01*
X192020120Y-83861650D02*
X192046220Y-83970690D01*
X191997220Y-83759280D02*
X192020120Y-83861650D01*
X191922320Y-83453500D02*
X191997220Y-83759280D01*
X191808020Y-83055760D02*
X191922320Y-83453500D01*
X191667220Y-82664930D02*
X191808020Y-83055760D01*
X191538620Y-82372180D02*
X191667220Y-82664930D01*
X191490020Y-82277560D02*
X191538620Y-82372180D01*
X191443720Y-82188100D02*
X191490020Y-82277560D01*
X191294920Y-81924960D02*
X191443720Y-82188100D01*
X191083420Y-81584530D02*
X191294920Y-81924960D01*
X190858720Y-81254390D02*
X191083420Y-81584530D01*
X190683720Y-81012470D02*
X190858720Y-81254390D01*
X190624020Y-80932940D02*
X190683720Y-81012470D01*
X190502220Y-80771750D02*
X190624020Y-80932940D01*
X190107920Y-80310380D02*
X190502220Y-80771750D01*
X189543720Y-79737951D02*
X190107920Y-80310380D01*
X188936520Y-79210392D02*
X189543720Y-79737951D01*
X188456120Y-78839460D02*
X188936520Y-79210392D01*
X188291220Y-78722599D02*
X188456120Y-78839460D01*
X188202020Y-78657276D02*
X188291220Y-78722599D01*
X187924120Y-78475907D02*
X188202020Y-78657276D01*
X187542320Y-78255150D02*
X187924120Y-78475907D01*
X187150420Y-78051646D02*
X187542320Y-78255150D01*
X186853020Y-77905160D02*
X187150420Y-78051646D01*
X186753620Y-77856820D02*
X186853020Y-77905160D01*
X186660020Y-77807990D02*
X186753620Y-77856820D01*
X186381920Y-77656190D02*
X186660020Y-77807990D01*
X186006920Y-77453880D02*
X186381920Y-77656190D01*
X185625420Y-77268820D02*
X186006920Y-77453880D01*
X185333420Y-77151250D02*
X185625420Y-77268820D01*
X185233720Y-77120060D02*
X185333420Y-77151250D01*
X185137620Y-77085500D02*
X185233720Y-77120060D01*
X184851820Y-76974990D02*
X185137620Y-77085500D01*
X184471620Y-76829920D02*
X184851820Y-76974990D01*
X184088020Y-76705560D02*
X184471620Y-76829920D01*
X183795120Y-76636440D02*
X184088020Y-76705560D01*
X183696220Y-76622720D02*
X183795120Y-76636440D01*
X183629920Y-76613500D02*
X183696220Y-76622720D01*
X183300820Y-76572040D02*
X183629920Y-76613500D01*
X182980520Y-76512210D02*
X183300820Y-76572040D01*
X182918620Y-76493810D02*
X182980520Y-76512210D01*
X182852320Y-76475360D02*
X182918620Y-76493810D01*
X182529820Y-76376350D02*
X182852320Y-76475360D01*
X182207320Y-76286510D02*
X182529820Y-76376350D01*
X182141120Y-76272720D02*
X182207320Y-76286510D01*
X182038320Y-76252000D02*
X182141120Y-76272720D01*
X181729820Y-76191570D02*
X182038320Y-76252000D01*
X181317020Y-76120760D02*
X181729820Y-76191570D01*
X180900920Y-76070690D02*
X181317020Y-76120760D01*
X180585120Y-76051690D02*
X180900920Y-76070690D01*
X180479820Y-76051690D02*
X180585120Y-76051690D01*
X180426120Y-76051690D02*
X180479820Y-76051690D01*
X180264920Y-76046490D02*
X180426120Y-76051690D01*
X180046820Y-76037860D02*
X180264920Y-76046490D01*
X179828620Y-76036130D02*
X180046820Y-76037860D01*
X179667020Y-76044750D02*
X179828620Y-76036130D01*
X179613820Y-76051690D02*
X179667020Y-76044750D01*
X179543120Y-76060880D02*
X179613820Y-76051690D01*
X179191820Y-76116150D02*
X179543120Y-76060880D01*
X178849420Y-76171430D02*
X179191820Y-76116150D01*
X178783120Y-76180670D02*
X178849420Y-76171430D01*
X178677320Y-76197860D02*
X178783120Y-76180670D01*
X178362020Y-76264100D02*
X178677320Y-76197860D01*
X177945920Y-76364850D02*
X178362020Y-76264100D01*
X177533120Y-76465600D02*
X177945920Y-76364850D01*
X177225220Y-76531680D02*
X177533120Y-76465600D01*
X177121920Y-76549100D02*
X177225220Y-76531680D01*
X177017620Y-76566030D02*
X177121920Y-76549100D01*
X176706620Y-76628190D02*
X177017620Y-76566030D01*
X176304520Y-76726350D02*
X176706620Y-76628190D01*
X175909120Y-76841740D02*
X176304520Y-76726350D01*
X175612020Y-76938530D02*
X175909120Y-76841740D01*
X175513720Y-76972710D02*
X175612020Y-76938530D01*
X175316120Y-77041870D02*
X175513720Y-76972710D01*
X174729720Y-77267190D02*
X175316120Y-77041870D01*
X173957020Y-77598360D02*
X174729720Y-77267190D01*
X173199020Y-77966685D02*
X173957020Y-77598360D01*
X172458620Y-78372554D02*
X173199020Y-77966685D01*
X171738820Y-78816457D02*
X172458620Y-78372554D01*
X171042820Y-79298769D02*
X171738820Y-78816457D01*
X170373720Y-79819929D02*
X171042820Y-79298769D01*
X169890120Y-80235620D02*
X170373720Y-79819929D01*
X169734720Y-80380360D02*
X169890120Y-80235620D01*
X169583120Y-80521150D02*
X169734720Y-80380360D01*
X169144620Y-80961150D02*
X169583120Y-80521150D01*
X168592620Y-81573030D02*
X169144620Y-80961150D01*
X168077040Y-82219460D02*
X168592620Y-81573030D01*
X167711210Y-82729280D02*
X168077040Y-82219460D01*
X167596300Y-82903860D02*
X167711210Y-82729280D01*
X167536890Y-82995000D02*
X167596300Y-82903860D01*
X167367250Y-83274080D02*
X167536890Y-82995000D01*
X167155600Y-83652120D02*
X167367250Y-83274080D01*
X166958820Y-84037060D02*
X167155600Y-83652120D01*
X166774530Y-84428060D02*
X166958820Y-84037060D01*
X166600150Y-84824210D02*
X166774530Y-84428060D01*
X166433220Y-85224710D02*
X166600150Y-84824210D01*
X166271260Y-85628630D02*
X166433220Y-85224710D01*
X166151470Y-85933490D02*
X166271260Y-85628630D01*
X166111820Y-86035210D02*
X166151470Y-85933490D01*
X166072860Y-86133240D02*
X166111820Y-86035210D01*
X165984480Y-86438690D02*
X166072860Y-86133240D01*
X165901910Y-86845640D02*
X165984480Y-86438690D01*
X165835940Y-87252600D02*
X165901910Y-86845640D01*
X165781470Y-87556100D02*
X165835940Y-87252600D01*
X165758360Y-87656140D02*
X165781470Y-87556100D01*
X165732370Y-87767850D02*
X165758360Y-87656140D01*
X165657280Y-88103680D02*
X165732370Y-87767850D01*
X165572750Y-88542580D02*
X165657280Y-88103680D01*
X165514760Y-88984900D02*
X165572750Y-88542580D01*
X165493280Y-89328300D02*
X165514760Y-88984900D01*
X165493280Y-89442900D02*
X165493280Y-89328300D01*
X165489910Y-89557500D02*
X165493280Y-89442900D01*
X165478900Y-89901600D02*
X165489910Y-89557500D01*
X165471140Y-90363800D02*
X165478900Y-89901600D01*
X165483290Y-90826000D02*
X165471140Y-90363800D01*
X165511980Y-91170900D02*
X165483290Y-90826000D01*
X165528600Y-91284800D02*
X165511980Y-91170900D01*
X165541830Y-91353900D02*
X165528600Y-91284800D01*
X165627980Y-91699200D02*
X165541830Y-91353900D01*
X165722980Y-92044600D02*
X165627980Y-91699200D01*
X165740660Y-92113700D02*
X165722980Y-92044600D01*
X165753900Y-92178200D02*
X165740660Y-92113700D01*
X165813530Y-92509700D02*
X165753900Y-92178200D01*
X165882050Y-92841200D02*
X165813530Y-92509700D01*
X165899730Y-92905800D02*
X165882050Y-92841200D01*
X165927140Y-93008000D02*
X165899730Y-92905800D01*
X166019750Y-93311900D02*
X165927140Y-93008000D01*
X166160800Y-93714100D02*
X166019750Y-93311900D01*
X166322320Y-94110900D02*
X166160800Y-93714100D01*
X166503900Y-94500500D02*
X166322320Y-94110900D01*
X166704910Y-94881100D02*
X166503900Y-94500500D01*
X166924860Y-95250900D02*
X166704910Y-94881100D01*
X167163250Y-95608400D02*
X166924860Y-95250900D01*
X167419540Y-95951900D02*
X167163250Y-95608400D01*
X167693250Y-96279600D02*
X167419540Y-95951900D01*
X167983830Y-96589800D02*
X167693250Y-96279600D01*
X168290800Y-96880900D02*
X167983830Y-96589800D01*
X168613620Y-97151200D02*
X168290800Y-96880900D01*
X168951720Y-97398900D02*
X168613620Y-97151200D01*
X169304620Y-97622300D02*
X168951720Y-97398900D01*
X169671820Y-97819800D02*
X169304620Y-97622300D01*
X163070800Y-115613900D02*
X163160430Y-115561900D01*
X167639430Y-112807900D02*
X167863870Y-112600100D01*
X166272730Y-113830100D02*
X166537050Y-113652300D01*
X169528520Y-110166600D02*
X169592520Y-109838300D01*
X165853030Y-126258600D02*
X165555940Y-126153900D01*
X175071920Y-110901800D02*
X175068620Y-110819000D01*
X178316620Y-82497930D02*
X178410420Y-82415140D01*
X178230020Y-82576870D02*
X178316620Y-82497930D01*
X178153120Y-82648920D02*
X178230020Y-82576870D01*
X178088320Y-82710990D02*
X178153120Y-82648920D01*
X178038320Y-82760140D02*
X178088320Y-82710990D01*
X178013620Y-82784930D02*
X178038320Y-82760140D01*
X178005520Y-82793350D02*
X178013620Y-82784930D01*
X177925620Y-82873100D02*
X178005520Y-82793350D01*
X177685220Y-83111600D02*
X177925620Y-82873100D01*
X177365020Y-83433370D02*
X177685220Y-83111600D01*
X177051220Y-83762100D02*
X177365020Y-83433370D01*
X176823820Y-84014640D02*
X177051220Y-83762100D01*
X176750820Y-84101180D02*
X176823820Y-84014640D01*
X176706620Y-84156400D02*
X176750820Y-84101180D01*
X176483420Y-84441890D02*
X176706620Y-84156400D01*
X176251520Y-84727370D02*
X176483420Y-84441890D01*
X176203020Y-84782650D02*
X176251520Y-84727370D01*
X176189720Y-84799860D02*
X176203020Y-84782650D01*
X176150520Y-84851990D02*
X176189720Y-84799860D01*
X176098320Y-84919380D02*
X176150520Y-84851990D01*
X176044820Y-84981110D02*
X176098320Y-84919380D01*
X175988720Y-85033640D02*
X176044820Y-84981110D01*
X175928320Y-85073180D02*
X175988720Y-85033640D01*
X175862420Y-85096080D02*
X175928320Y-85073180D01*
X175789520Y-85098740D02*
X175862420Y-85096080D01*
X175727520Y-85085180D02*
X175789520Y-85098740D01*
X175708120Y-85077420D02*
X175727520Y-85085180D01*
X175656920Y-85059620D02*
X175708120Y-85077420D01*
X175509820Y-84987310D02*
X175656920Y-85059620D01*
X175314820Y-84867830D02*
X175509820Y-84987310D01*
X175126620Y-84738000D02*
X175314820Y-84867830D01*
X174993620Y-84645940D02*
X175126620Y-84738000D01*
X174948120Y-84616860D02*
X174993620Y-84645940D01*
X174932620Y-84606060D02*
X174948120Y-84616860D01*
X174884520Y-84575940D02*
X174932620Y-84606060D01*
X174816520Y-84534830D02*
X174884520Y-84575940D01*
X174749720Y-84491530D02*
X174816520Y-84534830D01*
X174689720Y-84444170D02*
X174749720Y-84491530D01*
X174642220Y-84390740D02*
X174689720Y-84444170D01*
X174612720Y-84329320D02*
X174642220Y-84390740D01*
X174606820Y-84257970D02*
X174612720Y-84329320D01*
X174621320Y-84194330D02*
X174606820Y-84257970D01*
X174630120Y-84174810D02*
X174621320Y-84194330D01*
X174650620Y-84131890D02*
X174630120Y-84174810D01*
X174738320Y-84015620D02*
X174650620Y-84131890D01*
X174886320Y-83868540D02*
X174738320Y-84015620D01*
X175047620Y-83731820D02*
X174886320Y-83868540D01*
X175160020Y-83637210D02*
X175047620Y-83731820D01*
X175195620Y-83603780D02*
X175160020Y-83637210D01*
X175244120Y-83562330D02*
X175195620Y-83603780D01*
X175478320Y-83345920D02*
X175244120Y-83562330D01*
X175712620Y-83129440D02*
X175478320Y-83345920D01*
X175761220Y-83088060D02*
X175712620Y-83129440D01*
X175840620Y-83012100D02*
X175761220Y-83088060D01*
X176088420Y-82794150D02*
X175840620Y-83012100D01*
X176430520Y-82519310D02*
X176088420Y-82794150D01*
X176782620Y-82261710D02*
X176430520Y-82519310D01*
X177049420Y-82078830D02*
X176782620Y-82261710D01*
X177139720Y-82019690D02*
X177049420Y-82078830D01*
X177201520Y-81982850D02*
X177139720Y-82019690D01*
X177820120Y-81614470D02*
X177201520Y-81982850D01*
X177881920Y-81577640D02*
X177820120Y-81614470D01*
X177897920Y-81570470D02*
X177881920Y-81577640D01*
X177946120Y-81549470D02*
X177897920Y-81570470D01*
X178038120Y-81507970D02*
X177946120Y-81549470D01*
X178145920Y-81455240D02*
X178038120Y-81507970D01*
X178257320Y-81393440D02*
X178145920Y-81455240D01*
X178360620Y-81324710D02*
X178257320Y-81393440D01*
X178443620Y-81251250D02*
X178360620Y-81324710D01*
X178494120Y-81175180D02*
X178443620Y-81251250D01*
X178504920Y-81116210D02*
X178494120Y-81175180D01*
X178500420Y-81098740D02*
X178504920Y-81116210D01*
X178497520Y-81086260D02*
X178500420Y-81098740D01*
X178475620Y-81052030D02*
X178497520Y-81086260D01*
X178429720Y-81021370D02*
X178475620Y-81052030D01*
X178365420Y-81005040D02*
X178429720Y-81021370D01*
X178285820Y-81001400D02*
X178365420Y-81005040D01*
X178193720Y-81008790D02*
X178285820Y-81001400D01*
X178091920Y-81025500D02*
X178193720Y-81008790D01*
X177983320Y-81049900D02*
X178091920Y-81025500D01*
X177870820Y-81080240D02*
X177983320Y-81049900D01*
X177757320Y-81114960D02*
X177870820Y-81080240D01*
X177645620Y-81152290D02*
X177757320Y-81114960D01*
X177538620Y-81190580D02*
X177645620Y-81152290D01*
X177439320Y-81228180D02*
X177538620Y-81190580D01*
X177350220Y-81263400D02*
X177439320Y-81228180D01*
X177274720Y-81294600D02*
X177350220Y-81263400D01*
X177215220Y-81320040D02*
X177274720Y-81294600D01*
X177185020Y-81333490D02*
X177215220Y-81320040D01*
X177174920Y-81338150D02*
X177185020Y-81333490D01*
X177076520Y-81379180D02*
X177174920Y-81338150D01*
X176786320Y-81514260D02*
X177076520Y-81379180D01*
X176412720Y-81711150D02*
X176786320Y-81514260D01*
X176049120Y-81928760D02*
X176412720Y-81711150D01*
X175778820Y-82105680D02*
X176049120Y-81928760D01*
X175690520Y-82167100D02*
X175778820Y-82105680D01*
X175575520Y-82245390D02*
X175690520Y-82167100D01*
X175016620Y-82662110D02*
X175575520Y-82245390D01*
X174484320Y-83106440D02*
X175016620Y-82662110D01*
X174382620Y-83198570D02*
X174484320Y-83106440D01*
X174364720Y-83213430D02*
X174382620Y-83198570D01*
X174313320Y-83260740D02*
X174364720Y-83213430D01*
X174238420Y-83333540D02*
X174313320Y-83260740D01*
X174159520Y-83411940D02*
X174238420Y-83333540D01*
X174077720Y-83490990D02*
X174159520Y-83411940D01*
X173994420Y-83565690D02*
X174077720Y-83490990D01*
X173910520Y-83631130D02*
X173994420Y-83565690D01*
X173827420Y-83682290D02*
X173910520Y-83631130D01*
X173767320Y-83708820D02*
X173827420Y-83682290D01*
X173746520Y-83714290D02*
X173767320Y-83708820D01*
X173725220Y-83719350D02*
X173746520Y-83714290D01*
X173658820Y-83722000D02*
X173725220Y-83719350D01*
X173569420Y-83707080D02*
X173658820Y-83722000D01*
X173479520Y-83674470D02*
X173569420Y-83707080D01*
X173390820Y-83629120D02*
X173479520Y-83674470D01*
X173304420Y-83575940D02*
X173390820Y-83629120D01*
X173222020Y-83520010D02*
X173304420Y-83575940D01*
X173145020Y-83466250D02*
X173222020Y-83520010D01*
X173092720Y-83430710D02*
X173145020Y-83466250D01*
X173074820Y-83419600D02*
X173092720Y-83430710D01*
X173031520Y-83391760D02*
X173074820Y-83419600D01*
X172902320Y-83306690D02*
X173031520Y-83391760D01*
X172728620Y-83193630D02*
X172902320Y-83306690D01*
X172552320Y-83087070D02*
X172728620Y-83193630D01*
X172372320Y-82993650D02*
X172552320Y-83087070D01*
X172187420Y-82920030D02*
X172372320Y-82993650D01*
X171996220Y-82873040D02*
X172187420Y-82920030D01*
X171797720Y-82859260D02*
X171996220Y-82873040D01*
X171641020Y-82873860D02*
X171797720Y-82859260D01*
X171590420Y-82885420D02*
X171641020Y-82873860D01*
X171549720Y-82893880D02*
X171590420Y-82885420D01*
X171432020Y-82940320D02*
X171549720Y-82893880D01*
X171288020Y-83031310D02*
X171432020Y-82940320D01*
X171157620Y-83151190D02*
X171288020Y-83031310D01*
X171040220Y-83292920D02*
X171157620Y-83151190D01*
X170935420Y-83449320D02*
X171040220Y-83292920D01*
X170842320Y-83613280D02*
X170935420Y-83449320D01*
X170760320Y-83777610D02*
X170842320Y-83613280D01*
X170706320Y-83895670D02*
X170760320Y-83777610D01*
X170689020Y-83935320D02*
X170706320Y-83895670D01*
X170683220Y-83951500D02*
X170689020Y-83935320D01*
X170663520Y-83999290D02*
X170683220Y-83951500D01*
X170630220Y-84077530D02*
X170663520Y-83999290D01*
X170594920Y-84165190D02*
X170630220Y-84077530D01*
X170563120Y-84257690D02*
X170594920Y-84165190D01*
X170540420Y-84350150D02*
X170563120Y-84257690D01*
X170532420Y-84437820D02*
X170540420Y-84350150D01*
X170544720Y-84516060D02*
X170532420Y-84437820D01*
X170570420Y-84566890D02*
X170544720Y-84516060D01*
X170583020Y-84580010D02*
X170570420Y-84566890D01*
X170593120Y-84593530D02*
X170583020Y-84580010D01*
X170632420Y-84627440D02*
X170593120Y-84593530D01*
X170686820Y-84648540D02*
X170632420Y-84627440D01*
X170744520Y-84648000D02*
X170686820Y-84648540D01*
X170803920Y-84630690D02*
X170744520Y-84648000D01*
X170863320Y-84601240D02*
X170803920Y-84630690D01*
X170921020Y-84564440D02*
X170863320Y-84601240D01*
X170975420Y-84525110D02*
X170921020Y-84564440D01*
X171012420Y-84497180D02*
X170975420Y-84525110D01*
X171024820Y-84487960D02*
X171012420Y-84497180D01*
X171047420Y-84470600D02*
X171024820Y-84487960D01*
X171121220Y-84426060D02*
X171047420Y-84470600D01*
X171212920Y-84390080D02*
X171121220Y-84426060D01*
X171301620Y-84376510D02*
X171212920Y-84390080D01*
X171389320Y-84382000D02*
X171301620Y-84376510D01*
X171477820Y-84402990D02*
X171389320Y-84382000D01*
X171569020Y-84436080D02*
X171477820Y-84402990D01*
X171664920Y-84477860D02*
X171569020Y-84436080D01*
X171741520Y-84513130D02*
X171664920Y-84477860D01*
X171767120Y-84524790D02*
X171741520Y-84513130D01*
X171807920Y-84540250D02*
X171767120Y-84524790D01*
X171931420Y-84584360D02*
X171807920Y-84540250D01*
X172113920Y-84655970D02*
X171931420Y-84584360D01*
X172286520Y-84744940D02*
X172113920Y-84655970D01*
X172393020Y-84823620D02*
X172286520Y-84744940D01*
X172420920Y-84856390D02*
X172393020Y-84823620D01*
X172434120Y-84871530D02*
X172420920Y-84856390D01*
X172461920Y-84926920D02*
X172434120Y-84871530D01*
X172469520Y-84999670D02*
X172461920Y-84926920D01*
X172450820Y-85073240D02*
X172469520Y-84999670D01*
X172412020Y-85146430D02*
X172450820Y-85073240D01*
X172360220Y-85217880D02*
X172412020Y-85146430D01*
X172301620Y-85286290D02*
X172360220Y-85217880D01*
X172243120Y-85350360D02*
X172301620Y-85286290D01*
X172203820Y-85393930D02*
X172243120Y-85350360D01*
X172191220Y-85408900D02*
X172203820Y-85393930D01*
X172142620Y-85468750D02*
X172191220Y-85408900D01*
X171908420Y-85777290D02*
X172142620Y-85468750D01*
X171674220Y-86085820D02*
X171908420Y-85777290D01*
X171625720Y-86145720D02*
X171674220Y-86085820D01*
X171537320Y-86260850D02*
X171625720Y-86145720D01*
X171117620Y-86857150D02*
X171537320Y-86260850D01*
X170715520Y-87462720D02*
X171117620Y-86857150D01*
X170636020Y-87582460D02*
X170715520Y-87462720D01*
X170625320Y-87595430D02*
X170636020Y-87582460D01*
X170596120Y-87636820D02*
X170625320Y-87595430D01*
X170555120Y-87699860D02*
X170596120Y-87636820D01*
X170512120Y-87766330D02*
X170555120Y-87699860D01*
X170465920Y-87831110D02*
X170512120Y-87766330D01*
X170415620Y-87888940D02*
X170465920Y-87831110D01*
X170360120Y-87934740D02*
X170415620Y-87888940D01*
X170298420Y-87963210D02*
X170360120Y-87934740D01*
X170246420Y-87970860D02*
X170298420Y-87963210D01*
X170229520Y-87969290D02*
X170246420Y-87970860D01*
X170194420Y-87965600D02*
X170229520Y-87969290D01*
X169956120Y-97950800D02*
X169671820Y-97819800D01*
X170052820Y-97989600D02*
X169956120Y-97950800D01*
X170145620Y-98024100D02*
X170052820Y-97989600D01*
X170421420Y-98134600D02*
X170145620Y-98024100D01*
X170788520Y-98279700D02*
X170421420Y-98134600D01*
X171158720Y-98404000D02*
X170788520Y-98279700D01*
X171441720Y-98473200D02*
X171158720Y-98404000D01*
X171537420Y-98486900D02*
X171441720Y-98473200D01*
X171643220Y-98504100D02*
X171537420Y-98486900D01*
X171964520Y-98531500D02*
X171643220Y-98504100D01*
X172396620Y-98539800D02*
X171964520Y-98531500D01*
X172832220Y-98530900D02*
X172396620Y-98539800D01*
X173160020Y-98523700D02*
X172832220Y-98530900D01*
X173269320Y-98523700D02*
X173160020Y-98523700D01*
X173376320Y-98525400D02*
X173269320Y-98523700D01*
X173697420Y-98514400D02*
X173376320Y-98525400D01*
X174120620Y-98474000D02*
X173697420Y-98514400D01*
X174538320Y-98403600D02*
X174120620Y-98474000D01*
X174950420Y-98305000D02*
X174538320Y-98403600D01*
X175356620Y-98179700D02*
X174950420Y-98305000D01*
X175757020Y-98029000D02*
X175356620Y-98179700D01*
X176151120Y-97854600D02*
X175757020Y-98029000D01*
X176443020Y-97709600D02*
X176151120Y-97854600D01*
X176538720Y-97658000D02*
X176443020Y-97709600D01*
X176632220Y-97608400D02*
X176538720Y-97658000D01*
X176909720Y-97454400D02*
X176632220Y-97608400D01*
X177266920Y-97242200D02*
X176909720Y-97454400D01*
X177609520Y-97017200D02*
X177266920Y-97242200D01*
X177937020Y-96776100D02*
X177609520Y-97017200D01*
X178248820Y-96515200D02*
X177937020Y-96776100D01*
X178544320Y-96230800D02*
X178248820Y-96515200D01*
X178822720Y-95919100D02*
X178544320Y-96230800D01*
X179021920Y-95664700D02*
X178822720Y-95919100D01*
X179083720Y-95576600D02*
X179021920Y-95664700D01*
X179140120Y-95493400D02*
X179083720Y-95576600D01*
X179309820Y-95243900D02*
X179140120Y-95493400D01*
X179527620Y-94904300D02*
X179309820Y-95243900D01*
X179722320Y-94550800D02*
X179527620Y-94904300D01*
X179846120Y-94272500D02*
X179722320Y-94550800D01*
X179878820Y-94176600D02*
X179846120Y-94272500D01*
X179915920Y-94071200D02*
X179878820Y-94176600D01*
X180014720Y-93750400D02*
X179915920Y-94071200D01*
X180130620Y-93308600D02*
X180014720Y-93750400D01*
X180226820Y-92863400D02*
X180130620Y-93308600D01*
X180286120Y-92536200D02*
X180226820Y-92863400D01*
X180303020Y-92426800D02*
X180286120Y-92536200D01*
X180320520Y-92318600D02*
X180303020Y-92426800D01*
X180363120Y-91992500D02*
X180320520Y-92318600D01*
X180406820Y-91553500D02*
X180363120Y-91992500D01*
X180437720Y-91111000D02*
X180406820Y-91553500D01*
X180459920Y-90666000D02*
X180437720Y-91111000D01*
X180477020Y-90219500D02*
X180459920Y-90666000D01*
X180493120Y-89772400D02*
X180477020Y-90219500D01*
X180511920Y-89325900D02*
X180493120Y-89772400D01*
X180537220Y-88881010D02*
X180511920Y-89325900D01*
X180572920Y-88438690D02*
X180537220Y-88881010D01*
X180622620Y-88000000D02*
X180572920Y-88438690D01*
X180690520Y-87565920D02*
X180622620Y-88000000D01*
X180780220Y-87137470D02*
X180690520Y-87565920D01*
X180895520Y-86715760D02*
X180780220Y-87137470D01*
X181040520Y-86301810D02*
X180895520Y-86715760D01*
X181218720Y-85896540D02*
X181040520Y-86301810D01*
X181376120Y-85597380D02*
X181218720Y-85896540D01*
X181434120Y-85501080D02*
X181376120Y-85597380D01*
X181486120Y-85415530D02*
X181434120Y-85501080D01*
X181651120Y-85164490D02*
X181486120Y-85415530D01*
X181891120Y-84836210D02*
X181651120Y-85164490D01*
X182153820Y-84522510D02*
X181891120Y-84836210D01*
X182439320Y-84230030D02*
X182153820Y-84522510D01*
X182746920Y-83965170D02*
X182439320Y-84230030D01*
X183076820Y-83734430D02*
X182746920Y-83965170D01*
X183428720Y-83544260D02*
X183076820Y-83734430D01*
X183706920Y-83430330D02*
X183428720Y-83544260D01*
X183802320Y-83401190D02*
X183706920Y-83430330D01*
X183903320Y-83370600D02*
X183802320Y-83401190D01*
X184215920Y-83309940D02*
X183903320Y-83370600D01*
X184632920Y-83279130D02*
X184215920Y-83309940D01*
X185049820Y-83300130D02*
X184632920Y-83279130D01*
X185361120Y-83343640D02*
X185049820Y-83300130D01*
X185463620Y-83364360D02*
X185361120Y-83343640D01*
X185562320Y-83384280D02*
X185463620Y-83364360D01*
X185854020Y-83469940D02*
X185562320Y-83384280D01*
X186214720Y-83615290D02*
X185854020Y-83469940D01*
X186562020Y-83791720D02*
X186214720Y-83615290D01*
X186825520Y-83940150D02*
X186562020Y-83791720D01*
X186912720Y-83990670D02*
X186825520Y-83940150D01*
X186928620Y-84000970D02*
X186912720Y-83990670D01*
X186975620Y-84032650D02*
X186928620Y-84000970D01*
X187055120Y-84085280D02*
X186975620Y-84032650D01*
X187146220Y-84141820D02*
X187055120Y-84085280D01*
X187244020Y-84195530D02*
X187146220Y-84141820D01*
X187343420Y-84239740D02*
X187244020Y-84195530D01*
X187439520Y-84267740D02*
X187343420Y-84239740D01*
X187527320Y-84272890D02*
X187439520Y-84267740D01*
X187585820Y-84258570D02*
X187527320Y-84272890D01*
X187601920Y-84248470D02*
X187585820Y-84258570D01*
X187615420Y-84240670D02*
X187601920Y-84248470D01*
X187649720Y-84206710D02*
X187615420Y-84240670D01*
X187676520Y-84152890D02*
X187649720Y-84206710D01*
X187685820Y-84090430D02*
X187676520Y-84152890D01*
X187681320Y-84022830D02*
X187685820Y-84090430D01*
X187667220Y-83953440D02*
X187681320Y-84022830D01*
X187646620Y-83885790D02*
X187667220Y-83953440D01*
X187623620Y-83823350D02*
X187646620Y-83885790D01*
X187607420Y-83782990D02*
X187623620Y-83823350D01*
X187601920Y-83769580D02*
X187607420Y-83782990D01*
X187564020Y-83673880D02*
X187601920Y-83769580D01*
X187431520Y-83394250D02*
X187564020Y-83673880D01*
X187233020Y-83060380D02*
X187431520Y-83394250D01*
X186998020Y-82754180D02*
X187233020Y-83060380D01*
X186791520Y-82531360D02*
X186998020Y-82754180D01*
X186718320Y-82461750D02*
X186791520Y-82531360D01*
X186650920Y-82398280D02*
X186718320Y-82461750D01*
X186438620Y-82219130D02*
X186650920Y-82398280D01*
X186150520Y-82012750D02*
X186438620Y-82219130D01*
X185845920Y-81837510D02*
X186150520Y-82012750D01*
X185600420Y-81721740D02*
X185845920Y-81837510D01*
X185516520Y-81688150D02*
X185600420Y-81721740D01*
X185418120Y-81647120D02*
X185516520Y-81688150D01*
X185121120Y-81528370D02*
X185418120Y-81647120D01*
X184725620Y-81391110D02*
X185121120Y-81528370D01*
X184323620Y-81291820D02*
X184725620Y-81391110D01*
X184012320Y-81249460D02*
X184323620Y-81291820D01*
X183908320Y-81246080D02*
X184012320Y-81249460D01*
X183807720Y-81242570D02*
X183908320Y-81246080D01*
X183504920Y-81259650D02*
X183807720Y-81242570D01*
X183094320Y-81323780D02*
X183504920Y-81259650D01*
X182681820Y-81431900D02*
X183094320Y-81323780D01*
X182273620Y-81577640D02*
X182681820Y-81431900D01*
X181875220Y-81754390D02*
X182273620Y-81577640D01*
X181492620Y-81955780D02*
X181875220Y-81754390D01*
X181131620Y-82175290D02*
X181492620Y-81955780D01*
X180879520Y-82346240D02*
X181131620Y-82175290D01*
X180797920Y-82406510D02*
X180879520Y-82346240D01*
X180722320Y-82461360D02*
X180797920Y-82406510D01*
X180506520Y-82641380D02*
X180722320Y-82461360D01*
X180243420Y-82903860D02*
X180506520Y-82641380D01*
X180009920Y-83193960D02*
X180243420Y-82903860D01*
X179854020Y-83429680D02*
X180009920Y-83193960D01*
X179808120Y-83511710D02*
X179854020Y-83429680D01*
X179772920Y-83576170D02*
X179808120Y-83511710D01*
X179450420Y-84220810D02*
X179772920Y-83576170D01*
X179419420Y-84285320D02*
X179450420Y-84220810D01*
X179400920Y-84323720D02*
X179419420Y-84285320D01*
X179332920Y-84432940D02*
X179400920Y-84323720D01*
X179231620Y-84554680D02*
X179332920Y-84432940D01*
X179113720Y-84666070D02*
X179231620Y-84554680D01*
X179011620Y-84753580D02*
X179113720Y-84666070D01*
X178977620Y-84782650D02*
X179011620Y-84753580D01*
X178902420Y-84843900D02*
X178977620Y-84782650D01*
X178688420Y-85041930D02*
X178902420Y-84843900D01*
X178427520Y-85323720D02*
X178688420Y-85041930D01*
X178189820Y-85629670D02*
X178427520Y-85323720D01*
X178022220Y-85876790D02*
X178189820Y-85629670D01*
X177970220Y-85961530D02*
X178022220Y-85876790D01*
X177960220Y-85979000D02*
X177970220Y-85961530D01*
X177931620Y-86032440D02*
X177960220Y-85979000D01*
X177894020Y-86104280D02*
X177931620Y-86032440D01*
X177854720Y-86172620D02*
X177894020Y-86104280D01*
X177811120Y-86233180D02*
X177854720Y-86172620D01*
X177761120Y-86281680D02*
X177811120Y-86233180D01*
X177701820Y-86313750D02*
X177761120Y-86281680D01*
X177630920Y-86325140D02*
X177701820Y-86313750D01*
X177566520Y-86317540D02*
X177630920Y-86325140D01*
X177546120Y-86311470D02*
X177566520Y-86317540D01*
X177500920Y-86293350D02*
X177546120Y-86311470D01*
X177371320Y-86224220D02*
X177500920Y-86293350D01*
X177194820Y-86111170D02*
X177371320Y-86224220D01*
X177021620Y-85987680D02*
X177194820Y-86111170D01*
X176898420Y-85898320D02*
X177021620Y-85987680D01*
X176856920Y-85869400D02*
X176898420Y-85898320D01*
X176841620Y-85858890D02*
X176856920Y-85869400D01*
X176795420Y-85828500D02*
X176841620Y-85858890D01*
X176732920Y-85787380D02*
X176795420Y-85828500D01*
X176673120Y-85744080D02*
X176732920Y-85787380D01*
X176620420Y-85696720D02*
X176673120Y-85744080D01*
X176578420Y-85643280D02*
X176620420Y-85696720D01*
X176551220Y-85581860D02*
X176578420Y-85643280D01*
X176542520Y-85510530D02*
X176551220Y-85581860D01*
X176550520Y-85447370D02*
X176542520Y-85510530D01*
X176556320Y-85427350D02*
X176550520Y-85447370D01*
X176570220Y-85377000D02*
X176556320Y-85427350D01*
X176644020Y-85234810D02*
X176570220Y-85377000D01*
X176779520Y-85047420D02*
X176644020Y-85234810D01*
X176931620Y-84870440D02*
X176779520Y-85047420D01*
X177036220Y-84750600D02*
X176931620Y-84870440D01*
X177069020Y-84708990D02*
X177036220Y-84750600D01*
X177157320Y-84593860D02*
X177069020Y-84708990D01*
X177601320Y-84020500D02*
X177157320Y-84593860D01*
X178054120Y-83456430D02*
X177601320Y-84020500D01*
X178146920Y-83345970D02*
X178054120Y-83456430D01*
X178195520Y-83286070D02*
X178146920Y-83345970D01*
X178694820Y-82687390D02*
X178195520Y-83286070D01*
X178747920Y-82627540D02*
X178694820Y-82687390D01*
X178759920Y-82614850D02*
X178747920Y-82627540D01*
X178797920Y-82578010D02*
X178759920Y-82614850D01*
X178863820Y-82514690D02*
X178797920Y-82578010D01*
X178937920Y-82441030D02*
X178863820Y-82514690D01*
X179012920Y-82360460D02*
X178937920Y-82441030D01*
X179081220Y-82276420D02*
X179012920Y-82360460D01*
X179135520Y-82192380D02*
X179081220Y-82276420D01*
X179168320Y-82111820D02*
X179135520Y-82192380D01*
X179175420Y-82055710D02*
X179168320Y-82111820D01*
X179172020Y-82038140D02*
X179175420Y-82055710D01*
X179169320Y-82026250D02*
X179172020Y-82038140D01*
X179148620Y-81993600D02*
X179169320Y-82026250D01*
X179106620Y-81975360D02*
X179148620Y-81993600D01*
X179048720Y-81980460D02*
X179106620Y-81975360D01*
X178977320Y-82005920D02*
X179048720Y-81980460D01*
X178895020Y-82048560D02*
X178977320Y-82005920D01*
X178804420Y-82105460D02*
X178895020Y-82048560D01*
X178708120Y-82173610D02*
X178804420Y-82105460D01*
X178608620Y-82249940D02*
X178708120Y-82173610D01*
X178508620Y-82331490D02*
X178608620Y-82249940D01*
X178410420Y-82415140D02*
X178508620Y-82331490D01*
X168688320Y-111635400D02*
X168785120Y-111517100D01*
X162068140Y-116161400D02*
X162434730Y-115964000D01*
X168656720Y-111675400D02*
X168688320Y-111635400D01*
X168692020Y-126945400D02*
X168555020Y-126913200D01*
X166246530Y-126383600D02*
X165853030Y-126258600D01*
X186948020Y-101857800D02*
X186985620Y-101830400D01*
X186864420Y-101920400D02*
X186948020Y-101857800D01*
X186634520Y-102136200D02*
X186864420Y-101920400D01*
X186349320Y-102456400D02*
X186634520Y-102136200D01*
X186080620Y-102790300D02*
X186349320Y-102456400D01*
X185885120Y-103032100D02*
X186080620Y-102790300D01*
X185817020Y-103110200D02*
X185885120Y-103032100D01*
X185715420Y-103225400D02*
X185817020Y-103110200D01*
X184716920Y-104376600D02*
X185715420Y-103225400D01*
X184615220Y-104491800D02*
X184716920Y-104376600D01*
X184540820Y-104576400D02*
X184615220Y-104491800D01*
X184325520Y-104837200D02*
X184540820Y-104576400D01*
X184034120Y-105196400D02*
X184325520Y-104837200D01*
X183732920Y-105548600D02*
X184034120Y-105196400D01*
X183497220Y-105796400D02*
X183732920Y-105548600D01*
X183413420Y-105873200D02*
X183497220Y-105796400D01*
X183399120Y-105886600D02*
X183413420Y-105873200D01*
X183348720Y-105919000D02*
X183399120Y-105886600D01*
X183286320Y-105935400D02*
X183348720Y-105919000D01*
X183225820Y-105927600D02*
X183286320Y-105935400D01*
X183166120Y-105900800D02*
X183225820Y-105927600D01*
X183106220Y-105860200D02*
X183166120Y-105900800D01*
X183045620Y-105811100D02*
X183106220Y-105860200D01*
X182983320Y-105758400D02*
X183045620Y-105811100D01*
X182935220Y-105719600D02*
X182983320Y-105758400D01*
X182918620Y-105707500D02*
X182935220Y-105719600D01*
X182861220Y-105665900D02*
X182918620Y-105707500D01*
X182273620Y-105251600D02*
X182861220Y-105665900D01*
X182211820Y-105210100D02*
X182273620Y-105251600D01*
X182088020Y-105122600D02*
X182211820Y-105210100D01*
X180850920Y-104261500D02*
X182088020Y-105122600D01*
X180727220Y-104178700D02*
X180850920Y-104261500D01*
X180674120Y-104141800D02*
X180727220Y-104178700D01*
X180113020Y-103773400D02*
X180674120Y-104141800D01*
X180055620Y-103736600D02*
X180113020Y-103773400D01*
X180028020Y-103720100D02*
X180055620Y-103736600D01*
X179948720Y-103664600D02*
X180028020Y-103720100D01*
X179823720Y-103575400D02*
X179948720Y-103664600D01*
X179695220Y-103493000D02*
X179823720Y-103575400D01*
X179609020Y-103449700D02*
X179695220Y-103493000D01*
X179578420Y-103441800D02*
X179609020Y-103449700D01*
X179573620Y-103453700D02*
X179578420Y-103441800D01*
X179573320Y-103495700D02*
X179573620Y-103453700D01*
X179593320Y-103558300D02*
X179573320Y-103495700D01*
X179632520Y-103626600D02*
X179593320Y-103558300D01*
X179684420Y-103697300D02*
X179632520Y-103626600D01*
X179743120Y-103767200D02*
X179684420Y-103697300D01*
X179802220Y-103832900D02*
X179743120Y-103767200D01*
X179855420Y-103891200D02*
X179802220Y-103832900D01*
X179886820Y-103926800D02*
X179855420Y-103891200D01*
X179896620Y-103939100D02*
X179886820Y-103926800D01*
X179936320Y-103994400D02*
X179896620Y-103939100D01*
X180144020Y-104268400D02*
X179936320Y-103994400D01*
X180351620Y-104533200D02*
X180144020Y-104268400D01*
X180391520Y-104583900D02*
X180351620Y-104533200D01*
X180466520Y-104675900D02*
X180391520Y-104583900D01*
X181217620Y-105629100D02*
X180466520Y-104675900D01*
X181292720Y-105725800D02*
X181217620Y-105629100D01*
X181367920Y-105822500D02*
X181292720Y-105725800D01*
X182118820Y-106789600D02*
X181367920Y-105822500D01*
X182194020Y-106886400D02*
X182118820Y-106789600D01*
X182208620Y-106905900D02*
X182194020Y-106886400D01*
X182249020Y-106967300D02*
X182208620Y-106905900D01*
X182282320Y-107033600D02*
X182249020Y-106967300D01*
X182295920Y-107089600D02*
X182282320Y-107033600D01*
X182291220Y-107139600D02*
X182295920Y-107089600D01*
X182270020Y-107187800D02*
X182291220Y-107139600D01*
X182233720Y-107238600D02*
X182270020Y-107187800D01*
X182184420Y-107296200D02*
X182233720Y-107238600D01*
X182138420Y-107347900D02*
X182184420Y-107296200D01*
X182123420Y-107365300D02*
X182138420Y-107347900D01*
X182088020Y-107411200D02*
X182123420Y-107365300D01*
X181900220Y-107632300D02*
X182088020Y-107411200D01*
X181703620Y-107853300D02*
X181900220Y-107632300D01*
X181663820Y-107899400D02*
X181703620Y-107853300D01*
X181575520Y-108000700D02*
X181663820Y-107899400D01*
X181135920Y-108498000D02*
X181575520Y-108000700D01*
X180705120Y-108995400D02*
X181135920Y-108498000D01*
X180621120Y-109096600D02*
X180705120Y-108995400D01*
X180593420Y-109127300D02*
X180621120Y-109096600D01*
X180514120Y-109222600D02*
X180593420Y-109127300D01*
X180404720Y-109361100D02*
X180514120Y-109222600D01*
X180291920Y-109506200D02*
X180404720Y-109361100D01*
X180174920Y-109651500D02*
X180291920Y-109506200D01*
X180053020Y-109790800D02*
X180174920Y-109651500D01*
X179925220Y-109917800D02*
X180053020Y-109790800D01*
X179790920Y-110026200D02*
X179925220Y-109917800D01*
X179686120Y-110092200D02*
X179790920Y-110026200D01*
X179649120Y-110109800D02*
X179686120Y-110092200D01*
X179617020Y-110125000D02*
X179649120Y-110109800D01*
X179513020Y-110154100D02*
X179617020Y-110125000D01*
X179395420Y-110153400D02*
X179513020Y-110154100D01*
X179294720Y-110115000D02*
X179395420Y-110153400D01*
X179209520Y-110045300D02*
X179294720Y-110115000D01*
X179138420Y-109951500D02*
X179209520Y-110045300D01*
X179080020Y-109840400D02*
X179138420Y-109951500D01*
X179032720Y-109718900D02*
X179080020Y-109840400D01*
X179003620Y-109625500D02*
X179032720Y-109718900D01*
X178995220Y-109594000D02*
X179003620Y-109625500D01*
X178977620Y-109529600D02*
X178995220Y-109594000D01*
X178900220Y-109198000D02*
X178977620Y-109529600D01*
X178831820Y-108866400D02*
X178900220Y-109198000D01*
X178818620Y-108801900D02*
X178831820Y-108866400D01*
X178816320Y-108786600D02*
X178818620Y-108801900D01*
X178813120Y-108740400D02*
X178816320Y-108786600D01*
X178808620Y-108658000D02*
X178813120Y-108740400D01*
X178802320Y-108563600D02*
X178808620Y-108658000D01*
X178792020Y-108465800D02*
X178802320Y-108563600D01*
X178775020Y-108373200D02*
X178792020Y-108465800D01*
X178748820Y-108294300D02*
X178775020Y-108373200D01*
X178711220Y-108237700D02*
X178748820Y-108294300D01*
X178673020Y-108214000D02*
X178711220Y-108237700D01*
X178659520Y-108212500D02*
X178673020Y-108214000D01*
X178640920Y-108282600D02*
X178659520Y-108212500D01*
X178584520Y-108492800D02*
X178640920Y-108282600D01*
X178510420Y-108779600D02*
X178584520Y-108492800D01*
X178444520Y-109070500D02*
X178510420Y-108779600D01*
X178394420Y-109363700D02*
X178444520Y-109070500D01*
X178367420Y-109656900D02*
X178394420Y-109363700D01*
X178371120Y-109948000D02*
X178367420Y-109656900D01*
X178413020Y-110234700D02*
X178371120Y-109948000D01*
X178472920Y-110447200D02*
X178413020Y-110234700D01*
X178500420Y-110515000D02*
X178472920Y-110447200D01*
X178528020Y-110584400D02*
X178500420Y-110515000D01*
X178624420Y-110787300D02*
X178528020Y-110584400D01*
X178769720Y-111039000D02*
X178624420Y-110787300D01*
X178934420Y-111272300D02*
X178769720Y-111039000D01*
X179116820Y-111488900D02*
X178934420Y-111272300D01*
X179314820Y-111690800D02*
X179116820Y-111488900D01*
X179526820Y-111880100D02*
X179314820Y-111690800D01*
X179750820Y-112058400D02*
X179526820Y-111880100D01*
X179925620Y-112186800D02*
X179750820Y-112058400D01*
X179985020Y-112228000D02*
X179925620Y-112186800D01*
X180045820Y-112266800D02*
X179985020Y-112228000D01*
X180235120Y-112372800D02*
X180045820Y-112266800D01*
X180501920Y-112502100D02*
X180235120Y-112372800D01*
X180775220Y-112614000D02*
X180501920Y-112502100D01*
X180977220Y-112685700D02*
X180775220Y-112614000D01*
X181045220Y-112706900D02*
X180977220Y-112685700D01*
X181093820Y-112725400D02*
X181045220Y-112706900D01*
X181345820Y-112780500D02*
X181093820Y-112725400D01*
X181571120Y-112799100D02*
X181345820Y-112780500D01*
X181646220Y-112799100D02*
X181571120Y-112799100D01*
X181659120Y-112799100D02*
X181646220Y-112799100D01*
X181698020Y-112798900D02*
X181659120Y-112799100D01*
X181766520Y-112797100D02*
X181698020Y-112798900D01*
X181839920Y-112792200D02*
X181766520Y-112797100D01*
X181906920Y-112782900D02*
X181839920Y-112792200D01*
X181955420Y-112767600D02*
X181906920Y-112782900D01*
X181974320Y-112744700D02*
X181955420Y-112767600D01*
X181951520Y-112712600D02*
X181974320Y-112744700D01*
X181895520Y-112679000D02*
X181951520Y-112712600D01*
X181875920Y-112670100D02*
X181895520Y-112679000D01*
X181846120Y-112656200D02*
X181875920Y-112670100D01*
X181751120Y-112626400D02*
X181846120Y-112656200D01*
X181619720Y-112596400D02*
X181751120Y-112626400D01*
X181488120Y-112566500D02*
X181619720Y-112596400D01*
X181393320Y-112536500D02*
X181488120Y-112566500D01*
X181363420Y-112522700D02*
X181393320Y-112536500D01*
X181319320Y-112504300D02*
X181363420Y-112522700D01*
X181100520Y-112389100D02*
X181319320Y-112504300D01*
X180890620Y-112255700D02*
X181100520Y-112389100D01*
X180850920Y-112228000D02*
X180890620Y-112255700D01*
X180824520Y-112209700D02*
X180850920Y-112228000D01*
X180744320Y-112157100D02*
X180824520Y-112209700D01*
X180627220Y-112081500D02*
X180744320Y-112157100D01*
X180506120Y-112000400D02*
X180627220Y-112081500D01*
X180387020Y-111912600D02*
X180506120Y-112000400D01*
X180276220Y-111817100D02*
X180387020Y-111912600D01*
X180179920Y-111712600D02*
X180276220Y-111817100D01*
X180104320Y-111598200D02*
X180179920Y-111712600D01*
X180063820Y-111505100D02*
X180104320Y-111598200D01*
X180055620Y-111472800D02*
X180063820Y-111505100D01*
X180261120Y-111472800D02*
X180055620Y-111472800D01*
X180877520Y-111500400D02*
X180261120Y-111472800D01*
X181493720Y-111528000D02*
X180877520Y-111500400D01*
X181699320Y-111528000D02*
X181493720Y-111528000D01*
X181804420Y-111528000D02*
X181699320Y-111528000D01*
X182120220Y-111515400D02*
X181804420Y-111528000D01*
X182536520Y-111481900D02*
X182120220Y-111515400D01*
X182949320Y-111434800D02*
X182536520Y-111481900D01*
X183257720Y-111394400D02*
X182949320Y-111434800D01*
X183360520Y-111380700D02*
X183257720Y-111394400D01*
X183426620Y-111371500D02*
X183360520Y-111380700D01*
X184058620Y-111279400D02*
X183426620Y-111371500D01*
X184120420Y-111270100D02*
X184058620Y-111279400D01*
X184136820Y-111266800D02*
X184120420Y-111270100D01*
X184185620Y-111254400D02*
X184136820Y-111266800D01*
X184247920Y-111237900D02*
X184185620Y-111254400D01*
X184306120Y-111224800D02*
X184247920Y-111237900D01*
X184359020Y-111219600D02*
X184306120Y-111224800D01*
X184405120Y-111226200D02*
X184359020Y-111219600D01*
X184443420Y-111249400D02*
X184405120Y-111226200D01*
X184472620Y-111293300D02*
X184443420Y-111249400D01*
X184488720Y-111344700D02*
X184472620Y-111293300D01*
X184491520Y-111362300D02*
X184488720Y-111344700D01*
X184496320Y-111401400D02*
X184491520Y-111362300D01*
X184499120Y-111520000D02*
X184496320Y-111401400D01*
X184483420Y-111673700D02*
X184499120Y-111520000D01*
X184445820Y-111821400D02*
X184483420Y-111673700D01*
X184387720Y-111960900D02*
X184445820Y-111821400D01*
X184310420Y-112090100D02*
X184387720Y-111960900D01*
X184215620Y-112206600D02*
X184310420Y-112090100D01*
X184104720Y-112308600D02*
X184215620Y-112206600D01*
X184011820Y-112375000D02*
X184104720Y-112308600D01*
X183979020Y-112393700D02*
X184011820Y-112375000D01*
X183889020Y-112447300D02*
X183979020Y-112393700D01*
X183601820Y-112578600D02*
X183889020Y-112447300D01*
X183214720Y-112711500D02*
X183601820Y-112578600D01*
X182820820Y-112823700D02*
X183214720Y-112711500D01*
X182521820Y-112912300D02*
X182820820Y-112823700D01*
X182423720Y-112946400D02*
X182521820Y-112912300D01*
X182323120Y-112983600D02*
X182423720Y-112946400D01*
X182020920Y-113093400D02*
X182323120Y-112983600D01*
X181626320Y-113225000D02*
X182020920Y-113093400D01*
X181228420Y-113332300D02*
X181626320Y-113225000D01*
X180919420Y-113393300D02*
X181228420Y-113332300D01*
X180815520Y-113406900D02*
X180919420Y-113393300D01*
X180766520Y-113413300D02*
X180815520Y-113406900D01*
X180616620Y-113412500D02*
X180766520Y-113413300D01*
X180440220Y-113378700D02*
X180616620Y-113412500D01*
X180280920Y-113313000D02*
X180440220Y-113378700D01*
X180133020Y-113222600D02*
X180280920Y-113313000D01*
X179990820Y-113115100D02*
X180133020Y-113222600D01*
X179848820Y-112997600D02*
X179990820Y-113115100D01*
X179701520Y-112877500D02*
X179848820Y-112997600D01*
X179583820Y-112789300D02*
X179701520Y-112877500D01*
X179543120Y-112762200D02*
X179583820Y-112789300D01*
X179459820Y-112706600D02*
X179543120Y-112762200D01*
X179202920Y-112550400D02*
X179459820Y-112706600D01*
X178849420Y-112352300D02*
X179202920Y-112550400D01*
X178489420Y-112161200D02*
X178849420Y-112352300D01*
X178218820Y-112018600D02*
X178489420Y-112161200D01*
X178129320Y-111970100D02*
X178218820Y-112018600D01*
X178084420Y-111945900D02*
X178129320Y-111970100D01*
X177950520Y-111872300D02*
X178084420Y-111945900D01*
X177773620Y-111770900D02*
X177950520Y-111872300D01*
X177599920Y-111664600D02*
X177773620Y-111770900D01*
X177431220Y-111551100D02*
X177599920Y-111664600D01*
X177269120Y-111429000D02*
X177431220Y-111551100D01*
X177115220Y-111296600D02*
X177269120Y-111429000D01*
X176971320Y-111152100D02*
X177115220Y-111296600D01*
X176870420Y-111034800D02*
X176971320Y-111152100D01*
X176839120Y-110993900D02*
X176870420Y-111034800D01*
X176808620Y-110953600D02*
X176839120Y-110993900D01*
X176729320Y-110823200D02*
X176808620Y-110953600D01*
X176648720Y-110643600D02*
X176729320Y-110823200D01*
X176593720Y-110456600D02*
X176648720Y-110643600D01*
X176560820Y-110264000D02*
X176593720Y-110456600D01*
X176546120Y-110067100D02*
X176560820Y-110264000D01*
X169505020Y-110275500D02*
X169528520Y-110166600D01*
X169697820Y-126941800D02*
X169491720Y-126954600D01*
X169904820Y-126914300D02*
X169697820Y-126941800D01*
X170111720Y-126867800D02*
X169904820Y-126914300D01*
X170267520Y-126818300D02*
X170111720Y-126867800D01*
X170317920Y-126798000D02*
X170267520Y-126818300D01*
X170502920Y-126763600D02*
X170317920Y-126798000D01*
X171052720Y-126631400D02*
X170502920Y-126763600D01*
X171769320Y-126404300D02*
X171052720Y-126631400D01*
X172462620Y-126111600D02*
X171769320Y-126404300D01*
X172966920Y-125847500D02*
X172462620Y-126111600D01*
X173127920Y-125748200D02*
X172966920Y-125847500D01*
X173196920Y-125705400D02*
X173127920Y-125748200D01*
X173394520Y-125561900D02*
X173196920Y-125705400D01*
X173637920Y-125350300D02*
X173394520Y-125561900D01*
X173857620Y-125115400D02*
X173637920Y-125350300D01*
X174053420Y-124859300D02*
X173857620Y-125115400D01*
X174225420Y-124584300D02*
X174053420Y-124859300D01*
X174373020Y-124292300D02*
X174225420Y-124584300D01*
X174496120Y-123985700D02*
X174373020Y-124292300D01*
X174573320Y-123747300D02*
X174496120Y-123985700D01*
X174594720Y-123666600D02*
X174573320Y-123747300D01*
X174621120Y-123570400D02*
X174594720Y-123666600D01*
X174703020Y-123282500D02*
X174621120Y-123570400D01*
X174811220Y-122900000D02*
X174703020Y-123282500D01*
X174912720Y-122514000D02*
X174811220Y-122900000D01*
X174981520Y-122218600D02*
X174912720Y-122514000D01*
X175001220Y-122119400D02*
X174981520Y-122218600D01*
X175027720Y-121981200D02*
X175001220Y-122119400D01*
X175142620Y-121290500D02*
X175027720Y-121981200D01*
X175257520Y-120599800D02*
X175142620Y-121290500D01*
X175284020Y-120461600D02*
X175257520Y-120599800D01*
X175303420Y-120363000D02*
X175284020Y-120461600D01*
X175372720Y-120069400D02*
X175303420Y-120363000D01*
X175480520Y-119692600D02*
X175372720Y-120069400D01*
X175608320Y-119329700D02*
X175480520Y-119692600D01*
X175756820Y-118978900D02*
X175608320Y-119329700D01*
X175926620Y-118638400D02*
X175756820Y-118978900D01*
X176119020Y-118306500D02*
X175926620Y-118638400D01*
X176334520Y-117981600D02*
X176119020Y-118306500D01*
X176512020Y-117740100D02*
X176334520Y-117981600D01*
X176574120Y-117661900D02*
X176512020Y-117740100D01*
X176633620Y-117587100D02*
X176574120Y-117661900D01*
X176823120Y-117371600D02*
X176633620Y-117587100D01*
X177091920Y-117101200D02*
X176823120Y-117371600D01*
X177378720Y-116849800D02*
X177091920Y-117101200D01*
X177681620Y-116616800D02*
X177378720Y-116849800D01*
X177999020Y-116401100D02*
X177681620Y-116616800D01*
X178329020Y-116201900D02*
X177999020Y-116401100D01*
X178669720Y-116018400D02*
X178329020Y-116201900D01*
X179019520Y-115849800D02*
X178669720Y-116018400D01*
X179376620Y-115695100D02*
X179019520Y-115849800D01*
X179739120Y-115553700D02*
X179376620Y-115695100D01*
X180105220Y-115424700D02*
X179739120Y-115553700D01*
X180473420Y-115307200D02*
X180105220Y-115424700D01*
X180841620Y-115200400D02*
X180473420Y-115307200D01*
X181208120Y-115103400D02*
X180841620Y-115200400D01*
X181571220Y-115015500D02*
X181208120Y-115103400D01*
X181839420Y-114954800D02*
X181571220Y-115015500D01*
X181929020Y-114935700D02*
X181839420Y-114954800D01*
X182123820Y-114894400D02*
X181929020Y-114935700D01*
X182705220Y-114754000D02*
X182123820Y-114894400D01*
X183473020Y-114546500D02*
X182705220Y-114754000D01*
X184237720Y-114321800D02*
X183473020Y-114546500D01*
X184812520Y-114146900D02*
X184237720Y-114321800D01*
X185004020Y-114088400D02*
X184812520Y-114146900D01*
X185048320Y-114074700D02*
X185004020Y-114088400D01*
X185182920Y-114038700D02*
X185048320Y-114074700D01*
X185361320Y-114001800D02*
X185182920Y-114038700D01*
X185539020Y-113980000D02*
X185361320Y-114001800D01*
X185715420Y-113975500D02*
X185539020Y-113980000D01*
X185889920Y-113991100D02*
X185715420Y-113975500D01*
X186062720Y-114028900D02*
X185889920Y-113991100D01*
X186232920Y-114091100D02*
X186062720Y-114028900D01*
X186360020Y-114155400D02*
X186232920Y-114091100D01*
X186400120Y-114180500D02*
X186360020Y-114155400D01*
X186441820Y-114206500D02*
X186400120Y-114180500D01*
X186565220Y-114287700D02*
X186441820Y-114206500D01*
X186729820Y-114400100D02*
X186565220Y-114287700D01*
X186895420Y-114513700D02*
X186729820Y-114400100D01*
X187062920Y-114624800D02*
X186895420Y-114513700D01*
X187233720Y-114730000D02*
X187062920Y-114624800D01*
X187409120Y-114825500D02*
X187233720Y-114730000D01*
X187590420Y-114907600D02*
X187409120Y-114825500D01*
X187730820Y-114958900D02*
X187590420Y-114907600D01*
X187778620Y-114972600D02*
X187730820Y-114958900D01*
X187875620Y-115000500D02*
X187778620Y-114972600D01*
X188171520Y-115068700D02*
X187875620Y-115000500D01*
X188576120Y-115133700D02*
X188171520Y-115068700D01*
X188984020Y-115164100D02*
X188576120Y-115133700D01*
X189286520Y-115163700D02*
X188984020Y-115164100D01*
X189386920Y-115156800D02*
X189286520Y-115163700D01*
X189435820Y-115153200D02*
X189386920Y-115156800D01*
X189582720Y-115142500D02*
X189435820Y-115153200D01*
X189784520Y-115125900D02*
X189582720Y-115142500D01*
X189989520Y-115104600D02*
X189784520Y-115125900D01*
X190195420Y-115076100D02*
X189989520Y-115104600D01*
X190399520Y-115038200D02*
X190195420Y-115076100D01*
X190599720Y-114988300D02*
X190399520Y-115038200D01*
X190793020Y-114924300D02*
X190599720Y-114988300D01*
X190932420Y-114866200D02*
X190793020Y-114924300D01*
X190977520Y-114843600D02*
X190932420Y-114866200D01*
X191013420Y-114825200D02*
X190977520Y-114843600D01*
X191120920Y-114768400D02*
X191013420Y-114825200D01*
X191265520Y-114687900D02*
X191120920Y-114768400D01*
X191409820Y-114601800D02*
X191265520Y-114687900D01*
X191552320Y-114509700D02*
X191409820Y-114601800D01*
X191691820Y-114411800D02*
X191552320Y-114509700D01*
X191826820Y-114307300D02*
X191691820Y-114411800D01*
X191955820Y-114196600D02*
X191826820Y-114307300D01*
X192077520Y-114079100D02*
X191955820Y-114196600D01*
X192190520Y-113954800D02*
X192077520Y-114079100D01*
X192293620Y-113823300D02*
X192190520Y-113954800D01*
X192384920Y-113684600D02*
X192293620Y-113823300D01*
X192463620Y-113538000D02*
X192384920Y-113684600D01*
X192527920Y-113384000D02*
X192463620Y-113538000D01*
X192576520Y-113221800D02*
X192527920Y-113384000D01*
X192608020Y-113051400D02*
X192576520Y-113221800D01*
X192620120Y-112917500D02*
X192608020Y-113051400D01*
X192620920Y-112872800D02*
X192620120Y-112917500D01*
X192620920Y-112795100D02*
X192620920Y-112872800D01*
X192594720Y-112562500D02*
X192620920Y-112795100D01*
X192517220Y-112269400D02*
X192594720Y-112562500D01*
X192389820Y-111997200D02*
X192517220Y-112269400D01*
X192263320Y-111806800D02*
X192389820Y-111997200D01*
X192214520Y-111749100D02*
X192263320Y-111806800D01*
X192187720Y-111715900D02*
X192214520Y-111749100D01*
X192109520Y-111615300D02*
X192187720Y-111715900D01*
X192011220Y-111476500D02*
X192109520Y-111615300D01*
X191926220Y-111333000D02*
X192011220Y-111476500D01*
X191861120Y-111185000D02*
X191926220Y-111333000D01*
X191822320Y-111032600D02*
X191861120Y-111185000D01*
X191816820Y-110876100D02*
X191822320Y-111032600D01*
X191851120Y-110715800D02*
X191816820Y-110876100D01*
X191907320Y-110590100D02*
X191851120Y-110715800D01*
X191931820Y-110551800D02*
X191907320Y-110590100D01*
X191955120Y-110515300D02*
X191931820Y-110551800D01*
X192035420Y-110412500D02*
X191955120Y-110515300D01*
X192157320Y-110283300D02*
X192035420Y-110412500D01*
X192293020Y-110162300D02*
X192157320Y-110283300D01*
X192437620Y-110047500D02*
X192293020Y-110162300D01*
X192586320Y-109937100D02*
X192437620Y-110047500D01*
X192734520Y-109829100D02*
X192586320Y-109937100D01*
X192877220Y-109721500D02*
X192734520Y-109829100D01*
X192977620Y-109640700D02*
X192877220Y-109721500D01*
X193009820Y-109612500D02*
X192977620Y-109640700D01*
X193111520Y-109524800D02*
X193009820Y-109612500D01*
X193595220Y-109071200D02*
X193111520Y-109524800D01*
X194052520Y-108590100D02*
X193595220Y-109071200D01*
X194140820Y-108488900D02*
X194052520Y-108590100D01*
X194272220Y-108341600D02*
X194140820Y-108488900D01*
X194652320Y-107887300D02*
X194272220Y-108341600D01*
X195138320Y-107258700D02*
X194652320Y-107887300D01*
X195595920Y-106605000D02*
X195138320Y-107258700D01*
X196023020Y-105928400D02*
X195595920Y-106605000D01*
X196416920Y-105231200D02*
X196023020Y-105928400D01*
X196775120Y-104515200D02*
X196416920Y-105231200D01*
X197095420Y-103783000D02*
X196775120Y-104515200D01*
X197310420Y-103225000D02*
X197095420Y-103783000D01*
X197375020Y-103036500D02*
X197310420Y-103225000D01*
X197441320Y-102849700D02*
X197375020Y-103036500D01*
X197627020Y-102284300D02*
X197441320Y-102849700D01*
X197854320Y-101521500D02*
X197627020Y-102284300D01*
X198058420Y-100751900D02*
X197854320Y-101521500D01*
X198197720Y-100172700D02*
X198058420Y-100751900D01*
X198240920Y-99978900D02*
X198197720Y-100172700D01*
X198287020Y-99769600D02*
X198240920Y-99978900D01*
X198384020Y-99132700D02*
X198287020Y-99769600D01*
X198457420Y-98279700D02*
X198384020Y-99132700D01*
X198484520Y-97419700D02*
X198457420Y-98279700D01*
X198488420Y-96769600D02*
X198484520Y-97419700D01*
X198488420Y-96552900D02*
X198488420Y-96769600D01*
X198488420Y-96444400D02*
X198488420Y-96552900D01*
X198487020Y-96119300D02*
X198488420Y-96444400D01*
X198480920Y-95688900D02*
X198487020Y-96119300D01*
X198466920Y-95260900D02*
X198480920Y-95688900D01*
X198441920Y-94835100D02*
X198466920Y-95260900D01*
X198402920Y-94411200D02*
X198441920Y-94835100D01*
X198346620Y-93988400D02*
X198402920Y-94411200D01*
X198270120Y-93566500D02*
X198346620Y-93988400D01*
X198198120Y-93249700D02*
X198270120Y-93566500D01*
X198170220Y-93145100D02*
X198198120Y-93249700D01*
X198157020Y-93090400D02*
X198170220Y-93145100D01*
X198112220Y-92927100D02*
X198157020Y-93090400D01*
X198050920Y-92712300D02*
X198112220Y-92927100D01*
X197996220Y-92497600D02*
X198050920Y-92712300D01*
X197964720Y-92334300D02*
X197996220Y-92497600D01*
X197958120Y-92279500D02*
X197964720Y-92334300D01*
X197949320Y-92214900D02*
X197958120Y-92279500D01*
X197909520Y-91892600D02*
X197949320Y-92214900D01*
X197852020Y-91570300D02*
X197909520Y-91892600D01*
X197834420Y-91505900D02*
X197852020Y-91570300D01*
X197807920Y-91402200D02*
X197834420Y-91505900D01*
X197717020Y-91094200D02*
X197807920Y-91402200D01*
X197584820Y-90686100D02*
X197717020Y-91094200D01*
X197449320Y-90278000D02*
X197584820Y-90686100D01*
X197351820Y-89969900D02*
X197449320Y-90278000D01*
X197322020Y-89866500D02*
X197351820Y-89969900D01*
X197282220Y-89742100D02*
X197322020Y-89866500D01*
X197059120Y-89113600D02*
X197282220Y-89742100D01*
X196809420Y-88494250D02*
X197059120Y-89113600D01*
X196756520Y-88374510D02*
X196809420Y-88494250D01*
X196703420Y-88250150D02*
X196756520Y-88374510D01*
X196442720Y-87630810D02*
X196703420Y-88250150D01*
X196164420Y-87020610D02*
X196442720Y-87630810D01*
X196102620Y-86900930D02*
X196164420Y-87020610D01*
X196057420Y-86817370D02*
X196102620Y-86900930D01*
X195928320Y-86563470D02*
X196057420Y-86817370D01*
X195759520Y-86218530D02*
X195928320Y-86563470D01*
X195589920Y-85872240D02*
X195759520Y-86218530D01*
X195413320Y-85530920D02*
X195589920Y-85872240D01*
X195223320Y-85200850D02*
X195413320Y-85530920D01*
X195014020Y-84888290D02*
X195223320Y-85200850D01*
X194778820Y-84599440D02*
X195014020Y-84888290D01*
X194582720Y-84400560D02*
X194778820Y-84599440D01*
X194512020Y-84340600D02*
X194582720Y-84400560D01*
X194512020Y-84377820D02*
X194512020Y-84340600D01*
X194524420Y-84489530D02*
X194512020Y-84377820D01*
X194558420Y-84644750D02*
X194524420Y-84489530D01*
X194608820Y-84803870D02*
X194558420Y-84644750D01*
X194670920Y-84964510D02*
X194608820Y-84803870D01*
X194739820Y-85124290D02*
X194670920Y-84964510D01*
X194810220Y-85280810D02*
X194739820Y-85124290D01*
X194877320Y-85431750D02*
X194810220Y-85280810D01*
X194922320Y-85538630D02*
X194877320Y-85431750D01*
X194936120Y-85574710D02*
X194922320Y-85538630D01*
X194971520Y-85666780D02*
X194936120Y-85574710D01*
X195165820Y-86118060D02*
X194971520Y-85666780D01*
X195360220Y-86569330D02*
X195165820Y-86118060D01*
X195395620Y-86661460D02*
X195360220Y-86569330D01*
X195451620Y-86802190D02*
X195395620Y-86661460D01*
X195624520Y-87222650D02*
X195451620Y-86802190D01*
X195848420Y-87780430D02*
X195624520Y-87222650D01*
X196049320Y-88345100D02*
X195848420Y-87780430D01*
X196175820Y-88780000D02*
X196049320Y-88345100D01*
X196208620Y-88927100D02*
X196175820Y-88780000D01*
X196225120Y-88999500D02*
X196208620Y-88927100D01*
X196286320Y-89214300D02*
X196225120Y-88999500D01*
X196380820Y-89498100D02*
X196286320Y-89214300D01*
X196481920Y-89781800D02*
X196380820Y-89498100D01*
X196556620Y-89996800D02*
X196481920Y-89781800D01*
X196579720Y-90069100D02*
X196556620Y-89996800D01*
X196602620Y-90144100D02*
X196579720Y-90069100D01*
X196658120Y-90373000D02*
X196602620Y-90144100D01*
X196716620Y-90677000D02*
X196658120Y-90373000D01*
X196768620Y-90980800D02*
X196716620Y-90677000D01*
X196810620Y-91209200D02*
X196768620Y-90980800D01*
X196827220Y-91284800D02*
X196810620Y-91209200D01*
X196849320Y-91395300D02*
X196827220Y-91284800D01*
X196968420Y-91936400D02*
X196849320Y-91395300D01*
X197087720Y-92468300D02*
X196968420Y-91936400D01*
X197109920Y-92574200D02*
X197087720Y-92468300D01*
X197127620Y-92675500D02*
X197109920Y-92574200D01*
X197185020Y-93191200D02*
X197127620Y-92675500D01*
X197224820Y-93707100D02*
X197185020Y-93191200D01*
X197233620Y-93808300D02*
X197224820Y-93707100D01*
X197246920Y-93956900D02*
X197233620Y-93808300D01*
X197291120Y-94402300D02*
X197246920Y-93956900D01*
X197348420Y-94996400D02*
X197291120Y-94402300D01*
X197392620Y-95590400D02*
X197348420Y-94996400D01*
X197410420Y-96035900D02*
X197392620Y-95590400D01*
X197410420Y-96184600D02*
X197410420Y-96035900D01*
X197410420Y-96318300D02*
X197410420Y-96184600D01*
X197398120Y-96720100D02*
X197410420Y-96318300D01*
X197366120Y-97250500D02*
X197398120Y-96720100D01*
X197320820Y-97777500D02*
X197366120Y-97250500D01*
X197282220Y-98171500D02*
X197320820Y-97777500D01*
X197269020Y-98302800D02*
X197282220Y-98171500D01*
X197252620Y-98439300D02*
X197269020Y-98302800D01*
X197203320Y-98849300D02*
X197252620Y-98439300D01*
X197127620Y-99387200D02*
X197203320Y-98849300D01*
X197025420Y-99921600D02*
X197127620Y-99387200D01*
X196922420Y-100325700D02*
X197025420Y-99921600D01*
X196880120Y-100457900D02*
X196922420Y-100325700D01*
X196837520Y-100591100D02*
X196880120Y-100457900D01*
X196698120Y-100987300D02*
X196837520Y-100591100D01*
X196497920Y-101503200D02*
X196698120Y-100987300D01*
X196281220Y-102012100D02*
X196497920Y-101503200D01*
X169044620Y-111196800D02*
X169166920Y-111030700D01*
X169699420Y-108488900D02*
X169696020Y-108436900D01*
X166946830Y-126571500D02*
X166643340Y-126494700D01*
X162799640Y-115765500D02*
X163070800Y-115613900D01*
X169667020Y-107867200D02*
X169686420Y-107710400D01*
X166182510Y-113885800D02*
X166272730Y-113830100D01*
X169706020Y-108600400D02*
X169699420Y-108488900D01*
X169661820Y-109389000D02*
X169701320Y-108936400D01*
X169756520Y-107442100D02*
X169838520Y-107229400D01*
X169278520Y-110857800D02*
X169374920Y-110675500D01*
X169701320Y-108936400D02*
X169706020Y-108600400D01*
X169166920Y-111030700D02*
X169278520Y-110857800D01*
X169686420Y-107710400D02*
X169699420Y-107660000D01*
X169666220Y-108074400D02*
X169667020Y-107867200D01*
X167870220Y-126770400D02*
X167185390Y-126627600D01*
X168915920Y-111358200D02*
X169044620Y-111196800D01*
X167048440Y-126595400D02*
X166946830Y-126571500D01*
X169709320Y-107604700D02*
X169756520Y-107442100D01*
X167185390Y-126627600D02*
X167048440Y-126595400D01*
X163160430Y-115561900D02*
X163346080Y-115451400D01*
X161702410Y-116360900D02*
X162068140Y-116161400D01*
X168141930Y-112308600D02*
X168403420Y-111999700D01*
X166884980Y-113400000D02*
X167226290Y-113137200D01*
X169592520Y-109838300D02*
X169661820Y-109389000D01*
X165439400Y-114321200D02*
X166000000Y-114000000D01*
X169451820Y-110482200D02*
X169495320Y-110327900D01*
X166537050Y-113652300D02*
X166884980Y-113400000D01*
X164678070Y-114730800D02*
X165439400Y-114321200D01*
X169699420Y-107660000D02*
X169709320Y-107604700D01*
X167863870Y-112600100D02*
X168141930Y-112308600D01*
X167477370Y-112938900D02*
X167560980Y-112872800D01*
X169930420Y-107020100D02*
X169997320Y-106865100D01*
X179101320Y-85501080D02*
X179101320Y-85501080D01*
X179101320Y-85506350D02*
X179101320Y-85501080D01*
X179100520Y-85522180D02*
X179101320Y-85506350D01*
X179098820Y-85532110D02*
X179100520Y-85522180D01*
X179096620Y-85533420D02*
X179098820Y-85532110D01*
X179094720Y-85528640D02*
X179096620Y-85533420D01*
X179093620Y-85520440D02*
X179094720Y-85528640D01*
X179093820Y-85511390D02*
X179093620Y-85520440D01*
X179096220Y-85504070D02*
X179093820Y-85511390D01*
X179099920Y-85501080D02*
X179096220Y-85504070D01*
X179101320Y-85501080D02*
X179099920Y-85501080D01*
X179088020Y-85588540D02*
X179101320Y-85501080D01*
X179028420Y-86032880D02*
X179088020Y-85588540D01*
X178959920Y-86468040D02*
X179028420Y-86032880D01*
X178942320Y-86550940D02*
X178959920Y-86468040D01*
X178938320Y-86567710D02*
X178942320Y-86550940D01*
X178920220Y-86616640D02*
X178938320Y-86567710D01*
X178882920Y-86696830D02*
X178920220Y-86616640D01*
X178832620Y-86781790D02*
X178882920Y-86696830D01*
X178772220Y-86861760D02*
X178832620Y-86781790D01*
X178704320Y-86927030D02*
X178772220Y-86861760D01*
X178631520Y-86967930D02*
X178704320Y-86927030D01*
X178556920Y-86974760D02*
X178631520Y-86967930D01*
X178498020Y-86950790D02*
X178556920Y-86974760D01*
X178482720Y-86937760D02*
X178498020Y-86950790D01*
X178474320Y-86930710D02*
X178482720Y-86937760D01*
X178459520Y-86897120D02*
X178474320Y-86930710D01*
X178455020Y-86832940D02*
X178459520Y-86897120D01*
X178466620Y-86748860D02*
X178455020Y-86832940D01*
X178492420Y-86648490D02*
X178466620Y-86748860D01*
X178530120Y-86535470D02*
X178492420Y-86648490D01*
X178577420Y-86413510D02*
X178530120Y-86535470D01*
X178632320Y-86286240D02*
X178577420Y-86413510D01*
X178692620Y-86157220D02*
X178632320Y-86286240D01*
X178755920Y-86030110D02*
X178692620Y-86157220D01*
X178820120Y-85908640D02*
X178755920Y-86030110D01*
X178883020Y-85796390D02*
X178820120Y-85908640D01*
X178942420Y-85696990D02*
X178883020Y-85796390D01*
X178996220Y-85614140D02*
X178942420Y-85696990D01*
X179042020Y-85551430D02*
X178996220Y-85614140D01*
X179077720Y-85512530D02*
X179042020Y-85551430D01*
X179096220Y-85500000D02*
X179077720Y-85512530D01*
X179101320Y-85501080D02*
X179096220Y-85500000D01*
X175407720Y-90179600D02*
X175407720Y-90179600D01*
X175404120Y-90178700D02*
X175407720Y-90179600D01*
X175394020Y-90174300D02*
X175404120Y-90178700D01*
X175400220Y-90171800D02*
X175394020Y-90174300D01*
X175418620Y-90171500D02*
X175400220Y-90171800D01*
X175440820Y-90172700D02*
X175418620Y-90171500D01*
X175459020Y-90174800D02*
X175440820Y-90172700D01*
X175464820Y-90177000D02*
X175459020Y-90174800D01*
X175450520Y-90178900D02*
X175464820Y-90177000D01*
X175418420Y-90179600D02*
X175450520Y-90178900D01*
X175407720Y-90179600D02*
X175418420Y-90179600D01*
X175326520Y-90165500D02*
X175407720Y-90179600D01*
X175084020Y-90114800D02*
X175326520Y-90165500D01*
X174753820Y-90034600D02*
X175084020Y-90114800D01*
X174423420Y-89943900D02*
X174753820Y-90034600D01*
X174180620Y-89872600D02*
X174423420Y-89943900D01*
X174099920Y-89848100D02*
X174180620Y-89872600D01*
X174069020Y-89833400D02*
X174099920Y-89848100D01*
X173984020Y-89772500D02*
X174069020Y-89833400D01*
X173922020Y-89685400D02*
X173984020Y-89772500D01*
X173904820Y-89589300D02*
X173922020Y-89685400D01*
X173923120Y-89486500D02*
X173904820Y-89589300D01*
X173968020Y-89379400D02*
X173923120Y-89486500D01*
X174030420Y-89270400D02*
X173968020Y-89379400D01*
X174100820Y-89161800D02*
X174030420Y-89270400D01*
X174153620Y-89082700D02*
X174100820Y-89161800D01*
X174170620Y-89056000D02*
X174153620Y-89082700D01*
X174232420Y-88959300D02*
X174170620Y-89056000D01*
X174532920Y-88485030D02*
X174232420Y-88959300D01*
X174833320Y-88010680D02*
X174532920Y-88485030D01*
X174895220Y-87914000D02*
X174833320Y-88010680D01*
X174921620Y-87867940D02*
X174895220Y-87914000D01*
X175063020Y-87639970D02*
X174921620Y-87867940D01*
X175204420Y-87421280D02*
X175063020Y-87639970D01*
X175230920Y-87379820D02*
X175204420Y-87421280D01*
X175249720Y-87352430D02*
X175230920Y-87379820D01*
X175300820Y-87266710D02*
X175249720Y-87352430D01*
X175379020Y-87138070D02*
X175300820Y-87266710D01*
X175467020Y-87019810D02*
X175379020Y-87138070D01*
X175538720Y-86952360D02*
X175467020Y-87019810D01*
X175566820Y-86937760D02*
X175538720Y-86952360D01*
X175592920Y-86925830D02*
X175566820Y-86937760D01*
X175682520Y-86914440D02*
X175592920Y-86925830D01*
X175813820Y-86934570D02*
X175682520Y-86914440D01*
X175954720Y-86987900D02*
X175813820Y-86934570D01*
X176099120Y-87064390D02*
X175954720Y-86987900D01*
X176240920Y-87153810D02*
X176099120Y-87064390D01*
X176374420Y-87245990D02*
X176240920Y-87153810D01*
X176493420Y-87330830D02*
X176374420Y-87245990D01*
X176566620Y-87382150D02*
X176493420Y-87330830D01*
X176591820Y-87398280D02*
X176566620Y-87382150D01*
X176614420Y-87413940D02*
X176591820Y-87398280D01*
X176686820Y-87454640D02*
X176614420Y-87413940D01*
X176794920Y-87517960D02*
X176686820Y-87454640D01*
X176889920Y-87595100D02*
X176794920Y-87517960D01*
X176939020Y-87666720D02*
X176889920Y-87595100D01*
X176945220Y-87692970D02*
X176939020Y-87666720D01*
X176950120Y-87706650D02*
X176945220Y-87692970D01*
X176955020Y-87751290D02*
X176950120Y-87706650D01*
X176947220Y-87814390D02*
X176955020Y-87751290D01*
X176925620Y-87880100D02*
X176947220Y-87814390D01*
X176894420Y-87946240D02*
X176925620Y-87880100D01*
X176857320Y-88010620D02*
X176894420Y-87946240D01*
X176818420Y-88071130D02*
X176857320Y-88010620D01*
X176781620Y-88125600D02*
X176818420Y-88071130D01*
X176758320Y-88160150D02*
X176781620Y-88125600D01*
X176750820Y-88171880D02*
X176758320Y-88160150D01*
X176697720Y-88268560D02*
X176750820Y-88171880D01*
X176150020Y-89235600D02*
X176697720Y-88268560D01*
X176096920Y-89332300D02*
X176150020Y-89235600D01*
X176081920Y-89359800D02*
X176096920Y-89332300D01*
X176040520Y-89444200D02*
X176081920Y-89359800D01*
X175976820Y-89578700D02*
X176040520Y-89444200D01*
X175905220Y-89723400D02*
X175976820Y-89578700D01*
X175825220Y-89866500D02*
X175905220Y-89723400D01*
X175736120Y-89995700D02*
X175825220Y-89866500D01*
X175637220Y-90099000D02*
X175736120Y-89995700D01*
X175527920Y-90164300D02*
X175637220Y-90099000D01*
X175436920Y-90182800D02*
X175527920Y-90164300D01*
X175407720Y-90179600D02*
X175436920Y-90182800D01*
X173499020Y-85611600D02*
X173499020Y-85611600D01*
X173503620Y-85612790D02*
X173499020Y-85611600D01*
X173517220Y-85618380D02*
X173503620Y-85612790D01*
X173521320Y-85624510D02*
X173517220Y-85618380D01*
X173516120Y-85629330D02*
X173521320Y-85624510D01*
X173505620Y-85632260D02*
X173516120Y-85629330D01*
X173494420Y-85632600D02*
X173505620Y-85632260D01*
X173486620Y-85629670D02*
X173494420Y-85632600D01*
X173486620Y-85622880D02*
X173486620Y-85629670D01*
X173495620Y-85613930D02*
X173486620Y-85622880D01*
X173499020Y-85611600D02*
X173495620Y-85613930D01*
X173552020Y-85629990D02*
X173499020Y-85611600D01*
X173799420Y-85742780D02*
X173552020Y-85629990D01*
X174046920Y-85864790D02*
X173799420Y-85742780D01*
X174099920Y-85887860D02*
X174046920Y-85864790D01*
X174141820Y-85913250D02*
X174099920Y-85887860D01*
X174269720Y-85985080D02*
X174141820Y-85913250D01*
X174451120Y-86085820D02*
X174269720Y-85985080D01*
X174629320Y-86193460D02*
X174451120Y-86085820D01*
X174751320Y-86279290D02*
X174629320Y-86193460D01*
X174789120Y-86311470D02*
X174751320Y-86279290D01*
X174812220Y-86332510D02*
X174789120Y-86311470D01*
X174858620Y-86420790D02*
X174812220Y-86332510D01*
X174864520Y-86550610D02*
X174858620Y-86420790D01*
X174821120Y-86693850D02*
X174864520Y-86550610D01*
X174742720Y-86843360D02*
X174821120Y-86693850D01*
X174643620Y-86991970D02*
X174742720Y-86843360D01*
X174538120Y-87132600D02*
X174643620Y-86991970D01*
X174440520Y-87258140D02*
X174538120Y-87132600D01*
X174382620Y-87334790D02*
X174440520Y-87258140D01*
X174365020Y-87361430D02*
X174382620Y-87334790D01*
X174294320Y-87471940D02*
X174365020Y-87361430D01*
X173949720Y-88015290D02*
X174294320Y-87471940D01*
X173605120Y-88558690D02*
X173949720Y-88015290D01*
X173534420Y-88669210D02*
X173605120Y-88558690D01*
X173519820Y-88692000D02*
X173534420Y-88669210D01*
X173479520Y-88762750D02*
X173519820Y-88692000D01*
X173420220Y-88871790D02*
X173479520Y-88762750D01*
X173355820Y-88987800D02*
X173420220Y-88871790D01*
X173284720Y-89102000D02*
X173355820Y-88987800D01*
X173206220Y-89205900D02*
X173284720Y-89102000D01*
X173119320Y-89290800D02*
X173206220Y-89205900D01*
X173022920Y-89348100D02*
X173119320Y-89290800D01*
X172942620Y-89369100D02*
X173022920Y-89348100D01*
X172915820Y-89369100D02*
X172942620Y-89369100D01*
X172878820Y-89369100D02*
X172915820Y-89369100D01*
X172767720Y-89347800D02*
X172878820Y-89369100D01*
X172619820Y-89295500D02*
X172767720Y-89347800D01*
X172478420Y-89229300D02*
X172619820Y-89295500D01*
X172382620Y-89181500D02*
X172478420Y-89229300D01*
X172350220Y-89166600D02*
X172382620Y-89181500D01*
X172301620Y-89148100D02*
X172350220Y-89166600D01*
X172049820Y-89044500D02*
X172301620Y-89148100D01*
X171798020Y-88931700D02*
X172049820Y-89044500D01*
X171749420Y-88908690D02*
X171798020Y-88931700D01*
X171733320Y-88901960D02*
X171749420Y-88908690D01*
X171685020Y-88881560D02*
X171733320Y-88901960D01*
X171626020Y-88854000D02*
X171685020Y-88881560D01*
X171573920Y-88823830D02*
X171626020Y-88854000D01*
X171530720Y-88788940D02*
X171573920Y-88823830D01*
X171498220Y-88747120D02*
X171530720Y-88788940D01*
X171478520Y-88696240D02*
X171498220Y-88747120D01*
X171473220Y-88634170D02*
X171478520Y-88696240D01*
X171479920Y-88577140D02*
X171473220Y-88634170D01*
X171484320Y-88558690D02*
X171479920Y-88577140D01*
X171491020Y-88523380D02*
X171484320Y-88558690D01*
X171528520Y-88420850D02*
X171491020Y-88523380D01*
X171599220Y-88284670D02*
X171528520Y-88420850D01*
X171683120Y-88152010D02*
X171599220Y-88284670D01*
X171746520Y-88056640D02*
X171683120Y-88152010D01*
X171767120Y-88024510D02*
X171746520Y-88056640D01*
X171833320Y-87909390D02*
X171767120Y-88024510D01*
X172186820Y-87354490D02*
X171833320Y-87909390D01*
X172557920Y-86808860D02*
X172186820Y-87354490D01*
X172633020Y-86698350D02*
X172557920Y-86808860D01*
X172656520Y-86661670D02*
X172633020Y-86698350D01*
X172726120Y-86551100D02*
X172656520Y-86661670D01*
X172820520Y-86401580D02*
X172726120Y-86551100D01*
X172917920Y-86252440D02*
X172820520Y-86401580D01*
X173019720Y-86106560D02*
X172917920Y-86252440D01*
X173127220Y-85966680D02*
X173019720Y-86106560D01*
X173241920Y-85835720D02*
X173127220Y-85966680D01*
X173365420Y-85716420D02*
X173241920Y-85835720D01*
X173464120Y-85635740D02*
X173365420Y-85716420D01*
X173499020Y-85611600D02*
X173464120Y-85635740D01*
X180356120Y-110957100D02*
X180356120Y-110957100D01*
X180371620Y-110938900D02*
X180356120Y-110957100D01*
X180418320Y-110884100D02*
X180371620Y-110938900D01*
X180472720Y-110820500D02*
X180418320Y-110884100D01*
X180519720Y-110765500D02*
X180472720Y-110820500D01*
X180559720Y-110719100D02*
X180519720Y-110765500D01*
X180593020Y-110680400D02*
X180559720Y-110719100D01*
X180620120Y-110649300D02*
X180593020Y-110680400D01*
X180641220Y-110625100D02*
X180620120Y-110649300D01*
X180656820Y-110607300D02*
X180641220Y-110625100D01*
X180667220Y-110595800D02*
X180656820Y-110607300D01*
X180672920Y-110589700D02*
X180667220Y-110595800D01*
X180674120Y-110588900D02*
X180672920Y-110589700D01*
X180671320Y-110592700D02*
X180674120Y-110588900D01*
X180665020Y-110600900D02*
X180671320Y-110592700D01*
X180655420Y-110612700D02*
X180665020Y-110600900D01*
X180642720Y-110628000D02*
X180655420Y-110612700D01*
X180627720Y-110646200D02*
X180642720Y-110628000D01*
X180610620Y-110666800D02*
X180627720Y-110646200D01*
X180591820Y-110689300D02*
X180610620Y-110666800D01*
X180571520Y-110713400D02*
X180591820Y-110689300D01*
X180550220Y-110738400D02*
X180571520Y-110713400D01*
X180528420Y-110764300D02*
X180550220Y-110738400D01*
X180506220Y-110790100D02*
X180528420Y-110764300D01*
X180484320Y-110815700D02*
X180506220Y-110790100D01*
X180462920Y-110840500D02*
X180484320Y-110815700D01*
X180442320Y-110864100D02*
X180462920Y-110840500D01*
X180423120Y-110885900D02*
X180442320Y-110864100D01*
X180405620Y-110905800D02*
X180423120Y-110885900D01*
X180390120Y-110923000D02*
X180405620Y-110905800D01*
X180377020Y-110937200D02*
X180390120Y-110923000D01*
X180366620Y-110948000D02*
X180377020Y-110937200D01*
X180359520Y-110954700D02*
X180366620Y-110948000D01*
X180356920Y-110957100D02*
X180359520Y-110954700D01*
X180356120Y-110957100D02*
X180356920Y-110957100D01*
X180519520Y-110763700D02*
X180356120Y-110957100D01*
X184990920Y-105757900D02*
X184955520Y-105802600D01*
X185004020Y-105744300D02*
X184990920Y-105757900D01*
X185043720Y-105707500D02*
X185004020Y-105744300D01*
X185242620Y-105532500D02*
X185043720Y-105707500D01*
X185441320Y-105357500D02*
X185242620Y-105532500D01*
X185481220Y-105320700D02*
X185441320Y-105357500D01*
X185516520Y-105288300D02*
X185481220Y-105320700D01*
X185870020Y-104966100D02*
X185516520Y-105288300D01*
X185905420Y-104933900D02*
X185870020Y-104966100D01*
X185915820Y-104925000D02*
X185905420Y-104933900D01*
X185945420Y-104896100D02*
X185915820Y-104925000D01*
X185996920Y-104842300D02*
X185945420Y-104896100D01*
X186056920Y-104779000D02*
X185996920Y-104842300D01*
X186121820Y-104712700D02*
X186056920Y-104779000D01*
X186188320Y-104649800D02*
X186121820Y-104712700D01*
X186253320Y-104597100D02*
X186188320Y-104649800D01*
X186313120Y-104560500D02*
X186253320Y-104597100D01*
X186351920Y-104546900D02*
X186313120Y-104560500D01*
X186364820Y-104546900D02*
X186351920Y-104546900D01*
X186378720Y-104546900D02*
X186364820Y-104546900D01*
X186420520Y-104558300D02*
X186378720Y-104546900D01*
X186468820Y-104589300D02*
X186420520Y-104558300D01*
X186511120Y-104635400D02*
X186468820Y-104589300D01*
X186548120Y-104692100D02*
X186511120Y-104635400D01*
X186581120Y-104754800D02*
X186548120Y-104692100D01*
X186610820Y-104819000D02*
X186581120Y-104754800D01*
X186638620Y-104880300D02*
X186610820Y-104819000D01*
X186658020Y-104920700D02*
X186638620Y-104880300D01*
X186665220Y-104933900D02*
X186658020Y-104920700D01*
X186691820Y-104979800D02*
X186665220Y-104933900D01*
X186943620Y-105440200D02*
X186691820Y-104979800D01*
X186965620Y-105486400D02*
X186943620Y-105440200D01*
X186999020Y-105552200D02*
X186965620Y-105486400D01*
X187094120Y-105752300D02*
X186999020Y-105552200D01*
X187210920Y-106025100D02*
X187094120Y-105752300D01*
X187311120Y-106304800D02*
X187210920Y-106025100D01*
X187373320Y-106519100D02*
X187311120Y-106304800D01*
X187389820Y-106591600D02*
X187373320Y-106519100D01*
X187405220Y-106659100D02*
X187389820Y-106591600D01*
X187437720Y-106865000D02*
X187405220Y-106659100D01*
X187461620Y-107155100D02*
X187437720Y-106865000D01*
X187460620Y-107454700D02*
X187461620Y-107155100D01*
X187434020Y-107756600D02*
X187460620Y-107454700D01*
X187380820Y-108053300D02*
X187434020Y-107756600D01*
X187300420Y-108337300D02*
X187380820Y-108053300D01*
X187191820Y-108601600D02*
X187300420Y-108337300D01*
X187092920Y-108782600D02*
X187191820Y-108601600D01*
X187054120Y-108838900D02*
X187092920Y-108782600D01*
X187016220Y-108895400D02*
X187054120Y-108838900D01*
X161340010Y-116566600D02*
X161702410Y-116360900D01*
X166643340Y-126494700D02*
X166246530Y-126383600D01*
X172061120Y-97708700D02*
X172291220Y-97767800D01*
X171752120Y-97624300D02*
X172061120Y-97708700D01*
X171444020Y-97530800D02*
X171752120Y-97624300D01*
X171139720Y-97425500D02*
X171444020Y-97530800D01*
X170841920Y-97305400D02*
X171139720Y-97425500D01*
X170553720Y-97167900D02*
X170841920Y-97305400D01*
X170277920Y-97010100D02*
X170553720Y-97167900D01*
X170080220Y-96877300D02*
X170277920Y-97010100D01*
X170017520Y-96829100D02*
X170080220Y-96877300D01*
X169899620Y-96740400D02*
X170017520Y-96829100D01*
X169562620Y-96452100D02*
X169899620Y-96740400D01*
X169149320Y-96037100D02*
X169562620Y-96452100D01*
X168772320Y-95580700D02*
X169149320Y-96037100D01*
X168508120Y-95207900D02*
X168772320Y-95580700D01*
X168426920Y-95079300D02*
X168508120Y-95207900D01*
X168345160Y-94946400D02*
X168426920Y-95079300D01*
X168123690Y-94533000D02*
X168345160Y-94946400D01*
X167870220Y-93969600D02*
X168123690Y-94533000D01*
X167656470Y-93385300D02*
X167870220Y-93969600D01*
X167515030Y-92929800D02*
X167656470Y-93385300D01*
X167472610Y-92776800D02*
X167515030Y-92929800D01*
X167449050Y-92689200D02*
X167472610Y-92776800D01*
X167372890Y-92428200D02*
X167449050Y-92689200D01*
X167271540Y-92074500D02*
X167372890Y-92428200D01*
X167186790Y-91717300D02*
X167271540Y-92074500D01*
X167143440Y-91448600D02*
X167186790Y-91717300D01*
X167136830Y-91358500D02*
X167143440Y-91448600D01*
X167127980Y-91247900D02*
X167136830Y-91358500D01*
X167114690Y-90695400D02*
X167127980Y-91247900D01*
X167119140Y-90198100D02*
X167114690Y-90695400D01*
X167119140Y-90032300D02*
X167119140Y-90198100D01*
X167119140Y-89852700D02*
X167119140Y-90032300D01*
X167112470Y-89313900D02*
X167119140Y-89852700D01*
X167114690Y-88715220D02*
X167112470Y-89313900D01*
X167119140Y-88595540D02*
X167114690Y-88715220D01*
X167121530Y-88570470D02*
X167119140Y-88595540D01*
X167126850Y-88495110D02*
X167121530Y-88570470D01*
X167137910Y-88344830D02*
X167126850Y-88495110D01*
X167153910Y-88163900D02*
X167137910Y-88344830D01*
X167176540Y-87971570D02*
X167153910Y-88163900D01*
X167207470Y-87786940D02*
X167176540Y-87971570D01*
X167248370Y-87629330D02*
X167207470Y-87786940D01*
X167300830Y-87517900D02*
X167248370Y-87629330D01*
X167349230Y-87473570D02*
X167300830Y-87517900D01*
X167366600Y-87471940D02*
X167349230Y-87473570D01*
X172368020Y-97786900D02*
X172447620Y-97805500D01*
X172291220Y-97767800D02*
X172368020Y-97786900D01*
X175177920Y-109575700D02*
X175177920Y-109575700D01*
X175177320Y-109581900D02*
X175177920Y-109575700D01*
X175174920Y-109600700D02*
X175177320Y-109581900D01*
X175172920Y-109608900D02*
X175174920Y-109600700D01*
X175171320Y-109602900D02*
X175172920Y-109608900D01*
X175170520Y-109585900D02*
X175171320Y-109602900D01*
X175170120Y-109560700D02*
X175170520Y-109585900D01*
X175170120Y-109530200D02*
X175170120Y-109560700D01*
X175170520Y-109497300D02*
X175170120Y-109530200D01*
X175171220Y-109465100D02*
X175170520Y-109497300D01*
X175172220Y-109436200D02*
X175171220Y-109465100D01*
X175173320Y-109413700D02*
X175172220Y-109436200D01*
X175174420Y-109400400D02*
X175173320Y-109413700D01*
X175175520Y-109399400D02*
X175174420Y-109400400D01*
X175176520Y-109413600D02*
X175175520Y-109399400D01*
X175177220Y-109445700D02*
X175176520Y-109413600D01*
X175177720Y-109498700D02*
X175177220Y-109445700D01*
X175177920Y-109556400D02*
X175177720Y-109498700D01*
X175177920Y-109575700D02*
X175177920Y-109556400D01*
X175171220Y-109658600D02*
X175177920Y-109575700D01*
X175144020Y-109907100D02*
X175171220Y-109658600D01*
X175105020Y-110238700D02*
X175144020Y-109907100D01*
X175076120Y-110570300D02*
X175105020Y-110238700D01*
X168555020Y-126913200D02*
X167870220Y-126770400D01*
X160983350Y-116782100D02*
X161340010Y-116566600D01*
X168785120Y-111517100D02*
X168915920Y-111358200D01*
X162434730Y-115964000D02*
X162799640Y-115765500D01*
X169696020Y-108436900D02*
X169682020Y-108281600D01*
X163346080Y-115451400D02*
X163913470Y-115136900D01*
X166000000Y-114000000D02*
X166182510Y-113885800D01*
D12*
X132840476Y-112364286D02*
X132578571Y-112626190D01*
X131792857Y-112888095D01*
X131269047Y-112888095D01*
X130483333Y-112626190D01*
X129959524Y-112102381D01*
X129697619Y-111578571D01*
X129435714Y-110530952D01*
X129435714Y-109745238D01*
X129697619Y-108697619D01*
X129959524Y-108173810D01*
X130483333Y-107650000D01*
X131269047Y-107388095D01*
X131792857Y-107388095D01*
X132578571Y-107650000D01*
X132840476Y-107911905D01*
X136245238Y-107388095D02*
X137292857Y-107388095D01*
X137816666Y-107650000D01*
X138340476Y-108173810D01*
X138602381Y-109221429D01*
X138602381Y-111054762D01*
X138340476Y-112102381D01*
X137816666Y-112626190D01*
X137292857Y-112888095D01*
X136245238Y-112888095D01*
X135721428Y-112626190D01*
X135197619Y-112102381D01*
X134935714Y-111054762D01*
X134935714Y-109221429D01*
X135197619Y-108173810D01*
X135721428Y-107650000D01*
X136245238Y-107388095D01*
X140959524Y-112888095D02*
X140959524Y-107388095D01*
X144102381Y-112888095D01*
X144102381Y-107388095D01*
X129773810Y-104488095D02*
X129773810Y-98988095D01*
X131869048Y-98988095D01*
X132392857Y-99250000D01*
X132654762Y-99511905D01*
X132916667Y-100035714D01*
X132916667Y-100821429D01*
X132654762Y-101345238D01*
X132392857Y-101607143D01*
X131869048Y-101869048D01*
X129773810Y-101869048D01*
X137892857Y-104488095D02*
X135273810Y-104488095D01*
X135273810Y-98988095D01*
X139464286Y-102916667D02*
X142083334Y-102916667D01*
X138940477Y-104488095D02*
X140773810Y-98988095D01*
X142607143Y-104488095D01*
X143654763Y-98988095D02*
X146797620Y-98988095D01*
X145226191Y-104488095D02*
X145226191Y-98988095D01*
X149678572Y-101869048D02*
X149678572Y-104488095D01*
X147845239Y-98988095D02*
X149678572Y-101869048D01*
X151511905Y-98988095D01*
X153345239Y-104488095D02*
X153345239Y-98988095D01*
X155440477Y-98988095D01*
X155964286Y-99250000D01*
X156226191Y-99511905D01*
X156488096Y-100035714D01*
X156488096Y-100821429D01*
X156226191Y-101345238D01*
X155964286Y-101607143D01*
X155440477Y-101869048D01*
X153345239Y-101869048D01*
X158845239Y-98988095D02*
X158845239Y-103440476D01*
X159107144Y-103964286D01*
X159369048Y-104226190D01*
X159892858Y-104488095D01*
X160940477Y-104488095D01*
X161464286Y-104226190D01*
X161726191Y-103964286D01*
X161988096Y-103440476D01*
X161988096Y-98988095D01*
X164345239Y-104226190D02*
X165130953Y-104488095D01*
X166440477Y-104488095D01*
X166964287Y-104226190D01*
X167226191Y-103964286D01*
X167488096Y-103440476D01*
X167488096Y-102916667D01*
X167226191Y-102392857D01*
X166964287Y-102130952D01*
X166440477Y-101869048D01*
X165392858Y-101607143D01*
X164869049Y-101345238D01*
X164607144Y-101083333D01*
X164345239Y-100559524D01*
X164345239Y-100035714D01*
X164607144Y-99511905D01*
X164869049Y-99250000D01*
X165392858Y-98988095D01*
X166702382Y-98988095D01*
X167488096Y-99250000D01*
D10*
G36*
X185937423Y-106558743D02*
X186731825Y-107456651D01*
X185833917Y-108251053D01*
X185039515Y-107353145D01*
X185937423Y-106558743D01*
X185937423Y-106558743D01*
G37*
G36*
X184366083Y-107948947D02*
X185160485Y-108846855D01*
X184262577Y-109641257D01*
X183468175Y-108743349D01*
X184366083Y-107948947D01*
X184366083Y-107948947D01*
G37*
D13*
X163000000Y-78000000D03*
D14*
X134149300Y-77700000D03*
X132650700Y-77700000D03*
X191850700Y-77700000D03*
X193349300Y-77700000D03*
M02*
