G04 #@! TF.FileFunction,Legend,Bot*
%FSLAX46Y46*%
G04 Gerber Fmt 4.6, Leading zero omitted, Abs format (unit mm)*
G04 Created by KiCad (PCBNEW 4.0.3+e1-6302~38~ubuntu16.04.1-stable) date Sat Aug 27 12:55:36 2016*
%MOMM*%
%LPD*%
G01*
G04 APERTURE LIST*
%ADD10C,0.100000*%
%ADD11C,0.330000*%
%ADD12C,0.150000*%
%ADD13C,0.250000*%
G04 APERTURE END LIST*
D10*
D11*
X196923808Y-129435714D02*
X195709523Y-129435714D01*
X196438094Y-128707143D02*
X196923808Y-130892857D01*
X195871428Y-130164286D02*
X197085713Y-130164286D01*
X196357142Y-130892857D02*
X195871428Y-128707143D01*
X194899999Y-130569048D02*
X195061904Y-130488095D01*
X195142856Y-130326190D01*
X195142856Y-128869048D01*
X193604761Y-130488095D02*
X193766666Y-130569048D01*
X194090475Y-130569048D01*
X194252380Y-130488095D01*
X194333332Y-130326190D01*
X194333332Y-129678571D01*
X194252380Y-129516667D01*
X194090475Y-129435714D01*
X193766666Y-129435714D01*
X193604761Y-129516667D01*
X193523809Y-129678571D01*
X193523809Y-129840476D01*
X194333332Y-130002381D01*
X193038094Y-129435714D02*
X192390475Y-129435714D01*
X192795237Y-128869048D02*
X192795237Y-130326190D01*
X192714285Y-130488095D01*
X192552380Y-130569048D01*
X192390475Y-130569048D01*
X191904760Y-130488095D02*
X191742856Y-130569048D01*
X191419046Y-130569048D01*
X191257141Y-130488095D01*
X191176189Y-130326190D01*
X191176189Y-130245238D01*
X191257141Y-130083333D01*
X191419046Y-130002381D01*
X191661903Y-130002381D01*
X191823808Y-129921429D01*
X191904760Y-129759524D01*
X191904760Y-129678571D01*
X191823808Y-129516667D01*
X191661903Y-129435714D01*
X191419046Y-129435714D01*
X191257141Y-129516667D01*
X190447618Y-129435714D02*
X190447618Y-130892857D01*
X190528570Y-131054762D01*
X190690475Y-131135714D01*
X190771428Y-131135714D01*
X190447618Y-128869048D02*
X190528570Y-128950000D01*
X190447618Y-129030952D01*
X190366666Y-128950000D01*
X190447618Y-128869048D01*
X190447618Y-129030952D01*
X188909523Y-129435714D02*
X188909523Y-130569048D01*
X189638094Y-129435714D02*
X189638094Y-130326190D01*
X189557142Y-130488095D01*
X189395237Y-130569048D01*
X189152380Y-130569048D01*
X188990475Y-130488095D01*
X188909523Y-130407143D01*
X188180951Y-130488095D02*
X188019047Y-130569048D01*
X187695237Y-130569048D01*
X187533332Y-130488095D01*
X187452380Y-130326190D01*
X187452380Y-130245238D01*
X187533332Y-130083333D01*
X187695237Y-130002381D01*
X187938094Y-130002381D01*
X188099999Y-129921429D01*
X188180951Y-129759524D01*
X188180951Y-129678571D01*
X188099999Y-129516667D01*
X187938094Y-129435714D01*
X187695237Y-129435714D01*
X187533332Y-129516667D01*
X186966666Y-129435714D02*
X186319047Y-129435714D01*
X186723809Y-128869048D02*
X186723809Y-130326190D01*
X186642857Y-130488095D01*
X186480952Y-130569048D01*
X186319047Y-130569048D01*
X185752380Y-130569048D02*
X185752380Y-128869048D01*
X185023809Y-130569048D02*
X185023809Y-129678571D01*
X185104761Y-129516667D01*
X185266666Y-129435714D01*
X185509523Y-129435714D01*
X185671428Y-129516667D01*
X185752380Y-129597619D01*
X183485714Y-130569048D02*
X183485714Y-129678571D01*
X183566666Y-129516667D01*
X183728571Y-129435714D01*
X184052380Y-129435714D01*
X184214285Y-129516667D01*
X183485714Y-130488095D02*
X183647618Y-130569048D01*
X184052380Y-130569048D01*
X184214285Y-130488095D01*
X184295237Y-130326190D01*
X184295237Y-130164286D01*
X184214285Y-130002381D01*
X184052380Y-129921429D01*
X183647618Y-129921429D01*
X183485714Y-129840476D01*
X181947619Y-130488095D02*
X182109523Y-130569048D01*
X182433333Y-130569048D01*
X182595238Y-130488095D01*
X182676190Y-130407143D01*
X182757142Y-130245238D01*
X182757142Y-129759524D01*
X182676190Y-129597619D01*
X182595238Y-129516667D01*
X182433333Y-129435714D01*
X182109523Y-129435714D01*
X181947619Y-129516667D01*
X181219047Y-130569048D02*
X181219047Y-128869048D01*
X181057142Y-129921429D02*
X180571428Y-130569048D01*
X180571428Y-129435714D02*
X181219047Y-130083333D01*
X179923809Y-130488095D02*
X179761905Y-130569048D01*
X179438095Y-130569048D01*
X179276190Y-130488095D01*
X179195238Y-130326190D01*
X179195238Y-130245238D01*
X179276190Y-130083333D01*
X179438095Y-130002381D01*
X179680952Y-130002381D01*
X179842857Y-129921429D01*
X179923809Y-129759524D01*
X179923809Y-129678571D01*
X179842857Y-129516667D01*
X179680952Y-129435714D01*
X179438095Y-129435714D01*
X179276190Y-129516667D01*
X178466667Y-130569048D02*
X178466667Y-128869048D01*
X177738096Y-130569048D02*
X177738096Y-129678571D01*
X177819048Y-129516667D01*
X177980953Y-129435714D01*
X178223810Y-129435714D01*
X178385715Y-129516667D01*
X178466667Y-129597619D01*
X176928572Y-130569048D02*
X176928572Y-129435714D01*
X176928572Y-128869048D02*
X177009524Y-128950000D01*
X176928572Y-129030952D01*
X176847620Y-128950000D01*
X176928572Y-128869048D01*
X176928572Y-129030952D01*
X176361905Y-129435714D02*
X175714286Y-129435714D01*
X176119048Y-128869048D02*
X176119048Y-130326190D01*
X176038096Y-130488095D01*
X175876191Y-130569048D01*
X175714286Y-130569048D01*
D12*
X161200000Y-108550000D02*
X164800000Y-108550000D01*
X161200000Y-123900000D02*
X164800000Y-123900000D01*
X157500000Y-116000000D02*
X160500000Y-113500000D01*
X165500000Y-118500000D02*
X168500000Y-116000000D01*
X157500000Y-118500000D02*
X157500000Y-113500000D01*
X168500000Y-118500000D02*
X168500000Y-113500000D01*
X157500000Y-118500000D02*
X168500000Y-118500000D01*
X157500000Y-113500000D02*
X168500000Y-113500000D01*
X162400000Y-107875000D02*
X163600000Y-107875000D01*
X163600000Y-106125000D02*
X162400000Y-106125000D01*
X153500420Y-126700000D02*
X154450380Y-127401040D01*
X154450380Y-127401040D02*
X154450380Y-125998960D01*
X154450380Y-125998960D02*
X153500420Y-126700000D01*
X153500420Y-127401040D02*
X153500420Y-125998960D01*
X151749560Y-125300460D02*
X151749560Y-125450320D01*
X151749560Y-128099540D02*
X151749560Y-127949680D01*
X152200860Y-125300460D02*
X152200860Y-125501120D01*
X156250440Y-125351260D02*
X156250440Y-125450320D01*
X152200860Y-128048740D02*
X152200860Y-127898880D01*
X156250440Y-128099540D02*
X156250440Y-127949680D01*
X152200860Y-124949940D02*
X152200860Y-125300460D01*
X152200860Y-128450060D02*
X152200860Y-128099540D01*
X156250440Y-124949940D02*
X156250440Y-125300460D01*
X151749560Y-124949940D02*
X151749560Y-125300460D01*
X151749560Y-128450060D02*
X151749560Y-128099540D01*
X156250440Y-128450060D02*
X156250440Y-128099540D01*
X151749560Y-124949940D02*
X156250440Y-124949940D01*
X151749560Y-128450060D02*
X156250440Y-128450060D01*
X140250000Y-115600000D02*
X140250000Y-112900000D01*
X141750000Y-115600000D02*
X141750000Y-112900000D01*
X140850000Y-114100000D02*
X141100000Y-114100000D01*
X141100000Y-114100000D02*
X140950000Y-114250000D01*
X141350000Y-114350000D02*
X140650000Y-114350000D01*
X141000000Y-114000000D02*
X141000000Y-113650000D01*
X141000000Y-114350000D02*
X141350000Y-114000000D01*
X141350000Y-114000000D02*
X140650000Y-114000000D01*
X140650000Y-114000000D02*
X141000000Y-114350000D01*
X142499820Y-121450800D02*
X142499820Y-120749760D01*
X142499820Y-120749760D02*
X142250900Y-120749760D01*
X139700840Y-120749760D02*
X139500180Y-120749760D01*
X139500180Y-120749760D02*
X139500180Y-121450800D01*
X141875000Y-108800000D02*
X141875000Y-107600000D01*
X140125000Y-107600000D02*
X140125000Y-108800000D01*
X131125000Y-81800000D02*
X131125000Y-83000000D01*
X132875000Y-83000000D02*
X132875000Y-81800000D01*
X193125000Y-81800000D02*
X193125000Y-83000000D01*
X194875000Y-83000000D02*
X194875000Y-81800000D01*
X163785714Y-119228571D02*
X163642857Y-119276190D01*
X163595238Y-119323810D01*
X163547619Y-119419048D01*
X163547619Y-119561905D01*
X163595238Y-119657143D01*
X163642857Y-119704762D01*
X163738095Y-119752381D01*
X164119048Y-119752381D01*
X164119048Y-118752381D01*
X163785714Y-118752381D01*
X163690476Y-118800000D01*
X163642857Y-118847619D01*
X163595238Y-118942857D01*
X163595238Y-119038095D01*
X163642857Y-119133333D01*
X163690476Y-119180952D01*
X163785714Y-119228571D01*
X164119048Y-119228571D01*
X163261905Y-118752381D02*
X162690476Y-118752381D01*
X162976191Y-119752381D02*
X162976191Y-118752381D01*
X161833333Y-119752381D02*
X162404762Y-119752381D01*
X162119048Y-119752381D02*
X162119048Y-118752381D01*
X162214286Y-118895238D01*
X162309524Y-118990476D01*
X162404762Y-119038095D01*
D13*
X170738095Y-115928571D02*
X170595238Y-115976190D01*
X170547619Y-116023810D01*
X170500000Y-116119048D01*
X170500000Y-116261905D01*
X170547619Y-116357143D01*
X170595238Y-116404762D01*
X170690476Y-116452381D01*
X171071429Y-116452381D01*
X171071429Y-115452381D01*
X170738095Y-115452381D01*
X170642857Y-115500000D01*
X170595238Y-115547619D01*
X170547619Y-115642857D01*
X170547619Y-115738095D01*
X170595238Y-115833333D01*
X170642857Y-115880952D01*
X170738095Y-115928571D01*
X171071429Y-115928571D01*
X170119048Y-116166667D02*
X169642857Y-116166667D01*
X170214286Y-116452381D02*
X169880953Y-115452381D01*
X169547619Y-116452381D01*
X169357143Y-115452381D02*
X168785714Y-115452381D01*
X169071429Y-116452381D02*
X169071429Y-115452381D01*
D12*
X166023810Y-116166667D02*
X165547619Y-116166667D01*
X166119048Y-116452381D02*
X165785715Y-115452381D01*
X165452381Y-116452381D01*
X164690476Y-116452381D02*
X164690476Y-115452381D01*
X164690476Y-116404762D02*
X164785714Y-116452381D01*
X164976191Y-116452381D01*
X165071429Y-116404762D01*
X165119048Y-116357143D01*
X165166667Y-116261905D01*
X165166667Y-115976190D01*
X165119048Y-115880952D01*
X165071429Y-115833333D01*
X164976191Y-115785714D01*
X164785714Y-115785714D01*
X164690476Y-115833333D01*
X164214286Y-116452381D02*
X164214286Y-115452381D01*
X163785714Y-116452381D02*
X163785714Y-115928571D01*
X163833333Y-115833333D01*
X163928571Y-115785714D01*
X164071429Y-115785714D01*
X164166667Y-115833333D01*
X164214286Y-115880952D01*
X162928571Y-116404762D02*
X163023809Y-116452381D01*
X163214286Y-116452381D01*
X163309524Y-116404762D01*
X163357143Y-116309524D01*
X163357143Y-115928571D01*
X163309524Y-115833333D01*
X163214286Y-115785714D01*
X163023809Y-115785714D01*
X162928571Y-115833333D01*
X162880952Y-115928571D01*
X162880952Y-116023810D01*
X163357143Y-116119048D01*
X162500000Y-116404762D02*
X162404762Y-116452381D01*
X162214286Y-116452381D01*
X162119047Y-116404762D01*
X162071428Y-116309524D01*
X162071428Y-116261905D01*
X162119047Y-116166667D01*
X162214286Y-116119048D01*
X162357143Y-116119048D01*
X162452381Y-116071429D01*
X162500000Y-115976190D01*
X162500000Y-115928571D01*
X162452381Y-115833333D01*
X162357143Y-115785714D01*
X162214286Y-115785714D01*
X162119047Y-115833333D01*
X161642857Y-116452381D02*
X161642857Y-115785714D01*
X161642857Y-115452381D02*
X161690476Y-115500000D01*
X161642857Y-115547619D01*
X161595238Y-115500000D01*
X161642857Y-115452381D01*
X161642857Y-115547619D01*
X161261905Y-115785714D02*
X161023810Y-116452381D01*
X160785714Y-115785714D01*
X160023809Y-116404762D02*
X160119047Y-116452381D01*
X160309524Y-116452381D01*
X160404762Y-116404762D01*
X160452381Y-116309524D01*
X160452381Y-115928571D01*
X160404762Y-115833333D01*
X160309524Y-115785714D01*
X160119047Y-115785714D01*
X160023809Y-115833333D01*
X159976190Y-115928571D01*
X159976190Y-116023810D01*
X160452381Y-116119048D01*
X163166666Y-105352381D02*
X163500000Y-104876190D01*
X163738095Y-105352381D02*
X163738095Y-104352381D01*
X163357142Y-104352381D01*
X163261904Y-104400000D01*
X163214285Y-104447619D01*
X163166666Y-104542857D01*
X163166666Y-104685714D01*
X163214285Y-104780952D01*
X163261904Y-104828571D01*
X163357142Y-104876190D01*
X163738095Y-104876190D01*
X162214285Y-105352381D02*
X162785714Y-105352381D01*
X162500000Y-105352381D02*
X162500000Y-104352381D01*
X162595238Y-104495238D01*
X162690476Y-104590476D01*
X162785714Y-104638095D01*
X154738095Y-124652381D02*
X154738095Y-123652381D01*
X154500000Y-123652381D01*
X154357142Y-123700000D01*
X154261904Y-123795238D01*
X154214285Y-123890476D01*
X154166666Y-124080952D01*
X154166666Y-124223810D01*
X154214285Y-124414286D01*
X154261904Y-124509524D01*
X154357142Y-124604762D01*
X154500000Y-124652381D01*
X154738095Y-124652381D01*
X153785714Y-123747619D02*
X153738095Y-123700000D01*
X153642857Y-123652381D01*
X153404761Y-123652381D01*
X153309523Y-123700000D01*
X153261904Y-123747619D01*
X153214285Y-123842857D01*
X153214285Y-123938095D01*
X153261904Y-124080952D01*
X153833333Y-124652381D01*
X153214285Y-124652381D01*
X150961905Y-125452381D02*
X150961905Y-124452381D01*
X150390476Y-125452381D02*
X150819048Y-124880952D01*
X150390476Y-124452381D02*
X150961905Y-125023810D01*
X157237835Y-125167407D02*
X156761644Y-125167407D01*
X157333073Y-125453121D02*
X156999740Y-124453121D01*
X156666406Y-125453121D01*
X143738095Y-114452381D02*
X143738095Y-113452381D01*
X143500000Y-113452381D01*
X143357142Y-113500000D01*
X143261904Y-113595238D01*
X143214285Y-113690476D01*
X143166666Y-113880952D01*
X143166666Y-114023810D01*
X143214285Y-114214286D01*
X143261904Y-114309524D01*
X143357142Y-114404762D01*
X143500000Y-114452381D01*
X143738095Y-114452381D01*
X142833333Y-113452381D02*
X142214285Y-113452381D01*
X142547619Y-113833333D01*
X142404761Y-113833333D01*
X142309523Y-113880952D01*
X142261904Y-113928571D01*
X142214285Y-114023810D01*
X142214285Y-114261905D01*
X142261904Y-114357143D01*
X142309523Y-114404762D01*
X142404761Y-114452381D01*
X142690476Y-114452381D01*
X142785714Y-114404762D01*
X142833333Y-114357143D01*
X150738095Y-129852381D02*
X150738095Y-128852381D01*
X150357142Y-128852381D01*
X150261904Y-128900000D01*
X150214285Y-128947619D01*
X150166666Y-129042857D01*
X150166666Y-129185714D01*
X150214285Y-129280952D01*
X150261904Y-129328571D01*
X150357142Y-129376190D01*
X150738095Y-129376190D01*
X149214285Y-129852381D02*
X149785714Y-129852381D01*
X149500000Y-129852381D02*
X149500000Y-128852381D01*
X149595238Y-128995238D01*
X149690476Y-129090476D01*
X149785714Y-129138095D01*
X146738095Y-129852381D02*
X146738095Y-128852381D01*
X146357142Y-128852381D01*
X146261904Y-128900000D01*
X146214285Y-128947619D01*
X146166666Y-129042857D01*
X146166666Y-129185714D01*
X146214285Y-129280952D01*
X146261904Y-129328571D01*
X146357142Y-129376190D01*
X146738095Y-129376190D01*
X145785714Y-128947619D02*
X145738095Y-128900000D01*
X145642857Y-128852381D01*
X145404761Y-128852381D01*
X145309523Y-128900000D01*
X145261904Y-128947619D01*
X145214285Y-129042857D01*
X145214285Y-129138095D01*
X145261904Y-129280952D01*
X145833333Y-129852381D01*
X145214285Y-129852381D01*
X142738095Y-129852381D02*
X142738095Y-128852381D01*
X142357142Y-128852381D01*
X142261904Y-128900000D01*
X142214285Y-128947619D01*
X142166666Y-129042857D01*
X142166666Y-129185714D01*
X142214285Y-129280952D01*
X142261904Y-129328571D01*
X142357142Y-129376190D01*
X142738095Y-129376190D01*
X141833333Y-128852381D02*
X141214285Y-128852381D01*
X141547619Y-129233333D01*
X141404761Y-129233333D01*
X141309523Y-129280952D01*
X141261904Y-129328571D01*
X141214285Y-129423810D01*
X141214285Y-129661905D01*
X141261904Y-129757143D01*
X141309523Y-129804762D01*
X141404761Y-129852381D01*
X141690476Y-129852381D01*
X141785714Y-129804762D01*
X141833333Y-129757143D01*
X143071429Y-120247619D02*
X143166667Y-120200000D01*
X143261905Y-120104762D01*
X143404762Y-119961905D01*
X143500001Y-119914286D01*
X143595239Y-119914286D01*
X143547620Y-120152381D02*
X143642858Y-120104762D01*
X143738096Y-120009524D01*
X143785715Y-119819048D01*
X143785715Y-119485714D01*
X143738096Y-119295238D01*
X143642858Y-119200000D01*
X143547620Y-119152381D01*
X143357143Y-119152381D01*
X143261905Y-119200000D01*
X143166667Y-119295238D01*
X143119048Y-119485714D01*
X143119048Y-119819048D01*
X143166667Y-120009524D01*
X143261905Y-120104762D01*
X143357143Y-120152381D01*
X143547620Y-120152381D01*
X142166667Y-120152381D02*
X142738096Y-120152381D01*
X142452382Y-120152381D02*
X142452382Y-119152381D01*
X142547620Y-119295238D01*
X142642858Y-119390476D01*
X142738096Y-119438095D01*
X143166666Y-108652381D02*
X143500000Y-108176190D01*
X143738095Y-108652381D02*
X143738095Y-107652381D01*
X143357142Y-107652381D01*
X143261904Y-107700000D01*
X143214285Y-107747619D01*
X143166666Y-107842857D01*
X143166666Y-107985714D01*
X143214285Y-108080952D01*
X143261904Y-108128571D01*
X143357142Y-108176190D01*
X143738095Y-108176190D01*
X142785714Y-107747619D02*
X142738095Y-107700000D01*
X142642857Y-107652381D01*
X142404761Y-107652381D01*
X142309523Y-107700000D01*
X142261904Y-107747619D01*
X142214285Y-107842857D01*
X142214285Y-107938095D01*
X142261904Y-108080952D01*
X142833333Y-108652381D01*
X142214285Y-108652381D01*
X134266666Y-82852381D02*
X134600000Y-82376190D01*
X134838095Y-82852381D02*
X134838095Y-81852381D01*
X134457142Y-81852381D01*
X134361904Y-81900000D01*
X134314285Y-81947619D01*
X134266666Y-82042857D01*
X134266666Y-82185714D01*
X134314285Y-82280952D01*
X134361904Y-82328571D01*
X134457142Y-82376190D01*
X134838095Y-82376190D01*
X133933333Y-81852381D02*
X133314285Y-81852381D01*
X133647619Y-82233333D01*
X133504761Y-82233333D01*
X133409523Y-82280952D01*
X133361904Y-82328571D01*
X133314285Y-82423810D01*
X133314285Y-82661905D01*
X133361904Y-82757143D01*
X133409523Y-82804762D01*
X133504761Y-82852381D01*
X133790476Y-82852381D01*
X133885714Y-82804762D01*
X133933333Y-82757143D01*
X191866666Y-82852381D02*
X192200000Y-82376190D01*
X192438095Y-82852381D02*
X192438095Y-81852381D01*
X192057142Y-81852381D01*
X191961904Y-81900000D01*
X191914285Y-81947619D01*
X191866666Y-82042857D01*
X191866666Y-82185714D01*
X191914285Y-82280952D01*
X191961904Y-82328571D01*
X192057142Y-82376190D01*
X192438095Y-82376190D01*
X191009523Y-82185714D02*
X191009523Y-82852381D01*
X191247619Y-81804762D02*
X191485714Y-82519048D01*
X190866666Y-82519048D01*
M02*
